0, 0, Header, 1, 9, 960
1, 0, Start_track
1, 0, Control_c, 0, 101, 0
1, 0, Control_c, 0, 100, 0
1, 0, Control_c, 0, 6, 12
1, 0, Control_c, 0, 38, 0
1, 0, Control_c, 1, 101, 0
1, 0, Control_c, 1, 100, 0
1, 0, Control_c, 1, 6, 12
1, 0, Control_c, 1, 38, 0
1, 0, Control_c, 2, 101, 0
1, 0, Control_c, 2, 100, 0
1, 0, Control_c, 2, 6, 12
1, 0, Control_c, 2, 38, 0
1, 0, Control_c, 3, 101, 0
1, 0, Control_c, 3, 100, 0
1, 0, Control_c, 3, 6, 12
1, 0, Control_c, 3, 38, 0
1, 0, Control_c, 4, 101, 0
1, 0, Control_c, 4, 100, 0
1, 0, Control_c, 4, 6, 12
1, 0, Control_c, 4, 38, 0
1, 0, Control_c, 5, 101, 0
1, 0, Control_c, 5, 100, 0
1, 0, Control_c, 5, 6, 12
1, 0, Control_c, 5, 38, 0
1, 0, Control_c, 6, 101, 0
1, 0, Control_c, 6, 100, 0
1, 0, Control_c, 6, 6, 12
1, 0, Control_c, 6, 38, 0
1, 0, Control_c, 7, 101, 0
1, 0, Control_c, 7, 100, 0
1, 0, Control_c, 7, 6, 12
1, 0, Control_c, 7, 38, 0
1, 0, Control_c, 8, 101, 0
1, 0, Control_c, 8, 100, 0
1, 0, Control_c, 8, 6, 12
1, 0, Control_c, 8, 38, 0
1, 0, Control_c, 9, 101, 0
1, 0, Control_c, 9, 100, 0
1, 0, Control_c, 9, 6, 12
1, 0, Control_c, 9, 38, 0
1, 0, Control_c, 10, 101, 0
1, 0, Control_c, 10, 100, 0
1, 0, Control_c, 10, 6, 12
1, 0, Control_c, 10, 38, 0
1, 0, Control_c, 11, 101, 0
1, 0, Control_c, 11, 100, 0
1, 0, Control_c, 11, 6, 12
1, 0, Control_c, 11, 38, 0
1, 0, Control_c, 12, 101, 0
1, 0, Control_c, 12, 100, 0
1, 0, Control_c, 12, 6, 12
1, 0, Control_c, 12, 38, 0
1, 0, Control_c, 13, 101, 0
1, 0, Control_c, 13, 100, 0
1, 0, Control_c, 13, 6, 12
1, 0, Control_c, 13, 38, 0
1, 0, Control_c, 14, 101, 0
1, 0, Control_c, 14, 100, 0
1, 0, Control_c, 14, 6, 12
1, 0, Control_c, 14, 38, 0
1, 0, Control_c, 15, 101, 0
1, 0, Control_c, 15, 100, 0
1, 0, Control_c, 15, 6, 12
1, 0, Control_c, 15, 38, 0
1, 0, Time_signature, 4, 2, 24, 8
1, 0, Tempo, 750000
1, 0, End_track
2, 0, Start_track
2, 0, Pitch_bend_c, 0, 8192
2, 0, Control_c, 0, 7, 127
2, 0, Control_c, 0, 10, 64
2, 0, Control_c, 0, 93, 0
2, 0, Control_c, 0, 91, 0
2, 0, Control_c, 0, 95, 0
2, 0, Control_c, 0, 92, 0
2, 0, Control_c, 0, 11, 127
2, 0, Program_c, 0, 25
2, 0, Control_c, 1, 7, 127
2, 0, Control_c, 1, 10, 64
2, 0, Control_c, 1, 93, 0
2, 0, Control_c, 1, 91, 0
2, 0, Control_c, 1, 95, 0
2, 0, Control_c, 1, 92, 0
2, 0, Control_c, 1, 11, 127
2, 0, Program_c, 1, 25
2, 15360, Note_on_c, 0, 61, 95
2, 15840, Note_off_c, 0, 61, 95
2, 15840, Note_on_c, 0, 63, 95
2, 16320, Note_off_c, 0, 63, 95
2, 16320, Note_on_c, 0, 64, 95
2, 16800, Note_off_c, 0, 64, 95
2, 16800, Note_on_c, 0, 66, 95
2, 17280, Note_off_c, 0, 66, 95
2, 17280, Note_on_c, 0, 68, 95
2, 18240, Note_off_c, 0, 68, 95
2, 18240, Note_on_c, 0, 73, 95
2, 19200, Note_off_c, 0, 73, 95
2, 19200, Note_on_c, 0, 71, 95
2, 20160, Note_off_c, 0, 71, 95
2, 20160, Note_on_c, 0, 68, 95
2, 21120, Note_off_c, 0, 68, 95
2, 21120, Note_on_c, 0, 70, 95
2, 21360, Note_off_c, 0, 70, 95
2, 21360, Note_on_c, 0, 71, 95
2, 21600, Note_off_c, 0, 71, 95
2, 21600, Note_on_c, 0, 70, 95
2, 23040, Note_off_c, 0, 70, 95
2, 23040, Note_on_c, 0, 71, 95
2, 24000, Note_off_c, 0, 71, 95
2, 24000, Note_on_c, 0, 68, 95
2, 24480, Note_off_c, 0, 68, 95
2, 24480, Note_on_c, 0, 70, 95
2, 24960, Note_off_c, 0, 70, 95
2, 24960, Note_on_c, 0, 71, 95
2, 25920, Note_off_c, 0, 71, 95
2, 25920, Note_on_c, 0, 70, 95
2, 26400, Note_off_c, 0, 70, 95
2, 26400, Note_on_c, 0, 66, 95
2, 26880, Note_off_c, 0, 66, 95
2, 26880, Note_on_c, 0, 63, 95
2, 27840, Note_off_c, 0, 63, 95
2, 27840, Note_on_c, 0, 64, 95
2, 28800, Note_off_c, 0, 64, 95
2, 28800, Note_on_c, 0, 63, 95
2, 29040, Note_off_c, 0, 63, 95
2, 29040, Note_on_c, 0, 64, 95
2, 29280, Note_off_c, 0, 64, 95
2, 29280, Note_on_c, 0, 63, 95
2, 30720, Note_off_c, 0, 63, 95
2, 30720, Note_on_c, 0, 61, 95
2, 31200, Note_off_c, 0, 61, 95
2, 31200, Note_on_c, 0, 63, 95
2, 31680, Note_off_c, 0, 63, 95
2, 31680, Note_on_c, 0, 64, 95
2, 32160, Note_off_c, 0, 64, 95
2, 32160, Note_on_c, 0, 66, 95
2, 32640, Note_off_c, 0, 66, 95
2, 32640, Note_on_c, 0, 64, 95
2, 33600, Note_off_c, 0, 64, 95
2, 33600, Note_on_c, 0, 63, 95
2, 34080, Note_off_c, 0, 63, 95
2, 34080, Note_on_c, 0, 64, 95
2, 34560, Note_off_c, 0, 64, 95
2, 34560, Note_on_c, 0, 66, 95
2, 35520, Note_off_c, 0, 66, 95
2, 35520, Note_on_c, 0, 64, 95
2, 36000, Note_off_c, 0, 64, 95
2, 36000, Note_on_c, 0, 63, 95
2, 36480, Note_off_c, 0, 63, 95
2, 36480, Note_on_c, 0, 61, 95
2, 38400, Note_off_c, 0, 61, 95
2, 38400, Note_on_c, 0, 66, 95
2, 39360, Note_off_c, 0, 66, 95
2, 39360, Note_on_c, 0, 64, 95
2, 39840, Note_off_c, 0, 64, 95
2, 39840, Note_on_c, 0, 63, 95
2, 40320, Note_off_c, 0, 63, 95
2, 40320, Note_on_c, 0, 61, 95
2, 41280, Note_off_c, 0, 61, 95
2, 41280, Note_on_c, 0, 63, 95
2, 41760, Note_off_c, 0, 63, 95
2, 41760, Note_on_c, 0, 64, 95
2, 42240, Note_off_c, 0, 64, 95
2, 42240, Note_on_c, 0, 66, 95
2, 43200, Note_off_c, 0, 66, 95
2, 43200, Note_on_c, 0, 64, 95
2, 43680, Note_off_c, 0, 64, 95
2, 43680, Note_on_c, 0, 66, 95
2, 44160, Note_off_c, 0, 66, 95
2, 44160, Note_on_c, 0, 68, 95
2, 46080, Note_off_c, 0, 68, 95
2, 46080, Note_on_c, 0, 49, 95
2, 46160, Note_off_c, 0, 49, 95
2, 46560, Note_on_c, 0, 49, 95
2, 46640, Note_off_c, 0, 49, 95
2, 47040, Note_on_c, 0, 49, 95
2, 47120, Note_off_c, 0, 49, 95
2, 48000, Note_on_c, 0, 49, 95
2, 48080, Note_off_c, 0, 49, 95
2, 48240, Note_on_c, 0, 49, 95
2, 48320, Note_off_c, 0, 49, 95
2, 48960, Note_on_c, 0, 49, 95
2, 49040, Note_off_c, 0, 49, 95
2, 49920, Note_on_c, 0, 44, 95
2, 50000, Note_off_c, 0, 44, 95
2, 50400, Note_on_c, 0, 44, 95
2, 50480, Note_off_c, 0, 44, 95
2, 50880, Note_on_c, 0, 44, 95
2, 50960, Note_off_c, 0, 44, 95
2, 51840, Note_on_c, 0, 44, 95
2, 51920, Note_off_c, 0, 44, 95
2, 52080, Note_on_c, 0, 44, 95
2, 52160, Note_off_c, 0, 44, 95
2, 52800, Note_on_c, 0, 44, 95
2, 52880, Note_off_c, 0, 44, 95
2, 53760, Note_on_c, 0, 42, 95
2, 53840, Note_off_c, 0, 42, 95
2, 54240, Note_on_c, 0, 42, 95
2, 54320, Note_off_c, 0, 42, 95
2, 54720, Note_on_c, 0, 42, 95
2, 54800, Note_off_c, 0, 42, 95
2, 55680, Note_on_c, 0, 42, 95
2, 55760, Note_off_c, 0, 42, 95
2, 55920, Note_on_c, 0, 42, 95
2, 56000, Note_off_c, 0, 42, 95
2, 56640, Note_on_c, 0, 42, 95
2, 56720, Note_off_c, 0, 42, 95
2, 57840, Note_on_c, 0, 42, 95
2, 58080, Note_off_c, 0, 42, 95
2, 58080, Note_on_c, 0, 42, 95
2, 58320, Note_off_c, 0, 42, 95
2, 58320, Note_on_c, 0, 42, 95
2, 58560, Note_off_c, 0, 42, 95
2, 59040, Note_on_c, 0, 42, 95
2, 59280, Note_off_c, 0, 42, 95
2, 59280, Note_on_c, 0, 42, 95
2, 59520, Note_off_c, 0, 42, 95
2, 59520, Note_on_c, 0, 42, 95
2, 59760, Note_off_c, 0, 42, 95
2, 59760, Note_on_c, 0, 42, 95
2, 60000, Note_off_c, 0, 42, 95
2, 60480, Note_on_c, 0, 42, 95
2, 61440, Note_off_c, 0, 42, 95
2, 61440, Note_on_c, 0, 49, 95
2, 61520, Note_off_c, 0, 49, 95
2, 61920, Note_on_c, 0, 49, 95
2, 62000, Note_off_c, 0, 49, 95
2, 62400, Note_on_c, 0, 49, 95
2, 62480, Note_off_c, 0, 49, 95
2, 63360, Note_on_c, 0, 49, 95
2, 63440, Note_off_c, 0, 49, 95
2, 63600, Note_on_c, 0, 49, 95
2, 63680, Note_off_c, 0, 49, 95
2, 64320, Note_on_c, 0, 49, 95
2, 64400, Note_off_c, 0, 49, 95
2, 65280, Note_on_c, 0, 44, 95
2, 65360, Note_off_c, 0, 44, 95
2, 65760, Note_on_c, 0, 44, 95
2, 65840, Note_off_c, 0, 44, 95
2, 66240, Note_on_c, 0, 44, 95
2, 66320, Note_off_c, 0, 44, 95
2, 67200, Note_on_c, 0, 44, 95
2, 67280, Note_off_c, 0, 44, 95
2, 67440, Note_on_c, 0, 44, 95
2, 67520, Note_off_c, 0, 44, 95
2, 68160, Note_on_c, 0, 44, 95
2, 68240, Note_off_c, 0, 44, 95
2, 69120, Note_on_c, 0, 42, 95
2, 69200, Note_off_c, 0, 42, 95
2, 69600, Note_on_c, 0, 42, 95
2, 69680, Note_off_c, 0, 42, 95
2, 70080, Note_on_c, 0, 42, 95
2, 70160, Note_off_c, 0, 42, 95
2, 71040, Note_on_c, 0, 42, 95
2, 71120, Note_off_c, 0, 42, 95
2, 71280, Note_on_c, 0, 42, 95
2, 71360, Note_off_c, 0, 42, 95
2, 72000, Note_on_c, 0, 42, 95
2, 72080, Note_off_c, 0, 42, 95
2, 73200, Note_on_c, 0, 42, 95
2, 73440, Note_off_c, 0, 42, 95
2, 73440, Note_on_c, 0, 42, 95
2, 73680, Note_off_c, 0, 42, 95
2, 73680, Note_on_c, 0, 42, 95
2, 73920, Note_off_c, 0, 42, 95
2, 74400, Note_on_c, 0, 42, 95
2, 74640, Note_off_c, 0, 42, 95
2, 74640, Note_on_c, 0, 42, 95
2, 74880, Note_off_c, 0, 42, 95
2, 74880, Note_on_c, 0, 42, 95
2, 75120, Note_off_c, 0, 42, 95
2, 75120, Note_on_c, 0, 42, 95
2, 75360, Note_off_c, 0, 42, 95
2, 75840, Note_on_c, 0, 42, 95
2, 76800, Note_off_c, 0, 42, 95
2, 76800, Note_on_c, 0, 61, 95
2, 77280, Note_off_c, 0, 61, 95
2, 77280, Note_on_c, 0, 63, 95
2, 77760, Note_off_c, 0, 63, 95
2, 77760, Note_on_c, 0, 64, 95
2, 78240, Note_off_c, 0, 64, 95
2, 78240, Note_on_c, 0, 66, 95
2, 78720, Note_off_c, 0, 66, 95
2, 78720, Note_on_c, 0, 68, 95
2, 79680, Note_off_c, 0, 68, 95
2, 79680, Note_on_c, 0, 73, 95
2, 80640, Note_off_c, 0, 73, 95
2, 80640, Note_on_c, 0, 71, 95
2, 81600, Note_off_c, 0, 71, 95
2, 81600, Note_on_c, 0, 68, 95
2, 82560, Note_off_c, 0, 68, 95
2, 82560, Note_on_c, 0, 70, 95
2, 82800, Note_off_c, 0, 70, 95
2, 82800, Note_on_c, 0, 71, 95
2, 83040, Note_off_c, 0, 71, 95
2, 83040, Note_on_c, 0, 70, 95
2, 84480, Note_off_c, 0, 70, 95
2, 84480, Note_on_c, 0, 71, 95
2, 85440, Note_off_c, 0, 71, 95
2, 85440, Note_on_c, 0, 68, 95
2, 85920, Note_off_c, 0, 68, 95
2, 85920, Note_on_c, 0, 70, 95
2, 86400, Note_off_c, 0, 70, 95
2, 86400, Note_on_c, 0, 71, 95
2, 87360, Note_off_c, 0, 71, 95
2, 87360, Note_on_c, 0, 70, 95
2, 87840, Note_off_c, 0, 70, 95
2, 87840, Note_on_c, 0, 66, 95
2, 88320, Note_off_c, 0, 66, 95
2, 88320, Note_on_c, 0, 63, 95
2, 89280, Note_off_c, 0, 63, 95
2, 89280, Note_on_c, 0, 64, 95
2, 90240, Note_off_c, 0, 64, 95
2, 90240, Note_on_c, 0, 63, 95
2, 90480, Note_off_c, 0, 63, 95
2, 90480, Note_on_c, 0, 64, 95
2, 90720, Note_off_c, 0, 64, 95
2, 90720, Note_on_c, 0, 63, 95
2, 92160, Note_off_c, 0, 63, 95
2, 92160, Note_on_c, 0, 61, 95
2, 92640, Note_off_c, 0, 61, 95
2, 92640, Note_on_c, 0, 63, 95
2, 93120, Note_off_c, 0, 63, 95
2, 93120, Note_on_c, 0, 64, 95
2, 93600, Note_off_c, 0, 64, 95
2, 93600, Note_on_c, 0, 66, 95
2, 94080, Note_off_c, 0, 66, 95
2, 94080, Note_on_c, 0, 64, 95
2, 95040, Note_off_c, 0, 64, 95
2, 95040, Note_on_c, 0, 63, 95
2, 95520, Note_off_c, 0, 63, 95
2, 95520, Note_on_c, 0, 64, 95
2, 96000, Note_off_c, 0, 64, 95
2, 96000, Note_on_c, 0, 66, 95
2, 96960, Note_off_c, 0, 66, 95
2, 96960, Note_on_c, 0, 64, 95
2, 97440, Note_off_c, 0, 64, 95
2, 97440, Note_on_c, 0, 63, 95
2, 97920, Note_off_c, 0, 63, 95
2, 97920, Note_on_c, 0, 61, 95
2, 99840, Note_off_c, 0, 61, 95
2, 99840, Note_on_c, 0, 66, 95
2, 100800, Note_off_c, 0, 66, 95
2, 100800, Note_on_c, 0, 64, 95
2, 101280, Note_off_c, 0, 64, 95
2, 101280, Note_on_c, 0, 63, 95
2, 101760, Note_off_c, 0, 63, 95
2, 101760, Note_on_c, 0, 61, 95
2, 102720, Note_off_c, 0, 61, 95
2, 102720, Note_on_c, 0, 63, 95
2, 103200, Note_off_c, 0, 63, 95
2, 103200, Note_on_c, 0, 64, 95
2, 103680, Note_off_c, 0, 64, 95
2, 103680, Note_on_c, 0, 66, 95
2, 104640, Note_off_c, 0, 66, 95
2, 104640, Note_on_c, 0, 64, 95
2, 105120, Note_off_c, 0, 64, 95
2, 105120, Note_on_c, 0, 66, 95
2, 105600, Note_off_c, 0, 66, 95
2, 105600, Note_on_c, 0, 68, 95
2, 107520, Note_off_c, 0, 68, 95
2, 107520, Note_on_c, 0, 61, 95
2, 108000, Note_off_c, 0, 61, 95
2, 108000, Note_on_c, 0, 63, 95
2, 108480, Note_off_c, 0, 63, 95
2, 108480, Note_on_c, 0, 64, 95
2, 108960, Note_off_c, 0, 64, 95
2, 108960, Note_on_c, 0, 66, 95
2, 109440, Note_off_c, 0, 66, 95
2, 109440, Note_on_c, 0, 68, 95
2, 110400, Note_off_c, 0, 68, 95
2, 110400, Note_on_c, 0, 73, 95
2, 111360, Note_off_c, 0, 73, 95
2, 111360, Note_on_c, 0, 71, 95
2, 112320, Note_off_c, 0, 71, 95
2, 112320, Note_on_c, 0, 68, 95
2, 113280, Note_off_c, 0, 68, 95
2, 113280, Note_on_c, 0, 70, 95
2, 113520, Note_off_c, 0, 70, 95
2, 113520, Note_on_c, 0, 71, 95
2, 113760, Note_off_c, 0, 71, 95
2, 113760, Note_on_c, 0, 70, 95
2, 115200, Note_off_c, 0, 70, 95
2, 115200, Note_on_c, 0, 71, 95
2, 116160, Note_off_c, 0, 71, 95
2, 116160, Note_on_c, 0, 68, 95
2, 116640, Note_off_c, 0, 68, 95
2, 116640, Note_on_c, 0, 70, 95
2, 117120, Note_off_c, 0, 70, 95
2, 117120, Note_on_c, 0, 71, 95
2, 118080, Note_off_c, 0, 71, 95
2, 118080, Note_on_c, 0, 70, 95
2, 118560, Note_off_c, 0, 70, 95
2, 118560, Note_on_c, 0, 66, 95
2, 119040, Note_off_c, 0, 66, 95
2, 119040, Note_on_c, 0, 63, 95
2, 120000, Note_off_c, 0, 63, 95
2, 120000, Note_on_c, 0, 64, 95
2, 120960, Note_off_c, 0, 64, 95
2, 120960, Note_on_c, 0, 63, 95
2, 121200, Note_off_c, 0, 63, 95
2, 121200, Note_on_c, 0, 64, 95
2, 121440, Note_off_c, 0, 64, 95
2, 121440, Note_on_c, 0, 63, 95
2, 122880, Note_off_c, 0, 63, 95
2, 122880, Note_on_c, 0, 61, 95
2, 123360, Note_off_c, 0, 61, 95
2, 123360, Note_on_c, 0, 63, 95
2, 123840, Note_off_c, 0, 63, 95
2, 123840, Note_on_c, 0, 64, 95
2, 124320, Note_off_c, 0, 64, 95
2, 124320, Note_on_c, 0, 66, 95
2, 124800, Note_off_c, 0, 66, 95
2, 124800, Note_on_c, 0, 64, 95
2, 125760, Note_off_c, 0, 64, 95
2, 125760, Note_on_c, 0, 63, 95
2, 126240, Note_off_c, 0, 63, 95
2, 126240, Note_on_c, 0, 64, 95
2, 126720, Note_off_c, 0, 64, 95
2, 126720, Note_on_c, 0, 66, 95
2, 127680, Note_off_c, 0, 66, 95
2, 127680, Note_on_c, 0, 64, 95
2, 128160, Note_off_c, 0, 64, 95
2, 128160, Note_on_c, 0, 63, 95
2, 128640, Note_off_c, 0, 63, 95
2, 128640, Note_on_c, 0, 61, 95
2, 130560, Note_off_c, 0, 61, 95
2, 130560, Note_on_c, 0, 66, 95
2, 131520, Note_off_c, 0, 66, 95
2, 131520, Note_on_c, 0, 64, 95
2, 132000, Note_off_c, 0, 64, 95
2, 132000, Note_on_c, 0, 63, 95
2, 132480, Note_off_c, 0, 63, 95
2, 132480, Note_on_c, 0, 61, 95
2, 133440, Note_off_c, 0, 61, 95
2, 133440, Note_on_c, 0, 63, 95
2, 133920, Note_off_c, 0, 63, 95
2, 133920, Note_on_c, 0, 64, 95
2, 134400, Note_off_c, 0, 64, 95
2, 134400, Note_on_c, 0, 66, 95
2, 135360, Note_off_c, 0, 66, 95
2, 135360, Note_on_c, 0, 64, 95
2, 135840, Note_off_c, 0, 64, 95
2, 135840, Note_on_c, 0, 66, 95
2, 136320, Note_off_c, 0, 66, 95
2, 136320, Note_on_c, 0, 68, 95
2, 138240, Note_off_c, 0, 68, 95
2, 138240, End_track
3, 0, Start_track
3, 0, Pitch_bend_c, 2, 8192
3, 0, Control_c, 2, 7, 127
3, 0, Control_c, 2, 10, 64
3, 0, Control_c, 2, 93, 0
3, 0, Control_c, 2, 91, 0
3, 0, Control_c, 2, 95, 0
3, 0, Control_c, 2, 92, 0
3, 0, Control_c, 2, 11, 127
3, 0, Program_c, 2, 0
3, 0, Control_c, 3, 7, 127
3, 0, Control_c, 3, 10, 64
3, 0, Control_c, 3, 93, 0
3, 0, Control_c, 3, 91, 0
3, 0, Control_c, 3, 95, 0
3, 0, Control_c, 3, 92, 0
3, 0, Control_c, 3, 11, 127
3, 0, Program_c, 3, 0
3, 0, Note_on_c, 2, 61, 95
3, 0, Note_on_c, 2, 49, 95
3, 960, Note_off_c, 2, 61, 95
3, 960, Note_on_c, 2, 64, 95
3, 1920, Note_off_c, 2, 64, 95
3, 1920, Note_on_c, 2, 68, 95
3, 2880, Note_off_c, 2, 68, 95
3, 2880, Note_on_c, 2, 64, 95
3, 3840, Note_off_c, 2, 49, 95
3, 3840, Note_off_c, 2, 64, 95
3, 3840, Note_on_c, 2, 61, 95
3, 3840, Note_on_c, 2, 49, 95
3, 4800, Note_off_c, 2, 61, 95
3, 4800, Note_on_c, 2, 64, 95
3, 5760, Note_off_c, 2, 64, 95
3, 5760, Note_on_c, 2, 68, 95
3, 6720, Note_off_c, 2, 68, 95
3, 6720, Note_on_c, 2, 64, 95
3, 7680, Note_off_c, 2, 49, 95
3, 7680, Note_off_c, 2, 64, 95
3, 7680, Note_on_c, 2, 59, 95
3, 7680, Note_on_c, 2, 44, 95
3, 8640, Note_off_c, 2, 59, 95
3, 8640, Note_on_c, 2, 63, 95
3, 9600, Note_off_c, 2, 63, 95
3, 9600, Note_on_c, 2, 68, 95
3, 10560, Note_off_c, 2, 68, 95
3, 10560, Note_on_c, 2, 63, 95
3, 11040, Note_off_c, 2, 44, 95
3, 11040, Note_on_c, 2, 44, 95
3, 11520, Note_off_c, 2, 63, 95
3, 11520, Note_off_c, 2, 44, 95
3, 11520, Note_on_c, 2, 59, 95
3, 11520, Note_on_c, 2, 44, 95
3, 12480, Note_off_c, 2, 59, 95
3, 12480, Note_on_c, 2, 63, 95
3, 13440, Note_off_c, 2, 63, 95
3, 13440, Note_on_c, 2, 68, 95
3, 14400, Note_off_c, 2, 68, 95
3, 14400, Note_on_c, 2, 63, 95
3, 15360, Note_off_c, 2, 44, 95
3, 15360, Note_off_c, 2, 63, 95
3, 15360, Note_on_c, 2, 61, 95
3, 15360, Note_on_c, 2, 49, 95
3, 16320, Note_off_c, 2, 61, 95
3, 16320, Note_on_c, 2, 64, 95
3, 17280, Note_off_c, 2, 64, 95
3, 17280, Note_on_c, 2, 68, 95
3, 18240, Note_off_c, 2, 68, 95
3, 18240, Note_on_c, 2, 64, 95
3, 19200, Note_off_c, 2, 49, 95
3, 19200, Note_off_c, 2, 64, 95
3, 19200, Note_on_c, 2, 61, 95
3, 19200, Note_on_c, 2, 49, 95
3, 20160, Note_off_c, 2, 61, 95
3, 20160, Note_on_c, 2, 64, 95
3, 21120, Note_off_c, 2, 64, 95
3, 21120, Note_on_c, 2, 68, 95
3, 22080, Note_off_c, 2, 68, 95
3, 22080, Note_on_c, 2, 64, 95
3, 23040, Note_off_c, 2, 49, 95
3, 23040, Note_off_c, 2, 64, 95
3, 23040, Note_on_c, 2, 59, 95
3, 23040, Note_on_c, 2, 44, 95
3, 24000, Note_off_c, 2, 59, 95
3, 24000, Note_on_c, 2, 63, 95
3, 24960, Note_off_c, 2, 63, 95
3, 24960, Note_on_c, 2, 68, 95
3, 25920, Note_off_c, 2, 68, 95
3, 25920, Note_on_c, 2, 63, 95
3, 26880, Note_off_c, 2, 44, 95
3, 26880, Note_off_c, 2, 63, 95
3, 26880, Note_on_c, 2, 59, 95
3, 26880, Note_on_c, 2, 44, 95
3, 27840, Note_off_c, 2, 59, 95
3, 27840, Note_on_c, 2, 61, 95
3, 28800, Note_off_c, 2, 61, 95
3, 28800, Note_on_c, 2, 68, 95
3, 29760, Note_off_c, 2, 68, 95
3, 29760, Note_on_c, 2, 63, 95
3, 30720, Note_off_c, 2, 44, 95
3, 30720, Note_off_c, 2, 63, 95
3, 30720, Note_on_c, 2, 57, 95
3, 30720, Note_on_c, 2, 42, 95
3, 31680, Note_off_c, 2, 57, 95
3, 31680, Note_on_c, 2, 61, 95
3, 32640, Note_off_c, 2, 61, 95
3, 32640, Note_on_c, 2, 66, 95
3, 33600, Note_off_c, 2, 66, 95
3, 33600, Note_on_c, 2, 61, 95
3, 34560, Note_off_c, 2, 42, 95
3, 34560, Note_off_c, 2, 61, 95
3, 34560, Note_on_c, 2, 57, 95
3, 34560, Note_on_c, 2, 42, 95
3, 35520, Note_off_c, 2, 57, 95
3, 35520, Note_on_c, 2, 61, 95
3, 36480, Note_off_c, 2, 61, 95
3, 36480, Note_on_c, 2, 66, 95
3, 37440, Note_off_c, 2, 66, 95
3, 37440, Note_on_c, 2, 61, 95
3, 38400, Note_off_c, 2, 42, 95
3, 38400, Note_off_c, 2, 61, 95
3, 38400, Note_on_c, 2, 57, 95
3, 38400, Note_on_c, 2, 44, 95
3, 39360, Note_off_c, 2, 57, 95
3, 39360, Note_on_c, 2, 61, 95
3, 40320, Note_off_c, 2, 61, 95
3, 40320, Note_on_c, 2, 66, 95
3, 41280, Note_off_c, 2, 66, 95
3, 41280, Note_on_c, 2, 61, 95
3, 42240, Note_off_c, 2, 61, 95
3, 42240, Note_on_c, 2, 59, 95
3, 42240, Note_on_c, 2, 49, 95
3, 43200, Note_off_c, 2, 59, 95
3, 43200, Note_off_c, 2, 49, 95
3, 43200, Note_on_c, 2, 61, 95
3, 44160, Note_off_c, 2, 61, 95
3, 44160, Note_on_c, 2, 63, 95
3, 44160, Note_on_c, 2, 54, 95
3, 46080, Note_off_c, 2, 44, 95
3, 46080, Note_off_c, 2, 63, 95
3, 46080, Note_off_c, 2, 54, 95
3, 46080, Note_on_c, 2, 63, 95
3, 46560, Note_off_c, 2, 63, 95
3, 46560, Note_on_c, 2, 64, 95
3, 47040, Note_off_c, 2, 64, 95
3, 47040, Note_on_c, 2, 68, 95
3, 47520, Note_off_c, 2, 68, 95
3, 47520, Note_on_c, 2, 73, 95
3, 48000, Note_off_c, 2, 73, 95
3, 48000, Note_on_c, 2, 63, 95
3, 48480, Note_off_c, 2, 63, 95
3, 48480, Note_on_c, 2, 64, 95
3, 48960, Note_off_c, 2, 64, 95
3, 48960, Note_on_c, 2, 68, 95
3, 49440, Note_off_c, 2, 68, 95
3, 49440, Note_on_c, 2, 73, 95
3, 49920, Note_off_c, 2, 73, 95
3, 49920, Note_on_c, 2, 63, 95
3, 50400, Note_off_c, 2, 63, 95
3, 50400, Note_on_c, 2, 64, 95
3, 50880, Note_off_c, 2, 64, 95
3, 50880, Note_on_c, 2, 68, 95
3, 51360, Note_off_c, 2, 68, 95
3, 51360, Note_on_c, 2, 73, 95
3, 51840, Note_off_c, 2, 73, 95
3, 51840, Note_on_c, 2, 75, 95
3, 52320, Note_off_c, 2, 75, 95
3, 52320, Note_on_c, 2, 73, 95
3, 52800, Note_off_c, 2, 73, 95
3, 52800, Note_on_c, 2, 68, 95
3, 53280, Note_off_c, 2, 68, 95
3, 53280, Note_on_c, 2, 64, 95
3, 53760, Note_off_c, 2, 64, 95
3, 53760, Note_on_c, 2, 61, 95
3, 54240, Note_off_c, 2, 61, 95
3, 54240, Note_on_c, 2, 62, 95
3, 54720, Note_off_c, 2, 62, 95
3, 54720, Note_on_c, 2, 66, 95
3, 55200, Note_off_c, 2, 66, 95
3, 55200, Note_on_c, 2, 71, 95
3, 55680, Note_off_c, 2, 71, 95
3, 55680, Note_on_c, 2, 61, 95
3, 56160, Note_off_c, 2, 61, 95
3, 56160, Note_on_c, 2, 62, 95
3, 56640, Note_off_c, 2, 62, 95
3, 56640, Note_on_c, 2, 66, 95
3, 57120, Note_off_c, 2, 66, 95
3, 57120, Note_on_c, 2, 71, 95
3, 57600, Note_off_c, 2, 71, 95
3, 57600, Note_on_c, 2, 61, 95
3, 58080, Note_off_c, 2, 61, 95
3, 58080, Note_on_c, 2, 62, 95
3, 58560, Note_off_c, 2, 62, 95
3, 58560, Note_on_c, 2, 66, 95
3, 59040, Note_off_c, 2, 66, 95
3, 59040, Note_on_c, 2, 71, 95
3, 59520, Note_off_c, 2, 71, 95
3, 59520, Note_on_c, 2, 73, 95
3, 60000, Note_off_c, 2, 73, 95
3, 60000, Note_on_c, 2, 71, 95
3, 60480, Note_off_c, 2, 71, 95
3, 60480, Note_on_c, 2, 66, 95
3, 60960, Note_off_c, 2, 66, 95
3, 60960, Note_on_c, 2, 62, 95
3, 61440, Note_off_c, 2, 62, 95
3, 61440, Note_on_c, 2, 63, 95
3, 61920, Note_off_c, 2, 63, 95
3, 61920, Note_on_c, 2, 64, 95
3, 62400, Note_off_c, 2, 64, 95
3, 62400, Note_on_c, 2, 68, 95
3, 62880, Note_off_c, 2, 68, 95
3, 62880, Note_on_c, 2, 73, 95
3, 63360, Note_off_c, 2, 73, 95
3, 63360, Note_on_c, 2, 63, 95
3, 63840, Note_off_c, 2, 63, 95
3, 63840, Note_on_c, 2, 64, 95
3, 64320, Note_off_c, 2, 64, 95
3, 64320, Note_on_c, 2, 68, 95
3, 64800, Note_off_c, 2, 68, 95
3, 64800, Note_on_c, 2, 73, 95
3, 65280, Note_off_c, 2, 73, 95
3, 65280, Note_on_c, 2, 63, 95
3, 65760, Note_off_c, 2, 63, 95
3, 65760, Note_on_c, 2, 64, 95
3, 66240, Note_off_c, 2, 64, 95
3, 66240, Note_on_c, 2, 68, 95
3, 66720, Note_off_c, 2, 68, 95
3, 66720, Note_on_c, 2, 73, 95
3, 67200, Note_off_c, 2, 73, 95
3, 67200, Note_on_c, 2, 75, 95
3, 67680, Note_off_c, 2, 75, 95
3, 67680, Note_on_c, 2, 73, 95
3, 68160, Note_off_c, 2, 73, 95
3, 68160, Note_on_c, 2, 68, 95
3, 68640, Note_off_c, 2, 68, 95
3, 68640, Note_on_c, 2, 64, 95
3, 69120, Note_off_c, 2, 64, 95
3, 69120, Note_on_c, 2, 61, 95
3, 69600, Note_off_c, 2, 61, 95
3, 69600, Note_on_c, 2, 62, 95
3, 70080, Note_off_c, 2, 62, 95
3, 70080, Note_on_c, 2, 66, 95
3, 70560, Note_off_c, 2, 66, 95
3, 70560, Note_on_c, 2, 71, 95
3, 71040, Note_off_c, 2, 71, 95
3, 71040, Note_on_c, 2, 61, 95
3, 71520, Note_off_c, 2, 61, 95
3, 71520, Note_on_c, 2, 62, 95
3, 72000, Note_off_c, 2, 62, 95
3, 72000, Note_on_c, 2, 66, 95
3, 72480, Note_off_c, 2, 66, 95
3, 72480, Note_on_c, 2, 71, 95
3, 72960, Note_off_c, 2, 71, 95
3, 72960, Note_on_c, 2, 61, 95
3, 73440, Note_off_c, 2, 61, 95
3, 73440, Note_on_c, 2, 62, 95
3, 73920, Note_off_c, 2, 62, 95
3, 73920, Note_on_c, 2, 66, 95
3, 74400, Note_off_c, 2, 66, 95
3, 74400, Note_on_c, 2, 71, 95
3, 74880, Note_off_c, 2, 71, 95
3, 74880, Note_on_c, 2, 73, 95
3, 75360, Note_off_c, 2, 73, 95
3, 75360, Note_on_c, 2, 71, 95
3, 75840, Note_off_c, 2, 71, 95
3, 75840, Note_on_c, 2, 66, 95
3, 76320, Note_off_c, 2, 66, 95
3, 76320, Note_on_c, 2, 62, 95
3, 76800, Note_off_c, 2, 62, 95
3, 76800, Note_on_c, 2, 61, 95
3, 76800, Note_on_c, 2, 49, 95
3, 77760, Note_off_c, 2, 61, 95
3, 77760, Note_on_c, 2, 64, 95
3, 78720, Note_off_c, 2, 64, 95
3, 78720, Note_on_c, 2, 68, 95
3, 79680, Note_off_c, 2, 68, 95
3, 79680, Note_on_c, 2, 64, 95
3, 80640, Note_off_c, 2, 49, 95
3, 80640, Note_off_c, 2, 64, 95
3, 80640, Note_on_c, 2, 44, 95
3, 80640, Note_on_c, 2, 59, 95
3, 81600, Note_off_c, 2, 59, 95
3, 81600, Note_on_c, 2, 63, 95
3, 82560, Note_off_c, 2, 63, 95
3, 82560, Note_on_c, 2, 68, 95
3, 83520, Note_off_c, 2, 68, 95
3, 83520, Note_on_c, 2, 63, 95
3, 84480, Note_off_c, 2, 44, 95
3, 84480, Note_off_c, 2, 63, 95
3, 84480, Note_on_c, 2, 58, 95
3, 84480, Note_on_c, 2, 42, 95
3, 85440, Note_off_c, 2, 58, 95
3, 85440, Note_on_c, 2, 61, 95
3, 86400, Note_off_c, 2, 61, 95
3, 86400, Note_on_c, 2, 66, 95
3, 87360, Note_off_c, 2, 66, 95
3, 87360, Note_on_c, 2, 61, 95
3, 88320, Note_off_c, 2, 42, 95
3, 88320, Note_off_c, 2, 61, 95
3, 88320, Note_on_c, 2, 59, 95
3, 88320, Note_on_c, 2, 44, 95
3, 89280, Note_off_c, 2, 59, 95
3, 89280, Note_on_c, 2, 63, 95
3, 90240, Note_off_c, 2, 63, 95
3, 90240, Note_on_c, 2, 68, 95
3, 91200, Note_off_c, 2, 68, 95
3, 91200, Note_on_c, 2, 63, 95
3, 92160, Note_off_c, 2, 44, 95
3, 92160, Note_off_c, 2, 63, 95
3, 92160, Note_on_c, 2, 61, 95
3, 92160, Note_on_c, 2, 49, 95
3, 93120, Note_off_c, 2, 61, 95
3, 93120, Note_on_c, 2, 64, 95
3, 94080, Note_off_c, 2, 64, 95
3, 94080, Note_on_c, 2, 68, 95
3, 95040, Note_off_c, 2, 68, 95
3, 95040, Note_on_c, 2, 64, 95
3, 96000, Note_off_c, 2, 49, 95
3, 96000, Note_off_c, 2, 64, 95
3, 96000, Note_on_c, 2, 44, 95
3, 96000, Note_on_c, 2, 59, 95
3, 96960, Note_off_c, 2, 59, 95
3, 96960, Note_on_c, 2, 63, 95
3, 97920, Note_off_c, 2, 63, 95
3, 97920, Note_on_c, 2, 68, 95
3, 98880, Note_off_c, 2, 68, 95
3, 98880, Note_on_c, 2, 63, 95
3, 99840, Note_off_c, 2, 44, 95
3, 99840, Note_off_c, 2, 63, 95
3, 99840, Note_on_c, 2, 58, 95
3, 99840, Note_on_c, 2, 42, 95
3, 100800, Note_off_c, 2, 58, 95
3, 100800, Note_on_c, 2, 61, 95
3, 101760, Note_off_c, 2, 61, 95
3, 101760, Note_on_c, 2, 66, 95
3, 102720, Note_off_c, 2, 66, 95
3, 102720, Note_on_c, 2, 61, 95
3, 103680, Note_off_c, 2, 42, 95
3, 103680, Note_off_c, 2, 61, 95
3, 103680, Note_on_c, 2, 59, 95
3, 103680, Note_on_c, 2, 44, 95
3, 104640, Note_off_c, 2, 59, 95
3, 104640, Note_on_c, 2, 63, 95
3, 105600, Note_off_c, 2, 63, 95
3, 105600, Note_on_c, 2, 68, 95
3, 106560, Note_off_c, 2, 68, 95
3, 106560, Note_on_c, 2, 63, 95
3, 107520, Note_off_c, 2, 44, 95
3, 107520, Note_off_c, 2, 63, 95
3, 107520, Note_on_c, 2, 61, 95
3, 107520, Note_on_c, 2, 49, 95
3, 108480, Note_off_c, 2, 61, 95
3, 108480, Note_on_c, 2, 64, 95
3, 109440, Note_off_c, 2, 64, 95
3, 109440, Note_on_c, 2, 68, 95
3, 110400, Note_off_c, 2, 68, 95
3, 110400, Note_on_c, 2, 64, 95
3, 111360, Note_off_c, 2, 49, 95
3, 111360, Note_off_c, 2, 64, 95
3, 111360, Note_on_c, 2, 44, 95
3, 111360, Note_on_c, 2, 59, 95
3, 112320, Note_off_c, 2, 59, 95
3, 112320, Note_on_c, 2, 63, 95
3, 113280, Note_off_c, 2, 63, 95
3, 113280, Note_on_c, 2, 68, 95
3, 114240, Note_off_c, 2, 68, 95
3, 114240, Note_on_c, 2, 63, 95
3, 115200, Note_off_c, 2, 44, 95
3, 115200, Note_off_c, 2, 63, 95
3, 115200, Note_on_c, 2, 58, 95
3, 115200, Note_on_c, 2, 42, 95
3, 116160, Note_off_c, 2, 58, 95
3, 116160, Note_on_c, 2, 61, 95
3, 117120, Note_off_c, 2, 61, 95
3, 117120, Note_on_c, 2, 66, 95
3, 118080, Note_off_c, 2, 66, 95
3, 118080, Note_on_c, 2, 61, 95
3, 119040, Note_off_c, 2, 42, 95
3, 119040, Note_off_c, 2, 61, 95
3, 119040, Note_on_c, 2, 59, 95
3, 119040, Note_on_c, 2, 44, 95
3, 120000, Note_off_c, 2, 59, 95
3, 120000, Note_on_c, 2, 63, 95
3, 120960, Note_off_c, 2, 63, 95
3, 120960, Note_on_c, 2, 68, 95
3, 121920, Note_off_c, 2, 68, 95
3, 121920, Note_on_c, 2, 63, 95
3, 122880, Note_off_c, 2, 44, 95
3, 122880, Note_off_c, 2, 63, 95
3, 122880, Note_on_c, 2, 61, 95
3, 122880, Note_on_c, 2, 49, 95
3, 123840, Note_off_c, 2, 61, 95
3, 123840, Note_on_c, 2, 64, 95
3, 124800, Note_off_c, 2, 64, 95
3, 124800, Note_on_c, 2, 68, 95
3, 125760, Note_off_c, 2, 68, 95
3, 125760, Note_on_c, 2, 64, 95
3, 126720, Note_off_c, 2, 49, 95
3, 126720, Note_off_c, 2, 64, 95
3, 126720, Note_on_c, 2, 44, 95
3, 126720, Note_on_c, 2, 59, 95
3, 127680, Note_off_c, 2, 59, 95
3, 127680, Note_on_c, 2, 63, 95
3, 128640, Note_off_c, 2, 63, 95
3, 128640, Note_on_c, 2, 68, 95
3, 129600, Note_off_c, 2, 68, 95
3, 129600, Note_on_c, 2, 63, 95
3, 130560, Note_off_c, 2, 44, 95
3, 130560, Note_off_c, 2, 63, 95
3, 130560, Note_on_c, 2, 58, 95
3, 130560, Note_on_c, 2, 42, 95
3, 131520, Note_off_c, 2, 58, 95
3, 131520, Note_on_c, 2, 61, 95
3, 132480, Note_off_c, 2, 61, 95
3, 132480, Note_on_c, 2, 66, 95
3, 133440, Note_off_c, 2, 66, 95
3, 133440, Note_on_c, 2, 61, 95
3, 134400, Note_off_c, 2, 42, 95
3, 134400, Note_off_c, 2, 61, 95
3, 134400, Note_on_c, 2, 59, 95
3, 134400, Note_on_c, 2, 44, 95
3, 135360, Note_off_c, 2, 59, 95
3, 135360, Note_on_c, 2, 63, 95
3, 136320, Note_off_c, 2, 63, 95
3, 136320, Note_on_c, 2, 68, 95
3, 137280, Note_off_c, 2, 68, 95
3, 137280, Note_on_c, 2, 63, 95
3, 138240, Note_off_c, 2, 44, 95
3, 138240, Note_off_c, 2, 63, 95
3, 138240, End_track
4, 0, Start_track
4, 0, Pitch_bend_c, 4, 8192
4, 0, Control_c, 4, 7, 92
4, 0, Control_c, 4, 10, 64
4, 0, Control_c, 4, 93, 0
4, 0, Control_c, 4, 91, 0
4, 0, Control_c, 4, 95, 0
4, 0, Control_c, 4, 92, 0
4, 0, Control_c, 4, 11, 127
4, 0, Program_c, 4, 40
4, 0, Control_c, 5, 7, 92
4, 0, Control_c, 5, 10, 64
4, 0, Control_c, 5, 93, 0
4, 0, Control_c, 5, 91, 0
4, 0, Control_c, 5, 95, 0
4, 0, Control_c, 5, 92, 0
4, 0, Control_c, 5, 11, 127
4, 0, Program_c, 5, 40
4, 23040, Note_on_c, 4, 59, 95
4, 25920, Note_off_c, 4, 59, 95
4, 25920, Note_on_c, 4, 58, 95
4, 26400, Note_off_c, 4, 58, 95
4, 26400, Note_on_c, 4, 54, 95
4, 26880, Note_off_c, 4, 54, 95
4, 26880, Note_on_c, 4, 51, 95
4, 30720, Note_off_c, 4, 51, 95
4, 38400, Note_on_c, 4, 66, 95
4, 39360, Note_off_c, 4, 66, 95
4, 39360, Note_on_c, 4, 64, 95
4, 39840, Note_off_c, 4, 64, 95
4, 39840, Note_on_c, 4, 63, 95
4, 40320, Note_off_c, 4, 63, 95
4, 40320, Note_on_c, 4, 61, 95
4, 41280, Note_off_c, 4, 61, 95
4, 41280, Note_on_c, 4, 63, 95
4, 41760, Note_off_c, 4, 63, 95
4, 41760, Note_on_c, 4, 64, 95
4, 42240, Note_off_c, 4, 64, 95
4, 42240, Note_on_c, 4, 66, 95
4, 43200, Note_off_c, 4, 66, 95
4, 43200, Note_on_c, 4, 64, 95
4, 43680, Note_off_c, 4, 64, 95
4, 43680, Note_on_c, 4, 66, 95
4, 44160, Note_off_c, 4, 66, 95
4, 44160, Note_on_c, 4, 68, 95
4, 46080, Note_off_c, 4, 68, 95
4, 46080, End_track
5, 0, Start_track
5, 0, Pitch_bend_c, 6, 8192
5, 0, Control_c, 6, 7, 99
5, 0, Control_c, 6, 10, 64
5, 0, Control_c, 6, 93, 0
5, 0, Control_c, 6, 91, 0
5, 0, Control_c, 6, 95, 0
5, 0, Control_c, 6, 92, 0
5, 0, Control_c, 6, 11, 127
5, 0, Program_c, 6, 25
5, 0, Control_c, 7, 7, 99
5, 0, Control_c, 7, 10, 64
5, 0, Control_c, 7, 93, 0
5, 0, Control_c, 7, 91, 0
5, 0, Control_c, 7, 95, 0
5, 0, Control_c, 7, 92, 0
5, 0, Control_c, 7, 11, 127
5, 0, Program_c, 7, 25
5, 46080, Note_on_c, 6, 49, 95
5, 46080, Note_on_c, 6, 56, 95
5, 46080, Note_on_c, 6, 61, 95
5, 46080, Note_on_c, 6, 64, 95
5, 46080, Note_on_c, 6, 68, 95
5, 49920, Note_off_c, 6, 49, 95
5, 49920, Note_off_c, 6, 56, 95
5, 49920, Note_off_c, 6, 61, 95
5, 49920, Note_off_c, 6, 64, 95
5, 49920, Note_off_c, 6, 68, 95
5, 49920, Note_on_c, 6, 44, 95
5, 49920, Note_on_c, 6, 51, 95
5, 49920, Note_on_c, 6, 56, 95
5, 49920, Note_on_c, 6, 59, 95
5, 49920, Note_on_c, 6, 63, 95
5, 49920, Note_on_c, 6, 68, 95
5, 53760, Note_off_c, 6, 44, 95
5, 53760, Note_off_c, 6, 51, 95
5, 53760, Note_off_c, 6, 56, 95
5, 53760, Note_off_c, 6, 59, 95
5, 53760, Note_off_c, 6, 63, 95
5, 53760, Note_off_c, 6, 68, 95
5, 53760, Note_on_c, 6, 42, 95
5, 53760, Note_on_c, 6, 49, 95
5, 53760, Note_on_c, 6, 54, 95
5, 53760, Note_on_c, 6, 61, 95
5, 53760, Note_on_c, 6, 57, 95
5, 53760, Note_on_c, 6, 66, 95
5, 57600, Note_off_c, 6, 42, 95
5, 57600, Note_off_c, 6, 49, 95
5, 57600, Note_off_c, 6, 54, 95
5, 57600, Note_off_c, 6, 61, 95
5, 57600, Note_off_c, 6, 57, 95
5, 57600, Note_off_c, 6, 66, 95
5, 57600, Note_on_c, 6, 54, 95
5, 57600, Note_on_c, 6, 49, 95
5, 57600, Note_on_c, 6, 66, 95
5, 57600, Note_on_c, 6, 61, 95
5, 57600, Note_on_c, 6, 57, 95
5, 57600, Note_on_c, 6, 42, 95
5, 61440, Note_off_c, 6, 54, 95
5, 61440, Note_off_c, 6, 49, 95
5, 61440, Note_off_c, 6, 66, 95
5, 61440, Note_off_c, 6, 61, 95
5, 61440, Note_off_c, 6, 57, 95
5, 61440, Note_off_c, 6, 42, 95
5, 61440, Note_on_c, 6, 49, 95
5, 61440, Note_on_c, 6, 56, 95
5, 61440, Note_on_c, 6, 61, 95
5, 61440, Note_on_c, 6, 64, 95
5, 61440, Note_on_c, 6, 68, 95
5, 65280, Note_off_c, 6, 49, 95
5, 65280, Note_off_c, 6, 56, 95
5, 65280, Note_off_c, 6, 61, 95
5, 65280, Note_off_c, 6, 64, 95
5, 65280, Note_off_c, 6, 68, 95
5, 65280, Note_on_c, 6, 44, 95
5, 65280, Note_on_c, 6, 51, 95
5, 65280, Note_on_c, 6, 56, 95
5, 65280, Note_on_c, 6, 59, 95
5, 65280, Note_on_c, 6, 63, 95
5, 65280, Note_on_c, 6, 68, 95
5, 69120, Note_off_c, 6, 44, 95
5, 69120, Note_off_c, 6, 51, 95
5, 69120, Note_off_c, 6, 56, 95
5, 69120, Note_off_c, 6, 59, 95
5, 69120, Note_off_c, 6, 63, 95
5, 69120, Note_off_c, 6, 68, 95
5, 69120, Note_on_c, 6, 42, 95
5, 69120, Note_on_c, 6, 49, 95
5, 69120, Note_on_c, 6, 54, 95
5, 69120, Note_on_c, 6, 61, 95
5, 69120, Note_on_c, 6, 57, 95
5, 69120, Note_on_c, 6, 66, 95
5, 72960, Note_off_c, 6, 42, 95
5, 72960, Note_off_c, 6, 49, 95
5, 72960, Note_off_c, 6, 54, 95
5, 72960, Note_off_c, 6, 61, 95
5, 72960, Note_off_c, 6, 57, 95
5, 72960, Note_off_c, 6, 66, 95
5, 72960, Note_on_c, 6, 54, 95
5, 72960, Note_on_c, 6, 49, 95
5, 72960, Note_on_c, 6, 66, 95
5, 72960, Note_on_c, 6, 61, 95
5, 72960, Note_on_c, 6, 57, 95
5, 72960, Note_on_c, 6, 42, 95
5, 76800, Note_off_c, 6, 54, 95
5, 76800, Note_off_c, 6, 49, 95
5, 76800, Note_off_c, 6, 66, 95
5, 76800, Note_off_c, 6, 61, 95
5, 76800, Note_off_c, 6, 57, 95
5, 76800, Note_off_c, 6, 42, 95
5, 76800, Note_on_c, 6, 49, 95
5, 76800, Note_on_c, 6, 56, 95
5, 76800, Note_on_c, 6, 61, 95
5, 76800, Note_on_c, 6, 64, 95
5, 76800, Note_on_c, 6, 68, 95
5, 77520, Note_off_c, 6, 49, 95
5, 77520, Note_off_c, 6, 56, 95
5, 77520, Note_off_c, 6, 61, 95
5, 77520, Note_off_c, 6, 64, 95
5, 77520, Note_off_c, 6, 68, 95
5, 77520, Note_on_c, 6, 49, 95
5, 77520, Note_on_c, 6, 56, 95
5, 77520, Note_on_c, 6, 61, 95
5, 77520, Note_on_c, 6, 64, 95
5, 77520, Note_on_c, 6, 68, 95
5, 77760, Note_off_c, 6, 49, 95
5, 77760, Note_off_c, 6, 56, 95
5, 77760, Note_off_c, 6, 61, 95
5, 77760, Note_off_c, 6, 64, 95
5, 77760, Note_off_c, 6, 68, 95
5, 77760, Note_on_c, 6, 49, 95
5, 77760, Note_on_c, 6, 56, 95
5, 77760, Note_on_c, 6, 61, 95
5, 77760, Note_on_c, 6, 64, 95
5, 77760, Note_on_c, 6, 68, 95
5, 78000, Note_off_c, 6, 49, 95
5, 78000, Note_off_c, 6, 56, 95
5, 78000, Note_off_c, 6, 61, 95
5, 78000, Note_off_c, 6, 64, 95
5, 78000, Note_off_c, 6, 68, 95
5, 78000, Note_on_c, 6, 68, 95
5, 78000, Note_on_c, 6, 64, 95
5, 78000, Note_on_c, 6, 61, 95
5, 78000, Note_on_c, 6, 56, 95
5, 78000, Note_on_c, 6, 49, 95
5, 78480, Note_off_c, 6, 68, 95
5, 78480, Note_off_c, 6, 64, 95
5, 78480, Note_off_c, 6, 61, 95
5, 78480, Note_off_c, 6, 56, 95
5, 78480, Note_off_c, 6, 49, 95
5, 78480, Note_on_c, 6, 49, 95
5, 78480, Note_on_c, 6, 56, 95
5, 78480, Note_on_c, 6, 61, 95
5, 78480, Note_on_c, 6, 64, 95
5, 78480, Note_on_c, 6, 68, 95
5, 78960, Note_off_c, 6, 49, 95
5, 78960, Note_off_c, 6, 56, 95
5, 78960, Note_off_c, 6, 61, 95
5, 78960, Note_off_c, 6, 64, 95
5, 78960, Note_off_c, 6, 68, 95
5, 78960, Note_on_c, 6, 56, 95
5, 78960, Note_on_c, 6, 49, 95
5, 78960, Note_on_c, 6, 68, 95
5, 78960, Note_on_c, 6, 64, 95
5, 78960, Note_on_c, 6, 61, 95
5, 79680, Note_off_c, 6, 56, 95
5, 79680, Note_off_c, 6, 49, 95
5, 79680, Note_off_c, 6, 68, 95
5, 79680, Note_off_c, 6, 64, 95
5, 79680, Note_off_c, 6, 61, 95
5, 79680, Note_on_c, 6, 49, 95
5, 79680, Note_on_c, 6, 56, 95
5, 79680, Note_on_c, 6, 61, 95
5, 79680, Note_on_c, 6, 64, 95
5, 79680, Note_on_c, 6, 68, 95
5, 80640, Note_off_c, 6, 49, 95
5, 80640, Note_off_c, 6, 56, 95
5, 80640, Note_off_c, 6, 61, 95
5, 80640, Note_off_c, 6, 64, 95
5, 80640, Note_off_c, 6, 68, 95
5, 80640, Note_on_c, 6, 44, 95
5, 80640, Note_on_c, 6, 51, 95
5, 80640, Note_on_c, 6, 56, 95
5, 80640, Note_on_c, 6, 59, 95
5, 80640, Note_on_c, 6, 63, 95
5, 80640, Note_on_c, 6, 68, 95
5, 81360, Note_off_c, 6, 44, 95
5, 81360, Note_off_c, 6, 51, 95
5, 81360, Note_off_c, 6, 56, 95
5, 81360, Note_off_c, 6, 59, 95
5, 81360, Note_off_c, 6, 63, 95
5, 81360, Note_off_c, 6, 68, 95
5, 81360, Note_on_c, 6, 56, 95
5, 81360, Note_on_c, 6, 68, 95
5, 81360, Note_on_c, 6, 63, 95
5, 81360, Note_on_c, 6, 59, 95
5, 81360, Note_on_c, 6, 51, 95
5, 81360, Note_on_c, 6, 44, 95
5, 81600, Note_off_c, 6, 56, 95
5, 81600, Note_off_c, 6, 68, 95
5, 81600, Note_off_c, 6, 63, 95
5, 81600, Note_off_c, 6, 59, 95
5, 81600, Note_off_c, 6, 51, 95
5, 81600, Note_off_c, 6, 44, 95
5, 81600, Note_on_c, 6, 56, 95
5, 81600, Note_on_c, 6, 68, 95
5, 81600, Note_on_c, 6, 63, 95
5, 81600, Note_on_c, 6, 59, 95
5, 81600, Note_on_c, 6, 51, 95
5, 81600, Note_on_c, 6, 44, 95
5, 81840, Note_off_c, 6, 56, 95
5, 81840, Note_off_c, 6, 68, 95
5, 81840, Note_off_c, 6, 63, 95
5, 81840, Note_off_c, 6, 59, 95
5, 81840, Note_off_c, 6, 51, 95
5, 81840, Note_off_c, 6, 44, 95
5, 81840, Note_on_c, 6, 68, 95
5, 81840, Note_on_c, 6, 56, 95
5, 81840, Note_on_c, 6, 63, 95
5, 81840, Note_on_c, 6, 59, 95
5, 81840, Note_on_c, 6, 51, 95
5, 81840, Note_on_c, 6, 44, 95
5, 82320, Note_off_c, 6, 68, 95
5, 82320, Note_off_c, 6, 56, 95
5, 82320, Note_off_c, 6, 63, 95
5, 82320, Note_off_c, 6, 59, 95
5, 82320, Note_off_c, 6, 51, 95
5, 82320, Note_off_c, 6, 44, 95
5, 82320, Note_on_c, 6, 56, 95
5, 82320, Note_on_c, 6, 68, 95
5, 82320, Note_on_c, 6, 63, 95
5, 82320, Note_on_c, 6, 59, 95
5, 82320, Note_on_c, 6, 51, 95
5, 82320, Note_on_c, 6, 44, 95
5, 82800, Note_off_c, 6, 56, 95
5, 82800, Note_off_c, 6, 68, 95
5, 82800, Note_off_c, 6, 63, 95
5, 82800, Note_off_c, 6, 59, 95
5, 82800, Note_off_c, 6, 51, 95
5, 82800, Note_off_c, 6, 44, 95
5, 82800, Note_on_c, 6, 56, 95
5, 82800, Note_on_c, 6, 68, 95
5, 82800, Note_on_c, 6, 63, 95
5, 82800, Note_on_c, 6, 59, 95
5, 82800, Note_on_c, 6, 51, 95
5, 82800, Note_on_c, 6, 44, 95
5, 83520, Note_off_c, 6, 56, 95
5, 83520, Note_off_c, 6, 68, 95
5, 83520, Note_off_c, 6, 63, 95
5, 83520, Note_off_c, 6, 59, 95
5, 83520, Note_off_c, 6, 51, 95
5, 83520, Note_off_c, 6, 44, 95
5, 83520, Note_on_c, 6, 56, 95
5, 83520, Note_on_c, 6, 68, 95
5, 83520, Note_on_c, 6, 63, 95
5, 83520, Note_on_c, 6, 59, 95
5, 83520, Note_on_c, 6, 44, 95
5, 83520, Note_on_c, 6, 51, 95
5, 84480, Note_off_c, 6, 56, 95
5, 84480, Note_off_c, 6, 68, 95
5, 84480, Note_off_c, 6, 63, 95
5, 84480, Note_off_c, 6, 59, 95
5, 84480, Note_off_c, 6, 44, 95
5, 84480, Note_off_c, 6, 51, 95
5, 84480, Note_on_c, 6, 42, 95
5, 84480, Note_on_c, 6, 49, 95
5, 84480, Note_on_c, 6, 54, 95
5, 84480, Note_on_c, 6, 58, 95
5, 84480, Note_on_c, 6, 61, 95
5, 84480, Note_on_c, 6, 66, 95
5, 85200, Note_off_c, 6, 42, 95
5, 85200, Note_off_c, 6, 49, 95
5, 85200, Note_off_c, 6, 54, 95
5, 85200, Note_off_c, 6, 58, 95
5, 85200, Note_off_c, 6, 61, 95
5, 85200, Note_off_c, 6, 66, 95
5, 85200, Note_on_c, 6, 42, 95
5, 85200, Note_on_c, 6, 49, 95
5, 85200, Note_on_c, 6, 54, 95
5, 85200, Note_on_c, 6, 58, 95
5, 85200, Note_on_c, 6, 61, 95
5, 85200, Note_on_c, 6, 66, 95
5, 85440, Note_off_c, 6, 42, 95
5, 85440, Note_off_c, 6, 49, 95
5, 85440, Note_off_c, 6, 54, 95
5, 85440, Note_off_c, 6, 58, 95
5, 85440, Note_off_c, 6, 61, 95
5, 85440, Note_off_c, 6, 66, 95
5, 85440, Note_on_c, 6, 42, 95
5, 85440, Note_on_c, 6, 49, 95
5, 85440, Note_on_c, 6, 54, 95
5, 85440, Note_on_c, 6, 58, 95
5, 85440, Note_on_c, 6, 61, 95
5, 85440, Note_on_c, 6, 66, 95
5, 85680, Note_off_c, 6, 42, 95
5, 85680, Note_off_c, 6, 49, 95
5, 85680, Note_off_c, 6, 54, 95
5, 85680, Note_off_c, 6, 58, 95
5, 85680, Note_off_c, 6, 61, 95
5, 85680, Note_off_c, 6, 66, 95
5, 85680, Note_on_c, 6, 42, 95
5, 85680, Note_on_c, 6, 49, 95
5, 85680, Note_on_c, 6, 54, 95
5, 85680, Note_on_c, 6, 58, 95
5, 85680, Note_on_c, 6, 61, 95
5, 85680, Note_on_c, 6, 66, 95
5, 86160, Note_off_c, 6, 42, 95
5, 86160, Note_off_c, 6, 49, 95
5, 86160, Note_off_c, 6, 54, 95
5, 86160, Note_off_c, 6, 58, 95
5, 86160, Note_off_c, 6, 61, 95
5, 86160, Note_off_c, 6, 66, 95
5, 86160, Note_on_c, 6, 42, 95
5, 86160, Note_on_c, 6, 49, 95
5, 86160, Note_on_c, 6, 54, 95
5, 86160, Note_on_c, 6, 58, 95
5, 86160, Note_on_c, 6, 61, 95
5, 86160, Note_on_c, 6, 66, 95
5, 86640, Note_off_c, 6, 42, 95
5, 86640, Note_off_c, 6, 49, 95
5, 86640, Note_off_c, 6, 54, 95
5, 86640, Note_off_c, 6, 58, 95
5, 86640, Note_off_c, 6, 61, 95
5, 86640, Note_off_c, 6, 66, 95
5, 86640, Note_on_c, 6, 42, 95
5, 86640, Note_on_c, 6, 49, 95
5, 86640, Note_on_c, 6, 54, 95
5, 86640, Note_on_c, 6, 58, 95
5, 86640, Note_on_c, 6, 61, 95
5, 86640, Note_on_c, 6, 66, 95
5, 87360, Note_off_c, 6, 42, 95
5, 87360, Note_off_c, 6, 49, 95
5, 87360, Note_off_c, 6, 54, 95
5, 87360, Note_off_c, 6, 58, 95
5, 87360, Note_off_c, 6, 61, 95
5, 87360, Note_off_c, 6, 66, 95
5, 87360, Note_on_c, 6, 42, 95
5, 87360, Note_on_c, 6, 49, 95
5, 87360, Note_on_c, 6, 54, 95
5, 87360, Note_on_c, 6, 58, 95
5, 87360, Note_on_c, 6, 61, 95
5, 87360, Note_on_c, 6, 66, 95
5, 88320, Note_off_c, 6, 42, 95
5, 88320, Note_off_c, 6, 49, 95
5, 88320, Note_off_c, 6, 54, 95
5, 88320, Note_off_c, 6, 58, 95
5, 88320, Note_off_c, 6, 61, 95
5, 88320, Note_off_c, 6, 66, 95
5, 88320, Note_on_c, 6, 44, 95
5, 88320, Note_on_c, 6, 51, 95
5, 88320, Note_on_c, 6, 56, 95
5, 88320, Note_on_c, 6, 59, 95
5, 88320, Note_on_c, 6, 63, 95
5, 88320, Note_on_c, 6, 68, 95
5, 89040, Note_off_c, 6, 44, 95
5, 89040, Note_off_c, 6, 51, 95
5, 89040, Note_off_c, 6, 56, 95
5, 89040, Note_off_c, 6, 59, 95
5, 89040, Note_off_c, 6, 63, 95
5, 89040, Note_off_c, 6, 68, 95
5, 89040, Note_on_c, 6, 59, 95
5, 89040, Note_on_c, 6, 44, 95
5, 89040, Note_on_c, 6, 51, 95
5, 89040, Note_on_c, 6, 56, 95
5, 89040, Note_on_c, 6, 63, 95
5, 89040, Note_on_c, 6, 68, 95
5, 89280, Note_off_c, 6, 59, 95
5, 89280, Note_off_c, 6, 44, 95
5, 89280, Note_off_c, 6, 51, 95
5, 89280, Note_off_c, 6, 56, 95
5, 89280, Note_off_c, 6, 63, 95
5, 89280, Note_off_c, 6, 68, 95
5, 89280, Note_on_c, 6, 59, 95
5, 89280, Note_on_c, 6, 44, 95
5, 89280, Note_on_c, 6, 51, 95
5, 89280, Note_on_c, 6, 56, 95
5, 89280, Note_on_c, 6, 63, 95
5, 89280, Note_on_c, 6, 68, 95
5, 89520, Note_off_c, 6, 59, 95
5, 89520, Note_off_c, 6, 44, 95
5, 89520, Note_off_c, 6, 51, 95
5, 89520, Note_off_c, 6, 56, 95
5, 89520, Note_off_c, 6, 63, 95
5, 89520, Note_off_c, 6, 68, 95
5, 89520, Note_on_c, 6, 59, 95
5, 89520, Note_on_c, 6, 44, 95
5, 89520, Note_on_c, 6, 51, 95
5, 89520, Note_on_c, 6, 56, 95
5, 89520, Note_on_c, 6, 63, 95
5, 89520, Note_on_c, 6, 68, 95
5, 90000, Note_off_c, 6, 59, 95
5, 90000, Note_off_c, 6, 44, 95
5, 90000, Note_off_c, 6, 51, 95
5, 90000, Note_off_c, 6, 56, 95
5, 90000, Note_off_c, 6, 63, 95
5, 90000, Note_off_c, 6, 68, 95
5, 90000, Note_on_c, 6, 59, 95
5, 90000, Note_on_c, 6, 44, 95
5, 90000, Note_on_c, 6, 51, 95
5, 90000, Note_on_c, 6, 56, 95
5, 90000, Note_on_c, 6, 63, 95
5, 90000, Note_on_c, 6, 68, 95
5, 90480, Note_off_c, 6, 59, 95
5, 90480, Note_off_c, 6, 44, 95
5, 90480, Note_off_c, 6, 51, 95
5, 90480, Note_off_c, 6, 56, 95
5, 90480, Note_off_c, 6, 63, 95
5, 90480, Note_off_c, 6, 68, 95
5, 90480, Note_on_c, 6, 59, 95
5, 90480, Note_on_c, 6, 44, 95
5, 90480, Note_on_c, 6, 51, 95
5, 90480, Note_on_c, 6, 56, 95
5, 90480, Note_on_c, 6, 63, 95
5, 90480, Note_on_c, 6, 68, 95
5, 91200, Note_off_c, 6, 59, 95
5, 91200, Note_off_c, 6, 44, 95
5, 91200, Note_off_c, 6, 51, 95
5, 91200, Note_off_c, 6, 56, 95
5, 91200, Note_off_c, 6, 63, 95
5, 91200, Note_off_c, 6, 68, 95
5, 91200, Note_on_c, 6, 59, 95
5, 91200, Note_on_c, 6, 44, 95
5, 91200, Note_on_c, 6, 51, 95
5, 91200, Note_on_c, 6, 56, 95
5, 91200, Note_on_c, 6, 63, 95
5, 91200, Note_on_c, 6, 68, 95
5, 92160, Note_off_c, 6, 59, 95
5, 92160, Note_off_c, 6, 44, 95
5, 92160, Note_off_c, 6, 51, 95
5, 92160, Note_off_c, 6, 56, 95
5, 92160, Note_off_c, 6, 63, 95
5, 92160, Note_off_c, 6, 68, 95
5, 92160, Note_on_c, 6, 49, 95
5, 92160, Note_on_c, 6, 56, 95
5, 92160, Note_on_c, 6, 61, 95
5, 92160, Note_on_c, 6, 64, 95
5, 92160, Note_on_c, 6, 68, 95
5, 92880, Note_off_c, 6, 49, 95
5, 92880, Note_off_c, 6, 56, 95
5, 92880, Note_off_c, 6, 61, 95
5, 92880, Note_off_c, 6, 64, 95
5, 92880, Note_off_c, 6, 68, 95
5, 92880, Note_on_c, 6, 49, 95
5, 92880, Note_on_c, 6, 56, 95
5, 92880, Note_on_c, 6, 61, 95
5, 92880, Note_on_c, 6, 64, 95
5, 92880, Note_on_c, 6, 68, 95
5, 93120, Note_off_c, 6, 49, 95
5, 93120, Note_off_c, 6, 56, 95
5, 93120, Note_off_c, 6, 61, 95
5, 93120, Note_off_c, 6, 64, 95
5, 93120, Note_off_c, 6, 68, 95
5, 93120, Note_on_c, 6, 49, 95
5, 93120, Note_on_c, 6, 56, 95
5, 93120, Note_on_c, 6, 61, 95
5, 93120, Note_on_c, 6, 64, 95
5, 93120, Note_on_c, 6, 68, 95
5, 93360, Note_off_c, 6, 49, 95
5, 93360, Note_off_c, 6, 56, 95
5, 93360, Note_off_c, 6, 61, 95
5, 93360, Note_off_c, 6, 64, 95
5, 93360, Note_off_c, 6, 68, 95
5, 93360, Note_on_c, 6, 68, 95
5, 93360, Note_on_c, 6, 64, 95
5, 93360, Note_on_c, 6, 61, 95
5, 93360, Note_on_c, 6, 56, 95
5, 93360, Note_on_c, 6, 49, 95
5, 93840, Note_off_c, 6, 68, 95
5, 93840, Note_off_c, 6, 64, 95
5, 93840, Note_off_c, 6, 61, 95
5, 93840, Note_off_c, 6, 56, 95
5, 93840, Note_off_c, 6, 49, 95
5, 93840, Note_on_c, 6, 49, 95
5, 93840, Note_on_c, 6, 56, 95
5, 93840, Note_on_c, 6, 61, 95
5, 93840, Note_on_c, 6, 64, 95
5, 93840, Note_on_c, 6, 68, 95
5, 94320, Note_off_c, 6, 49, 95
5, 94320, Note_off_c, 6, 56, 95
5, 94320, Note_off_c, 6, 61, 95
5, 94320, Note_off_c, 6, 64, 95
5, 94320, Note_off_c, 6, 68, 95
5, 94320, Note_on_c, 6, 56, 95
5, 94320, Note_on_c, 6, 49, 95
5, 94320, Note_on_c, 6, 68, 95
5, 94320, Note_on_c, 6, 64, 95
5, 94320, Note_on_c, 6, 61, 95
5, 95040, Note_off_c, 6, 56, 95
5, 95040, Note_off_c, 6, 49, 95
5, 95040, Note_off_c, 6, 68, 95
5, 95040, Note_off_c, 6, 64, 95
5, 95040, Note_off_c, 6, 61, 95
5, 95040, Note_on_c, 6, 49, 95
5, 95040, Note_on_c, 6, 56, 95
5, 95040, Note_on_c, 6, 61, 95
5, 95040, Note_on_c, 6, 64, 95
5, 95040, Note_on_c, 6, 68, 95
5, 96000, Note_off_c, 6, 49, 95
5, 96000, Note_off_c, 6, 56, 95
5, 96000, Note_off_c, 6, 61, 95
5, 96000, Note_off_c, 6, 64, 95
5, 96000, Note_off_c, 6, 68, 95
5, 96000, Note_on_c, 6, 44, 95
5, 96000, Note_on_c, 6, 51, 95
5, 96000, Note_on_c, 6, 56, 95
5, 96000, Note_on_c, 6, 59, 95
5, 96000, Note_on_c, 6, 63, 95
5, 96000, Note_on_c, 6, 68, 95
5, 96720, Note_off_c, 6, 44, 95
5, 96720, Note_off_c, 6, 51, 95
5, 96720, Note_off_c, 6, 56, 95
5, 96720, Note_off_c, 6, 59, 95
5, 96720, Note_off_c, 6, 63, 95
5, 96720, Note_off_c, 6, 68, 95
5, 96720, Note_on_c, 6, 56, 95
5, 96720, Note_on_c, 6, 68, 95
5, 96720, Note_on_c, 6, 63, 95
5, 96720, Note_on_c, 6, 59, 95
5, 96720, Note_on_c, 6, 51, 95
5, 96720, Note_on_c, 6, 44, 95
5, 96960, Note_off_c, 6, 56, 95
5, 96960, Note_off_c, 6, 68, 95
5, 96960, Note_off_c, 6, 63, 95
5, 96960, Note_off_c, 6, 59, 95
5, 96960, Note_off_c, 6, 51, 95
5, 96960, Note_off_c, 6, 44, 95
5, 96960, Note_on_c, 6, 56, 95
5, 96960, Note_on_c, 6, 68, 95
5, 96960, Note_on_c, 6, 63, 95
5, 96960, Note_on_c, 6, 59, 95
5, 96960, Note_on_c, 6, 51, 95
5, 96960, Note_on_c, 6, 44, 95
5, 97200, Note_off_c, 6, 56, 95
5, 97200, Note_off_c, 6, 68, 95
5, 97200, Note_off_c, 6, 63, 95
5, 97200, Note_off_c, 6, 59, 95
5, 97200, Note_off_c, 6, 51, 95
5, 97200, Note_off_c, 6, 44, 95
5, 97200, Note_on_c, 6, 68, 95
5, 97200, Note_on_c, 6, 56, 95
5, 97200, Note_on_c, 6, 63, 95
5, 97200, Note_on_c, 6, 59, 95
5, 97200, Note_on_c, 6, 51, 95
5, 97200, Note_on_c, 6, 44, 95
5, 97680, Note_off_c, 6, 68, 95
5, 97680, Note_off_c, 6, 56, 95
5, 97680, Note_off_c, 6, 63, 95
5, 97680, Note_off_c, 6, 59, 95
5, 97680, Note_off_c, 6, 51, 95
5, 97680, Note_off_c, 6, 44, 95
5, 97680, Note_on_c, 6, 56, 95
5, 97680, Note_on_c, 6, 68, 95
5, 97680, Note_on_c, 6, 63, 95
5, 97680, Note_on_c, 6, 59, 95
5, 97680, Note_on_c, 6, 51, 95
5, 97680, Note_on_c, 6, 44, 95
5, 98160, Note_off_c, 6, 56, 95
5, 98160, Note_off_c, 6, 68, 95
5, 98160, Note_off_c, 6, 63, 95
5, 98160, Note_off_c, 6, 59, 95
5, 98160, Note_off_c, 6, 51, 95
5, 98160, Note_off_c, 6, 44, 95
5, 98160, Note_on_c, 6, 56, 95
5, 98160, Note_on_c, 6, 68, 95
5, 98160, Note_on_c, 6, 63, 95
5, 98160, Note_on_c, 6, 59, 95
5, 98160, Note_on_c, 6, 51, 95
5, 98160, Note_on_c, 6, 44, 95
5, 98880, Note_off_c, 6, 56, 95
5, 98880, Note_off_c, 6, 68, 95
5, 98880, Note_off_c, 6, 63, 95
5, 98880, Note_off_c, 6, 59, 95
5, 98880, Note_off_c, 6, 51, 95
5, 98880, Note_off_c, 6, 44, 95
5, 98880, Note_on_c, 6, 56, 95
5, 98880, Note_on_c, 6, 68, 95
5, 98880, Note_on_c, 6, 63, 95
5, 98880, Note_on_c, 6, 59, 95
5, 98880, Note_on_c, 6, 51, 95
5, 98880, Note_on_c, 6, 44, 95
5, 99840, Note_off_c, 6, 56, 95
5, 99840, Note_off_c, 6, 68, 95
5, 99840, Note_off_c, 6, 63, 95
5, 99840, Note_off_c, 6, 59, 95
5, 99840, Note_off_c, 6, 51, 95
5, 99840, Note_off_c, 6, 44, 95
5, 99840, Note_on_c, 6, 49, 95
5, 99840, Note_on_c, 6, 42, 95
5, 99840, Note_on_c, 6, 54, 95
5, 99840, Note_on_c, 6, 57, 95
5, 99840, Note_on_c, 6, 61, 95
5, 99840, Note_on_c, 6, 66, 95
5, 100560, Note_off_c, 6, 49, 95
5, 100560, Note_off_c, 6, 42, 95
5, 100560, Note_off_c, 6, 54, 95
5, 100560, Note_off_c, 6, 57, 95
5, 100560, Note_off_c, 6, 61, 95
5, 100560, Note_off_c, 6, 66, 95
5, 100560, Note_on_c, 6, 49, 95
5, 100560, Note_on_c, 6, 42, 95
5, 100560, Note_on_c, 6, 54, 95
5, 100560, Note_on_c, 6, 57, 95
5, 100560, Note_on_c, 6, 61, 95
5, 100560, Note_on_c, 6, 66, 95
5, 100800, Note_off_c, 6, 49, 95
5, 100800, Note_off_c, 6, 42, 95
5, 100800, Note_off_c, 6, 54, 95
5, 100800, Note_off_c, 6, 57, 95
5, 100800, Note_off_c, 6, 61, 95
5, 100800, Note_off_c, 6, 66, 95
5, 100800, Note_on_c, 6, 49, 95
5, 100800, Note_on_c, 6, 42, 95
5, 100800, Note_on_c, 6, 54, 95
5, 100800, Note_on_c, 6, 57, 95
5, 100800, Note_on_c, 6, 61, 95
5, 100800, Note_on_c, 6, 66, 95
5, 101040, Note_off_c, 6, 49, 95
5, 101040, Note_off_c, 6, 42, 95
5, 101040, Note_off_c, 6, 54, 95
5, 101040, Note_off_c, 6, 57, 95
5, 101040, Note_off_c, 6, 61, 95
5, 101040, Note_off_c, 6, 66, 95
5, 101040, Note_on_c, 6, 49, 95
5, 101040, Note_on_c, 6, 42, 95
5, 101040, Note_on_c, 6, 54, 95
5, 101040, Note_on_c, 6, 57, 95
5, 101040, Note_on_c, 6, 61, 95
5, 101040, Note_on_c, 6, 66, 95
5, 101520, Note_off_c, 6, 49, 95
5, 101520, Note_off_c, 6, 42, 95
5, 101520, Note_off_c, 6, 54, 95
5, 101520, Note_off_c, 6, 57, 95
5, 101520, Note_off_c, 6, 61, 95
5, 101520, Note_off_c, 6, 66, 95
5, 101520, Note_on_c, 6, 49, 95
5, 101520, Note_on_c, 6, 42, 95
5, 101520, Note_on_c, 6, 54, 95
5, 101520, Note_on_c, 6, 57, 95
5, 101520, Note_on_c, 6, 61, 95
5, 101520, Note_on_c, 6, 66, 95
5, 102000, Note_off_c, 6, 49, 95
5, 102000, Note_off_c, 6, 42, 95
5, 102000, Note_off_c, 6, 54, 95
5, 102000, Note_off_c, 6, 57, 95
5, 102000, Note_off_c, 6, 61, 95
5, 102000, Note_off_c, 6, 66, 95
5, 102000, Note_on_c, 6, 49, 95
5, 102000, Note_on_c, 6, 42, 95
5, 102000, Note_on_c, 6, 54, 95
5, 102000, Note_on_c, 6, 57, 95
5, 102000, Note_on_c, 6, 61, 95
5, 102000, Note_on_c, 6, 66, 95
5, 102720, Note_off_c, 6, 49, 95
5, 102720, Note_off_c, 6, 42, 95
5, 102720, Note_off_c, 6, 54, 95
5, 102720, Note_off_c, 6, 57, 95
5, 102720, Note_off_c, 6, 61, 95
5, 102720, Note_off_c, 6, 66, 95
5, 102720, Note_on_c, 6, 49, 95
5, 102720, Note_on_c, 6, 42, 95
5, 102720, Note_on_c, 6, 54, 95
5, 102720, Note_on_c, 6, 57, 95
5, 102720, Note_on_c, 6, 61, 95
5, 102720, Note_on_c, 6, 66, 95
5, 103680, Note_off_c, 6, 49, 95
5, 103680, Note_off_c, 6, 42, 95
5, 103680, Note_off_c, 6, 54, 95
5, 103680, Note_off_c, 6, 57, 95
5, 103680, Note_off_c, 6, 61, 95
5, 103680, Note_off_c, 6, 66, 95
5, 103680, Note_on_c, 6, 68, 95
5, 103680, Note_on_c, 6, 63, 95
5, 103680, Note_on_c, 6, 59, 95
5, 103680, Note_on_c, 6, 56, 95
5, 103680, Note_on_c, 6, 51, 95
5, 103680, Note_on_c, 6, 44, 95
5, 104400, Note_off_c, 6, 68, 95
5, 104400, Note_off_c, 6, 63, 95
5, 104400, Note_off_c, 6, 59, 95
5, 104400, Note_off_c, 6, 56, 95
5, 104400, Note_off_c, 6, 51, 95
5, 104400, Note_off_c, 6, 44, 95
5, 104400, Note_on_c, 6, 68, 95
5, 104400, Note_on_c, 6, 63, 95
5, 104400, Note_on_c, 6, 59, 95
5, 104400, Note_on_c, 6, 56, 95
5, 104400, Note_on_c, 6, 51, 95
5, 104400, Note_on_c, 6, 44, 95
5, 104640, Note_off_c, 6, 68, 95
5, 104640, Note_off_c, 6, 63, 95
5, 104640, Note_off_c, 6, 59, 95
5, 104640, Note_off_c, 6, 56, 95
5, 104640, Note_off_c, 6, 51, 95
5, 104640, Note_off_c, 6, 44, 95
5, 104640, Note_on_c, 6, 68, 95
5, 104640, Note_on_c, 6, 63, 95
5, 104640, Note_on_c, 6, 59, 95
5, 104640, Note_on_c, 6, 56, 95
5, 104640, Note_on_c, 6, 51, 95
5, 104640, Note_on_c, 6, 44, 95
5, 104880, Note_off_c, 6, 68, 95
5, 104880, Note_off_c, 6, 63, 95
5, 104880, Note_off_c, 6, 59, 95
5, 104880, Note_off_c, 6, 56, 95
5, 104880, Note_off_c, 6, 51, 95
5, 104880, Note_off_c, 6, 44, 95
5, 104880, Note_on_c, 6, 68, 95
5, 104880, Note_on_c, 6, 63, 95
5, 104880, Note_on_c, 6, 59, 95
5, 104880, Note_on_c, 6, 56, 95
5, 104880, Note_on_c, 6, 51, 95
5, 104880, Note_on_c, 6, 44, 95
5, 105360, Note_off_c, 6, 68, 95
5, 105360, Note_off_c, 6, 63, 95
5, 105360, Note_off_c, 6, 59, 95
5, 105360, Note_off_c, 6, 56, 95
5, 105360, Note_off_c, 6, 51, 95
5, 105360, Note_off_c, 6, 44, 95
5, 105360, Note_on_c, 6, 68, 95
5, 105360, Note_on_c, 6, 63, 95
5, 105360, Note_on_c, 6, 59, 95
5, 105360, Note_on_c, 6, 56, 95
5, 105360, Note_on_c, 6, 51, 95
5, 105360, Note_on_c, 6, 44, 95
5, 105840, Note_off_c, 6, 68, 95
5, 105840, Note_off_c, 6, 63, 95
5, 105840, Note_off_c, 6, 59, 95
5, 105840, Note_off_c, 6, 56, 95
5, 105840, Note_off_c, 6, 51, 95
5, 105840, Note_off_c, 6, 44, 95
5, 105840, Note_on_c, 6, 68, 95
5, 105840, Note_on_c, 6, 63, 95
5, 105840, Note_on_c, 6, 59, 95
5, 105840, Note_on_c, 6, 56, 95
5, 105840, Note_on_c, 6, 51, 95
5, 105840, Note_on_c, 6, 44, 95
5, 106560, Note_off_c, 6, 68, 95
5, 106560, Note_off_c, 6, 63, 95
5, 106560, Note_off_c, 6, 59, 95
5, 106560, Note_off_c, 6, 56, 95
5, 106560, Note_off_c, 6, 51, 95
5, 106560, Note_off_c, 6, 44, 95
5, 106560, Note_on_c, 6, 68, 95
5, 106560, Note_on_c, 6, 63, 95
5, 106560, Note_on_c, 6, 59, 95
5, 106560, Note_on_c, 6, 56, 95
5, 106560, Note_on_c, 6, 51, 95
5, 106560, Note_on_c, 6, 44, 95
5, 107520, Note_off_c, 6, 68, 95
5, 107520, Note_off_c, 6, 63, 95
5, 107520, Note_off_c, 6, 59, 95
5, 107520, Note_off_c, 6, 56, 95
5, 107520, Note_off_c, 6, 51, 95
5, 107520, Note_off_c, 6, 44, 95
5, 107520, Note_on_c, 6, 49, 95
5, 107520, Note_on_c, 6, 56, 95
5, 107520, Note_on_c, 6, 61, 95
5, 107520, Note_on_c, 6, 64, 95
5, 107520, Note_on_c, 6, 68, 95
5, 108240, Note_off_c, 6, 49, 95
5, 108240, Note_off_c, 6, 56, 95
5, 108240, Note_off_c, 6, 61, 95
5, 108240, Note_off_c, 6, 64, 95
5, 108240, Note_off_c, 6, 68, 95
5, 108240, Note_on_c, 6, 49, 95
5, 108240, Note_on_c, 6, 56, 95
5, 108240, Note_on_c, 6, 61, 95
5, 108240, Note_on_c, 6, 64, 95
5, 108240, Note_on_c, 6, 68, 95
5, 108480, Note_off_c, 6, 49, 95
5, 108480, Note_off_c, 6, 56, 95
5, 108480, Note_off_c, 6, 61, 95
5, 108480, Note_off_c, 6, 64, 95
5, 108480, Note_off_c, 6, 68, 95
5, 108480, Note_on_c, 6, 49, 95
5, 108480, Note_on_c, 6, 56, 95
5, 108480, Note_on_c, 6, 61, 95
5, 108480, Note_on_c, 6, 64, 95
5, 108480, Note_on_c, 6, 68, 95
5, 108720, Note_off_c, 6, 49, 95
5, 108720, Note_off_c, 6, 56, 95
5, 108720, Note_off_c, 6, 61, 95
5, 108720, Note_off_c, 6, 64, 95
5, 108720, Note_off_c, 6, 68, 95
5, 108720, Note_on_c, 6, 68, 95
5, 108720, Note_on_c, 6, 64, 95
5, 108720, Note_on_c, 6, 61, 95
5, 108720, Note_on_c, 6, 56, 95
5, 108720, Note_on_c, 6, 49, 95
5, 109200, Note_off_c, 6, 68, 95
5, 109200, Note_off_c, 6, 64, 95
5, 109200, Note_off_c, 6, 61, 95
5, 109200, Note_off_c, 6, 56, 95
5, 109200, Note_off_c, 6, 49, 95
5, 109200, Note_on_c, 6, 49, 95
5, 109200, Note_on_c, 6, 56, 95
5, 109200, Note_on_c, 6, 61, 95
5, 109200, Note_on_c, 6, 64, 95
5, 109200, Note_on_c, 6, 68, 95
5, 109680, Note_off_c, 6, 49, 95
5, 109680, Note_off_c, 6, 56, 95
5, 109680, Note_off_c, 6, 61, 95
5, 109680, Note_off_c, 6, 64, 95
5, 109680, Note_off_c, 6, 68, 95
5, 109680, Note_on_c, 6, 56, 95
5, 109680, Note_on_c, 6, 49, 95
5, 109680, Note_on_c, 6, 68, 95
5, 109680, Note_on_c, 6, 64, 95
5, 109680, Note_on_c, 6, 61, 95
5, 110400, Note_off_c, 6, 56, 95
5, 110400, Note_off_c, 6, 49, 95
5, 110400, Note_off_c, 6, 68, 95
5, 110400, Note_off_c, 6, 64, 95
5, 110400, Note_off_c, 6, 61, 95
5, 110400, Note_on_c, 6, 49, 95
5, 110400, Note_on_c, 6, 56, 95
5, 110400, Note_on_c, 6, 61, 95
5, 110400, Note_on_c, 6, 64, 95
5, 110400, Note_on_c, 6, 68, 95
5, 111360, Note_off_c, 6, 49, 95
5, 111360, Note_off_c, 6, 56, 95
5, 111360, Note_off_c, 6, 61, 95
5, 111360, Note_off_c, 6, 64, 95
5, 111360, Note_off_c, 6, 68, 95
5, 111360, Note_on_c, 6, 44, 95
5, 111360, Note_on_c, 6, 51, 95
5, 111360, Note_on_c, 6, 56, 95
5, 111360, Note_on_c, 6, 59, 95
5, 111360, Note_on_c, 6, 63, 95
5, 111360, Note_on_c, 6, 68, 95
5, 112080, Note_off_c, 6, 44, 95
5, 112080, Note_off_c, 6, 51, 95
5, 112080, Note_off_c, 6, 56, 95
5, 112080, Note_off_c, 6, 59, 95
5, 112080, Note_off_c, 6, 63, 95
5, 112080, Note_off_c, 6, 68, 95
5, 112080, Note_on_c, 6, 56, 95
5, 112080, Note_on_c, 6, 68, 95
5, 112080, Note_on_c, 6, 63, 95
5, 112080, Note_on_c, 6, 59, 95
5, 112080, Note_on_c, 6, 51, 95
5, 112080, Note_on_c, 6, 44, 95
5, 112320, Note_off_c, 6, 56, 95
5, 112320, Note_off_c, 6, 68, 95
5, 112320, Note_off_c, 6, 63, 95
5, 112320, Note_off_c, 6, 59, 95
5, 112320, Note_off_c, 6, 51, 95
5, 112320, Note_off_c, 6, 44, 95
5, 112320, Note_on_c, 6, 56, 95
5, 112320, Note_on_c, 6, 68, 95
5, 112320, Note_on_c, 6, 63, 95
5, 112320, Note_on_c, 6, 59, 95
5, 112320, Note_on_c, 6, 51, 95
5, 112320, Note_on_c, 6, 44, 95
5, 112560, Note_off_c, 6, 56, 95
5, 112560, Note_off_c, 6, 68, 95
5, 112560, Note_off_c, 6, 63, 95
5, 112560, Note_off_c, 6, 59, 95
5, 112560, Note_off_c, 6, 51, 95
5, 112560, Note_off_c, 6, 44, 95
5, 112560, Note_on_c, 6, 68, 95
5, 112560, Note_on_c, 6, 56, 95
5, 112560, Note_on_c, 6, 63, 95
5, 112560, Note_on_c, 6, 59, 95
5, 112560, Note_on_c, 6, 51, 95
5, 112560, Note_on_c, 6, 44, 95
5, 113040, Note_off_c, 6, 68, 95
5, 113040, Note_off_c, 6, 56, 95
5, 113040, Note_off_c, 6, 63, 95
5, 113040, Note_off_c, 6, 59, 95
5, 113040, Note_off_c, 6, 51, 95
5, 113040, Note_off_c, 6, 44, 95
5, 113040, Note_on_c, 6, 56, 95
5, 113040, Note_on_c, 6, 68, 95
5, 113040, Note_on_c, 6, 63, 95
5, 113040, Note_on_c, 6, 59, 95
5, 113040, Note_on_c, 6, 51, 95
5, 113040, Note_on_c, 6, 44, 95
5, 113520, Note_off_c, 6, 56, 95
5, 113520, Note_off_c, 6, 68, 95
5, 113520, Note_off_c, 6, 63, 95
5, 113520, Note_off_c, 6, 59, 95
5, 113520, Note_off_c, 6, 51, 95
5, 113520, Note_off_c, 6, 44, 95
5, 113520, Note_on_c, 6, 56, 95
5, 113520, Note_on_c, 6, 68, 95
5, 113520, Note_on_c, 6, 63, 95
5, 113520, Note_on_c, 6, 59, 95
5, 113520, Note_on_c, 6, 51, 95
5, 113520, Note_on_c, 6, 44, 95
5, 114240, Note_off_c, 6, 56, 95
5, 114240, Note_off_c, 6, 68, 95
5, 114240, Note_off_c, 6, 63, 95
5, 114240, Note_off_c, 6, 59, 95
5, 114240, Note_off_c, 6, 51, 95
5, 114240, Note_off_c, 6, 44, 95
5, 114240, Note_on_c, 6, 56, 95
5, 114240, Note_on_c, 6, 68, 95
5, 114240, Note_on_c, 6, 63, 95
5, 114240, Note_on_c, 6, 59, 95
5, 114240, Note_on_c, 6, 44, 95
5, 114240, Note_on_c, 6, 51, 95
5, 115200, Note_off_c, 6, 56, 95
5, 115200, Note_off_c, 6, 68, 95
5, 115200, Note_off_c, 6, 63, 95
5, 115200, Note_off_c, 6, 59, 95
5, 115200, Note_off_c, 6, 44, 95
5, 115200, Note_off_c, 6, 51, 95
5, 115200, Note_on_c, 6, 42, 95
5, 115200, Note_on_c, 6, 49, 95
5, 115200, Note_on_c, 6, 54, 95
5, 115200, Note_on_c, 6, 58, 95
5, 115200, Note_on_c, 6, 61, 95
5, 115200, Note_on_c, 6, 66, 95
5, 115920, Note_off_c, 6, 42, 95
5, 115920, Note_off_c, 6, 49, 95
5, 115920, Note_off_c, 6, 54, 95
5, 115920, Note_off_c, 6, 58, 95
5, 115920, Note_off_c, 6, 61, 95
5, 115920, Note_off_c, 6, 66, 95
5, 115920, Note_on_c, 6, 42, 95
5, 115920, Note_on_c, 6, 49, 95
5, 115920, Note_on_c, 6, 54, 95
5, 115920, Note_on_c, 6, 58, 95
5, 115920, Note_on_c, 6, 61, 95
5, 115920, Note_on_c, 6, 66, 95
5, 116160, Note_off_c, 6, 42, 95
5, 116160, Note_off_c, 6, 49, 95
5, 116160, Note_off_c, 6, 54, 95
5, 116160, Note_off_c, 6, 58, 95
5, 116160, Note_off_c, 6, 61, 95
5, 116160, Note_off_c, 6, 66, 95
5, 116160, Note_on_c, 6, 42, 95
5, 116160, Note_on_c, 6, 49, 95
5, 116160, Note_on_c, 6, 54, 95
5, 116160, Note_on_c, 6, 58, 95
5, 116160, Note_on_c, 6, 61, 95
5, 116160, Note_on_c, 6, 66, 95
5, 116400, Note_off_c, 6, 42, 95
5, 116400, Note_off_c, 6, 49, 95
5, 116400, Note_off_c, 6, 54, 95
5, 116400, Note_off_c, 6, 58, 95
5, 116400, Note_off_c, 6, 61, 95
5, 116400, Note_off_c, 6, 66, 95
5, 116400, Note_on_c, 6, 42, 95
5, 116400, Note_on_c, 6, 49, 95
5, 116400, Note_on_c, 6, 54, 95
5, 116400, Note_on_c, 6, 58, 95
5, 116400, Note_on_c, 6, 61, 95
5, 116400, Note_on_c, 6, 66, 95
5, 116880, Note_off_c, 6, 42, 95
5, 116880, Note_off_c, 6, 49, 95
5, 116880, Note_off_c, 6, 54, 95
5, 116880, Note_off_c, 6, 58, 95
5, 116880, Note_off_c, 6, 61, 95
5, 116880, Note_off_c, 6, 66, 95
5, 116880, Note_on_c, 6, 42, 95
5, 116880, Note_on_c, 6, 49, 95
5, 116880, Note_on_c, 6, 54, 95
5, 116880, Note_on_c, 6, 58, 95
5, 116880, Note_on_c, 6, 61, 95
5, 116880, Note_on_c, 6, 66, 95
5, 117360, Note_off_c, 6, 42, 95
5, 117360, Note_off_c, 6, 49, 95
5, 117360, Note_off_c, 6, 54, 95
5, 117360, Note_off_c, 6, 58, 95
5, 117360, Note_off_c, 6, 61, 95
5, 117360, Note_off_c, 6, 66, 95
5, 117360, Note_on_c, 6, 42, 95
5, 117360, Note_on_c, 6, 49, 95
5, 117360, Note_on_c, 6, 54, 95
5, 117360, Note_on_c, 6, 58, 95
5, 117360, Note_on_c, 6, 61, 95
5, 117360, Note_on_c, 6, 66, 95
5, 118080, Note_off_c, 6, 42, 95
5, 118080, Note_off_c, 6, 49, 95
5, 118080, Note_off_c, 6, 54, 95
5, 118080, Note_off_c, 6, 58, 95
5, 118080, Note_off_c, 6, 61, 95
5, 118080, Note_off_c, 6, 66, 95
5, 118080, Note_on_c, 6, 42, 95
5, 118080, Note_on_c, 6, 49, 95
5, 118080, Note_on_c, 6, 54, 95
5, 118080, Note_on_c, 6, 58, 95
5, 118080, Note_on_c, 6, 61, 95
5, 118080, Note_on_c, 6, 66, 95
5, 119040, Note_off_c, 6, 42, 95
5, 119040, Note_off_c, 6, 49, 95
5, 119040, Note_off_c, 6, 54, 95
5, 119040, Note_off_c, 6, 58, 95
5, 119040, Note_off_c, 6, 61, 95
5, 119040, Note_off_c, 6, 66, 95
5, 119040, Note_on_c, 6, 44, 95
5, 119040, Note_on_c, 6, 51, 95
5, 119040, Note_on_c, 6, 56, 95
5, 119040, Note_on_c, 6, 59, 95
5, 119040, Note_on_c, 6, 63, 95
5, 119040, Note_on_c, 6, 68, 95
5, 119760, Note_off_c, 6, 44, 95
5, 119760, Note_off_c, 6, 51, 95
5, 119760, Note_off_c, 6, 56, 95
5, 119760, Note_off_c, 6, 59, 95
5, 119760, Note_off_c, 6, 63, 95
5, 119760, Note_off_c, 6, 68, 95
5, 119760, Note_on_c, 6, 59, 95
5, 119760, Note_on_c, 6, 44, 95
5, 119760, Note_on_c, 6, 51, 95
5, 119760, Note_on_c, 6, 56, 95
5, 119760, Note_on_c, 6, 63, 95
5, 119760, Note_on_c, 6, 68, 95
5, 120000, Note_off_c, 6, 59, 95
5, 120000, Note_off_c, 6, 44, 95
5, 120000, Note_off_c, 6, 51, 95
5, 120000, Note_off_c, 6, 56, 95
5, 120000, Note_off_c, 6, 63, 95
5, 120000, Note_off_c, 6, 68, 95
5, 120000, Note_on_c, 6, 59, 95
5, 120000, Note_on_c, 6, 44, 95
5, 120000, Note_on_c, 6, 51, 95
5, 120000, Note_on_c, 6, 56, 95
5, 120000, Note_on_c, 6, 63, 95
5, 120000, Note_on_c, 6, 68, 95
5, 120240, Note_off_c, 6, 59, 95
5, 120240, Note_off_c, 6, 44, 95
5, 120240, Note_off_c, 6, 51, 95
5, 120240, Note_off_c, 6, 56, 95
5, 120240, Note_off_c, 6, 63, 95
5, 120240, Note_off_c, 6, 68, 95
5, 120240, Note_on_c, 6, 59, 95
5, 120240, Note_on_c, 6, 44, 95
5, 120240, Note_on_c, 6, 51, 95
5, 120240, Note_on_c, 6, 56, 95
5, 120240, Note_on_c, 6, 63, 95
5, 120240, Note_on_c, 6, 68, 95
5, 120720, Note_off_c, 6, 59, 95
5, 120720, Note_off_c, 6, 44, 95
5, 120720, Note_off_c, 6, 51, 95
5, 120720, Note_off_c, 6, 56, 95
5, 120720, Note_off_c, 6, 63, 95
5, 120720, Note_off_c, 6, 68, 95
5, 120720, Note_on_c, 6, 59, 95
5, 120720, Note_on_c, 6, 44, 95
5, 120720, Note_on_c, 6, 51, 95
5, 120720, Note_on_c, 6, 56, 95
5, 120720, Note_on_c, 6, 63, 95
5, 120720, Note_on_c, 6, 68, 95
5, 121200, Note_off_c, 6, 59, 95
5, 121200, Note_off_c, 6, 44, 95
5, 121200, Note_off_c, 6, 51, 95
5, 121200, Note_off_c, 6, 56, 95
5, 121200, Note_off_c, 6, 63, 95
5, 121200, Note_off_c, 6, 68, 95
5, 121200, Note_on_c, 6, 59, 95
5, 121200, Note_on_c, 6, 44, 95
5, 121200, Note_on_c, 6, 51, 95
5, 121200, Note_on_c, 6, 56, 95
5, 121200, Note_on_c, 6, 63, 95
5, 121200, Note_on_c, 6, 68, 95
5, 121920, Note_off_c, 6, 59, 95
5, 121920, Note_off_c, 6, 44, 95
5, 121920, Note_off_c, 6, 51, 95
5, 121920, Note_off_c, 6, 56, 95
5, 121920, Note_off_c, 6, 63, 95
5, 121920, Note_off_c, 6, 68, 95
5, 121920, Note_on_c, 6, 59, 95
5, 121920, Note_on_c, 6, 44, 95
5, 121920, Note_on_c, 6, 51, 95
5, 121920, Note_on_c, 6, 56, 95
5, 121920, Note_on_c, 6, 63, 95
5, 121920, Note_on_c, 6, 68, 95
5, 122880, Note_off_c, 6, 59, 95
5, 122880, Note_off_c, 6, 44, 95
5, 122880, Note_off_c, 6, 51, 95
5, 122880, Note_off_c, 6, 56, 95
5, 122880, Note_off_c, 6, 63, 95
5, 122880, Note_off_c, 6, 68, 95
5, 122880, Note_on_c, 6, 49, 95
5, 122880, Note_on_c, 6, 56, 95
5, 122880, Note_on_c, 6, 61, 95
5, 122880, Note_on_c, 6, 64, 95
5, 122880, Note_on_c, 6, 68, 95
5, 123600, Note_off_c, 6, 49, 95
5, 123600, Note_off_c, 6, 56, 95
5, 123600, Note_off_c, 6, 61, 95
5, 123600, Note_off_c, 6, 64, 95
5, 123600, Note_off_c, 6, 68, 95
5, 123600, Note_on_c, 6, 49, 95
5, 123600, Note_on_c, 6, 56, 95
5, 123600, Note_on_c, 6, 61, 95
5, 123600, Note_on_c, 6, 64, 95
5, 123600, Note_on_c, 6, 68, 95
5, 123840, Note_off_c, 6, 49, 95
5, 123840, Note_off_c, 6, 56, 95
5, 123840, Note_off_c, 6, 61, 95
5, 123840, Note_off_c, 6, 64, 95
5, 123840, Note_off_c, 6, 68, 95
5, 123840, Note_on_c, 6, 49, 95
5, 123840, Note_on_c, 6, 56, 95
5, 123840, Note_on_c, 6, 61, 95
5, 123840, Note_on_c, 6, 64, 95
5, 123840, Note_on_c, 6, 68, 95
5, 124080, Note_off_c, 6, 49, 95
5, 124080, Note_off_c, 6, 56, 95
5, 124080, Note_off_c, 6, 61, 95
5, 124080, Note_off_c, 6, 64, 95
5, 124080, Note_off_c, 6, 68, 95
5, 124080, Note_on_c, 6, 68, 95
5, 124080, Note_on_c, 6, 64, 95
5, 124080, Note_on_c, 6, 61, 95
5, 124080, Note_on_c, 6, 56, 95
5, 124080, Note_on_c, 6, 49, 95
5, 124560, Note_off_c, 6, 68, 95
5, 124560, Note_off_c, 6, 64, 95
5, 124560, Note_off_c, 6, 61, 95
5, 124560, Note_off_c, 6, 56, 95
5, 124560, Note_off_c, 6, 49, 95
5, 124560, Note_on_c, 6, 49, 95
5, 124560, Note_on_c, 6, 56, 95
5, 124560, Note_on_c, 6, 61, 95
5, 124560, Note_on_c, 6, 64, 95
5, 124560, Note_on_c, 6, 68, 95
5, 125040, Note_off_c, 6, 49, 95
5, 125040, Note_off_c, 6, 56, 95
5, 125040, Note_off_c, 6, 61, 95
5, 125040, Note_off_c, 6, 64, 95
5, 125040, Note_off_c, 6, 68, 95
5, 125040, Note_on_c, 6, 56, 95
5, 125040, Note_on_c, 6, 49, 95
5, 125040, Note_on_c, 6, 68, 95
5, 125040, Note_on_c, 6, 64, 95
5, 125040, Note_on_c, 6, 61, 95
5, 125760, Note_off_c, 6, 56, 95
5, 125760, Note_off_c, 6, 49, 95
5, 125760, Note_off_c, 6, 68, 95
5, 125760, Note_off_c, 6, 64, 95
5, 125760, Note_off_c, 6, 61, 95
5, 125760, Note_on_c, 6, 49, 95
5, 125760, Note_on_c, 6, 56, 95
5, 125760, Note_on_c, 6, 61, 95
5, 125760, Note_on_c, 6, 64, 95
5, 125760, Note_on_c, 6, 68, 95
5, 126720, Note_off_c, 6, 49, 95
5, 126720, Note_off_c, 6, 56, 95
5, 126720, Note_off_c, 6, 61, 95
5, 126720, Note_off_c, 6, 64, 95
5, 126720, Note_off_c, 6, 68, 95
5, 126720, Note_on_c, 6, 44, 95
5, 126720, Note_on_c, 6, 51, 95
5, 126720, Note_on_c, 6, 56, 95
5, 126720, Note_on_c, 6, 59, 95
5, 126720, Note_on_c, 6, 63, 95
5, 126720, Note_on_c, 6, 68, 95
5, 127440, Note_off_c, 6, 44, 95
5, 127440, Note_off_c, 6, 51, 95
5, 127440, Note_off_c, 6, 56, 95
5, 127440, Note_off_c, 6, 59, 95
5, 127440, Note_off_c, 6, 63, 95
5, 127440, Note_off_c, 6, 68, 95
5, 127440, Note_on_c, 6, 56, 95
5, 127440, Note_on_c, 6, 68, 95
5, 127440, Note_on_c, 6, 63, 95
5, 127440, Note_on_c, 6, 59, 95
5, 127440, Note_on_c, 6, 51, 95
5, 127440, Note_on_c, 6, 44, 95
5, 127680, Note_off_c, 6, 56, 95
5, 127680, Note_off_c, 6, 68, 95
5, 127680, Note_off_c, 6, 63, 95
5, 127680, Note_off_c, 6, 59, 95
5, 127680, Note_off_c, 6, 51, 95
5, 127680, Note_off_c, 6, 44, 95
5, 127680, Note_on_c, 6, 56, 95
5, 127680, Note_on_c, 6, 68, 95
5, 127680, Note_on_c, 6, 63, 95
5, 127680, Note_on_c, 6, 59, 95
5, 127680, Note_on_c, 6, 51, 95
5, 127680, Note_on_c, 6, 44, 95
5, 127920, Note_off_c, 6, 56, 95
5, 127920, Note_off_c, 6, 68, 95
5, 127920, Note_off_c, 6, 63, 95
5, 127920, Note_off_c, 6, 59, 95
5, 127920, Note_off_c, 6, 51, 95
5, 127920, Note_off_c, 6, 44, 95
5, 127920, Note_on_c, 6, 68, 95
5, 127920, Note_on_c, 6, 56, 95
5, 127920, Note_on_c, 6, 63, 95
5, 127920, Note_on_c, 6, 59, 95
5, 127920, Note_on_c, 6, 51, 95
5, 127920, Note_on_c, 6, 44, 95
5, 128400, Note_off_c, 6, 68, 95
5, 128400, Note_off_c, 6, 56, 95
5, 128400, Note_off_c, 6, 63, 95
5, 128400, Note_off_c, 6, 59, 95
5, 128400, Note_off_c, 6, 51, 95
5, 128400, Note_off_c, 6, 44, 95
5, 128400, Note_on_c, 6, 56, 95
5, 128400, Note_on_c, 6, 68, 95
5, 128400, Note_on_c, 6, 63, 95
5, 128400, Note_on_c, 6, 59, 95
5, 128400, Note_on_c, 6, 51, 95
5, 128400, Note_on_c, 6, 44, 95
5, 128880, Note_off_c, 6, 56, 95
5, 128880, Note_off_c, 6, 68, 95
5, 128880, Note_off_c, 6, 63, 95
5, 128880, Note_off_c, 6, 59, 95
5, 128880, Note_off_c, 6, 51, 95
5, 128880, Note_off_c, 6, 44, 95
5, 128880, Note_on_c, 6, 56, 95
5, 128880, Note_on_c, 6, 68, 95
5, 128880, Note_on_c, 6, 63, 95
5, 128880, Note_on_c, 6, 59, 95
5, 128880, Note_on_c, 6, 51, 95
5, 128880, Note_on_c, 6, 44, 95
5, 129600, Note_off_c, 6, 56, 95
5, 129600, Note_off_c, 6, 68, 95
5, 129600, Note_off_c, 6, 63, 95
5, 129600, Note_off_c, 6, 59, 95
5, 129600, Note_off_c, 6, 51, 95
5, 129600, Note_off_c, 6, 44, 95
5, 129600, Note_on_c, 6, 56, 95
5, 129600, Note_on_c, 6, 68, 95
5, 129600, Note_on_c, 6, 63, 95
5, 129600, Note_on_c, 6, 59, 95
5, 129600, Note_on_c, 6, 51, 95
5, 129600, Note_on_c, 6, 44, 95
5, 130560, Note_off_c, 6, 56, 95
5, 130560, Note_off_c, 6, 68, 95
5, 130560, Note_off_c, 6, 63, 95
5, 130560, Note_off_c, 6, 59, 95
5, 130560, Note_off_c, 6, 51, 95
5, 130560, Note_off_c, 6, 44, 95
5, 130560, Note_on_c, 6, 49, 95
5, 130560, Note_on_c, 6, 42, 95
5, 130560, Note_on_c, 6, 54, 95
5, 130560, Note_on_c, 6, 57, 95
5, 130560, Note_on_c, 6, 61, 95
5, 130560, Note_on_c, 6, 66, 95
5, 131280, Note_off_c, 6, 49, 95
5, 131280, Note_off_c, 6, 42, 95
5, 131280, Note_off_c, 6, 54, 95
5, 131280, Note_off_c, 6, 57, 95
5, 131280, Note_off_c, 6, 61, 95
5, 131280, Note_off_c, 6, 66, 95
5, 131280, Note_on_c, 6, 49, 95
5, 131280, Note_on_c, 6, 42, 95
5, 131280, Note_on_c, 6, 54, 95
5, 131280, Note_on_c, 6, 57, 95
5, 131280, Note_on_c, 6, 61, 95
5, 131280, Note_on_c, 6, 66, 95
5, 131520, Note_off_c, 6, 49, 95
5, 131520, Note_off_c, 6, 42, 95
5, 131520, Note_off_c, 6, 54, 95
5, 131520, Note_off_c, 6, 57, 95
5, 131520, Note_off_c, 6, 61, 95
5, 131520, Note_off_c, 6, 66, 95
5, 131520, Note_on_c, 6, 49, 95
5, 131520, Note_on_c, 6, 42, 95
5, 131520, Note_on_c, 6, 54, 95
5, 131520, Note_on_c, 6, 57, 95
5, 131520, Note_on_c, 6, 61, 95
5, 131520, Note_on_c, 6, 66, 95
5, 131760, Note_off_c, 6, 49, 95
5, 131760, Note_off_c, 6, 42, 95
5, 131760, Note_off_c, 6, 54, 95
5, 131760, Note_off_c, 6, 57, 95
5, 131760, Note_off_c, 6, 61, 95
5, 131760, Note_off_c, 6, 66, 95
5, 131760, Note_on_c, 6, 49, 95
5, 131760, Note_on_c, 6, 42, 95
5, 131760, Note_on_c, 6, 54, 95
5, 131760, Note_on_c, 6, 57, 95
5, 131760, Note_on_c, 6, 61, 95
5, 131760, Note_on_c, 6, 66, 95
5, 132240, Note_off_c, 6, 49, 95
5, 132240, Note_off_c, 6, 42, 95
5, 132240, Note_off_c, 6, 54, 95
5, 132240, Note_off_c, 6, 57, 95
5, 132240, Note_off_c, 6, 61, 95
5, 132240, Note_off_c, 6, 66, 95
5, 132240, Note_on_c, 6, 49, 95
5, 132240, Note_on_c, 6, 42, 95
5, 132240, Note_on_c, 6, 54, 95
5, 132240, Note_on_c, 6, 57, 95
5, 132240, Note_on_c, 6, 61, 95
5, 132240, Note_on_c, 6, 66, 95
5, 132720, Note_off_c, 6, 49, 95
5, 132720, Note_off_c, 6, 42, 95
5, 132720, Note_off_c, 6, 54, 95
5, 132720, Note_off_c, 6, 57, 95
5, 132720, Note_off_c, 6, 61, 95
5, 132720, Note_off_c, 6, 66, 95
5, 132720, Note_on_c, 6, 49, 95
5, 132720, Note_on_c, 6, 42, 95
5, 132720, Note_on_c, 6, 54, 95
5, 132720, Note_on_c, 6, 57, 95
5, 132720, Note_on_c, 6, 61, 95
5, 132720, Note_on_c, 6, 66, 95
5, 133440, Note_off_c, 6, 49, 95
5, 133440, Note_off_c, 6, 42, 95
5, 133440, Note_off_c, 6, 54, 95
5, 133440, Note_off_c, 6, 57, 95
5, 133440, Note_off_c, 6, 61, 95
5, 133440, Note_off_c, 6, 66, 95
5, 133440, Note_on_c, 6, 49, 95
5, 133440, Note_on_c, 6, 42, 95
5, 133440, Note_on_c, 6, 54, 95
5, 133440, Note_on_c, 6, 57, 95
5, 133440, Note_on_c, 6, 61, 95
5, 133440, Note_on_c, 6, 66, 95
5, 134400, Note_off_c, 6, 49, 95
5, 134400, Note_off_c, 6, 42, 95
5, 134400, Note_off_c, 6, 54, 95
5, 134400, Note_off_c, 6, 57, 95
5, 134400, Note_off_c, 6, 61, 95
5, 134400, Note_off_c, 6, 66, 95
5, 134400, Note_on_c, 6, 68, 95
5, 134400, Note_on_c, 6, 63, 95
5, 134400, Note_on_c, 6, 59, 95
5, 134400, Note_on_c, 6, 56, 95
5, 134400, Note_on_c, 6, 51, 95
5, 134400, Note_on_c, 6, 44, 95
5, 135120, Note_off_c, 6, 68, 95
5, 135120, Note_off_c, 6, 63, 95
5, 135120, Note_off_c, 6, 59, 95
5, 135120, Note_off_c, 6, 56, 95
5, 135120, Note_off_c, 6, 51, 95
5, 135120, Note_off_c, 6, 44, 95
5, 135120, Note_on_c, 6, 68, 95
5, 135120, Note_on_c, 6, 63, 95
5, 135120, Note_on_c, 6, 59, 95
5, 135120, Note_on_c, 6, 56, 95
5, 135120, Note_on_c, 6, 51, 95
5, 135120, Note_on_c, 6, 44, 95
5, 135360, Note_off_c, 6, 68, 95
5, 135360, Note_off_c, 6, 63, 95
5, 135360, Note_off_c, 6, 59, 95
5, 135360, Note_off_c, 6, 56, 95
5, 135360, Note_off_c, 6, 51, 95
5, 135360, Note_off_c, 6, 44, 95
5, 135360, Note_on_c, 6, 68, 95
5, 135360, Note_on_c, 6, 63, 95
5, 135360, Note_on_c, 6, 59, 95
5, 135360, Note_on_c, 6, 56, 95
5, 135360, Note_on_c, 6, 51, 95
5, 135360, Note_on_c, 6, 44, 95
5, 135600, Note_off_c, 6, 68, 95
5, 135600, Note_off_c, 6, 63, 95
5, 135600, Note_off_c, 6, 59, 95
5, 135600, Note_off_c, 6, 56, 95
5, 135600, Note_off_c, 6, 51, 95
5, 135600, Note_off_c, 6, 44, 95
5, 135600, Note_on_c, 6, 68, 95
5, 135600, Note_on_c, 6, 63, 95
5, 135600, Note_on_c, 6, 59, 95
5, 135600, Note_on_c, 6, 56, 95
5, 135600, Note_on_c, 6, 51, 95
5, 135600, Note_on_c, 6, 44, 95
5, 136080, Note_off_c, 6, 68, 95
5, 136080, Note_off_c, 6, 63, 95
5, 136080, Note_off_c, 6, 59, 95
5, 136080, Note_off_c, 6, 56, 95
5, 136080, Note_off_c, 6, 51, 95
5, 136080, Note_off_c, 6, 44, 95
5, 136080, Note_on_c, 6, 68, 95
5, 136080, Note_on_c, 6, 63, 95
5, 136080, Note_on_c, 6, 59, 95
5, 136080, Note_on_c, 6, 56, 95
5, 136080, Note_on_c, 6, 51, 95
5, 136080, Note_on_c, 6, 44, 95
5, 136560, Note_off_c, 6, 68, 95
5, 136560, Note_off_c, 6, 63, 95
5, 136560, Note_off_c, 6, 59, 95
5, 136560, Note_off_c, 6, 56, 95
5, 136560, Note_off_c, 6, 51, 95
5, 136560, Note_off_c, 6, 44, 95
5, 136560, Note_on_c, 6, 68, 95
5, 136560, Note_on_c, 6, 63, 95
5, 136560, Note_on_c, 6, 59, 95
5, 136560, Note_on_c, 6, 56, 95
5, 136560, Note_on_c, 6, 51, 95
5, 136560, Note_on_c, 6, 44, 95
5, 137280, Note_off_c, 6, 68, 95
5, 137280, Note_off_c, 6, 63, 95
5, 137280, Note_off_c, 6, 59, 95
5, 137280, Note_off_c, 6, 56, 95
5, 137280, Note_off_c, 6, 51, 95
5, 137280, Note_off_c, 6, 44, 95
5, 137280, Note_on_c, 6, 68, 95
5, 137280, Note_on_c, 6, 63, 95
5, 137280, Note_on_c, 6, 59, 95
5, 137280, Note_on_c, 6, 56, 95
5, 137280, Note_on_c, 6, 51, 95
5, 137280, Note_on_c, 6, 44, 95
5, 138240, Note_off_c, 6, 68, 95
5, 138240, Note_off_c, 6, 63, 95
5, 138240, Note_off_c, 6, 59, 95
5, 138240, Note_off_c, 6, 56, 95
5, 138240, Note_off_c, 6, 51, 95
5, 138240, Note_off_c, 6, 44, 95
5, 138240, End_track
6, 0, Start_track
6, 0, Pitch_bend_c, 8, 8192
6, 0, Control_c, 8, 7, 127
6, 0, Control_c, 8, 10, 64
6, 0, Control_c, 8, 93, 0
6, 0, Control_c, 8, 91, 0
6, 0, Control_c, 8, 95, 0
6, 0, Control_c, 8, 92, 0
6, 0, Control_c, 8, 11, 127
6, 0, Program_c, 8, 30
6, 0, Control_c, 10, 7, 127
6, 0, Control_c, 10, 10, 64
6, 0, Control_c, 10, 93, 0
6, 0, Control_c, 10, 91, 0
6, 0, Control_c, 10, 95, 0
6, 0, Control_c, 10, 92, 0
6, 0, Control_c, 10, 11, 127
6, 0, Program_c, 10, 30
6, 61440, Note_on_c, 8, 73, 95
6, 64320, Note_off_c, 8, 73, 95
6, 64320, Note_on_c, 8, 71, 95
6, 64800, Note_off_c, 8, 71, 95
6, 64800, Note_on_c, 8, 70, 95
6, 65280, Note_off_c, 8, 70, 95
6, 65280, Note_on_c, 8, 68, 95
6, 68160, Note_off_c, 8, 68, 95
6, 68160, Note_on_c, 8, 66, 95
6, 68400, Note_off_c, 8, 66, 95
6, 68400, Note_on_c, 8, 68, 95
6, 68640, Note_off_c, 8, 68, 95
6, 68640, Note_on_c, 8, 66, 95
6, 68880, Note_off_c, 8, 66, 95
6, 68880, Note_on_c, 8, 64, 95
6, 69120, Note_off_c, 8, 64, 95
6, 69120, Note_on_c, 8, 61, 95
6, 71040, Note_off_c, 8, 61, 95
6, 71040, Note_on_c, 8, 66, 95
6, 71520, Note_off_c, 8, 66, 95
6, 71520, Note_on_c, 8, 68, 95
6, 72000, Note_off_c, 8, 68, 95
6, 72000, Note_on_c, 8, 66, 95
6, 72480, Note_off_c, 8, 66, 95
6, 72480, Note_on_c, 8, 64, 95
6, 72960, Note_off_c, 8, 64, 95
6, 72960, Note_on_c, 8, 61, 95
6, 76800, Note_off_c, 8, 61, 95
6, 76800, Note_on_c, 8, 73, 95
6, 77040, Note_off_c, 8, 73, 95
6, 77040, Note_on_c, 8, 73, 70
6, 77280, Note_off_c, 8, 73, 70
6, 77280, Note_on_c, 8, 73, 70
6, 77520, Note_off_c, 8, 73, 70
6, 77520, Note_on_c, 8, 73, 70
6, 77760, Note_off_c, 8, 73, 70
6, 77760, Note_on_c, 8, 73, 70
6, 78000, Note_off_c, 8, 73, 70
6, 78000, Note_on_c, 8, 73, 70
6, 78240, Note_off_c, 8, 73, 70
6, 78240, Note_on_c, 8, 73, 70
6, 78480, Note_off_c, 8, 73, 70
6, 78480, Note_on_c, 8, 73, 70
6, 78720, Note_off_c, 8, 73, 70
6, 78720, Note_on_c, 8, 73, 70
6, 78960, Note_off_c, 8, 73, 70
6, 78960, Note_on_c, 8, 73, 70
6, 79200, Note_off_c, 8, 73, 70
6, 79200, Note_on_c, 8, 73, 70
6, 79440, Note_off_c, 8, 73, 70
6, 79440, Note_on_c, 8, 73, 70
6, 79680, Note_off_c, 8, 73, 70
6, 79680, Note_on_c, 8, 73, 70
6, 79920, Note_off_c, 8, 73, 70
6, 79920, Note_on_c, 8, 73, 70
6, 80160, Note_off_c, 8, 73, 70
6, 80160, Note_on_c, 8, 73, 70
6, 80400, Note_off_c, 8, 73, 70
6, 80400, Note_on_c, 8, 73, 70
6, 80640, Note_off_c, 8, 73, 70
6, 80640, Note_on_c, 8, 68, 70
6, 80880, Note_off_c, 8, 68, 70
6, 80880, Note_on_c, 8, 68, 70
6, 81120, Note_off_c, 8, 68, 70
6, 81120, Note_on_c, 8, 68, 70
6, 81360, Note_off_c, 8, 68, 70
6, 81360, Note_on_c, 8, 68, 70
6, 81600, Note_off_c, 8, 68, 70
6, 81600, Note_on_c, 8, 68, 70
6, 81840, Note_off_c, 8, 68, 70
6, 81840, Note_on_c, 8, 68, 70
6, 82080, Note_off_c, 8, 68, 70
6, 82080, Note_on_c, 8, 68, 70
6, 82320, Note_off_c, 8, 68, 70
6, 82320, Note_on_c, 8, 68, 70
6, 82560, Note_off_c, 8, 68, 70
6, 82560, Note_on_c, 8, 68, 70
6, 82800, Note_off_c, 8, 68, 70
6, 82800, Note_on_c, 8, 68, 70
6, 83040, Note_off_c, 8, 68, 70
6, 83040, Note_on_c, 8, 68, 70
6, 83280, Note_off_c, 8, 68, 70
6, 83280, Note_on_c, 8, 68, 70
6, 83520, Note_off_c, 8, 68, 70
6, 83520, Note_on_c, 8, 68, 70
6, 83760, Note_off_c, 8, 68, 70
6, 83760, Note_on_c, 8, 68, 70
6, 84000, Note_off_c, 8, 68, 70
6, 84000, Note_on_c, 8, 68, 70
6, 84240, Note_off_c, 8, 68, 70
6, 84240, Note_on_c, 8, 68, 70
6, 84480, Note_off_c, 8, 68, 70
6, 84480, Note_on_c, 8, 66, 95
6, 84720, Note_off_c, 8, 66, 95
6, 84720, Note_on_c, 8, 66, 70
6, 84960, Note_off_c, 8, 66, 70
6, 84960, Note_on_c, 8, 66, 70
6, 85200, Note_off_c, 8, 66, 70
6, 85200, Note_on_c, 8, 66, 70
6, 85440, Note_off_c, 8, 66, 70
6, 85440, Note_on_c, 8, 66, 70
6, 85680, Note_off_c, 8, 66, 70
6, 85680, Note_on_c, 8, 66, 70
6, 85920, Note_off_c, 8, 66, 70
6, 85920, Note_on_c, 8, 66, 70
6, 86160, Note_off_c, 8, 66, 70
6, 86160, Note_on_c, 8, 66, 70
6, 86400, Note_off_c, 8, 66, 70
6, 86400, Note_on_c, 8, 66, 70
6, 86640, Note_off_c, 8, 66, 70
6, 86640, Note_on_c, 8, 66, 70
6, 86880, Note_off_c, 8, 66, 70
6, 86880, Note_on_c, 8, 66, 70
6, 87120, Note_off_c, 8, 66, 70
6, 87120, Note_on_c, 8, 66, 70
6, 87360, Note_off_c, 8, 66, 70
6, 87360, Note_on_c, 8, 66, 70
6, 87600, Note_off_c, 8, 66, 70
6, 87600, Note_on_c, 8, 66, 70
6, 87840, Note_off_c, 8, 66, 70
6, 87840, Note_on_c, 8, 66, 70
6, 88080, Note_off_c, 8, 66, 70
6, 88080, Note_on_c, 8, 66, 70
6, 88320, Note_off_c, 8, 66, 70
6, 88320, Note_on_c, 8, 68, 70
6, 88560, Note_off_c, 8, 68, 70
6, 88560, Note_on_c, 8, 68, 70
6, 88800, Note_off_c, 8, 68, 70
6, 88800, Note_on_c, 8, 68, 70
6, 89040, Note_off_c, 8, 68, 70
6, 89040, Note_on_c, 8, 68, 70
6, 89280, Note_off_c, 8, 68, 70
6, 89280, Note_on_c, 8, 68, 70
6, 89520, Note_off_c, 8, 68, 70
6, 89520, Note_on_c, 8, 68, 70
6, 89760, Note_off_c, 8, 68, 70
6, 89760, Note_on_c, 8, 68, 70
6, 90000, Note_off_c, 8, 68, 70
6, 90000, Note_on_c, 8, 68, 70
6, 90240, Note_off_c, 8, 68, 70
6, 90240, Note_on_c, 8, 68, 70
6, 90480, Note_off_c, 8, 68, 70
6, 90480, Note_on_c, 8, 68, 70
6, 90720, Note_off_c, 8, 68, 70
6, 90720, Note_on_c, 8, 68, 70
6, 90960, Note_off_c, 8, 68, 70
6, 90960, Note_on_c, 8, 68, 70
6, 91200, Note_off_c, 8, 68, 70
6, 91200, Note_on_c, 8, 68, 70
6, 91440, Note_off_c, 8, 68, 70
6, 91440, Note_on_c, 8, 68, 70
6, 91680, Note_off_c, 8, 68, 70
6, 91680, Note_on_c, 8, 68, 70
6, 91920, Note_off_c, 8, 68, 70
6, 91920, Note_on_c, 8, 68, 70
6, 92160, Note_off_c, 8, 68, 70
6, 92160, Note_on_c, 8, 73, 70
6, 92400, Note_off_c, 8, 73, 70
6, 92400, Note_on_c, 8, 73, 70
6, 92640, Note_off_c, 8, 73, 70
6, 92640, Note_on_c, 8, 73, 70
6, 92880, Note_off_c, 8, 73, 70
6, 92880, Note_on_c, 8, 73, 70
6, 93120, Note_off_c, 8, 73, 70
6, 93120, Note_on_c, 8, 73, 70
6, 93360, Note_off_c, 8, 73, 70
6, 93360, Note_on_c, 8, 73, 70
6, 93600, Note_off_c, 8, 73, 70
6, 93600, Note_on_c, 8, 73, 70
6, 93840, Note_off_c, 8, 73, 70
6, 93840, Note_on_c, 8, 73, 70
6, 94080, Note_off_c, 8, 73, 70
6, 94080, Note_on_c, 8, 73, 70
6, 94320, Note_off_c, 8, 73, 70
6, 94320, Note_on_c, 8, 73, 70
6, 94560, Note_off_c, 8, 73, 70
6, 94560, Note_on_c, 8, 73, 70
6, 94800, Note_off_c, 8, 73, 70
6, 94800, Note_on_c, 8, 73, 70
6, 95040, Note_off_c, 8, 73, 70
6, 95040, Note_on_c, 8, 73, 70
6, 95280, Note_off_c, 8, 73, 70
6, 95280, Note_on_c, 8, 73, 70
6, 95520, Note_off_c, 8, 73, 70
6, 95520, Note_on_c, 8, 73, 70
6, 95760, Note_off_c, 8, 73, 70
6, 95760, Note_on_c, 8, 73, 70
6, 96000, Note_off_c, 8, 73, 70
6, 96000, Note_on_c, 8, 68, 70
6, 96240, Note_off_c, 8, 68, 70
6, 96240, Note_on_c, 8, 68, 70
6, 96480, Note_off_c, 8, 68, 70
6, 96480, Note_on_c, 8, 68, 70
6, 96720, Note_off_c, 8, 68, 70
6, 96720, Note_on_c, 8, 68, 70
6, 96960, Note_off_c, 8, 68, 70
6, 96960, Note_on_c, 8, 68, 70
6, 97200, Note_off_c, 8, 68, 70
6, 97200, Note_on_c, 8, 68, 70
6, 97440, Note_off_c, 8, 68, 70
6, 97440, Note_on_c, 8, 68, 70
6, 97680, Note_off_c, 8, 68, 70
6, 97680, Note_on_c, 8, 68, 70
6, 97920, Note_off_c, 8, 68, 70
6, 97920, Note_on_c, 8, 68, 70
6, 98160, Note_off_c, 8, 68, 70
6, 98160, Note_on_c, 8, 68, 70
6, 98400, Note_off_c, 8, 68, 70
6, 98400, Note_on_c, 8, 68, 70
6, 98640, Note_off_c, 8, 68, 70
6, 98640, Note_on_c, 8, 68, 70
6, 98880, Note_off_c, 8, 68, 70
6, 98880, Note_on_c, 8, 68, 70
6, 99120, Note_off_c, 8, 68, 70
6, 99120, Note_on_c, 8, 68, 70
6, 99360, Note_off_c, 8, 68, 70
6, 99360, Note_on_c, 8, 68, 70
6, 99600, Note_off_c, 8, 68, 70
6, 99600, Note_on_c, 8, 68, 70
6, 99840, Note_off_c, 8, 68, 70
6, 99840, Note_on_c, 8, 66, 95
6, 100080, Note_off_c, 8, 66, 95
6, 100080, Note_on_c, 8, 66, 70
6, 100320, Note_off_c, 8, 66, 70
6, 100320, Note_on_c, 8, 66, 70
6, 100560, Note_off_c, 8, 66, 70
6, 100560, Note_on_c, 8, 66, 70
6, 100800, Note_off_c, 8, 66, 70
6, 100800, Note_on_c, 8, 66, 70
6, 101040, Note_off_c, 8, 66, 70
6, 101040, Note_on_c, 8, 66, 70
6, 101280, Note_off_c, 8, 66, 70
6, 101280, Note_on_c, 8, 66, 70
6, 101520, Note_off_c, 8, 66, 70
6, 101520, Note_on_c, 8, 66, 70
6, 101760, Note_off_c, 8, 66, 70
6, 101760, Note_on_c, 8, 66, 70
6, 102000, Note_off_c, 8, 66, 70
6, 102000, Note_on_c, 8, 66, 70
6, 102240, Note_off_c, 8, 66, 70
6, 102240, Note_on_c, 8, 66, 70
6, 102480, Note_off_c, 8, 66, 70
6, 102480, Note_on_c, 8, 66, 70
6, 102720, Note_off_c, 8, 66, 70
6, 102720, Note_on_c, 8, 66, 70
6, 102960, Note_off_c, 8, 66, 70
6, 102960, Note_on_c, 8, 66, 70
6, 103200, Note_off_c, 8, 66, 70
6, 103200, Note_on_c, 8, 66, 70
6, 103440, Note_off_c, 8, 66, 70
6, 103440, Note_on_c, 8, 66, 70
6, 103680, Note_off_c, 8, 66, 70
6, 103680, Note_on_c, 8, 68, 70
6, 103920, Note_off_c, 8, 68, 70
6, 103920, Note_on_c, 8, 68, 70
6, 104160, Note_off_c, 8, 68, 70
6, 104160, Note_on_c, 8, 68, 70
6, 104400, Note_off_c, 8, 68, 70
6, 104400, Note_on_c, 8, 68, 70
6, 104640, Note_off_c, 8, 68, 70
6, 104640, Note_on_c, 8, 68, 70
6, 104880, Note_off_c, 8, 68, 70
6, 104880, Note_on_c, 8, 68, 70
6, 105120, Note_off_c, 8, 68, 70
6, 105120, Note_on_c, 8, 68, 70
6, 105360, Note_off_c, 8, 68, 70
6, 105360, Note_on_c, 8, 68, 70
6, 105600, Note_off_c, 8, 68, 70
6, 105600, Note_on_c, 8, 68, 70
6, 105840, Note_off_c, 8, 68, 70
6, 105840, Note_on_c, 8, 68, 70
6, 106080, Note_off_c, 8, 68, 70
6, 106080, Note_on_c, 8, 68, 70
6, 106320, Note_off_c, 8, 68, 70
6, 106320, Note_on_c, 8, 68, 70
6, 106560, Note_off_c, 8, 68, 70
6, 106560, Note_on_c, 8, 68, 70
6, 106800, Note_off_c, 8, 68, 70
6, 106800, Note_on_c, 8, 68, 70
6, 107040, Note_off_c, 8, 68, 70
6, 107040, Note_on_c, 8, 68, 70
6, 107280, Note_off_c, 8, 68, 70
6, 107280, Note_on_c, 8, 68, 70
6, 107520, Note_off_c, 8, 68, 70
6, 107520, Note_on_c, 8, 73, 70
6, 107760, Note_off_c, 8, 73, 70
6, 107760, Note_on_c, 8, 73, 70
6, 108000, Note_off_c, 8, 73, 70
6, 108000, Note_on_c, 8, 73, 70
6, 108240, Note_off_c, 8, 73, 70
6, 108240, Note_on_c, 8, 73, 70
6, 108480, Note_off_c, 8, 73, 70
6, 108480, Note_on_c, 8, 73, 70
6, 108720, Note_off_c, 8, 73, 70
6, 108720, Note_on_c, 8, 73, 70
6, 108960, Note_off_c, 8, 73, 70
6, 108960, Note_on_c, 8, 73, 70
6, 109200, Note_off_c, 8, 73, 70
6, 109200, Note_on_c, 8, 73, 70
6, 109440, Note_off_c, 8, 73, 70
6, 109440, Note_on_c, 8, 73, 70
6, 109680, Note_off_c, 8, 73, 70
6, 109680, Note_on_c, 8, 73, 70
6, 109920, Note_off_c, 8, 73, 70
6, 109920, Note_on_c, 8, 73, 70
6, 110160, Note_off_c, 8, 73, 70
6, 110160, Note_on_c, 8, 73, 70
6, 110400, Note_off_c, 8, 73, 70
6, 110400, Note_on_c, 8, 73, 70
6, 110640, Note_off_c, 8, 73, 70
6, 110640, Note_on_c, 8, 73, 70
6, 110880, Note_off_c, 8, 73, 70
6, 110880, Note_on_c, 8, 73, 70
6, 111120, Note_off_c, 8, 73, 70
6, 111120, Note_on_c, 8, 73, 70
6, 111360, Note_off_c, 8, 73, 70
6, 111360, Note_on_c, 8, 68, 70
6, 111600, Note_off_c, 8, 68, 70
6, 111600, Note_on_c, 8, 68, 70
6, 111840, Note_off_c, 8, 68, 70
6, 111840, Note_on_c, 8, 68, 70
6, 112080, Note_off_c, 8, 68, 70
6, 112080, Note_on_c, 8, 68, 70
6, 112320, Note_off_c, 8, 68, 70
6, 112320, Note_on_c, 8, 68, 70
6, 112560, Note_off_c, 8, 68, 70
6, 112560, Note_on_c, 8, 68, 70
6, 112800, Note_off_c, 8, 68, 70
6, 112800, Note_on_c, 8, 68, 70
6, 113040, Note_off_c, 8, 68, 70
6, 113040, Note_on_c, 8, 68, 70
6, 113280, Note_off_c, 8, 68, 70
6, 113280, Note_on_c, 8, 68, 70
6, 113520, Note_off_c, 8, 68, 70
6, 113520, Note_on_c, 8, 68, 70
6, 113760, Note_off_c, 8, 68, 70
6, 113760, Note_on_c, 8, 68, 70
6, 114000, Note_off_c, 8, 68, 70
6, 114000, Note_on_c, 8, 68, 70
6, 114240, Note_off_c, 8, 68, 70
6, 114240, Note_on_c, 8, 68, 70
6, 114480, Note_off_c, 8, 68, 70
6, 114480, Note_on_c, 8, 68, 70
6, 114720, Note_off_c, 8, 68, 70
6, 114720, Note_on_c, 8, 68, 70
6, 114960, Note_off_c, 8, 68, 70
6, 114960, Note_on_c, 8, 68, 70
6, 115200, Note_off_c, 8, 68, 70
6, 115200, Note_on_c, 8, 66, 95
6, 115440, Note_off_c, 8, 66, 95
6, 115440, Note_on_c, 8, 66, 70
6, 115680, Note_off_c, 8, 66, 70
6, 115680, Note_on_c, 8, 66, 70
6, 115920, Note_off_c, 8, 66, 70
6, 115920, Note_on_c, 8, 66, 70
6, 116160, Note_off_c, 8, 66, 70
6, 116160, Note_on_c, 8, 66, 70
6, 116400, Note_off_c, 8, 66, 70
6, 116400, Note_on_c, 8, 66, 70
6, 116640, Note_off_c, 8, 66, 70
6, 116640, Note_on_c, 8, 66, 70
6, 116880, Note_off_c, 8, 66, 70
6, 116880, Note_on_c, 8, 66, 70
6, 117120, Note_off_c, 8, 66, 70
6, 117120, Note_on_c, 8, 66, 70
6, 117360, Note_off_c, 8, 66, 70
6, 117360, Note_on_c, 8, 66, 70
6, 117600, Note_off_c, 8, 66, 70
6, 117600, Note_on_c, 8, 66, 70
6, 117840, Note_off_c, 8, 66, 70
6, 117840, Note_on_c, 8, 66, 70
6, 118080, Note_off_c, 8, 66, 70
6, 118080, Note_on_c, 8, 66, 70
6, 118320, Note_off_c, 8, 66, 70
6, 118320, Note_on_c, 8, 66, 70
6, 118560, Note_off_c, 8, 66, 70
6, 118560, Note_on_c, 8, 66, 70
6, 118800, Note_off_c, 8, 66, 70
6, 118800, Note_on_c, 8, 66, 70
6, 119040, Note_off_c, 8, 66, 70
6, 119040, Note_on_c, 8, 68, 70
6, 119280, Note_off_c, 8, 68, 70
6, 119280, Note_on_c, 8, 68, 70
6, 119520, Note_off_c, 8, 68, 70
6, 119520, Note_on_c, 8, 68, 70
6, 119760, Note_off_c, 8, 68, 70
6, 119760, Note_on_c, 8, 68, 70
6, 120000, Note_off_c, 8, 68, 70
6, 120000, Note_on_c, 8, 68, 70
6, 120240, Note_off_c, 8, 68, 70
6, 120240, Note_on_c, 8, 68, 70
6, 120480, Note_off_c, 8, 68, 70
6, 120480, Note_on_c, 8, 68, 70
6, 120720, Note_off_c, 8, 68, 70
6, 120720, Note_on_c, 8, 68, 70
6, 120960, Note_off_c, 8, 68, 70
6, 120960, Note_on_c, 8, 68, 70
6, 121200, Note_off_c, 8, 68, 70
6, 121200, Note_on_c, 8, 68, 70
6, 121440, Note_off_c, 8, 68, 70
6, 121440, Note_on_c, 8, 68, 70
6, 121680, Note_off_c, 8, 68, 70
6, 121680, Note_on_c, 8, 68, 70
6, 121920, Note_off_c, 8, 68, 70
6, 121920, Note_on_c, 8, 68, 70
6, 122160, Note_off_c, 8, 68, 70
6, 122160, Note_on_c, 8, 68, 70
6, 122400, Note_off_c, 8, 68, 70
6, 122400, Note_on_c, 8, 68, 70
6, 122640, Note_off_c, 8, 68, 70
6, 122640, Note_on_c, 8, 68, 70
6, 122880, Note_off_c, 8, 68, 70
6, 122880, Note_on_c, 8, 73, 70
6, 123120, Note_off_c, 8, 73, 70
6, 123120, Note_on_c, 8, 73, 70
6, 123360, Note_off_c, 8, 73, 70
6, 123360, Note_on_c, 8, 73, 70
6, 123600, Note_off_c, 8, 73, 70
6, 123600, Note_on_c, 8, 73, 70
6, 123840, Note_off_c, 8, 73, 70
6, 123840, Note_on_c, 8, 73, 70
6, 124080, Note_off_c, 8, 73, 70
6, 124080, Note_on_c, 8, 73, 70
6, 124320, Note_off_c, 8, 73, 70
6, 124320, Note_on_c, 8, 73, 70
6, 124560, Note_off_c, 8, 73, 70
6, 124560, Note_on_c, 8, 73, 70
6, 124800, Note_off_c, 8, 73, 70
6, 124800, Note_on_c, 8, 73, 70
6, 125040, Note_off_c, 8, 73, 70
6, 125040, Note_on_c, 8, 73, 70
6, 125280, Note_off_c, 8, 73, 70
6, 125280, Note_on_c, 8, 73, 70
6, 125520, Note_off_c, 8, 73, 70
6, 125520, Note_on_c, 8, 73, 70
6, 125760, Note_off_c, 8, 73, 70
6, 125760, Note_on_c, 8, 73, 70
6, 126000, Note_off_c, 8, 73, 70
6, 126000, Note_on_c, 8, 73, 70
6, 126240, Note_off_c, 8, 73, 70
6, 126240, Note_on_c, 8, 73, 70
6, 126480, Note_off_c, 8, 73, 70
6, 126480, Note_on_c, 8, 73, 70
6, 126720, Note_off_c, 8, 73, 70
6, 126720, Note_on_c, 8, 68, 70
6, 126960, Note_off_c, 8, 68, 70
6, 126960, Note_on_c, 8, 68, 70
6, 127200, Note_off_c, 8, 68, 70
6, 127200, Note_on_c, 8, 68, 70
6, 127440, Note_off_c, 8, 68, 70
6, 127440, Note_on_c, 8, 68, 70
6, 127680, Note_off_c, 8, 68, 70
6, 127680, Note_on_c, 8, 68, 70
6, 127920, Note_off_c, 8, 68, 70
6, 127920, Note_on_c, 8, 68, 70
6, 128160, Note_off_c, 8, 68, 70
6, 128160, Note_on_c, 8, 68, 70
6, 128400, Note_off_c, 8, 68, 70
6, 128400, Note_on_c, 8, 68, 70
6, 128640, Note_off_c, 8, 68, 70
6, 128640, Note_on_c, 8, 68, 70
6, 128880, Note_off_c, 8, 68, 70
6, 128880, Note_on_c, 8, 68, 70
6, 129120, Note_off_c, 8, 68, 70
6, 129120, Note_on_c, 8, 68, 70
6, 129360, Note_off_c, 8, 68, 70
6, 129360, Note_on_c, 8, 68, 70
6, 129600, Note_off_c, 8, 68, 70
6, 129600, Note_on_c, 8, 68, 70
6, 129840, Note_off_c, 8, 68, 70
6, 129840, Note_on_c, 8, 68, 70
6, 130080, Note_off_c, 8, 68, 70
6, 130080, Note_on_c, 8, 68, 70
6, 130320, Note_off_c, 8, 68, 70
6, 130320, Note_on_c, 8, 68, 70
6, 130560, Note_off_c, 8, 68, 70
6, 130560, Note_on_c, 8, 66, 95
6, 130800, Note_off_c, 8, 66, 95
6, 130800, Note_on_c, 8, 66, 70
6, 131040, Note_off_c, 8, 66, 70
6, 131040, Note_on_c, 8, 66, 70
6, 131280, Note_off_c, 8, 66, 70
6, 131280, Note_on_c, 8, 66, 70
6, 131520, Note_off_c, 8, 66, 70
6, 131520, Note_on_c, 8, 66, 70
6, 131760, Note_off_c, 8, 66, 70
6, 131760, Note_on_c, 8, 66, 70
6, 132000, Note_off_c, 8, 66, 70
6, 132000, Note_on_c, 8, 66, 70
6, 132240, Note_off_c, 8, 66, 70
6, 132240, Note_on_c, 8, 66, 70
6, 132480, Note_off_c, 8, 66, 70
6, 132480, Note_on_c, 8, 66, 70
6, 132720, Note_off_c, 8, 66, 70
6, 132720, Note_on_c, 8, 66, 70
6, 132960, Note_off_c, 8, 66, 70
6, 132960, Note_on_c, 8, 66, 70
6, 133200, Note_off_c, 8, 66, 70
6, 133200, Note_on_c, 8, 66, 70
6, 133440, Note_off_c, 8, 66, 70
6, 133440, Note_on_c, 8, 66, 70
6, 133680, Note_off_c, 8, 66, 70
6, 133680, Note_on_c, 8, 66, 70
6, 133920, Note_off_c, 8, 66, 70
6, 133920, Note_on_c, 8, 66, 70
6, 134160, Note_off_c, 8, 66, 70
6, 134160, Note_on_c, 8, 66, 70
6, 134400, Note_off_c, 8, 66, 70
6, 134400, Note_on_c, 8, 68, 70
6, 134640, Note_off_c, 8, 68, 70
6, 134640, Note_on_c, 8, 68, 70
6, 134880, Note_off_c, 8, 68, 70
6, 134880, Note_on_c, 8, 68, 70
6, 135120, Note_off_c, 8, 68, 70
6, 135120, Note_on_c, 8, 68, 70
6, 135360, Note_off_c, 8, 68, 70
6, 135360, Note_on_c, 8, 68, 70
6, 135600, Note_off_c, 8, 68, 70
6, 135600, Note_on_c, 8, 68, 70
6, 135840, Note_off_c, 8, 68, 70
6, 135840, Note_on_c, 8, 68, 70
6, 136080, Note_off_c, 8, 68, 70
6, 136080, Note_on_c, 8, 68, 70
6, 136320, Note_off_c, 8, 68, 70
6, 136320, Note_on_c, 8, 68, 70
6, 136560, Note_off_c, 8, 68, 70
6, 136560, Note_on_c, 8, 68, 70
6, 136800, Note_off_c, 8, 68, 70
6, 136800, Note_on_c, 8, 68, 70
6, 137040, Note_off_c, 8, 68, 70
6, 137040, Note_on_c, 8, 68, 70
6, 137280, Note_off_c, 8, 68, 70
6, 137280, Note_on_c, 8, 68, 70
6, 137520, Note_off_c, 8, 68, 70
6, 137520, Note_on_c, 8, 68, 70
6, 137760, Note_off_c, 8, 68, 70
6, 137760, Note_on_c, 8, 68, 70
6, 138000, Note_off_c, 8, 68, 70
6, 138000, Note_on_c, 8, 68, 70
6, 138240, Note_off_c, 8, 68, 70
6, 138240, End_track
7, 0, Start_track
7, 0, Pitch_bend_c, 11, 8192
7, 0, Control_c, 11, 7, 85
7, 0, Control_c, 11, 10, 64
7, 0, Control_c, 11, 93, 0
7, 0, Control_c, 11, 91, 0
7, 0, Control_c, 11, 95, 0
7, 0, Control_c, 11, 92, 0
7, 0, Control_c, 11, 11, 127
7, 0, Program_c, 11, 50
7, 0, Control_c, 12, 7, 85
7, 0, Control_c, 12, 10, 64
7, 0, Control_c, 12, 93, 0
7, 0, Control_c, 12, 91, 0
7, 0, Control_c, 12, 95, 0
7, 0, Control_c, 12, 92, 0
7, 0, Control_c, 12, 11, 127
7, 0, Program_c, 12, 50
7, 46080, Note_on_c, 11, 49, 95
7, 46080, Note_on_c, 11, 56, 95
7, 46080, Note_on_c, 11, 61, 95
7, 46080, Note_on_c, 11, 64, 95
7, 46080, Note_on_c, 11, 68, 95
7, 49920, Note_off_c, 11, 49, 95
7, 49920, Note_off_c, 11, 56, 95
7, 49920, Note_off_c, 11, 61, 95
7, 49920, Note_off_c, 11, 64, 95
7, 49920, Note_off_c, 11, 68, 95
7, 49920, Note_on_c, 11, 44, 95
7, 49920, Note_on_c, 11, 51, 95
7, 49920, Note_on_c, 11, 56, 95
7, 49920, Note_on_c, 11, 59, 95
7, 49920, Note_on_c, 11, 63, 95
7, 49920, Note_on_c, 11, 68, 95
7, 53760, Note_off_c, 11, 44, 95
7, 53760, Note_off_c, 11, 51, 95
7, 53760, Note_off_c, 11, 56, 95
7, 53760, Note_off_c, 11, 59, 95
7, 53760, Note_off_c, 11, 63, 95
7, 53760, Note_off_c, 11, 68, 95
7, 53760, Note_on_c, 11, 42, 95
7, 53760, Note_on_c, 11, 49, 95
7, 53760, Note_on_c, 11, 54, 95
7, 53760, Note_on_c, 11, 61, 95
7, 53760, Note_on_c, 11, 57, 95
7, 53760, Note_on_c, 11, 66, 95
7, 57600, Note_off_c, 11, 42, 95
7, 57600, Note_off_c, 11, 49, 95
7, 57600, Note_off_c, 11, 54, 95
7, 57600, Note_off_c, 11, 61, 95
7, 57600, Note_off_c, 11, 57, 95
7, 57600, Note_off_c, 11, 66, 95
7, 57600, Note_on_c, 11, 54, 95
7, 57600, Note_on_c, 11, 49, 95
7, 57600, Note_on_c, 11, 66, 95
7, 57600, Note_on_c, 11, 61, 95
7, 57600, Note_on_c, 11, 57, 95
7, 57600, Note_on_c, 11, 42, 95
7, 61440, Note_off_c, 11, 54, 95
7, 61440, Note_off_c, 11, 49, 95
7, 61440, Note_off_c, 11, 66, 95
7, 61440, Note_off_c, 11, 61, 95
7, 61440, Note_off_c, 11, 57, 95
7, 61440, Note_off_c, 11, 42, 95
7, 61440, Note_on_c, 11, 49, 95
7, 61440, Note_on_c, 11, 56, 95
7, 61440, Note_on_c, 11, 61, 95
7, 61440, Note_on_c, 11, 64, 95
7, 61440, Note_on_c, 11, 68, 95
7, 65280, Note_off_c, 11, 49, 95
7, 65280, Note_off_c, 11, 56, 95
7, 65280, Note_off_c, 11, 61, 95
7, 65280, Note_off_c, 11, 64, 95
7, 65280, Note_off_c, 11, 68, 95
7, 65280, Note_on_c, 11, 44, 95
7, 65280, Note_on_c, 11, 51, 95
7, 65280, Note_on_c, 11, 56, 95
7, 65280, Note_on_c, 11, 59, 95
7, 65280, Note_on_c, 11, 63, 95
7, 65280, Note_on_c, 11, 68, 95
7, 69120, Note_off_c, 11, 44, 95
7, 69120, Note_off_c, 11, 51, 95
7, 69120, Note_off_c, 11, 56, 95
7, 69120, Note_off_c, 11, 59, 95
7, 69120, Note_off_c, 11, 63, 95
7, 69120, Note_off_c, 11, 68, 95
7, 69120, Note_on_c, 11, 42, 95
7, 69120, Note_on_c, 11, 49, 95
7, 69120, Note_on_c, 11, 54, 95
7, 69120, Note_on_c, 11, 61, 95
7, 69120, Note_on_c, 11, 57, 95
7, 69120, Note_on_c, 11, 66, 95
7, 72960, Note_off_c, 11, 42, 95
7, 72960, Note_off_c, 11, 49, 95
7, 72960, Note_off_c, 11, 54, 95
7, 72960, Note_off_c, 11, 61, 95
7, 72960, Note_off_c, 11, 57, 95
7, 72960, Note_off_c, 11, 66, 95
7, 72960, Note_on_c, 11, 54, 95
7, 72960, Note_on_c, 11, 49, 95
7, 72960, Note_on_c, 11, 66, 95
7, 72960, Note_on_c, 11, 61, 95
7, 72960, Note_on_c, 11, 57, 95
7, 72960, Note_on_c, 11, 42, 95
7, 76800, Note_off_c, 11, 54, 95
7, 76800, Note_off_c, 11, 49, 95
7, 76800, Note_off_c, 11, 66, 95
7, 76800, Note_off_c, 11, 61, 95
7, 76800, Note_off_c, 11, 57, 95
7, 76800, Note_off_c, 11, 42, 95
7, 76800, Note_on_c, 11, 49, 95
7, 76800, Note_on_c, 11, 56, 95
7, 76800, Note_on_c, 11, 61, 95
7, 76800, Note_on_c, 11, 64, 95
7, 76800, Note_on_c, 11, 68, 95
7, 80640, Note_off_c, 11, 49, 95
7, 80640, Note_off_c, 11, 56, 95
7, 80640, Note_off_c, 11, 61, 95
7, 80640, Note_off_c, 11, 64, 95
7, 80640, Note_off_c, 11, 68, 95
7, 80640, Note_on_c, 11, 44, 95
7, 80640, Note_on_c, 11, 51, 95
7, 80640, Note_on_c, 11, 56, 95
7, 80640, Note_on_c, 11, 59, 95
7, 80640, Note_on_c, 11, 63, 95
7, 80640, Note_on_c, 11, 68, 95
7, 84480, Note_off_c, 11, 44, 95
7, 84480, Note_off_c, 11, 51, 95
7, 84480, Note_off_c, 11, 56, 95
7, 84480, Note_off_c, 11, 59, 95
7, 84480, Note_off_c, 11, 63, 95
7, 84480, Note_off_c, 11, 68, 95
7, 84480, Note_on_c, 11, 42, 95
7, 84480, Note_on_c, 11, 49, 95
7, 84480, Note_on_c, 11, 54, 95
7, 84480, Note_on_c, 11, 61, 95
7, 84480, Note_on_c, 11, 66, 95
7, 84480, Note_on_c, 11, 58, 95
7, 88320, Note_off_c, 11, 42, 95
7, 88320, Note_off_c, 11, 49, 95
7, 88320, Note_off_c, 11, 54, 95
7, 88320, Note_off_c, 11, 61, 95
7, 88320, Note_off_c, 11, 66, 95
7, 88320, Note_off_c, 11, 58, 95
7, 88320, Note_on_c, 11, 44, 95
7, 88320, Note_on_c, 11, 51, 95
7, 88320, Note_on_c, 11, 56, 95
7, 88320, Note_on_c, 11, 59, 95
7, 88320, Note_on_c, 11, 63, 95
7, 88320, Note_on_c, 11, 68, 95
7, 92160, Note_off_c, 11, 44, 95
7, 92160, Note_off_c, 11, 51, 95
7, 92160, Note_off_c, 11, 56, 95
7, 92160, Note_off_c, 11, 59, 95
7, 92160, Note_off_c, 11, 63, 95
7, 92160, Note_off_c, 11, 68, 95
7, 92160, Note_on_c, 11, 49, 95
7, 92160, Note_on_c, 11, 56, 95
7, 92160, Note_on_c, 11, 61, 95
7, 92160, Note_on_c, 11, 64, 95
7, 92160, Note_on_c, 11, 68, 95
7, 96000, Note_off_c, 11, 49, 95
7, 96000, Note_off_c, 11, 56, 95
7, 96000, Note_off_c, 11, 61, 95
7, 96000, Note_off_c, 11, 64, 95
7, 96000, Note_off_c, 11, 68, 95
7, 96000, Note_on_c, 11, 44, 95
7, 96000, Note_on_c, 11, 51, 95
7, 96000, Note_on_c, 11, 56, 95
7, 96000, Note_on_c, 11, 59, 95
7, 96000, Note_on_c, 11, 63, 95
7, 96000, Note_on_c, 11, 68, 95
7, 99840, Note_off_c, 11, 44, 95
7, 99840, Note_off_c, 11, 51, 95
7, 99840, Note_off_c, 11, 56, 95
7, 99840, Note_off_c, 11, 59, 95
7, 99840, Note_off_c, 11, 63, 95
7, 99840, Note_off_c, 11, 68, 95
7, 99840, Note_on_c, 11, 42, 95
7, 99840, Note_on_c, 11, 49, 95
7, 99840, Note_on_c, 11, 54, 95
7, 99840, Note_on_c, 11, 61, 95
7, 99840, Note_on_c, 11, 66, 95
7, 99840, Note_on_c, 11, 57, 95
7, 103680, Note_off_c, 11, 42, 95
7, 103680, Note_off_c, 11, 49, 95
7, 103680, Note_off_c, 11, 54, 95
7, 103680, Note_off_c, 11, 61, 95
7, 103680, Note_off_c, 11, 66, 95
7, 103680, Note_off_c, 11, 57, 95
7, 103680, Note_on_c, 11, 44, 95
7, 103680, Note_on_c, 11, 51, 95
7, 103680, Note_on_c, 11, 56, 95
7, 103680, Note_on_c, 11, 59, 95
7, 103680, Note_on_c, 11, 63, 95
7, 103680, Note_on_c, 11, 68, 95
7, 107520, Note_off_c, 11, 44, 95
7, 107520, Note_off_c, 11, 51, 95
7, 107520, Note_off_c, 11, 56, 95
7, 107520, Note_off_c, 11, 59, 95
7, 107520, Note_off_c, 11, 63, 95
7, 107520, Note_off_c, 11, 68, 95
7, 107520, Note_on_c, 11, 49, 95
7, 107520, Note_on_c, 11, 56, 95
7, 107520, Note_on_c, 11, 61, 95
7, 107520, Note_on_c, 11, 64, 95
7, 107520, Note_on_c, 11, 68, 95
7, 111360, Note_off_c, 11, 49, 95
7, 111360, Note_off_c, 11, 56, 95
7, 111360, Note_off_c, 11, 61, 95
7, 111360, Note_off_c, 11, 64, 95
7, 111360, Note_off_c, 11, 68, 95
7, 111360, Note_on_c, 11, 44, 95
7, 111360, Note_on_c, 11, 51, 95
7, 111360, Note_on_c, 11, 56, 95
7, 111360, Note_on_c, 11, 59, 95
7, 111360, Note_on_c, 11, 63, 95
7, 111360, Note_on_c, 11, 68, 95
7, 115200, Note_off_c, 11, 44, 95
7, 115200, Note_off_c, 11, 51, 95
7, 115200, Note_off_c, 11, 56, 95
7, 115200, Note_off_c, 11, 59, 95
7, 115200, Note_off_c, 11, 63, 95
7, 115200, Note_off_c, 11, 68, 95
7, 115200, Note_on_c, 11, 42, 95
7, 115200, Note_on_c, 11, 49, 95
7, 115200, Note_on_c, 11, 54, 95
7, 115200, Note_on_c, 11, 61, 95
7, 115200, Note_on_c, 11, 66, 95
7, 115200, Note_on_c, 11, 58, 95
7, 119040, Note_off_c, 11, 42, 95
7, 119040, Note_off_c, 11, 49, 95
7, 119040, Note_off_c, 11, 54, 95
7, 119040, Note_off_c, 11, 61, 95
7, 119040, Note_off_c, 11, 66, 95
7, 119040, Note_off_c, 11, 58, 95
7, 119040, Note_on_c, 11, 44, 95
7, 119040, Note_on_c, 11, 51, 95
7, 119040, Note_on_c, 11, 56, 95
7, 119040, Note_on_c, 11, 59, 95
7, 119040, Note_on_c, 11, 63, 95
7, 119040, Note_on_c, 11, 68, 95
7, 122880, Note_off_c, 11, 44, 95
7, 122880, Note_off_c, 11, 51, 95
7, 122880, Note_off_c, 11, 56, 95
7, 122880, Note_off_c, 11, 59, 95
7, 122880, Note_off_c, 11, 63, 95
7, 122880, Note_off_c, 11, 68, 95
7, 122880, Note_on_c, 11, 49, 95
7, 122880, Note_on_c, 11, 56, 95
7, 122880, Note_on_c, 11, 61, 95
7, 122880, Note_on_c, 11, 64, 95
7, 122880, Note_on_c, 11, 68, 95
7, 126720, Note_off_c, 11, 49, 95
7, 126720, Note_off_c, 11, 56, 95
7, 126720, Note_off_c, 11, 61, 95
7, 126720, Note_off_c, 11, 64, 95
7, 126720, Note_off_c, 11, 68, 95
7, 126720, Note_on_c, 11, 44, 95
7, 126720, Note_on_c, 11, 51, 95
7, 126720, Note_on_c, 11, 56, 95
7, 126720, Note_on_c, 11, 59, 95
7, 126720, Note_on_c, 11, 63, 95
7, 126720, Note_on_c, 11, 68, 95
7, 130560, Note_off_c, 11, 44, 95
7, 130560, Note_off_c, 11, 51, 95
7, 130560, Note_off_c, 11, 56, 95
7, 130560, Note_off_c, 11, 59, 95
7, 130560, Note_off_c, 11, 63, 95
7, 130560, Note_off_c, 11, 68, 95
7, 130560, Note_on_c, 11, 42, 95
7, 130560, Note_on_c, 11, 49, 95
7, 130560, Note_on_c, 11, 54, 95
7, 130560, Note_on_c, 11, 61, 95
7, 130560, Note_on_c, 11, 66, 95
7, 130560, Note_on_c, 11, 57, 95
7, 134400, Note_off_c, 11, 42, 95
7, 134400, Note_off_c, 11, 49, 95
7, 134400, Note_off_c, 11, 54, 95
7, 134400, Note_off_c, 11, 61, 95
7, 134400, Note_off_c, 11, 66, 95
7, 134400, Note_off_c, 11, 57, 95
7, 134400, Note_on_c, 11, 44, 95
7, 134400, Note_on_c, 11, 51, 95
7, 134400, Note_on_c, 11, 56, 95
7, 134400, Note_on_c, 11, 59, 95
7, 134400, Note_on_c, 11, 63, 95
7, 134400, Note_on_c, 11, 68, 95
7, 138240, Note_off_c, 11, 44, 95
7, 138240, Note_off_c, 11, 51, 95
7, 138240, Note_off_c, 11, 56, 95
7, 138240, Note_off_c, 11, 59, 95
7, 138240, Note_off_c, 11, 63, 95
7, 138240, Note_off_c, 11, 68, 95
7, 138240, End_track
8, 0, Start_track
8, 0, Pitch_bend_c, 9, 8192
8, 0, Control_c, 9, 7, 127
8, 0, Control_c, 9, 10, 64
8, 0, Control_c, 9, 93, 0
8, 0, Control_c, 9, 91, 0
8, 0, Control_c, 9, 95, 0
8, 0, Control_c, 9, 92, 0
8, 0, Control_c, 9, 11, 127
8, 0, Program_c, 9, 0
8, 76800, Note_on_c, 9, 57, 95
8, 76800, Note_on_c, 9, 35, 95
8, 76800, Note_on_c, 9, 40, 95
8, 77280, Note_off_c, 9, 57, 95
8, 77280, Note_off_c, 9, 35, 95
8, 77280, Note_off_c, 9, 40, 95
8, 77280, Note_on_c, 9, 35, 95
8, 77280, Note_on_c, 9, 42, 95
8, 77520, Note_off_c, 9, 35, 95
8, 77520, Note_off_c, 9, 42, 95
8, 77520, Note_on_c, 9, 42, 95
8, 77760, Note_off_c, 9, 42, 95
8, 77760, Note_on_c, 9, 35, 95
8, 77760, Note_on_c, 9, 42, 95
8, 77760, Note_on_c, 9, 41, 95
8, 78000, Note_off_c, 9, 35, 95
8, 78000, Note_off_c, 9, 42, 95
8, 78000, Note_off_c, 9, 41, 95
8, 78000, Note_on_c, 9, 42, 95
8, 78240, Note_off_c, 9, 42, 95
8, 78240, Note_on_c, 9, 35, 95
8, 78240, Note_on_c, 9, 42, 95
8, 78240, Note_on_c, 9, 43, 95
8, 78480, Note_off_c, 9, 35, 95
8, 78480, Note_off_c, 9, 42, 95
8, 78480, Note_off_c, 9, 43, 95
8, 78480, Note_on_c, 9, 42, 95
8, 78720, Note_off_c, 9, 42, 95
8, 78720, Note_on_c, 9, 35, 95
8, 78720, Note_on_c, 9, 44, 95
8, 78720, Note_on_c, 9, 41, 95
8, 78960, Note_off_c, 9, 35, 95
8, 78960, Note_off_c, 9, 44, 95
8, 78960, Note_off_c, 9, 41, 95
8, 78960, Note_on_c, 9, 44, 95
8, 79200, Note_off_c, 9, 44, 95
8, 79200, Note_on_c, 9, 35, 95
8, 79200, Note_on_c, 9, 44, 95
8, 79440, Note_off_c, 9, 35, 95
8, 79440, Note_off_c, 9, 44, 95
8, 79440, Note_on_c, 9, 44, 95
8, 79680, Note_off_c, 9, 44, 95
8, 79680, Note_on_c, 9, 35, 95
8, 79680, Note_on_c, 9, 42, 95
8, 79680, Note_on_c, 9, 49, 95
8, 79680, Note_on_c, 9, 40, 95
8, 79920, Note_off_c, 9, 35, 95
8, 79920, Note_off_c, 9, 42, 95
8, 79920, Note_off_c, 9, 49, 95
8, 79920, Note_off_c, 9, 40, 95
8, 79920, Note_on_c, 9, 42, 95
8, 80160, Note_off_c, 9, 42, 95
8, 80160, Note_on_c, 9, 35, 95
8, 80160, Note_on_c, 9, 42, 95
8, 80400, Note_off_c, 9, 35, 95
8, 80400, Note_off_c, 9, 42, 95
8, 80400, Note_on_c, 9, 42, 95
8, 80640, Note_off_c, 9, 42, 95
8, 80640, Note_on_c, 9, 57, 95
8, 80640, Note_on_c, 9, 35, 95
8, 80640, Note_on_c, 9, 40, 95
8, 81120, Note_off_c, 9, 57, 95
8, 81120, Note_off_c, 9, 35, 95
8, 81120, Note_off_c, 9, 40, 95
8, 81120, Note_on_c, 9, 35, 95
8, 81120, Note_on_c, 9, 42, 95
8, 81360, Note_off_c, 9, 35, 95
8, 81360, Note_off_c, 9, 42, 95
8, 81360, Note_on_c, 9, 42, 95
8, 81600, Note_off_c, 9, 42, 95
8, 81600, Note_on_c, 9, 35, 95
8, 81600, Note_on_c, 9, 42, 95
8, 81600, Note_on_c, 9, 41, 95
8, 81840, Note_off_c, 9, 35, 95
8, 81840, Note_off_c, 9, 42, 95
8, 81840, Note_off_c, 9, 41, 95
8, 81840, Note_on_c, 9, 42, 95
8, 82080, Note_off_c, 9, 42, 95
8, 82080, Note_on_c, 9, 35, 95
8, 82080, Note_on_c, 9, 42, 95
8, 82080, Note_on_c, 9, 43, 95
8, 82320, Note_off_c, 9, 35, 95
8, 82320, Note_off_c, 9, 42, 95
8, 82320, Note_off_c, 9, 43, 95
8, 82320, Note_on_c, 9, 42, 95
8, 82560, Note_off_c, 9, 42, 95
8, 82560, Note_on_c, 9, 35, 95
8, 82560, Note_on_c, 9, 44, 95
8, 82560, Note_on_c, 9, 41, 95
8, 82800, Note_off_c, 9, 35, 95
8, 82800, Note_off_c, 9, 44, 95
8, 82800, Note_off_c, 9, 41, 95
8, 82800, Note_on_c, 9, 44, 95
8, 83040, Note_off_c, 9, 44, 95
8, 83040, Note_on_c, 9, 35, 95
8, 83040, Note_on_c, 9, 44, 95
8, 83280, Note_off_c, 9, 35, 95
8, 83280, Note_off_c, 9, 44, 95
8, 83280, Note_on_c, 9, 44, 95
8, 83520, Note_off_c, 9, 44, 95
8, 83520, Note_on_c, 9, 35, 95
8, 83520, Note_on_c, 9, 42, 95
8, 83520, Note_on_c, 9, 49, 95
8, 83520, Note_on_c, 9, 40, 95
8, 83760, Note_off_c, 9, 35, 95
8, 83760, Note_off_c, 9, 42, 95
8, 83760, Note_off_c, 9, 49, 95
8, 83760, Note_off_c, 9, 40, 95
8, 83760, Note_on_c, 9, 42, 95
8, 84000, Note_off_c, 9, 42, 95
8, 84000, Note_on_c, 9, 35, 95
8, 84000, Note_on_c, 9, 42, 95
8, 84240, Note_off_c, 9, 35, 95
8, 84240, Note_off_c, 9, 42, 95
8, 84240, Note_on_c, 9, 42, 95
8, 84480, Note_off_c, 9, 42, 95
8, 84480, Note_on_c, 9, 57, 95
8, 84480, Note_on_c, 9, 35, 95
8, 84480, Note_on_c, 9, 40, 95
8, 84960, Note_off_c, 9, 57, 95
8, 84960, Note_off_c, 9, 35, 95
8, 84960, Note_off_c, 9, 40, 95
8, 84960, Note_on_c, 9, 35, 95
8, 84960, Note_on_c, 9, 42, 95
8, 85200, Note_off_c, 9, 35, 95
8, 85200, Note_off_c, 9, 42, 95
8, 85200, Note_on_c, 9, 42, 95
8, 85440, Note_off_c, 9, 42, 95
8, 85440, Note_on_c, 9, 35, 95
8, 85440, Note_on_c, 9, 42, 95
8, 85440, Note_on_c, 9, 41, 95
8, 85680, Note_off_c, 9, 35, 95
8, 85680, Note_off_c, 9, 42, 95
8, 85680, Note_off_c, 9, 41, 95
8, 85680, Note_on_c, 9, 42, 95
8, 85920, Note_off_c, 9, 42, 95
8, 85920, Note_on_c, 9, 35, 95
8, 85920, Note_on_c, 9, 42, 95
8, 85920, Note_on_c, 9, 40, 95
8, 86160, Note_off_c, 9, 35, 95
8, 86160, Note_off_c, 9, 42, 95
8, 86160, Note_off_c, 9, 40, 95
8, 86160, Note_on_c, 9, 42, 95
8, 86160, Note_on_c, 9, 40, 95
8, 86400, Note_off_c, 9, 42, 95
8, 86400, Note_off_c, 9, 40, 95
8, 86400, Note_on_c, 9, 35, 95
8, 86400, Note_on_c, 9, 44, 95
8, 86400, Note_on_c, 9, 41, 95
8, 86400, Note_on_c, 9, 49, 95
8, 86640, Note_off_c, 9, 35, 95
8, 86640, Note_off_c, 9, 44, 95
8, 86640, Note_off_c, 9, 41, 95
8, 86640, Note_off_c, 9, 49, 95
8, 86640, Note_on_c, 9, 44, 95
8, 86880, Note_off_c, 9, 44, 95
8, 86880, Note_on_c, 9, 35, 95
8, 86880, Note_on_c, 9, 44, 95
8, 87120, Note_off_c, 9, 35, 95
8, 87120, Note_off_c, 9, 44, 95
8, 87120, Note_on_c, 9, 44, 95
8, 87360, Note_off_c, 9, 44, 95
8, 87360, Note_on_c, 9, 35, 95
8, 87360, Note_on_c, 9, 41, 95
8, 87360, Note_on_c, 9, 57, 95
8, 87600, Note_off_c, 9, 35, 95
8, 87600, Note_off_c, 9, 41, 95
8, 87600, Note_off_c, 9, 57, 95
8, 87600, Note_on_c, 9, 42, 95
8, 87840, Note_off_c, 9, 42, 95
8, 87840, Note_on_c, 9, 35, 95
8, 87840, Note_on_c, 9, 42, 95
8, 88080, Note_off_c, 9, 35, 95
8, 88080, Note_off_c, 9, 42, 95
8, 88080, Note_on_c, 9, 42, 95
8, 88320, Note_off_c, 9, 42, 95
8, 88320, Note_on_c, 9, 57, 95
8, 88320, Note_on_c, 9, 35, 95
8, 88320, Note_on_c, 9, 40, 95
8, 88800, Note_off_c, 9, 57, 95
8, 88800, Note_off_c, 9, 35, 95
8, 88800, Note_off_c, 9, 40, 95
8, 88800, Note_on_c, 9, 35, 95
8, 88800, Note_on_c, 9, 42, 95
8, 89040, Note_off_c, 9, 35, 95
8, 89040, Note_off_c, 9, 42, 95
8, 89040, Note_on_c, 9, 42, 95
8, 89280, Note_off_c, 9, 42, 95
8, 89280, Note_on_c, 9, 35, 95
8, 89280, Note_on_c, 9, 42, 95
8, 89280, Note_on_c, 9, 41, 95
8, 89520, Note_off_c, 9, 35, 95
8, 89520, Note_off_c, 9, 42, 95
8, 89520, Note_off_c, 9, 41, 95
8, 89520, Note_on_c, 9, 42, 95
8, 89760, Note_off_c, 9, 42, 95
8, 89760, Note_on_c, 9, 35, 95
8, 89760, Note_on_c, 9, 42, 95
8, 89760, Note_on_c, 9, 43, 95
8, 90000, Note_off_c, 9, 35, 95
8, 90000, Note_off_c, 9, 42, 95
8, 90000, Note_off_c, 9, 43, 95
8, 90000, Note_on_c, 9, 42, 95
8, 90240, Note_off_c, 9, 42, 95
8, 90240, Note_on_c, 9, 35, 95
8, 90240, Note_on_c, 9, 44, 95
8, 90240, Note_on_c, 9, 41, 95
8, 90480, Note_off_c, 9, 35, 95
8, 90480, Note_off_c, 9, 44, 95
8, 90480, Note_off_c, 9, 41, 95
8, 90480, Note_on_c, 9, 44, 95
8, 90720, Note_off_c, 9, 44, 95
8, 90720, Note_on_c, 9, 35, 95
8, 90720, Note_on_c, 9, 44, 95
8, 90960, Note_off_c, 9, 35, 95
8, 90960, Note_off_c, 9, 44, 95
8, 90960, Note_on_c, 9, 44, 95
8, 91200, Note_off_c, 9, 44, 95
8, 91200, Note_on_c, 9, 35, 95
8, 91200, Note_on_c, 9, 42, 95
8, 91200, Note_on_c, 9, 49, 95
8, 91200, Note_on_c, 9, 40, 95
8, 91440, Note_off_c, 9, 35, 95
8, 91440, Note_off_c, 9, 42, 95
8, 91440, Note_off_c, 9, 49, 95
8, 91440, Note_off_c, 9, 40, 95
8, 91440, Note_on_c, 9, 42, 95
8, 91680, Note_off_c, 9, 42, 95
8, 91680, Note_on_c, 9, 35, 95
8, 91680, Note_on_c, 9, 42, 95
8, 91920, Note_off_c, 9, 35, 95
8, 91920, Note_off_c, 9, 42, 95
8, 91920, Note_on_c, 9, 42, 95
8, 92160, Note_off_c, 9, 42, 95
8, 92160, Note_on_c, 9, 57, 95
8, 92160, Note_on_c, 9, 35, 95
8, 92160, Note_on_c, 9, 40, 95
8, 92640, Note_off_c, 9, 57, 95
8, 92640, Note_off_c, 9, 35, 95
8, 92640, Note_off_c, 9, 40, 95
8, 92640, Note_on_c, 9, 35, 95
8, 92640, Note_on_c, 9, 42, 95
8, 92880, Note_off_c, 9, 35, 95
8, 92880, Note_off_c, 9, 42, 95
8, 92880, Note_on_c, 9, 42, 95
8, 93120, Note_off_c, 9, 42, 95
8, 93120, Note_on_c, 9, 35, 95
8, 93120, Note_on_c, 9, 42, 95
8, 93120, Note_on_c, 9, 41, 95
8, 93360, Note_off_c, 9, 35, 95
8, 93360, Note_off_c, 9, 42, 95
8, 93360, Note_off_c, 9, 41, 95
8, 93360, Note_on_c, 9, 42, 95
8, 93600, Note_off_c, 9, 42, 95
8, 93600, Note_on_c, 9, 35, 95
8, 93600, Note_on_c, 9, 42, 95
8, 93600, Note_on_c, 9, 43, 95
8, 93840, Note_off_c, 9, 35, 95
8, 93840, Note_off_c, 9, 42, 95
8, 93840, Note_off_c, 9, 43, 95
8, 93840, Note_on_c, 9, 42, 95
8, 94080, Note_off_c, 9, 42, 95
8, 94080, Note_on_c, 9, 35, 95
8, 94080, Note_on_c, 9, 44, 95
8, 94080, Note_on_c, 9, 41, 95
8, 94320, Note_off_c, 9, 35, 95
8, 94320, Note_off_c, 9, 44, 95
8, 94320, Note_off_c, 9, 41, 95
8, 94320, Note_on_c, 9, 44, 95
8, 94560, Note_off_c, 9, 44, 95
8, 94560, Note_on_c, 9, 35, 95
8, 94560, Note_on_c, 9, 44, 95
8, 94800, Note_off_c, 9, 35, 95
8, 94800, Note_off_c, 9, 44, 95
8, 94800, Note_on_c, 9, 44, 95
8, 95040, Note_off_c, 9, 44, 95
8, 95040, Note_on_c, 9, 35, 95
8, 95040, Note_on_c, 9, 42, 95
8, 95040, Note_on_c, 9, 49, 95
8, 95040, Note_on_c, 9, 40, 95
8, 95280, Note_off_c, 9, 35, 95
8, 95280, Note_off_c, 9, 42, 95
8, 95280, Note_off_c, 9, 49, 95
8, 95280, Note_off_c, 9, 40, 95
8, 95280, Note_on_c, 9, 42, 95
8, 95520, Note_off_c, 9, 42, 95
8, 95520, Note_on_c, 9, 35, 95
8, 95520, Note_on_c, 9, 42, 95
8, 95760, Note_off_c, 9, 35, 95
8, 95760, Note_off_c, 9, 42, 95
8, 95760, Note_on_c, 9, 42, 95
8, 96000, Note_off_c, 9, 42, 95
8, 96000, Note_on_c, 9, 57, 95
8, 96000, Note_on_c, 9, 35, 95
8, 96000, Note_on_c, 9, 40, 95
8, 96480, Note_off_c, 9, 57, 95
8, 96480, Note_off_c, 9, 35, 95
8, 96480, Note_off_c, 9, 40, 95
8, 96480, Note_on_c, 9, 35, 95
8, 96480, Note_on_c, 9, 42, 95
8, 96720, Note_off_c, 9, 35, 95
8, 96720, Note_off_c, 9, 42, 95
8, 96720, Note_on_c, 9, 42, 95
8, 96960, Note_off_c, 9, 42, 95
8, 96960, Note_on_c, 9, 35, 95
8, 96960, Note_on_c, 9, 42, 95
8, 96960, Note_on_c, 9, 41, 95
8, 97200, Note_off_c, 9, 35, 95
8, 97200, Note_off_c, 9, 42, 95
8, 97200, Note_off_c, 9, 41, 95
8, 97200, Note_on_c, 9, 42, 95
8, 97440, Note_off_c, 9, 42, 95
8, 97440, Note_on_c, 9, 35, 95
8, 97440, Note_on_c, 9, 42, 95
8, 97440, Note_on_c, 9, 43, 95
8, 97680, Note_off_c, 9, 35, 95
8, 97680, Note_off_c, 9, 42, 95
8, 97680, Note_off_c, 9, 43, 95
8, 97680, Note_on_c, 9, 42, 95
8, 97920, Note_off_c, 9, 42, 95
8, 97920, Note_on_c, 9, 35, 95
8, 97920, Note_on_c, 9, 44, 95
8, 97920, Note_on_c, 9, 41, 95
8, 98160, Note_off_c, 9, 35, 95
8, 98160, Note_off_c, 9, 44, 95
8, 98160, Note_off_c, 9, 41, 95
8, 98160, Note_on_c, 9, 44, 95
8, 98400, Note_off_c, 9, 44, 95
8, 98400, Note_on_c, 9, 35, 95
8, 98400, Note_on_c, 9, 44, 95
8, 98640, Note_off_c, 9, 35, 95
8, 98640, Note_off_c, 9, 44, 95
8, 98640, Note_on_c, 9, 44, 95
8, 98880, Note_off_c, 9, 44, 95
8, 98880, Note_on_c, 9, 35, 95
8, 98880, Note_on_c, 9, 42, 95
8, 98880, Note_on_c, 9, 49, 95
8, 98880, Note_on_c, 9, 40, 95
8, 99120, Note_off_c, 9, 35, 95
8, 99120, Note_off_c, 9, 42, 95
8, 99120, Note_off_c, 9, 49, 95
8, 99120, Note_off_c, 9, 40, 95
8, 99120, Note_on_c, 9, 42, 95
8, 99360, Note_off_c, 9, 42, 95
8, 99360, Note_on_c, 9, 35, 95
8, 99360, Note_on_c, 9, 42, 95
8, 99600, Note_off_c, 9, 35, 95
8, 99600, Note_off_c, 9, 42, 95
8, 99600, Note_on_c, 9, 42, 95
8, 99840, Note_off_c, 9, 42, 95
8, 99840, Note_on_c, 9, 57, 95
8, 99840, Note_on_c, 9, 35, 95
8, 99840, Note_on_c, 9, 40, 95
8, 100320, Note_off_c, 9, 57, 95
8, 100320, Note_off_c, 9, 35, 95
8, 100320, Note_off_c, 9, 40, 95
8, 100320, Note_on_c, 9, 35, 95
8, 100320, Note_on_c, 9, 42, 95
8, 100560, Note_off_c, 9, 35, 95
8, 100560, Note_off_c, 9, 42, 95
8, 100560, Note_on_c, 9, 42, 95
8, 100800, Note_off_c, 9, 42, 95
8, 100800, Note_on_c, 9, 35, 95
8, 100800, Note_on_c, 9, 42, 95
8, 100800, Note_on_c, 9, 41, 95
8, 101040, Note_off_c, 9, 35, 95
8, 101040, Note_off_c, 9, 42, 95
8, 101040, Note_off_c, 9, 41, 95
8, 101040, Note_on_c, 9, 42, 95
8, 101280, Note_off_c, 9, 42, 95
8, 101280, Note_on_c, 9, 35, 95
8, 101280, Note_on_c, 9, 42, 95
8, 101280, Note_on_c, 9, 40, 95
8, 101520, Note_off_c, 9, 35, 95
8, 101520, Note_off_c, 9, 42, 95
8, 101520, Note_off_c, 9, 40, 95
8, 101520, Note_on_c, 9, 42, 95
8, 101520, Note_on_c, 9, 40, 95
8, 101760, Note_off_c, 9, 42, 95
8, 101760, Note_off_c, 9, 40, 95
8, 101760, Note_on_c, 9, 35, 95
8, 101760, Note_on_c, 9, 44, 95
8, 101760, Note_on_c, 9, 41, 95
8, 101760, Note_on_c, 9, 49, 95
8, 102000, Note_off_c, 9, 35, 95
8, 102000, Note_off_c, 9, 44, 95
8, 102000, Note_off_c, 9, 41, 95
8, 102000, Note_off_c, 9, 49, 95
8, 102000, Note_on_c, 9, 44, 95
8, 102240, Note_off_c, 9, 44, 95
8, 102240, Note_on_c, 9, 35, 95
8, 102240, Note_on_c, 9, 44, 95
8, 102480, Note_off_c, 9, 35, 95
8, 102480, Note_off_c, 9, 44, 95
8, 102480, Note_on_c, 9, 44, 95
8, 102720, Note_off_c, 9, 44, 95
8, 102720, Note_on_c, 9, 35, 95
8, 102720, Note_on_c, 9, 41, 95
8, 102720, Note_on_c, 9, 57, 95
8, 102960, Note_off_c, 9, 35, 95
8, 102960, Note_off_c, 9, 41, 95
8, 102960, Note_off_c, 9, 57, 95
8, 102960, Note_on_c, 9, 42, 95
8, 103200, Note_off_c, 9, 42, 95
8, 103200, Note_on_c, 9, 35, 95
8, 103200, Note_on_c, 9, 42, 95
8, 103440, Note_off_c, 9, 35, 95
8, 103440, Note_off_c, 9, 42, 95
8, 103440, Note_on_c, 9, 42, 95
8, 103680, Note_off_c, 9, 42, 95
8, 103680, Note_on_c, 9, 57, 95
8, 103680, Note_on_c, 9, 35, 95
8, 103680, Note_on_c, 9, 40, 95
8, 104160, Note_off_c, 9, 57, 95
8, 104160, Note_off_c, 9, 35, 95
8, 104160, Note_off_c, 9, 40, 95
8, 104160, Note_on_c, 9, 35, 95
8, 104160, Note_on_c, 9, 42, 95
8, 104400, Note_off_c, 9, 35, 95
8, 104400, Note_off_c, 9, 42, 95
8, 104400, Note_on_c, 9, 42, 95
8, 104640, Note_off_c, 9, 42, 95
8, 104640, Note_on_c, 9, 35, 95
8, 104640, Note_on_c, 9, 42, 95
8, 104640, Note_on_c, 9, 41, 95
8, 104880, Note_off_c, 9, 35, 95
8, 104880, Note_off_c, 9, 42, 95
8, 104880, Note_off_c, 9, 41, 95
8, 104880, Note_on_c, 9, 42, 95
8, 105120, Note_off_c, 9, 42, 95
8, 105120, Note_on_c, 9, 35, 95
8, 105120, Note_on_c, 9, 42, 95
8, 105120, Note_on_c, 9, 43, 95
8, 105360, Note_off_c, 9, 35, 95
8, 105360, Note_off_c, 9, 42, 95
8, 105360, Note_off_c, 9, 43, 95
8, 105360, Note_on_c, 9, 42, 95
8, 105600, Note_off_c, 9, 42, 95
8, 105600, Note_on_c, 9, 35, 95
8, 105600, Note_on_c, 9, 44, 95
8, 105600, Note_on_c, 9, 41, 95
8, 105840, Note_off_c, 9, 35, 95
8, 105840, Note_off_c, 9, 44, 95
8, 105840, Note_off_c, 9, 41, 95
8, 105840, Note_on_c, 9, 44, 95
8, 106080, Note_off_c, 9, 44, 95
8, 106080, Note_on_c, 9, 35, 95
8, 106080, Note_on_c, 9, 44, 95
8, 106320, Note_off_c, 9, 35, 95
8, 106320, Note_off_c, 9, 44, 95
8, 106320, Note_on_c, 9, 44, 95
8, 106560, Note_off_c, 9, 44, 95
8, 106560, Note_on_c, 9, 35, 95
8, 106560, Note_on_c, 9, 42, 95
8, 106560, Note_on_c, 9, 49, 95
8, 106560, Note_on_c, 9, 40, 95
8, 106800, Note_off_c, 9, 35, 95
8, 106800, Note_off_c, 9, 42, 95
8, 106800, Note_off_c, 9, 49, 95
8, 106800, Note_off_c, 9, 40, 95
8, 106800, Note_on_c, 9, 42, 95
8, 107040, Note_off_c, 9, 42, 95
8, 107040, Note_on_c, 9, 35, 95
8, 107040, Note_on_c, 9, 42, 95
8, 107280, Note_off_c, 9, 35, 95
8, 107280, Note_off_c, 9, 42, 95
8, 107280, Note_on_c, 9, 42, 95
8, 107520, Note_off_c, 9, 42, 95
8, 107520, Note_on_c, 9, 57, 95
8, 107520, Note_on_c, 9, 35, 95
8, 107520, Note_on_c, 9, 40, 95
8, 108000, Note_off_c, 9, 57, 95
8, 108000, Note_off_c, 9, 35, 95
8, 108000, Note_off_c, 9, 40, 95
8, 108000, Note_on_c, 9, 35, 95
8, 108000, Note_on_c, 9, 42, 95
8, 108240, Note_off_c, 9, 35, 95
8, 108240, Note_off_c, 9, 42, 95
8, 108240, Note_on_c, 9, 42, 95
8, 108480, Note_off_c, 9, 42, 95
8, 108480, Note_on_c, 9, 35, 95
8, 108480, Note_on_c, 9, 42, 95
8, 108480, Note_on_c, 9, 41, 95
8, 108720, Note_off_c, 9, 35, 95
8, 108720, Note_off_c, 9, 42, 95
8, 108720, Note_off_c, 9, 41, 95
8, 108720, Note_on_c, 9, 42, 95
8, 108960, Note_off_c, 9, 42, 95
8, 108960, Note_on_c, 9, 35, 95
8, 108960, Note_on_c, 9, 42, 95
8, 108960, Note_on_c, 9, 43, 95
8, 109200, Note_off_c, 9, 35, 95
8, 109200, Note_off_c, 9, 42, 95
8, 109200, Note_off_c, 9, 43, 95
8, 109200, Note_on_c, 9, 42, 95
8, 109440, Note_off_c, 9, 42, 95
8, 109440, Note_on_c, 9, 35, 95
8, 109440, Note_on_c, 9, 44, 95
8, 109440, Note_on_c, 9, 41, 95
8, 109680, Note_off_c, 9, 35, 95
8, 109680, Note_off_c, 9, 44, 95
8, 109680, Note_off_c, 9, 41, 95
8, 109680, Note_on_c, 9, 44, 95
8, 109920, Note_off_c, 9, 44, 95
8, 109920, Note_on_c, 9, 35, 95
8, 109920, Note_on_c, 9, 44, 95
8, 110160, Note_off_c, 9, 35, 95
8, 110160, Note_off_c, 9, 44, 95
8, 110160, Note_on_c, 9, 44, 95
8, 110400, Note_off_c, 9, 44, 95
8, 110400, Note_on_c, 9, 35, 95
8, 110400, Note_on_c, 9, 42, 95
8, 110400, Note_on_c, 9, 49, 95
8, 110400, Note_on_c, 9, 40, 95
8, 110640, Note_off_c, 9, 35, 95
8, 110640, Note_off_c, 9, 42, 95
8, 110640, Note_off_c, 9, 49, 95
8, 110640, Note_off_c, 9, 40, 95
8, 110640, Note_on_c, 9, 42, 95
8, 110880, Note_off_c, 9, 42, 95
8, 110880, Note_on_c, 9, 35, 95
8, 110880, Note_on_c, 9, 42, 95
8, 111120, Note_off_c, 9, 35, 95
8, 111120, Note_off_c, 9, 42, 95
8, 111120, Note_on_c, 9, 42, 95
8, 111360, Note_off_c, 9, 42, 95
8, 111360, Note_on_c, 9, 57, 95
8, 111360, Note_on_c, 9, 35, 95
8, 111360, Note_on_c, 9, 40, 95
8, 111840, Note_off_c, 9, 57, 95
8, 111840, Note_off_c, 9, 35, 95
8, 111840, Note_off_c, 9, 40, 95
8, 111840, Note_on_c, 9, 35, 95
8, 111840, Note_on_c, 9, 42, 95
8, 112080, Note_off_c, 9, 35, 95
8, 112080, Note_off_c, 9, 42, 95
8, 112080, Note_on_c, 9, 42, 95
8, 112320, Note_off_c, 9, 42, 95
8, 112320, Note_on_c, 9, 35, 95
8, 112320, Note_on_c, 9, 42, 95
8, 112320, Note_on_c, 9, 41, 95
8, 112560, Note_off_c, 9, 35, 95
8, 112560, Note_off_c, 9, 42, 95
8, 112560, Note_off_c, 9, 41, 95
8, 112560, Note_on_c, 9, 42, 95
8, 112800, Note_off_c, 9, 42, 95
8, 112800, Note_on_c, 9, 35, 95
8, 112800, Note_on_c, 9, 42, 95
8, 112800, Note_on_c, 9, 43, 95
8, 113040, Note_off_c, 9, 35, 95
8, 113040, Note_off_c, 9, 42, 95
8, 113040, Note_off_c, 9, 43, 95
8, 113040, Note_on_c, 9, 42, 95
8, 113280, Note_off_c, 9, 42, 95
8, 113280, Note_on_c, 9, 35, 95
8, 113280, Note_on_c, 9, 44, 95
8, 113280, Note_on_c, 9, 41, 95
8, 113520, Note_off_c, 9, 35, 95
8, 113520, Note_off_c, 9, 44, 95
8, 113520, Note_off_c, 9, 41, 95
8, 113520, Note_on_c, 9, 44, 95
8, 113760, Note_off_c, 9, 44, 95
8, 113760, Note_on_c, 9, 35, 95
8, 113760, Note_on_c, 9, 44, 95
8, 114000, Note_off_c, 9, 35, 95
8, 114000, Note_off_c, 9, 44, 95
8, 114000, Note_on_c, 9, 44, 95
8, 114240, Note_off_c, 9, 44, 95
8, 114240, Note_on_c, 9, 35, 95
8, 114240, Note_on_c, 9, 42, 95
8, 114240, Note_on_c, 9, 49, 95
8, 114240, Note_on_c, 9, 40, 95
8, 114480, Note_off_c, 9, 35, 95
8, 114480, Note_off_c, 9, 42, 95
8, 114480, Note_off_c, 9, 49, 95
8, 114480, Note_off_c, 9, 40, 95
8, 114480, Note_on_c, 9, 42, 95
8, 114720, Note_off_c, 9, 42, 95
8, 114720, Note_on_c, 9, 35, 95
8, 114720, Note_on_c, 9, 42, 95
8, 114960, Note_off_c, 9, 35, 95
8, 114960, Note_off_c, 9, 42, 95
8, 114960, Note_on_c, 9, 42, 95
8, 115200, Note_off_c, 9, 42, 95
8, 115200, Note_on_c, 9, 57, 95
8, 115200, Note_on_c, 9, 35, 95
8, 115200, Note_on_c, 9, 40, 95
8, 115680, Note_off_c, 9, 57, 95
8, 115680, Note_off_c, 9, 35, 95
8, 115680, Note_off_c, 9, 40, 95
8, 115680, Note_on_c, 9, 35, 95
8, 115680, Note_on_c, 9, 42, 95
8, 115920, Note_off_c, 9, 35, 95
8, 115920, Note_off_c, 9, 42, 95
8, 115920, Note_on_c, 9, 42, 95
8, 116160, Note_off_c, 9, 42, 95
8, 116160, Note_on_c, 9, 35, 95
8, 116160, Note_on_c, 9, 42, 95
8, 116160, Note_on_c, 9, 41, 95
8, 116400, Note_off_c, 9, 35, 95
8, 116400, Note_off_c, 9, 42, 95
8, 116400, Note_off_c, 9, 41, 95
8, 116400, Note_on_c, 9, 42, 95
8, 116640, Note_off_c, 9, 42, 95
8, 116640, Note_on_c, 9, 35, 95
8, 116640, Note_on_c, 9, 42, 95
8, 116640, Note_on_c, 9, 40, 95
8, 116880, Note_off_c, 9, 35, 95
8, 116880, Note_off_c, 9, 42, 95
8, 116880, Note_off_c, 9, 40, 95
8, 116880, Note_on_c, 9, 42, 95
8, 116880, Note_on_c, 9, 40, 95
8, 117120, Note_off_c, 9, 42, 95
8, 117120, Note_off_c, 9, 40, 95
8, 117120, Note_on_c, 9, 35, 95
8, 117120, Note_on_c, 9, 44, 95
8, 117120, Note_on_c, 9, 41, 95
8, 117120, Note_on_c, 9, 49, 95
8, 117360, Note_off_c, 9, 35, 95
8, 117360, Note_off_c, 9, 44, 95
8, 117360, Note_off_c, 9, 41, 95
8, 117360, Note_off_c, 9, 49, 95
8, 117360, Note_on_c, 9, 44, 95
8, 117600, Note_off_c, 9, 44, 95
8, 117600, Note_on_c, 9, 35, 95
8, 117600, Note_on_c, 9, 44, 95
8, 117840, Note_off_c, 9, 35, 95
8, 117840, Note_off_c, 9, 44, 95
8, 117840, Note_on_c, 9, 44, 95
8, 118080, Note_off_c, 9, 44, 95
8, 118080, Note_on_c, 9, 35, 95
8, 118080, Note_on_c, 9, 41, 95
8, 118080, Note_on_c, 9, 57, 95
8, 118320, Note_off_c, 9, 35, 95
8, 118320, Note_off_c, 9, 41, 95
8, 118320, Note_off_c, 9, 57, 95
8, 118320, Note_on_c, 9, 42, 95
8, 118560, Note_off_c, 9, 42, 95
8, 118560, Note_on_c, 9, 35, 95
8, 118560, Note_on_c, 9, 42, 95
8, 118800, Note_off_c, 9, 35, 95
8, 118800, Note_off_c, 9, 42, 95
8, 118800, Note_on_c, 9, 42, 95
8, 119040, Note_off_c, 9, 42, 95
8, 119040, Note_on_c, 9, 57, 95
8, 119040, Note_on_c, 9, 35, 95
8, 119040, Note_on_c, 9, 40, 95
8, 119520, Note_off_c, 9, 57, 95
8, 119520, Note_off_c, 9, 35, 95
8, 119520, Note_off_c, 9, 40, 95
8, 119520, Note_on_c, 9, 35, 95
8, 119520, Note_on_c, 9, 42, 95
8, 119760, Note_off_c, 9, 35, 95
8, 119760, Note_off_c, 9, 42, 95
8, 119760, Note_on_c, 9, 42, 95
8, 120000, Note_off_c, 9, 42, 95
8, 120000, Note_on_c, 9, 35, 95
8, 120000, Note_on_c, 9, 42, 95
8, 120000, Note_on_c, 9, 41, 95
8, 120240, Note_off_c, 9, 35, 95
8, 120240, Note_off_c, 9, 42, 95
8, 120240, Note_off_c, 9, 41, 95
8, 120240, Note_on_c, 9, 42, 95
8, 120480, Note_off_c, 9, 42, 95
8, 120480, Note_on_c, 9, 35, 95
8, 120480, Note_on_c, 9, 42, 95
8, 120480, Note_on_c, 9, 43, 95
8, 120720, Note_off_c, 9, 35, 95
8, 120720, Note_off_c, 9, 42, 95
8, 120720, Note_off_c, 9, 43, 95
8, 120720, Note_on_c, 9, 42, 95
8, 120960, Note_off_c, 9, 42, 95
8, 120960, Note_on_c, 9, 35, 95
8, 120960, Note_on_c, 9, 44, 95
8, 120960, Note_on_c, 9, 41, 95
8, 121200, Note_off_c, 9, 35, 95
8, 121200, Note_off_c, 9, 44, 95
8, 121200, Note_off_c, 9, 41, 95
8, 121200, Note_on_c, 9, 44, 95
8, 121440, Note_off_c, 9, 44, 95
8, 121440, Note_on_c, 9, 35, 95
8, 121440, Note_on_c, 9, 44, 95
8, 121680, Note_off_c, 9, 35, 95
8, 121680, Note_off_c, 9, 44, 95
8, 121680, Note_on_c, 9, 44, 95
8, 121920, Note_off_c, 9, 44, 95
8, 121920, Note_on_c, 9, 35, 95
8, 121920, Note_on_c, 9, 42, 95
8, 121920, Note_on_c, 9, 49, 95
8, 121920, Note_on_c, 9, 40, 95
8, 122160, Note_off_c, 9, 35, 95
8, 122160, Note_off_c, 9, 42, 95
8, 122160, Note_off_c, 9, 49, 95
8, 122160, Note_off_c, 9, 40, 95
8, 122160, Note_on_c, 9, 42, 95
8, 122400, Note_off_c, 9, 42, 95
8, 122400, Note_on_c, 9, 35, 95
8, 122400, Note_on_c, 9, 42, 95
8, 122640, Note_off_c, 9, 35, 95
8, 122640, Note_off_c, 9, 42, 95
8, 122640, Note_on_c, 9, 42, 95
8, 122880, Note_off_c, 9, 42, 95
8, 122880, Note_on_c, 9, 57, 95
8, 122880, Note_on_c, 9, 35, 95
8, 122880, Note_on_c, 9, 40, 95
8, 123360, Note_off_c, 9, 57, 95
8, 123360, Note_off_c, 9, 35, 95
8, 123360, Note_off_c, 9, 40, 95
8, 123360, Note_on_c, 9, 35, 95
8, 123360, Note_on_c, 9, 42, 95
8, 123600, Note_off_c, 9, 35, 95
8, 123600, Note_off_c, 9, 42, 95
8, 123600, Note_on_c, 9, 42, 95
8, 123840, Note_off_c, 9, 42, 95
8, 123840, Note_on_c, 9, 35, 95
8, 123840, Note_on_c, 9, 42, 95
8, 123840, Note_on_c, 9, 41, 95
8, 124080, Note_off_c, 9, 35, 95
8, 124080, Note_off_c, 9, 42, 95
8, 124080, Note_off_c, 9, 41, 95
8, 124080, Note_on_c, 9, 42, 95
8, 124320, Note_off_c, 9, 42, 95
8, 124320, Note_on_c, 9, 35, 95
8, 124320, Note_on_c, 9, 42, 95
8, 124320, Note_on_c, 9, 43, 95
8, 124560, Note_off_c, 9, 35, 95
8, 124560, Note_off_c, 9, 42, 95
8, 124560, Note_off_c, 9, 43, 95
8, 124560, Note_on_c, 9, 42, 95
8, 124800, Note_off_c, 9, 42, 95
8, 124800, Note_on_c, 9, 35, 95
8, 124800, Note_on_c, 9, 44, 95
8, 124800, Note_on_c, 9, 41, 95
8, 125040, Note_off_c, 9, 35, 95
8, 125040, Note_off_c, 9, 44, 95
8, 125040, Note_off_c, 9, 41, 95
8, 125040, Note_on_c, 9, 44, 95
8, 125280, Note_off_c, 9, 44, 95
8, 125280, Note_on_c, 9, 35, 95
8, 125280, Note_on_c, 9, 44, 95
8, 125520, Note_off_c, 9, 35, 95
8, 125520, Note_off_c, 9, 44, 95
8, 125520, Note_on_c, 9, 44, 95
8, 125760, Note_off_c, 9, 44, 95
8, 125760, Note_on_c, 9, 35, 95
8, 125760, Note_on_c, 9, 42, 95
8, 125760, Note_on_c, 9, 49, 95
8, 125760, Note_on_c, 9, 40, 95
8, 126000, Note_off_c, 9, 35, 95
8, 126000, Note_off_c, 9, 42, 95
8, 126000, Note_off_c, 9, 49, 95
8, 126000, Note_off_c, 9, 40, 95
8, 126000, Note_on_c, 9, 42, 95
8, 126240, Note_off_c, 9, 42, 95
8, 126240, Note_on_c, 9, 35, 95
8, 126240, Note_on_c, 9, 42, 95
8, 126480, Note_off_c, 9, 35, 95
8, 126480, Note_off_c, 9, 42, 95
8, 126480, Note_on_c, 9, 42, 95
8, 126720, Note_off_c, 9, 42, 95
8, 126720, Note_on_c, 9, 57, 95
8, 126720, Note_on_c, 9, 35, 95
8, 126720, Note_on_c, 9, 40, 95
8, 127200, Note_off_c, 9, 57, 95
8, 127200, Note_off_c, 9, 35, 95
8, 127200, Note_off_c, 9, 40, 95
8, 127200, Note_on_c, 9, 35, 95
8, 127200, Note_on_c, 9, 42, 95
8, 127440, Note_off_c, 9, 35, 95
8, 127440, Note_off_c, 9, 42, 95
8, 127440, Note_on_c, 9, 42, 95
8, 127680, Note_off_c, 9, 42, 95
8, 127680, Note_on_c, 9, 35, 95
8, 127680, Note_on_c, 9, 42, 95
8, 127680, Note_on_c, 9, 41, 95
8, 127920, Note_off_c, 9, 35, 95
8, 127920, Note_off_c, 9, 42, 95
8, 127920, Note_off_c, 9, 41, 95
8, 127920, Note_on_c, 9, 42, 95
8, 128160, Note_off_c, 9, 42, 95
8, 128160, Note_on_c, 9, 35, 95
8, 128160, Note_on_c, 9, 42, 95
8, 128160, Note_on_c, 9, 43, 95
8, 128400, Note_off_c, 9, 35, 95
8, 128400, Note_off_c, 9, 42, 95
8, 128400, Note_off_c, 9, 43, 95
8, 128400, Note_on_c, 9, 42, 95
8, 128640, Note_off_c, 9, 42, 95
8, 128640, Note_on_c, 9, 35, 95
8, 128640, Note_on_c, 9, 44, 95
8, 128640, Note_on_c, 9, 41, 95
8, 128880, Note_off_c, 9, 35, 95
8, 128880, Note_off_c, 9, 44, 95
8, 128880, Note_off_c, 9, 41, 95
8, 128880, Note_on_c, 9, 44, 95
8, 129120, Note_off_c, 9, 44, 95
8, 129120, Note_on_c, 9, 35, 95
8, 129120, Note_on_c, 9, 44, 95
8, 129360, Note_off_c, 9, 35, 95
8, 129360, Note_off_c, 9, 44, 95
8, 129360, Note_on_c, 9, 44, 95
8, 129600, Note_off_c, 9, 44, 95
8, 129600, Note_on_c, 9, 35, 95
8, 129600, Note_on_c, 9, 42, 95
8, 129600, Note_on_c, 9, 49, 95
8, 129600, Note_on_c, 9, 40, 95
8, 129840, Note_off_c, 9, 35, 95
8, 129840, Note_off_c, 9, 42, 95
8, 129840, Note_off_c, 9, 49, 95
8, 129840, Note_off_c, 9, 40, 95
8, 129840, Note_on_c, 9, 42, 95
8, 130080, Note_off_c, 9, 42, 95
8, 130080, Note_on_c, 9, 35, 95
8, 130080, Note_on_c, 9, 42, 95
8, 130320, Note_off_c, 9, 35, 95
8, 130320, Note_off_c, 9, 42, 95
8, 130320, Note_on_c, 9, 42, 95
8, 130560, Note_off_c, 9, 42, 95
8, 130560, Note_on_c, 9, 57, 95
8, 130560, Note_on_c, 9, 35, 95
8, 130560, Note_on_c, 9, 40, 95
8, 131040, Note_off_c, 9, 57, 95
8, 131040, Note_off_c, 9, 35, 95
8, 131040, Note_off_c, 9, 40, 95
8, 131040, Note_on_c, 9, 35, 95
8, 131040, Note_on_c, 9, 42, 95
8, 131280, Note_off_c, 9, 35, 95
8, 131280, Note_off_c, 9, 42, 95
8, 131280, Note_on_c, 9, 42, 95
8, 131520, Note_off_c, 9, 42, 95
8, 131520, Note_on_c, 9, 35, 95
8, 131520, Note_on_c, 9, 42, 95
8, 131520, Note_on_c, 9, 41, 95
8, 131760, Note_off_c, 9, 35, 95
8, 131760, Note_off_c, 9, 42, 95
8, 131760, Note_off_c, 9, 41, 95
8, 131760, Note_on_c, 9, 42, 95
8, 132000, Note_off_c, 9, 42, 95
8, 132000, Note_on_c, 9, 35, 95
8, 132000, Note_on_c, 9, 42, 95
8, 132000, Note_on_c, 9, 40, 95
8, 132240, Note_off_c, 9, 35, 95
8, 132240, Note_off_c, 9, 42, 95
8, 132240, Note_off_c, 9, 40, 95
8, 132240, Note_on_c, 9, 42, 95
8, 132240, Note_on_c, 9, 40, 95
8, 132480, Note_off_c, 9, 42, 95
8, 132480, Note_off_c, 9, 40, 95
8, 132480, Note_on_c, 9, 35, 95
8, 132480, Note_on_c, 9, 44, 95
8, 132480, Note_on_c, 9, 41, 95
8, 132480, Note_on_c, 9, 49, 95
8, 132720, Note_off_c, 9, 35, 95
8, 132720, Note_off_c, 9, 44, 95
8, 132720, Note_off_c, 9, 41, 95
8, 132720, Note_off_c, 9, 49, 95
8, 132720, Note_on_c, 9, 44, 95
8, 132960, Note_off_c, 9, 44, 95
8, 132960, Note_on_c, 9, 35, 95
8, 132960, Note_on_c, 9, 44, 95
8, 133200, Note_off_c, 9, 35, 95
8, 133200, Note_off_c, 9, 44, 95
8, 133200, Note_on_c, 9, 44, 95
8, 133440, Note_off_c, 9, 44, 95
8, 133440, Note_on_c, 9, 35, 95
8, 133440, Note_on_c, 9, 41, 95
8, 133440, Note_on_c, 9, 57, 95
8, 133680, Note_off_c, 9, 35, 95
8, 133680, Note_off_c, 9, 41, 95
8, 133680, Note_off_c, 9, 57, 95
8, 133680, Note_on_c, 9, 42, 95
8, 133920, Note_off_c, 9, 42, 95
8, 133920, Note_on_c, 9, 35, 95
8, 133920, Note_on_c, 9, 42, 95
8, 134160, Note_off_c, 9, 35, 95
8, 134160, Note_off_c, 9, 42, 95
8, 134160, Note_on_c, 9, 42, 95
8, 134400, Note_off_c, 9, 42, 95
8, 134400, Note_on_c, 9, 57, 95
8, 134400, Note_on_c, 9, 35, 95
8, 134400, Note_on_c, 9, 40, 95
8, 134880, Note_off_c, 9, 57, 95
8, 134880, Note_off_c, 9, 35, 95
8, 134880, Note_off_c, 9, 40, 95
8, 134880, Note_on_c, 9, 35, 95
8, 134880, Note_on_c, 9, 42, 95
8, 135120, Note_off_c, 9, 35, 95
8, 135120, Note_off_c, 9, 42, 95
8, 135120, Note_on_c, 9, 42, 95
8, 135360, Note_off_c, 9, 42, 95
8, 135360, Note_on_c, 9, 35, 95
8, 135360, Note_on_c, 9, 42, 95
8, 135360, Note_on_c, 9, 41, 95
8, 135360, Note_on_c, 9, 57, 95
8, 135360, Note_on_c, 9, 40, 95
8, 135600, Note_off_c, 9, 35, 95
8, 135600, Note_off_c, 9, 42, 95
8, 135600, Note_off_c, 9, 41, 95
8, 135600, Note_off_c, 9, 57, 95
8, 135600, Note_off_c, 9, 40, 95
8, 135600, Note_on_c, 9, 42, 95
8, 135840, Note_off_c, 9, 42, 95
8, 135840, Note_on_c, 9, 35, 95
8, 135840, Note_on_c, 9, 42, 95
8, 135840, Note_on_c, 9, 43, 95
8, 136080, Note_off_c, 9, 35, 95
8, 136080, Note_off_c, 9, 42, 95
8, 136080, Note_off_c, 9, 43, 95
8, 136080, Note_on_c, 9, 42, 95
8, 136320, Note_off_c, 9, 42, 95
8, 136320, Note_on_c, 9, 35, 95
8, 136320, Note_on_c, 9, 44, 95
8, 136320, Note_on_c, 9, 41, 95
8, 136320, Note_on_c, 9, 57, 95
8, 136320, Note_on_c, 9, 40, 95
8, 136560, Note_off_c, 9, 35, 95
8, 136560, Note_off_c, 9, 44, 95
8, 136560, Note_off_c, 9, 41, 95
8, 136560, Note_off_c, 9, 57, 95
8, 136560, Note_off_c, 9, 40, 95
8, 136560, Note_on_c, 9, 44, 95
8, 136800, Note_off_c, 9, 44, 95
8, 136800, Note_on_c, 9, 35, 95
8, 136800, Note_on_c, 9, 44, 95
8, 137040, Note_off_c, 9, 35, 95
8, 137040, Note_off_c, 9, 44, 95
8, 137040, Note_on_c, 9, 44, 95
8, 137280, Note_off_c, 9, 44, 95
8, 137280, Note_on_c, 9, 35, 95
8, 137280, Note_on_c, 9, 42, 95
8, 137280, Note_on_c, 9, 40, 95
8, 137280, Note_on_c, 9, 57, 95
8, 137280, Note_on_c, 9, 40, 95
8, 137520, Note_off_c, 9, 35, 95
8, 137520, Note_off_c, 9, 42, 95
8, 137520, Note_off_c, 9, 40, 95
8, 137520, Note_off_c, 9, 57, 95
8, 137520, Note_off_c, 9, 40, 95
8, 137520, Note_on_c, 9, 42, 95
8, 137760, Note_off_c, 9, 42, 95
8, 137760, Note_on_c, 9, 35, 95
8, 137760, Note_on_c, 9, 42, 95
8, 138000, Note_off_c, 9, 35, 95
8, 138000, Note_off_c, 9, 42, 95
8, 138000, Note_on_c, 9, 42, 95
8, 138240, Note_off_c, 9, 42, 95
8, 138240, End_track
9, 0, Start_track
9, 0, Pitch_bend_c, 13, 8192
9, 0, Control_c, 13, 7, 127
9, 0, Control_c, 13, 10, 64
9, 0, Control_c, 13, 93, 0
9, 0, Control_c, 13, 91, 0
9, 0, Control_c, 13, 95, 0
9, 0, Control_c, 13, 92, 0
9, 0, Control_c, 13, 11, 127
9, 0, Program_c, 13, 30
9, 0, Control_c, 14, 7, 127
9, 0, Control_c, 14, 10, 64
9, 0, Control_c, 14, 93, 0
9, 0, Control_c, 14, 91, 0
9, 0, Control_c, 14, 95, 0
9, 0, Control_c, 14, 92, 0
9, 0, Control_c, 14, 11, 127
9, 0, Program_c, 14, 30
9, 107520, Note_on_c, 13, 61, 95
9, 108000, Note_off_c, 13, 61, 95
9, 108000, Note_on_c, 13, 63, 95
9, 108480, Note_off_c, 13, 63, 95
9, 108480, Note_on_c, 13, 64, 95
9, 108960, Note_off_c, 13, 64, 95
9, 108960, Note_on_c, 13, 66, 95
9, 109440, Note_off_c, 13, 66, 95
9, 109440, Note_on_c, 13, 68, 95
9, 110400, Note_off_c, 13, 68, 95
9, 110400, Note_on_c, 13, 73, 95
9, 111360, Note_off_c, 13, 73, 95
9, 111360, Note_on_c, 13, 71, 95
9, 112320, Note_off_c, 13, 71, 95
9, 112320, Note_on_c, 13, 68, 95
9, 113280, Note_off_c, 13, 68, 95
9, 113280, Note_on_c, 13, 70, 95
9, 113520, Note_off_c, 13, 70, 95
9, 113520, Note_on_c, 13, 71, 95
9, 113760, Note_off_c, 13, 71, 95
9, 113760, Note_on_c, 13, 70, 95
9, 115200, Note_off_c, 13, 70, 95
9, 115200, Note_on_c, 13, 71, 95
9, 116160, Note_off_c, 13, 71, 95
9, 116160, Note_on_c, 13, 68, 95
9, 116640, Note_off_c, 13, 68, 95
9, 116640, Note_on_c, 13, 70, 95
9, 117120, Note_off_c, 13, 70, 95
9, 117120, Note_on_c, 13, 71, 95
9, 118080, Note_off_c, 13, 71, 95
9, 118080, Note_on_c, 13, 70, 95
9, 118560, Note_off_c, 13, 70, 95
9, 118560, Note_on_c, 13, 66, 95
9, 119040, Note_off_c, 13, 66, 95
9, 119040, Note_on_c, 13, 63, 95
9, 120000, Note_off_c, 13, 63, 95
9, 120000, Note_on_c, 13, 64, 95
9, 120960, Note_off_c, 13, 64, 95
9, 120960, Note_on_c, 13, 63, 95
9, 121200, Note_off_c, 13, 63, 95
9, 121200, Note_on_c, 13, 64, 95
9, 121440, Note_off_c, 13, 64, 95
9, 121440, Note_on_c, 13, 63, 95
9, 122880, Note_off_c, 13, 63, 95
9, 122880, Note_on_c, 13, 61, 95
9, 123360, Note_off_c, 13, 61, 95
9, 123360, Note_on_c, 13, 63, 95
9, 123840, Note_off_c, 13, 63, 95
9, 123840, Note_on_c, 13, 64, 95
9, 124320, Note_off_c, 13, 64, 95
9, 124320, Note_on_c, 13, 66, 95
9, 124800, Note_off_c, 13, 66, 95
9, 124800, Note_on_c, 13, 64, 95
9, 125760, Note_off_c, 13, 64, 95
9, 125760, Note_on_c, 13, 63, 95
9, 126240, Note_off_c, 13, 63, 95
9, 126240, Note_on_c, 13, 64, 95
9, 126720, Note_off_c, 13, 64, 95
9, 126720, Note_on_c, 13, 66, 95
9, 127680, Note_off_c, 13, 66, 95
9, 127680, Note_on_c, 13, 64, 95
9, 128160, Note_off_c, 13, 64, 95
9, 128160, Note_on_c, 13, 63, 95
9, 128640, Note_off_c, 13, 63, 95
9, 128640, Note_on_c, 13, 61, 95
9, 130560, Note_off_c, 13, 61, 95
9, 130560, Note_on_c, 13, 66, 95
9, 131520, Note_off_c, 13, 66, 95
9, 131520, Note_on_c, 13, 64, 95
9, 132000, Note_off_c, 13, 64, 95
9, 132000, Note_on_c, 13, 63, 95
9, 132480, Note_off_c, 13, 63, 95
9, 132480, Note_on_c, 13, 61, 95
9, 133440, Note_off_c, 13, 61, 95
9, 133440, Note_on_c, 13, 63, 95
9, 133920, Note_off_c, 13, 63, 95
9, 133920, Note_on_c, 13, 64, 95
9, 134400, Note_off_c, 13, 64, 95
9, 134400, Note_on_c, 13, 66, 95
9, 135360, Note_off_c, 13, 66, 95
9, 135360, Note_on_c, 13, 64, 95
9, 135840, Note_off_c, 13, 64, 95
9, 135840, Note_on_c, 13, 66, 95
9, 136320, Note_off_c, 13, 66, 95
9, 136320, Note_on_c, 13, 68, 95
9, 138240, Note_off_c, 13, 68, 95
9, 138240, End_track
0, 0, End_of_file
