0, 0, Header, 1, 2, 480
1, 0, Start_track
1, 0, Tempo, 1276595
1, 0, Title_t, "My heart ever faithful"
1, 0, Time_signature, 4, 2, 19, 122
1, 0, Tempo, 1276595
1, 52920, Tempo, 1363636
1, 53040, Tempo, 1428571
1, 53160, Tempo, 1500000
1, 53280, Tempo, 1621621
1, 53760, Tempo, 1276595
1, 113400, Tempo, 1333333
1, 113520, Tempo, 1363636
1, 113640, Tempo, 1428571
1, 113760, Tempo, 1500000
1, 113760, End_track
2, 0, Start_track
2, 0, Title_t, "Piste 1"
2, 0, Control_c, 1, 100, 0
2, 0, Control_c, 1, 101, 0
2, 0, Control_c, 1, 6, 12
2, 0, Pitch_bend_c, 1, 8192
2, 0, Control_c, 1, 101, 0
2, 0, Control_c, 1, 100, 1
2, 0, Control_c, 1, 6, 64
2, 0, Control_c, 1, 38, 0
2, 0, Control_c, 1, 101, 127
2, 0, Control_c, 1, 100, 127
2, 0, Control_c, 0, 100, 0
2, 0, Control_c, 0, 101, 0
2, 0, Control_c, 0, 6, 12
2, 0, Pitch_bend_c, 0, 8192
2, 0, Control_c, 0, 101, 0
2, 0, Control_c, 0, 100, 1
2, 0, Control_c, 0, 6, 64
2, 0, Control_c, 0, 38, 0
2, 0, Control_c, 0, 101, 127
2, 0, Control_c, 0, 100, 127
2, 0, Control_c, 1, 101, 0
2, 0, Control_c, 1, 100, 2
2, 0, Control_c, 1, 6, 64
2, 0, Control_c, 1, 101, 127
2, 0, Control_c, 1, 100, 127
2, 0, Control_c, 0, 101, 0
2, 0, Control_c, 0, 100, 2
2, 0, Control_c, 0, 6, 64
2, 0, Control_c, 0, 101, 127
2, 0, Control_c, 0, 100, 127
2, 0, Program_c, 1, 24
2, 0, Program_c, 0, 24
2, 0, Control_c, 1, 0, 0
2, 0, Control_c, 0, 0, 0
2, 0, Control_c, 1, 7, 112
2, 0, Control_c, 0, 7, 112
2, 0, Control_c, 1, 10, 64
2, 0, Control_c, 0, 10, 64
2, 0, Control_c, 1, 93, 127
2, 0, Control_c, 0, 93, 127
2, 0, Control_c, 1, 91, 127
2, 0, Control_c, 0, 91, 127
2, 0, Control_c, 1, 92, 0
2, 0, Control_c, 0, 92, 0
2, 0, Control_c, 1, 95, 0
2, 0, Control_c, 0, 95, 0
2, 0, Control_c, 0, 7, 112
2, 0, Control_c, 1, 7, 112
2, 0, Note_on_c, 0, 60, 111
2, 0, Note_on_c, 0, 57, 111
2, 120, Note_off_c, 0, 60, 80
2, 120, Note_off_c, 0, 57, 80
2, 120, Note_on_c, 0, 46, 111
2, 240, Note_off_c, 0, 46, 80
2, 240, Note_on_c, 0, 57, 111
2, 240, Note_on_c, 0, 53, 111
2, 360, Note_off_c, 0, 57, 80
2, 360, Note_off_c, 0, 53, 80
2, 360, Note_on_c, 0, 58, 111
2, 360, Note_on_c, 0, 55, 111
2, 480, Note_off_c, 0, 58, 80
2, 480, Note_off_c, 0, 55, 80
2, 480, Note_on_c, 0, 60, 111
2, 480, Note_on_c, 0, 57, 111
2, 600, Note_off_c, 0, 60, 80
2, 600, Note_off_c, 0, 57, 80
2, 600, Note_on_c, 0, 45, 111
2, 720, Note_off_c, 0, 45, 80
2, 720, Note_on_c, 0, 65, 111
2, 720, Note_on_c, 0, 57, 111
2, 720, Note_on_c, 0, 53, 111
2, 960, Note_off_c, 0, 65, 80
2, 960, Note_off_c, 0, 57, 80
2, 960, Note_off_c, 0, 53, 80
2, 960, Note_on_c, 0, 64, 111
2, 960, Note_on_c, 0, 58, 111
2, 960, Note_on_c, 0, 52, 111
2, 1200, Note_off_c, 0, 64, 80
2, 1200, Note_off_c, 0, 58, 80
2, 1200, Note_off_c, 0, 52, 80
2, 1200, Note_on_c, 0, 62, 111
2, 1200, Note_on_c, 0, 57, 111
2, 1200, Note_on_c, 0, 50, 111
2, 1440, Note_off_c, 0, 62, 80
2, 1440, Note_off_c, 0, 57, 80
2, 1440, Note_off_c, 0, 50, 80
2, 1440, Note_on_c, 0, 60, 111
2, 1440, Note_on_c, 0, 58, 111
2, 1440, Note_on_c, 0, 52, 111
2, 1920, Note_off_c, 0, 60, 80
2, 1920, Note_off_c, 0, 58, 80
2, 1920, Note_off_c, 0, 52, 80
2, 1920, Note_on_c, 0, 60, 111
2, 1920, Note_on_c, 0, 53, 111
2, 2040, Note_off_c, 0, 60, 80
2, 2040, Note_off_c, 0, 53, 80
2, 2040, Note_on_c, 0, 48, 111
2, 2160, Note_off_c, 0, 48, 80
2, 2160, Note_on_c, 0, 57, 111
2, 2280, Note_off_c, 0, 57, 80
2, 2280, Note_on_c, 0, 58, 111
2, 2400, Note_off_c, 0, 58, 80
2, 2400, Note_on_c, 0, 60, 111
2, 2400, Note_on_c, 0, 53, 111
2, 2520, Note_off_c, 0, 60, 80
2, 2520, Note_off_c, 0, 53, 80
2, 2520, Note_on_c, 0, 48, 111
2, 2640, Note_off_c, 0, 48, 80
2, 2640, Note_on_c, 0, 65, 111
2, 2640, Note_on_c, 0, 57, 111
2, 2640, Note_on_c, 0, 53, 111
2, 2880, Note_off_c, 0, 65, 80
2, 2880, Note_off_c, 0, 57, 80
2, 2880, Note_off_c, 0, 53, 80
2, 2880, Note_on_c, 0, 64, 111
2, 2880, Note_on_c, 0, 58, 111
2, 2880, Note_on_c, 0, 52, 111
2, 3120, Note_off_c, 0, 64, 80
2, 3120, Note_off_c, 0, 58, 80
2, 3120, Note_off_c, 0, 52, 80
2, 3120, Note_on_c, 0, 62, 111
2, 3120, Note_on_c, 0, 58, 111
2, 3120, Note_on_c, 0, 50, 111
2, 3360, Note_off_c, 0, 62, 80
2, 3360, Note_off_c, 0, 58, 80
2, 3360, Note_off_c, 0, 50, 80
2, 3360, Note_on_c, 0, 60, 111
2, 3360, Note_on_c, 0, 58, 111
2, 3360, Note_on_c, 0, 52, 111
2, 3840, Note_off_c, 0, 60, 80
2, 3840, Note_off_c, 0, 58, 80
2, 3840, Note_off_c, 0, 52, 80
2, 3840, Note_on_c, 0, 65, 111
2, 3840, Note_on_c, 0, 57, 111
2, 3840, Note_on_c, 0, 53, 111
2, 4080, Note_off_c, 0, 65, 80
2, 4080, Note_off_c, 0, 57, 80
2, 4080, Note_off_c, 0, 53, 80
2, 4080, Note_on_c, 0, 69, 111
2, 4080, Note_on_c, 0, 60, 111
2, 4080, Note_on_c, 0, 57, 111
2, 4200, Note_off_c, 0, 69, 80
2, 4200, Note_off_c, 0, 60, 80
2, 4200, Note_off_c, 0, 57, 80
2, 4200, Note_on_c, 0, 67, 111
2, 4200, Note_on_c, 0, 58, 111
2, 4320, Note_off_c, 0, 67, 80
2, 4320, Note_off_c, 0, 58, 80
2, 4320, Note_on_c, 0, 65, 111
2, 4320, Note_on_c, 0, 57, 111
2, 4560, Note_off_c, 0, 65, 80
2, 4560, Note_off_c, 0, 57, 80
2, 4560, Note_on_c, 0, 60, 111
2, 4800, Note_off_c, 0, 60, 80
2, 4800, Note_on_c, 0, 62, 111
2, 4800, Note_on_c, 0, 53, 111
2, 4800, Note_on_c, 0, 50, 111
2, 5040, Note_off_c, 0, 62, 80
2, 5040, Note_off_c, 0, 53, 80
2, 5040, Note_off_c, 0, 50, 80
2, 5040, Note_on_c, 0, 62, 111
2, 5040, Note_on_c, 0, 53, 111
2, 5160, Note_off_c, 0, 62, 80
2, 5160, Note_off_c, 0, 53, 80
2, 5160, Note_on_c, 0, 61, 111
2, 5280, Note_off_c, 0, 61, 80
2, 5280, Note_on_c, 0, 62, 111
2, 5280, Note_on_c, 0, 53, 111
2, 5520, Note_off_c, 0, 62, 80
2, 5520, Note_off_c, 0, 53, 80
2, 5520, Note_on_c, 0, 55, 111
2, 5520, Note_on_c, 0, 50, 111
2, 5640, Note_off_c, 0, 55, 80
2, 5640, Note_off_c, 0, 50, 80
2, 5640, Note_on_c, 0, 53, 111
2, 5760, Note_off_c, 0, 53, 80
2, 5760, Note_on_c, 0, 55, 111
2, 5760, Note_on_c, 0, 52, 111
2, 6000, Note_off_c, 0, 55, 80
2, 6000, Note_off_c, 0, 52, 80
2, 6000, Note_on_c, 0, 57, 111
2, 6000, Note_on_c, 0, 53, 111
2, 6240, Note_off_c, 0, 57, 80
2, 6240, Note_off_c, 0, 53, 80
2, 6240, Note_on_c, 0, 58, 111
2, 6240, Note_on_c, 0, 52, 111
2, 6360, Note_off_c, 0, 58, 80
2, 6360, Note_off_c, 0, 52, 80
2, 6360, Note_on_c, 0, 50, 111
2, 6480, Note_off_c, 0, 50, 80
2, 6480, Note_on_c, 0, 60, 111
2, 6480, Note_on_c, 0, 52, 111
2, 6480, Note_on_c, 0, 48, 111
2, 6720, Note_off_c, 0, 60, 80
2, 6720, Note_off_c, 0, 52, 80
2, 6720, Note_off_c, 0, 48, 80
2, 6720, Note_on_c, 0, 57, 111
2, 6720, Note_on_c, 0, 53, 111
2, 6720, Note_on_c, 0, 48, 111
2, 7200, Note_off_c, 0, 57, 80
2, 7200, Note_off_c, 0, 53, 80
2, 7200, Note_off_c, 0, 48, 80
2, 7440, Note_on_c, 0, 60, 111
2, 7440, Note_on_c, 0, 52, 111
2, 7560, Note_off_c, 0, 60, 80
2, 7560, Note_off_c, 0, 52, 80
2, 7560, Note_on_c, 0, 48, 111
2, 7680, Note_off_c, 0, 48, 80
2, 7680, Note_on_c, 0, 60, 111
2, 7680, Note_on_c, 0, 53, 111
2, 7800, Note_off_c, 0, 60, 80
2, 7800, Note_off_c, 0, 53, 80
2, 7800, Note_on_c, 0, 48, 111
2, 7920, Note_off_c, 0, 48, 80
2, 7920, Note_on_c, 0, 57, 111
2, 8040, Note_off_c, 0, 57, 80
2, 8040, Note_on_c, 0, 58, 111
2, 8160, Note_off_c, 0, 58, 80
2, 8160, Note_on_c, 0, 60, 111
2, 8160, Note_on_c, 0, 53, 111
2, 8280, Note_off_c, 0, 60, 80
2, 8280, Note_off_c, 0, 53, 80
2, 8280, Note_on_c, 0, 48, 111
2, 8400, Note_off_c, 0, 48, 80
2, 8400, Note_on_c, 0, 65, 111
2, 8400, Note_on_c, 0, 57, 111
2, 8400, Note_on_c, 0, 53, 111
2, 8640, Note_off_c, 0, 65, 80
2, 8640, Note_off_c, 0, 57, 80
2, 8640, Note_off_c, 0, 53, 80
2, 8640, Note_on_c, 0, 58, 111
2, 8760, Note_off_c, 0, 58, 80
2, 8760, Note_on_c, 0, 48, 111
2, 8880, Note_off_c, 0, 48, 80
2, 8880, Note_on_c, 0, 57, 111
2, 9000, Note_off_c, 0, 57, 80
2, 9000, Note_on_c, 0, 48, 111
2, 9120, Note_off_c, 0, 48, 80
2, 9120, Note_on_c, 0, 55, 111
2, 9240, Note_off_c, 0, 55, 80
2, 9240, Note_on_c, 0, 48, 111
2, 9360, Note_off_c, 0, 48, 80
2, 9360, Note_on_c, 0, 60, 111
2, 9360, Note_on_c, 0, 52, 111
2, 9480, Note_off_c, 0, 60, 80
2, 9480, Note_off_c, 0, 52, 80
2, 9480, Note_on_c, 0, 48, 111
2, 9600, Note_off_c, 0, 48, 80
2, 9600, Note_on_c, 0, 60, 111
2, 9600, Note_on_c, 0, 53, 111
2, 9720, Note_off_c, 0, 60, 80
2, 9720, Note_off_c, 0, 53, 80
2, 9720, Note_on_c, 0, 48, 111
2, 9840, Note_off_c, 0, 48, 80
2, 9840, Note_on_c, 0, 57, 111
2, 9960, Note_off_c, 0, 57, 80
2, 9960, Note_on_c, 0, 58, 111
2, 10080, Note_off_c, 0, 58, 80
2, 10080, Note_on_c, 0, 60, 111
2, 10080, Note_on_c, 0, 53, 111
2, 10200, Note_off_c, 0, 60, 80
2, 10200, Note_off_c, 0, 53, 80
2, 10200, Note_on_c, 0, 48, 111
2, 10320, Note_off_c, 0, 48, 80
2, 10320, Note_on_c, 0, 65, 111
2, 10320, Note_on_c, 0, 57, 111
2, 10320, Note_on_c, 0, 53, 111
2, 10560, Note_off_c, 0, 65, 80
2, 10560, Note_off_c, 0, 57, 80
2, 10560, Note_off_c, 0, 53, 80
2, 10560, Note_on_c, 0, 58, 111
2, 10560, Note_on_c, 0, 52, 111
2, 10680, Note_off_c, 0, 58, 80
2, 10680, Note_off_c, 0, 52, 80
2, 10680, Note_on_c, 0, 48, 111
2, 10800, Note_off_c, 0, 48, 80
2, 10800, Note_on_c, 0, 57, 111
2, 10800, Note_on_c, 0, 53, 111
2, 10920, Note_off_c, 0, 57, 80
2, 10920, Note_off_c, 0, 53, 80
2, 10920, Note_on_c, 0, 48, 111
2, 11040, Note_off_c, 0, 48, 80
2, 11040, Note_on_c, 0, 55, 111
2, 11160, Note_off_c, 0, 55, 80
2, 11160, Note_on_c, 0, 48, 111
2, 11280, Note_off_c, 0, 48, 80
2, 11280, Note_on_c, 0, 64, 111
2, 11280, Note_on_c, 0, 58, 111
2, 11280, Note_on_c, 0, 52, 111
2, 11520, Note_off_c, 0, 64, 80
2, 11520, Note_off_c, 0, 58, 80
2, 11520, Note_off_c, 0, 52, 80
2, 11520, Note_on_c, 0, 65, 111
2, 11520, Note_on_c, 0, 57, 111
2, 11520, Note_on_c, 0, 53, 111
2, 11760, Note_off_c, 0, 65, 80
2, 11760, Note_off_c, 0, 57, 80
2, 11760, Note_off_c, 0, 53, 80
2, 11760, Note_on_c, 0, 62, 111
2, 11760, Note_on_c, 0, 53, 111
2, 11760, Note_on_c, 0, 50, 111
2, 11880, Note_off_c, 0, 62, 80
2, 11880, Note_off_c, 0, 53, 80
2, 11880, Note_off_c, 0, 50, 80
2, 11880, Note_on_c, 0, 60, 111
2, 12000, Note_off_c, 0, 60, 80
2, 12000, Note_on_c, 0, 62, 111
2, 12000, Note_on_c, 0, 53, 111
2, 12000, Note_on_c, 0, 50, 111
2, 12240, Note_off_c, 0, 62, 80
2, 12240, Note_off_c, 0, 53, 80
2, 12240, Note_off_c, 0, 50, 80
2, 12240, Note_on_c, 0, 65, 111
2, 12240, Note_on_c, 0, 58, 111
2, 12240, Note_on_c, 0, 53, 111
2, 12480, Note_off_c, 0, 65, 80
2, 12480, Note_off_c, 0, 58, 80
2, 12480, Note_off_c, 0, 53, 80
2, 12480, Note_on_c, 0, 67, 111
2, 12480, Note_on_c, 0, 59, 111
2, 12480, Note_on_c, 0, 53, 111
2, 12720, Note_off_c, 0, 67, 80
2, 12720, Note_off_c, 0, 59, 80
2, 12720, Note_off_c, 0, 53, 80
2, 12720, Note_on_c, 0, 62, 111
2, 12720, Note_on_c, 0, 59, 111
2, 12720, Note_on_c, 0, 53, 111
2, 12840, Note_off_c, 0, 62, 80
2, 12840, Note_off_c, 0, 59, 80
2, 12840, Note_off_c, 0, 53, 80
2, 12840, Note_on_c, 0, 57, 111
2, 12960, Note_off_c, 0, 57, 80
2, 12960, Note_on_c, 0, 59, 111
2, 12960, Note_on_c, 0, 55, 111
2, 12960, Note_on_c, 0, 53, 111
2, 13200, Note_off_c, 0, 59, 80
2, 13200, Note_off_c, 0, 55, 80
2, 13200, Note_off_c, 0, 53, 80
2, 13200, Note_on_c, 0, 65, 111
2, 13200, Note_on_c, 0, 59, 111
2, 13200, Note_on_c, 0, 53, 111
2, 13440, Note_off_c, 0, 65, 80
2, 13440, Note_off_c, 0, 59, 80
2, 13440, Note_off_c, 0, 53, 80
2, 13440, Note_on_c, 0, 64, 111
2, 13440, Note_on_c, 0, 55, 111
2, 13440, Note_on_c, 0, 52, 111
2, 13680, Note_off_c, 0, 64, 80
2, 13680, Note_off_c, 0, 55, 80
2, 13680, Note_off_c, 0, 52, 80
2, 13680, Note_on_c, 0, 62, 111
2, 13680, Note_on_c, 0, 53, 111
2, 13800, Note_off_c, 0, 62, 80
2, 13800, Note_off_c, 0, 53, 80
2, 13800, Note_on_c, 0, 60, 111
2, 13800, Note_on_c, 0, 52, 111
2, 13920, Note_off_c, 0, 60, 80
2, 13920, Note_off_c, 0, 52, 80
2, 13920, Note_on_c, 0, 62, 111
2, 13920, Note_on_c, 0, 57, 111
2, 13920, Note_on_c, 0, 50, 111
2, 14160, Note_off_c, 0, 62, 80
2, 14160, Note_off_c, 0, 57, 80
2, 14160, Note_off_c, 0, 50, 80
2, 14160, Note_on_c, 0, 55, 111
2, 14160, Note_on_c, 0, 53, 111
2, 14160, Note_on_c, 0, 47, 111
2, 14400, Note_off_c, 0, 55, 80
2, 14400, Note_off_c, 0, 53, 80
2, 14400, Note_off_c, 0, 47, 80
2, 14400, Note_on_c, 0, 60, 111
2, 14400, Note_on_c, 0, 52, 111
2, 14400, Note_on_c, 0, 48, 111
2, 14880, Note_off_c, 0, 60, 80
2, 14880, Note_off_c, 0, 52, 80
2, 14880, Note_off_c, 0, 48, 80
2, 15360, Note_on_c, 0, 55, 111
2, 15360, Note_on_c, 0, 52, 111
2, 15480, Note_off_c, 0, 55, 80
2, 15480, Note_off_c, 0, 52, 80
2, 15480, Note_on_c, 0, 41, 111
2, 15600, Note_off_c, 0, 41, 80
2, 15600, Note_on_c, 0, 52, 111
2, 15600, Note_on_c, 0, 48, 111
2, 15720, Note_off_c, 0, 52, 80
2, 15720, Note_off_c, 0, 48, 80
2, 15720, Note_on_c, 0, 53, 111
2, 15720, Note_on_c, 0, 50, 111
2, 15840, Note_off_c, 0, 53, 80
2, 15840, Note_off_c, 0, 50, 80
2, 15840, Note_on_c, 0, 55, 111
2, 15840, Note_on_c, 0, 52, 111
2, 15960, Note_off_c, 0, 55, 80
2, 15960, Note_off_c, 0, 52, 80
2, 15960, Note_on_c, 0, 41, 111
2, 16080, Note_off_c, 0, 41, 80
2, 16080, Note_on_c, 0, 60, 111
2, 16080, Note_on_c, 0, 52, 111
2, 16080, Note_on_c, 0, 48, 111
2, 16320, Note_off_c, 0, 60, 80
2, 16320, Note_off_c, 0, 52, 80
2, 16320, Note_off_c, 0, 48, 80
2, 16320, Note_on_c, 0, 59, 111
2, 16320, Note_on_c, 0, 53, 111
2, 16320, Note_on_c, 0, 47, 111
2, 16560, Note_off_c, 0, 59, 80
2, 16560, Note_off_c, 0, 53, 80
2, 16560, Note_off_c, 0, 47, 80
2, 16560, Note_on_c, 0, 57, 111
2, 16560, Note_on_c, 0, 53, 111
2, 16560, Note_on_c, 0, 45, 111
2, 16800, Note_off_c, 0, 57, 80
2, 16800, Note_off_c, 0, 53, 80
2, 16800, Note_off_c, 0, 45, 80
2, 16800, Note_on_c, 0, 55, 111
2, 16800, Note_on_c, 0, 53, 111
2, 16800, Note_on_c, 0, 47, 111
2, 17280, Note_off_c, 0, 55, 80
2, 17280, Note_off_c, 0, 53, 80
2, 17280, Note_off_c, 0, 47, 80
2, 17280, Note_on_c, 0, 55, 111
2, 17280, Note_on_c, 0, 48, 111
2, 17400, Note_off_c, 0, 55, 80
2, 17400, Note_off_c, 0, 48, 80
2, 17400, Note_on_c, 0, 41, 111
2, 17520, Note_off_c, 0, 41, 80
2, 17520, Note_on_c, 0, 52, 111
2, 17640, Note_off_c, 0, 52, 80
2, 17640, Note_on_c, 0, 53, 111
2, 17760, Note_off_c, 0, 53, 80
2, 17760, Note_on_c, 0, 55, 111
2, 17760, Note_on_c, 0, 48, 111
2, 17880, Note_off_c, 0, 55, 80
2, 17880, Note_off_c, 0, 48, 80
2, 17880, Note_on_c, 0, 41, 111
2, 18000, Note_off_c, 0, 41, 80
2, 18000, Note_on_c, 0, 60, 111
2, 18000, Note_on_c, 0, 52, 111
2, 18000, Note_on_c, 0, 48, 111
2, 18240, Note_off_c, 0, 60, 80
2, 18240, Note_off_c, 0, 52, 80
2, 18240, Note_off_c, 0, 48, 80
2, 18240, Note_on_c, 0, 59, 111
2, 18240, Note_on_c, 0, 53, 111
2, 18240, Note_on_c, 0, 47, 111
2, 18480, Note_off_c, 0, 59, 80
2, 18480, Note_off_c, 0, 53, 80
2, 18480, Note_off_c, 0, 47, 80
2, 18480, Note_on_c, 0, 57, 111
2, 18480, Note_on_c, 0, 53, 111
2, 18480, Note_on_c, 0, 45, 111
2, 18720, Note_off_c, 0, 57, 80
2, 18720, Note_off_c, 0, 53, 80
2, 18720, Note_off_c, 0, 45, 80
2, 18720, Note_on_c, 0, 55, 111
2, 18720, Note_on_c, 0, 53, 111
2, 18720, Note_on_c, 0, 47, 111
2, 19200, Note_off_c, 0, 55, 80
2, 19200, Note_off_c, 0, 53, 80
2, 19200, Note_off_c, 0, 47, 80
2, 19200, Note_on_c, 0, 60, 111
2, 19200, Note_on_c, 0, 52, 111
2, 19200, Note_on_c, 0, 48, 111
2, 19440, Note_off_c, 0, 60, 80
2, 19440, Note_off_c, 0, 52, 80
2, 19440, Note_off_c, 0, 48, 80
2, 19440, Note_on_c, 0, 64, 111
2, 19440, Note_on_c, 0, 55, 111
2, 19440, Note_on_c, 0, 52, 111
2, 19560, Note_off_c, 0, 64, 80
2, 19560, Note_off_c, 0, 55, 80
2, 19560, Note_off_c, 0, 52, 80
2, 19560, Note_on_c, 0, 62, 111
2, 19560, Note_on_c, 0, 53, 111
2, 19680, Note_off_c, 0, 62, 80
2, 19680, Note_off_c, 0, 53, 80
2, 19680, Note_on_c, 0, 60, 111
2, 19680, Note_on_c, 0, 52, 111
2, 19920, Note_off_c, 0, 60, 80
2, 19920, Note_off_c, 0, 52, 80
2, 19920, Note_on_c, 0, 55, 111
2, 20160, Note_off_c, 0, 55, 80
2, 20160, Note_on_c, 0, 57, 111
2, 20160, Note_on_c, 0, 48, 111
2, 20160, Note_on_c, 0, 43, 111
2, 20400, Note_off_c, 0, 57, 80
2, 20400, Note_off_c, 0, 48, 80
2, 20400, Note_off_c, 0, 43, 80
2, 20400, Note_on_c, 0, 57, 111
2, 20400, Note_on_c, 0, 48, 111
2, 20520, Note_off_c, 0, 57, 80
2, 20520, Note_off_c, 0, 48, 80
2, 20520, Note_on_c, 0, 56, 111
2, 20640, Note_off_c, 0, 56, 80
2, 20640, Note_on_c, 0, 57, 111
2, 20640, Note_on_c, 0, 48, 111
2, 20880, Note_off_c, 0, 57, 80
2, 20880, Note_off_c, 0, 48, 80
2, 20880, Note_on_c, 0, 50, 111
2, 20880, Note_on_c, 0, 45, 111
2, 21000, Note_off_c, 0, 50, 80
2, 21000, Note_off_c, 0, 45, 80
2, 21000, Note_on_c, 0, 48, 111
2, 21120, Note_off_c, 0, 48, 80
2, 21120, Note_on_c, 0, 50, 111
2, 21120, Note_on_c, 0, 47, 111
2, 21360, Note_off_c, 0, 50, 80
2, 21360, Note_off_c, 0, 47, 80
2, 21360, Note_on_c, 0, 52, 111
2, 21360, Note_on_c, 0, 48, 111
2, 21600, Note_off_c, 0, 52, 80
2, 21600, Note_off_c, 0, 48, 80
2, 21600, Note_on_c, 0, 53, 111
2, 21600, Note_on_c, 0, 47, 111
2, 21720, Note_off_c, 0, 53, 80
2, 21720, Note_off_c, 0, 47, 80
2, 21720, Note_on_c, 0, 45, 111
2, 21840, Note_off_c, 0, 45, 80
2, 21840, Note_on_c, 0, 55, 111
2, 21840, Note_on_c, 0, 47, 111
2, 21840, Note_on_c, 0, 41, 111
2, 22080, Note_off_c, 0, 55, 80
2, 22080, Note_off_c, 0, 47, 80
2, 22080, Note_off_c, 0, 41, 80
2, 22080, Note_on_c, 0, 52, 111
2, 22080, Note_on_c, 0, 48, 111
2, 22080, Note_on_c, 0, 41, 111
2, 22560, Note_off_c, 0, 52, 80
2, 22560, Note_off_c, 0, 48, 80
2, 22560, Note_off_c, 0, 41, 80
2, 22800, Note_on_c, 0, 67, 111
2, 22800, Note_on_c, 0, 58, 111
2, 22920, Note_off_c, 0, 67, 80
2, 22920, Note_off_c, 0, 58, 80
2, 22920, Note_on_c, 0, 57, 111
2, 23040, Note_off_c, 0, 57, 80
2, 23040, Note_on_c, 0, 58, 111
2, 23040, Note_on_c, 0, 52, 111
2, 23160, Note_off_c, 0, 58, 80
2, 23160, Note_off_c, 0, 52, 80
2, 23160, Note_on_c, 0, 48, 111
2, 23280, Note_off_c, 0, 48, 80
2, 23280, Note_on_c, 0, 57, 111
2, 23280, Note_on_c, 0, 53, 111
2, 23400, Note_off_c, 0, 57, 80
2, 23400, Note_off_c, 0, 53, 80
2, 23400, Note_on_c, 0, 48, 111
2, 23520, Note_off_c, 0, 48, 80
2, 23520, Note_on_c, 0, 58, 111
2, 23520, Note_on_c, 0, 52, 111
2, 23640, Note_off_c, 0, 58, 80
2, 23640, Note_off_c, 0, 52, 80
2, 23640, Note_on_c, 0, 48, 111
2, 23760, Note_off_c, 0, 48, 80
2, 23760, Note_on_c, 0, 67, 111
2, 23760, Note_on_c, 0, 58, 111
2, 23760, Note_on_c, 0, 55, 111
2, 24000, Note_off_c, 0, 67, 80
2, 24000, Note_off_c, 0, 58, 80
2, 24000, Note_off_c, 0, 55, 80
2, 24000, Note_on_c, 0, 58, 111
2, 24000, Note_on_c, 0, 52, 111
2, 24240, Note_off_c, 0, 58, 80
2, 24240, Note_off_c, 0, 52, 80
2, 24240, Note_on_c, 0, 57, 111
2, 24240, Note_on_c, 0, 48, 111
2, 24360, Note_off_c, 0, 57, 80
2, 24360, Note_off_c, 0, 48, 80
2, 24360, Note_on_c, 0, 55, 111
2, 24480, Note_off_c, 0, 55, 80
2, 24480, Note_on_c, 0, 57, 111
2, 24480, Note_on_c, 0, 48, 111
2, 24720, Note_off_c, 0, 57, 80
2, 24720, Note_off_c, 0, 48, 80
2, 24720, Note_on_c, 0, 60, 111
2, 24720, Note_on_c, 0, 53, 111
2, 24720, Note_on_c, 0, 48, 111
2, 24960, Note_off_c, 0, 60, 80
2, 24960, Note_off_c, 0, 53, 80
2, 24960, Note_off_c, 0, 48, 80
2, 24960, Note_on_c, 0, 63, 111
2, 24960, Note_on_c, 0, 57, 111
2, 25080, Note_off_c, 0, 63, 80
2, 25080, Note_off_c, 0, 57, 80
2, 25080, Note_on_c, 0, 53, 111
2, 25200, Note_off_c, 0, 53, 80
2, 25200, Note_on_c, 0, 60, 111
2, 25320, Note_off_c, 0, 60, 80
2, 25320, Note_on_c, 0, 53, 111
2, 25440, Note_off_c, 0, 53, 80
2, 25440, Note_on_c, 0, 57, 111
2, 25560, Note_off_c, 0, 57, 80
2, 25560, Note_on_c, 0, 53, 111
2, 25680, Note_off_c, 0, 53, 80
2, 25680, Note_on_c, 0, 63, 111
2, 25680, Note_on_c, 0, 57, 111
2, 25920, Note_off_c, 0, 63, 80
2, 25920, Note_off_c, 0, 57, 80
2, 25920, Note_on_c, 0, 63, 111
2, 25920, Note_on_c, 0, 57, 111
2, 26160, Note_off_c, 0, 63, 80
2, 26160, Note_off_c, 0, 57, 80
2, 26160, Note_on_c, 0, 62, 111
2, 26160, Note_on_c, 0, 53, 111
2, 26280, Note_off_c, 0, 62, 80
2, 26280, Note_off_c, 0, 53, 80
2, 26280, Note_on_c, 0, 60, 111
2, 26400, Note_off_c, 0, 60, 80
2, 26400, Note_on_c, 0, 62, 111
2, 26400, Note_on_c, 0, 53, 111
2, 26640, Note_off_c, 0, 62, 80
2, 26640, Note_off_c, 0, 53, 80
2, 26640, Note_on_c, 0, 62, 111
2, 26640, Note_on_c, 0, 53, 111
2, 26640, Note_on_c, 0, 50, 111
2, 26880, Note_off_c, 0, 62, 80
2, 26880, Note_off_c, 0, 53, 80
2, 26880, Note_off_c, 0, 50, 80
2, 26880, Note_on_c, 0, 55, 111
2, 26880, Note_on_c, 0, 53, 111
2, 26880, Note_on_c, 0, 50, 111
2, 27120, Note_off_c, 0, 55, 80
2, 27120, Note_off_c, 0, 53, 80
2, 27120, Note_off_c, 0, 50, 80
2, 27120, Note_on_c, 0, 64, 111
2, 27120, Note_on_c, 0, 59, 111
2, 27120, Note_on_c, 0, 53, 111
2, 27360, Note_off_c, 0, 64, 80
2, 27360, Note_off_c, 0, 59, 80
2, 27360, Note_off_c, 0, 53, 80
2, 27360, Note_on_c, 0, 64, 111
2, 27360, Note_on_c, 0, 59, 111
2, 27360, Note_on_c, 0, 55, 111
2, 27600, Note_off_c, 0, 64, 80
2, 27600, Note_off_c, 0, 59, 80
2, 27600, Note_off_c, 0, 55, 80
2, 27600, Note_on_c, 0, 62, 111
2, 27600, Note_on_c, 0, 55, 111
2, 27600, Note_on_c, 0, 53, 111
2, 27840, Note_off_c, 0, 62, 80
2, 27840, Note_off_c, 0, 55, 80
2, 27840, Note_off_c, 0, 53, 80
2, 27840, Note_on_c, 0, 57, 111
2, 27840, Note_on_c, 0, 55, 111
2, 27840, Note_on_c, 0, 52, 111
2, 28080, Note_off_c, 0, 57, 80
2, 28080, Note_off_c, 0, 55, 80
2, 28080, Note_off_c, 0, 52, 80
2, 28080, Note_on_c, 0, 67, 111
2, 28080, Note_on_c, 0, 61, 111
2, 28080, Note_on_c, 0, 55, 111
2, 28320, Note_off_c, 0, 67, 80
2, 28320, Note_off_c, 0, 61, 80
2, 28320, Note_off_c, 0, 55, 80
2, 28320, Note_on_c, 0, 65, 111
2, 28320, Note_on_c, 0, 60, 111
2, 28320, Note_on_c, 0, 57, 111
2, 28560, Note_off_c, 0, 65, 80
2, 28560, Note_off_c, 0, 60, 80
2, 28560, Note_off_c, 0, 57, 80
2, 28560, Note_on_c, 0, 64, 111
2, 28560, Note_on_c, 0, 60, 111
2, 28560, Note_on_c, 0, 57, 111
2, 28560, Note_on_c, 0, 55, 111
2, 28800, Note_off_c, 0, 64, 80
2, 28800, Note_off_c, 0, 60, 80
2, 28800, Note_off_c, 0, 57, 80
2, 28800, Note_off_c, 0, 55, 80
2, 28800, Note_on_c, 0, 69, 111
2, 28800, Note_on_c, 0, 62, 111
2, 28800, Note_on_c, 0, 57, 111
2, 29040, Note_off_c, 0, 69, 80
2, 29040, Note_off_c, 0, 62, 80
2, 29040, Note_off_c, 0, 57, 80
2, 29040, Note_on_c, 0, 61, 111
2, 29040, Note_on_c, 0, 55, 111
2, 29040, Note_on_c, 0, 52, 111
2, 29280, Note_off_c, 0, 61, 80
2, 29280, Note_off_c, 0, 55, 80
2, 29280, Note_off_c, 0, 52, 80
2, 29280, Note_on_c, 0, 62, 111
2, 29280, Note_on_c, 0, 57, 111
2, 29280, Note_on_c, 0, 53, 111
2, 29520, Note_off_c, 0, 62, 80
2, 29520, Note_off_c, 0, 57, 80
2, 29520, Note_off_c, 0, 53, 80
2, 29520, Note_on_c, 0, 65, 111
2, 29520, Note_on_c, 0, 56, 111
2, 29520, Note_on_c, 0, 53, 111
2, 29760, Note_off_c, 0, 65, 80
2, 29760, Note_off_c, 0, 56, 80
2, 29760, Note_off_c, 0, 53, 80
2, 29760, Note_on_c, 0, 64, 111
2, 29760, Note_on_c, 0, 57, 111
2, 29760, Note_on_c, 0, 52, 111
2, 29880, Note_off_c, 0, 64, 80
2, 29880, Note_off_c, 0, 57, 80
2, 29880, Note_off_c, 0, 52, 80
2, 29880, Note_on_c, 0, 58, 111
2, 30000, Note_off_c, 0, 58, 80
2, 30000, Note_on_c, 0, 57, 111
2, 30120, Note_off_c, 0, 57, 80
2, 30120, Note_on_c, 0, 55, 111
2, 30240, Note_off_c, 0, 55, 80
2, 30240, Note_on_c, 0, 53, 111
2, 30360, Note_off_c, 0, 53, 80
2, 30360, Note_on_c, 0, 52, 111
2, 30480, Note_off_c, 0, 52, 80
2, 30480, Note_on_c, 0, 57, 111
2, 30480, Note_on_c, 0, 49, 111
2, 30720, Note_off_c, 0, 57, 80
2, 30720, Note_off_c, 0, 49, 80
2, 30720, Note_on_c, 0, 58, 111
2, 30720, Note_on_c, 0, 50, 111
2, 30960, Note_off_c, 0, 58, 80
2, 30960, Note_off_c, 0, 50, 80
2, 30960, Note_on_c, 0, 57, 111
2, 30960, Note_on_c, 0, 52, 111
2, 31080, Note_off_c, 0, 57, 80
2, 31080, Note_off_c, 0, 52, 80
2, 31080, Note_on_c, 0, 55, 111
2, 31200, Note_off_c, 0, 55, 80
2, 31200, Note_on_c, 0, 56, 111
2, 31200, Note_on_c, 0, 50, 111
2, 31440, Note_off_c, 0, 56, 80
2, 31440, Note_off_c, 0, 50, 80
2, 31440, Note_on_c, 0, 57, 111
2, 31440, Note_on_c, 0, 49, 111
2, 31680, Note_off_c, 0, 57, 80
2, 31680, Note_off_c, 0, 49, 80
2, 31680, Note_on_c, 0, 67, 111
2, 31680, Note_on_c, 0, 58, 111
2, 31680, Note_on_c, 0, 55, 111
2, 31920, Note_off_c, 0, 67, 80
2, 31920, Note_off_c, 0, 58, 80
2, 31920, Note_off_c, 0, 55, 80
2, 31920, Note_on_c, 0, 64, 111
2, 31920, Note_on_c, 0, 55, 111
2, 31920, Note_on_c, 0, 52, 111
2, 32160, Note_off_c, 0, 64, 80
2, 32160, Note_off_c, 0, 55, 80
2, 32160, Note_off_c, 0, 52, 80
2, 32160, Note_on_c, 0, 61, 111
2, 32400, Note_off_c, 0, 61, 80
2, 32400, Note_on_c, 0, 57, 111
2, 32400, Note_on_c, 0, 49, 111
2, 32640, Note_off_c, 0, 57, 80
2, 32640, Note_off_c, 0, 49, 80
2, 32640, Note_on_c, 0, 58, 111
2, 32640, Note_on_c, 0, 50, 111
2, 32880, Note_off_c, 0, 58, 80
2, 32880, Note_off_c, 0, 50, 80
2, 32880, Note_on_c, 0, 57, 111
2, 32880, Note_on_c, 0, 52, 111
2, 33000, Note_off_c, 0, 57, 80
2, 33000, Note_off_c, 0, 52, 80
2, 33000, Note_on_c, 0, 55, 111
2, 33120, Note_off_c, 0, 55, 80
2, 33120, Note_on_c, 0, 56, 111
2, 33120, Note_on_c, 0, 50, 111
2, 33360, Note_off_c, 0, 56, 80
2, 33360, Note_off_c, 0, 50, 80
2, 33360, Note_on_c, 0, 57, 111
2, 33360, Note_on_c, 0, 49, 111
2, 33600, Note_off_c, 0, 57, 80
2, 33600, Note_off_c, 0, 49, 80
2, 33600, Note_on_c, 0, 67, 111
2, 33600, Note_on_c, 0, 57, 111
2, 33720, Note_off_c, 0, 67, 80
2, 33720, Note_off_c, 0, 57, 80
2, 33720, Note_on_c, 0, 58, 111
2, 33840, Note_off_c, 0, 58, 80
2, 33840, Note_on_c, 0, 64, 111
2, 33840, Note_on_c, 0, 57, 111
2, 33960, Note_off_c, 0, 64, 80
2, 33960, Note_off_c, 0, 57, 80
2, 33960, Note_on_c, 0, 55, 111
2, 34080, Note_off_c, 0, 55, 80
2, 34080, Note_on_c, 0, 61, 111
2, 34200, Note_off_c, 0, 61, 80
2, 34200, Note_on_c, 0, 58, 111
2, 34320, Note_off_c, 0, 58, 80
2, 34320, Note_on_c, 0, 57, 111
2, 34320, Note_on_c, 0, 49, 111
2, 34440, Note_off_c, 0, 57, 80
2, 34440, Note_off_c, 0, 49, 80
2, 34440, Note_on_c, 0, 55, 111
2, 34560, Note_off_c, 0, 55, 80
2, 34560, Note_on_c, 0, 62, 111
2, 34560, Note_on_c, 0, 53, 111
2, 34560, Note_on_c, 0, 50, 111
2, 34800, Note_off_c, 0, 62, 80
2, 34800, Note_off_c, 0, 53, 80
2, 34800, Note_off_c, 0, 50, 80
2, 34800, Note_on_c, 0, 65, 111
2, 34800, Note_on_c, 0, 57, 111
2, 34800, Note_on_c, 0, 53, 111
2, 34920, Note_off_c, 0, 65, 80
2, 34920, Note_off_c, 0, 57, 80
2, 34920, Note_off_c, 0, 53, 80
2, 34920, Note_on_c, 0, 64, 111
2, 34920, Note_on_c, 0, 55, 111
2, 35040, Note_off_c, 0, 64, 80
2, 35040, Note_off_c, 0, 55, 80
2, 35040, Note_on_c, 0, 62, 111
2, 35040, Note_on_c, 0, 53, 111
2, 35280, Note_off_c, 0, 62, 80
2, 35280, Note_off_c, 0, 53, 80
2, 35280, Note_on_c, 0, 62, 111
2, 35280, Note_on_c, 0, 57, 111
2, 35280, Note_on_c, 0, 53, 111
2, 35520, Note_off_c, 0, 62, 80
2, 35520, Note_off_c, 0, 57, 80
2, 35520, Note_off_c, 0, 53, 80
2, 35520, Note_on_c, 0, 55, 111
2, 35520, Note_on_c, 0, 50, 111
2, 35640, Note_off_c, 0, 55, 80
2, 35640, Note_off_c, 0, 50, 80
2, 35640, Note_on_c, 0, 57, 111
2, 35760, Note_off_c, 0, 57, 80
2, 35760, Note_on_c, 0, 55, 111
2, 35880, Note_off_c, 0, 55, 80
2, 35880, Note_on_c, 0, 53, 111
2, 36000, Note_off_c, 0, 53, 80
2, 36000, Note_on_c, 0, 64, 111
2, 36000, Note_on_c, 0, 55, 111
2, 36000, Note_on_c, 0, 52, 111
2, 36240, Note_off_c, 0, 64, 80
2, 36240, Note_off_c, 0, 55, 80
2, 36240, Note_off_c, 0, 52, 80
2, 36240, Note_on_c, 0, 65, 111
2, 36240, Note_on_c, 0, 53, 111
2, 36360, Note_off_c, 0, 65, 80
2, 36360, Note_off_c, 0, 53, 80
2, 36360, Note_on_c, 0, 67, 111
2, 36360, Note_on_c, 0, 55, 111
2, 36480, Note_off_c, 0, 67, 80
2, 36480, Note_off_c, 0, 55, 80
2, 36480, Note_on_c, 0, 65, 111
2, 36480, Note_on_c, 0, 53, 111
2, 36600, Note_off_c, 0, 65, 80
2, 36600, Note_off_c, 0, 53, 80
2, 36600, Note_on_c, 0, 57, 111
2, 36720, Note_off_c, 0, 57, 80
2, 36720, Note_on_c, 0, 64, 111
2, 36720, Note_on_c, 0, 55, 111
2, 36840, Note_off_c, 0, 64, 80
2, 36840, Note_off_c, 0, 55, 80
2, 36840, Note_on_c, 0, 62, 111
2, 36840, Note_on_c, 0, 53, 111
2, 36960, Note_off_c, 0, 62, 80
2, 36960, Note_off_c, 0, 53, 80
2, 36960, Note_on_c, 0, 64, 111
2, 36960, Note_on_c, 0, 55, 111
2, 36960, Note_on_c, 0, 52, 111
2, 37200, Note_off_c, 0, 64, 80
2, 37200, Note_off_c, 0, 55, 80
2, 37200, Note_off_c, 0, 52, 80
2, 37200, Note_on_c, 0, 61, 111
2, 37440, Note_off_c, 0, 61, 80
2, 37440, Note_on_c, 0, 53, 111
2, 37460, Note_on_c, 0, 57, 111
2, 37480, Note_on_c, 0, 62, 111
2, 37920, Note_off_c, 0, 53, 80
2, 37920, Note_off_c, 0, 57, 80
2, 37920, Note_off_c, 0, 62, 80
2, 38400, Note_on_c, 0, 57, 111
2, 38400, Note_on_c, 0, 50, 111
2, 38520, Note_off_c, 0, 57, 80
2, 38520, Note_off_c, 0, 50, 80
2, 38520, Note_on_c, 0, 45, 111
2, 38640, Note_off_c, 0, 45, 80
2, 38640, Note_on_c, 0, 53, 111
2, 38760, Note_off_c, 0, 53, 80
2, 38760, Note_on_c, 0, 55, 111
2, 38880, Note_off_c, 0, 55, 80
2, 38880, Note_on_c, 0, 57, 111
2, 38880, Note_on_c, 0, 50, 111
2, 39000, Note_off_c, 0, 57, 80
2, 39000, Note_off_c, 0, 50, 80
2, 39000, Note_on_c, 0, 45, 111
2, 39120, Note_off_c, 0, 45, 80
2, 39120, Note_on_c, 0, 62, 111
2, 39120, Note_on_c, 0, 53, 111
2, 39120, Note_on_c, 0, 50, 111
2, 39360, Note_off_c, 0, 62, 80
2, 39360, Note_off_c, 0, 53, 80
2, 39360, Note_off_c, 0, 50, 80
2, 39360, Note_on_c, 0, 55, 111
2, 39480, Note_off_c, 0, 55, 80
2, 39480, Note_on_c, 0, 45, 111
2, 39600, Note_off_c, 0, 45, 80
2, 39600, Note_on_c, 0, 53, 111
2, 39720, Note_off_c, 0, 53, 80
2, 39720, Note_on_c, 0, 45, 111
2, 39840, Note_off_c, 0, 45, 80
2, 39840, Note_on_c, 0, 52, 111
2, 39960, Note_off_c, 0, 52, 80
2, 39960, Note_on_c, 0, 45, 111
2, 40080, Note_off_c, 0, 45, 80
2, 40080, Note_on_c, 0, 57, 111
2, 40080, Note_on_c, 0, 49, 111
2, 40200, Note_off_c, 0, 57, 80
2, 40200, Note_off_c, 0, 49, 80
2, 40200, Note_on_c, 0, 45, 111
2, 40320, Note_off_c, 0, 45, 80
2, 40320, Note_on_c, 0, 57, 111
2, 40320, Note_on_c, 0, 50, 111
2, 40440, Note_off_c, 0, 57, 80
2, 40440, Note_off_c, 0, 50, 80
2, 40440, Note_on_c, 0, 45, 111
2, 40560, Note_off_c, 0, 45, 80
2, 40560, Note_on_c, 0, 53, 111
2, 40680, Note_off_c, 0, 53, 80
2, 40680, Note_on_c, 0, 55, 111
2, 40800, Note_off_c, 0, 55, 80
2, 40800, Note_on_c, 0, 57, 111
2, 40800, Note_on_c, 0, 50, 111
2, 40920, Note_off_c, 0, 57, 80
2, 40920, Note_off_c, 0, 50, 80
2, 40920, Note_on_c, 0, 45, 111
2, 41040, Note_off_c, 0, 45, 80
2, 41040, Note_on_c, 0, 62, 111
2, 41040, Note_on_c, 0, 53, 111
2, 41040, Note_on_c, 0, 50, 111
2, 41280, Note_off_c, 0, 62, 80
2, 41280, Note_off_c, 0, 53, 80
2, 41280, Note_off_c, 0, 50, 80
2, 41280, Note_on_c, 0, 55, 111
2, 41280, Note_on_c, 0, 49, 111
2, 41400, Note_off_c, 0, 55, 80
2, 41400, Note_off_c, 0, 49, 80
2, 41400, Note_on_c, 0, 45, 111
2, 41520, Note_off_c, 0, 45, 80
2, 41520, Note_on_c, 0, 53, 111
2, 41520, Note_on_c, 0, 50, 111
2, 41640, Note_off_c, 0, 53, 80
2, 41640, Note_off_c, 0, 50, 80
2, 41640, Note_on_c, 0, 45, 111
2, 41760, Note_off_c, 0, 45, 80
2, 41760, Note_on_c, 0, 52, 111
2, 41880, Note_off_c, 0, 52, 80
2, 41880, Note_on_c, 0, 45, 111
2, 42000, Note_off_c, 0, 45, 80
2, 42000, Note_on_c, 0, 57, 111
2, 42000, Note_on_c, 0, 49, 111
2, 42120, Note_off_c, 0, 57, 80
2, 42120, Note_off_c, 0, 49, 80
2, 42120, Note_on_c, 0, 45, 111
2, 42240, Note_off_c, 0, 45, 80
2, 42240, Note_on_c, 0, 62, 111
2, 42240, Note_on_c, 0, 53, 111
2, 42240, Note_on_c, 0, 50, 111
2, 42480, Note_off_c, 0, 62, 80
2, 42480, Note_off_c, 0, 53, 80
2, 42480, Note_off_c, 0, 50, 80
2, 42480, Note_on_c, 0, 65, 111
2, 42480, Note_on_c, 0, 57, 111
2, 42480, Note_on_c, 0, 53, 111
2, 42600, Note_off_c, 0, 65, 80
2, 42600, Note_off_c, 0, 57, 80
2, 42600, Note_off_c, 0, 53, 80
2, 42600, Note_on_c, 0, 64, 111
2, 42600, Note_on_c, 0, 55, 111
2, 42600, Note_on_c, 0, 52, 111
2, 42720, Note_off_c, 0, 64, 80
2, 42720, Note_off_c, 0, 55, 80
2, 42720, Note_off_c, 0, 52, 80
2, 42720, Note_on_c, 0, 62, 111
2, 42720, Note_on_c, 0, 53, 111
2, 42720, Note_on_c, 0, 50, 111
2, 42960, Note_off_c, 0, 62, 80
2, 42960, Note_off_c, 0, 53, 80
2, 42960, Note_off_c, 0, 50, 80
2, 42960, Note_on_c, 0, 62, 111
2, 42960, Note_on_c, 0, 53, 111
2, 42960, Note_on_c, 0, 50, 111
2, 43200, Note_off_c, 0, 62, 80
2, 43200, Note_off_c, 0, 53, 80
2, 43200, Note_off_c, 0, 50, 80
2, 43200, Note_on_c, 0, 52, 111
2, 43200, Note_on_c, 0, 50, 111
2, 43320, Note_off_c, 0, 52, 80
2, 43320, Note_off_c, 0, 50, 80
2, 43320, Note_on_c, 0, 53, 111
2, 43440, Note_off_c, 0, 53, 80
2, 43440, Note_on_c, 0, 52, 111
2, 43560, Note_off_c, 0, 52, 80
2, 43560, Note_on_c, 0, 50, 111
2, 43680, Note_off_c, 0, 50, 80
2, 43680, Note_on_c, 0, 64, 111
2, 43680, Note_on_c, 0, 55, 111
2, 43680, Note_on_c, 0, 52, 111
2, 43920, Note_off_c, 0, 64, 80
2, 43920, Note_off_c, 0, 55, 80
2, 43920, Note_off_c, 0, 52, 80
2, 43920, Note_on_c, 0, 65, 111
2, 43920, Note_on_c, 0, 53, 111
2, 44040, Note_off_c, 0, 65, 80
2, 44040, Note_off_c, 0, 53, 80
2, 44040, Note_on_c, 0, 67, 111
2, 44040, Note_on_c, 0, 55, 111
2, 44160, Note_off_c, 0, 67, 80
2, 44160, Note_off_c, 0, 55, 80
2, 44160, Note_on_c, 0, 65, 111
2, 44160, Note_on_c, 0, 53, 111
2, 44280, Note_off_c, 0, 65, 80
2, 44280, Note_off_c, 0, 53, 80
2, 44280, Note_on_c, 0, 57, 111
2, 44400, Note_off_c, 0, 57, 80
2, 44400, Note_on_c, 0, 64, 111
2, 44400, Note_on_c, 0, 52, 111
2, 44520, Note_off_c, 0, 64, 80
2, 44520, Note_off_c, 0, 52, 80
2, 44520, Note_on_c, 0, 62, 111
2, 44520, Note_on_c, 0, 50, 111
2, 44640, Note_off_c, 0, 62, 80
2, 44640, Note_off_c, 0, 50, 80
2, 44640, Note_on_c, 0, 64, 111
2, 44640, Note_on_c, 0, 55, 111
2, 44640, Note_on_c, 0, 52, 111
2, 44880, Note_off_c, 0, 64, 80
2, 44880, Note_off_c, 0, 55, 80
2, 44880, Note_off_c, 0, 52, 80
2, 44880, Note_on_c, 0, 61, 111
2, 44880, Note_on_c, 0, 55, 111
2, 44880, Note_on_c, 0, 49, 111
2, 45120, Note_off_c, 0, 61, 80
2, 45120, Note_off_c, 0, 55, 80
2, 45120, Note_off_c, 0, 49, 80
2, 45120, Note_on_c, 0, 62, 111
2, 45120, Note_on_c, 0, 53, 111
2, 45120, Note_on_c, 0, 50, 111
2, 45240, Note_off_c, 0, 62, 80
2, 45240, Note_off_c, 0, 53, 80
2, 45240, Note_off_c, 0, 50, 80
2, 45240, Note_on_c, 0, 52, 111
2, 45360, Note_off_c, 0, 52, 80
2, 45360, Note_on_c, 0, 50, 111
2, 45480, Note_off_c, 0, 50, 80
2, 45480, Note_on_c, 0, 49, 111
2, 45600, Note_off_c, 0, 49, 80
2, 45600, Note_on_c, 0, 50, 111
2, 45600, Note_on_c, 0, 45, 111
2, 45840, Note_off_c, 0, 50, 80
2, 45840, Note_off_c, 0, 45, 80
2, 45840, Note_on_c, 0, 57, 111
2, 45840, Note_on_c, 0, 53, 111
2, 45960, Note_off_c, 0, 57, 80
2, 45960, Note_off_c, 0, 53, 80
2, 45960, Note_on_c, 0, 55, 111
2, 45960, Note_on_c, 0, 52, 111
2, 46080, Note_off_c, 0, 55, 80
2, 46080, Note_off_c, 0, 52, 80
2, 46080, Note_on_c, 0, 65, 111
2, 46080, Note_on_c, 0, 57, 111
2, 46080, Note_on_c, 0, 53, 111
2, 46320, Note_off_c, 0, 65, 80
2, 46320, Note_off_c, 0, 57, 80
2, 46320, Note_off_c, 0, 53, 80
2, 46320, Note_on_c, 0, 64, 111
2, 46320, Note_on_c, 0, 58, 111
2, 46320, Note_on_c, 0, 55, 111
2, 46560, Note_off_c, 0, 64, 80
2, 46560, Note_off_c, 0, 58, 80
2, 46560, Note_off_c, 0, 55, 80
2, 46560, Note_on_c, 0, 62, 111
2, 46560, Note_on_c, 0, 57, 111
2, 46560, Note_on_c, 0, 53, 111
2, 46800, Note_off_c, 0, 62, 80
2, 46800, Note_off_c, 0, 57, 80
2, 46800, Note_off_c, 0, 53, 80
2, 46800, Note_on_c, 0, 65, 111
2, 47040, Note_off_c, 0, 65, 80
2, 47040, Note_on_c, 0, 56, 111
2, 47040, Note_on_c, 0, 50, 111
2, 47040, Note_on_c, 0, 47, 111
2, 47280, Note_off_c, 0, 56, 80
2, 47280, Note_off_c, 0, 50, 80
2, 47280, Note_off_c, 0, 47, 80
2, 47280, Note_on_c, 0, 55, 111
2, 47280, Note_on_c, 0, 47, 111
2, 47280, Note_on_c, 0, 41, 111
2, 47520, Note_off_c, 0, 55, 80
2, 47520, Note_off_c, 0, 47, 80
2, 47520, Note_off_c, 0, 41, 80
2, 47760, Note_on_c, 0, 67, 111
2, 47760, Note_on_c, 0, 59, 111
2, 47760, Note_on_c, 0, 55, 111
2, 48000, Note_off_c, 0, 67, 80
2, 48000, Note_off_c, 0, 59, 80
2, 48000, Note_off_c, 0, 55, 80
2, 48000, Note_on_c, 0, 63, 111
2, 48000, Note_on_c, 0, 55, 111
2, 48000, Note_on_c, 0, 51, 111
2, 48240, Note_off_c, 0, 63, 80
2, 48240, Note_off_c, 0, 55, 80
2, 48240, Note_off_c, 0, 51, 80
2, 48240, Note_on_c, 0, 62, 111
2, 48240, Note_on_c, 0, 56, 111
2, 48240, Note_on_c, 0, 53, 111
2, 48480, Note_off_c, 0, 62, 80
2, 48480, Note_off_c, 0, 56, 80
2, 48480, Note_off_c, 0, 53, 80
2, 48480, Note_on_c, 0, 60, 111
2, 48480, Note_on_c, 0, 55, 111
2, 48480, Note_on_c, 0, 50, 111
2, 48720, Note_off_c, 0, 60, 80
2, 48720, Note_off_c, 0, 55, 80
2, 48720, Note_off_c, 0, 50, 80
2, 48720, Note_on_c, 0, 62, 111
2, 48720, Note_on_c, 0, 55, 111
2, 48720, Note_on_c, 0, 50, 111
2, 48960, Note_off_c, 0, 62, 80
2, 48960, Note_off_c, 0, 55, 80
2, 48960, Note_off_c, 0, 50, 80
2, 48960, Note_on_c, 0, 63, 111
2, 48960, Note_on_c, 0, 57, 111
2, 48960, Note_on_c, 0, 51, 111
2, 49200, Note_off_c, 0, 63, 80
2, 49200, Note_off_c, 0, 57, 80
2, 49200, Note_off_c, 0, 51, 80
2, 49200, Note_on_c, 0, 65, 111
2, 49200, Note_on_c, 0, 57, 111
2, 49200, Note_on_c, 0, 53, 111
2, 49320, Note_off_c, 0, 65, 80
2, 49320, Note_off_c, 0, 57, 80
2, 49320, Note_off_c, 0, 53, 80
2, 49320, Note_on_c, 0, 67, 111
2, 49320, Note_on_c, 0, 55, 111
2, 49440, Note_off_c, 0, 67, 80
2, 49440, Note_off_c, 0, 55, 80
2, 49440, Note_on_c, 0, 65, 111
2, 49440, Note_on_c, 0, 57, 111
2, 49440, Note_on_c, 0, 53, 111
2, 49680, Note_off_c, 0, 65, 80
2, 49680, Note_off_c, 0, 57, 80
2, 49680, Note_off_c, 0, 53, 80
2, 49680, Note_on_c, 0, 62, 111
2, 49680, Note_on_c, 0, 57, 111
2, 49680, Note_on_c, 0, 50, 111
2, 49920, Note_off_c, 0, 62, 80
2, 49920, Note_off_c, 0, 57, 80
2, 49920, Note_off_c, 0, 50, 80
2, 49920, Note_on_c, 0, 62, 111
2, 49920, Note_on_c, 0, 53, 111
2, 49920, Note_on_c, 0, 50, 111
2, 50160, Note_off_c, 0, 62, 80
2, 50160, Note_off_c, 0, 53, 80
2, 50160, Note_off_c, 0, 50, 80
2, 50160, Note_on_c, 0, 60, 111
2, 50160, Note_on_c, 0, 53, 111
2, 50160, Note_on_c, 0, 48, 111
2, 50400, Note_off_c, 0, 60, 80
2, 50400, Note_off_c, 0, 53, 80
2, 50400, Note_off_c, 0, 48, 80
2, 50400, Note_on_c, 0, 62, 111
2, 50400, Note_on_c, 0, 53, 111
2, 50400, Note_on_c, 0, 50, 111
2, 50640, Note_off_c, 0, 62, 80
2, 50640, Note_off_c, 0, 53, 80
2, 50640, Note_off_c, 0, 50, 80
2, 50640, Note_on_c, 0, 67, 111
2, 50640, Note_on_c, 0, 58, 111
2, 50640, Note_on_c, 0, 55, 111
2, 50880, Note_off_c, 0, 67, 80
2, 50880, Note_off_c, 0, 58, 80
2, 50880, Note_off_c, 0, 55, 80
2, 50880, Note_on_c, 0, 60, 111
2, 50880, Note_on_c, 0, 55, 111
2, 50880, Note_on_c, 0, 48, 111
2, 51120, Note_off_c, 0, 60, 80
2, 51120, Note_off_c, 0, 55, 80
2, 51120, Note_off_c, 0, 48, 80
2, 51120, Note_on_c, 0, 57, 111
2, 51120, Note_on_c, 0, 55, 111
2, 51120, Note_on_c, 0, 52, 111
2, 51240, Note_off_c, 0, 57, 80
2, 51240, Note_off_c, 0, 55, 80
2, 51240, Note_off_c, 0, 52, 80
2, 51240, Note_on_c, 0, 57, 111
2, 51360, Note_off_c, 0, 57, 80
2, 51360, Note_on_c, 0, 58, 111
2, 51360, Note_on_c, 0, 55, 111
2, 51360, Note_on_c, 0, 52, 111
2, 51600, Note_off_c, 0, 58, 80
2, 51600, Note_off_c, 0, 55, 80
2, 51600, Note_off_c, 0, 52, 80
2, 51600, Note_on_c, 0, 55, 111
2, 51600, Note_on_c, 0, 52, 111
2, 51840, Note_off_c, 0, 55, 80
2, 51840, Note_off_c, 0, 52, 80
2, 51840, Note_on_c, 0, 60, 111
2, 51840, Note_on_c, 0, 53, 111
2, 51960, Note_off_c, 0, 60, 80
2, 51960, Note_off_c, 0, 53, 80
2, 51960, Note_on_c, 0, 48, 111
2, 52080, Note_off_c, 0, 48, 80
2, 52080, Note_on_c, 0, 62, 111
2, 52080, Note_on_c, 0, 53, 111
2, 52080, Note_on_c, 0, 50, 111
2, 52200, Note_off_c, 0, 62, 80
2, 52200, Note_off_c, 0, 53, 80
2, 52200, Note_off_c, 0, 50, 80
2, 52200, Note_on_c, 0, 63, 111
2, 52200, Note_on_c, 0, 53, 111
2, 52200, Note_on_c, 0, 51, 111
2, 52320, Note_off_c, 0, 63, 80
2, 52320, Note_off_c, 0, 53, 80
2, 52320, Note_off_c, 0, 51, 80
2, 52320, Note_on_c, 0, 62, 111
2, 52320, Note_on_c, 0, 53, 111
2, 52320, Note_on_c, 0, 50, 111
2, 52560, Note_off_c, 0, 62, 80
2, 52560, Note_off_c, 0, 53, 80
2, 52560, Note_off_c, 0, 50, 80
2, 52560, Note_on_c, 0, 58, 111
2, 52560, Note_on_c, 0, 50, 111
2, 52560, Note_on_c, 0, 46, 111
2, 52800, Note_off_c, 0, 58, 80
2, 52800, Note_off_c, 0, 50, 80
2, 52800, Note_off_c, 0, 46, 80
2, 52800, Note_on_c, 0, 55, 111
2, 52800, Note_on_c, 0, 48, 111
2, 52800, Note_on_c, 0, 41, 111
2, 52920, Note_off_c, 0, 55, 80
2, 52920, Note_off_c, 0, 48, 80
2, 52920, Note_on_c, 0, 53, 111
2, 52920, Note_on_c, 0, 50, 111
2, 53040, Note_off_c, 0, 41, 80
2, 53040, Note_off_c, 0, 53, 80
2, 53040, Note_off_c, 0, 50, 80
2, 53040, Note_on_c, 0, 52, 111
2, 53040, Note_on_c, 0, 48, 111
2, 53160, Note_off_c, 0, 52, 80
2, 53160, Note_off_c, 0, 48, 80
2, 53160, Note_on_c, 0, 50, 111
2, 53160, Note_on_c, 0, 47, 111
2, 53280, Note_off_c, 0, 50, 80
2, 53280, Note_off_c, 0, 47, 80
2, 53280, Note_on_c, 0, 48, 111
2, 53280, Note_on_c, 0, 43, 111
2, 53400, Note_off_c, 0, 48, 80
2, 53400, Note_off_c, 0, 43, 80
2, 53400, Note_on_c, 0, 50, 111
2, 53400, Note_on_c, 0, 47, 111
2, 53520, Note_off_c, 0, 50, 80
2, 53520, Note_off_c, 0, 47, 80
2, 53520, Note_on_c, 0, 60, 111
2, 53520, Note_on_c, 0, 52, 111
2, 53520, Note_on_c, 0, 48, 111
2, 53520, Note_on_c, 0, 43, 111
2, 53640, Note_off_c, 0, 60, 80
2, 53640, Note_off_c, 0, 52, 80
2, 53640, Note_off_c, 0, 48, 80
2, 53640, Note_off_c, 0, 43, 80
2, 53640, Note_on_c, 0, 47, 111
2, 53640, Note_on_c, 0, 41, 111
2, 53760, Note_off_c, 0, 47, 80
2, 53760, Note_off_c, 0, 41, 80
2, 53760, Note_on_c, 0, 60, 111
2, 53760, Note_on_c, 0, 53, 111
2, 53880, Note_off_c, 0, 60, 80
2, 53880, Note_off_c, 0, 53, 80
2, 53880, Note_on_c, 0, 48, 111
2, 54000, Note_off_c, 0, 48, 80
2, 54000, Note_on_c, 0, 57, 111
2, 54120, Note_off_c, 0, 57, 80
2, 54120, Note_on_c, 0, 58, 111
2, 54240, Note_off_c, 0, 58, 80
2, 54240, Note_on_c, 0, 60, 111
2, 54240, Note_on_c, 0, 53, 111
2, 54360, Note_off_c, 0, 60, 80
2, 54360, Note_off_c, 0, 53, 80
2, 54360, Note_on_c, 0, 48, 111
2, 54480, Note_off_c, 0, 48, 80
2, 54480, Note_on_c, 0, 65, 111
2, 54480, Note_on_c, 0, 57, 111
2, 54480, Note_on_c, 0, 53, 111
2, 54720, Note_off_c, 0, 65, 80
2, 54720, Note_off_c, 0, 57, 80
2, 54720, Note_off_c, 0, 53, 80
2, 54720, Note_on_c, 0, 64, 111
2, 54720, Note_on_c, 0, 58, 111
2, 54720, Note_on_c, 0, 52, 111
2, 54960, Note_off_c, 0, 64, 80
2, 54960, Note_off_c, 0, 58, 80
2, 54960, Note_off_c, 0, 52, 80
2, 54960, Note_on_c, 0, 62, 111
2, 54960, Note_on_c, 0, 58, 111
2, 54960, Note_on_c, 0, 50, 111
2, 55200, Note_off_c, 0, 62, 80
2, 55200, Note_off_c, 0, 58, 80
2, 55200, Note_off_c, 0, 50, 80
2, 55200, Note_on_c, 0, 60, 111
2, 55200, Note_on_c, 0, 58, 111
2, 55200, Note_on_c, 0, 52, 111
2, 55680, Note_off_c, 0, 60, 80
2, 55680, Note_off_c, 0, 58, 80
2, 55680, Note_off_c, 0, 52, 80
2, 55680, Note_on_c, 0, 60, 111
2, 55680, Note_on_c, 0, 53, 111
2, 55800, Note_off_c, 0, 60, 80
2, 55800, Note_off_c, 0, 53, 80
2, 55800, Note_on_c, 0, 48, 111
2, 55920, Note_off_c, 0, 48, 80
2, 55920, Note_on_c, 0, 57, 111
2, 56040, Note_off_c, 0, 57, 80
2, 56040, Note_on_c, 0, 58, 111
2, 56160, Note_off_c, 0, 58, 80
2, 56160, Note_on_c, 0, 60, 111
2, 56160, Note_on_c, 0, 53, 111
2, 56280, Note_off_c, 0, 60, 80
2, 56280, Note_off_c, 0, 53, 80
2, 56280, Note_on_c, 0, 48, 111
2, 56400, Note_off_c, 0, 48, 80
2, 56400, Note_on_c, 0, 65, 111
2, 56400, Note_on_c, 0, 57, 111
2, 56400, Note_on_c, 0, 53, 111
2, 56640, Note_off_c, 0, 65, 80
2, 56640, Note_off_c, 0, 57, 80
2, 56640, Note_off_c, 0, 53, 80
2, 56640, Note_on_c, 0, 64, 111
2, 56640, Note_on_c, 0, 58, 111
2, 56640, Note_on_c, 0, 52, 111
2, 56880, Note_off_c, 0, 64, 80
2, 56880, Note_off_c, 0, 58, 80
2, 56880, Note_off_c, 0, 52, 80
2, 56880, Note_on_c, 0, 62, 111
2, 56880, Note_on_c, 0, 58, 111
2, 56880, Note_on_c, 0, 50, 111
2, 57120, Note_off_c, 0, 62, 80
2, 57120, Note_off_c, 0, 58, 80
2, 57120, Note_off_c, 0, 50, 80
2, 57120, Note_on_c, 0, 60, 111
2, 57120, Note_on_c, 0, 58, 111
2, 57120, Note_on_c, 0, 52, 111
2, 57600, Note_off_c, 0, 60, 80
2, 57600, Note_off_c, 0, 58, 80
2, 57600, Note_off_c, 0, 52, 80
2, 57600, Note_on_c, 0, 65, 111
2, 57600, Note_on_c, 0, 57, 111
2, 57600, Note_on_c, 0, 53, 111
2, 57840, Note_off_c, 0, 65, 80
2, 57840, Note_off_c, 0, 57, 80
2, 57840, Note_off_c, 0, 53, 80
2, 57840, Note_on_c, 0, 69, 111
2, 57840, Note_on_c, 0, 60, 111
2, 57840, Note_on_c, 0, 57, 111
2, 57960, Note_off_c, 0, 69, 80
2, 57960, Note_off_c, 0, 60, 80
2, 57960, Note_off_c, 0, 57, 80
2, 57960, Note_on_c, 0, 67, 111
2, 57960, Note_on_c, 0, 58, 111
2, 58080, Note_off_c, 0, 67, 80
2, 58080, Note_off_c, 0, 58, 80
2, 58080, Note_on_c, 0, 65, 111
2, 58080, Note_on_c, 0, 57, 111
2, 58320, Note_off_c, 0, 65, 80
2, 58320, Note_off_c, 0, 57, 80
2, 58320, Note_on_c, 0, 60, 111
2, 58560, Note_off_c, 0, 60, 80
2, 58560, Note_on_c, 0, 62, 111
2, 58560, Note_on_c, 0, 53, 111
2, 58560, Note_on_c, 0, 50, 111
2, 58800, Note_off_c, 0, 62, 80
2, 58800, Note_off_c, 0, 53, 80
2, 58800, Note_off_c, 0, 50, 80
2, 58800, Note_on_c, 0, 62, 111
2, 58800, Note_on_c, 0, 53, 111
2, 58920, Note_off_c, 0, 62, 80
2, 58920, Note_off_c, 0, 53, 80
2, 58920, Note_on_c, 0, 61, 111
2, 59040, Note_off_c, 0, 61, 80
2, 59040, Note_on_c, 0, 62, 111
2, 59040, Note_on_c, 0, 53, 111
2, 59280, Note_off_c, 0, 62, 80
2, 59280, Note_off_c, 0, 53, 80
2, 59280, Note_on_c, 0, 55, 111
2, 59280, Note_on_c, 0, 50, 111
2, 59400, Note_off_c, 0, 55, 80
2, 59400, Note_off_c, 0, 50, 80
2, 59400, Note_on_c, 0, 53, 111
2, 59520, Note_off_c, 0, 53, 80
2, 59520, Note_on_c, 0, 55, 111
2, 59520, Note_on_c, 0, 52, 111
2, 59760, Note_off_c, 0, 55, 80
2, 59760, Note_off_c, 0, 52, 80
2, 59760, Note_on_c, 0, 57, 111
2, 59760, Note_on_c, 0, 53, 111
2, 60000, Note_off_c, 0, 57, 80
2, 60000, Note_off_c, 0, 53, 80
2, 60000, Note_on_c, 0, 58, 111
2, 60000, Note_on_c, 0, 52, 111
2, 60120, Note_off_c, 0, 58, 80
2, 60120, Note_off_c, 0, 52, 80
2, 60120, Note_on_c, 0, 50, 111
2, 60240, Note_off_c, 0, 50, 80
2, 60240, Note_on_c, 0, 60, 111
2, 60240, Note_on_c, 0, 52, 111
2, 60240, Note_on_c, 0, 48, 111
2, 60480, Note_off_c, 0, 60, 80
2, 60480, Note_off_c, 0, 52, 80
2, 60480, Note_off_c, 0, 48, 80
2, 60480, Note_on_c, 0, 57, 111
2, 60480, Note_on_c, 0, 53, 111
2, 60480, Note_on_c, 0, 48, 111
2, 60960, Note_off_c, 0, 57, 80
2, 60960, Note_off_c, 0, 53, 80
2, 60960, Note_off_c, 0, 48, 80
2, 61200, Note_on_c, 0, 60, 111
2, 61200, Note_on_c, 0, 52, 111
2, 61320, Note_off_c, 0, 60, 80
2, 61320, Note_off_c, 0, 52, 80
2, 61320, Note_on_c, 0, 48, 111
2, 61440, Note_off_c, 0, 48, 80
2, 61440, Note_on_c, 0, 60, 111
2, 61440, Note_on_c, 0, 53, 111
2, 61560, Note_off_c, 0, 60, 80
2, 61560, Note_off_c, 0, 53, 80
2, 61560, Note_on_c, 0, 48, 111
2, 61680, Note_off_c, 0, 48, 80
2, 61680, Note_on_c, 0, 57, 111
2, 61800, Note_off_c, 0, 57, 80
2, 61800, Note_on_c, 0, 58, 111
2, 61920, Note_off_c, 0, 58, 80
2, 61920, Note_on_c, 0, 60, 111
2, 61920, Note_on_c, 0, 53, 111
2, 62040, Note_off_c, 0, 60, 80
2, 62040, Note_off_c, 0, 53, 80
2, 62040, Note_on_c, 0, 48, 111
2, 62160, Note_off_c, 0, 48, 80
2, 62160, Note_on_c, 0, 65, 111
2, 62160, Note_on_c, 0, 57, 111
2, 62160, Note_on_c, 0, 53, 111
2, 62400, Note_off_c, 0, 65, 80
2, 62400, Note_off_c, 0, 57, 80
2, 62400, Note_off_c, 0, 53, 80
2, 62400, Note_on_c, 0, 58, 111
2, 62400, Note_on_c, 0, 52, 111
2, 62640, Note_off_c, 0, 58, 80
2, 62640, Note_off_c, 0, 52, 80
2, 62640, Note_on_c, 0, 57, 111
2, 62880, Note_off_c, 0, 57, 80
2, 62880, Note_on_c, 0, 55, 111
2, 63120, Note_off_c, 0, 55, 80
2, 63120, Note_on_c, 0, 60, 111
2, 63120, Note_on_c, 0, 55, 111
2, 63120, Note_on_c, 0, 48, 111
2, 63360, Note_off_c, 0, 60, 80
2, 63360, Note_off_c, 0, 55, 80
2, 63360, Note_off_c, 0, 48, 80
2, 63360, Note_on_c, 0, 60, 111
2, 63360, Note_on_c, 0, 53, 111
2, 63480, Note_off_c, 0, 60, 80
2, 63480, Note_off_c, 0, 53, 80
2, 63480, Note_on_c, 0, 48, 111
2, 63600, Note_off_c, 0, 48, 80
2, 63600, Note_on_c, 0, 57, 111
2, 63720, Note_off_c, 0, 57, 80
2, 63720, Note_on_c, 0, 58, 111
2, 63840, Note_off_c, 0, 58, 80
2, 63840, Note_on_c, 0, 60, 111
2, 63840, Note_on_c, 0, 53, 111
2, 63960, Note_off_c, 0, 60, 80
2, 63960, Note_off_c, 0, 53, 80
2, 63960, Note_on_c, 0, 48, 111
2, 64080, Note_off_c, 0, 48, 80
2, 64080, Note_on_c, 0, 65, 111
2, 64080, Note_on_c, 0, 57, 111
2, 64080, Note_on_c, 0, 53, 111
2, 64320, Note_off_c, 0, 65, 80
2, 64320, Note_off_c, 0, 57, 80
2, 64320, Note_off_c, 0, 53, 80
2, 64320, Note_on_c, 0, 58, 111
2, 64320, Note_on_c, 0, 50, 111
2, 64320, Note_on_c, 0, 46, 111
2, 64560, Note_off_c, 0, 58, 80
2, 64560, Note_off_c, 0, 50, 80
2, 64560, Note_off_c, 0, 46, 80
2, 64560, Note_on_c, 0, 57, 111
2, 64560, Note_on_c, 0, 52, 111
2, 64560, Note_on_c, 0, 48, 111
2, 64800, Note_off_c, 0, 57, 80
2, 64800, Note_off_c, 0, 52, 80
2, 64800, Note_off_c, 0, 48, 80
2, 64800, Note_on_c, 0, 55, 111
2, 65040, Note_off_c, 0, 55, 80
2, 65040, Note_on_c, 0, 60, 111
2, 65040, Note_on_c, 0, 55, 111
2, 65040, Note_on_c, 0, 48, 111
2, 65280, Note_off_c, 0, 60, 80
2, 65280, Note_off_c, 0, 55, 80
2, 65280, Note_off_c, 0, 48, 80
2, 65280, Note_on_c, 0, 65, 111
2, 65280, Note_on_c, 0, 57, 111
2, 65280, Note_on_c, 0, 53, 111
2, 65520, Note_off_c, 0, 65, 80
2, 65520, Note_off_c, 0, 57, 80
2, 65520, Note_off_c, 0, 53, 80
2, 65520, Note_on_c, 0, 69, 111
2, 65520, Note_on_c, 0, 60, 111
2, 65520, Note_on_c, 0, 57, 111
2, 65640, Note_off_c, 0, 69, 80
2, 65640, Note_off_c, 0, 60, 80
2, 65640, Note_off_c, 0, 57, 80
2, 65640, Note_on_c, 0, 67, 111
2, 65640, Note_on_c, 0, 58, 111
2, 65640, Note_on_c, 0, 55, 111
2, 65760, Note_off_c, 0, 67, 80
2, 65760, Note_off_c, 0, 58, 80
2, 65760, Note_off_c, 0, 55, 80
2, 65760, Note_on_c, 0, 65, 111
2, 65760, Note_on_c, 0, 60, 111
2, 65760, Note_on_c, 0, 53, 111
2, 66000, Note_off_c, 0, 65, 80
2, 66000, Note_off_c, 0, 60, 80
2, 66000, Note_off_c, 0, 53, 80
2, 66000, Note_on_c, 0, 60, 111
2, 66000, Note_on_c, 0, 53, 111
2, 66000, Note_on_c, 0, 48, 111
2, 66120, Note_off_c, 0, 60, 80
2, 66120, Note_off_c, 0, 53, 80
2, 66120, Note_off_c, 0, 48, 80
2, 66120, Note_on_c, 0, 61, 111
2, 66120, Note_on_c, 0, 49, 111
2, 66240, Note_off_c, 0, 61, 80
2, 66240, Note_off_c, 0, 49, 80
2, 66240, Note_on_c, 0, 62, 111
2, 66240, Note_on_c, 0, 53, 111
2, 66240, Note_on_c, 0, 50, 111
2, 66480, Note_off_c, 0, 62, 80
2, 66480, Note_off_c, 0, 53, 80
2, 66480, Note_off_c, 0, 50, 80
2, 66480, Note_on_c, 0, 62, 111
2, 66480, Note_on_c, 0, 53, 111
2, 66600, Note_off_c, 0, 62, 80
2, 66600, Note_off_c, 0, 53, 80
2, 66600, Note_on_c, 0, 60, 111
2, 66720, Note_off_c, 0, 60, 80
2, 66720, Note_on_c, 0, 62, 111
2, 66720, Note_on_c, 0, 53, 111
2, 66720, Note_on_c, 0, 50, 111
2, 66960, Note_off_c, 0, 62, 80
2, 66960, Note_off_c, 0, 53, 80
2, 66960, Note_off_c, 0, 50, 80
2, 66960, Note_on_c, 0, 64, 111
2, 66960, Note_on_c, 0, 52, 111
2, 67080, Note_off_c, 0, 64, 80
2, 67080, Note_off_c, 0, 52, 80
2, 67080, Note_on_c, 0, 65, 111
2, 67080, Note_on_c, 0, 53, 111
2, 67200, Note_off_c, 0, 65, 80
2, 67200, Note_off_c, 0, 53, 80
2, 67200, Note_on_c, 0, 57, 111
2, 67200, Note_on_c, 0, 53, 111
2, 67320, Note_off_c, 0, 57, 80
2, 67320, Note_off_c, 0, 53, 80
2, 67320, Note_on_c, 0, 48, 111
2, 67440, Note_off_c, 0, 48, 80
2, 67440, Note_on_c, 0, 55, 111
2, 67440, Note_on_c, 0, 46, 111
2, 67560, Note_off_c, 0, 55, 80
2, 67560, Note_off_c, 0, 46, 80
2, 67560, Note_on_c, 0, 53, 111
2, 67560, Note_on_c, 0, 45, 111
2, 67680, Note_off_c, 0, 53, 80
2, 67680, Note_off_c, 0, 45, 80
2, 67680, Note_on_c, 0, 55, 111
2, 67680, Note_on_c, 0, 50, 111
2, 67680, Note_on_c, 0, 41, 111
2, 67920, Note_off_c, 0, 55, 80
2, 67920, Note_off_c, 0, 50, 80
2, 67920, Note_off_c, 0, 41, 80
2, 67920, Note_on_c, 0, 52, 111
2, 67920, Note_on_c, 0, 46, 111
2, 67920, Note_on_c, 0, 41, 111
2, 68160, Note_off_c, 0, 52, 80
2, 68160, Note_off_c, 0, 46, 80
2, 68160, Note_off_c, 0, 41, 80
2, 68160, Note_on_c, 0, 53, 111
2, 68160, Note_on_c, 0, 48, 111
2, 68160, Note_on_c, 0, 43, 111
2, 68640, Note_off_c, 0, 53, 80
2, 68640, Note_off_c, 0, 48, 80
2, 68640, Note_off_c, 0, 43, 80
2, 69120, Note_on_c, 0, 60, 111
2, 69120, Note_on_c, 0, 57, 111
2, 69240, Note_off_c, 0, 60, 80
2, 69240, Note_off_c, 0, 57, 80
2, 69240, Note_on_c, 0, 46, 111
2, 69360, Note_off_c, 0, 46, 80
2, 69360, Note_on_c, 0, 57, 111
2, 69360, Note_on_c, 0, 53, 111
2, 69480, Note_off_c, 0, 57, 80
2, 69480, Note_off_c, 0, 53, 80
2, 69480, Note_on_c, 0, 58, 111
2, 69480, Note_on_c, 0, 55, 111
2, 69600, Note_off_c, 0, 58, 80
2, 69600, Note_off_c, 0, 55, 80
2, 69600, Note_on_c, 0, 60, 111
2, 69600, Note_on_c, 0, 57, 111
2, 69720, Note_off_c, 0, 60, 80
2, 69720, Note_off_c, 0, 57, 80
2, 69720, Note_on_c, 0, 45, 111
2, 69840, Note_off_c, 0, 45, 80
2, 69840, Note_on_c, 0, 65, 111
2, 69840, Note_on_c, 0, 57, 111
2, 69840, Note_on_c, 0, 53, 111
2, 70080, Note_off_c, 0, 65, 80
2, 70080, Note_off_c, 0, 57, 80
2, 70080, Note_off_c, 0, 53, 80
2, 70080, Note_on_c, 0, 64, 111
2, 70080, Note_on_c, 0, 58, 111
2, 70080, Note_on_c, 0, 52, 111
2, 70320, Note_off_c, 0, 64, 80
2, 70320, Note_off_c, 0, 58, 80
2, 70320, Note_off_c, 0, 52, 80
2, 70320, Note_on_c, 0, 62, 111
2, 70320, Note_on_c, 0, 58, 111
2, 70320, Note_on_c, 0, 50, 111
2, 70560, Note_off_c, 0, 62, 80
2, 70560, Note_off_c, 0, 58, 80
2, 70560, Note_off_c, 0, 50, 80
2, 70560, Note_on_c, 0, 60, 111
2, 70560, Note_on_c, 0, 58, 111
2, 70560, Note_on_c, 0, 52, 111
2, 71040, Note_off_c, 0, 60, 80
2, 71040, Note_off_c, 0, 58, 80
2, 71040, Note_off_c, 0, 52, 80
2, 71040, Note_on_c, 0, 60, 111
2, 71040, Note_on_c, 0, 53, 111
2, 71160, Note_off_c, 0, 60, 80
2, 71160, Note_off_c, 0, 53, 80
2, 71160, Note_on_c, 0, 48, 111
2, 71280, Note_off_c, 0, 48, 80
2, 71280, Note_on_c, 0, 57, 111
2, 71400, Note_off_c, 0, 57, 80
2, 71400, Note_on_c, 0, 58, 111
2, 71520, Note_off_c, 0, 58, 80
2, 71520, Note_on_c, 0, 60, 111
2, 71520, Note_on_c, 0, 53, 111
2, 71640, Note_off_c, 0, 60, 80
2, 71640, Note_off_c, 0, 53, 80
2, 71640, Note_on_c, 0, 48, 111
2, 71760, Note_off_c, 0, 48, 80
2, 71760, Note_on_c, 0, 65, 111
2, 71760, Note_on_c, 0, 57, 111
2, 71760, Note_on_c, 0, 53, 111
2, 72000, Note_off_c, 0, 65, 80
2, 72000, Note_off_c, 0, 57, 80
2, 72000, Note_off_c, 0, 53, 80
2, 72000, Note_on_c, 0, 64, 111
2, 72000, Note_on_c, 0, 58, 111
2, 72000, Note_on_c, 0, 52, 111
2, 72240, Note_off_c, 0, 64, 80
2, 72240, Note_off_c, 0, 58, 80
2, 72240, Note_off_c, 0, 52, 80
2, 72240, Note_on_c, 0, 62, 111
2, 72240, Note_on_c, 0, 58, 111
2, 72240, Note_on_c, 0, 50, 111
2, 72480, Note_off_c, 0, 62, 80
2, 72480, Note_off_c, 0, 58, 80
2, 72480, Note_off_c, 0, 50, 80
2, 72480, Note_on_c, 0, 60, 111
2, 72480, Note_on_c, 0, 58, 111
2, 72480, Note_on_c, 0, 52, 111
2, 72960, Note_off_c, 0, 60, 80
2, 72960, Note_off_c, 0, 58, 80
2, 72960, Note_off_c, 0, 52, 80
2, 72960, Note_on_c, 0, 65, 111
2, 72960, Note_on_c, 0, 57, 111
2, 72960, Note_on_c, 0, 53, 111
2, 73200, Note_off_c, 0, 65, 80
2, 73200, Note_off_c, 0, 57, 80
2, 73200, Note_off_c, 0, 53, 80
2, 73200, Note_on_c, 0, 69, 111
2, 73200, Note_on_c, 0, 60, 111
2, 73200, Note_on_c, 0, 57, 111
2, 73320, Note_off_c, 0, 69, 80
2, 73320, Note_off_c, 0, 60, 80
2, 73320, Note_off_c, 0, 57, 80
2, 73320, Note_on_c, 0, 67, 111
2, 73320, Note_on_c, 0, 58, 111
2, 73440, Note_off_c, 0, 67, 80
2, 73440, Note_off_c, 0, 58, 80
2, 73440, Note_on_c, 0, 65, 111
2, 73440, Note_on_c, 0, 57, 111
2, 73680, Note_off_c, 0, 65, 80
2, 73680, Note_off_c, 0, 57, 80
2, 73680, Note_on_c, 0, 60, 111
2, 73920, Note_off_c, 0, 60, 80
2, 73920, Note_on_c, 0, 60, 111
2, 73920, Note_on_c, 0, 53, 111
2, 73920, Note_on_c, 0, 50, 111
2, 74160, Note_off_c, 0, 60, 80
2, 74160, Note_off_c, 0, 53, 80
2, 74160, Note_off_c, 0, 50, 80
2, 74160, Note_on_c, 0, 62, 111
2, 74160, Note_on_c, 0, 53, 111
2, 74280, Note_off_c, 0, 62, 80
2, 74280, Note_off_c, 0, 53, 80
2, 74280, Note_on_c, 0, 61, 111
2, 74400, Note_off_c, 0, 61, 80
2, 74400, Note_on_c, 0, 62, 111
2, 74400, Note_on_c, 0, 53, 111
2, 74640, Note_off_c, 0, 62, 80
2, 74640, Note_off_c, 0, 53, 80
2, 74640, Note_on_c, 0, 55, 111
2, 74640, Note_on_c, 0, 50, 111
2, 74760, Note_off_c, 0, 55, 80
2, 74760, Note_off_c, 0, 50, 80
2, 74760, Note_on_c, 0, 53, 111
2, 74880, Note_off_c, 0, 53, 80
2, 74880, Note_on_c, 0, 55, 111
2, 74880, Note_on_c, 0, 52, 111
2, 75120, Note_off_c, 0, 55, 80
2, 75120, Note_off_c, 0, 52, 80
2, 75120, Note_on_c, 0, 57, 111
2, 75120, Note_on_c, 0, 53, 111
2, 75360, Note_off_c, 0, 57, 80
2, 75360, Note_off_c, 0, 53, 80
2, 75360, Note_on_c, 0, 58, 111
2, 75360, Note_on_c, 0, 52, 111
2, 75480, Note_off_c, 0, 58, 80
2, 75480, Note_off_c, 0, 52, 80
2, 75480, Note_on_c, 0, 50, 111
2, 75600, Note_off_c, 0, 50, 80
2, 75600, Note_on_c, 0, 60, 111
2, 75600, Note_on_c, 0, 52, 111
2, 75600, Note_on_c, 0, 48, 111
2, 75840, Note_off_c, 0, 60, 80
2, 75840, Note_off_c, 0, 52, 80
2, 75840, Note_off_c, 0, 48, 80
2, 75840, Note_on_c, 0, 57, 111
2, 75840, Note_on_c, 0, 53, 111
2, 75840, Note_on_c, 0, 48, 111
2, 76320, Note_off_c, 0, 57, 80
2, 76320, Note_off_c, 0, 53, 80
2, 76320, Note_off_c, 0, 48, 80
2, 76560, Note_on_c, 0, 60, 111
2, 76560, Note_on_c, 0, 52, 111
2, 76680, Note_off_c, 0, 60, 80
2, 76680, Note_off_c, 0, 52, 80
2, 76680, Note_on_c, 0, 48, 111
2, 76800, Note_off_c, 0, 48, 80
2, 76800, Note_on_c, 0, 60, 111
2, 76800, Note_on_c, 0, 53, 111
2, 76920, Note_off_c, 0, 60, 80
2, 76920, Note_off_c, 0, 53, 80
2, 76920, Note_on_c, 0, 48, 111
2, 77040, Note_off_c, 0, 48, 80
2, 77040, Note_on_c, 0, 57, 111
2, 77160, Note_off_c, 0, 57, 80
2, 77160, Note_on_c, 0, 58, 111
2, 77280, Note_off_c, 0, 58, 80
2, 77280, Note_on_c, 0, 60, 111
2, 77280, Note_on_c, 0, 53, 111
2, 77400, Note_off_c, 0, 60, 80
2, 77400, Note_off_c, 0, 53, 80
2, 77400, Note_on_c, 0, 48, 111
2, 77520, Note_off_c, 0, 48, 80
2, 77520, Note_on_c, 0, 65, 111
2, 77520, Note_on_c, 0, 57, 111
2, 77520, Note_on_c, 0, 53, 111
2, 77760, Note_off_c, 0, 65, 80
2, 77760, Note_off_c, 0, 57, 80
2, 77760, Note_off_c, 0, 53, 80
2, 77760, Note_on_c, 0, 58, 111
2, 77880, Note_off_c, 0, 58, 80
2, 77880, Note_on_c, 0, 48, 111
2, 78000, Note_off_c, 0, 48, 80
2, 78000, Note_on_c, 0, 57, 111
2, 78120, Note_off_c, 0, 57, 80
2, 78120, Note_on_c, 0, 48, 111
2, 78240, Note_off_c, 0, 48, 80
2, 78240, Note_on_c, 0, 55, 111
2, 78360, Note_off_c, 0, 55, 80
2, 78360, Note_on_c, 0, 48, 111
2, 78480, Note_off_c, 0, 48, 80
2, 78480, Note_on_c, 0, 60, 111
2, 78480, Note_on_c, 0, 52, 111
2, 78600, Note_off_c, 0, 60, 80
2, 78600, Note_off_c, 0, 52, 80
2, 78600, Note_on_c, 0, 48, 111
2, 78720, Note_off_c, 0, 48, 80
2, 78720, Note_on_c, 0, 60, 111
2, 78720, Note_on_c, 0, 53, 111
2, 78840, Note_off_c, 0, 60, 80
2, 78840, Note_off_c, 0, 53, 80
2, 78840, Note_on_c, 0, 48, 111
2, 78960, Note_off_c, 0, 48, 80
2, 78960, Note_on_c, 0, 57, 111
2, 79080, Note_off_c, 0, 57, 80
2, 79080, Note_on_c, 0, 58, 111
2, 79200, Note_off_c, 0, 58, 80
2, 79200, Note_on_c, 0, 60, 111
2, 79200, Note_on_c, 0, 53, 111
2, 79320, Note_off_c, 0, 60, 80
2, 79320, Note_off_c, 0, 53, 80
2, 79320, Note_on_c, 0, 48, 111
2, 79440, Note_off_c, 0, 48, 80
2, 79440, Note_on_c, 0, 65, 111
2, 79440, Note_on_c, 0, 57, 111
2, 79440, Note_on_c, 0, 53, 111
2, 79680, Note_off_c, 0, 65, 80
2, 79680, Note_off_c, 0, 57, 80
2, 79680, Note_off_c, 0, 53, 80
2, 79680, Note_on_c, 0, 58, 111
2, 79680, Note_on_c, 0, 52, 111
2, 79800, Note_off_c, 0, 58, 80
2, 79800, Note_off_c, 0, 52, 80
2, 79800, Note_on_c, 0, 48, 111
2, 79920, Note_off_c, 0, 48, 80
2, 79920, Note_on_c, 0, 57, 111
2, 79920, Note_on_c, 0, 53, 111
2, 80040, Note_off_c, 0, 57, 80
2, 80040, Note_off_c, 0, 53, 80
2, 80040, Note_on_c, 0, 48, 111
2, 80160, Note_off_c, 0, 48, 80
2, 80160, Note_on_c, 0, 55, 111
2, 80280, Note_off_c, 0, 55, 80
2, 80280, Note_on_c, 0, 48, 111
2, 80400, Note_off_c, 0, 48, 80
2, 80400, Note_on_c, 0, 64, 111
2, 80400, Note_on_c, 0, 58, 111
2, 80400, Note_on_c, 0, 52, 111
2, 80640, Note_off_c, 0, 64, 80
2, 80640, Note_off_c, 0, 58, 80
2, 80640, Note_off_c, 0, 52, 80
2, 80640, Note_on_c, 0, 65, 111
2, 80640, Note_on_c, 0, 57, 111
2, 80640, Note_on_c, 0, 53, 111
2, 80880, Note_off_c, 0, 65, 80
2, 80880, Note_off_c, 0, 57, 80
2, 80880, Note_off_c, 0, 53, 80
2, 80880, Note_on_c, 0, 62, 111
2, 80880, Note_on_c, 0, 53, 111
2, 80880, Note_on_c, 0, 50, 111
2, 81000, Note_off_c, 0, 62, 80
2, 81000, Note_off_c, 0, 53, 80
2, 81000, Note_off_c, 0, 50, 80
2, 81000, Note_on_c, 0, 60, 111
2, 81120, Note_off_c, 0, 60, 80
2, 81120, Note_on_c, 0, 62, 111
2, 81120, Note_on_c, 0, 53, 111
2, 81120, Note_on_c, 0, 50, 111
2, 81360, Note_off_c, 0, 62, 80
2, 81360, Note_off_c, 0, 53, 80
2, 81360, Note_off_c, 0, 50, 80
2, 81360, Note_on_c, 0, 65, 111
2, 81360, Note_on_c, 0, 58, 111
2, 81360, Note_on_c, 0, 53, 111
2, 81600, Note_off_c, 0, 65, 80
2, 81600, Note_off_c, 0, 58, 80
2, 81600, Note_off_c, 0, 53, 80
2, 81600, Note_on_c, 0, 67, 111
2, 81600, Note_on_c, 0, 59, 111
2, 81600, Note_on_c, 0, 53, 111
2, 81840, Note_off_c, 0, 67, 80
2, 81840, Note_off_c, 0, 59, 80
2, 81840, Note_off_c, 0, 53, 80
2, 81840, Note_on_c, 0, 62, 111
2, 81840, Note_on_c, 0, 59, 111
2, 81840, Note_on_c, 0, 53, 111
2, 81960, Note_off_c, 0, 62, 80
2, 81960, Note_off_c, 0, 59, 80
2, 81960, Note_off_c, 0, 53, 80
2, 81960, Note_on_c, 0, 57, 111
2, 82080, Note_off_c, 0, 57, 80
2, 82080, Note_on_c, 0, 59, 111
2, 82080, Note_on_c, 0, 55, 111
2, 82080, Note_on_c, 0, 53, 111
2, 82320, Note_off_c, 0, 59, 80
2, 82320, Note_off_c, 0, 55, 80
2, 82320, Note_off_c, 0, 53, 80
2, 82320, Note_on_c, 0, 65, 111
2, 82320, Note_on_c, 0, 59, 111
2, 82320, Note_on_c, 0, 53, 111
2, 82560, Note_off_c, 0, 65, 80
2, 82560, Note_off_c, 0, 59, 80
2, 82560, Note_off_c, 0, 53, 80
2, 82560, Note_on_c, 0, 64, 111
2, 82560, Note_on_c, 0, 55, 111
2, 82560, Note_on_c, 0, 52, 111
2, 82800, Note_off_c, 0, 64, 80
2, 82800, Note_off_c, 0, 55, 80
2, 82800, Note_off_c, 0, 52, 80
2, 82800, Note_on_c, 0, 62, 111
2, 82800, Note_on_c, 0, 53, 111
2, 82920, Note_off_c, 0, 62, 80
2, 82920, Note_off_c, 0, 53, 80
2, 82920, Note_on_c, 0, 60, 111
2, 82920, Note_on_c, 0, 52, 111
2, 83040, Note_off_c, 0, 60, 80
2, 83040, Note_off_c, 0, 52, 80
2, 83040, Note_on_c, 0, 62, 111
2, 83040, Note_on_c, 0, 57, 111
2, 83040, Note_on_c, 0, 50, 111
2, 83280, Note_off_c, 0, 62, 80
2, 83280, Note_off_c, 0, 57, 80
2, 83280, Note_off_c, 0, 50, 80
2, 83280, Note_on_c, 0, 55, 111
2, 83280, Note_on_c, 0, 53, 111
2, 83280, Note_on_c, 0, 47, 111
2, 83520, Note_off_c, 0, 55, 80
2, 83520, Note_off_c, 0, 53, 80
2, 83520, Note_off_c, 0, 47, 80
2, 83520, Note_on_c, 0, 60, 111
2, 83520, Note_on_c, 0, 52, 111
2, 83520, Note_on_c, 0, 48, 111
2, 84000, Note_off_c, 0, 60, 80
2, 84000, Note_off_c, 0, 52, 80
2, 84000, Note_off_c, 0, 48, 80
2, 84480, Note_on_c, 0, 55, 111
2, 84480, Note_on_c, 0, 52, 111
2, 84600, Note_off_c, 0, 55, 80
2, 84600, Note_off_c, 0, 52, 80
2, 84600, Note_on_c, 0, 41, 111
2, 84720, Note_off_c, 0, 41, 80
2, 84720, Note_on_c, 0, 52, 111
2, 84720, Note_on_c, 0, 48, 111
2, 84840, Note_off_c, 0, 52, 80
2, 84840, Note_off_c, 0, 48, 80
2, 84840, Note_on_c, 0, 53, 111
2, 84840, Note_on_c, 0, 50, 111
2, 84960, Note_off_c, 0, 53, 80
2, 84960, Note_off_c, 0, 50, 80
2, 84960, Note_on_c, 0, 55, 111
2, 84960, Note_on_c, 0, 52, 111
2, 85080, Note_off_c, 0, 55, 80
2, 85080, Note_off_c, 0, 52, 80
2, 85080, Note_on_c, 0, 41, 111
2, 85200, Note_off_c, 0, 41, 80
2, 85200, Note_on_c, 0, 60, 111
2, 85200, Note_on_c, 0, 52, 111
2, 85200, Note_on_c, 0, 48, 111
2, 85440, Note_off_c, 0, 60, 80
2, 85440, Note_off_c, 0, 52, 80
2, 85440, Note_off_c, 0, 48, 80
2, 85440, Note_on_c, 0, 59, 111
2, 85440, Note_on_c, 0, 53, 111
2, 85440, Note_on_c, 0, 47, 111
2, 85680, Note_off_c, 0, 59, 80
2, 85680, Note_off_c, 0, 53, 80
2, 85680, Note_off_c, 0, 47, 80
2, 85680, Note_on_c, 0, 57, 111
2, 85680, Note_on_c, 0, 53, 111
2, 85680, Note_on_c, 0, 45, 111
2, 85920, Note_off_c, 0, 57, 80
2, 85920, Note_off_c, 0, 53, 80
2, 85920, Note_off_c, 0, 45, 80
2, 85920, Note_on_c, 0, 55, 111
2, 85920, Note_on_c, 0, 53, 111
2, 85920, Note_on_c, 0, 47, 111
2, 86400, Note_off_c, 0, 55, 80
2, 86400, Note_off_c, 0, 53, 80
2, 86400, Note_off_c, 0, 47, 80
2, 86400, Note_on_c, 0, 55, 111
2, 86400, Note_on_c, 0, 48, 111
2, 86520, Note_off_c, 0, 55, 80
2, 86520, Note_off_c, 0, 48, 80
2, 86520, Note_on_c, 0, 41, 111
2, 86640, Note_off_c, 0, 41, 80
2, 86640, Note_on_c, 0, 52, 111
2, 86760, Note_off_c, 0, 52, 80
2, 86760, Note_on_c, 0, 53, 111
2, 86880, Note_off_c, 0, 53, 80
2, 86880, Note_on_c, 0, 55, 111
2, 86880, Note_on_c, 0, 48, 111
2, 87000, Note_off_c, 0, 55, 80
2, 87000, Note_off_c, 0, 48, 80
2, 87000, Note_on_c, 0, 41, 111
2, 87120, Note_off_c, 0, 41, 80
2, 87120, Note_on_c, 0, 60, 111
2, 87120, Note_on_c, 0, 52, 111
2, 87120, Note_on_c, 0, 48, 111
2, 87360, Note_off_c, 0, 60, 80
2, 87360, Note_off_c, 0, 52, 80
2, 87360, Note_off_c, 0, 48, 80
2, 87360, Note_on_c, 0, 59, 111
2, 87360, Note_on_c, 0, 53, 111
2, 87360, Note_on_c, 0, 47, 111
2, 87600, Note_off_c, 0, 59, 80
2, 87600, Note_off_c, 0, 53, 80
2, 87600, Note_off_c, 0, 47, 80
2, 87600, Note_on_c, 0, 57, 111
2, 87600, Note_on_c, 0, 53, 111
2, 87600, Note_on_c, 0, 45, 111
2, 87840, Note_off_c, 0, 57, 80
2, 87840, Note_off_c, 0, 53, 80
2, 87840, Note_off_c, 0, 45, 80
2, 87840, Note_on_c, 0, 55, 111
2, 87840, Note_on_c, 0, 52, 111
2, 87840, Note_on_c, 0, 48, 111
2, 88320, Note_off_c, 0, 55, 80
2, 88320, Note_off_c, 0, 52, 80
2, 88320, Note_off_c, 0, 48, 80
2, 88320, Note_on_c, 0, 60, 111
2, 88320, Note_on_c, 0, 52, 111
2, 88320, Note_on_c, 0, 48, 111
2, 88560, Note_off_c, 0, 60, 80
2, 88560, Note_off_c, 0, 52, 80
2, 88560, Note_off_c, 0, 48, 80
2, 88560, Note_on_c, 0, 64, 111
2, 88560, Note_on_c, 0, 55, 111
2, 88560, Note_on_c, 0, 52, 111
2, 88680, Note_off_c, 0, 64, 80
2, 88680, Note_off_c, 0, 55, 80
2, 88680, Note_off_c, 0, 52, 80
2, 88680, Note_on_c, 0, 62, 111
2, 88680, Note_on_c, 0, 53, 111
2, 88800, Note_off_c, 0, 62, 80
2, 88800, Note_off_c, 0, 53, 80
2, 88800, Note_on_c, 0, 60, 111
2, 88800, Note_on_c, 0, 52, 111
2, 89040, Note_off_c, 0, 60, 80
2, 89040, Note_off_c, 0, 52, 80
2, 89040, Note_on_c, 0, 55, 111
2, 89280, Note_off_c, 0, 55, 80
2, 89280, Note_on_c, 0, 57, 111
2, 89280, Note_on_c, 0, 48, 111
2, 89280, Note_on_c, 0, 43, 111
2, 89520, Note_off_c, 0, 57, 80
2, 89520, Note_off_c, 0, 48, 80
2, 89520, Note_off_c, 0, 43, 80
2, 89520, Note_on_c, 0, 57, 111
2, 89520, Note_on_c, 0, 48, 111
2, 89640, Note_off_c, 0, 57, 80
2, 89640, Note_off_c, 0, 48, 80
2, 89640, Note_on_c, 0, 56, 111
2, 89760, Note_off_c, 0, 56, 80
2, 89760, Note_on_c, 0, 57, 111
2, 89760, Note_on_c, 0, 48, 111
2, 90000, Note_off_c, 0, 57, 80
2, 90000, Note_off_c, 0, 48, 80
2, 90000, Note_on_c, 0, 50, 111
2, 90000, Note_on_c, 0, 45, 111
2, 90120, Note_off_c, 0, 50, 80
2, 90120, Note_off_c, 0, 45, 80
2, 90120, Note_on_c, 0, 48, 111
2, 90240, Note_off_c, 0, 48, 80
2, 90240, Note_on_c, 0, 50, 111
2, 90240, Note_on_c, 0, 47, 111
2, 90480, Note_off_c, 0, 50, 80
2, 90480, Note_off_c, 0, 47, 80
2, 90480, Note_on_c, 0, 52, 111
2, 90480, Note_on_c, 0, 48, 111
2, 90720, Note_off_c, 0, 52, 80
2, 90720, Note_off_c, 0, 48, 80
2, 90720, Note_on_c, 0, 53, 111
2, 90720, Note_on_c, 0, 47, 111
2, 90840, Note_off_c, 0, 53, 80
2, 90840, Note_off_c, 0, 47, 80
2, 90840, Note_on_c, 0, 45, 111
2, 90960, Note_off_c, 0, 45, 80
2, 90960, Note_on_c, 0, 55, 111
2, 90960, Note_on_c, 0, 47, 111
2, 90960, Note_on_c, 0, 41, 111
2, 91200, Note_off_c, 0, 55, 80
2, 91200, Note_off_c, 0, 47, 80
2, 91200, Note_off_c, 0, 41, 80
2, 91200, Note_on_c, 0, 52, 111
2, 91200, Note_on_c, 0, 48, 111
2, 91200, Note_on_c, 0, 41, 111
2, 91680, Note_off_c, 0, 52, 80
2, 91680, Note_off_c, 0, 48, 80
2, 91680, Note_off_c, 0, 41, 80
2, 91920, Note_on_c, 0, 67, 111
2, 91920, Note_on_c, 0, 58, 111
2, 92040, Note_off_c, 0, 67, 80
2, 92040, Note_off_c, 0, 58, 80
2, 92040, Note_on_c, 0, 57, 111
2, 92160, Note_off_c, 0, 57, 80
2, 92160, Note_on_c, 0, 58, 111
2, 92160, Note_on_c, 0, 52, 111
2, 92280, Note_off_c, 0, 58, 80
2, 92280, Note_off_c, 0, 52, 80
2, 92280, Note_on_c, 0, 48, 111
2, 92400, Note_off_c, 0, 48, 80
2, 92400, Note_on_c, 0, 57, 111
2, 92400, Note_on_c, 0, 53, 111
2, 92520, Note_off_c, 0, 57, 80
2, 92520, Note_off_c, 0, 53, 80
2, 92520, Note_on_c, 0, 48, 111
2, 92640, Note_off_c, 0, 48, 80
2, 92640, Note_on_c, 0, 58, 111
2, 92640, Note_on_c, 0, 52, 111
2, 92760, Note_off_c, 0, 58, 80
2, 92760, Note_off_c, 0, 52, 80
2, 92760, Note_on_c, 0, 48, 111
2, 92880, Note_off_c, 0, 48, 80
2, 92880, Note_on_c, 0, 67, 111
2, 92880, Note_on_c, 0, 58, 111
2, 92880, Note_on_c, 0, 55, 111
2, 93120, Note_off_c, 0, 67, 80
2, 93120, Note_off_c, 0, 58, 80
2, 93120, Note_off_c, 0, 55, 80
2, 93120, Note_on_c, 0, 58, 111
2, 93120, Note_on_c, 0, 52, 111
2, 93360, Note_off_c, 0, 58, 80
2, 93360, Note_off_c, 0, 52, 80
2, 93360, Note_on_c, 0, 57, 111
2, 93360, Note_on_c, 0, 48, 111
2, 93480, Note_off_c, 0, 57, 80
2, 93480, Note_off_c, 0, 48, 80
2, 93480, Note_on_c, 0, 55, 111
2, 93600, Note_off_c, 0, 55, 80
2, 93600, Note_on_c, 0, 57, 111
2, 93600, Note_on_c, 0, 48, 111
2, 93840, Note_off_c, 0, 57, 80
2, 93840, Note_off_c, 0, 48, 80
2, 93840, Note_on_c, 0, 60, 111
2, 93840, Note_on_c, 0, 53, 111
2, 93840, Note_on_c, 0, 48, 111
2, 94080, Note_off_c, 0, 60, 80
2, 94080, Note_off_c, 0, 53, 80
2, 94080, Note_off_c, 0, 48, 80
2, 94080, Note_on_c, 0, 63, 111
2, 94080, Note_on_c, 0, 57, 111
2, 94200, Note_off_c, 0, 63, 80
2, 94200, Note_off_c, 0, 57, 80
2, 94200, Note_on_c, 0, 53, 111
2, 94320, Note_off_c, 0, 53, 80
2, 94320, Note_on_c, 0, 60, 111
2, 94440, Note_off_c, 0, 60, 80
2, 94440, Note_on_c, 0, 53, 111
2, 94560, Note_off_c, 0, 53, 80
2, 94560, Note_on_c, 0, 57, 111
2, 94680, Note_off_c, 0, 57, 80
2, 94680, Note_on_c, 0, 53, 111
2, 94800, Note_off_c, 0, 53, 80
2, 94800, Note_on_c, 0, 63, 111
2, 94800, Note_on_c, 0, 57, 111
2, 95040, Note_off_c, 0, 63, 80
2, 95040, Note_off_c, 0, 57, 80
2, 95040, Note_on_c, 0, 63, 111
2, 95040, Note_on_c, 0, 57, 111
2, 95280, Note_off_c, 0, 63, 80
2, 95280, Note_off_c, 0, 57, 80
2, 95280, Note_on_c, 0, 62, 111
2, 95280, Note_on_c, 0, 53, 111
2, 95400, Note_off_c, 0, 62, 80
2, 95400, Note_off_c, 0, 53, 80
2, 95400, Note_on_c, 0, 60, 111
2, 95520, Note_off_c, 0, 60, 80
2, 95520, Note_on_c, 0, 62, 111
2, 95520, Note_on_c, 0, 53, 111
2, 95760, Note_off_c, 0, 62, 80
2, 95760, Note_off_c, 0, 53, 80
2, 95760, Note_on_c, 0, 62, 111
2, 95760, Note_on_c, 0, 53, 111
2, 95760, Note_on_c, 0, 50, 111
2, 96000, Note_off_c, 0, 62, 80
2, 96000, Note_off_c, 0, 53, 80
2, 96000, Note_off_c, 0, 50, 80
2, 96000, Note_on_c, 0, 55, 111
2, 96000, Note_on_c, 0, 53, 111
2, 96000, Note_on_c, 0, 50, 111
2, 96240, Note_off_c, 0, 55, 80
2, 96240, Note_off_c, 0, 53, 80
2, 96240, Note_off_c, 0, 50, 80
2, 96240, Note_on_c, 0, 65, 111
2, 96240, Note_on_c, 0, 59, 111
2, 96240, Note_on_c, 0, 53, 111
2, 96480, Note_off_c, 0, 65, 80
2, 96480, Note_off_c, 0, 59, 80
2, 96480, Note_off_c, 0, 53, 80
2, 96480, Note_on_c, 0, 64, 111
2, 96480, Note_on_c, 0, 59, 111
2, 96480, Note_on_c, 0, 55, 111
2, 96720, Note_off_c, 0, 64, 80
2, 96720, Note_off_c, 0, 59, 80
2, 96720, Note_off_c, 0, 55, 80
2, 96720, Note_on_c, 0, 62, 111
2, 96720, Note_on_c, 0, 55, 111
2, 96720, Note_on_c, 0, 53, 111
2, 96960, Note_off_c, 0, 62, 80
2, 96960, Note_off_c, 0, 55, 80
2, 96960, Note_off_c, 0, 53, 80
2, 96960, Note_on_c, 0, 57, 111
2, 96960, Note_on_c, 0, 55, 111
2, 96960, Note_on_c, 0, 52, 111
2, 97200, Note_off_c, 0, 57, 80
2, 97200, Note_off_c, 0, 55, 80
2, 97200, Note_off_c, 0, 52, 80
2, 97200, Note_on_c, 0, 67, 111
2, 97200, Note_on_c, 0, 61, 111
2, 97200, Note_on_c, 0, 55, 111
2, 97440, Note_off_c, 0, 67, 80
2, 97440, Note_off_c, 0, 61, 80
2, 97440, Note_off_c, 0, 55, 80
2, 97440, Note_on_c, 0, 65, 111
2, 97440, Note_on_c, 0, 61, 111
2, 97440, Note_on_c, 0, 57, 111
2, 97680, Note_off_c, 0, 65, 80
2, 97680, Note_off_c, 0, 61, 80
2, 97680, Note_off_c, 0, 57, 80
2, 97680, Note_on_c, 0, 64, 111
2, 97680, Note_on_c, 0, 61, 111
2, 97680, Note_on_c, 0, 57, 111
2, 97680, Note_on_c, 0, 55, 111
2, 97920, Note_off_c, 0, 64, 80
2, 97920, Note_off_c, 0, 61, 80
2, 97920, Note_off_c, 0, 57, 80
2, 97920, Note_off_c, 0, 55, 80
2, 97920, Note_on_c, 0, 69, 111
2, 97920, Note_on_c, 0, 62, 111
2, 97920, Note_on_c, 0, 57, 111
2, 98160, Note_off_c, 0, 69, 80
2, 98160, Note_off_c, 0, 62, 80
2, 98160, Note_off_c, 0, 57, 80
2, 98160, Note_on_c, 0, 61, 111
2, 98160, Note_on_c, 0, 55, 111
2, 98160, Note_on_c, 0, 52, 111
2, 98400, Note_off_c, 0, 61, 80
2, 98400, Note_off_c, 0, 55, 80
2, 98400, Note_off_c, 0, 52, 80
2, 98400, Note_on_c, 0, 62, 111
2, 98400, Note_on_c, 0, 57, 111
2, 98400, Note_on_c, 0, 53, 111
2, 98640, Note_off_c, 0, 62, 80
2, 98640, Note_off_c, 0, 57, 80
2, 98640, Note_off_c, 0, 53, 80
2, 98640, Note_on_c, 0, 65, 111
2, 98640, Note_on_c, 0, 56, 111
2, 98640, Note_on_c, 0, 53, 111
2, 98880, Note_off_c, 0, 65, 80
2, 98880, Note_off_c, 0, 56, 80
2, 98880, Note_off_c, 0, 53, 80
2, 98880, Note_on_c, 0, 64, 111
2, 98880, Note_on_c, 0, 57, 111
2, 98880, Note_on_c, 0, 52, 111
2, 99000, Note_off_c, 0, 64, 80
2, 99000, Note_off_c, 0, 57, 80
2, 99000, Note_off_c, 0, 52, 80
2, 99000, Note_on_c, 0, 58, 111
2, 99120, Note_off_c, 0, 58, 80
2, 99120, Note_on_c, 0, 57, 111
2, 99240, Note_off_c, 0, 57, 80
2, 99240, Note_on_c, 0, 55, 111
2, 99360, Note_off_c, 0, 55, 80
2, 99360, Note_on_c, 0, 53, 111
2, 99480, Note_off_c, 0, 53, 80
2, 99480, Note_on_c, 0, 52, 111
2, 99600, Note_off_c, 0, 52, 80
2, 99600, Note_on_c, 0, 57, 111
2, 99600, Note_on_c, 0, 49, 111
2, 99840, Note_off_c, 0, 57, 80
2, 99840, Note_off_c, 0, 49, 80
2, 99840, Note_on_c, 0, 58, 111
2, 99840, Note_on_c, 0, 50, 111
2, 100080, Note_off_c, 0, 58, 80
2, 100080, Note_off_c, 0, 50, 80
2, 100080, Note_on_c, 0, 57, 111
2, 100080, Note_on_c, 0, 52, 111
2, 100200, Note_off_c, 0, 57, 80
2, 100200, Note_off_c, 0, 52, 80
2, 100200, Note_on_c, 0, 55, 111
2, 100320, Note_off_c, 0, 55, 80
2, 100320, Note_on_c, 0, 56, 111
2, 100320, Note_on_c, 0, 50, 111
2, 100560, Note_off_c, 0, 56, 80
2, 100560, Note_off_c, 0, 50, 80
2, 100560, Note_on_c, 0, 57, 111
2, 100560, Note_on_c, 0, 49, 111
2, 100800, Note_off_c, 0, 57, 80
2, 100800, Note_off_c, 0, 49, 80
2, 100800, Note_on_c, 0, 67, 111
2, 100800, Note_on_c, 0, 58, 111
2, 100800, Note_on_c, 0, 55, 111
2, 101040, Note_off_c, 0, 67, 80
2, 101040, Note_off_c, 0, 58, 80
2, 101040, Note_off_c, 0, 55, 80
2, 101040, Note_on_c, 0, 64, 111
2, 101040, Note_on_c, 0, 55, 111
2, 101040, Note_on_c, 0, 52, 111
2, 101280, Note_off_c, 0, 64, 80
2, 101280, Note_off_c, 0, 55, 80
2, 101280, Note_off_c, 0, 52, 80
2, 101280, Note_on_c, 0, 61, 111
2, 101520, Note_off_c, 0, 61, 80
2, 101520, Note_on_c, 0, 57, 111
2, 101520, Note_on_c, 0, 49, 111
2, 101760, Note_off_c, 0, 57, 80
2, 101760, Note_off_c, 0, 49, 80
2, 101760, Note_on_c, 0, 58, 111
2, 101760, Note_on_c, 0, 50, 111
2, 102000, Note_off_c, 0, 58, 80
2, 102000, Note_off_c, 0, 50, 80
2, 102000, Note_on_c, 0, 57, 111
2, 102000, Note_on_c, 0, 52, 111
2, 102120, Note_off_c, 0, 57, 80
2, 102120, Note_off_c, 0, 52, 80
2, 102120, Note_on_c, 0, 55, 111
2, 102240, Note_off_c, 0, 55, 80
2, 102240, Note_on_c, 0, 56, 111
2, 102240, Note_on_c, 0, 50, 111
2, 102480, Note_off_c, 0, 56, 80
2, 102480, Note_off_c, 0, 50, 80
2, 102480, Note_on_c, 0, 57, 111
2, 102480, Note_on_c, 0, 49, 111
2, 102720, Note_off_c, 0, 57, 80
2, 102720, Note_off_c, 0, 49, 80
2, 102720, Note_on_c, 0, 67, 111
2, 102720, Note_on_c, 0, 57, 111
2, 102840, Note_off_c, 0, 67, 80
2, 102840, Note_off_c, 0, 57, 80
2, 102840, Note_on_c, 0, 58, 111
2, 102960, Note_off_c, 0, 58, 80
2, 102960, Note_on_c, 0, 64, 111
2, 102960, Note_on_c, 0, 57, 111
2, 103080, Note_off_c, 0, 64, 80
2, 103080, Note_off_c, 0, 57, 80
2, 103080, Note_on_c, 0, 55, 111
2, 103200, Note_off_c, 0, 55, 80
2, 103200, Note_on_c, 0, 61, 111
2, 103320, Note_off_c, 0, 61, 80
2, 103320, Note_on_c, 0, 58, 111
2, 103440, Note_off_c, 0, 58, 80
2, 103440, Note_on_c, 0, 57, 111
2, 103440, Note_on_c, 0, 49, 111
2, 103560, Note_off_c, 0, 57, 80
2, 103560, Note_off_c, 0, 49, 80
2, 103560, Note_on_c, 0, 55, 111
2, 103680, Note_off_c, 0, 55, 80
2, 103680, Note_on_c, 0, 62, 111
2, 103680, Note_on_c, 0, 53, 111
2, 103680, Note_on_c, 0, 50, 111
2, 103920, Note_off_c, 0, 62, 80
2, 103920, Note_off_c, 0, 53, 80
2, 103920, Note_off_c, 0, 50, 80
2, 103920, Note_on_c, 0, 65, 111
2, 103920, Note_on_c, 0, 57, 111
2, 103920, Note_on_c, 0, 53, 111
2, 104040, Note_off_c, 0, 65, 80
2, 104040, Note_off_c, 0, 57, 80
2, 104040, Note_off_c, 0, 53, 80
2, 104040, Note_on_c, 0, 64, 111
2, 104040, Note_on_c, 0, 55, 111
2, 104160, Note_off_c, 0, 64, 80
2, 104160, Note_off_c, 0, 55, 80
2, 104160, Note_on_c, 0, 62, 111
2, 104160, Note_on_c, 0, 53, 111
2, 104400, Note_off_c, 0, 62, 80
2, 104400, Note_off_c, 0, 53, 80
2, 104400, Note_on_c, 0, 62, 111
2, 104400, Note_on_c, 0, 57, 111
2, 104400, Note_on_c, 0, 53, 111
2, 104640, Note_off_c, 0, 62, 80
2, 104640, Note_off_c, 0, 57, 80
2, 104640, Note_off_c, 0, 53, 80
2, 104640, Note_on_c, 0, 55, 111
2, 104640, Note_on_c, 0, 50, 111
2, 104760, Note_off_c, 0, 55, 80
2, 104760, Note_off_c, 0, 50, 80
2, 104760, Note_on_c, 0, 57, 111
2, 104880, Note_off_c, 0, 57, 80
2, 104880, Note_on_c, 0, 55, 111
2, 105000, Note_off_c, 0, 55, 80
2, 105000, Note_on_c, 0, 53, 111
2, 105120, Note_off_c, 0, 53, 80
2, 105120, Note_on_c, 0, 64, 111
2, 105120, Note_on_c, 0, 55, 111
2, 105120, Note_on_c, 0, 52, 111
2, 105360, Note_off_c, 0, 64, 80
2, 105360, Note_off_c, 0, 55, 80
2, 105360, Note_off_c, 0, 52, 80
2, 105360, Note_on_c, 0, 65, 111
2, 105360, Note_on_c, 0, 53, 111
2, 105480, Note_off_c, 0, 65, 80
2, 105480, Note_off_c, 0, 53, 80
2, 105480, Note_on_c, 0, 67, 111
2, 105480, Note_on_c, 0, 55, 111
2, 105600, Note_off_c, 0, 67, 80
2, 105600, Note_off_c, 0, 55, 80
2, 105600, Note_on_c, 0, 65, 111
2, 105600, Note_on_c, 0, 53, 111
2, 105720, Note_off_c, 0, 65, 80
2, 105720, Note_off_c, 0, 53, 80
2, 105720, Note_on_c, 0, 57, 111
2, 105840, Note_off_c, 0, 57, 80
2, 105840, Note_on_c, 0, 64, 111
2, 105840, Note_on_c, 0, 55, 111
2, 105960, Note_off_c, 0, 64, 80
2, 105960, Note_off_c, 0, 55, 80
2, 105960, Note_on_c, 0, 62, 111
2, 105960, Note_on_c, 0, 53, 111
2, 106080, Note_off_c, 0, 62, 80
2, 106080, Note_off_c, 0, 53, 80
2, 106080, Note_on_c, 0, 64, 111
2, 106080, Note_on_c, 0, 55, 111
2, 106080, Note_on_c, 0, 52, 111
2, 106320, Note_off_c, 0, 64, 80
2, 106320, Note_off_c, 0, 55, 80
2, 106320, Note_off_c, 0, 52, 80
2, 106320, Note_on_c, 0, 61, 111
2, 106560, Note_off_c, 0, 61, 80
2, 106560, Note_on_c, 0, 62, 111
2, 106560, Note_on_c, 0, 57, 111
2, 106560, Note_on_c, 0, 53, 111
2, 107040, Note_off_c, 0, 62, 80
2, 107040, Note_off_c, 0, 57, 80
2, 107040, Note_off_c, 0, 53, 80
2, 107520, Note_on_c, 0, 57, 111
2, 107520, Note_on_c, 0, 50, 111
2, 107640, Note_off_c, 0, 57, 80
2, 107640, Note_off_c, 0, 50, 80
2, 107640, Note_on_c, 0, 45, 111
2, 107760, Note_off_c, 0, 45, 80
2, 107760, Note_on_c, 0, 53, 111
2, 107880, Note_off_c, 0, 53, 80
2, 107880, Note_on_c, 0, 55, 111
2, 108000, Note_off_c, 0, 55, 80
2, 108000, Note_on_c, 0, 57, 111
2, 108000, Note_on_c, 0, 50, 111
2, 108120, Note_off_c, 0, 57, 80
2, 108120, Note_off_c, 0, 50, 80
2, 108120, Note_on_c, 0, 45, 111
2, 108240, Note_off_c, 0, 45, 80
2, 108240, Note_on_c, 0, 62, 111
2, 108240, Note_on_c, 0, 53, 111
2, 108240, Note_on_c, 0, 50, 111
2, 108480, Note_off_c, 0, 62, 80
2, 108480, Note_off_c, 0, 53, 80
2, 108480, Note_off_c, 0, 50, 80
2, 108480, Note_on_c, 0, 55, 111
2, 108600, Note_off_c, 0, 55, 80
2, 108600, Note_on_c, 0, 45, 111
2, 108720, Note_off_c, 0, 45, 80
2, 108720, Note_on_c, 0, 53, 111
2, 108840, Note_off_c, 0, 53, 80
2, 108840, Note_on_c, 0, 45, 111
2, 108960, Note_off_c, 0, 45, 80
2, 108960, Note_on_c, 0, 52, 111
2, 109080, Note_off_c, 0, 52, 80
2, 109080, Note_on_c, 0, 45, 111
2, 109200, Note_off_c, 0, 45, 80
2, 109200, Note_on_c, 0, 57, 111
2, 109200, Note_on_c, 0, 49, 111
2, 109320, Note_off_c, 0, 57, 80
2, 109320, Note_off_c, 0, 49, 80
2, 109320, Note_on_c, 0, 45, 111
2, 109440, Note_off_c, 0, 45, 80
2, 109440, Note_on_c, 0, 57, 111
2, 109440, Note_on_c, 0, 50, 111
2, 109560, Note_off_c, 0, 57, 80
2, 109560, Note_off_c, 0, 50, 80
2, 109560, Note_on_c, 0, 45, 111
2, 109680, Note_off_c, 0, 45, 80
2, 109680, Note_on_c, 0, 53, 111
2, 109800, Note_off_c, 0, 53, 80
2, 109800, Note_on_c, 0, 55, 111
2, 109920, Note_off_c, 0, 55, 80
2, 109920, Note_on_c, 0, 57, 111
2, 109920, Note_on_c, 0, 50, 111
2, 110040, Note_off_c, 0, 57, 80
2, 110040, Note_off_c, 0, 50, 80
2, 110040, Note_on_c, 0, 45, 111
2, 110160, Note_off_c, 0, 45, 80
2, 110160, Note_on_c, 0, 62, 111
2, 110160, Note_on_c, 0, 53, 111
2, 110160, Note_on_c, 0, 50, 111
2, 110400, Note_off_c, 0, 62, 80
2, 110400, Note_off_c, 0, 53, 80
2, 110400, Note_off_c, 0, 50, 80
2, 110400, Note_on_c, 0, 55, 111
2, 110400, Note_on_c, 0, 49, 111
2, 110520, Note_off_c, 0, 55, 80
2, 110520, Note_off_c, 0, 49, 80
2, 110520, Note_on_c, 0, 45, 111
2, 110640, Note_off_c, 0, 45, 80
2, 110640, Note_on_c, 0, 55, 111
2, 110640, Note_on_c, 0, 52, 111
2, 110760, Note_off_c, 0, 55, 80
2, 110760, Note_off_c, 0, 52, 80
2, 110760, Note_on_c, 0, 45, 111
2, 110880, Note_off_c, 0, 45, 80
2, 110880, Note_on_c, 0, 52, 111
2, 111000, Note_off_c, 0, 52, 80
2, 111000, Note_on_c, 0, 45, 111
2, 111120, Note_off_c, 0, 45, 80
2, 111120, Note_on_c, 0, 57, 111
2, 111120, Note_on_c, 0, 49, 111
2, 111240, Note_off_c, 0, 57, 80
2, 111240, Note_off_c, 0, 49, 80
2, 111240, Note_on_c, 0, 45, 111
2, 111360, Note_off_c, 0, 45, 80
2, 111360, Note_on_c, 0, 62, 111
2, 111360, Note_on_c, 0, 53, 111
2, 111600, Note_off_c, 0, 62, 80
2, 111600, Note_off_c, 0, 53, 80
2, 111600, Note_on_c, 0, 65, 111
2, 111600, Note_on_c, 0, 57, 111
2, 111600, Note_on_c, 0, 53, 111
2, 111720, Note_off_c, 0, 65, 80
2, 111720, Note_off_c, 0, 57, 80
2, 111720, Note_off_c, 0, 53, 80
2, 111720, Note_on_c, 0, 64, 111
2, 111720, Note_on_c, 0, 55, 111
2, 111720, Note_on_c, 0, 52, 111
2, 111840, Note_off_c, 0, 64, 80
2, 111840, Note_off_c, 0, 55, 80
2, 111840, Note_off_c, 0, 52, 80
2, 111840, Note_on_c, 0, 62, 111
2, 111840, Note_on_c, 0, 53, 111
2, 112080, Note_off_c, 0, 62, 80
2, 112080, Note_off_c, 0, 53, 80
2, 112080, Note_on_c, 0, 62, 111
2, 112080, Note_on_c, 0, 53, 111
2, 112320, Note_off_c, 0, 62, 80
2, 112320, Note_off_c, 0, 53, 80
2, 112320, Note_on_c, 0, 52, 111
2, 112440, Note_off_c, 0, 52, 80
2, 112440, Note_on_c, 0, 53, 111
2, 112560, Note_off_c, 0, 53, 80
2, 112560, Note_on_c, 0, 52, 111
2, 112680, Note_off_c, 0, 52, 80
2, 112680, Note_on_c, 0, 50, 111
2, 112800, Note_off_c, 0, 50, 80
2, 112800, Note_on_c, 0, 64, 111
2, 112800, Note_on_c, 0, 55, 111
2, 112800, Note_on_c, 0, 52, 111
2, 113040, Note_off_c, 0, 64, 80
2, 113040, Note_off_c, 0, 55, 80
2, 113040, Note_off_c, 0, 52, 80
2, 113040, Note_on_c, 0, 65, 111
2, 113040, Note_on_c, 0, 53, 111
2, 113160, Note_off_c, 0, 65, 80
2, 113160, Note_off_c, 0, 53, 80
2, 113160, Note_on_c, 0, 67, 111
2, 113160, Note_on_c, 0, 55, 111
2, 113280, Note_off_c, 0, 67, 80
2, 113280, Note_off_c, 0, 55, 80
2, 113280, Note_on_c, 0, 65, 111
2, 113280, Note_on_c, 0, 53, 111
2, 113400, Note_off_c, 0, 65, 80
2, 113400, Note_off_c, 0, 53, 80
2, 113400, Note_on_c, 0, 57, 111
2, 113520, Note_off_c, 0, 57, 80
2, 113520, Note_on_c, 0, 64, 111
2, 113520, Note_on_c, 0, 52, 111
2, 113640, Note_off_c, 0, 64, 80
2, 113640, Note_off_c, 0, 52, 80
2, 113640, Note_on_c, 0, 62, 111
2, 113640, Note_on_c, 0, 50, 111
2, 113760, Note_off_c, 0, 62, 80
2, 113760, Note_off_c, 0, 50, 80
2, 113760, Note_on_c, 0, 64, 111
2, 113760, Note_on_c, 0, 55, 111
2, 113760, Note_on_c, 0, 52, 111
2, 114000, Note_off_c, 0, 64, 80
2, 114000, Note_off_c, 0, 55, 80
2, 114000, Note_off_c, 0, 52, 80
2, 114000, Note_on_c, 0, 61, 111
2, 114000, Note_on_c, 0, 55, 111
2, 114240, Note_off_c, 0, 61, 80
2, 114240, Note_off_c, 0, 55, 80
2, 114240, Note_on_c, 0, 41, 111
2, 114260, Note_on_c, 0, 53, 111
2, 114280, Note_on_c, 0, 62, 111
2, 115200, Note_off_c, 0, 41, 80
2, 115200, Note_off_c, 0, 53, 80
2, 115200, Note_off_c, 0, 62, 80
2, 115200, End_track
0, 0, End_of_file
