0, 0, Header,  1, 2, 480
1, 0, Start_track
1, 0, Tempo,  705882
1, 0, Title_t,  "Cantate BWV20"
1, 0, Time_signature,  1, 2, 10, 197
1, 0, Tempo,  705882
1, 480, Time_signature,  4, 2, 10, 197
1, 27480, Tempo,  731707
1, 27600, Tempo,  750000
1, 27720, Tempo,  769230
1, 27840, Tempo,  800000
1, 27840, End_track
2, 0, Start_track
2, 0, Note_on_c, 2, 57, 95, 0
2, 0, Note_on_c, 2, 62, 95, 0
2, 480, Note_off_c, 2, 57, 95, 0
2, 480, Note_off_c, 2, 62, 95, 0
2, 480, Note_on_c, 2, 50, 95, 0
2, 960, Note_off_c, 2, 50, 95, 0
2, 960, Note_on_c, 2, 57, 95, 0
2, 1440, Note_off_c, 2, 57, 95, 0
2, 1440, Note_on_c, 2, 50, 95, 0
2, 1440, Note_on_c, 2, 55, 95, 0
2, 1920, Note_off_c, 2, 50, 95, 0
2, 1920, Note_off_c, 2, 55, 95, 0
2, 1920, Note_on_c, 2, 48, 95, 0
2, 1920, Note_on_c, 2, 57, 95, 0
2, 2040, Note_off_c, 2, 48, 95, 0
2, 2040, Note_off_c, 2, 57, 95, 0
2, 2040, Note_on_c, 2, 55, 95, 0
2, 2520, Note_off_c, 2, 55, 95, 0
2, 2520, Note_on_c, 2, 47, 95, 0
2, 2760, Note_off_c, 2, 47, 95, 0
2, 2760, Note_on_c, 2, 57, 95, 0
2, 2760, Note_on_c, 2, 62, 95, 0
2, 3240, Note_off_c, 2, 57, 95, 0
2, 3240, Note_off_c, 2, 62, 95, 0
2, 3240, Note_on_c, 2, 50, 95, 0
2, 3240, Note_on_c, 2, 55, 95, 0
2, 3720, Note_off_c, 2, 50, 95, 0
2, 3720, Note_off_c, 2, 55, 95, 0
2, 3720, Note_on_c, 2, 48, 95, 0
2, 3960, Note_off_c, 2, 48, 95, 0
2, 3960, Note_on_c, 2, 43, 95, 0
2, 3960, Note_on_c, 2, 55, 95, 0
2, 4440, Note_off_c, 2, 43, 95, 0
2, 4440, Note_off_c, 2, 55, 95, 0
2, 4440, Note_on_c, 2, 50, 95, 0
2, 4440, Note_on_c, 2, 59, 95, 0
2, 4920, Note_off_c, 2, 50, 95, 0
2, 4920, Note_off_c, 2, 59, 95, 0
2, 4920, Note_on_c, 2, 52, 95, 0
2, 5400, Note_off_c, 2, 52, 95, 0
2, 5400, Note_on_c, 2, 57, 95, 0
2, 5520, Note_off_c, 2, 57, 95, 0
2, 5520, Note_on_c, 2, 59, 95, 0
2, 6000, Note_off_c, 2, 59, 95, 0
2, 6000, Note_on_c, 2, 52, 95, 0
2, 6480, Note_off_c, 2, 52, 95, 0
2, 6480, Note_on_c, 2, 57, 95, 0
2, 6480, Note_on_c, 2, 62, 95, 0
2, 6600, Note_off_c, 2, 57, 95, 0
2, 6600, Note_off_c, 2, 62, 95, 0
2, 6600, Note_on_c, 2, 59, 95, 0
2, 7080, Note_off_c, 2, 59, 95, 0
2, 7320, Note_on_c, 2, 50, 95, 0
2, 7560, Note_off_c, 2, 50, 95, 0
2, 7560, Note_on_c, 2, 59, 95, 0
2, 7560, Note_on_c, 2, 62, 95, 0
2, 7800, Note_off_c, 2, 59, 95, 0
2, 7800, Note_off_c, 2, 62, 95, 0
2, 7800, Note_on_c, 2, 55, 95, 0
2, 7920, Note_off_c, 2, 55, 95, 0
2, 8040, Note_on_c, 2, 64, 95, 0
2, 8160, Note_off_c, 2, 64, 95, 0
2, 8160, Note_on_c, 2, 45, 95, 0
2, 8160, Note_on_c, 2, 64, 95, 0
2, 8640, Note_off_c, 2, 45, 95, 0
2, 8640, Note_off_c, 2, 64, 95, 0
2, 8640, Note_on_c, 2, 62, 95, 0
2, 9120, Note_off_c, 2, 62, 95, 0
2, 9120, Note_on_c, 2, 60, 95, 0
2, 9240, Note_off_c, 2, 60, 95, 0
2, 9240, Note_on_c, 2, 59, 95, 0
2, 9240, Note_on_c, 2, 62, 95, 0
2, 9480, Note_off_c, 2, 59, 95, 0
2, 9480, Note_off_c, 2, 62, 95, 0
2, 9480, Note_on_c, 2, 50, 95, 0
2, 9480, Note_on_c, 2, 61, 95, 0
2, 9600, Note_off_c, 2, 50, 95, 0
2, 9600, Note_off_c, 2, 61, 95, 0
2, 9600, Note_on_c, 2, 50, 95, 0
2, 9720, Note_off_c, 2, 50, 95, 0
2, 9720, Note_on_c, 2, 59, 95, 0
2, 9720, Note_on_c, 2, 62, 95, 0
2, 9960, Note_off_c, 2, 59, 95, 0
2, 9960, Note_off_c, 2, 62, 95, 0
2, 10080, Note_on_c, 2, 62, 95, 0
2, 10080, Note_on_c, 2, 64, 95, 0
2, 10320, Note_off_c, 2, 62, 95, 0
2, 10320, Note_off_c, 2, 64, 95, 0
2, 10320, Note_on_c, 2, 50, 95, 0
2, 10800, Note_off_c, 2, 50, 95, 0
2, 10800, Note_on_c, 2, 62, 95, 0
2, 11280, Note_off_c, 2, 62, 95, 0
2, 11280, Note_on_c, 2, 55, 95, 0
2, 11400, Note_off_c, 2, 55, 95, 0
2, 11400, Note_on_c, 2, 57, 95, 0
2, 11400, Note_on_c, 2, 62, 95, 0
2, 11640, Note_off_c, 2, 57, 95, 0
2, 11640, Note_off_c, 2, 62, 95, 0
2, 11640, Note_on_c, 2, 60, 95, 0
2, 11880, Note_off_c, 2, 60, 95, 0
2, 11880, Note_on_c, 2, 52, 95, 0
2, 11880, Note_on_c, 2, 59, 95, 0
2, 12000, Note_off_c, 2, 52, 95, 0
2, 12000, Note_off_c, 2, 59, 95, 0
2, 12000, Note_on_c, 2, 57, 95, 0
2, 12000, Note_on_c, 2, 62, 95, 0
2, 12120, Note_off_c, 2, 57, 95, 0
2, 12120, Note_off_c, 2, 62, 95, 0
2, 12120, Note_on_c, 2, 62, 95, 0
2, 12120, Note_on_c, 2, 64, 95, 0
2, 12600, Note_off_c, 2, 62, 95, 0
2, 12600, Note_off_c, 2, 64, 95, 0
2, 12600, Note_on_c, 2, 64, 95, 0
2, 13080, Note_off_c, 2, 64, 95, 0
2, 13080, Note_on_c, 2, 50, 95, 0
2, 13560, Note_off_c, 2, 50, 95, 0
2, 13560, Note_on_c, 2, 59, 95, 0
2, 14040, Note_off_c, 2, 59, 95, 0
2, 14040, Note_on_c, 2, 55, 95, 0
2, 14160, Note_off_c, 2, 55, 95, 0
2, 14160, Note_on_c, 2, 60, 95, 0
2, 14400, Note_off_c, 2, 60, 95, 0
2, 14400, Note_on_c, 2, 67, 95, 0
2, 14640, Note_off_c, 2, 67, 95, 0
2, 14640, Note_on_c, 2, 62, 95, 0
2, 14760, Note_off_c, 2, 62, 95, 0
2, 14760, Note_on_c, 2, 47, 95, 0
2, 15240, Note_off_c, 2, 47, 95, 0
2, 15240, Note_on_c, 2, 59, 95, 0
2, 15240, Note_on_c, 2, 62, 95, 0
2, 15480, Note_off_c, 2, 59, 95, 0
2, 15480, Note_off_c, 2, 62, 95, 0
2, 15480, Note_on_c, 2, 48, 95, 0
2, 15480, Note_on_c, 2, 55, 95, 0
2, 15720, Note_off_c, 2, 48, 95, 0
2, 15720, Note_off_c, 2, 55, 95, 0
2, 15720, Note_on_c, 2, 43, 95, 0
2, 15720, Note_on_c, 2, 55, 95, 0
2, 15960, Note_off_c, 2, 43, 95, 0
2, 15960, Note_off_c, 2, 55, 95, 0
2, 16200, Note_on_c, 2, 48, 95, 0
2, 16200, Note_on_c, 2, 57, 95, 0
2, 16440, Note_off_c, 2, 48, 95, 0
2, 16440, Note_off_c, 2, 57, 95, 0
2, 16440, Note_on_c, 2, 50, 95, 0
2, 16440, Note_on_c, 2, 55, 95, 0
2, 16560, Note_off_c, 2, 50, 95, 0
2, 16560, Note_off_c, 2, 55, 95, 0
2, 16560, Note_on_c, 2, 48, 95, 0
2, 16560, Note_on_c, 2, 57, 95, 0
2, 16800, Note_off_c, 2, 48, 95, 0
2, 16800, Note_off_c, 2, 57, 95, 0
2, 16800, Note_on_c, 2, 50, 95, 0
2, 16800, Note_on_c, 2, 55, 95, 0
2, 17040, Note_off_c, 2, 50, 95, 0
2, 17040, Note_off_c, 2, 55, 95, 0
2, 17040, Note_on_c, 2, 48, 95, 0
2, 17160, Note_off_c, 2, 48, 95, 0
2, 17160, Note_on_c, 2, 43, 95, 0
2, 17160, Note_on_c, 2, 55, 95, 0
2, 17400, Note_off_c, 2, 43, 95, 0
2, 17400, Note_off_c, 2, 55, 95, 0
2, 17400, Note_on_c, 2, 47, 95, 0
2, 17640, Note_off_c, 2, 47, 95, 0
2, 17640, Note_on_c, 2, 57, 95, 0
2, 17640, Note_on_c, 2, 62, 95, 0
2, 17760, Note_off_c, 2, 57, 95, 0
2, 17760, Note_off_c, 2, 62, 95, 0
2, 17760, Note_on_c, 2, 62, 95, 0
2, 18000, Note_off_c, 2, 62, 95, 0
2, 18000, Note_on_c, 2, 45, 95, 0
2, 18000, Note_on_c, 2, 64, 95, 0
2, 18240, Note_off_c, 2, 45, 95, 0
2, 18240, Note_off_c, 2, 64, 95, 0
2, 18240, Note_on_c, 2, 45, 95, 0
2, 18240, Note_on_c, 2, 60, 95, 0
2, 18360, Note_off_c, 2, 45, 95, 0
2, 18360, Note_off_c, 2, 60, 95, 0
2, 18360, Note_on_c, 2, 62, 95, 0
2, 18840, Note_off_c, 2, 62, 95, 0
2, 18840, Note_on_c, 2, 55, 95, 0
2, 19080, Note_off_c, 2, 55, 95, 0
2, 19080, Note_on_c, 2, 62, 95, 0
2, 19200, Note_off_c, 2, 62, 95, 0
2, 19200, Note_on_c, 2, 60, 95, 0
2, 19320, Note_off_c, 2, 60, 95, 0
2, 19320, Note_on_c, 2, 50, 95, 0
2, 19320, Note_on_c, 2, 59, 95, 0
2, 19440, Note_off_c, 2, 50, 95, 0
2, 19440, Note_off_c, 2, 59, 95, 0
2, 19920, Note_on_c, 2, 48, 95, 0
2, 19920, Note_on_c, 2, 64, 95, 0
2, 20400, Note_off_c, 2, 48, 95, 0
2, 20400, Note_off_c, 2, 64, 95, 0
2, 20400, Note_on_c, 2, 60, 95, 0
2, 20400, Note_on_c, 2, 62, 95, 0
2, 20520, Note_off_c, 2, 60, 95, 0
2, 20520, Note_off_c, 2, 62, 95, 0
2, 20520, Note_on_c, 2, 50, 95, 0
2, 20520, Note_on_c, 2, 60, 95, 0
2, 20520, Note_on_c, 2, 62, 95, 0
2, 20760, Note_off_c, 2, 50, 95, 0
2, 20760, Note_off_c, 2, 60, 95, 0
2, 20760, Note_off_c, 2, 62, 95, 0
2, 20760, Note_on_c, 2, 50, 95, 0
2, 20760, Note_on_c, 2, 59, 95, 0
2, 21000, Note_off_c, 2, 50, 95, 0
2, 21000, Note_off_c, 2, 59, 95, 0
2, 21000, Note_on_c, 2, 43, 95, 0
2, 21000, Note_on_c, 2, 55, 95, 0
2, 21480, Note_off_c, 2, 43, 95, 0
2, 21480, Note_off_c, 2, 55, 95, 0
2, 21480, Note_on_c, 2, 50, 95, 0
2, 21480, Note_on_c, 2, 55, 95, 0
2, 21600, Note_off_c, 2, 50, 95, 0
2, 21600, Note_off_c, 2, 55, 95, 0
2, 22080, Note_on_c, 2, 57, 95, 0
2, 22080, Note_on_c, 2, 62, 95, 0
2, 22320, Note_off_c, 2, 57, 95, 0
2, 22320, Note_off_c, 2, 62, 95, 0
2, 22320, Note_on_c, 2, 50, 95, 0
2, 22320, Note_on_c, 2, 55, 95, 0
2, 22440, Note_off_c, 2, 50, 95, 0
2, 22440, Note_off_c, 2, 55, 95, 0
2, 22440, Note_on_c, 2, 48, 95, 0
2, 22920, Note_off_c, 2, 48, 95, 0
2, 22920, Note_on_c, 2, 43, 95, 0
2, 22920, Note_on_c, 2, 55, 95, 0
2, 23040, Note_off_c, 2, 43, 95, 0
2, 23040, Note_off_c, 2, 55, 95, 0
2, 23040, Note_on_c, 2, 47, 95, 0
2, 23280, Note_off_c, 2, 47, 95, 0
2, 23280, Note_on_c, 2, 57, 95, 0
2, 23280, Note_on_c, 2, 62, 95, 0
2, 23400, Note_off_c, 2, 57, 95, 0
2, 23400, Note_off_c, 2, 62, 95, 0
2, 23400, Note_on_c, 2, 50, 95, 0
2, 23520, Note_off_c, 2, 50, 95, 0
2, 23520, Note_on_c, 2, 48, 95, 0
2, 23760, Note_off_c, 2, 48, 95, 0
2, 23760, Note_on_c, 2, 67, 95, 0
2, 23880, Note_off_c, 2, 67, 95, 0
2, 23880, Note_on_c, 2, 59, 95, 0
2, 24360, Note_off_c, 2, 59, 95, 0
2, 24360, Note_on_c, 2, 50, 95, 0
2, 24360, Note_on_c, 2, 57, 95, 0
2, 24600, Note_off_c, 2, 50, 95, 0
2, 24600, Note_off_c, 2, 57, 95, 0
2, 24600, Note_on_c, 2, 50, 95, 0
2, 24600, Note_on_c, 2, 69, 95, 0
2, 24720, Note_off_c, 2, 50, 95, 0
2, 24720, Note_off_c, 2, 69, 95, 0
2, 24720, Note_on_c, 2, 62, 95, 0
2, 24840, Note_off_c, 2, 62, 95, 0
2, 24840, Note_on_c, 2, 55, 95, 0
2, 24840, Note_on_c, 2, 64, 95, 0
2, 24960, Note_off_c, 2, 55, 95, 0
2, 24960, Note_off_c, 2, 64, 95, 0
2, 24960, Note_on_c, 2, 52, 95, 0
2, 25200, Note_off_c, 2, 52, 95, 0
2, 25200, Note_on_c, 2, 45, 95, 0
2, 25680, Note_off_c, 2, 45, 95, 0
2, 25680, Note_on_c, 2, 62, 95, 0
2, 26160, Note_off_c, 2, 62, 95, 0
2, 26160, Note_on_c, 2, 50, 95, 0
2, 26280, Note_off_c, 2, 50, 95, 0
2, 26280, Note_on_c, 2, 57, 95, 0
2, 26280, Note_on_c, 2, 60, 95, 0
2, 26400, Note_off_c, 2, 57, 95, 0
2, 26400, Note_off_c, 2, 60, 95, 0
2, 26400, Note_on_c, 2, 50, 95, 0
2, 26640, Note_off_c, 2, 50, 95, 0
2, 26640, Note_on_c, 2, 59, 95, 0
2, 26880, Note_off_c, 2, 59, 95, 0
2, 26880, Note_on_c, 2, 50, 95, 0
2, 27120, Note_off_c, 2, 50, 95, 0
2, 27120, Note_on_c, 2, 57, 95, 0
2, 27240, Note_off_c, 2, 57, 95, 0
2, 27240, Note_on_c, 2, 50, 95, 0
2, 27240, Note_on_c, 2, 55, 95, 0
2, 27360, Note_off_c, 2, 50, 95, 0
2, 27360, Note_off_c, 2, 55, 95, 0
2, 27360, Note_on_c, 2, 48, 95, 0
2, 27360, Note_on_c, 2, 57, 95, 0
2, 27600, Note_off_c, 2, 48, 95, 0
2, 27600, Note_off_c, 2, 57, 95, 0
2, 27600, Note_on_c, 2, 45, 95, 0
2, 27720, Note_off_c, 2, 45, 95, 0
2, 27720, Note_on_c, 2, 57, 95, 0
2, 27720, Note_on_c, 2, 62, 95, 0
2, 28200, Note_off_c, 2, 57, 95, 0
2, 28200, Note_off_c, 2, 62, 95, 0
2, 28200, Note_on_c, 2, 50, 95, 0
2, 28200, Note_on_c, 2, 55, 95, 0
2, 28440, Note_off_c, 2, 50, 95, 0
2, 28440, Note_off_c, 2, 55, 95, 0
2, 28440, Note_on_c, 2, 47, 95, 0
2, 28440, Note_on_c, 2, 48, 95, 0
2, 28560, Note_off_c, 2, 47, 95, 0
2, 28560, Note_off_c, 2, 48, 95, 0
2, 28560, Note_on_c, 2, 43, 95, 0
2, 28560, Note_on_c, 2, 55, 95, 0
2, 29040, Note_off_c, 2, 43, 95, 0
2, 29040, Note_off_c, 2, 55, 95, 0
2, 29040, Note_on_c, 2, 47, 95, 0
2, 29280, Note_off_c, 2, 47, 95, 0
2, 29280, Note_on_c, 2, 57, 95, 0
2, 29280, Note_on_c, 2, 62, 95, 0
2, 29520, Note_off_c, 2, 57, 95, 0
2, 29520, Note_off_c, 2, 62, 95, 0
2, 29520, Note_on_c, 2, 50, 95, 0
2, 29520, Note_on_c, 2, 64, 95, 0
2, 29640, Note_off_c, 2, 50, 95, 0
2, 29640, Note_off_c, 2, 64, 95, 0
2, 29640, Note_on_c, 2, 48, 95, 0
2, 29880, Note_off_c, 2, 48, 95, 0
2, 30120, Note_on_c, 2, 55, 95, 0
2, 30120, Note_on_c, 2, 62, 95, 0
2, 30360, Note_off_c, 2, 55, 95, 0
2, 30360, Note_off_c, 2, 62, 95, 0
2, 30360, Note_on_c, 2, 62, 95, 0
2, 30480, Note_off_c, 2, 62, 95, 0
2, 30480, Note_on_c, 2, 64, 95, 0
2, 30720, Note_off_c, 2, 64, 95, 0
2, 30720, Note_on_c, 2, 45, 95, 0
2, 30720, Note_on_c, 2, 60, 95, 0
2, 30840, Note_off_c, 2, 45, 95, 0
2, 30840, Note_off_c, 2, 60, 95, 0
2, 30840, Note_on_c, 2, 62, 95, 0
2, 31320, Note_off_c, 2, 62, 95, 0
2, 31320, Note_on_c, 2, 55, 95, 0
2, 31800, Note_off_c, 2, 55, 95, 0
2, 31800, Note_on_c, 2, 47, 95, 0
2, 31800, Note_on_c, 2, 57, 95, 0
2, 32280, Note_off_c, 2, 47, 95, 0
2, 32280, Note_off_c, 2, 57, 95, 0
2, 32280, Note_on_c, 2, 45, 95, 0
2, 32280, Note_on_c, 2, 50, 95, 0
2, 32520, Note_off_c, 2, 45, 95, 0
2, 32520, Note_off_c, 2, 50, 95, 0
2, 32520, Note_on_c, 2, 59, 95, 0
2, 32520, Note_on_c, 2, 62, 95, 0
2, 32760, Note_off_c, 2, 59, 95, 0
2, 32760, Note_off_c, 2, 62, 95, 0
2, 32760, Note_on_c, 2, 55, 95, 0
2, 33240, Note_off_c, 2, 55, 95, 0
2, 33240, Note_on_c, 2, 47, 95, 0
2, 33240, Note_on_c, 2, 57, 95, 0
2, 33720, Note_off_c, 2, 47, 95, 0
2, 33720, Note_off_c, 2, 57, 95, 0
2, 33720, Note_on_c, 2, 45, 95, 0
2, 33840, Note_off_c, 2, 45, 95, 0
2, 33840, Note_on_c, 2, 62, 95, 0
2, 34320, Note_off_c, 2, 62, 95, 0
2, 34320, Note_on_c, 2, 50, 95, 0
2, 34320, Note_on_c, 2, 59, 95, 0
2, 34440, Note_off_c, 2, 50, 95, 0
2, 34440, Note_off_c, 2, 59, 95, 0
2, 34440, Note_on_c, 2, 57, 95, 0
2, 34440, Note_on_c, 2, 60, 95, 0
2, 34560, Note_off_c, 2, 57, 95, 0
2, 34560, Note_off_c, 2, 60, 95, 0
2, 34560, Note_on_c, 2, 50, 95, 0
2, 34800, Note_off_c, 2, 50, 95, 0
2, 34800, Note_on_c, 2, 59, 95, 0
2, 34920, Note_off_c, 2, 59, 95, 0
2, 34920, Note_on_c, 2, 50, 95, 0
2, 35400, Note_off_c, 2, 50, 95, 0
2, 35400, Note_on_c, 2, 55, 95, 0
2, 35400, Note_on_c, 2, 57, 95, 0
2, 35640, Note_off_c, 2, 55, 95, 0
2, 35640, Note_off_c, 2, 57, 95, 0
2, 35640, Note_on_c, 2, 50, 95, 0
2, 35760, Note_off_c, 2, 50, 95, 0
2, 35760, Note_on_c, 2, 48, 95, 0
2, 35880, Note_off_c, 2, 48, 95, 0
2, 35880, Note_on_c, 2, 45, 95, 0
2, 36120, Note_off_c, 2, 45, 95, 0
2, 36120, Note_on_c, 2, 62, 95, 0
2, 36240, Note_off_c, 2, 62, 95, 0
2, 36240, Note_on_c, 2, 59, 95, 0
2, 36480, Note_off_c, 2, 59, 95, 0
2, 36720, Note_on_c, 2, 50, 95, 0
2, 36960, Note_off_c, 2, 50, 95, 0
2, 36960, Note_on_c, 2, 62, 95, 0
2, 37200, Note_off_c, 2, 62, 95, 0
2, 37680, Note_on_c, 2, 52, 95, 0
2, 37800, Note_off_c, 2, 52, 95, 0
2, 37800, Note_on_c, 2, 45, 95, 0
2, 38040, Note_off_c, 2, 45, 95, 0
2, 38040, Note_on_c, 2, 62, 95, 0
2, 38520, Note_off_c, 2, 62, 95, 0
2, 38520, Note_on_c, 2, 50, 95, 0
2, 38520, Note_on_c, 2, 59, 95, 0
2, 38760, Note_off_c, 2, 50, 95, 0
2, 38760, Note_off_c, 2, 59, 95, 0
2, 38760, Note_on_c, 2, 48, 95, 0
2, 39240, Note_off_c, 2, 48, 95, 0
2, 39720, Note_on_c, 2, 59, 95, 0
2, 39720, Note_on_c, 2, 61, 95, 0
2, 39960, Note_off_c, 2, 59, 95, 0
2, 39960, Note_off_c, 2, 61, 95, 0
2, 39960, Note_on_c, 2, 47, 95, 0
2, 39960, Note_on_c, 2, 50, 95, 0
2, 39960, Note_on_c, 2, 57, 95, 0
2, 40080, Note_off_c, 2, 47, 95, 0
2, 40080, Note_off_c, 2, 50, 95, 0
2, 40080, Note_off_c, 2, 57, 95, 0
2, 40080, Note_on_c, 2, 69, 95, 0
2, 40560, Note_off_c, 2, 69, 95, 0
2, 40560, Note_on_c, 2, 62, 95, 0
2, 41040, Note_off_c, 2, 62, 95, 0
2, 41040, Note_on_c, 2, 50, 95, 0
2, 41280, Note_off_c, 2, 50, 95, 0
2, 41280, Note_on_c, 2, 64, 95, 0
2, 41280, Note_on_c, 2, 69, 95, 0
2, 41520, Note_off_c, 2, 64, 95, 0
2, 41520, Note_off_c, 2, 69, 95, 0
2, 41520, Note_on_c, 2, 52, 95, 0
2, 42000, Note_off_c, 2, 52, 95, 0
2, 42000, Note_on_c, 2, 47, 95, 0
2, 42000, Note_on_c, 2, 57, 95, 0
2, 42120, Note_off_c, 2, 47, 95, 0
2, 42120, Note_off_c, 2, 57, 95, 0
2, 42120, Note_on_c, 2, 48, 95, 0
2, 42120, Note_on_c, 2, 60, 95, 0
2, 42360, Note_off_c, 2, 48, 95, 0
2, 42360, Note_off_c, 2, 60, 95, 0
2, 42360, Note_on_c, 2, 55, 95, 0
2, 42360, Note_on_c, 2, 62, 95, 0
2, 42600, Note_off_c, 2, 55, 95, 0
2, 42600, Note_off_c, 2, 62, 95, 0
2, 42600, Note_on_c, 2, 62, 95, 0
2, 42840, Note_off_c, 2, 62, 95, 0
2, 42840, Note_on_c, 2, 57, 95, 0
2, 42840, Note_on_c, 2, 64, 95, 0
2, 43080, Note_off_c, 2, 57, 95, 0
2, 43080, Note_off_c, 2, 64, 95, 0
2, 43080, Note_on_c, 2, 45, 95, 0
2, 43080, Note_on_c, 2, 60, 95, 0
2, 43080, Note_on_c, 2, 69, 95, 0
2, 43560, Note_off_c, 2, 45, 95, 0
2, 43560, Note_off_c, 2, 60, 95, 0
2, 43560, Note_off_c, 2, 69, 95, 0
2, 43560, Note_on_c, 2, 62, 95, 0
2, 44040, Note_off_c, 2, 62, 95, 0
2, 44040, Note_on_c, 2, 50, 95, 0
2, 44040, Note_on_c, 2, 55, 95, 0
2, 44160, Note_off_c, 2, 50, 95, 0
2, 44160, Note_off_c, 2, 55, 95, 0
2, 44160, Note_on_c, 2, 57, 95, 0
2, 44640, Note_off_c, 2, 57, 95, 0
2, 44640, Note_on_c, 2, 60, 95, 0
2, 44640, Note_on_c, 2, 61, 95, 0
2, 44880, Note_off_c, 2, 60, 95, 0
2, 44880, Note_off_c, 2, 61, 95, 0
2, 44880, Note_on_c, 2, 59, 95, 0
2, 45360, Note_off_c, 2, 59, 95, 0
2, 45360, Note_on_c, 2, 50, 95, 0
2, 45360, Note_on_c, 2, 61, 95, 0
2, 45480, Note_off_c, 2, 50, 95, 0
2, 45480, Note_off_c, 2, 61, 95, 0
2, 45480, Note_on_c, 2, 48, 95, 0
2, 45720, Note_off_c, 2, 48, 95, 0
2, 45720, Note_on_c, 2, 50, 95, 0
2, 45720, Note_on_c, 2, 55, 95, 0
2, 45960, Note_off_c, 2, 50, 95, 0
2, 45960, Note_off_c, 2, 55, 95, 0
2, 45960, Note_on_c, 2, 47, 95, 0
2, 46440, Note_off_c, 2, 47, 95, 0
2, 46440, Note_on_c, 2, 48, 95, 0
2, 46560, Note_off_c, 2, 48, 95, 0
2, 46560, Note_on_c, 2, 43, 95, 0
2, 46560, Note_on_c, 2, 47, 95, 0
2, 47040, Note_off_c, 2, 43, 95, 0
2, 47040, Note_off_c, 2, 47, 95, 0
2, 47040, Note_on_c, 2, 55, 95, 0
2, 47040, Note_on_c, 2, 57, 95, 0
2, 47280, Note_off_c, 2, 55, 95, 0
2, 47280, Note_off_c, 2, 57, 95, 0
2, 47280, Note_on_c, 2, 50, 95, 0
2, 47760, Note_off_c, 2, 50, 95, 0
2, 47760, Note_on_c, 2, 48, 95, 0
2, 47880, Note_off_c, 2, 48, 95, 0
2, 47880, Note_on_c, 2, 59, 95, 0
2, 48120, Note_off_c, 2, 59, 95, 0
2, 48120, Note_on_c, 2, 50, 95, 0
2, 48120, Note_on_c, 2, 59, 95, 0
2, 48600, Note_off_c, 2, 50, 95, 0
2, 48600, Note_off_c, 2, 59, 95, 0
2, 48600, Note_on_c, 2, 52, 95, 0
2, 49080, Note_off_c, 2, 52, 95, 0
2, 49080, Note_on_c, 2, 45, 95, 0
2, 49320, Note_off_c, 2, 45, 95, 0
2, 49320, Note_on_c, 2, 55, 95, 0
2, 49320, Note_on_c, 2, 62, 95, 0
2, 49800, Note_off_c, 2, 55, 95, 0
2, 49800, Note_off_c, 2, 62, 95, 0
2, 49800, Note_on_c, 2, 59, 95, 0
2, 50280, Note_off_c, 2, 59, 95, 0
2, 50280, Note_on_c, 2, 59, 95, 0
2, 50760, Note_off_c, 2, 59, 95, 0
2, 50760, Note_on_c, 2, 50, 95, 0
2, 51240, Note_off_c, 2, 50, 95, 0
2, 51240, Note_on_c, 2, 62, 95, 0
2, 51360, Note_off_c, 2, 62, 95, 0
2, 51360, Note_on_c, 2, 50, 95, 0
2, 51360, Note_on_c, 2, 55, 95, 0
2, 51480, Note_off_c, 2, 50, 95, 0
2, 51480, Note_off_c, 2, 55, 95, 0
2, 51480, Note_on_c, 2, 48, 95, 0
2, 51600, Note_off_c, 2, 48, 95, 0
2, 51720, Note_on_c, 2, 55, 95, 0
2, 51720, Note_on_c, 2, 59, 95, 0
2, 51840, Note_off_c, 2, 55, 95, 0
2, 51840, Note_off_c, 2, 59, 95, 0
2, 51840, Note_on_c, 2, 59, 95, 0
2, 52320, Note_off_c, 2, 59, 95, 0
2, 52800, Note_on_c, 2, 62, 95, 0
2, 53040, Note_off_c, 2, 62, 95, 0
2, 53040, Note_on_c, 2, 47, 95, 0
2, 53040, Note_on_c, 2, 50, 95, 0
2, 53280, Note_off_c, 2, 47, 95, 0
2, 53280, Note_off_c, 2, 50, 95, 0
2, 53280, Note_on_c, 2, 48, 95, 0
2, 53280, Note_on_c, 2, 64, 95, 0
2, 53400, Note_off_c, 2, 48, 95, 0
2, 53400, Note_off_c, 2, 64, 95, 0
2, 53400, Note_on_c, 2, 43, 95, 0
2, 53400, Note_on_c, 2, 55, 95, 0
2, 53880, Note_off_c, 2, 43, 95, 0
2, 53880, Note_off_c, 2, 55, 95, 0
2, 53880, Note_on_c, 2, 50, 95, 0
2, 54000, Note_off_c, 2, 50, 95, 0
2, 54000, Note_on_c, 2, 48, 95, 0
2, 54480, Note_off_c, 2, 48, 95, 0
2, 54480, Note_on_c, 2, 55, 95, 0
2, 54480, Note_on_c, 2, 62, 95, 0
2, 54600, Note_off_c, 2, 55, 95, 0
2, 54600, Note_off_c, 2, 62, 95, 0
2, 54600, Note_on_c, 2, 59, 95, 0
2, 55080, Note_off_c, 2, 59, 95, 0
2, 55080, Note_on_c, 2, 47, 95, 0
2, 55080, Note_on_c, 2, 57, 95, 0
2, 55320, Note_off_c, 2, 47, 95, 0
2, 55320, Note_off_c, 2, 57, 95, 0
2, 55320, Note_on_c, 2, 60, 95, 0
2, 55320, Note_on_c, 2, 69, 95, 0
2, 55560, Note_off_c, 2, 60, 95, 0
2, 55560, Note_off_c, 2, 69, 95, 0
2, 55560, Note_on_c, 2, 59, 95, 0
2, 55680, Note_off_c, 2, 59, 95, 0
2, 55680, Note_on_c, 2, 55, 95, 0
2, 55800, Note_off_c, 2, 55, 95, 0
2, 55800, Note_on_c, 2, 50, 95, 0
2, 55920, Note_off_c, 2, 50, 95, 0
2, 55920, Note_on_c, 2, 62, 95, 0
2, 56040, Note_off_c, 2, 62, 95, 0
2, 56040, Note_on_c, 2, 59, 95, 0
2, 56520, Note_off_c, 2, 59, 95, 0
2, 56520, Note_on_c, 2, 57, 95, 0
2, 56640, Note_off_c, 2, 57, 95, 0
2, 56640, Note_on_c, 2, 50, 95, 0
2, 56880, Note_off_c, 2, 50, 95, 0
2, 56880, Note_on_c, 2, 62, 95, 0
2, 57120, Note_off_c, 2, 62, 95, 0
2, 57120, Note_on_c, 2, 47, 95, 0
2, 57120, Note_on_c, 2, 55, 95, 0
2, 57360, Note_off_c, 2, 47, 95, 0
2, 57360, Note_off_c, 2, 55, 95, 0
2, 57360, Note_on_c, 2, 48, 95, 0
2, 57840, Note_off_c, 2, 48, 95, 0
2, 57840, Note_on_c, 2, 60, 95, 0
2, 58080, Note_off_c, 2, 60, 95, 0
2, 58080, Note_on_c, 2, 59, 95, 0
2, 58320, Note_off_c, 2, 59, 95, 0
2, 58320, Note_on_c, 2, 59, 95, 0
2, 58560, Note_off_c, 2, 59, 95, 0
2, 58560, Note_on_c, 2, 50, 95, 0
2, 58560, Note_on_c, 2, 52, 95, 0
2, 58680, Note_off_c, 2, 50, 95, 0
2, 58680, Note_off_c, 2, 52, 95, 0
2, 58680, Note_on_c, 2, 57, 95, 0
2, 58680, Note_on_c, 2, 62, 95, 0
2, 59160, Note_off_c, 2, 57, 95, 0
2, 59160, Note_off_c, 2, 62, 95, 0
2, 59160, Note_on_c, 2, 50, 95, 0
2, 59280, Note_off_c, 2, 50, 95, 0
2, 59280, Note_on_c, 2, 47, 95, 0
2, 59280, Note_on_c, 2, 48, 95, 0
2, 59400, Note_off_c, 2, 47, 95, 0
2, 59400, Note_off_c, 2, 48, 95, 0
2, 59400, Note_on_c, 2, 43, 95, 0
2, 59400, Note_on_c, 2, 55, 95, 0
2, 59640, Note_off_c, 2, 43, 95, 0
2, 59640, Note_off_c, 2, 55, 95, 0
2, 59640, Note_on_c, 2, 47, 95, 0
2, 59760, Note_off_c, 2, 47, 95, 0
2, 59760, Note_on_c, 2, 57, 95, 0
2, 59760, Note_on_c, 2, 62, 95, 0
2, 60240, Note_off_c, 2, 57, 95, 0
2, 60240, Note_off_c, 2, 62, 95, 0
2, 60240, Note_on_c, 2, 50, 95, 0
2, 60360, Note_off_c, 2, 50, 95, 0
2, 60360, Note_on_c, 2, 60, 95, 0
2, 60480, Note_off_c, 2, 60, 95, 0
2, 60480, Note_on_c, 2, 50, 95, 0
2, 60480, Note_on_c, 2, 61, 95, 0
2, 60960, Note_off_c, 2, 50, 95, 0
2, 60960, Note_off_c, 2, 61, 95, 0
2, 60960, Note_on_c, 2, 59, 95, 0
2, 61080, Note_off_c, 2, 59, 95, 0
2, 61080, Note_on_c, 2, 50, 95, 0
2, 61080, Note_on_c, 2, 55, 95, 0
2, 61560, Note_off_c, 2, 50, 95, 0
2, 61560, Note_off_c, 2, 55, 95, 0
2, 61560, Note_on_c, 2, 57, 95, 0
2, 62040, Note_off_c, 2, 57, 95, 0
2, 62040, Note_on_c, 2, 50, 95, 0
2, 62280, Note_off_c, 2, 50, 95, 0
2, 62280, Note_on_c, 2, 48, 95, 0
2, 62400, Note_off_c, 2, 48, 95, 0
2, 62400, Note_on_c, 2, 55, 95, 0
2, 62520, Note_off_c, 2, 55, 95, 0
2, 62520, Note_on_c, 2, 50, 95, 0
2, 62520, Note_on_c, 2, 55, 95, 0
2, 63000, Note_off_c, 2, 50, 95, 0
2, 63000, Note_off_c, 2, 55, 95, 0
2, 63480, Note_on_c, 2, 57, 95, 0
2, 63480, Note_on_c, 2, 62, 95, 0
2, 63720, Note_off_c, 2, 57, 95, 0
2, 63720, Note_off_c, 2, 62, 95, 0
2, 63720, Note_on_c, 2, 50, 95, 0
2, 63720, Note_on_c, 2, 55, 95, 0
2, 64200, Note_off_c, 2, 50, 95, 0
2, 64200, Note_off_c, 2, 55, 95, 0
2, 64200, Note_on_c, 2, 48, 95, 0
2, 64680, Note_off_c, 2, 48, 95, 0
2, 64680, Note_on_c, 2, 43, 95, 0
2, 64680, Note_on_c, 2, 55, 95, 0
2, 64800, Note_off_c, 2, 43, 95, 0
2, 64800, Note_off_c, 2, 55, 95, 0
2, 64800, Note_on_c, 2, 50, 95, 0
2, 65280, Note_off_c, 2, 50, 95, 0
2, 65280, Note_on_c, 2, 57, 95, 0
2, 65400, Note_off_c, 2, 57, 95, 0
2, 65400, Note_on_c, 2, 50, 95, 0
2, 65640, Note_off_c, 2, 50, 95, 0
2, 65640, Note_on_c, 2, 48, 95, 0
2, 65640, Note_on_c, 2, 57, 95, 0
2, 66120, Note_off_c, 2, 48, 95, 0
2, 66120, Note_off_c, 2, 57, 95, 0
2, 66120, Note_on_c, 2, 45, 95, 0
2, 66360, Note_off_c, 2, 45, 95, 0
2, 66360, Note_on_c, 2, 55, 95, 0
2, 66360, Note_on_c, 2, 62, 95, 0
2, 66840, Note_off_c, 2, 55, 95, 0
2, 66840, Note_off_c, 2, 62, 95, 0
2, 66840, Note_on_c, 2, 50, 95, 0
2, 67080, Note_off_c, 2, 50, 95, 0
2, 67080, Note_on_c, 2, 48, 95, 0
2, 67080, Note_on_c, 2, 57, 95, 0
2, 67320, Note_off_c, 2, 48, 95, 0
2, 67320, Note_off_c, 2, 57, 95, 0
2, 67320, Note_on_c, 2, 43, 95, 0
2, 67320, Note_on_c, 2, 55, 95, 0
2, 67440, Note_off_c, 2, 43, 95, 0
2, 67440, Note_off_c, 2, 55, 95, 0
2, 67440, Note_on_c, 2, 50, 95, 0
2, 67920, Note_off_c, 2, 50, 95, 0
2, 67920, Note_on_c, 2, 57, 95, 0
2, 68160, Note_off_c, 2, 57, 95, 0
2, 68160, Note_on_c, 2, 50, 95, 0
2, 68160, Note_on_c, 2, 59, 95, 0
2, 68400, Note_off_c, 2, 50, 95, 0
2, 68400, Note_off_c, 2, 59, 95, 0
2, 68400, Note_on_c, 2, 57, 95, 0
2, 68880, Note_off_c, 2, 57, 95, 0
2, 68880, Note_on_c, 2, 45, 95, 0
2, 68880, Note_on_c, 2, 50, 95, 0
2, 69000, Note_off_c, 2, 45, 95, 0
2, 69000, Note_off_c, 2, 50, 95, 0
2, 69000, Note_on_c, 2, 62, 95, 0
2, 69480, Note_off_c, 2, 62, 95, 0
2, 69720, Note_on_c, 2, 48, 95, 0
2, 69720, Note_on_c, 2, 57, 95, 0
2, 69720, Note_on_c, 2, 60, 95, 0
2, 69960, Note_off_c, 2, 48, 95, 0
2, 69960, Note_off_c, 2, 57, 95, 0
2, 69960, Note_off_c, 2, 60, 95, 0
2, 69960, Note_on_c, 2, 50, 95, 0
2, 70440, Note_off_c, 2, 50, 95, 0
2, 70440, Note_on_c, 2, 59, 95, 0
2, 70920, Note_off_c, 2, 59, 95, 0
2, 70920, Note_on_c, 2, 50, 95, 0
2, 70920, Note_on_c, 2, 55, 95, 0
2, 71400, Note_off_c, 2, 50, 95, 0
2, 71400, Note_off_c, 2, 55, 95, 0
2, 71400, Note_on_c, 2, 48, 95, 0
2, 71400, Note_on_c, 2, 57, 95, 0
2, 71640, Note_off_c, 2, 48, 95, 0
2, 71640, Note_off_c, 2, 57, 95, 0
2, 71640, Note_on_c, 2, 43, 95, 0
2, 71640, Note_on_c, 2, 55, 95, 0
2, 71760, Note_off_c, 2, 43, 95, 0
2, 71760, Note_off_c, 2, 55, 95, 0
2, 71760, Note_on_c, 2, 59, 95, 0
2, 71880, Note_off_c, 2, 59, 95, 0
2, 71880, Note_on_c, 2, 61, 95, 0
2, 72120, Note_off_c, 2, 61, 95, 0
2, 72120, Note_on_c, 2, 50, 95, 0
2, 72240, Note_off_c, 2, 50, 95, 0
2, 72240, Note_on_c, 2, 57, 95, 0
2, 72240, Note_on_c, 2, 62, 95, 0
2, 72480, Note_off_c, 2, 57, 95, 0
2, 72480, Note_off_c, 2, 62, 95, 0
2, 72480, Note_on_c, 2, 55, 95, 0
2, 72960, Note_off_c, 2, 55, 95, 0
2, 72960, Note_on_c, 2, 59, 95, 0
2, 73200, Note_off_c, 2, 59, 95, 0
2, 73200, Note_on_c, 2, 50, 95, 0
2, 73320, Note_off_c, 2, 50, 95, 0
2, 73320, Note_on_c, 2, 57, 95, 0
2, 73320, Note_on_c, 2, 62, 95, 0
2, 73800, Note_off_c, 2, 57, 95, 0
2, 73800, Note_off_c, 2, 62, 95, 0
2, 73800, Note_on_c, 2, 50, 95, 0
2, 73800, Note_on_c, 2, 55, 95, 0
2, 74040, Note_off_c, 2, 50, 95, 0
2, 74040, Note_off_c, 2, 55, 95, 0
2, 74040, Note_on_c, 2, 57, 95, 0
2, 74040, Note_on_c, 2, 62, 95, 0
2, 74280, Note_off_c, 2, 57, 95, 0
2, 74280, Note_off_c, 2, 62, 95, 0
2, 74280, Note_on_c, 2, 50, 95, 0
2, 74280, Note_on_c, 2, 55, 95, 0
2, 74760, Note_off_c, 2, 50, 95, 0
2, 74760, Note_off_c, 2, 55, 95, 0
2, 74760, Note_on_c, 2, 48, 95, 0
2, 74760, Note_on_c, 2, 57, 95, 0
2, 75240, Note_off_c, 2, 48, 95, 0
2, 75240, Note_off_c, 2, 57, 95, 0
2, 75240, Note_on_c, 2, 43, 95, 0
2, 75240, Note_on_c, 2, 45, 95, 0
2, 75240, Note_on_c, 2, 55, 95, 0
2, 75720, Note_off_c, 2, 43, 95, 0
2, 75720, Note_off_c, 2, 45, 95, 0
2, 75720, Note_off_c, 2, 55, 95, 0
2, 75720, Note_on_c, 2, 59, 95, 0
2, 75960, Note_off_c, 2, 59, 95, 0
2, 75960, Note_on_c, 2, 52, 95, 0
2, 76080, Note_off_c, 2, 52, 95, 0
2, 76080, Note_on_c, 2, 57, 95, 0
2, 76560, Note_off_c, 2, 57, 95, 0
2, 76560, Note_on_c, 2, 50, 95, 0
2, 76800, Note_off_c, 2, 50, 95, 0
2, 76800, Note_on_c, 2, 48, 95, 0
2, 76800, Note_on_c, 2, 57, 95, 0
2, 77040, Note_off_c, 2, 48, 95, 0
2, 77040, Note_off_c, 2, 57, 95, 0
2, 77040, Note_on_c, 2, 50, 95, 0
2, 77040, Note_on_c, 2, 59, 95, 0
2, 77160, Note_off_c, 2, 50, 95, 0
2, 77160, Note_off_c, 2, 59, 95, 0
2, 77160, Note_on_c, 2, 48, 95, 0
2, 77640, Note_off_c, 2, 48, 95, 0
2, 77640, Note_on_c, 2, 43, 95, 0
2, 77640, Note_on_c, 2, 55, 95, 0
2, 78120, Note_off_c, 2, 43, 95, 0
2, 78120, Note_off_c, 2, 55, 95, 0
2, 78120, Note_on_c, 2, 47, 95, 0
2, 78120, Note_on_c, 2, 50, 95, 0
2, 78360, Note_off_c, 2, 47, 95, 0
2, 78360, Note_off_c, 2, 50, 95, 0
2, 78360, Note_on_c, 2, 57, 95, 0
2, 78360, Note_on_c, 2, 62, 95, 0
2, 78480, Note_off_c, 2, 57, 95, 0
2, 78480, Note_off_c, 2, 62, 95, 0
2, 78480, Note_on_c, 2, 50, 95, 0
2, 78960, Note_off_c, 2, 50, 95, 0
2, 78960, Note_on_c, 2, 48, 95, 0
2, 79200, Note_off_c, 2, 48, 95, 0
2, 79680, Note_on_c, 2, 55, 95, 0
2, 79680, Note_on_c, 2, 62, 95, 0
2, 79800, Note_off_c, 2, 55, 95, 0
2, 79800, Note_off_c, 2, 62, 95, 0
2, 79800, Note_on_c, 2, 50, 95, 0
2, 80040, Note_off_c, 2, 50, 95, 0
2, 80040, Note_on_c, 2, 57, 95, 0
2, 80040, Note_on_c, 2, 60, 95, 0
2, 80520, Note_off_c, 2, 57, 95, 0
2, 80520, Note_off_c, 2, 60, 95, 0
2, 80520, Note_on_c, 2, 61, 95, 0
2, 80640, Note_off_c, 2, 61, 95, 0
2, 80640, Note_on_c, 2, 59, 95, 0
2, 80880, Note_off_c, 2, 59, 95, 0
2, 80880, Note_on_c, 2, 50, 95, 0
2, 80880, Note_on_c, 2, 59, 95, 0
2, 81120, Note_off_c, 2, 50, 95, 0
2, 81120, Note_off_c, 2, 59, 95, 0
2, 81120, Note_on_c, 2, 57, 95, 0
2, 81120, Note_on_c, 2, 62, 95, 0
2, 81600, Note_off_c, 2, 57, 95, 0
2, 81600, Note_off_c, 2, 62, 95, 0
2, 81600, Note_on_c, 2, 59, 95, 0
2, 81600, Note_on_c, 2, 62, 95, 0
2, 82080, Note_off_c, 2, 59, 95, 0
2, 82080, Note_off_c, 2, 62, 95, 0
2, 82080, Note_on_c, 2, 57, 95, 0
2, 82080, Note_on_c, 2, 64, 95, 0
2, 82560, Note_off_c, 2, 57, 95, 0
2, 82560, Note_off_c, 2, 64, 95, 0
2, 82560, Note_on_c, 2, 45, 95, 0
2, 82560, Note_on_c, 2, 50, 95, 0
2, 83040, Note_off_c, 2, 45, 95, 0
2, 83040, Note_off_c, 2, 50, 95, 0
2, 83040, Note_on_c, 2, 62, 95, 0
2, 83280, Note_off_c, 2, 62, 95, 0
2, 83280, Note_on_c, 2, 55, 95, 0
2, 83400, Note_off_c, 2, 55, 95, 0
2, 83400, Note_on_c, 2, 47, 95, 0
2, 83400, Note_on_c, 2, 57, 95, 0
2, 83880, Note_off_c, 2, 47, 95, 0
2, 83880, Note_off_c, 2, 57, 95, 0
2, 83880, Note_on_c, 2, 50, 95, 0
2, 84360, Note_off_c, 2, 50, 95, 0
2, 84360, Note_on_c, 2, 59, 95, 0
2, 84360, Note_on_c, 2, 62, 95, 0
2, 84840, Note_off_c, 2, 59, 95, 0
2, 84840, Note_off_c, 2, 62, 95, 0
2, 84840, Note_on_c, 2, 55, 95, 0
2, 85320, Note_off_c, 2, 55, 95, 0
2, 85320, Note_on_c, 2, 47, 95, 0
2, 85560, Note_off_c, 2, 47, 95, 0
2, 85560, Note_on_c, 2, 57, 95, 0
2, 85560, Note_on_c, 2, 62, 95, 0
2, 85680, Note_off_c, 2, 57, 95, 0
2, 85680, Note_off_c, 2, 62, 95, 0
2, 85680, Note_on_c, 2, 50, 95, 0
2, 85680, Note_on_c, 2, 59, 95, 0
2, 86160, Note_off_c, 2, 50, 95, 0
2, 86160, Note_off_c, 2, 59, 95, 0
2, 86160, Note_on_c, 2, 59, 95, 0
2, 86280, Note_off_c, 2, 59, 95, 0
2, 86280, Note_on_c, 2, 50, 95, 0
2, 86760, Note_off_c, 2, 50, 95, 0
2, 86760, Note_on_c, 2, 57, 95, 0
2, 86760, Note_on_c, 2, 62, 95, 0
2, 87240, Note_off_c, 2, 57, 95, 0
2, 87240, Note_off_c, 2, 62, 95, 0
2, 87240, Note_on_c, 2, 50, 95, 0
2, 87240, Note_on_c, 2, 55, 95, 0
2, 87360, Note_off_c, 2, 50, 95, 0
2, 87360, Note_off_c, 2, 55, 95, 0
2, 87360, Note_on_c, 2, 57, 95, 0
2, 87840, Note_off_c, 2, 57, 95, 0
2, 87840, Note_on_c, 2, 45, 95, 0
2, 88320, Note_off_c, 2, 45, 95, 0
2, 88320, Note_on_c, 2, 57, 95, 0
2, 88320, Note_on_c, 2, 62, 95, 0
2, 88560, Note_off_c, 2, 57, 95, 0
2, 88560, Note_off_c, 2, 62, 95, 0
2, 88560, Note_on_c, 2, 55, 95, 0
2, 88800, Note_off_c, 2, 55, 95, 0
2, 88800, Note_on_c, 2, 48, 95, 0
2, 89280, Note_off_c, 2, 48, 95, 0
2, 89280, Note_on_c, 2, 45, 95, 0
2, 89760, Note_off_c, 2, 45, 95, 0
2, 89760, Note_on_c, 2, 62, 95, 0
2, 90240, Note_off_c, 2, 62, 95, 0
2, 90240, Note_on_c, 2, 62, 95, 0
2, 90360, Note_off_c, 2, 62, 95, 0
2, 90360, Note_on_c, 2, 64, 95, 0
2, 90840, Note_off_c, 2, 64, 95, 0
2, 90840, Note_on_c, 2, 45, 95, 0
2, 91080, Note_off_c, 2, 45, 95, 0
2, 91080, Note_on_c, 2, 62, 95, 0
2, 91320, Note_off_c, 2, 62, 95, 0
2, 91320, Note_on_c, 2, 55, 95, 0
2, 91440, Note_off_c, 2, 55, 95, 0
2, 91440, Note_on_c, 2, 57, 95, 0
2, 91560, Note_off_c, 2, 57, 95, 0
2, 91560, Note_on_c, 2, 50, 95, 0
2, 91680, Note_off_c, 2, 50, 95, 0
2, 91680, Note_on_c, 2, 57, 95, 0
2, 91680, Note_on_c, 2, 59, 95, 0
2, 91680, Note_on_c, 2, 62, 95, 0
2, 92160, Note_off_c, 2, 57, 95, 0
2, 92160, Note_off_c, 2, 59, 95, 0
2, 92160, Note_off_c, 2, 62, 95, 0
2, 92160, Note_on_c, 2, 55, 95, 0
2, 92400, Note_off_c, 2, 55, 95, 0
2, 92400, Note_on_c, 2, 57, 95, 0
2, 92640, Note_off_c, 2, 57, 95, 0
2, 92640, Note_on_c, 2, 50, 95, 0
2, 92760, Note_off_c, 2, 50, 95, 0
2, 92760, Note_on_c, 2, 62, 95, 0
2, 93000, Note_off_c, 2, 62, 95, 0
2, 93000, Note_on_c, 2, 55, 95, 0
2, 93240, Note_off_c, 2, 55, 95, 0
2, 93240, Note_on_c, 2, 57, 95, 0
2, 93720, Note_off_c, 2, 57, 95, 0
2, 93720, Note_on_c, 2, 50, 95, 0
2, 93960, Note_off_c, 2, 50, 95, 0
2, 93960, Note_on_c, 2, 59, 95, 0
2, 93960, Note_on_c, 2, 62, 95, 0
2, 94200, Note_off_c, 2, 59, 95, 0
2, 94200, Note_off_c, 2, 62, 95, 0
2, 94200, Note_on_c, 2, 55, 95, 0
2, 94440, Note_off_c, 2, 55, 95, 0
2, 94440, Note_on_c, 2, 47, 95, 0
2, 94440, Note_on_c, 2, 57, 95, 0
2, 94680, Note_off_c, 2, 47, 95, 0
2, 94680, Note_off_c, 2, 57, 95, 0
2, 94680, Note_on_c, 2, 64, 95, 0
2, 94800, Note_off_c, 2, 64, 95, 0
2, 94800, Note_on_c, 2, 55, 95, 0
2, 94920, Note_off_c, 2, 55, 95, 0
2, 94920, Note_on_c, 2, 57, 95, 0
2, 94920, Note_on_c, 2, 62, 95, 0
2, 95160, Note_off_c, 2, 57, 95, 0
2, 95160, Note_off_c, 2, 62, 95, 0
2, 95160, Note_on_c, 2, 60, 95, 0
2, 95640, Note_off_c, 2, 60, 95, 0
2, 95640, Note_on_c, 2, 59, 95, 0
2, 95760, Note_off_c, 2, 59, 95, 0
2, 95760, Note_on_c, 2, 50, 95, 0
2, 95760, Note_on_c, 2, 55, 95, 0
2, 96000, Note_off_c, 2, 50, 95, 0
2, 96000, Note_off_c, 2, 55, 95, 0
2, 96480, Note_on_c, 2, 55, 95, 0
2, 96480, Note_on_c, 2, 62, 95, 0
2, 96960, Note_off_c, 2, 55, 95, 0
2, 96960, Note_off_c, 2, 62, 95, 0
2, 96960, Note_on_c, 2, 50, 95, 0
2, 97200, Note_off_c, 2, 50, 95, 0
2, 97200, Note_on_c, 2, 57, 95, 0
2, 97200, Note_on_c, 2, 62, 95, 0
2, 97320, Note_off_c, 2, 57, 95, 0
2, 97320, Note_off_c, 2, 62, 95, 0
2, 97320, Note_on_c, 2, 50, 95, 0
2, 97440, Note_off_c, 2, 50, 95, 0
2, 97440, Note_on_c, 2, 48, 95, 0
2, 97440, Note_on_c, 2, 60, 95, 0
2, 97560, Note_off_c, 2, 48, 95, 0
2, 97560, Note_off_c, 2, 60, 95, 0
2, 97560, Note_on_c, 2, 67, 95, 0
2, 98040, Note_off_c, 2, 67, 95, 0
2, 98040, Note_on_c, 2, 59, 95, 0
2, 98160, Note_off_c, 2, 59, 95, 0
2, 98160, Note_on_c, 2, 57, 95, 0
2, 98280, Note_off_c, 2, 57, 95, 0
2, 98280, Note_on_c, 2, 69, 95, 0
2, 98520, Note_off_c, 2, 69, 95, 0
2, 98520, Note_on_c, 2, 62, 95, 0
2, 98640, Note_off_c, 2, 62, 95, 0
2, 98640, Note_on_c, 2, 50, 95, 0
2, 98640, Note_on_c, 2, 62, 95, 0
2, 98880, Note_off_c, 2, 50, 95, 0
2, 98880, Note_off_c, 2, 62, 95, 0
2, 98880, Note_on_c, 2, 64, 95, 0
2, 98880, Note_on_c, 2, 69, 95, 0
2, 99000, Note_off_c, 2, 64, 95, 0
2, 99000, Note_off_c, 2, 69, 95, 0
2, 99000, Note_on_c, 2, 62, 95, 0
2, 99120, Note_off_c, 2, 62, 95, 0
2, 99120, Note_on_c, 2, 62, 95, 0
2, 99600, Note_off_c, 2, 62, 95, 0
2, 99600, Note_on_c, 2, 60, 95, 0
2, 99600, Note_on_c, 2, 69, 95, 0
2, 99720, Note_off_c, 2, 60, 95, 0
2, 99720, Note_off_c, 2, 69, 95, 0
2, 99720, Note_on_c, 2, 62, 95, 0
2, 99840, Note_off_c, 2, 62, 95, 0
2, 99840, Note_on_c, 2, 50, 95, 0
2, 99960, Note_off_c, 2, 50, 95, 0
2, 99960, Note_on_c, 2, 64, 95, 0
2, 100200, Note_off_c, 2, 64, 95, 0
2, 100200, Note_on_c, 2, 52, 95, 0
2, 100680, Note_off_c, 2, 52, 95, 0
2, 100680, Note_on_c, 2, 47, 95, 0
2, 100680, Note_on_c, 2, 57, 95, 0
2, 100920, Note_off_c, 2, 47, 95, 0
2, 100920, Note_off_c, 2, 57, 95, 0
2, 100920, Note_on_c, 2, 45, 95, 0
2, 100920, Note_on_c, 2, 48, 95, 0
2, 100920, Note_on_c, 2, 60, 95, 0
2, 101040, Note_off_c, 2, 45, 95, 0
2, 101040, Note_off_c, 2, 48, 95, 0
2, 101040, Note_off_c, 2, 60, 95, 0
2, 101160, Note_on_c, 2, 57, 95, 0
2, 101160, Note_on_c, 2, 62, 95, 0
2, 101640, Note_off_c, 2, 57, 95, 0
2, 101640, Note_off_c, 2, 62, 95, 0
2, 101640, Note_on_c, 2, 59, 95, 0
2, 101760, Note_off_c, 2, 59, 95, 0
2, 101760, Note_on_c, 2, 57, 95, 0
2, 102000, Note_off_c, 2, 57, 95, 0
2, 102000, Note_on_c, 2, 60, 95, 0
2, 102000, Note_on_c, 2, 69, 95, 0
2, 102240, Note_off_c, 2, 60, 95, 0
2, 102240, Note_off_c, 2, 69, 95, 0
2, 102240, Note_on_c, 2, 59, 95, 0
2, 102720, Note_off_c, 2, 59, 95, 0
2, 102720, Note_on_c, 2, 55, 95, 0
2, 102840, Note_off_c, 2, 55, 95, 0
2, 102840, Note_on_c, 2, 48, 95, 0
2, 102960, Note_off_c, 2, 48, 95, 0
2, 102960, Note_on_c, 2, 57, 95, 0
2, 102960, Note_on_c, 2, 62, 95, 0
2, 103440, Note_off_c, 2, 57, 95, 0
2, 103440, Note_off_c, 2, 62, 95, 0
2, 103440, Note_on_c, 2, 59, 95, 0
2, 103920, Note_off_c, 2, 59, 95, 0
2, 104040, Note_on_c, 2, 45, 95, 0
2, 104040, Note_on_c, 2, 60, 95, 0
2, 104520, Note_off_c, 2, 45, 95, 0
2, 104520, Note_off_c, 2, 60, 95, 0
2, 104520, Note_on_c, 2, 62, 95, 0
2, 104640, Note_off_c, 2, 62, 95, 0
2, 104640, Note_on_c, 2, 55, 95, 0
2, 104880, Note_off_c, 2, 55, 95, 0
2, 104880, Note_on_c, 2, 57, 95, 0
2, 105000, Note_off_c, 2, 57, 95, 0
2, 105000, Note_on_c, 2, 50, 95, 0
2, 105480, Note_off_c, 2, 50, 95, 0
2, 105480, Note_on_c, 2, 62, 95, 0
2, 105720, Note_off_c, 2, 62, 95, 0
2, 105720, Note_on_c, 2, 55, 95, 0
2, 105720, Note_on_c, 2, 64, 95, 0
2, 106200, Note_off_c, 2, 55, 95, 0
2, 106200, Note_off_c, 2, 64, 95, 0
2, 106200, Note_on_c, 2, 47, 95, 0
2, 106200, Note_on_c, 2, 57, 95, 0
2, 106680, Note_off_c, 2, 47, 95, 0
2, 106680, Note_off_c, 2, 57, 95, 0
2, 106680, Note_on_c, 2, 60, 95, 0
2, 106920, Note_off_c, 2, 60, 95, 0
2, 106920, Note_on_c, 2, 59, 95, 0
2, 107400, Note_off_c, 2, 59, 95, 0
2, 107400, Note_on_c, 2, 50, 95, 0
2, 107400, Note_on_c, 2, 55, 95, 0
2, 107880, Note_off_c, 2, 50, 95, 0
2, 107880, Note_off_c, 2, 55, 95, 0
2, 108240, Note_on_c, 2, 43, 95, 0
2, 108240, Note_on_c, 2, 48, 95, 0
2, 108480, Note_off_c, 2, 43, 95, 0
2, 108480, Note_off_c, 2, 48, 95, 0
2, 108480, Note_on_c, 2, 43, 95, 0
2, 108480, Note_on_c, 2, 55, 95, 0
2, 108600, Note_off_c, 2, 43, 95, 0
2, 108600, Note_off_c, 2, 55, 95, 0
2, 108600, Note_on_c, 2, 55, 95, 0
2, 108600, Note_on_c, 2, 57, 95, 0
2, 108600, Note_on_c, 2, 62, 95, 0
2, 109080, Note_off_c, 2, 55, 95, 0
2, 109080, Note_off_c, 2, 57, 95, 0
2, 109080, Note_off_c, 2, 62, 95, 0
2, 109080, Note_on_c, 2, 50, 95, 0
2, 109080, Note_on_c, 2, 59, 95, 0
2, 109560, Note_off_c, 2, 50, 95, 0
2, 109560, Note_off_c, 2, 59, 95, 0
2, 109560, Note_on_c, 2, 55, 95, 0
2, 109560, Note_on_c, 2, 64, 95, 0
2, 109680, Note_off_c, 2, 55, 95, 0
2, 109680, Note_off_c, 2, 64, 95, 0
2, 109680, Note_on_c, 2, 45, 95, 0
2, 109680, Note_on_c, 2, 50, 95, 0
2, 110160, Note_off_c, 2, 45, 95, 0
2, 110160, Note_off_c, 2, 50, 95, 0
2, 110160, Note_on_c, 2, 59, 95, 0
2, 110640, Note_off_c, 2, 59, 95, 0
2, 110640, Note_on_c, 2, 55, 95, 0
2, 111120, Note_off_c, 2, 55, 95, 0
2, 111120, Note_on_c, 2, 62, 95, 0
2, 111240, Note_off_c, 2, 62, 95, 0
2, 111240, Note_on_c, 2, 50, 95, 0
2, 111360, Note_off_c, 2, 50, 95, 0
2, 111360, Note_on_c, 2, 60, 95, 0
2, 111600, Note_off_c, 2, 60, 95, 0
2, 111600, Note_on_c, 2, 50, 95, 0
2, 111600, Note_on_c, 2, 61, 95, 0
2, 111720, Note_off_c, 2, 50, 95, 0
2, 111720, Note_off_c, 2, 61, 95, 0
2, 111720, Note_on_c, 2, 59, 95, 0
2, 111840, Note_off_c, 2, 59, 95, 0
2, 111840, Note_on_c, 2, 50, 95, 0
2, 111840, Note_on_c, 2, 55, 95, 0
2, 111960, Note_off_c, 2, 50, 95, 0
2, 111960, Note_off_c, 2, 55, 95, 0
2, 111960, Note_on_c, 2, 48, 95, 0
2, 111960, Note_on_c, 2, 57, 95, 0
2, 112200, Note_off_c, 2, 48, 95, 0
2, 112200, Note_off_c, 2, 57, 95, 0
2, 112200, Note_on_c, 2, 50, 95, 0
2, 112200, Note_on_c, 2, 55, 95, 0
2, 112440, Note_off_c, 2, 50, 95, 0
2, 112440, Note_off_c, 2, 55, 95, 0
2, 112440, Note_on_c, 2, 48, 95, 0
2, 112920, Note_off_c, 2, 48, 95, 0
2, 112920, Note_on_c, 2, 43, 95, 0
2, 112920, Note_on_c, 2, 55, 95, 0
2, 113160, Note_off_c, 2, 43, 95, 0
2, 113160, Note_off_c, 2, 55, 95, 0
2, 113160, Note_on_c, 2, 59, 95, 0
2, 113280, Note_off_c, 2, 59, 95, 0
2, 113280, Note_on_c, 2, 61, 95, 0
2, 113280, Note_on_c, 2, 67, 95, 0
2, 113400, Note_off_c, 2, 61, 95, 0
2, 113400, Note_off_c, 2, 67, 95, 0
2, 113400, Note_on_c, 2, 62, 95, 0
2, 113880, Note_off_c, 2, 62, 95, 0
2, 113880, Note_on_c, 2, 50, 95, 0
2, 114000, Note_off_c, 2, 50, 95, 0
2, 114000, Note_on_c, 2, 48, 95, 0
2, 114000, Note_on_c, 2, 64, 95, 0
2, 114240, Note_off_c, 2, 48, 95, 0
2, 114240, Note_off_c, 2, 64, 95, 0
2, 114240, Note_on_c, 2, 48, 95, 0
2, 114480, Note_off_c, 2, 48, 95, 0
2, 114480, Note_on_c, 2, 55, 95, 0
2, 114480, Note_on_c, 2, 62, 95, 0
2, 114720, Note_off_c, 2, 55, 95, 0
2, 114720, Note_off_c, 2, 62, 95, 0
2, 114720, Note_on_c, 2, 50, 95, 0
2, 114720, Note_on_c, 2, 61, 95, 0
2, 115200, Note_off_c, 2, 50, 95, 0
2, 115200, Note_off_c, 2, 61, 95, 0
2, 115200, Note_on_c, 2, 59, 95, 0
2, 115440, Note_off_c, 2, 59, 95, 0
2, 115440, Note_on_c, 2, 61, 95, 0
2, 115920, Note_off_c, 2, 61, 95, 0
2, 115920, Note_on_c, 2, 59, 95, 0
2, 116040, Note_off_c, 2, 59, 95, 0
2, 116040, Note_on_c, 2, 50, 95, 0
2, 116040, Note_on_c, 2, 61, 95, 0
2, 116160, Note_off_c, 2, 50, 95, 0
2, 116160, Note_off_c, 2, 61, 95, 0
2, 116160, Note_on_c, 2, 62, 95, 0
2, 116640, Note_off_c, 2, 62, 95, 0
2, 116640, Note_on_c, 2, 64, 95, 0
2, 116880, Note_off_c, 2, 64, 95, 0
2, 116880, Note_on_c, 2, 62, 95, 0
2, 116880, Note_on_c, 2, 64, 95, 0
2, 117360, Note_off_c, 2, 62, 95, 0
2, 117360, Note_off_c, 2, 64, 95, 0
2, 117360, Note_on_c, 2, 60, 95, 0
2, 117600, Note_off_c, 2, 60, 95, 0
2, 117600, Note_on_c, 2, 59, 95, 0
2, 117600, Note_on_c, 2, 62, 95, 0
2, 117840, Note_off_c, 2, 59, 95, 0
2, 117840, Note_off_c, 2, 62, 95, 0
2, 117840, Note_on_c, 2, 50, 95, 0
2, 118080, Note_off_c, 2, 50, 95, 0
2, 118080, Note_on_c, 2, 59, 95, 0
2, 118080, Note_on_c, 2, 62, 95, 0
2, 118560, Note_off_c, 2, 59, 95, 0
2, 118560, Note_off_c, 2, 62, 95, 0
2, 118800, Note_on_c, 2, 48, 95, 0
2, 118800, Note_on_c, 2, 52, 95, 0
2, 118800, Note_on_c, 2, 60, 95, 0
2, 118920, Note_off_c, 2, 48, 95, 0
2, 118920, Note_off_c, 2, 52, 95, 0
2, 118920, Note_off_c, 2, 60, 95, 0
2, 118920, Note_on_c, 2, 60, 95, 0
2, 118920, Note_on_c, 2, 61, 95, 0
2, 119040, Note_off_c, 2, 60, 95, 0
2, 119040, Note_off_c, 2, 61, 95, 0
2, 119040, Note_on_c, 2, 59, 95, 0
2, 119160, Note_off_c, 2, 59, 95, 0
2, 119160, Note_on_c, 2, 50, 95, 0
2, 119160, Note_on_c, 2, 61, 95, 0
2, 119400, Note_off_c, 2, 50, 95, 0
2, 119400, Note_off_c, 2, 61, 95, 0
2, 119400, Note_on_c, 2, 55, 95, 0
2, 119400, Note_on_c, 2, 62, 95, 0
2, 119520, Note_off_c, 2, 55, 95, 0
2, 119520, Note_off_c, 2, 62, 95, 0
2, 119520, Note_on_c, 2, 59, 95, 0
2, 120000, Note_off_c, 2, 59, 95, 0
2, 120000, Note_on_c, 2, 57, 95, 0
2, 120120, Note_off_c, 2, 57, 95, 0
2, 120120, Note_on_c, 2, 50, 95, 0
2, 120600, Note_off_c, 2, 50, 95, 0
2, 120600, Note_on_c, 2, 62, 95, 0
2, 121080, Note_off_c, 2, 62, 95, 0
2, 121080, Note_on_c, 2, 50, 95, 0
2, 121080, Note_on_c, 2, 64, 95, 0
2, 121320, Note_off_c, 2, 50, 95, 0
2, 121320, Note_off_c, 2, 64, 95, 0
2, 121320, Note_on_c, 2, 48, 95, 0
2, 121320, Note_on_c, 2, 52, 95, 0
2, 121440, Note_off_c, 2, 48, 95, 0
2, 121440, Note_off_c, 2, 52, 95, 0
2, 121680, Note_on_c, 2, 59, 95, 0
2, 121920, Note_off_c, 2, 59, 95, 0
2, 121920, Note_on_c, 2, 62, 95, 0
2, 122400, Note_off_c, 2, 62, 95, 0
2, 122400, Note_on_c, 2, 67, 95, 0
2, 122640, Note_off_c, 2, 67, 95, 0
2, 122640, Note_on_c, 2, 45, 95, 0
2, 122640, Note_on_c, 2, 55, 95, 0
2, 122640, Note_on_c, 2, 62, 95, 0
2, 123120, Note_off_c, 2, 45, 95, 0
2, 123120, Note_off_c, 2, 55, 95, 0
2, 123120, Note_off_c, 2, 62, 95, 0
2, 123120, Note_on_c, 2, 47, 95, 0
2, 123600, Note_off_c, 2, 47, 95, 0
2, 123600, Note_on_c, 2, 59, 95, 0
2, 123600, Note_on_c, 2, 62, 95, 0
2, 124080, Note_off_c, 2, 59, 95, 0
2, 124080, Note_off_c, 2, 62, 95, 0
2, 124080, Note_on_c, 2, 48, 95, 0
2, 124080, Note_on_c, 2, 55, 95, 0
2, 124200, Note_off_c, 2, 48, 95, 0
2, 124200, Note_off_c, 2, 55, 95, 0
2, 124200, Note_on_c, 2, 57, 95, 0
2, 124680, Note_off_c, 2, 57, 95, 0
2, 124680, Note_on_c, 2, 60, 95, 0
2, 124680, Note_on_c, 2, 67, 95, 0
2, 124800, Note_off_c, 2, 60, 95, 0
2, 124800, Note_off_c, 2, 67, 95, 0
2, 124800, Note_on_c, 2, 52, 95, 0
2, 124800, Note_on_c, 2, 59, 95, 0
2, 125040, Note_off_c, 2, 52, 95, 0
2, 125040, Note_off_c, 2, 59, 95, 0
2, 125040, Note_on_c, 2, 48, 95, 0
2, 125520, Note_off_c, 2, 48, 95, 0
2, 125520, Note_on_c, 2, 55, 95, 0
2, 125760, Note_off_c, 2, 55, 95, 0
2, 125760, Note_on_c, 2, 59, 95, 0
2, 126240, Note_off_c, 2, 59, 95, 0
2, 126480, Note_on_c, 2, 57, 95, 0
2, 126720, Note_off_c, 2, 57, 95, 0
2, 126720, Note_on_c, 2, 59, 95, 0
2, 127200, Note_off_c, 2, 59, 95, 0
2, 127200, Note_on_c, 2, 48, 95, 0
2, 127200, Note_on_c, 2, 55, 95, 0
2, 127680, Note_off_c, 2, 48, 95, 0
2, 127680, Note_off_c, 2, 55, 95, 0
2, 127680, Note_on_c, 2, 57, 95, 0
2, 128160, Note_off_c, 2, 57, 95, 0
2, 128160, Note_on_c, 2, 50, 95, 0
2, 128160, Note_on_c, 2, 55, 95, 0
2, 128640, Note_off_c, 2, 50, 95, 0
2, 128640, Note_off_c, 2, 55, 95, 0
2, 128640, Note_on_c, 2, 48, 95, 0
2, 128760, Note_off_c, 2, 48, 95, 0
2, 129000, Note_on_c, 2, 55, 95, 0
2, 129000, Note_on_c, 2, 62, 95, 0
2, 129480, Note_off_c, 2, 55, 95, 0
2, 129480, Note_off_c, 2, 62, 95, 0
2, 129480, Note_on_c, 2, 50, 95, 0
2, 129600, Note_off_c, 2, 50, 95, 0
2, 129600, Note_on_c, 2, 48, 95, 0
2, 130080, Note_off_c, 2, 48, 95, 0
2, 130080, Note_on_c, 2, 55, 95, 0
2, 130200, Note_off_c, 2, 55, 95, 0
2, 130200, Note_on_c, 2, 50, 95, 0
2, 130320, Note_off_c, 2, 50, 95, 0
2, 130320, Note_on_c, 2, 57, 95, 0
2, 130560, Note_off_c, 2, 57, 95, 0
2, 130560, Note_on_c, 2, 50, 95, 0
2, 130800, Note_off_c, 2, 50, 95, 0
2, 130800, Note_on_c, 2, 48, 95, 0
2, 131040, Note_off_c, 2, 48, 95, 0
2, 131520, Note_on_c, 2, 55, 95, 0
2, 131520, Note_on_c, 2, 62, 95, 0
2, 131640, Note_off_c, 2, 55, 95, 0
2, 131640, Note_off_c, 2, 62, 95, 0
2, 131640, Note_on_c, 2, 50, 95, 0
2, 131760, Note_off_c, 2, 50, 95, 0
2, 131760, Note_on_c, 2, 48, 95, 0
2, 132240, Note_off_c, 2, 48, 95, 0
2, 132720, Note_on_c, 2, 50, 95, 0
2, 132840, Note_off_c, 2, 50, 95, 0
2, 132840, Note_on_c, 2, 43, 95, 0
2, 132960, Note_off_c, 2, 43, 95, 0
2, 132960, Note_on_c, 2, 55, 95, 0
2, 133200, Note_off_c, 2, 55, 95, 0
2, 133200, Note_on_c, 2, 50, 95, 0
2, 133320, Note_off_c, 2, 50, 95, 0
2, 133320, Note_on_c, 2, 48, 95, 0
2, 133800, Note_off_c, 2, 48, 95, 0
2, 134280, Note_on_c, 2, 50, 95, 0
2, 134280, Note_on_c, 2, 59, 95, 0
2, 134520, Note_off_c, 2, 50, 95, 0
2, 134520, Note_off_c, 2, 59, 95, 0
2, 134520, Note_on_c, 2, 52, 95, 0
2, 134640, Note_off_c, 2, 52, 95, 0
2, 134640, Note_on_c, 2, 57, 95, 0
2, 134640, Note_on_c, 2, 62, 95, 0
2, 134880, Note_off_c, 2, 57, 95, 0
2, 134880, Note_off_c, 2, 62, 95, 0
2, 134880, Note_on_c, 2, 59, 95, 0
2, 135000, Note_off_c, 2, 59, 95, 0
2, 135480, Note_on_c, 2, 50, 95, 0
2, 135960, Note_off_c, 2, 50, 95, 0
2, 135960, Note_on_c, 2, 57, 95, 0
2, 135960, Note_on_c, 2, 62, 95, 0
2, 136080, Note_off_c, 2, 57, 95, 0
2, 136080, Note_off_c, 2, 62, 95, 0
2, 136080, Note_on_c, 2, 50, 95, 0
2, 136080, Note_on_c, 2, 55, 95, 0
2, 136320, Note_off_c, 2, 50, 95, 0
2, 136320, Note_off_c, 2, 55, 95, 0
2, 136320, Note_on_c, 2, 48, 95, 0
2, 136800, Note_off_c, 2, 48, 95, 0
2, 136800, Note_on_c, 2, 55, 95, 0
2, 137040, Note_off_c, 2, 55, 95, 0
2, 137040, Note_on_c, 2, 47, 95, 0
2, 137160, Note_off_c, 2, 47, 95, 0
2, 137160, Note_on_c, 2, 57, 95, 0
2, 137160, Note_on_c, 2, 62, 95, 0
2, 137640, Note_off_c, 2, 57, 95, 0
2, 137640, Note_off_c, 2, 62, 95, 0
2, 137640, Note_on_c, 2, 50, 95, 0
2, 137640, Note_on_c, 2, 59, 95, 0
2, 137880, Note_off_c, 2, 50, 95, 0
2, 137880, Note_off_c, 2, 59, 95, 0
2, 137880, Note_on_c, 2, 48, 95, 0
2, 138000, Note_off_c, 2, 48, 95, 0
2, 138000, Note_on_c, 2, 43, 95, 0
2, 138000, Note_on_c, 2, 55, 95, 0
2, 138480, Note_off_c, 2, 43, 95, 0
2, 138480, Note_off_c, 2, 55, 95, 0
2, 138480, Note_on_c, 2, 59, 95, 0
2, 138960, Note_off_c, 2, 59, 95, 0
2, 138960, Note_on_c, 2, 59, 95, 0
2, 139080, Note_off_c, 2, 59, 95, 0
2, 139080, Note_on_c, 2, 50, 95, 0
2, 139080, Note_on_c, 2, 52, 95, 0
2, 139560, Note_off_c, 2, 50, 95, 0
2, 139560, Note_off_c, 2, 52, 95, 0
2, 139560, Note_on_c, 2, 57, 95, 0
2, 139560, Note_on_c, 2, 59, 95, 0
2, 139560, Note_on_c, 2, 62, 95, 0
2, 139680, Note_off_c, 2, 57, 95, 0
2, 139680, Note_off_c, 2, 59, 95, 0
2, 139680, Note_off_c, 2, 62, 95, 0
2, 139680, Note_on_c, 2, 50, 95, 0
2, 139680, Note_on_c, 2, 55, 95, 0
2, 140160, Note_off_c, 2, 50, 95, 0
2, 140160, Note_off_c, 2, 55, 95, 0
2, 140160, Note_on_c, 2, 48, 95, 0
2, 140280, Note_off_c, 2, 48, 95, 0
2, 140280, Note_on_c, 2, 43, 95, 0
2, 140280, Note_on_c, 2, 55, 95, 0
2, 140400, Note_off_c, 2, 43, 95, 0
2, 140400, Note_off_c, 2, 55, 95, 0
2, 140400, Note_on_c, 2, 47, 95, 0
2, 140400, Note_on_c, 2, 48, 95, 0
2, 140640, Note_off_c, 2, 47, 95, 0
2, 140640, Note_off_c, 2, 48, 95, 0
2, 140640, Note_on_c, 2, 57, 95, 0
2, 140640, Note_on_c, 2, 62, 95, 0
2, 140760, Note_off_c, 2, 57, 95, 0
2, 140760, Note_off_c, 2, 62, 95, 0
2, 140760, Note_on_c, 2, 50, 95, 0
2, 140760, Note_on_c, 2, 55, 95, 0
2, 140880, Note_off_c, 2, 50, 95, 0
2, 140880, Note_off_c, 2, 55, 95, 0
2, 140880, Note_on_c, 2, 57, 95, 0
2, 140880, Note_on_c, 2, 60, 95, 0
2, 141000, Note_off_c, 2, 57, 95, 0
2, 141000, Note_off_c, 2, 60, 95, 0
2, 141000, Note_on_c, 2, 61, 95, 0
2, 141120, Note_off_c, 2, 61, 95, 0
2, 141120, Note_on_c, 2, 59, 95, 0
2, 141360, Note_off_c, 2, 59, 95, 0
2, 141360, Note_on_c, 2, 50, 95, 0
2, 141360, Note_on_c, 2, 59, 95, 0
2, 141840, Note_off_c, 2, 50, 95, 0
2, 141840, Note_off_c, 2, 59, 95, 0
2, 141840, Note_on_c, 2, 57, 95, 0
2, 141840, Note_on_c, 2, 62, 95, 0
2, 142080, Note_off_c, 2, 57, 95, 0
2, 142080, Note_off_c, 2, 62, 95, 0
2, 142080, Note_on_c, 2, 50, 95, 0
2, 142560, Note_off_c, 2, 50, 95, 0
2, 142560, Note_on_c, 2, 48, 95, 0
2, 142560, Note_on_c, 2, 60, 95, 0
2, 143040, Note_off_c, 2, 48, 95, 0
2, 143040, Note_off_c, 2, 60, 95, 0
2, 143040, Note_on_c, 2, 67, 95, 0
2, 143280, Note_off_c, 2, 67, 95, 0
2, 143280, Note_on_c, 2, 59, 95, 0
2, 143280, Note_on_c, 2, 61, 95, 0
2, 143520, Note_off_c, 2, 59, 95, 0
2, 143520, Note_off_c, 2, 61, 95, 0
2, 143520, Note_on_c, 2, 50, 95, 0
2, 143520, Note_on_c, 2, 57, 95, 0
2, 143760, Note_off_c, 2, 50, 95, 0
2, 143760, Note_off_c, 2, 57, 95, 0
2, 143760, Note_on_c, 2, 69, 95, 0
2, 144240, Note_off_c, 2, 69, 95, 0
2, 144240, Note_on_c, 2, 61, 95, 0
2, 144240, Note_on_c, 2, 62, 95, 0
2, 144360, Note_off_c, 2, 61, 95, 0
2, 144360, Note_off_c, 2, 62, 95, 0
2, 144360, Note_on_c, 2, 50, 95, 0
2, 144840, Note_off_c, 2, 50, 95, 0
2, 144840, Note_on_c, 2, 64, 95, 0
2, 144840, Note_on_c, 2, 69, 95, 0
2, 144960, Note_off_c, 2, 64, 95, 0
2, 144960, Note_off_c, 2, 69, 95, 0
2, 144960, Note_on_c, 2, 52, 95, 0
2, 145440, Note_off_c, 2, 52, 95, 0
2, 145440, Note_on_c, 2, 47, 95, 0
2, 145440, Note_on_c, 2, 57, 95, 0
2, 145680, Note_off_c, 2, 47, 95, 0
2, 145680, Note_off_c, 2, 57, 95, 0
2, 145680, Note_on_c, 2, 60, 95, 0
2, 145920, Note_off_c, 2, 60, 95, 0
2, 145920, Note_on_c, 2, 59, 95, 0
2, 145920, Note_on_c, 2, 62, 95, 0
2, 146400, Note_off_c, 2, 59, 95, 0
2, 146400, Note_off_c, 2, 62, 95, 0
2, 146400, Note_on_c, 2, 50, 95, 0
2, 146400, Note_on_c, 2, 55, 95, 0
2, 146640, Note_off_c, 2, 50, 95, 0
2, 146640, Note_off_c, 2, 55, 95, 0
2, 146640, Note_on_c, 2, 59, 95, 0
2, 146760, Note_off_c, 2, 59, 95, 0
2, 147000, Note_on_c, 2, 55, 95, 0
2, 147000, Note_on_c, 2, 57, 95, 0
2, 147000, Note_on_c, 2, 62, 95, 0
2, 147240, Note_off_c, 2, 55, 95, 0
2, 147240, Note_off_c, 2, 57, 95, 0
2, 147240, Note_off_c, 2, 62, 95, 0
2, 147240, Note_on_c, 2, 45, 95, 0
2, 147480, Note_off_c, 2, 45, 95, 0
2, 147480, Note_on_c, 2, 62, 95, 0
2, 147720, Note_off_c, 2, 62, 95, 0
2, 147720, Note_on_c, 2, 62, 95, 0
2, 147720, Note_on_c, 2, 64, 95, 0
2, 148200, Note_off_c, 2, 62, 95, 0
2, 148200, Note_off_c, 2, 64, 95, 0
2, 148200, Note_on_c, 2, 60, 95, 0
2, 148200, Note_on_c, 2, 62, 95, 0
2, 148440, Note_off_c, 2, 60, 95, 0
2, 148440, Note_off_c, 2, 62, 95, 0
2, 148440, Note_on_c, 2, 60, 95, 0
2, 148560, Note_off_c, 2, 60, 95, 0
2, 148560, Note_on_c, 2, 59, 95, 0
2, 148800, Note_off_c, 2, 59, 95, 0
2, 148800, Note_on_c, 2, 55, 95, 0
2, 149040, Note_off_c, 2, 55, 95, 0
2, 149040, Note_on_c, 2, 47, 95, 0
2, 149040, Note_on_c, 2, 55, 95, 0
2, 149280, Note_off_c, 2, 47, 95, 0
2, 149280, Note_off_c, 2, 55, 95, 0
2, 149760, Note_on_c, 2, 62, 95, 0
2, 149880, Note_off_c, 2, 62, 95, 0
2, 149880, Note_on_c, 2, 50, 95, 0
2, 149880, Note_on_c, 2, 57, 95, 0
2, 150000, Note_off_c, 2, 50, 95, 0
2, 150000, Note_off_c, 2, 57, 95, 0
2, 150000, Note_on_c, 2, 64, 95, 0
2, 150240, Note_off_c, 2, 64, 95, 0
2, 150240, Note_on_c, 2, 48, 95, 0
2, 150240, Note_on_c, 2, 64, 95, 0
2, 150480, Note_off_c, 2, 48, 95, 0
2, 150480, Note_off_c, 2, 64, 95, 0
2, 150480, Note_on_c, 2, 57, 95, 0
2, 150480, Note_on_c, 2, 62, 95, 0
2, 150720, Note_off_c, 2, 57, 95, 0
2, 150720, Note_off_c, 2, 62, 95, 0
2, 150720, Note_on_c, 2, 60, 95, 0
2, 150840, Note_off_c, 2, 60, 95, 0
2, 150840, Note_on_c, 2, 52, 95, 0
2, 151080, Note_off_c, 2, 52, 95, 0
2, 151080, Note_on_c, 2, 59, 95, 0
2, 151080, Note_on_c, 2, 62, 95, 0
2, 151200, Note_off_c, 2, 59, 95, 0
2, 151200, Note_off_c, 2, 62, 95, 0
2, 151200, Note_on_c, 2, 55, 95, 0
2, 151680, Note_off_c, 2, 55, 95, 0
2, 151680, Note_on_c, 2, 47, 95, 0
2, 151920, Note_off_c, 2, 47, 95, 0
2, 151920, Note_on_c, 2, 57, 95, 0
2, 151920, Note_on_c, 2, 62, 95, 0
2, 152160, Note_off_c, 2, 57, 95, 0
2, 152160, Note_off_c, 2, 62, 95, 0
2, 152640, Note_on_c, 2, 57, 95, 0
2, 152640, Note_on_c, 2, 62, 95, 0
2, 153120, Note_off_c, 2, 57, 95, 0
2, 153120, Note_off_c, 2, 62, 95, 0
2, 153120, Note_on_c, 2, 45, 95, 0
2, 153120, Note_on_c, 2, 60, 95, 0
2, 153360, Note_off_c, 2, 45, 95, 0
2, 153360, Note_off_c, 2, 60, 95, 0
2, 153360, Note_on_c, 2, 52, 95, 0
2, 153360, Note_on_c, 2, 59, 95, 0
2, 153840, Note_off_c, 2, 52, 95, 0
2, 153840, Note_off_c, 2, 59, 95, 0
2, 153840, Note_on_c, 2, 55, 95, 0
2, 153960, Note_off_c, 2, 55, 95, 0
2, 153960, Note_on_c, 2, 60, 95, 0
2, 154200, Note_off_c, 2, 60, 95, 0
2, 154200, Note_on_c, 2, 50, 95, 0
2, 154680, Note_off_c, 2, 50, 95, 0
2, 154680, Note_on_c, 2, 48, 95, 0
2, 155160, Note_off_c, 2, 48, 95, 0
2, 155160, Note_on_c, 2, 55, 95, 0
2, 155640, Note_off_c, 2, 55, 95, 0
2, 155640, Note_on_c, 2, 59, 95, 0
2, 156120, Note_off_c, 2, 59, 95, 0
2, 156120, Note_on_c, 2, 59, 95, 0
2, 156600, Note_off_c, 2, 59, 95, 0
2, 156600, Note_on_c, 2, 57, 95, 0
2, 156600, Note_on_c, 2, 62, 95, 0
2, 156840, Note_off_c, 2, 57, 95, 0
2, 156840, Note_off_c, 2, 62, 95, 0
2, 156840, Note_on_c, 2, 50, 95, 0
2, 157080, Note_off_c, 2, 50, 95, 0
2, 157080, Note_on_c, 2, 55, 95, 0
2, 157080, Note_on_c, 2, 62, 95, 0
2, 157320, Note_off_c, 2, 55, 95, 0
2, 157320, Note_off_c, 2, 62, 95, 0
2, 157320, Note_on_c, 2, 50, 95, 0
2, 157320, Note_on_c, 2, 64, 95, 0
2, 157800, Note_off_c, 2, 50, 95, 0
2, 157800, Note_off_c, 2, 64, 95, 0
2, 157800, Note_on_c, 2, 57, 95, 0
2, 157800, Note_on_c, 2, 60, 95, 0
2, 157920, Note_off_c, 2, 57, 95, 0
2, 157920, Note_off_c, 2, 60, 95, 0
2, 158400, Note_on_c, 2, 59, 95, 0
2, 158520, Note_off_c, 2, 59, 95, 0
2, 158520, Note_on_c, 2, 50, 95, 0
2, 158520, Note_on_c, 2, 61, 95, 0
2, 159000, Note_off_c, 2, 50, 95, 0
2, 159000, Note_off_c, 2, 61, 95, 0
2, 159000, Note_on_c, 2, 48, 95, 0
2, 159000, Note_on_c, 2, 62, 95, 0
2, 159240, Note_off_c, 2, 48, 95, 0
2, 159240, Note_off_c, 2, 62, 95, 0
2, 159240, Note_on_c, 2, 50, 95, 0
2, 159240, Note_on_c, 2, 55, 95, 0
2, 159360, Note_off_c, 2, 50, 95, 0
2, 159360, Note_off_c, 2, 55, 95, 0
2, 159840, Note_on_c, 2, 48, 95, 0
2, 159840, Note_on_c, 2, 62, 95, 0
2, 160080, Note_off_c, 2, 48, 95, 0
2, 160080, Note_off_c, 2, 62, 95, 0
2, 160080, Note_on_c, 2, 43, 95, 0
2, 160560, Note_off_c, 2, 43, 95, 0
2, 160560, Note_on_c, 2, 57, 95, 0
2, 161040, Note_off_c, 2, 57, 95, 0
2, 161040, Note_on_c, 2, 50, 95, 0
2, 161520, Note_off_c, 2, 50, 95, 0
2, 161520, Note_on_c, 2, 48, 95, 0
2, 161520, Note_on_c, 2, 57, 95, 0
2, 161520, Note_on_c, 2, 60, 95, 0
2, 161760, Note_off_c, 2, 48, 95, 0
2, 161760, Note_off_c, 2, 57, 95, 0
2, 161760, Note_off_c, 2, 60, 95, 0
2, 161760, Note_on_c, 2, 50, 95, 0
2, 161880, Note_off_c, 2, 50, 95, 0
2, 161880, Note_on_c, 2, 48, 95, 0
2, 161880, Note_on_c, 2, 57, 95, 0
2, 162360, Note_off_c, 2, 48, 95, 0
2, 162360, Note_off_c, 2, 57, 95, 0
2, 162360, Note_on_c, 2, 50, 95, 0
2, 162360, Note_on_c, 2, 55, 95, 0
2, 162480, Note_off_c, 2, 50, 95, 0
2, 162480, Note_off_c, 2, 55, 95, 0
2, 162480, Note_on_c, 2, 48, 95, 0
2, 162720, Note_off_c, 2, 48, 95, 0
2, 162720, Note_on_c, 2, 43, 95, 0
2, 162720, Note_on_c, 2, 55, 95, 0
2, 162960, Note_off_c, 2, 43, 95, 0
2, 162960, Note_off_c, 2, 55, 95, 0
2, 162960, Note_on_c, 2, 59, 95, 0
2, 163200, Note_off_c, 2, 59, 95, 0
2, 163200, Note_on_c, 2, 52, 95, 0
2, 163440, Note_off_c, 2, 52, 95, 0
2, 163440, Note_on_c, 2, 57, 95, 0
2, 163920, Note_off_c, 2, 57, 95, 0
2, 163920, Note_on_c, 2, 50, 95, 0
2, 163920, Note_on_c, 2, 55, 95, 0
2, 164040, Note_off_c, 2, 50, 95, 0
2, 164040, Note_off_c, 2, 55, 95, 0
2, 164040, Note_on_c, 2, 57, 95, 0
2, 164040, Note_on_c, 2, 62, 95, 0
2, 164160, Note_off_c, 2, 57, 95, 0
2, 164160, Note_off_c, 2, 62, 95, 0
2, 164160, Note_on_c, 2, 50, 95, 0
2, 164160, Note_on_c, 2, 55, 95, 0
2, 164640, Note_off_c, 2, 50, 95, 0
2, 164640, Note_off_c, 2, 55, 95, 0
2, 164640, Note_on_c, 2, 57, 95, 0
2, 164640, Note_on_c, 2, 60, 95, 0
2, 164880, Note_off_c, 2, 57, 95, 0
2, 164880, Note_off_c, 2, 60, 95, 0
2, 164880, Note_on_c, 2, 50, 95, 0
2, 164880, Note_on_c, 2, 61, 95, 0
2, 165360, Note_off_c, 2, 50, 95, 0
2, 165360, Note_off_c, 2, 61, 95, 0
2, 165360, Note_on_c, 2, 59, 95, 0
2, 165600, Note_off_c, 2, 59, 95, 0
2, 165600, Note_on_c, 2, 55, 95, 0
2, 165840, Note_off_c, 2, 55, 95, 0
2, 165840, Note_on_c, 2, 59, 95, 0
2, 165960, Note_off_c, 2, 59, 95, 0
2, 165960, Note_on_c, 2, 50, 95, 0
2, 166440, Note_off_c, 2, 50, 95, 0
2, 166440, Note_on_c, 2, 48, 95, 0
2, 166440, Note_on_c, 2, 57, 95, 0
2, 166680, Note_off_c, 2, 48, 95, 0
2, 166680, Note_off_c, 2, 57, 95, 0
2, 166680, Note_on_c, 2, 50, 95, 0
2, 166680, Note_on_c, 2, 55, 95, 0
2, 166800, Note_off_c, 2, 50, 95, 0
2, 166800, Note_off_c, 2, 55, 95, 0
2, 166800, Note_on_c, 2, 57, 95, 0
2, 166800, Note_on_c, 2, 62, 95, 0
2, 167040, Note_off_c, 2, 57, 95, 0
2, 167040, Note_off_c, 2, 62, 95, 0
2, 167040, Note_on_c, 2, 50, 95, 0
2, 167520, Note_off_c, 2, 50, 95, 0
2, 167520, Note_on_c, 2, 48, 95, 0
2, 167640, Note_off_c, 2, 48, 95, 0
2, 168120, Note_on_c, 2, 50, 95, 0
2, 168120, Note_on_c, 2, 59, 95, 0
2, 168240, Note_off_c, 2, 50, 95, 0
2, 168240, Note_off_c, 2, 59, 95, 0
2, 168240, Note_on_c, 2, 59, 95, 0
2, 168360, Note_off_c, 2, 59, 95, 0
2, 168360, Note_on_c, 2, 57, 95, 0
2, 168840, Note_off_c, 2, 57, 95, 0
2, 168840, Note_on_c, 2, 50, 95, 0
2, 169080, Note_off_c, 2, 50, 95, 0
2, 169080, Note_on_c, 2, 62, 95, 0
2, 169320, Note_off_c, 2, 62, 95, 0
2, 169320, Note_on_c, 2, 50, 95, 0
2, 169560, Note_off_c, 2, 50, 95, 0
2, 169560, Note_on_c, 2, 48, 95, 0
2, 170040, Note_off_c, 2, 48, 95, 0
2, 170520, Note_on_c, 2, 59, 95, 0
2, 170520, Note_on_c, 2, 61, 95, 0
2, 170760, Note_off_c, 2, 59, 95, 0
2, 170760, Note_off_c, 2, 61, 95, 0
2, 170760, Note_on_c, 2, 50, 95, 0
2, 170760, Note_on_c, 2, 57, 95, 0
2, 170880, Note_off_c, 2, 50, 95, 0
2, 170880, Note_off_c, 2, 57, 95, 0
2, 170880, Note_on_c, 2, 69, 95, 0
2, 171120, Note_off_c, 2, 69, 95, 0
2, 171120, Note_on_c, 2, 61, 95, 0
2, 171120, Note_on_c, 2, 62, 95, 0
2, 171240, Note_off_c, 2, 61, 95, 0
2, 171240, Note_off_c, 2, 62, 95, 0
2, 171240, Note_on_c, 2, 50, 95, 0
2, 171360, Note_off_c, 2, 50, 95, 0
2, 171360, Note_on_c, 2, 64, 95, 0
2, 171360, Note_on_c, 2, 69, 95, 0
2, 171840, Note_off_c, 2, 64, 95, 0
2, 171840, Note_off_c, 2, 69, 95, 0
2, 171840, Note_on_c, 2, 52, 95, 0
2, 171960, Note_off_c, 2, 52, 95, 0
2, 171960, Note_on_c, 2, 47, 95, 0
2, 171960, Note_on_c, 2, 57, 95, 0
2, 172440, Note_off_c, 2, 47, 95, 0
2, 172440, Note_off_c, 2, 57, 95, 0
2, 172440, Note_on_c, 2, 60, 95, 0
2, 172920, Note_off_c, 2, 60, 95, 0
2, 172920, Note_on_c, 2, 59, 95, 0
2, 172920, Note_on_c, 2, 62, 95, 0
2, 173400, Note_off_c, 2, 59, 95, 0
2, 173400, Note_off_c, 2, 62, 95, 0
2, 173400, Note_on_c, 2, 50, 95, 0
2, 173520, Note_off_c, 2, 50, 95, 0
2, 174000, Note_on_c, 2, 55, 95, 0
2, 174240, Note_off_c, 2, 55, 95, 0
2, 174480, Note_on_c, 2, 57, 95, 0
2, 174480, Note_on_c, 2, 62, 95, 0
2, 174600, Note_off_c, 2, 57, 95, 0
2, 174600, Note_off_c, 2, 62, 95, 0
2, 174600, Note_on_c, 2, 50, 95, 0
2, 174840, Note_off_c, 2, 50, 95, 0
2, 174840, Note_on_c, 2, 48, 95, 0
2, 175080, Note_off_c, 2, 48, 95, 0
2, 175320, Note_on_c, 2, 59, 95, 0
2, 175560, Note_off_c, 2, 59, 95, 0
2, 175560, Note_on_c, 2, 62, 95, 0
2, 175680, Note_off_c, 2, 62, 95, 0
2, 175680, Note_on_c, 2, 50, 95, 0
2, 175800, Note_off_c, 2, 50, 95, 0
2, 175800, Note_on_c, 2, 62, 95, 0
2, 176040, Note_off_c, 2, 62, 95, 0
2, 176040, Note_on_c, 2, 61, 95, 0
2, 176520, Note_off_c, 2, 61, 95, 0
2, 176520, Note_on_c, 2, 57, 95, 0
2, 176520, Note_on_c, 2, 59, 95, 0
2, 177000, Note_off_c, 2, 57, 95, 0
2, 177000, Note_off_c, 2, 59, 95, 0
2, 177000, Note_on_c, 2, 50, 95, 0
2, 177240, Note_off_c, 2, 50, 95, 0
2, 177240, Note_on_c, 2, 62, 95, 0
2, 177720, Note_off_c, 2, 62, 95, 0
2, 177720, Note_on_c, 2, 55, 95, 0
2, 177720, Note_on_c, 2, 64, 95, 0
2, 177960, Note_off_c, 2, 55, 95, 0
2, 177960, Note_off_c, 2, 64, 95, 0
2, 177960, Note_on_c, 2, 57, 95, 0
2, 178440, Note_off_c, 2, 57, 95, 0
2, 178440, Note_on_c, 2, 60, 95, 0
2, 178440, Note_on_c, 2, 69, 95, 0
2, 178920, Note_off_c, 2, 60, 95, 0
2, 178920, Note_off_c, 2, 69, 95, 0
2, 178920, Note_on_c, 2, 62, 95, 0
2, 179400, Note_off_c, 2, 62, 95, 0
2, 179400, Note_on_c, 2, 47, 95, 0
2, 179400, Note_on_c, 2, 50, 95, 0
2, 179520, Note_off_c, 2, 47, 95, 0
2, 179520, Note_off_c, 2, 50, 95, 0
2, 179520, Note_on_c, 2, 64, 95, 0
2, 180000, Note_off_c, 2, 64, 95, 0
2, 180000, Note_on_c, 2, 48, 95, 0
2, 180120, Note_off_c, 2, 48, 95, 0
2, 180120, Note_on_c, 2, 57, 95, 0
2, 180240, Note_off_c, 2, 57, 95, 0
2, 180240, Note_on_c, 2, 60, 95, 0
2, 180720, Note_off_c, 2, 60, 95, 0
2, 180720, Note_on_c, 2, 50, 95, 0
2, 180720, Note_on_c, 2, 59, 95, 0
2, 180960, Note_off_c, 2, 50, 95, 0
2, 180960, Note_off_c, 2, 59, 95, 0
2, 180960, Note_on_c, 2, 50, 95, 0
2, 181080, Note_off_c, 2, 50, 95, 0
2, 181080, Note_on_c, 2, 55, 95, 0
2, 181080, Note_on_c, 2, 62, 95, 0
2, 181200, Note_off_c, 2, 55, 95, 0
2, 181200, Note_off_c, 2, 62, 95, 0
2, 181200, Note_on_c, 2, 62, 95, 0
2, 181320, Note_off_c, 2, 62, 95, 0
2, 181320, Note_on_c, 2, 62, 95, 0
2, 181320, Note_on_c, 2, 64, 95, 0
2, 181800, Note_off_c, 2, 62, 95, 0
2, 181800, Note_off_c, 2, 64, 95, 0
2, 181800, Note_on_c, 2, 50, 95, 0
2, 181920, Note_off_c, 2, 50, 95, 0
2, 181920, Note_on_c, 2, 62, 95, 0
2, 182160, Note_off_c, 2, 62, 95, 0
2, 182160, Note_on_c, 2, 55, 95, 0
2, 182400, Note_off_c, 2, 55, 95, 0
2, 182400, Note_on_c, 2, 57, 95, 0
2, 182880, Note_off_c, 2, 57, 95, 0
2, 182880, Note_on_c, 2, 50, 95, 0
2, 183360, Note_off_c, 2, 50, 95, 0
2, 183360, Note_on_c, 2, 59, 95, 0
2, 183360, Note_on_c, 2, 62, 95, 0
2, 183600, Note_off_c, 2, 59, 95, 0
2, 183600, Note_off_c, 2, 62, 95, 0
2, 183600, Note_on_c, 2, 55, 95, 0
2, 183720, Note_off_c, 2, 55, 95, 0
2, 183720, Note_on_c, 2, 47, 95, 0
2, 183720, Note_on_c, 2, 52, 95, 0
2, 183960, Note_off_c, 2, 47, 95, 0
2, 183960, Note_off_c, 2, 52, 95, 0
2, 183960, Note_on_c, 2, 45, 95, 0
2, 184200, Note_off_c, 2, 45, 95, 0
2, 184200, Note_on_c, 2, 62, 95, 0
2, 184680, Note_off_c, 2, 62, 95, 0
2, 184680, Note_on_c, 2, 50, 95, 0
2, 184680, Note_on_c, 2, 59, 95, 0
2, 184920, Note_off_c, 2, 50, 95, 0
2, 184920, Note_off_c, 2, 59, 95, 0
2, 184920, Note_on_c, 2, 48, 95, 0
2, 185160, Note_off_c, 2, 48, 95, 0
2, 185160, Note_on_c, 2, 67, 95, 0
2, 185280, Note_off_c, 2, 67, 95, 0
2, 185280, Note_on_c, 2, 59, 95, 0
2, 185280, Note_on_c, 2, 61, 95, 0
2, 185400, Note_off_c, 2, 59, 95, 0
2, 185400, Note_off_c, 2, 61, 95, 0
2, 185400, Note_on_c, 2, 50, 95, 0
2, 185400, Note_on_c, 2, 57, 95, 0
2, 185880, Note_off_c, 2, 50, 95, 0
2, 185880, Note_off_c, 2, 57, 95, 0
2, 185880, Note_on_c, 2, 45, 95, 0
2, 185880, Note_on_c, 2, 65, 95, 0
2, 186120, Note_off_c, 2, 45, 95, 0
2, 186120, Note_off_c, 2, 65, 95, 0
2, 186120, Note_on_c, 2, 62, 95, 0
2, 186600, Note_off_c, 2, 62, 95, 0
2, 186600, Note_on_c, 2, 62, 95, 0
2, 186600, Note_on_c, 2, 64, 95, 0
2, 186720, Note_off_c, 2, 62, 95, 0
2, 186720, Note_off_c, 2, 64, 95, 0
2, 186720, Note_on_c, 2, 62, 95, 0
2, 186720, Note_on_c, 2, 64, 95, 0
2, 187200, Note_off_c, 2, 62, 95, 0
2, 187200, Note_off_c, 2, 64, 95, 0
2, 187200, Note_on_c, 2, 45, 95, 0
2, 187200, Note_on_c, 2, 60, 95, 0
2, 187440, Note_off_c, 2, 45, 95, 0
2, 187440, Note_off_c, 2, 60, 95, 0
2, 187440, Note_on_c, 2, 62, 95, 0
2, 187680, Note_off_c, 2, 62, 95, 0
2, 187680, Note_on_c, 2, 55, 95, 0
2, 187920, Note_off_c, 2, 55, 95, 0
2, 187920, Note_on_c, 2, 57, 95, 0
2, 188160, Note_off_c, 2, 57, 95, 0
2, 188160, Note_on_c, 2, 45, 95, 0
2, 188160, Note_on_c, 2, 50, 95, 0
2, 188280, Note_off_c, 2, 45, 95, 0
2, 188280, Note_off_c, 2, 50, 95, 0
2, 188280, Note_on_c, 2, 59, 95, 0
2, 188520, Note_off_c, 2, 59, 95, 0
2, 188520, Note_on_c, 2, 55, 95, 0
2, 189000, Note_off_c, 2, 55, 95, 0
2, 189000, Note_on_c, 2, 47, 95, 0
2, 189240, Note_off_c, 2, 47, 95, 0
2, 189240, Note_on_c, 2, 57, 95, 0
2, 189240, Note_on_c, 2, 62, 95, 0
2, 189480, Note_off_c, 2, 57, 95, 0
2, 189480, Note_off_c, 2, 62, 95, 0
2, 189480, Note_on_c, 2, 59, 95, 0
2, 189720, Note_off_c, 2, 59, 95, 0
2, 189840, Note_on_c, 2, 57, 95, 0
2, 189840, Note_on_c, 2, 62, 95, 0
2, 189960, Note_off_c, 2, 57, 95, 0
2, 189960, Note_off_c, 2, 62, 95, 0
2, 189960, Note_on_c, 2, 59, 95, 0
2, 190440, Note_off_c, 2, 59, 95, 0
2, 190440, Note_on_c, 2, 52, 95, 0
2, 190560, Note_off_c, 2, 52, 95, 0
2, 190560, Note_on_c, 2, 57, 95, 0
2, 190560, Note_on_c, 2, 62, 95, 0
2, 190800, Note_off_c, 2, 57, 95, 0
2, 190800, Note_off_c, 2, 62, 95, 0
2, 190800, Note_on_c, 2, 59, 95, 0
2, 190800, Note_on_c, 2, 64, 95, 0
2, 190920, Note_off_c, 2, 59, 95, 0
2, 190920, Note_off_c, 2, 64, 95, 0
2, 190920, Note_on_c, 2, 64, 95, 0
2, 191160, Note_off_c, 2, 64, 95, 0
2, 191160, Note_on_c, 2, 47, 95, 0
2, 191400, Note_off_c, 2, 47, 95, 0
2, 191400, Note_on_c, 2, 59, 95, 0
2, 191880, Note_off_c, 2, 59, 95, 0
2, 191880, Note_on_c, 2, 55, 95, 0
2, 192360, Note_off_c, 2, 55, 95, 0
2, 192360, Note_on_c, 2, 47, 95, 0
2, 192360, Note_on_c, 2, 57, 95, 0
2, 192600, Note_off_c, 2, 47, 95, 0
2, 192600, Note_off_c, 2, 57, 95, 0
2, 192600, Note_on_c, 2, 48, 95, 0
2, 192840, Note_off_c, 2, 48, 95, 0
2, 192840, Note_on_c, 2, 55, 95, 0
2, 193080, Note_off_c, 2, 55, 95, 0
2, 193080, Note_on_c, 2, 50, 95, 0
2, 193320, Note_off_c, 2, 50, 95, 0
2, 193320, Note_on_c, 2, 48, 95, 0
2, 193560, Note_off_c, 2, 48, 95, 0
2, 193560, Note_on_c, 2, 43, 95, 0
2, 193560, Note_on_c, 2, 55, 95, 0
2, 194040, Note_off_c, 2, 43, 95, 0
2, 194040, Note_off_c, 2, 55, 95, 0
2, 194040, Note_on_c, 2, 47, 95, 0
2, 194040, Note_on_c, 2, 50, 95, 0
2, 194520, Note_off_c, 2, 47, 95, 0
2, 194520, Note_off_c, 2, 50, 95, 0
2, 194520, Note_on_c, 2, 57, 95, 0
2, 194520, Note_on_c, 2, 62, 95, 0
2, 194640, Note_off_c, 2, 57, 95, 0
2, 194640, Note_off_c, 2, 62, 95, 0
2, 194640, Note_on_c, 2, 50, 95, 0
2, 194640, Note_on_c, 2, 55, 95, 0
2, 194880, Note_off_c, 2, 50, 95, 0
2, 194880, Note_off_c, 2, 55, 95, 0
2, 194880, Note_on_c, 2, 48, 95, 0
2, 195120, Note_off_c, 2, 48, 95, 0
2, 195120, Note_on_c, 2, 43, 95, 0
2, 195120, Note_on_c, 2, 55, 95, 0
2, 195600, Note_off_c, 2, 43, 95, 0
2, 195600, Note_off_c, 2, 55, 95, 0
2, 195600, Note_on_c, 2, 62, 95, 0
2, 195840, Note_off_c, 2, 62, 95, 0
2, 195840, Note_on_c, 2, 59, 95, 0
2, 195840, Note_on_c, 2, 62, 95, 0
2, 196080, Note_off_c, 2, 59, 95, 0
2, 196080, Note_off_c, 2, 62, 95, 0
2, 196080, Note_on_c, 2, 64, 95, 0
2, 196560, Note_off_c, 2, 64, 95, 0
2, 196560, Note_on_c, 2, 60, 95, 0
2, 197040, Note_off_c, 2, 60, 95, 0
2, 197040, Note_on_c, 2, 59, 95, 0
2, 197280, Note_off_c, 2, 59, 95, 0
2, 197280, Note_on_c, 2, 60, 95, 0
2, 197400, Note_off_c, 2, 60, 95, 0
2, 197400, Note_on_c, 2, 50, 95, 0
2, 197640, Note_off_c, 2, 50, 95, 0
2, 197640, Note_on_c, 2, 48, 95, 0
2, 197760, Note_off_c, 2, 48, 95, 0
2, 197760, Note_on_c, 2, 55, 95, 0
2, 198000, Note_off_c, 2, 55, 95, 0
2, 198000, Note_on_c, 2, 59, 95, 0
2, 198480, Note_off_c, 2, 59, 95, 0
2, 198480, Note_on_c, 2, 61, 95, 0
2, 198720, Note_off_c, 2, 61, 95, 0
2, 198720, Note_on_c, 2, 57, 95, 0
2, 199200, Note_off_c, 2, 57, 95, 0
2, 199200, Note_on_c, 2, 50, 95, 0
2, 199200, Note_on_c, 2, 59, 95, 0
2, 199680, Note_off_c, 2, 50, 95, 0
2, 199680, Note_off_c, 2, 59, 95, 0
2, 199680, Note_on_c, 2, 59, 95, 0
2, 199800, Note_off_c, 2, 59, 95, 0
2, 200280, Note_on_c, 2, 57, 95, 0
2, 200280, Note_on_c, 2, 62, 95, 0
2, 200400, Note_off_c, 2, 57, 95, 0
2, 200400, Note_off_c, 2, 62, 95, 0
2, 200400, Note_on_c, 2, 50, 95, 0
2, 200640, Note_off_c, 2, 50, 95, 0
2, 200640, Note_on_c, 2, 48, 95, 0
2, 201120, Note_off_c, 2, 48, 95, 0
2, 201120, Note_on_c, 2, 55, 95, 0
2, 201360, Note_off_c, 2, 55, 95, 0
2, 201360, Note_on_c, 2, 59, 95, 0
2, 201840, Note_off_c, 2, 59, 95, 0
2, 201840, Note_on_c, 2, 52, 95, 0
2, 202320, Note_off_c, 2, 52, 95, 0
2, 202320, Note_on_c, 2, 48, 95, 0
2, 202440, Note_off_c, 2, 48, 95, 0
2, 202560, Note_on_c, 2, 50, 95, 0
2, 202680, Note_off_c, 2, 50, 95, 0
2, 202680, Note_on_c, 2, 48, 95, 0
2, 202800, Note_off_c, 2, 48, 95, 0
2, 202800, Note_on_c, 2, 48, 95, 0
2, 203280, Note_off_c, 2, 48, 95, 0
2, 203280, Note_on_c, 2, 47, 95, 0
2, 203760, Note_off_c, 2, 47, 95, 0
2, 203760, Note_on_c, 2, 55, 95, 0
2, 203880, Note_off_c, 2, 55, 95, 0
2, 204360, Note_on_c, 2, 57, 95, 0
2, 204360, Note_on_c, 2, 62, 95, 0
2, 204840, Note_off_c, 2, 57, 95, 0
2, 204840, Note_off_c, 2, 62, 95, 0
2, 204840, Note_on_c, 2, 50, 95, 0
2, 204840, Note_on_c, 2, 55, 95, 0
2, 205320, Note_off_c, 2, 50, 95, 0
2, 205320, Note_off_c, 2, 55, 95, 0
2, 205320, Note_on_c, 2, 48, 95, 0
2, 205320, Note_on_c, 2, 60, 95, 0
2, 205800, Note_off_c, 2, 48, 95, 0
2, 205800, Note_off_c, 2, 60, 95, 0
2, 205920, Note_on_c, 2, 59, 95, 0
2, 206400, Note_off_c, 2, 59, 95, 0
2, 206400, Note_on_c, 2, 59, 95, 0
2, 206880, Note_off_c, 2, 59, 95, 0
2, 206880, Note_on_c, 2, 52, 95, 0
2, 207120, Note_off_c, 2, 52, 95, 0
2, 207120, Note_on_c, 2, 57, 95, 0
2, 207120, Note_on_c, 2, 62, 95, 0
2, 207360, Note_off_c, 2, 57, 95, 0
2, 207360, Note_off_c, 2, 62, 95, 0
2, 207360, Note_on_c, 2, 59, 95, 0
2, 207840, Note_off_c, 2, 59, 95, 0
2, 207840, Note_on_c, 2, 59, 95, 0
2, 208080, Note_off_c, 2, 59, 95, 0
2, 208080, Note_on_c, 2, 50, 95, 0
2, 208080, Note_on_c, 2, 52, 95, 0
2, 208560, Note_off_c, 2, 50, 95, 0
2, 208560, Note_off_c, 2, 52, 95, 0
2, 208560, Note_on_c, 2, 57, 95, 0
2, 208560, Note_on_c, 2, 62, 95, 0
2, 208680, Note_off_c, 2, 57, 95, 0
2, 208680, Note_off_c, 2, 62, 95, 0
2, 208680, Note_on_c, 2, 50, 95, 0
2, 208800, Note_off_c, 2, 50, 95, 0
2, 208800, Note_on_c, 2, 57, 95, 0
2, 208800, Note_on_c, 2, 60, 95, 0
2, 208920, Note_off_c, 2, 57, 95, 0
2, 208920, Note_off_c, 2, 60, 95, 0
2, 208920, Note_on_c, 2, 50, 95, 0
2, 209160, Note_off_c, 2, 50, 95, 0
2, 209160, Note_on_c, 2, 59, 95, 0
2, 209640, Note_off_c, 2, 59, 95, 0
2, 209640, Note_on_c, 2, 55, 95, 0
2, 209880, Note_off_c, 2, 55, 95, 0
2, 209880, Note_on_c, 2, 48, 95, 0
2, 209880, Note_on_c, 2, 59, 95, 0
2, 210000, Note_off_c, 2, 48, 95, 0
2, 210000, Note_off_c, 2, 59, 95, 0
2, 210000, Note_on_c, 2, 50, 95, 0
2, 210240, Note_off_c, 2, 50, 95, 0
2, 210240, Note_on_c, 2, 57, 95, 0
2, 210360, Note_off_c, 2, 57, 95, 0
2, 210360, Note_on_c, 2, 50, 95, 0
2, 210360, Note_on_c, 2, 55, 95, 0
2, 210480, Note_off_c, 2, 50, 95, 0
2, 210480, Note_off_c, 2, 55, 95, 0
2, 210480, Note_on_c, 2, 48, 95, 0
2, 210960, Note_off_c, 2, 48, 95, 0
2, 210960, Note_on_c, 2, 57, 95, 0
2, 210960, Note_on_c, 2, 62, 95, 0
2, 211080, Note_off_c, 2, 57, 95, 0
2, 211080, Note_off_c, 2, 62, 95, 0
2, 211080, Note_on_c, 2, 47, 95, 0
2, 211080, Note_on_c, 2, 50, 95, 0
2, 211080, Note_on_c, 2, 64, 95, 0
2, 211560, Note_off_c, 2, 47, 95, 0
2, 211560, Note_off_c, 2, 50, 95, 0
2, 211560, Note_off_c, 2, 64, 95, 0
2, 211560, Note_on_c, 2, 61, 95, 0
2, 211560, Note_on_c, 2, 62, 95, 0
2, 211800, Note_off_c, 2, 61, 95, 0
2, 211800, Note_off_c, 2, 62, 95, 0
2, 211800, Note_on_c, 2, 47, 95, 0
2, 212040, Note_off_c, 2, 47, 95, 0
2, 212040, Note_on_c, 2, 57, 95, 0
2, 212040, Note_on_c, 2, 62, 95, 0
2, 212520, Note_off_c, 2, 57, 95, 0
2, 212520, Note_off_c, 2, 62, 95, 0
2, 212520, Note_on_c, 2, 48, 95, 0
2, 212520, Note_on_c, 2, 55, 95, 0
2, 213000, Note_off_c, 2, 48, 95, 0
2, 213000, Note_off_c, 2, 55, 95, 0
2, 213000, Note_on_c, 2, 60, 95, 0
2, 213480, Note_off_c, 2, 60, 95, 0
2, 213480, Note_on_c, 2, 62, 95, 0
2, 213480, Note_on_c, 2, 67, 95, 0
2, 213600, Note_off_c, 2, 62, 95, 0
2, 213600, Note_off_c, 2, 67, 95, 0
2, 213600, Note_on_c, 2, 62, 95, 0
2, 213600, Note_on_c, 2, 64, 95, 0
2, 213720, Note_off_c, 2, 62, 95, 0
2, 213720, Note_off_c, 2, 64, 95, 0
2, 213720, Note_on_c, 2, 47, 95, 0
2, 214200, Note_off_c, 2, 47, 95, 0
2, 214200, Note_on_c, 2, 57, 95, 0
2, 214200, Note_on_c, 2, 62, 95, 0
2, 214320, Note_off_c, 2, 57, 95, 0
2, 214320, Note_off_c, 2, 62, 95, 0
2, 214320, Note_on_c, 2, 48, 95, 0
2, 214320, Note_on_c, 2, 55, 95, 0
2, 214800, Note_off_c, 2, 48, 95, 0
2, 214800, Note_off_c, 2, 55, 95, 0
2, 214800, Note_on_c, 2, 57, 95, 0
2, 214920, Note_off_c, 2, 57, 95, 0
2, 214920, Note_on_c, 2, 60, 95, 0
2, 215160, Note_off_c, 2, 60, 95, 0
2, 215160, Note_on_c, 2, 50, 95, 0
2, 215280, Note_off_c, 2, 50, 95, 0
2, 215280, Note_on_c, 2, 57, 95, 0
2, 215280, Note_on_c, 2, 62, 95, 0
2, 215400, Note_off_c, 2, 57, 95, 0
2, 215400, Note_off_c, 2, 62, 95, 0
2, 215400, Note_on_c, 2, 64, 95, 0
2, 215640, Note_off_c, 2, 64, 95, 0
2, 215640, Note_on_c, 2, 62, 95, 0
2, 216120, Note_off_c, 2, 62, 95, 0
2, 216120, Note_on_c, 2, 45, 95, 0
2, 216120, Note_on_c, 2, 60, 95, 0
2, 216600, Note_off_c, 2, 45, 95, 0
2, 216600, Note_off_c, 2, 60, 95, 0
2, 216600, Note_on_c, 2, 62, 95, 0
2, 216720, Note_off_c, 2, 62, 95, 0
2, 216720, Note_on_c, 2, 55, 95, 0
2, 216960, Note_off_c, 2, 55, 95, 0
2, 216960, Note_on_c, 2, 60, 95, 0
2, 217080, Note_off_c, 2, 60, 95, 0
2, 217080, Note_on_c, 2, 60, 95, 0
2, 217080, Note_on_c, 2, 62, 95, 0
2, 217560, Note_off_c, 2, 60, 95, 0
2, 217560, Note_off_c, 2, 62, 95, 0
2, 217560, Note_on_c, 2, 64, 95, 0
2, 217680, Note_off_c, 2, 64, 95, 0
2, 217680, Note_on_c, 2, 50, 95, 0
2, 217920, Note_off_c, 2, 50, 95, 0
2, 217920, Note_on_c, 2, 59, 95, 0
2, 217920, Note_on_c, 2, 62, 95, 0
2, 218160, Note_off_c, 2, 59, 95, 0
2, 218160, Note_off_c, 2, 62, 95, 0
2, 218160, Note_on_c, 2, 55, 95, 0
2, 218280, Note_off_c, 2, 55, 95, 0
2, 218280, Note_on_c, 2, 62, 95, 0
2, 218400, Note_off_c, 2, 62, 95, 0
2, 218400, Note_on_c, 2, 60, 95, 0
2, 218520, Note_off_c, 2, 60, 95, 0
2, 218520, Note_on_c, 2, 50, 95, 0
2, 218640, Note_off_c, 2, 50, 95, 0
2, 218640, Note_on_c, 2, 60, 95, 0
2, 218640, Note_on_c, 2, 65, 95, 0
2, 218880, Note_off_c, 2, 60, 95, 0
2, 218880, Note_off_c, 2, 65, 95, 0
2, 218880, Note_on_c, 2, 64, 95, 0
2, 219000, Note_off_c, 2, 64, 95, 0
2, 219000, Note_on_c, 2, 62, 95, 0
2, 219480, Note_off_c, 2, 62, 95, 0
2, 219480, Note_on_c, 2, 47, 95, 0
2, 219600, Note_off_c, 2, 47, 95, 0
2, 219600, Note_on_c, 2, 62, 95, 0
2, 220080, Note_off_c, 2, 62, 95, 0
2, 220080, Note_on_c, 2, 55, 95, 0
2, 220560, Note_off_c, 2, 55, 95, 0
2, 220560, Note_on_c, 2, 62, 95, 0
2, 220680, Note_off_c, 2, 62, 95, 0
2, 220680, Note_on_c, 2, 60, 95, 0
2, 220800, Note_off_c, 2, 60, 95, 0
2, 220800, Note_on_c, 2, 59, 95, 0
2, 221040, Note_off_c, 2, 59, 95, 0
2, 221040, Note_on_c, 2, 69, 95, 0
2, 221280, Note_off_c, 2, 69, 95, 0
2, 221280, Note_on_c, 2, 62, 95, 0
2, 221400, Note_off_c, 2, 62, 95, 0
2, 221400, Note_on_c, 2, 50, 95, 0
2, 221400, Note_on_c, 2, 62, 95, 0
2, 221400, Note_on_c, 2, 64, 95, 0
2, 221880, Note_off_c, 2, 50, 95, 0
2, 221880, Note_off_c, 2, 62, 95, 0
2, 221880, Note_off_c, 2, 64, 95, 0
2, 221880, Note_on_c, 2, 60, 95, 0
2, 221880, Note_on_c, 2, 69, 95, 0
2, 222360, Note_off_c, 2, 60, 95, 0
2, 222360, Note_off_c, 2, 69, 95, 0
2, 222360, Note_on_c, 2, 62, 95, 0
2, 222600, Note_off_c, 2, 62, 95, 0
2, 222600, Note_on_c, 2, 50, 95, 0
2, 222840, Note_off_c, 2, 50, 95, 0
2, 222840, Note_on_c, 2, 64, 95, 0
2, 222960, Note_off_c, 2, 64, 95, 0
2, 222960, Note_on_c, 2, 52, 95, 0
2, 223440, Note_off_c, 2, 52, 95, 0
2, 223440, Note_on_c, 2, 62, 95, 0
2, 223560, Note_off_c, 2, 62, 95, 0
2, 223560, Note_on_c, 2, 60, 95, 0
2, 223800, Note_off_c, 2, 60, 95, 0
2, 223800, Note_on_c, 2, 50, 95, 0
2, 223800, Note_on_c, 2, 59, 95, 0
2, 224040, Note_off_c, 2, 50, 95, 0
2, 224040, Note_off_c, 2, 59, 95, 0
2, 224040, Note_on_c, 2, 60, 95, 0
2, 224280, Note_off_c, 2, 60, 95, 0
2, 224280, Note_on_c, 2, 48, 95, 0
2, 224280, Note_on_c, 2, 55, 95, 0
2, 224760, Note_off_c, 2, 48, 95, 0
2, 224760, Note_off_c, 2, 55, 95, 0
2, 224760, Note_on_c, 2, 43, 95, 0
2, 225000, Note_off_c, 2, 43, 95, 0
2, 225000, Note_on_c, 2, 55, 95, 0
2, 225480, Note_off_c, 2, 55, 95, 0
2, 225480, Note_on_c, 2, 50, 95, 0
2, 225960, Note_off_c, 2, 50, 95, 0
2, 225960, Note_on_c, 2, 48, 95, 0
2, 225960, Note_on_c, 2, 57, 95, 0
2, 226440, Note_off_c, 2, 48, 95, 0
2, 226440, Note_off_c, 2, 57, 95, 0
2, 226440, Note_on_c, 2, 43, 95, 0
2, 226440, Note_on_c, 2, 55, 95, 0
2, 226680, Note_off_c, 2, 43, 95, 0
2, 226680, Note_off_c, 2, 55, 95, 0
2, 226680, Note_on_c, 2, 47, 95, 0
2, 226680, Note_on_c, 2, 50, 95, 0
2, 227160, Note_off_c, 2, 47, 95, 0
2, 227160, Note_off_c, 2, 50, 95, 0
2, 227160, Note_on_c, 2, 48, 95, 0
2, 227160, Note_on_c, 2, 57, 95, 0
2, 227160, Note_on_c, 2, 62, 95, 0
2, 227400, Note_off_c, 2, 48, 95, 0
2, 227400, Note_off_c, 2, 57, 95, 0
2, 227400, Note_off_c, 2, 62, 95, 0
2, 227880, Note_on_c, 2, 48, 95, 0
2, 228360, Note_off_c, 2, 48, 95, 0
2, 228360, Note_on_c, 2, 60, 95, 0
2, 228360, Note_on_c, 2, 67, 95, 0
2, 228840, Note_off_c, 2, 60, 95, 0
2, 228840, Note_off_c, 2, 67, 95, 0
2, 228840, Note_on_c, 2, 59, 95, 0
2, 228960, Note_off_c, 2, 59, 95, 0
2, 228960, Note_on_c, 2, 50, 95, 0
2, 229080, Note_off_c, 2, 50, 95, 0
2, 229080, Note_on_c, 2, 64, 95, 0
2, 229200, Note_off_c, 2, 64, 95, 0
2, 229200, Note_on_c, 2, 61, 95, 0
2, 229200, Note_on_c, 2, 64, 95, 0
2, 229320, Note_off_c, 2, 61, 95, 0
2, 229320, Note_off_c, 2, 64, 95, 0
2, 229320, Note_on_c, 2, 62, 95, 0
2, 229440, Note_off_c, 2, 62, 95, 0
2, 229440, Note_on_c, 2, 45, 95, 0
2, 229440, Note_on_c, 2, 60, 95, 0
2, 229560, Note_off_c, 2, 45, 95, 0
2, 229560, Note_off_c, 2, 60, 95, 0
2, 229560, Note_on_c, 2, 62, 95, 0
2, 229680, Note_off_c, 2, 62, 95, 0
2, 229680, Note_on_c, 2, 55, 95, 0
2, 229800, Note_off_c, 2, 55, 95, 0
2, 229800, Note_on_c, 2, 57, 95, 0
2, 229800, Note_on_c, 2, 62, 95, 0
2, 229920, Note_off_c, 2, 57, 95, 0
2, 229920, Note_off_c, 2, 62, 95, 0
2, 229920, Note_on_c, 2, 50, 95, 0
2, 230160, Note_off_c, 2, 50, 95, 0
2, 230160, Note_on_c, 2, 59, 95, 0
2, 230280, Note_off_c, 2, 59, 95, 0
2, 230280, Note_on_c, 2, 50, 95, 0
2, 230280, Note_on_c, 2, 64, 95, 0
2, 230400, Note_off_c, 2, 50, 95, 0
2, 230400, Note_off_c, 2, 64, 95, 0
2, 230400, Note_on_c, 2, 57, 95, 0
2, 230880, Note_off_c, 2, 57, 95, 0
2, 230880, Note_on_c, 2, 50, 95, 0
2, 231360, Note_off_c, 2, 50, 95, 0
2, 231360, Note_on_c, 2, 48, 95, 0
2, 231360, Note_on_c, 2, 57, 95, 0
2, 231480, Note_off_c, 2, 48, 95, 0
2, 231480, Note_off_c, 2, 57, 95, 0
2, 231480, Note_on_c, 2, 43, 95, 0
2, 231480, Note_on_c, 2, 55, 95, 0
2, 231720, Note_off_c, 2, 43, 95, 0
2, 231720, Note_off_c, 2, 55, 95, 0
2, 231720, Note_on_c, 2, 47, 95, 0
2, 232200, Note_off_c, 2, 47, 95, 0
2, 232200, Note_on_c, 2, 55, 95, 0
2, 232440, Note_off_c, 2, 55, 95, 0
2, 232440, Note_on_c, 2, 50, 95, 0
2, 232440, Note_on_c, 2, 59, 95, 0
2, 232680, Note_off_c, 2, 50, 95, 0
2, 232680, Note_off_c, 2, 59, 95, 0
2, 232800, Note_on_c, 2, 45, 95, 0
2, 232800, Note_on_c, 2, 50, 95, 0
2, 233040, Note_off_c, 2, 45, 95, 0
2, 233040, Note_off_c, 2, 50, 95, 0
2, 233040, Note_on_c, 2, 59, 95, 0
2, 233040, Note_on_c, 2, 62, 95, 0
2, 233280, Note_off_c, 2, 59, 95, 0
2, 233280, Note_off_c, 2, 62, 95, 0
2, 233280, Note_on_c, 2, 67, 95, 0
2, 233520, Note_off_c, 2, 67, 95, 0
2, 233520, Note_on_c, 2, 62, 95, 0
2, 234000, Note_off_c, 2, 62, 95, 0
2, 234000, Note_on_c, 2, 47, 95, 0
2, 234480, Note_off_c, 2, 47, 95, 0
2, 234480, Note_on_c, 2, 57, 95, 0
2, 234480, Note_on_c, 2, 62, 95, 0
2, 234720, Note_off_c, 2, 57, 95, 0
2, 234720, Note_off_c, 2, 62, 95, 0
2, 234720, Note_on_c, 2, 48, 95, 0
2, 234720, Note_on_c, 2, 55, 95, 0
2, 234960, Note_off_c, 2, 48, 95, 0
2, 234960, Note_off_c, 2, 55, 95, 0
2, 234960, Note_on_c, 2, 57, 95, 0
2, 234960, Note_on_c, 2, 62, 95, 0
2, 235200, Note_off_c, 2, 57, 95, 0
2, 235200, Note_off_c, 2, 62, 95, 0
2, 235200, Note_on_c, 2, 60, 95, 0
2, 235680, Note_off_c, 2, 60, 95, 0
2, 235680, Note_on_c, 2, 50, 95, 0
2, 235680, Note_on_c, 2, 59, 95, 0
2, 236160, Note_off_c, 2, 50, 95, 0
2, 236160, Note_off_c, 2, 59, 95, 0
2, 236160, Note_on_c, 2, 50, 95, 0
2, 236640, Note_off_c, 2, 50, 95, 0
2, 236640, Note_on_c, 2, 57, 95, 0
2, 236640, Note_on_c, 2, 62, 95, 0
2, 236880, Note_off_c, 2, 57, 95, 0
2, 236880, Note_off_c, 2, 62, 95, 0
2, 236880, Note_on_c, 2, 50, 95, 0
2, 236880, Note_on_c, 2, 55, 95, 0
2, 237360, Note_off_c, 2, 50, 95, 0
2, 237360, Note_off_c, 2, 55, 95, 0
2, 237360, Note_on_c, 2, 57, 95, 0
2, 237480, Note_off_c, 2, 57, 95, 0
2, 237480, Note_on_c, 2, 50, 95, 0
2, 237600, Note_off_c, 2, 50, 95, 0
2, 237600, Note_on_c, 2, 59, 95, 0
2, 237720, Note_off_c, 2, 59, 95, 0
2, 237720, Note_on_c, 2, 55, 95, 0
2, 237960, Note_off_c, 2, 55, 95, 0
2, 237960, Note_on_c, 2, 48, 95, 0
2, 238440, Note_off_c, 2, 48, 95, 0
2, 238680, Note_on_c, 2, 62, 95, 0
2, 238920, Note_off_c, 2, 62, 95, 0
2, 238920, Note_on_c, 2, 59, 95, 0
2, 239160, Note_off_c, 2, 59, 95, 0
2, 239160, Note_on_c, 2, 55, 95, 0
2, 239400, Note_off_c, 2, 55, 95, 0
2, 239400, Note_on_c, 2, 60, 95, 0
2, 239400, Note_on_c, 2, 69, 95, 0
2, 239880, Note_off_c, 2, 60, 95, 0
2, 239880, Note_off_c, 2, 69, 95, 0
2, 239880, Note_on_c, 2, 52, 95, 0
2, 239880, Note_on_c, 2, 61, 95, 0
2, 240360, Note_off_c, 2, 52, 95, 0
2, 240360, Note_off_c, 2, 61, 95, 0
2, 240360, Note_on_c, 2, 50, 95, 0
2, 240360, Note_on_c, 2, 64, 95, 0
2, 240840, Note_off_c, 2, 50, 95, 0
2, 240840, Note_off_c, 2, 64, 95, 0
2, 240840, Note_on_c, 2, 64, 95, 0
2, 240840, Note_on_c, 2, 69, 95, 0
2, 240960, Note_off_c, 2, 64, 95, 0
2, 240960, Note_off_c, 2, 69, 95, 0
2, 241200, Note_on_c, 2, 57, 95, 0
2, 241200, Note_on_c, 2, 62, 95, 0
2, 241680, Note_off_c, 2, 57, 95, 0
2, 241680, Note_off_c, 2, 62, 95, 0
2, 241680, Note_on_c, 2, 60, 95, 0
2, 241800, Note_off_c, 2, 60, 95, 0
2, 241800, Note_on_c, 2, 52, 95, 0
2, 241800, Note_on_c, 2, 59, 95, 0
2, 242040, Note_off_c, 2, 52, 95, 0
2, 242040, Note_off_c, 2, 59, 95, 0
2, 242040, Note_on_c, 2, 57, 95, 0
2, 242040, Note_on_c, 2, 62, 95, 0
2, 242160, Note_off_c, 2, 57, 95, 0
2, 242160, Note_off_c, 2, 62, 95, 0
2, 242160, Note_on_c, 2, 50, 95, 0
2, 242160, Note_on_c, 2, 64, 95, 0
2, 242400, Note_off_c, 2, 50, 95, 0
2, 242400, Note_off_c, 2, 64, 95, 0
2, 242400, Note_on_c, 2, 57, 95, 0
2, 242640, Note_off_c, 2, 57, 95, 0
2, 242640, Note_on_c, 2, 61, 95, 0
2, 242760, Note_off_c, 2, 61, 95, 0
2, 242760, Note_on_c, 2, 59, 95, 0
2, 243240, Note_off_c, 2, 59, 95, 0
2, 243240, Note_on_c, 2, 50, 95, 0
2, 243480, Note_off_c, 2, 50, 95, 0
2, 243480, Note_on_c, 2, 57, 95, 0
2, 243480, Note_on_c, 2, 62, 95, 0
2, 243720, Note_off_c, 2, 57, 95, 0
2, 243720, Note_off_c, 2, 62, 95, 0
2, 243720, Note_on_c, 2, 59, 95, 0
2, 244200, Note_off_c, 2, 59, 95, 0
2, 244200, Note_on_c, 2, 47, 95, 0
2, 244200, Note_on_c, 2, 57, 95, 0
2, 244680, Note_off_c, 2, 47, 95, 0
2, 244680, Note_off_c, 2, 57, 95, 0
2, 244680, Note_on_c, 2, 65, 95, 0
2, 244800, Note_off_c, 2, 65, 95, 0
2, 244800, Note_on_c, 2, 61, 95, 0
2, 244920, Note_off_c, 2, 61, 95, 0
2, 244920, Note_on_c, 2, 62, 95, 0
2, 245160, Note_off_c, 2, 62, 95, 0
2, 245160, Note_on_c, 2, 60, 95, 0
2, 245280, Note_off_c, 2, 60, 95, 0
2, 245280, Note_on_c, 2, 59, 95, 0
2, 245280, Note_on_c, 2, 62, 95, 0
2, 245760, Note_off_c, 2, 59, 95, 0
2, 245760, Note_off_c, 2, 62, 95, 0
2, 245760, Note_on_c, 2, 50, 95, 0
2, 246240, Note_off_c, 2, 50, 95, 0
2, 246240, Note_on_c, 2, 48, 95, 0
2, 246480, Note_off_c, 2, 48, 95, 0
2, 246480, Note_on_c, 2, 43, 95, 0
2, 246480, Note_on_c, 2, 55, 95, 0
2, 246960, Note_off_c, 2, 43, 95, 0
2, 246960, Note_off_c, 2, 55, 95, 0
2, 246960, Note_on_c, 2, 47, 95, 0
2, 247440, Note_off_c, 2, 47, 95, 0
2, 247440, Note_on_c, 2, 57, 95, 0
2, 247440, Note_on_c, 2, 62, 95, 0
2, 247920, Note_off_c, 2, 57, 95, 0
2, 247920, Note_off_c, 2, 62, 95, 0
2, 247920, Note_on_c, 2, 50, 95, 0
2, 248400, Note_off_c, 2, 50, 95, 0
2, 248400, Note_on_c, 2, 48, 95, 0
2, 248880, Note_off_c, 2, 48, 95, 0
2, 248880, Note_on_c, 2, 67, 95, 0
2, 249360, Note_off_c, 2, 67, 95, 0
2, 249360, Note_on_c, 2, 59, 95, 0
2, 249360, Note_on_c, 2, 61, 95, 0
2, 249600, Note_off_c, 2, 59, 95, 0
2, 249600, Note_off_c, 2, 61, 95, 0
2, 249600, Note_on_c, 2, 50, 95, 0
2, 249600, Note_on_c, 2, 62, 95, 0
2, 249840, Note_off_c, 2, 50, 95, 0
2, 249840, Note_off_c, 2, 62, 95, 0
2, 249840, Note_on_c, 2, 45, 95, 0
2, 249960, Note_off_c, 2, 45, 95, 0
2, 249960, Note_on_c, 2, 62, 95, 0
2, 250080, Note_off_c, 2, 62, 95, 0
2, 250080, Note_on_c, 2, 62, 95, 0
2, 250200, Note_off_c, 2, 62, 95, 0
2, 250200, Note_on_c, 2, 62, 95, 0
2, 250200, Note_on_c, 2, 64, 95, 0
2, 250440, Note_off_c, 2, 62, 95, 0
2, 250440, Note_off_c, 2, 64, 95, 0
2, 250440, Note_on_c, 2, 50, 95, 0
2, 250560, Note_off_c, 2, 50, 95, 0
2, 250560, Note_on_c, 2, 59, 95, 0
2, 250560, Note_on_c, 2, 62, 95, 0
2, 250800, Note_off_c, 2, 59, 95, 0
2, 250800, Note_off_c, 2, 62, 95, 0
2, 250800, Note_on_c, 2, 55, 95, 0
2, 250920, Note_off_c, 2, 55, 95, 0
2, 250920, Note_on_c, 2, 62, 95, 0
2, 251040, Note_off_c, 2, 62, 95, 0
2, 251040, Note_on_c, 2, 50, 95, 0
2, 251040, Note_on_c, 2, 60, 95, 0
2, 251160, Note_off_c, 2, 50, 95, 0
2, 251160, Note_off_c, 2, 60, 95, 0
2, 251160, Note_on_c, 2, 59, 95, 0
2, 251280, Note_off_c, 2, 59, 95, 0
2, 251280, Note_on_c, 2, 64, 95, 0
2, 251760, Note_off_c, 2, 64, 95, 0
2, 251760, Note_on_c, 2, 60, 95, 0
2, 251760, Note_on_c, 2, 61, 95, 0
2, 252240, Note_off_c, 2, 60, 95, 0
2, 252240, Note_off_c, 2, 61, 95, 0
2, 252240, Note_on_c, 2, 47, 95, 0
2, 252240, Note_on_c, 2, 50, 95, 0
2, 252360, Note_off_c, 2, 47, 95, 0
2, 252360, Note_off_c, 2, 50, 95, 0
2, 252360, Note_on_c, 2, 59, 95, 0
2, 252360, Note_on_c, 2, 62, 95, 0
2, 252480, Note_off_c, 2, 59, 95, 0
2, 252480, Note_off_c, 2, 62, 95, 0
2, 252480, Note_on_c, 2, 55, 95, 0
2, 252480, Note_on_c, 2, 64, 95, 0
2, 252720, Note_off_c, 2, 55, 95, 0
2, 252720, Note_off_c, 2, 64, 95, 0
2, 252840, Note_on_c, 2, 50, 95, 0
2, 252960, Note_off_c, 2, 50, 95, 0
2, 252960, Note_on_c, 2, 62, 95, 0
2, 253200, Note_off_c, 2, 62, 95, 0
2, 253200, Note_on_c, 2, 55, 95, 0
2, 253440, Note_off_c, 2, 55, 95, 0
2, 253440, Note_on_c, 2, 47, 95, 0
2, 253440, Note_on_c, 2, 57, 95, 0
2, 253560, Note_off_c, 2, 47, 95, 0
2, 253560, Note_off_c, 2, 57, 95, 0
2, 253560, Note_on_c, 2, 64, 95, 0
2, 253680, Note_off_c, 2, 64, 95, 0
2, 253680, Note_on_c, 2, 61, 95, 0
2, 253680, Note_on_c, 2, 64, 95, 0
2, 253920, Note_off_c, 2, 61, 95, 0
2, 253920, Note_off_c, 2, 64, 95, 0
2, 253920, Note_on_c, 2, 62, 95, 0
2, 254160, Note_off_c, 2, 62, 95, 0
2, 254160, Note_on_c, 2, 45, 95, 0
2, 254400, Note_off_c, 2, 45, 95, 0
2, 254400, Note_on_c, 2, 57, 95, 0
2, 254400, Note_on_c, 2, 62, 95, 0
2, 254640, Note_off_c, 2, 57, 95, 0
2, 254640, Note_off_c, 2, 62, 95, 0
2, 254640, Note_on_c, 2, 55, 95, 0
2, 254760, Note_off_c, 2, 55, 95, 0
2, 254760, Note_on_c, 2, 57, 95, 0
2, 255000, Note_off_c, 2, 57, 95, 0
2, 255000, Note_on_c, 2, 60, 95, 0
2, 255480, Note_off_c, 2, 60, 95, 0
2, 255480, Note_on_c, 2, 50, 95, 0
2, 255480, Note_on_c, 2, 59, 95, 0
2, 255600, Note_off_c, 2, 50, 95, 0
2, 255600, Note_off_c, 2, 59, 95, 0
2, 255600, Note_on_c, 2, 55, 95, 0
2, 255600, Note_on_c, 2, 62, 95, 0
2, 255840, Note_off_c, 2, 55, 95, 0
2, 255840, Note_off_c, 2, 62, 95, 0
2, 255840, Note_on_c, 2, 60, 95, 0
2, 256080, Note_off_c, 2, 60, 95, 0
2, 256080, Note_on_c, 2, 57, 95, 0
2, 256320, Note_off_c, 2, 57, 95, 0
2, 256320, Note_on_c, 2, 50, 95, 0
2, 256440, Note_off_c, 2, 50, 95, 0
2, 256440, Note_on_c, 2, 62, 95, 0
2, 256560, Note_off_c, 2, 62, 95, 0
2, 256560, Note_on_c, 2, 50, 95, 0
2, 256560, Note_on_c, 2, 55, 95, 0
2, 256560, Note_on_c, 2, 64, 95, 0
2, 257040, Note_off_c, 2, 50, 95, 0
2, 257040, Note_off_c, 2, 55, 95, 0
2, 257040, Note_off_c, 2, 64, 95, 0
2, 257040, Note_on_c, 2, 47, 95, 0
2, 257040, Note_on_c, 2, 57, 95, 0
2, 257160, Note_off_c, 2, 47, 95, 0
2, 257160, Note_off_c, 2, 57, 95, 0
2, 257160, Note_on_c, 2, 50, 95, 0
2, 257160, Note_on_c, 2, 61, 95, 0
2, 257280, Note_off_c, 2, 50, 95, 0
2, 257280, Note_off_c, 2, 61, 95, 0
2, 257280, Note_on_c, 2, 62, 95, 0
2, 257520, Note_off_c, 2, 62, 95, 0
2, 257520, Note_on_c, 2, 55, 95, 0
2, 257640, Note_off_c, 2, 55, 95, 0
2, 257640, Note_on_c, 2, 47, 95, 0
2, 257640, Note_on_c, 2, 57, 95, 0
2, 258120, Note_off_c, 2, 47, 95, 0
2, 258120, Note_off_c, 2, 57, 95, 0
2, 258120, Note_on_c, 2, 60, 95, 0
2, 258120, Note_on_c, 2, 67, 95, 0
2, 258600, Note_off_c, 2, 60, 95, 0
2, 258600, Note_off_c, 2, 67, 95, 0
2, 258600, Note_on_c, 2, 52, 95, 0
2, 258600, Note_on_c, 2, 59, 95, 0
2, 258840, Note_off_c, 2, 52, 95, 0
2, 258840, Note_off_c, 2, 59, 95, 0
2, 258840, Note_on_c, 2, 55, 95, 0
2, 258960, Note_off_c, 2, 55, 95, 0
2, 258960, Note_on_c, 2, 50, 95, 0
2, 258960, Note_on_c, 2, 59, 95, 0
2, 259440, Note_off_c, 2, 50, 95, 0
2, 259440, Note_off_c, 2, 59, 95, 0
2, 259440, Note_on_c, 2, 52, 95, 0
2, 259560, Note_off_c, 2, 52, 95, 0
2, 259560, Note_on_c, 2, 48, 95, 0
2, 259560, Note_on_c, 2, 57, 95, 0
2, 259800, Note_off_c, 2, 48, 95, 0
2, 259800, Note_off_c, 2, 57, 95, 0
2, 259800, Note_on_c, 2, 50, 95, 0
2, 260040, Note_off_c, 2, 50, 95, 0
2, 260040, Note_on_c, 2, 57, 95, 0
2, 260040, Note_on_c, 2, 62, 95, 0
2, 260160, Note_off_c, 2, 57, 95, 0
2, 260160, Note_off_c, 2, 62, 95, 0
2, 260160, Note_on_c, 2, 50, 95, 0
2, 260160, Note_on_c, 2, 55, 95, 0
2, 260640, Note_off_c, 2, 50, 95, 0
2, 260640, Note_off_c, 2, 55, 95, 0
2, 260640, Note_on_c, 2, 48, 95, 0
2, 260760, Note_off_c, 2, 48, 95, 0
2, 260760, Note_on_c, 2, 60, 95, 0
2, 261000, Note_off_c, 2, 60, 95, 0
2, 261000, Note_on_c, 2, 59, 95, 0
2, 261240, Note_off_c, 2, 59, 95, 0
2, 261240, Note_on_c, 2, 59, 95, 0
2, 261480, Note_off_c, 2, 59, 95, 0
2, 261480, Note_on_c, 2, 50, 95, 0
2, 261600, Note_off_c, 2, 50, 95, 0
2, 261600, Note_on_c, 2, 57, 95, 0
2, 261600, Note_on_c, 2, 62, 95, 0
2, 261720, Note_off_c, 2, 57, 95, 0
2, 261720, Note_off_c, 2, 62, 95, 0
2, 261720, Note_on_c, 2, 50, 95, 0
2, 261720, Note_on_c, 2, 55, 95, 0
2, 261840, Note_off_c, 2, 50, 95, 0
2, 261840, Note_off_c, 2, 55, 95, 0
2, 261840, Note_on_c, 2, 48, 95, 0
2, 261960, Note_off_c, 2, 48, 95, 0
2, 261960, Note_on_c, 2, 43, 95, 0
2, 261960, Note_on_c, 2, 48, 95, 0
2, 262440, Note_off_c, 2, 43, 95, 0
2, 262440, Note_off_c, 2, 48, 95, 0
2, 262440, Note_on_c, 2, 47, 95, 0
2, 262440, Note_on_c, 2, 48, 95, 0
2, 262920, Note_off_c, 2, 47, 95, 0
2, 262920, Note_off_c, 2, 48, 95, 0
2, 262920, Note_on_c, 2, 55, 95, 0
2, 263400, Note_off_c, 2, 55, 95, 0
2, 263400, Note_on_c, 2, 47, 95, 0
2, 263400, Note_on_c, 2, 64, 95, 0
2, 263640, Note_off_c, 2, 47, 95, 0
2, 263640, Note_off_c, 2, 64, 95, 0
2, 263640, Note_on_c, 2, 61, 95, 0
2, 263640, Note_on_c, 2, 62, 95, 0
2, 263760, Note_off_c, 2, 61, 95, 0
2, 263760, Note_off_c, 2, 62, 95, 0
2, 263760, Note_on_c, 2, 47, 95, 0
2, 264000, Note_off_c, 2, 47, 95, 0
2, 264000, Note_on_c, 2, 64, 95, 0
2, 264240, Note_off_c, 2, 64, 95, 0
2, 264240, Note_on_c, 2, 55, 95, 0
2, 264720, Note_off_c, 2, 55, 95, 0
2, 264720, Note_on_c, 2, 57, 95, 0
2, 264720, Note_on_c, 2, 62, 95, 0
2, 264840, Note_off_c, 2, 57, 95, 0
2, 264840, Note_off_c, 2, 62, 95, 0
2, 264840, Note_on_c, 2, 50, 95, 0
2, 265080, Note_off_c, 2, 50, 95, 0
2, 265080, Note_on_c, 2, 59, 95, 0
2, 265080, Note_on_c, 2, 62, 95, 0
2, 265200, Note_off_c, 2, 59, 95, 0
2, 265200, Note_off_c, 2, 62, 95, 0
2, 265200, Note_on_c, 2, 55, 95, 0
2, 265200, Note_on_c, 2, 64, 95, 0
2, 265320, Note_off_c, 2, 55, 95, 0
2, 265320, Note_off_c, 2, 64, 95, 0
2, 265320, Note_on_c, 2, 47, 95, 0
2, 265320, Note_on_c, 2, 57, 95, 0
2, 265560, Note_off_c, 2, 47, 95, 0
2, 265560, Note_off_c, 2, 57, 95, 0
2, 265560, Note_on_c, 2, 45, 95, 0
2, 266040, Note_off_c, 2, 45, 95, 0
2, 266040, Note_on_c, 2, 62, 95, 0
2, 266520, Note_off_c, 2, 62, 95, 0
2, 266520, Note_on_c, 2, 62, 95, 0
2, 266640, Note_off_c, 2, 62, 95, 0
2, 266640, Note_on_c, 2, 57, 95, 0
2, 266640, Note_on_c, 2, 64, 95, 0
2, 266760, Note_off_c, 2, 57, 95, 0
2, 266760, Note_off_c, 2, 64, 95, 0
2, 266760, Note_on_c, 2, 45, 95, 0
2, 267240, Note_off_c, 2, 45, 95, 0
2, 267240, Note_on_c, 2, 62, 95, 0
2, 267480, Note_off_c, 2, 62, 95, 0
2, 267480, Note_on_c, 2, 55, 95, 0
2, 267960, Note_off_c, 2, 55, 95, 0
2, 267960, Note_on_c, 2, 47, 95, 0
2, 267960, Note_on_c, 2, 57, 95, 0
2, 268080, Note_off_c, 2, 47, 95, 0
2, 268080, Note_off_c, 2, 57, 95, 0
2, 268080, Note_on_c, 2, 57, 95, 0
2, 268080, Note_on_c, 2, 64, 95, 0
2, 268560, Note_off_c, 2, 57, 95, 0
2, 268560, Note_off_c, 2, 64, 95, 0
2, 268560, Note_on_c, 2, 55, 95, 0
2, 269040, Note_off_c, 2, 55, 95, 0
2, 269040, Note_on_c, 2, 48, 95, 0
2, 269040, Note_on_c, 2, 50, 95, 0
2, 269160, Note_off_c, 2, 48, 95, 0
2, 269160, Note_off_c, 2, 50, 95, 0
2, 269160, Note_on_c, 2, 65, 95, 0
2, 269640, Note_off_c, 2, 65, 95, 0
2, 269640, Note_on_c, 2, 64, 95, 0
2, 269880, Note_off_c, 2, 64, 95, 0
2, 269880, Note_on_c, 2, 62, 95, 0
2, 270120, Note_off_c, 2, 62, 95, 0
2, 270120, Note_on_c, 2, 45, 95, 0
2, 270120, Note_on_c, 2, 60, 95, 0
2, 270240, Note_off_c, 2, 45, 95, 0
2, 270240, Note_off_c, 2, 60, 95, 0
2, 270240, Note_on_c, 2, 62, 95, 0
2, 270360, Note_off_c, 2, 62, 95, 0
2, 270360, Note_on_c, 2, 50, 95, 0
2, 270840, Note_off_c, 2, 50, 95, 0
2, 270840, Note_on_c, 2, 48, 95, 0
2, 270840, Note_on_c, 2, 60, 95, 0
2, 271320, Note_off_c, 2, 48, 95, 0
2, 271320, Note_off_c, 2, 60, 95, 0
2, 271320, Note_on_c, 2, 55, 95, 0
2, 271560, Note_off_c, 2, 55, 95, 0
2, 271560, Note_on_c, 2, 50, 95, 0
2, 271680, Note_off_c, 2, 50, 95, 0
2, 271680, Note_on_c, 2, 59, 95, 0
2, 271800, Note_off_c, 2, 59, 95, 0
2, 271800, Note_on_c, 2, 47, 95, 0
2, 272280, Note_off_c, 2, 47, 95, 0
2, 272280, Note_on_c, 2, 48, 95, 0
2, 272280, Note_on_c, 2, 57, 95, 0
2, 272280, Note_on_c, 2, 62, 95, 0
2, 272400, Note_off_c, 2, 48, 95, 0
2, 272400, Note_off_c, 2, 57, 95, 0
2, 272400, Note_off_c, 2, 62, 95, 0
2, 272400, Note_on_c, 2, 50, 95, 0
2, 272520, Note_off_c, 2, 50, 95, 0
2, 272520, Note_on_c, 2, 59, 95, 0
2, 272760, Note_off_c, 2, 59, 95, 0
2, 272760, Note_on_c, 2, 50, 95, 0
2, 272760, Note_on_c, 2, 55, 95, 0
2, 272880, Note_off_c, 2, 50, 95, 0
2, 272880, Note_off_c, 2, 55, 95, 0
2, 272880, Note_on_c, 2, 48, 95, 0
2, 273360, Note_off_c, 2, 48, 95, 0
2, 273360, Note_on_c, 2, 57, 95, 0
2, 273600, Note_off_c, 2, 57, 95, 0
2, 273600, Note_on_c, 2, 55, 95, 0
2, 273600, Note_on_c, 2, 64, 95, 0
2, 273720, Note_off_c, 2, 55, 95, 0
2, 273720, Note_off_c, 2, 64, 95, 0
2, 273720, Note_on_c, 2, 59, 95, 0
2, 273720, Note_on_c, 2, 60, 95, 0
2, 273840, Note_off_c, 2, 59, 95, 0
2, 273840, Note_off_c, 2, 60, 95, 0
2, 273840, Note_on_c, 2, 57, 95, 0
2, 274320, Note_off_c, 2, 57, 95, 0
2, 274320, Note_on_c, 2, 60, 95, 0
2, 274320, Note_on_c, 2, 69, 95, 0
2, 274440, Note_off_c, 2, 60, 95, 0
2, 274440, Note_off_c, 2, 69, 95, 0
2, 274440, Note_on_c, 2, 48, 95, 0
2, 274440, Note_on_c, 2, 52, 95, 0
2, 274680, Note_off_c, 2, 48, 95, 0
2, 274680, Note_off_c, 2, 52, 95, 0
2, 274680, Note_on_c, 2, 55, 95, 0
2, 274800, Note_off_c, 2, 55, 95, 0
2, 274800, Note_on_c, 2, 59, 95, 0
2, 275040, Note_off_c, 2, 59, 95, 0
2, 275040, Note_on_c, 2, 57, 95, 0
2, 275160, Note_off_c, 2, 57, 95, 0
2, 275160, Note_on_c, 2, 50, 95, 0
2, 275640, Note_off_c, 2, 50, 95, 0
2, 275640, Note_on_c, 2, 57, 95, 0
2, 275640, Note_on_c, 2, 62, 95, 0
2, 275880, Note_off_c, 2, 57, 95, 0
2, 275880, Note_off_c, 2, 62, 95, 0
2, 275880, Note_on_c, 2, 50, 95, 0
2, 275880, Note_on_c, 2, 55, 95, 0
2, 276120, Note_off_c, 2, 50, 95, 0
2, 276120, Note_off_c, 2, 55, 95, 0
2, 276120, Note_on_c, 2, 57, 95, 0
2, 276360, Note_off_c, 2, 57, 95, 0
2, 276360, Note_on_c, 2, 61, 95, 0
2, 276480, Note_off_c, 2, 61, 95, 0
2, 276480, Note_on_c, 2, 50, 95, 0
2, 276480, Note_on_c, 2, 59, 95, 0
2, 276600, Note_off_c, 2, 50, 95, 0
2, 276600, Note_off_c, 2, 59, 95, 0
2, 276600, Note_on_c, 2, 50, 95, 0
2, 277080, Note_off_c, 2, 50, 95, 0
2, 277080, Note_on_c, 2, 57, 95, 0
2, 277080, Note_on_c, 2, 62, 95, 0
2, 277560, Note_off_c, 2, 57, 95, 0
2, 277560, Note_off_c, 2, 62, 95, 0
2, 277560, Note_on_c, 2, 50, 95, 0
2, 277560, Note_on_c, 2, 64, 95, 0
2, 278040, Note_off_c, 2, 50, 95, 0
2, 278040, Note_off_c, 2, 64, 95, 0
2, 278040, Note_on_c, 2, 57, 95, 0
2, 278040, Note_on_c, 2, 60, 95, 0
2, 278520, Note_off_c, 2, 57, 95, 0
2, 278520, Note_off_c, 2, 60, 95, 0
2, 278520, Note_on_c, 2, 50, 95, 0
2, 278520, Note_on_c, 2, 61, 95, 0
2, 279000, Note_off_c, 2, 50, 95, 0
2, 279000, Note_off_c, 2, 61, 95, 0
2, 279000, Note_on_c, 2, 59, 95, 0
2, 279240, Note_off_c, 2, 59, 95, 0
2, 279240, Note_on_c, 2, 50, 95, 0
2, 279240, Note_on_c, 2, 55, 95, 0
2, 279480, Note_off_c, 2, 50, 95, 0
2, 279480, Note_off_c, 2, 55, 95, 0
2, 279600, Note_on_c, 2, 55, 95, 0
2, 279600, Note_on_c, 2, 62, 95, 0
2, 279720, Note_off_c, 2, 55, 95, 0
2, 279720, Note_off_c, 2, 62, 95, 0
2, 279720, Note_on_c, 2, 47, 95, 0
2, 279720, Note_on_c, 2, 50, 95, 0
2, 279840, Note_off_c, 2, 47, 95, 0
2, 279840, Note_off_c, 2, 50, 95, 0
2, 279840, Note_on_c, 2, 48, 95, 0
2, 280080, Note_off_c, 2, 48, 95, 0
2, 280080, Note_on_c, 2, 55, 95, 0
2, 280560, Note_off_c, 2, 55, 95, 0
2, 280560, Note_on_c, 2, 47, 95, 0
2, 280680, Note_off_c, 2, 47, 95, 0
2, 280680, Note_on_c, 2, 57, 95, 0
2, 280680, Note_on_c, 2, 62, 95, 0
2, 280800, Note_off_c, 2, 57, 95, 0
2, 280800, Note_off_c, 2, 62, 95, 0
2, 280800, Note_on_c, 2, 50, 95, 0
2, 281280, Note_off_c, 2, 50, 95, 0
2, 281280, Note_on_c, 2, 48, 95, 0
2, 281520, Note_off_c, 2, 48, 95, 0
2, 281520, Note_on_c, 2, 67, 95, 0
2, 282000, Note_off_c, 2, 67, 95, 0
2, 282000, Note_on_c, 2, 59, 95, 0
2, 282000, Note_on_c, 2, 61, 95, 0
2, 282120, Note_off_c, 2, 59, 95, 0
2, 282120, Note_off_c, 2, 61, 95, 0
2, 282120, Note_on_c, 2, 50, 95, 0
2, 282240, Note_off_c, 2, 50, 95, 0
2, 282240, Note_on_c, 2, 45, 95, 0
2, 282240, Note_on_c, 2, 65, 95, 0
2, 282360, Note_off_c, 2, 45, 95, 0
2, 282360, Note_off_c, 2, 65, 95, 0
2, 282360, Note_on_c, 2, 62, 95, 0
2, 282600, Note_off_c, 2, 62, 95, 0
2, 282600, Note_on_c, 2, 62, 95, 0
2, 282720, Note_off_c, 2, 62, 95, 0
2, 282720, Note_on_c, 2, 57, 95, 0
2, 282720, Note_on_c, 2, 64, 95, 0
2, 282840, Note_off_c, 2, 57, 95, 0
2, 282840, Note_off_c, 2, 64, 95, 0
2, 282840, Note_on_c, 2, 45, 95, 0
2, 283320, Note_off_c, 2, 45, 95, 0
2, 283320, Note_on_c, 2, 62, 95, 0
2, 283440, Note_off_c, 2, 62, 95, 0
2, 283440, Note_on_c, 2, 50, 95, 0
2, 283440, Note_on_c, 2, 64, 95, 0
2, 283920, Note_off_c, 2, 50, 95, 0
2, 283920, Note_off_c, 2, 64, 95, 0
2, 283920, Note_on_c, 2, 57, 95, 0
2, 283920, Note_on_c, 2, 60, 95, 0
2, 284040, Note_off_c, 2, 57, 95, 0
2, 284040, Note_off_c, 2, 60, 95, 0
2, 284040, Note_on_c, 2, 50, 95, 0
2, 284520, Note_off_c, 2, 50, 95, 0
2, 284520, Note_on_c, 2, 48, 95, 0
2, 284520, Note_on_c, 2, 59, 95, 0
2, 284760, Note_off_c, 2, 48, 95, 0
2, 284760, Note_off_c, 2, 59, 95, 0
2, 284760, Note_on_c, 2, 50, 95, 0
2, 285240, Note_off_c, 2, 50, 95, 0
2, 285240, Note_on_c, 2, 55, 95, 0
2, 285240, Note_on_c, 2, 57, 95, 0
2, 285240, Note_on_c, 2, 62, 95, 0
2, 285720, Note_off_c, 2, 55, 95, 0
2, 285720, Note_off_c, 2, 57, 95, 0
2, 285720, Note_off_c, 2, 62, 95, 0
2, 285720, Note_on_c, 2, 50, 95, 0
2, 285720, Note_on_c, 2, 55, 95, 0
2, 285840, Note_off_c, 2, 50, 95, 0
2, 285840, Note_off_c, 2, 55, 95, 0
2, 285840, Note_on_c, 2, 48, 95, 0
2, 285840, Note_on_c, 2, 57, 95, 0
2, 286320, Note_off_c, 2, 48, 95, 0
2, 286320, Note_off_c, 2, 57, 95, 0
2, 286320, Note_on_c, 2, 45, 95, 0
2, 286800, Note_off_c, 2, 45, 95, 0
2, 286800, Note_on_c, 2, 57, 95, 0
2, 286800, Note_on_c, 2, 62, 95, 0
2, 287040, Note_off_c, 2, 57, 95, 0
2, 287040, Note_off_c, 2, 62, 95, 0
2, 287040, Note_on_c, 2, 50, 95, 0
2, 287040, Note_on_c, 2, 55, 95, 0
2, 287160, Note_off_c, 2, 50, 95, 0
2, 287160, Note_off_c, 2, 55, 95, 0
2, 287160, Note_on_c, 2, 48, 95, 0
2, 287400, Note_off_c, 2, 48, 95, 0
2, 287400, Note_on_c, 2, 43, 95, 0
2, 287400, Note_on_c, 2, 55, 95, 0
2, 287880, Note_off_c, 2, 43, 95, 0
2, 287880, Note_off_c, 2, 55, 95, 0
2, 288480, Note_on_c, 2, 52, 95, 0
2, 288600, Note_off_c, 2, 52, 95, 0
2, 288600, Note_on_c, 2, 45, 95, 0
2, 289080, Note_off_c, 2, 45, 95, 0
2, 289080, Note_on_c, 2, 62, 95, 0
2, 289200, Note_off_c, 2, 62, 95, 0
2, 289200, Note_on_c, 2, 50, 95, 0
2, 289200, Note_on_c, 2, 59, 95, 0
2, 289680, Note_off_c, 2, 50, 95, 0
2, 289680, Note_off_c, 2, 59, 95, 0
2, 289680, Note_on_c, 2, 59, 95, 0
2, 290160, Note_off_c, 2, 59, 95, 0
2, 290160, Note_on_c, 2, 50, 95, 0
2, 290280, Note_off_c, 2, 50, 95, 0
2, 290280, Note_on_c, 2, 62, 95, 0
2, 290400, Note_off_c, 2, 62, 95, 0
2, 290400, Note_on_c, 2, 55, 95, 0
2, 290880, Note_off_c, 2, 55, 95, 0
2, 290880, Note_on_c, 2, 52, 95, 0
2, 291360, Note_off_c, 2, 52, 95, 0
2, 291360, Note_on_c, 2, 45, 95, 0
2, 291360, Note_on_c, 2, 50, 95, 0
2, 291480, Note_off_c, 2, 45, 95, 0
2, 291480, Note_off_c, 2, 50, 95, 0
2, 291480, Note_on_c, 2, 59, 95, 0
2, 291480, Note_on_c, 2, 62, 95, 0
2, 291720, Note_off_c, 2, 59, 95, 0
2, 291720, Note_off_c, 2, 62, 95, 0
2, 291720, Note_on_c, 2, 59, 95, 0
2, 291840, Note_off_c, 2, 59, 95, 0
2, 291840, Note_on_c, 2, 57, 95, 0
2, 292320, Note_off_c, 2, 57, 95, 0
2, 292320, Note_on_c, 2, 50, 95, 0
2, 292560, Note_off_c, 2, 50, 95, 0
2, 292560, Note_on_c, 2, 62, 95, 0
2, 292800, Note_off_c, 2, 62, 95, 0
2, 292800, Note_on_c, 2, 50, 95, 0
2, 292800, Note_on_c, 2, 55, 95, 0
2, 292920, Note_off_c, 2, 50, 95, 0
2, 292920, Note_off_c, 2, 55, 95, 0
2, 292920, Note_on_c, 2, 57, 95, 0
2, 293400, Note_off_c, 2, 57, 95, 0
2, 293400, Note_on_c, 2, 50, 95, 0
2, 293880, Note_off_c, 2, 50, 95, 0
2, 293880, Note_on_c, 2, 59, 95, 0
2, 293880, Note_on_c, 2, 62, 95, 0
2, 294360, Note_off_c, 2, 59, 95, 0
2, 294360, Note_off_c, 2, 62, 95, 0
2, 294360, Note_on_c, 2, 50, 95, 0
2, 294360, Note_on_c, 2, 55, 95, 0
2, 294480, Note_off_c, 2, 50, 95, 0
2, 294480, Note_off_c, 2, 55, 95, 0
2, 294480, Note_on_c, 2, 48, 95, 0
2, 294960, Note_off_c, 2, 48, 95, 0
2, 294960, Note_on_c, 2, 57, 95, 0
2, 294960, Note_on_c, 2, 62, 95, 0
2, 295200, Note_off_c, 2, 57, 95, 0
2, 295200, Note_off_c, 2, 62, 95, 0
2, 295200, Note_on_c, 2, 50, 95, 0
2, 295200, Note_on_c, 2, 55, 95, 0
2, 295680, Note_off_c, 2, 50, 95, 0
2, 295680, Note_off_c, 2, 55, 95, 0
2, 295680, Note_on_c, 2, 48, 95, 0
2, 295680, Note_on_c, 2, 57, 95, 0
2, 295680, Note_on_c, 2, 62, 95, 0
2, 295800, Note_off_c, 2, 48, 95, 0
2, 295800, Note_off_c, 2, 57, 95, 0
2, 295800, Note_off_c, 2, 62, 95, 0
2, 295800, Note_on_c, 2, 50, 95, 0
2, 295800, Note_on_c, 2, 55, 95, 0
2, 295920, Note_off_c, 2, 50, 95, 0
2, 295920, Note_off_c, 2, 55, 95, 0
2, 295920, Note_on_c, 2, 48, 95, 0
2, 295920, Note_on_c, 2, 57, 95, 0
2, 296040, Note_off_c, 2, 48, 95, 0
2, 296040, Note_off_c, 2, 57, 95, 0
2, 296040, Note_on_c, 2, 45, 95, 0
2, 296520, Note_off_c, 2, 45, 95, 0
2, 296520, Note_on_c, 2, 55, 95, 0
2, 296520, Note_on_c, 2, 62, 95, 0
2, 296760, Note_off_c, 2, 55, 95, 0
2, 296760, Note_off_c, 2, 62, 95, 0
2, 296760, Note_on_c, 2, 59, 95, 0
2, 297000, Note_off_c, 2, 59, 95, 0
2, 297000, Note_on_c, 2, 57, 95, 0
2, 297240, Note_off_c, 2, 57, 95, 0
2, 297240, Note_on_c, 2, 69, 95, 0
2, 297360, Note_off_c, 2, 69, 95, 0
2, 297360, Note_on_c, 2, 62, 95, 0
2, 297480, Note_off_c, 2, 62, 95, 0
2, 297480, Note_on_c, 2, 50, 95, 0
2, 297480, Note_on_c, 2, 64, 95, 0
2, 297600, Note_off_c, 2, 50, 95, 0
2, 297600, Note_off_c, 2, 64, 95, 0
2, 297600, Note_on_c, 2, 64, 95, 0
2, 297600, Note_on_c, 2, 69, 95, 0
2, 298080, Note_off_c, 2, 64, 95, 0
2, 298080, Note_off_c, 2, 69, 95, 0
2, 298080, Note_on_c, 2, 52, 95, 0
2, 298560, Note_off_c, 2, 52, 95, 0
2, 298560, Note_on_c, 2, 47, 95, 0
2, 298560, Note_on_c, 2, 57, 95, 0
2, 298680, Note_off_c, 2, 47, 95, 0
2, 298680, Note_off_c, 2, 57, 95, 0
2, 298680, Note_on_c, 2, 60, 95, 0
2, 299160, Note_off_c, 2, 60, 95, 0
2, 299160, Note_on_c, 2, 59, 95, 0
2, 299160, Note_on_c, 2, 62, 95, 0
2, 299640, Note_off_c, 2, 59, 95, 0
2, 299640, Note_off_c, 2, 62, 95, 0
2, 299640, Note_on_c, 2, 50, 95, 0
2, 299640, Note_on_c, 2, 55, 95, 0
2, 300120, Note_off_c, 2, 50, 95, 0
2, 300120, Note_off_c, 2, 55, 95, 0
2, 300360, Note_on_c, 2, 55, 95, 0
2, 300360, Note_on_c, 2, 62, 95, 0
2, 300480, Note_off_c, 2, 55, 95, 0
2, 300480, Note_off_c, 2, 62, 95, 0
2, 300960, Note_on_c, 2, 48, 95, 0
2, 300960, Note_on_c, 2, 57, 95, 0
2, 301200, Note_off_c, 2, 48, 95, 0
2, 301200, Note_off_c, 2, 57, 95, 0
2, 301200, Note_on_c, 2, 50, 95, 0
2, 301200, Note_on_c, 2, 55, 95, 0
2, 301320, Note_off_c, 2, 50, 95, 0
2, 301320, Note_off_c, 2, 55, 95, 0
2, 301320, Note_on_c, 2, 48, 95, 0
2, 301320, Note_on_c, 2, 57, 95, 0
2, 301560, Note_off_c, 2, 48, 95, 0
2, 301560, Note_off_c, 2, 57, 95, 0
2, 301560, Note_on_c, 2, 50, 95, 0
2, 301560, Note_on_c, 2, 59, 95, 0
2, 301680, Note_off_c, 2, 50, 95, 0
2, 301680, Note_off_c, 2, 59, 95, 0
2, 301680, Note_on_c, 2, 57, 95, 0
2, 301680, Note_on_c, 2, 59, 95, 0
2, 301800, Note_off_c, 2, 57, 95, 0
2, 301800, Note_off_c, 2, 59, 95, 0
2, 301800, Note_on_c, 2, 50, 95, 0
2, 301800, Note_on_c, 2, 55, 95, 0
2, 302040, Note_off_c, 2, 50, 95, 0
2, 302040, Note_off_c, 2, 55, 95, 0
2, 302040, Note_on_c, 2, 48, 95, 0
2, 302040, Note_on_c, 2, 57, 95, 0
2, 302520, Note_off_c, 2, 48, 95, 0
2, 302520, Note_off_c, 2, 57, 95, 0
2, 302520, Note_on_c, 2, 43, 95, 0
2, 302520, Note_on_c, 2, 55, 95, 0
2, 302760, Note_off_c, 2, 43, 95, 0
2, 302760, Note_off_c, 2, 55, 95, 0
2, 302760, Note_on_c, 2, 64, 95, 0
2, 303000, Note_off_c, 2, 64, 95, 0
2, 303000, Note_on_c, 2, 60, 95, 0
2, 303000, Note_on_c, 2, 61, 95, 0
2, 303480, Note_off_c, 2, 60, 95, 0
2, 303480, Note_off_c, 2, 61, 95, 0
2, 303480, Note_on_c, 2, 50, 95, 0
2, 303480, Note_on_c, 2, 57, 95, 0
2, 303720, Note_off_c, 2, 50, 95, 0
2, 303720, Note_off_c, 2, 57, 95, 0
2, 303720, Note_on_c, 2, 64, 95, 0
2, 304200, Note_off_c, 2, 64, 95, 0
2, 304200, Note_on_c, 2, 48, 95, 0
2, 304440, Note_off_c, 2, 48, 95, 0
2, 304440, Note_on_c, 2, 57, 95, 0
2, 304440, Note_on_c, 2, 62, 95, 0
2, 304680, Note_off_c, 2, 57, 95, 0
2, 304680, Note_off_c, 2, 62, 95, 0
2, 304680, Note_on_c, 2, 60, 95, 0
2, 305160, Note_off_c, 2, 60, 95, 0
2, 305160, Note_on_c, 2, 52, 95, 0
2, 305280, Note_off_c, 2, 52, 95, 0
2, 305280, Note_on_c, 2, 59, 95, 0
2, 305760, Note_off_c, 2, 59, 95, 0
2, 306000, Note_on_c, 2, 48, 95, 0
2, 306480, Note_off_c, 2, 48, 95, 0
2, 306480, Note_on_c, 2, 57, 95, 0
2, 306480, Note_on_c, 2, 62, 95, 0
2, 306960, Note_off_c, 2, 57, 95, 0
2, 306960, Note_off_c, 2, 62, 95, 0
2, 306960, Note_on_c, 2, 50, 95, 0
2, 307440, Note_off_c, 2, 50, 95, 0
2, 307440, Note_on_c, 2, 48, 95, 0
2, 307560, Note_off_c, 2, 48, 95, 0
2, 307560, Note_on_c, 2, 43, 95, 0
2, 307560, Note_on_c, 2, 55, 95, 0
2, 307680, Note_off_c, 2, 43, 95, 0
2, 307680, Note_off_c, 2, 55, 95, 0
2, 307680, Note_on_c, 2, 59, 95, 0
2, 307800, Note_off_c, 2, 59, 95, 0
2, 307800, Note_on_c, 2, 52, 95, 0
2, 308040, Note_off_c, 2, 52, 95, 0
2, 308040, Note_on_c, 2, 57, 95, 0
2, 308040, Note_on_c, 2, 59, 95, 0
2, 308040, Note_on_c, 2, 62, 95, 0
2, 308160, Note_off_c, 2, 57, 95, 0
2, 308160, Note_off_c, 2, 59, 95, 0
2, 308160, Note_off_c, 2, 62, 95, 0
2, 308640, Note_on_c, 2, 48, 95, 0
2, 309120, Note_off_c, 2, 48, 95, 0
2, 309120, Note_on_c, 2, 55, 95, 0
2, 309600, Note_off_c, 2, 55, 95, 0
2, 309600, Note_on_c, 2, 50, 95, 0
2, 309840, Note_off_c, 2, 50, 95, 0
2, 309840, Note_on_c, 2, 48, 95, 0
2, 310080, Note_off_c, 2, 48, 95, 0
2, 310080, Note_on_c, 2, 43, 95, 0
2, 310080, Note_on_c, 2, 55, 95, 0
2, 310200, Note_off_c, 2, 43, 95, 0
2, 310200, Note_off_c, 2, 55, 95, 0
2, 310200, Note_on_c, 2, 59, 95, 0
2, 310440, Note_off_c, 2, 59, 95, 0
2, 310440, Note_on_c, 2, 52, 95, 0
2, 310440, Note_on_c, 2, 67, 95, 0
2, 310560, Note_off_c, 2, 52, 95, 0
2, 310560, Note_off_c, 2, 67, 95, 0
2, 310560, Note_on_c, 2, 48, 95, 0
2, 310560, Note_on_c, 2, 57, 95, 0
2, 310560, Note_on_c, 2, 62, 95, 0
2, 310800, Note_off_c, 2, 48, 95, 0
2, 310800, Note_off_c, 2, 57, 95, 0
2, 310800, Note_off_c, 2, 62, 95, 0
2, 310800, Note_on_c, 2, 50, 95, 0
2, 310800, Note_on_c, 2, 55, 95, 0
2, 310920, Note_off_c, 2, 50, 95, 0
2, 310920, Note_off_c, 2, 55, 95, 0
2, 310920, Note_on_c, 2, 48, 95, 0
2, 311400, Note_off_c, 2, 48, 95, 0
2, 311400, Note_on_c, 2, 48, 95, 0
2, 311400, Note_on_c, 2, 55, 95, 0
2, 311880, Note_off_c, 2, 48, 95, 0
2, 311880, Note_off_c, 2, 55, 95, 0
2, 311880, Note_on_c, 2, 55, 95, 0
2, 311880, Note_on_c, 2, 62, 95, 0
2, 312360, Note_off_c, 2, 55, 95, 0
2, 312360, Note_off_c, 2, 62, 95, 0
2, 312360, Note_on_c, 2, 59, 95, 0
2, 312600, Note_off_c, 2, 59, 95, 0
2, 312600, Note_on_c, 2, 57, 95, 0
2, 313080, Note_off_c, 2, 57, 95, 0
2, 313080, Note_on_c, 2, 50, 95, 0
2, 313200, Note_off_c, 2, 50, 95, 0
2, 313200, Note_on_c, 2, 62, 95, 0
2, 313320, Note_off_c, 2, 62, 95, 0
2, 313320, Note_on_c, 2, 50, 95, 0
2, 313560, Note_off_c, 2, 50, 95, 0
2, 313560, Note_on_c, 2, 57, 95, 0
2, 313680, Note_off_c, 2, 57, 95, 0
2, 314160, Note_on_c, 2, 59, 95, 0
2, 314640, Note_off_c, 2, 59, 95, 0
2, 314640, Note_on_c, 2, 50, 95, 0
2, 315120, Note_off_c, 2, 50, 95, 0
2, 315120, Note_on_c, 2, 48, 95, 0
2, 315120, Note_on_c, 2, 57, 95, 0
2, 315360, Note_off_c, 2, 48, 95, 0
2, 315360, Note_off_c, 2, 57, 95, 0
2, 315360, Note_on_c, 2, 43, 95, 0
2, 315360, Note_on_c, 2, 55, 95, 0
2, 315480, Note_off_c, 2, 43, 95, 0
2, 315480, Note_off_c, 2, 55, 95, 0
2, 315480, Note_on_c, 2, 59, 95, 0
2, 315600, Note_off_c, 2, 59, 95, 0
2, 315600, Note_on_c, 2, 52, 95, 0
2, 315840, Note_off_c, 2, 52, 95, 0
2, 315840, Note_on_c, 2, 48, 95, 0
2, 315840, Note_on_c, 2, 62, 95, 0
2, 316080, Note_off_c, 2, 48, 95, 0
2, 316080, Note_off_c, 2, 62, 95, 0
2, 316080, Note_on_c, 2, 55, 95, 0
2, 316200, Note_off_c, 2, 55, 95, 0
2, 316200, Note_on_c, 2, 50, 95, 0
2, 316440, Note_off_c, 2, 50, 95, 0
2, 316440, Note_on_c, 2, 48, 95, 0
2, 316680, Note_off_c, 2, 48, 95, 0
2, 316680, Note_on_c, 2, 55, 95, 0
2, 317160, Note_off_c, 2, 55, 95, 0
2, 317160, Note_on_c, 2, 59, 95, 0
2, 317280, Note_off_c, 2, 59, 95, 0
2, 317280, Note_on_c, 2, 52, 95, 0
2, 317280, Note_on_c, 2, 67, 95, 0
2, 317760, Note_off_c, 2, 52, 95, 0
2, 317760, Note_off_c, 2, 67, 95, 0
2, 317760, Note_on_c, 2, 48, 95, 0
2, 317760, Note_on_c, 2, 57, 95, 0
2, 317760, Note_on_c, 2, 62, 95, 0
2, 318000, Note_off_c, 2, 48, 95, 0
2, 318000, Note_off_c, 2, 57, 95, 0
2, 318000, Note_off_c, 2, 62, 95, 0
2, 318000, Note_on_c, 2, 55, 95, 0
2, 318120, Note_off_c, 2, 55, 95, 0
2, 318120, Note_on_c, 2, 50, 95, 0
2, 318120, Note_on_c, 2, 59, 95, 0
2, 318240, Note_off_c, 2, 50, 95, 0
2, 318240, Note_off_c, 2, 59, 95, 0
2, 318240, Note_on_c, 2, 67, 95, 0
2, 318720, Note_off_c, 2, 67, 95, 0
2, 318720, Note_on_c, 2, 62, 95, 0
2, 318840, Note_off_c, 2, 62, 95, 0
2, 318840, Note_on_c, 2, 47, 95, 0
2, 319080, Note_off_c, 2, 47, 95, 0
2, 319080, Note_on_c, 2, 64, 95, 0
2, 319560, Note_off_c, 2, 64, 95, 0
2, 319560, Note_on_c, 2, 48, 95, 0
2, 319800, Note_off_c, 2, 48, 95, 0
2, 319800, Note_on_c, 2, 57, 95, 0
2, 319800, Note_on_c, 2, 62, 95, 0
2, 320040, Note_off_c, 2, 57, 95, 0
2, 320040, Note_off_c, 2, 62, 95, 0
2, 320040, Note_on_c, 2, 50, 95, 0
2, 320520, Note_off_c, 2, 50, 95, 0
2, 320520, Note_on_c, 2, 57, 95, 0
2, 320520, Note_on_c, 2, 62, 95, 0
2, 320640, Note_off_c, 2, 57, 95, 0
2, 320640, Note_off_c, 2, 62, 95, 0
2, 320640, Note_on_c, 2, 50, 95, 0
2, 320640, Note_on_c, 2, 55, 95, 0
2, 320880, Note_off_c, 2, 50, 95, 0
2, 320880, Note_off_c, 2, 55, 95, 0
2, 320880, Note_on_c, 2, 48, 95, 0
2, 320880, Note_on_c, 2, 57, 95, 0
2, 321360, Note_off_c, 2, 48, 95, 0
2, 321360, Note_off_c, 2, 57, 95, 0
2, 321360, Note_on_c, 2, 55, 95, 0
2, 321480, Note_off_c, 2, 55, 95, 0
2, 321480, Note_on_c, 2, 47, 95, 0
2, 321720, Note_off_c, 2, 47, 95, 0
2, 321720, Note_on_c, 2, 57, 95, 0
2, 321720, Note_on_c, 2, 62, 95, 0
2, 321840, Note_off_c, 2, 57, 95, 0
2, 321840, Note_off_c, 2, 62, 95, 0
2, 321840, Note_on_c, 2, 50, 95, 0
2, 322320, Note_off_c, 2, 50, 95, 0
2, 322320, Note_on_c, 2, 48, 95, 0
2, 322440, Note_off_c, 2, 48, 95, 0
2, 322440, Note_on_c, 2, 43, 95, 0
2, 322440, Note_on_c, 2, 55, 95, 0
2, 322680, Note_off_c, 2, 43, 95, 0
2, 322680, Note_off_c, 2, 55, 95, 0
2, 322680, Note_on_c, 2, 57, 95, 0
2, 322680, Note_on_c, 2, 62, 95, 0
2, 323160, Note_off_c, 2, 57, 95, 0
2, 323160, Note_off_c, 2, 62, 95, 0
2, 323160, Note_on_c, 2, 50, 95, 0
2, 323160, Note_on_c, 2, 59, 95, 0
2, 323280, Note_off_c, 2, 50, 95, 0
2, 323280, Note_off_c, 2, 59, 95, 0
2, 323280, Note_on_c, 2, 57, 95, 0
2, 323520, Note_off_c, 2, 57, 95, 0
2, 323520, Note_on_c, 2, 45, 95, 0
2, 324000, Note_off_c, 2, 45, 95, 0
2, 324000, Note_on_c, 2, 62, 95, 0
2, 324120, Note_off_c, 2, 62, 95, 0
2, 324120, Note_on_c, 2, 50, 95, 0
2, 324120, Note_on_c, 2, 64, 95, 0
2, 324240, Note_off_c, 2, 50, 95, 0
2, 324240, Note_off_c, 2, 64, 95, 0
2, 324240, Note_on_c, 2, 57, 95, 0
2, 324480, Note_off_c, 2, 57, 95, 0
2, 324480, Note_on_c, 2, 60, 95, 0
2, 324600, Note_off_c, 2, 60, 95, 0
2, 324600, Note_on_c, 2, 59, 95, 0
2, 324720, Note_off_c, 2, 59, 95, 0
2, 324720, Note_on_c, 2, 50, 95, 0
2, 324960, Note_off_c, 2, 50, 95, 0
2, 324960, Note_on_c, 2, 57, 95, 0
2, 324960, Note_on_c, 2, 62, 95, 0
2, 325440, Note_off_c, 2, 57, 95, 0
2, 325440, Note_off_c, 2, 62, 95, 0
2, 325440, Note_on_c, 2, 50, 95, 0
2, 325560, Note_off_c, 2, 50, 95, 0
2, 325560, Note_on_c, 2, 57, 95, 0
2, 325560, Note_on_c, 2, 60, 95, 0
2, 325680, Note_off_c, 2, 57, 95, 0
2, 325680, Note_off_c, 2, 60, 95, 0
2, 325680, Note_on_c, 2, 50, 95, 0
2, 326160, Note_off_c, 2, 50, 95, 0
2, 326160, Note_on_c, 2, 59, 95, 0
2, 326280, Note_off_c, 2, 59, 95, 0
2, 326280, Note_on_c, 2, 55, 95, 0
2, 326400, Note_off_c, 2, 55, 95, 0
2, 326400, Note_on_c, 2, 48, 95, 0
2, 326640, Note_off_c, 2, 48, 95, 0
2, 326640, Note_on_c, 2, 57, 95, 0
2, 326640, Note_on_c, 2, 62, 95, 0
2, 327120, Note_off_c, 2, 57, 95, 0
2, 327120, Note_off_c, 2, 62, 95, 0
2, 327120, Note_on_c, 2, 50, 95, 0
2, 327120, Note_on_c, 2, 59, 95, 0
2, 327240, Note_off_c, 2, 50, 95, 0
2, 327240, Note_off_c, 2, 59, 95, 0
2, 327240, Note_on_c, 2, 55, 95, 0
2, 327480, Note_off_c, 2, 55, 95, 0
2, 327480, Note_on_c, 2, 50, 95, 0
2, 327480, Note_on_c, 2, 55, 95, 0
2, 327720, Note_off_c, 2, 50, 95, 0
2, 327720, Note_off_c, 2, 55, 95, 0
2, 327720, Note_on_c, 2, 47, 95, 0
2, 327840, Note_off_c, 2, 47, 95, 0
2, 327840, Note_on_c, 2, 57, 95, 0
2, 327840, Note_on_c, 2, 62, 95, 0
2, 327960, Note_off_c, 2, 57, 95, 0
2, 327960, Note_off_c, 2, 62, 95, 0
2, 327960, Note_on_c, 2, 50, 95, 0
2, 328080, Note_off_c, 2, 50, 95, 0
2, 328080, Note_on_c, 2, 43, 95, 0
2, 328200, Note_off_c, 2, 43, 95, 0
2, 328200, Note_on_c, 2, 55, 95, 0
2, 328320, Note_off_c, 2, 55, 95, 0
2, 328320, Note_on_c, 2, 50, 95, 0
2, 328560, Note_off_c, 2, 50, 95, 0
2, 328560, Note_on_c, 2, 48, 95, 0
2, 328800, Note_off_c, 2, 48, 95, 0
2, 328800, Note_on_c, 2, 55, 95, 0
2, 329040, Note_off_c, 2, 55, 95, 0
2, 329040, Note_on_c, 2, 59, 95, 0
2, 329280, Note_off_c, 2, 59, 95, 0
2, 329280, Note_on_c, 2, 52, 95, 0
2, 329280, Note_on_c, 2, 67, 95, 0
2, 329400, Note_off_c, 2, 52, 95, 0
2, 329400, Note_off_c, 2, 67, 95, 0
2, 329400, Note_on_c, 2, 62, 95, 0
2, 329880, Note_off_c, 2, 62, 95, 0
2, 329880, Note_on_c, 2, 47, 95, 0
2, 330120, Note_off_c, 2, 47, 95, 0
2, 330120, Note_on_c, 2, 62, 95, 0
2, 330360, Note_off_c, 2, 62, 95, 0
2, 330360, Note_on_c, 2, 48, 95, 0
2, 330840, Note_off_c, 2, 48, 95, 0
2, 330840, Note_on_c, 2, 55, 95, 0
2, 330840, Note_on_c, 2, 57, 95, 0
2, 331320, Note_off_c, 2, 55, 95, 0
2, 331320, Note_off_c, 2, 57, 95, 0
2, 331320, Note_on_c, 2, 50, 95, 0
2, 331800, Note_off_c, 2, 50, 95, 0
2, 331800, Note_on_c, 2, 48, 95, 0
2, 331800, Note_on_c, 2, 57, 95, 0
2, 332040, Note_off_c, 2, 48, 95, 0
2, 332040, Note_off_c, 2, 57, 95, 0
2, 332040, Note_on_c, 2, 50, 95, 0
2, 332040, Note_on_c, 2, 59, 95, 0
2, 332280, Note_off_c, 2, 50, 95, 0
2, 332280, Note_off_c, 2, 59, 95, 0
2, 332280, Note_on_c, 2, 57, 95, 0
2, 332280, Note_on_c, 2, 62, 95, 0
2, 332520, Note_off_c, 2, 57, 95, 0
2, 332520, Note_off_c, 2, 62, 95, 0
2, 332520, Note_on_c, 2, 50, 95, 0
2, 332520, Note_on_c, 2, 55, 95, 0
2, 332640, Note_off_c, 2, 50, 95, 0
2, 332640, Note_off_c, 2, 55, 95, 0
2, 332640, Note_on_c, 2, 57, 95, 0
2, 332880, Note_off_c, 2, 57, 95, 0
2, 332880, Note_on_c, 2, 61, 95, 0
2, 333120, Note_off_c, 2, 61, 95, 0
2, 333120, Note_on_c, 2, 59, 95, 0
2, 333360, Note_off_c, 2, 59, 95, 0
2, 333360, Note_on_c, 2, 50, 95, 0
2, 333480, Note_off_c, 2, 50, 95, 0
2, 333480, Note_on_c, 2, 57, 95, 0
2, 333480, Note_on_c, 2, 62, 95, 0
2, 333600, Note_off_c, 2, 57, 95, 0
2, 333600, Note_off_c, 2, 62, 95, 0
2, 333600, Note_on_c, 2, 50, 95, 0
2, 333840, Note_off_c, 2, 50, 95, 0
2, 333840, Note_on_c, 2, 57, 95, 0
2, 333840, Note_on_c, 2, 60, 95, 0
2, 333960, Note_off_c, 2, 57, 95, 0
2, 333960, Note_off_c, 2, 60, 95, 0
2, 333960, Note_on_c, 2, 61, 95, 0
2, 334200, Note_off_c, 2, 61, 95, 0
2, 334200, Note_on_c, 2, 47, 95, 0
2, 334200, Note_on_c, 2, 59, 95, 0
2, 334440, Note_off_c, 2, 47, 95, 0
2, 334440, Note_off_c, 2, 59, 95, 0
2, 334560, Note_on_c, 2, 55, 95, 0
2, 334560, Note_on_c, 2, 62, 95, 0
2, 335040, Note_off_c, 2, 55, 95, 0
2, 335040, Note_off_c, 2, 62, 95, 0
2, 335040, Note_on_c, 2, 59, 95, 0
2, 335160, Note_off_c, 2, 59, 95, 0
2, 335160, Note_on_c, 2, 59, 95, 0
2, 335400, Note_off_c, 2, 59, 95, 0
2, 335400, Note_on_c, 2, 50, 95, 0
2, 335640, Note_off_c, 2, 50, 95, 0
2, 335640, Note_on_c, 2, 62, 95, 0
2, 335760, Note_off_c, 2, 62, 95, 0
2, 335760, Note_on_c, 2, 55, 95, 0
2, 335760, Note_on_c, 2, 64, 95, 0
2, 336000, Note_off_c, 2, 55, 95, 0
2, 336000, Note_off_c, 2, 64, 95, 0
2, 336000, Note_on_c, 2, 57, 95, 0
2, 336480, Note_off_c, 2, 57, 95, 0
2, 336480, Note_on_c, 2, 50, 95, 0
2, 336720, Note_off_c, 2, 50, 95, 0
2, 336720, Note_on_c, 2, 59, 95, 0
2, 336720, Note_on_c, 2, 62, 95, 0
2, 337200, Note_off_c, 2, 59, 95, 0
2, 337200, Note_off_c, 2, 62, 95, 0
2, 337200, Note_on_c, 2, 55, 95, 0
2, 337200, Note_on_c, 2, 64, 95, 0
2, 337680, Note_off_c, 2, 55, 95, 0
2, 337680, Note_off_c, 2, 64, 95, 0
2, 337680, Note_on_c, 2, 57, 95, 0
2, 337800, Note_off_c, 2, 57, 95, 0
2, 337800, Note_on_c, 2, 45, 95, 0
2, 337800, Note_on_c, 2, 60, 95, 0
2, 338280, Note_off_c, 2, 45, 95, 0
2, 338280, Note_off_c, 2, 60, 95, 0
2, 338280, Note_on_c, 2, 59, 95, 0
2, 338760, Note_off_c, 2, 59, 95, 0
2, 338760, Note_on_c, 2, 50, 95, 0
2, 338880, Note_off_c, 2, 50, 95, 0
2, 338880, Note_on_c, 2, 48, 95, 0
2, 339000, Note_off_c, 2, 48, 95, 0
2, 339000, Note_on_c, 2, 55, 95, 0
2, 339480, Note_off_c, 2, 55, 95, 0
2, 339480, Note_on_c, 2, 47, 95, 0
2, 339960, Note_off_c, 2, 47, 95, 0
2, 339960, Note_on_c, 2, 57, 95, 0
2, 339960, Note_on_c, 2, 62, 95, 0
2, 340200, Note_off_c, 2, 57, 95, 0
2, 340200, Note_off_c, 2, 62, 95, 0
2, 340200, Note_on_c, 2, 50, 95, 0
2, 340200, Note_on_c, 2, 55, 95, 0
2, 340680, Note_off_c, 2, 50, 95, 0
2, 340680, Note_off_c, 2, 55, 95, 0
2, 340680, Note_on_c, 2, 57, 95, 0
2, 340800, Note_off_c, 2, 57, 95, 0
2, 340800, Note_on_c, 2, 60, 95, 0
2, 340800, Note_on_c, 2, 61, 95, 0
2, 341040, Note_off_c, 2, 60, 95, 0
2, 341040, Note_off_c, 2, 61, 95, 0
2, 341040, Note_on_c, 2, 59, 95, 0
2, 341160, Note_off_c, 2, 59, 95, 0
2, 341160, Note_on_c, 2, 50, 95, 0
2, 341160, Note_on_c, 2, 55, 95, 0
2, 341280, Note_off_c, 2, 50, 95, 0
2, 341280, Note_off_c, 2, 55, 95, 0
2, 341280, Note_on_c, 2, 57, 95, 0
2, 341280, Note_on_c, 2, 62, 95, 0
2, 341520, Note_off_c, 2, 57, 95, 0
2, 341520, Note_off_c, 2, 62, 95, 0
2, 341520, Note_on_c, 2, 59, 95, 0
2, 341520, Note_on_c, 2, 60, 95, 0
2, 341520, Note_on_c, 2, 62, 95, 0
2, 342000, Note_off_c, 2, 59, 95, 0
2, 342000, Note_off_c, 2, 60, 95, 0
2, 342000, Note_off_c, 2, 62, 95, 0
2, 342000, Note_on_c, 2, 64, 95, 0
2, 342240, Note_off_c, 2, 64, 95, 0
2, 342240, Note_on_c, 2, 45, 95, 0
2, 342240, Note_on_c, 2, 50, 95, 0
2, 342720, Note_off_c, 2, 45, 95, 0
2, 342720, Note_off_c, 2, 50, 95, 0
2, 342720, Note_on_c, 2, 62, 95, 0
2, 342840, Note_off_c, 2, 62, 95, 0
2, 342840, Note_on_c, 2, 55, 95, 0
2, 343320, Note_off_c, 2, 55, 95, 0
2, 343320, Note_on_c, 2, 57, 95, 0
2, 343560, Note_off_c, 2, 57, 95, 0
2, 343560, Note_on_c, 2, 50, 95, 0
2, 344040, Note_off_c, 2, 50, 95, 0
2, 344040, Note_on_c, 2, 57, 95, 0
2, 344040, Note_on_c, 2, 62, 95, 0
2, 344280, Note_off_c, 2, 57, 95, 0
2, 344280, Note_off_c, 2, 62, 95, 0
2, 344280, Note_on_c, 2, 55, 95, 0
2, 344400, Note_off_c, 2, 55, 95, 0
2, 344400, Note_on_c, 2, 47, 95, 0
2, 344400, Note_on_c, 2, 57, 95, 0
2, 344880, Note_off_c, 2, 47, 95, 0
2, 344880, Note_off_c, 2, 57, 95, 0
2, 344880, Note_on_c, 2, 50, 95, 0
2, 345120, Note_off_c, 2, 50, 95, 0
2, 345120, Note_on_c, 2, 59, 95, 0
2, 345120, Note_on_c, 2, 62, 95, 0
2, 345240, Note_off_c, 2, 59, 95, 0
2, 345240, Note_off_c, 2, 62, 95, 0
2, 345240, Note_on_c, 2, 55, 95, 0
2, 345480, Note_off_c, 2, 55, 95, 0
2, 345600, Note_on_c, 2, 50, 95, 0
2, 345600, Note_on_c, 2, 61, 95, 0
2, 345720, Note_off_c, 2, 50, 95, 0
2, 345720, Note_off_c, 2, 61, 95, 0
2, 345720, Note_on_c, 2, 50, 95, 0
2, 345840, Note_off_c, 2, 50, 95, 0
2, 346080, Note_on_c, 2, 48, 95, 0
2, 346080, Note_on_c, 2, 52, 95, 0
2, 346320, Note_off_c, 2, 48, 95, 0
2, 346320, Note_off_c, 2, 52, 95, 0
2, 346320, Note_on_c, 2, 57, 95, 0
2, 346800, Note_off_c, 2, 57, 95, 0
2, 346800, Note_on_c, 2, 60, 95, 0
2, 347040, Note_off_c, 2, 60, 95, 0
2, 347040, Note_on_c, 2, 52, 95, 0
2, 347040, Note_on_c, 2, 59, 95, 0
2, 347520, Note_off_c, 2, 52, 95, 0
2, 347520, Note_off_c, 2, 59, 95, 0
2, 347520, Note_on_c, 2, 43, 95, 0
2, 347520, Note_on_c, 2, 55, 95, 0
2, 348000, Note_off_c, 2, 43, 95, 0
2, 348000, Note_off_c, 2, 55, 95, 0
2, 348000, Note_on_c, 2, 55, 95, 0
2, 348120, Note_off_c, 2, 55, 95, 0
2, 348120, Note_on_c, 2, 52, 95, 0
2, 348600, Note_off_c, 2, 52, 95, 0
2, 348600, Note_on_c, 2, 48, 95, 0
2, 349080, Note_off_c, 2, 48, 95, 0
2, 349080, Note_on_c, 2, 57, 95, 0
2, 349080, Note_on_c, 2, 62, 95, 0
2, 349200, Note_off_c, 2, 57, 95, 0
2, 349200, Note_off_c, 2, 62, 95, 0
2, 349200, Note_on_c, 2, 59, 95, 0
2, 349320, Note_off_c, 2, 59, 95, 0
2, 349320, Note_on_c, 2, 64, 95, 0
2, 349560, Note_off_c, 2, 64, 95, 0
2, 349560, Note_on_c, 2, 50, 95, 0
2, 349680, Note_off_c, 2, 50, 95, 0
2, 349680, Note_on_c, 2, 59, 95, 0
2, 349920, Note_off_c, 2, 59, 95, 0
2, 349920, Note_on_c, 2, 55, 95, 0
2, 350400, Note_off_c, 2, 55, 95, 0
2, 350400, Note_on_c, 2, 59, 95, 0
2, 350640, Note_off_c, 2, 59, 95, 0
2, 350640, Note_on_c, 2, 50, 95, 0
2, 350760, Note_off_c, 2, 50, 95, 0
2, 350760, Note_on_c, 2, 48, 95, 0
2, 350760, Note_on_c, 2, 62, 95, 0
2, 351240, Note_off_c, 2, 48, 95, 0
2, 351240, Note_off_c, 2, 62, 95, 0
2, 351240, Note_on_c, 2, 55, 95, 0
2, 351720, Note_off_c, 2, 55, 95, 0
2, 351720, Note_on_c, 2, 59, 95, 0
2, 351840, Note_off_c, 2, 59, 95, 0
2, 351960, Note_on_c, 2, 62, 95, 0
2, 352200, Note_off_c, 2, 62, 95, 0
2, 352200, Note_on_c, 2, 47, 95, 0
2, 352320, Note_off_c, 2, 47, 95, 0
2, 352320, Note_on_c, 2, 64, 95, 0
2, 352560, Note_off_c, 2, 64, 95, 0
2, 352560, Note_on_c, 2, 48, 95, 0
2, 352560, Note_on_c, 2, 55, 95, 0
2, 353040, Note_off_c, 2, 48, 95, 0
2, 353040, Note_off_c, 2, 55, 95, 0
2, 353040, Note_on_c, 2, 57, 95, 0
2, 353160, Note_off_c, 2, 57, 95, 0
2, 353160, Note_on_c, 2, 50, 95, 0
2, 353160, Note_on_c, 2, 60, 95, 0
2, 353400, Note_off_c, 2, 50, 95, 0
2, 353400, Note_off_c, 2, 60, 95, 0
2, 353400, Note_on_c, 2, 59, 95, 0
2, 353400, Note_on_c, 2, 62, 95, 0
2, 353520, Note_off_c, 2, 59, 95, 0
2, 353520, Note_off_c, 2, 62, 95, 0
2, 353520, Note_on_c, 2, 55, 95, 0
2, 353760, Note_off_c, 2, 55, 95, 0
2, 353760, Note_on_c, 2, 47, 95, 0
2, 354240, Note_off_c, 2, 47, 95, 0
2, 354240, Note_on_c, 2, 45, 95, 0
2, 354720, Note_off_c, 2, 45, 95, 0
2, 354720, Note_on_c, 2, 55, 95, 0
2, 354720, Note_on_c, 2, 62, 95, 0
2, 355200, Note_off_c, 2, 55, 95, 0
2, 355200, Note_off_c, 2, 62, 95, 0
2, 355200, Note_on_c, 2, 59, 95, 0
2, 355320, Note_off_c, 2, 59, 95, 0
2, 355560, Note_on_c, 2, 50, 95, 0
2, 356040, Note_off_c, 2, 50, 95, 0
2, 356040, Note_on_c, 2, 62, 95, 0
2, 356520, Note_off_c, 2, 62, 95, 0
2, 356520, Note_on_c, 2, 55, 95, 0
2, 356640, Note_off_c, 2, 55, 95, 0
2, 356640, Note_on_c, 2, 47, 95, 0
2, 356640, Note_on_c, 2, 57, 95, 0
2, 356760, Note_off_c, 2, 47, 95, 0
2, 356760, Note_off_c, 2, 57, 95, 0
2, 356760, Note_on_c, 2, 45, 95, 0
2, 356880, Note_off_c, 2, 45, 95, 0
2, 356880, Note_on_c, 2, 62, 95, 0
2, 357120, Note_off_c, 2, 62, 95, 0
2, 357120, Note_on_c, 2, 60, 95, 0
2, 357120, Note_on_c, 2, 62, 95, 0
2, 357360, Note_off_c, 2, 60, 95, 0
2, 357360, Note_off_c, 2, 62, 95, 0
2, 357360, Note_on_c, 2, 62, 95, 0
2, 357360, Note_on_c, 2, 64, 95, 0
2, 357840, Note_off_c, 2, 62, 95, 0
2, 357840, Note_off_c, 2, 64, 95, 0
2, 357840, Note_on_c, 2, 50, 95, 0
2, 357960, Note_off_c, 2, 50, 95, 0
2, 357960, Note_on_c, 2, 59, 95, 0
2, 357960, Note_on_c, 2, 62, 95, 0
2, 358080, Note_off_c, 2, 59, 95, 0
2, 358080, Note_off_c, 2, 62, 95, 0
2, 358080, Note_on_c, 2, 55, 95, 0
2, 358200, Note_off_c, 2, 55, 95, 0
2, 358200, Note_on_c, 2, 57, 95, 0
2, 358680, Note_off_c, 2, 57, 95, 0
2, 358680, Note_on_c, 2, 50, 95, 0
2, 359160, Note_off_c, 2, 50, 95, 0
2, 359160, Note_on_c, 2, 59, 95, 0
2, 359160, Note_on_c, 2, 62, 95, 0
2, 359400, Note_off_c, 2, 59, 95, 0
2, 359400, Note_off_c, 2, 62, 95, 0
2, 359400, Note_on_c, 2, 55, 95, 0
2, 359880, Note_off_c, 2, 55, 95, 0
2, 359880, Note_on_c, 2, 47, 95, 0
2, 359880, Note_on_c, 2, 57, 95, 0
2, 360360, Note_off_c, 2, 47, 95, 0
2, 360360, Note_off_c, 2, 57, 95, 0
2, 360360, Note_on_c, 2, 50, 95, 0
2, 360840, Note_off_c, 2, 50, 95, 0
2, 360840, Note_on_c, 2, 62, 95, 0
2, 361080, Note_off_c, 2, 62, 95, 0
2, 361080, Note_on_c, 2, 55, 95, 0
2, 361320, Note_off_c, 2, 55, 95, 0
2, 361320, Note_on_c, 2, 57, 95, 0
2, 361440, Note_off_c, 2, 57, 95, 0
2, 361440, Note_on_c, 2, 50, 95, 0
2, 361920, Note_off_c, 2, 50, 95, 0
2, 361920, Note_on_c, 2, 59, 95, 0
2, 361920, Note_on_c, 2, 62, 95, 0
2, 362040, Note_off_c, 2, 59, 95, 0
2, 362040, Note_off_c, 2, 62, 95, 0
2, 362040, Note_on_c, 2, 55, 95, 0
2, 362280, Note_off_c, 2, 55, 95, 0
2, 362280, Note_on_c, 2, 47, 95, 0
2, 362280, Note_on_c, 2, 57, 95, 0
2, 362520, Note_off_c, 2, 47, 95, 0
2, 362520, Note_off_c, 2, 57, 95, 0
2, 362520, Note_on_c, 2, 50, 95, 0
2, 363000, Note_off_c, 2, 50, 95, 0
2, 363000, Note_on_c, 2, 62, 95, 0
2, 363240, Note_off_c, 2, 62, 95, 0
2, 363240, Note_on_c, 2, 55, 95, 0
2, 363480, Note_off_c, 2, 55, 95, 0
2, 363480, Note_on_c, 2, 57, 95, 0
2, 363720, Note_off_c, 2, 57, 95, 0
2, 363720, Note_on_c, 2, 50, 95, 0
2, 364200, Note_off_c, 2, 50, 95, 0
2, 364200, Note_on_c, 2, 59, 95, 0
2, 364200, Note_on_c, 2, 62, 95, 0
2, 364680, Note_off_c, 2, 59, 95, 0
2, 364680, Note_off_c, 2, 62, 95, 0
2, 364680, Note_on_c, 2, 55, 95, 0
2, 365160, Note_off_c, 2, 55, 95, 0
2, 365160, Note_on_c, 2, 57, 95, 0
2, 365280, Note_off_c, 2, 57, 95, 0
2, 365280, Note_on_c, 2, 50, 95, 0
2, 365400, Note_off_c, 2, 50, 95, 0
2, 365400, Note_on_c, 2, 59, 95, 0
2, 365400, Note_on_c, 2, 62, 95, 0
2, 365640, Note_off_c, 2, 59, 95, 0
2, 365640, Note_off_c, 2, 62, 95, 0
2, 365640, Note_on_c, 2, 55, 95, 0
2, 365880, Note_off_c, 2, 55, 95, 0
2, 365880, Note_on_c, 2, 57, 95, 0
2, 366000, Note_off_c, 2, 57, 95, 0
2, 366000, Note_on_c, 2, 50, 95, 0
2, 366480, Note_off_c, 2, 50, 95, 0
2, 366480, Note_on_c, 2, 59, 95, 0
2, 366480, Note_on_c, 2, 62, 95, 0
2, 366600, Note_off_c, 2, 59, 95, 0
2, 366600, Note_off_c, 2, 62, 95, 0
2, 366600, Note_on_c, 2, 55, 95, 0
2, 366840, Note_off_c, 2, 55, 95, 0
2, 366840, Note_on_c, 2, 57, 95, 0
2, 366960, Note_off_c, 2, 57, 95, 0
2, 366960, Note_on_c, 2, 50, 95, 0
2, 367200, Note_off_c, 2, 50, 95, 0
2, 367200, Note_on_c, 2, 59, 95, 0
2, 367200, Note_on_c, 2, 62, 95, 0
2, 367440, Note_off_c, 2, 59, 95, 0
2, 367440, Note_off_c, 2, 62, 95, 0
2, 367440, Note_on_c, 2, 55, 95, 0
2, 367680, Note_off_c, 2, 55, 95, 0
2, 367680, Note_on_c, 2, 57, 95, 0
2, 367920, Note_off_c, 2, 57, 95, 0
2, 367920, Note_on_c, 2, 50, 95, 0
2, 368160, Note_off_c, 2, 50, 95, 0
2, 368160, Note_on_c, 2, 59, 95, 0
2, 368160, Note_on_c, 2, 62, 95, 0
2, 368280, Note_off_c, 2, 59, 95, 0
2, 368280, Note_off_c, 2, 62, 95, 0
2, 368280, Note_on_c, 2, 55, 95, 0
2, 368760, Note_off_c, 2, 55, 95, 0
2, 368760, Note_on_c, 2, 57, 95, 0
2, 369000, Note_off_c, 2, 57, 95, 0
2, 369000, Note_on_c, 2, 50, 95, 0
2, 369120, Note_off_c, 2, 50, 95, 0
2, 369120, Note_on_c, 2, 59, 95, 0
2, 369120, Note_on_c, 2, 62, 95, 0
2, 369240, Note_off_c, 2, 59, 95, 0
2, 369240, Note_off_c, 2, 62, 95, 0
2, 369240, Note_on_c, 2, 55, 95, 0
2, 369480, Note_off_c, 2, 55, 95, 0
2, 369480, Note_on_c, 2, 57, 95, 0
2, 369600, Note_off_c, 2, 57, 95, 0
2, 369600, Note_on_c, 2, 50, 95, 0
2, 369840, Note_off_c, 2, 50, 95, 0
2, 369840, Note_on_c, 2, 59, 95, 0
2, 369840, Note_on_c, 2, 62, 95, 0
2, 370320, Note_off_c, 2, 59, 95, 0
2, 370320, Note_off_c, 2, 62, 95, 0
2, 370320, Note_on_c, 2, 55, 95, 0
2, 370560, Note_off_c, 2, 55, 95, 0
2, 370560, Note_on_c, 2, 57, 95, 0
2, 370680, Note_off_c, 2, 57, 95, 0
2, 370680, Note_on_c, 2, 50, 95, 0
2, 370800, Note_off_c, 2, 50, 95, 0
2, 370800, Note_on_c, 2, 59, 95, 0
2, 370800, Note_on_c, 2, 62, 95, 0
2, 371280, Note_off_c, 2, 59, 95, 0
2, 371280, Note_off_c, 2, 62, 95, 0
2, 371280, Note_on_c, 2, 55, 95, 0
2, 371520, Note_off_c, 2, 55, 95, 0
2, 371520, Note_on_c, 2, 57, 95, 0
2, 372000, Note_off_c, 2, 57, 95, 0
2, 372000, Note_on_c, 2, 50, 95, 0
2, 372240, Note_off_c, 2, 50, 95, 0
2, 372240, Note_on_c, 2, 59, 95, 0
2, 372240, Note_on_c, 2, 62, 95, 0
2, 372480, Note_off_c, 2, 59, 95, 0
2, 372480, Note_off_c, 2, 62, 95, 0
2, 372480, Note_on_c, 2, 55, 95, 0
2, 372600, Note_off_c, 2, 55, 95, 0
2, 372600, Note_on_c, 2, 57, 95, 0
2, 372840, Note_off_c, 2, 57, 95, 0
2, 372840, Note_on_c, 2, 50, 95, 0
2, 373080, Note_off_c, 2, 50, 95, 0
2, 373080, Note_on_c, 2, 59, 95, 0
2, 373080, Note_on_c, 2, 62, 95, 0
2, 373560, Note_off_c, 2, 59, 95, 0
2, 373560, Note_off_c, 2, 62, 95, 0
2, 373560, Note_on_c, 2, 55, 95, 0
2, 373680, Note_off_c, 2, 55, 95, 0
2, 373680, Note_on_c, 2, 57, 95, 0
2, 374160, Note_off_c, 2, 57, 95, 0
2, 374160, Note_on_c, 2, 50, 95, 0
2, 374280, Note_off_c, 2, 50, 95, 0
2, 374280, Note_on_c, 2, 59, 95, 0
2, 374280, Note_on_c, 2, 62, 95, 0
2, 374400, Note_off_c, 2, 59, 95, 0
2, 374400, Note_off_c, 2, 62, 95, 0
2, 374400, Note_on_c, 2, 55, 95, 0
2, 374520, Note_off_c, 2, 55, 95, 0
2, 374520, Note_on_c, 2, 57, 95, 0
2, 374640, Note_off_c, 2, 57, 95, 0
2, 374640, Note_on_c, 2, 50, 95, 0
2, 374760, Note_off_c, 2, 50, 95, 0
2, 374760, Note_on_c, 2, 59, 95, 0
2, 374760, Note_on_c, 2, 62, 95, 0
2, 375000, Note_off_c, 2, 59, 95, 0
2, 375000, Note_off_c, 2, 62, 95, 0
2, 375000, Note_on_c, 2, 55, 95, 0
2, 375120, Note_off_c, 2, 55, 95, 0
2, 375120, Note_on_c, 2, 57, 95, 0
2, 375360, Note_off_c, 2, 57, 95, 0
2, 375360, Note_on_c, 2, 50, 95, 0
2, 375840, Note_off_c, 2, 50, 95, 0
2, 375840, Note_on_c, 2, 59, 95, 0
2, 375840, Note_on_c, 2, 62, 95, 0
2, 376320, Note_off_c, 2, 59, 95, 0
2, 376320, Note_off_c, 2, 62, 95, 0
2, 376320, Note_on_c, 2, 55, 95, 0
2, 376560, Note_off_c, 2, 55, 95, 0
2, 376560, Note_on_c, 2, 57, 95, 0
2, 376800, Note_off_c, 2, 57, 95, 0
2, 376800, Note_on_c, 2, 50, 95, 0
2, 377280, Note_off_c, 2, 50, 95, 0
2, 377280, Note_on_c, 2, 59, 95, 0
2, 377280, Note_on_c, 2, 62, 95, 0
2, 377400, Note_off_c, 2, 59, 95, 0
2, 377400, Note_off_c, 2, 62, 95, 0
2, 377400, Note_on_c, 2, 55, 95, 0
2, 377640, Note_off_c, 2, 55, 95, 0
2, 377640, Note_on_c, 2, 57, 95, 0
2, 377760, Note_off_c, 2, 57, 95, 0
2, 377760, Note_on_c, 2, 50, 95, 0
2, 377880, Note_off_c, 2, 50, 95, 0
2, 377880, Note_on_c, 2, 59, 95, 0
2, 377880, Note_on_c, 2, 62, 95, 0
2, 378120, Note_off_c, 2, 59, 95, 0
2, 378120, Note_off_c, 2, 62, 95, 0
2, 378120, Note_on_c, 2, 55, 95, 0
2, 378600, Note_off_c, 2, 55, 95, 0
2, 378600, Note_on_c, 2, 57, 95, 0
2, 378840, Note_off_c, 2, 57, 95, 0
2, 378840, Note_on_c, 2, 50, 95, 0
2, 378960, Note_off_c, 2, 50, 95, 0
2, 378960, Note_on_c, 2, 59, 95, 0
2, 378960, Note_on_c, 2, 62, 95, 0
2, 379200, Note_off_c, 2, 59, 95, 0
2, 379200, Note_off_c, 2, 62, 95, 0
2, 379200, Note_on_c, 2, 55, 95, 0
2, 379320, Note_off_c, 2, 55, 95, 0
2, 379320, Note_on_c, 2, 57, 95, 0
2, 379560, Note_off_c, 2, 57, 95, 0
2, 379560, Note_on_c, 2, 50, 95, 0
2, 379680, Note_off_c, 2, 50, 95, 0
2, 379680, Note_on_c, 2, 59, 95, 0
2, 379680, Note_on_c, 2, 62, 95, 0
2, 379920, Note_off_c, 2, 59, 95, 0
2, 379920, Note_off_c, 2, 62, 95, 0
2, 379920, Note_on_c, 2, 55, 95, 0
2, 380160, Note_off_c, 2, 55, 95, 0
2, 380160, Note_on_c, 2, 57, 95, 0
2, 380400, Note_off_c, 2, 57, 95, 0
2, 380400, Note_on_c, 2, 50, 95, 0
2, 380640, Note_off_c, 2, 50, 95, 0
2, 380640, Note_on_c, 2, 59, 95, 0
2, 380640, Note_on_c, 2, 62, 95, 0
2, 381120, Note_off_c, 2, 59, 95, 0
2, 381120, Note_off_c, 2, 62, 95, 0
2, 381120, Note_on_c, 2, 55, 95, 0
2, 381360, Note_off_c, 2, 55, 95, 0
2, 381360, Note_on_c, 2, 57, 95, 0
2, 381600, Note_off_c, 2, 57, 95, 0
2, 381600, Note_on_c, 2, 50, 95, 0
2, 381720, Note_off_c, 2, 50, 95, 0
2, 381720, Note_on_c, 2, 59, 95, 0
2, 381720, Note_on_c, 2, 62, 95, 0
2, 381960, Note_off_c, 2, 59, 95, 0
2, 381960, Note_off_c, 2, 62, 95, 0
2, 381960, Note_on_c, 2, 55, 95, 0
2, 382200, Note_off_c, 2, 55, 95, 0
2, 382200, Note_on_c, 2, 57, 95, 0
2, 382440, Note_off_c, 2, 57, 95, 0
2, 382440, Note_on_c, 2, 50, 95, 0
2, 382680, Note_off_c, 2, 50, 95, 0
2, 382680, Note_on_c, 2, 59, 95, 0
2, 382680, Note_on_c, 2, 62, 95, 0
2, 383160, Note_off_c, 2, 59, 95, 0
2, 383160, Note_off_c, 2, 62, 95, 0
2, 383160, Note_on_c, 2, 55, 95, 0
2, 383400, Note_off_c, 2, 55, 95, 0
2, 383400, Note_on_c, 2, 57, 95, 0
2, 383520, Note_off_c, 2, 57, 95, 0
2, 383520, Note_on_c, 2, 50, 95, 0
2, 383760, Note_off_c, 2, 50, 95, 0
2, 383760, Note_on_c, 2, 59, 95, 0
2, 383760, Note_on_c, 2, 62, 95, 0
2, 384000, Note_off_c, 2, 59, 95, 0
2, 384000, Note_off_c, 2, 62, 95, 0
2, 384000, Note_on_c, 2, 55, 95, 0
2, 384480, Note_off_c, 2, 55, 95, 0
2, 384480, Note_on_c, 2, 57, 95, 0
2, 384600, Note_off_c, 2, 57, 95, 0
2, 384600, Note_on_c, 2, 50, 95, 0
2, 385080, Note_off_c, 2, 50, 95, 0
2, 385080, Note_on_c, 2, 59, 95, 0
2, 385080, Note_on_c, 2, 62, 95, 0
2, 385320, Note_off_c, 2, 59, 95, 0
2, 385320, Note_off_c, 2, 62, 95, 0
2, 385320, Note_on_c, 2, 55, 95, 0
2, 385560, Note_off_c, 2, 55, 95, 0
2, 385560, Note_on_c, 2, 57, 95, 0
2, 386040, Note_off_c, 2, 57, 95, 0
2, 386040, Note_on_c, 2, 50, 95, 0
2, 386160, Note_off_c, 2, 50, 95, 0
2, 386160, Note_on_c, 2, 59, 95, 0
2, 386160, Note_on_c, 2, 62, 95, 0
2, 386640, Note_off_c, 2, 59, 95, 0
2, 386640, Note_off_c, 2, 62, 95, 0
2, 386640, Note_on_c, 2, 55, 95, 0
2, 387120, Note_off_c, 2, 55, 95, 0
2, 387120, Note_on_c, 2, 57, 95, 0
2, 387600, Note_off_c, 2, 57, 95, 0
2, 387600, Note_on_c, 2, 50, 95, 0
2, 387840, Note_off_c, 2, 50, 95, 0
2, 387840, Note_on_c, 2, 59, 95, 0
2, 387840, Note_on_c, 2, 62, 95, 0
2, 388320, Note_off_c, 2, 59, 95, 0
2, 388320, Note_off_c, 2, 62, 95, 0
2, 388320, Note_on_c, 2, 55, 95, 0
2, 388800, Note_off_c, 2, 55, 95, 0
2, 388800, Note_on_c, 2, 57, 95, 0
2, 389280, Note_off_c, 2, 57, 95, 0
2, 389280, Note_on_c, 2, 50, 95, 0
2, 389400, Note_off_c, 2, 50, 95, 0
2, 389400, Note_on_c, 2, 59, 95, 0
2, 389400, Note_on_c, 2, 62, 95, 0
2, 389880, Note_off_c, 2, 59, 95, 0
2, 389880, Note_off_c, 2, 62, 95, 0
2, 389880, Note_on_c, 2, 55, 95, 0
2, 390360, Note_off_c, 2, 55, 95, 0
2, 390360, Note_on_c, 2, 57, 95, 0
2, 390600, Note_off_c, 2, 57, 95, 0
2, 390600, Note_on_c, 2, 50, 95, 0
2, 390720, Note_off_c, 2, 50, 95, 0
2, 390720, Note_on_c, 2, 59, 95, 0
2, 390720, Note_on_c, 2, 62, 95, 0
2, 390960, Note_off_c, 2, 59, 95, 0
2, 390960, Note_off_c, 2, 62, 95, 0
2, 390960, Note_on_c, 2, 55, 95, 0
2, 391440, Note_off_c, 2, 55, 95, 0
2, 391440, Note_on_c, 2, 57, 95, 0
2, 391920, Note_off_c, 2, 57, 95, 0
2, 391920, Note_on_c, 2, 50, 95, 0
2, 392160, Note_off_c, 2, 50, 95, 0
2, 392160, Note_on_c, 2, 59, 95, 0
2, 392160, Note_on_c, 2, 62, 95, 0
2, 392280, Note_off_c, 2, 59, 95, 0
2, 392280, Note_off_c, 2, 62, 95, 0
2, 392280, Note_on_c, 2, 55, 95, 0
2, 392760, Note_off_c, 2, 55, 95, 0
2, 392760, Note_on_c, 2, 57, 95, 0
2, 393240, Note_off_c, 2, 57, 95, 0
2, 393240, Note_on_c, 2, 50, 95, 0
2, 393720, Note_off_c, 2, 50, 95, 0
2, 393720, Note_on_c, 2, 59, 95, 0
2, 393720, Note_on_c, 2, 62, 95, 0
2, 394200, Note_off_c, 2, 59, 95, 0
2, 394200, Note_off_c, 2, 62, 95, 0
2, 394200, Note_on_c, 2, 55, 95, 0
2, 394440, Note_off_c, 2, 55, 95, 0
2, 394440, Note_on_c, 2, 57, 95, 0
2, 394920, Note_off_c, 2, 57, 95, 0
2, 394920, Note_on_c, 2, 50, 95, 0
2, 395040, Note_off_c, 2, 50, 95, 0
2, 395040, Note_on_c, 2, 59, 95, 0
2, 395040, Note_on_c, 2, 62, 95, 0
2, 395280, Note_off_c, 2, 59, 95, 0
2, 395280, Note_off_c, 2, 62, 95, 0
2, 395280, Note_on_c, 2, 55, 95, 0
2, 395760, Note_off_c, 2, 55, 95, 0
2, 395760, Note_on_c, 2, 57, 95, 0
2, 396000, Note_off_c, 2, 57, 95, 0
2, 396000, Note_on_c, 2, 50, 95, 0
2, 396120, Note_off_c, 2, 50, 95, 0
2, 396120, Note_on_c, 2, 59, 95, 0
2, 396120, Note_on_c, 2, 62, 95, 0
2, 396600, Note_off_c, 2, 59, 95, 0
2, 396600, Note_off_c, 2, 62, 95, 0
2, 396600, Note_on_c, 2, 55, 95, 0
2, 396840, Note_off_c, 2, 55, 95, 0
2, 396840, Note_on_c, 2, 57, 95, 0
2, 396960, Note_off_c, 2, 57, 95, 0
2, 396960, Note_on_c, 2, 50, 95, 0
2, 397440, Note_off_c, 2, 50, 95, 0
2, 397440, Note_on_c, 2, 59, 95, 0
2, 397440, Note_on_c, 2, 62, 95, 0
2, 397920, Note_off_c, 2, 59, 95, 0
2, 397920, Note_off_c, 2, 62, 95, 0
2, 397920, Note_on_c, 2, 55, 95, 0
2, 398160, Note_off_c, 2, 55, 95, 0
2, 398160, Note_on_c, 2, 57, 95, 0
2, 398640, Note_off_c, 2, 57, 95, 0
2, 398640, Note_on_c, 2, 50, 95, 0
2, 398760, Note_off_c, 2, 50, 95, 0
2, 398760, Note_on_c, 2, 59, 95, 0
2, 398760, Note_on_c, 2, 62, 95, 0
2, 399000, Note_off_c, 2, 59, 95, 0
2, 399000, Note_off_c, 2, 62, 95, 0
2, 399000, Note_on_c, 2, 55, 95, 0
2, 399120, Note_off_c, 2, 55, 95, 0
2, 399120, Note_on_c, 2, 57, 95, 0
2, 399600, Note_off_c, 2, 57, 95, 0
2, 399600, Note_on_c, 2, 50, 95, 0
2, 399720, Note_off_c, 2, 50, 95, 0
2, 399720, Note_on_c, 2, 59, 95, 0
2, 399720, Note_on_c, 2, 62, 95, 0
2, 399840, Note_off_c, 2, 59, 95, 0
2, 399840, Note_off_c, 2, 62, 95, 0
2, 399840, Note_on_c, 2, 55, 95, 0
2, 400080, Note_off_c, 2, 55, 95, 0
2, 400080, Note_on_c, 2, 57, 95, 0
2, 400320, Note_off_c, 2, 57, 95, 0
2, 400320, Note_on_c, 2, 50, 95, 0
2, 400560, Note_off_c, 2, 50, 95, 0
2, 400560, Note_on_c, 2, 59, 95, 0
2, 400560, Note_on_c, 2, 62, 95, 0
2, 400680, Note_off_c, 2, 59, 95, 0
2, 400680, Note_off_c, 2, 62, 95, 0
2, 400680, Note_on_c, 2, 55, 95, 0
2, 400800, Note_off_c, 2, 55, 95, 0
2, 400800, Note_on_c, 2, 57, 95, 0
2, 401280, Note_off_c, 2, 57, 95, 0
2, 401280, Note_on_c, 2, 50, 95, 0
2, 401760, Note_off_c, 2, 50, 95, 0
2, 401760, Note_on_c, 2, 59, 95, 0
2, 401760, Note_on_c, 2, 62, 95, 0
2, 402000, Note_off_c, 2, 59, 95, 0
2, 402000, Note_off_c, 2, 62, 95, 0
2, 402000, Note_on_c, 2, 55, 95, 0
2, 402240, Note_off_c, 2, 55, 95, 0
2, 402240, Note_on_c, 2, 57, 95, 0
2, 402480, Note_off_c, 2, 57, 95, 0
2, 402480, Note_on_c, 2, 50, 95, 0
2, 402600, Note_off_c, 2, 50, 95, 0
2, 402600, Note_on_c, 2, 59, 95, 0
2, 402600, Note_on_c, 2, 62, 95, 0
2, 402840, Note_off_c, 2, 59, 95, 0
2, 402840, Note_off_c, 2, 62, 95, 0
2, 402840, Note_on_c, 2, 55, 95, 0
2, 402960, Note_off_c, 2, 55, 95, 0
2, 402960, Note_on_c, 2, 57, 95, 0
2, 403080, Note_off_c, 2, 57, 95, 0
2, 403080, Note_on_c, 2, 50, 95, 0
2, 403200, Note_off_c, 2, 50, 95, 0
2, 403200, Note_on_c, 2, 59, 95, 0
2, 403200, Note_on_c, 2, 62, 95, 0
2, 403320, Note_off_c, 2, 59, 95, 0
2, 403320, Note_off_c, 2, 62, 95, 0
2, 403320, Note_on_c, 2, 55, 95, 0
2, 403800, Note_off_c, 2, 55, 95, 0
2, 403800, Note_on_c, 2, 57, 95, 0
2, 403920, Note_off_c, 2, 57, 95, 0
2, 403920, Note_on_c, 2, 50, 95, 0
2, 404160, Note_off_c, 2, 50, 95, 0
2, 404160, Note_on_c, 2, 59, 95, 0
2, 404160, Note_on_c, 2, 62, 95, 0
2, 404640, Note_off_c, 2, 59, 95, 0
2, 404640, Note_off_c, 2, 62, 95, 0
2, 404640, Note_on_c, 2, 55, 95, 0
2, 404760, Note_off_c, 2, 55, 95, 0
2, 404760, Note_on_c, 2, 57, 95, 0
2, 404880, Note_off_c, 2, 57, 95, 0
2, 404880, Note_on_c, 2, 50, 95, 0
2, 405000, Note_off_c, 2, 50, 95, 0
2, 405000, Note_on_c, 2, 59, 95, 0
2, 405000, Note_on_c, 2, 62, 95, 0
2, 405480, Note_off_c, 2, 59, 95, 0
2, 405480, Note_off_c, 2, 62, 95, 0
2, 405480, Note_on_c, 2, 55, 95, 0
2, 405600, Note_off_c, 2, 55, 95, 0
2, 405600, Note_on_c, 2, 57, 95, 0
2, 405840, Note_off_c, 2, 57, 95, 0
2, 405840, Note_on_c, 2, 50, 95, 0
2, 406320, Note_off_c, 2, 50, 95, 0
2, 406320, Note_on_c, 2, 59, 95, 0
2, 406320, Note_on_c, 2, 62, 95, 0
2, 406440, Note_off_c, 2, 59, 95, 0
2, 406440, Note_off_c, 2, 62, 95, 0
2, 406440, Note_on_c, 2, 55, 95, 0
2, 406560, Note_off_c, 2, 55, 95, 0
2, 406560, Note_on_c, 2, 57, 95, 0
2, 406800, Note_off_c, 2, 57, 95, 0
2, 406800, Note_on_c, 2, 50, 95, 0
2, 407280, Note_off_c, 2, 50, 95, 0
2, 407280, Note_on_c, 2, 59, 95, 0
2, 407280, Note_on_c, 2, 62, 95, 0
2, 407400, Note_off_c, 2, 59, 95, 0
2, 407400, Note_off_c, 2, 62, 95, 0
2, 407400, Note_on_c, 2, 55, 95, 0
2, 407520, Note_off_c, 2, 55, 95, 0
2, 407520, Note_on_c, 2, 57, 95, 0
2, 408000, Note_off_c, 2, 57, 95, 0
2, 408000, Note_on_c, 2, 50, 95, 0
2, 408480, Note_off_c, 2, 50, 95, 0
2, 408480, Note_on_c, 2, 59, 95, 0
2, 408480, Note_on_c, 2, 62, 95, 0
2, 408720, Note_off_c, 2, 59, 95, 0
2, 408720, Note_off_c, 2, 62, 95, 0
2, 408720, Note_on_c, 2, 55, 95, 0
2, 408840, Note_off_c, 2, 55, 95, 0
2, 408840, Note_on_c, 2, 57, 95, 0
2, 408960, Note_off_c, 2, 57, 95, 0
2, 408960, Note_on_c, 2, 50, 95, 0
2, 409080, Note_off_c, 2, 50, 95, 0
2, 409080, Note_on_c, 2, 59, 95, 0
2, 409080, Note_on_c, 2, 62, 95, 0
2, 409560, Note_off_c, 2, 59, 95, 0
2, 409560, Note_off_c, 2, 62, 95, 0
2, 409560, Note_on_c, 2, 55, 95, 0
2, 410040, Note_off_c, 2, 55, 95, 0
2, 410040, Note_on_c, 2, 57, 95, 0
2, 410160, Note_off_c, 2, 57, 95, 0
2, 410160, Note_on_c, 2, 50, 95, 0
2, 410280, Note_off_c, 2, 50, 95, 0
2, 410280, Note_on_c, 2, 59, 95, 0
2, 410280, Note_on_c, 2, 62, 95, 0
2, 410520, Note_off_c, 2, 59, 95, 0
2, 410520, Note_off_c, 2, 62, 95, 0
2, 410520, Note_on_c, 2, 55, 95, 0
2, 410640, Note_off_c, 2, 55, 95, 0
2, 410640, Note_on_c, 2, 57, 95, 0
2, 410880, Note_off_c, 2, 57, 95, 0
2, 410880, Note_on_c, 2, 50, 95, 0
2, 411120, Note_off_c, 2, 50, 95, 0
2, 411120, Note_on_c, 2, 59, 95, 0
2, 411120, Note_on_c, 2, 62, 95, 0
2, 411600, Note_off_c, 2, 59, 95, 0
2, 411600, Note_off_c, 2, 62, 95, 0
2, 411600, Note_on_c, 2, 55, 95, 0
2, 411840, Note_off_c, 2, 55, 95, 0
2, 411840, Note_on_c, 2, 57, 95, 0
2, 412080, Note_off_c, 2, 57, 95, 0
2, 412080, Note_on_c, 2, 50, 95, 0
2, 412560, Note_off_c, 2, 50, 95, 0
2, 412560, Note_on_c, 2, 59, 95, 0
2, 412560, Note_on_c, 2, 62, 95, 0
2, 413040, Note_off_c, 2, 59, 95, 0
2, 413040, Note_off_c, 2, 62, 95, 0
2, 413040, Note_on_c, 2, 55, 95, 0
2, 413280, Note_off_c, 2, 55, 95, 0
2, 413280, Note_on_c, 2, 57, 95, 0
2, 413400, Note_off_c, 2, 57, 95, 0
2, 413400, Note_on_c, 2, 50, 95, 0
2, 413880, Note_off_c, 2, 50, 95, 0
2, 413880, Note_on_c, 2, 59, 95, 0
2, 413880, Note_on_c, 2, 62, 95, 0
2, 414120, Note_off_c, 2, 59, 95, 0
2, 414120, Note_off_c, 2, 62, 95, 0
2, 414120, Note_on_c, 2, 55, 95, 0
2, 414360, Note_off_c, 2, 55, 95, 0
2, 414360, Note_on_c, 2, 57, 95, 0
2, 414840, Note_off_c, 2, 57, 95, 0
2, 414840, Note_on_c, 2, 50, 95, 0
2, 414960, Note_off_c, 2, 50, 95, 0
2, 414960, Note_on_c, 2, 59, 95, 0
2, 414960, Note_on_c, 2, 62, 95, 0
2, 415440, Note_off_c, 2, 59, 95, 0
2, 415440, Note_off_c, 2, 62, 95, 0
2, 415440, Note_on_c, 2, 55, 95, 0
2, 415560, Note_off_c, 2, 55, 95, 0
2, 415560, Note_on_c, 2, 57, 95, 0
2, 415800, Note_off_c, 2, 57, 95, 0
2, 415800, Note_on_c, 2, 50, 95, 0
2, 416280, Note_off_c, 2, 50, 95, 0
2, 416280, Note_on_c, 2, 59, 95, 0
2, 416280, Note_on_c, 2, 62, 95, 0
2, 416520, Note_off_c, 2, 59, 95, 0
2, 416520, Note_off_c, 2, 62, 95, 0
2, 416520, Note_on_c, 2, 55, 95, 0
2, 417000, Note_off_c, 2, 55, 95, 0
2, 417000, Note_on_c, 2, 57, 95, 0
2, 417480, Note_off_c, 2, 57, 95, 0
2, 417480, Note_on_c, 2, 50, 95, 0
2, 417960, Note_off_c, 2, 50, 95, 0
2, 417960, Note_on_c, 2, 59, 95, 0
2, 417960, Note_on_c, 2, 62, 95, 0
2, 418200, Note_off_c, 2, 59, 95, 0
2, 418200, Note_off_c, 2, 62, 95, 0
2, 418200, Note_on_c, 2, 55, 95, 0
2, 418440, Note_off_c, 2, 55, 95, 0
2, 418440, Note_on_c, 2, 57, 95, 0
2, 418560, Note_off_c, 2, 57, 95, 0
2, 418560, Note_on_c, 2, 50, 95, 0
2, 418680, Note_off_c, 2, 50, 95, 0
2, 418680, Note_on_c, 2, 59, 95, 0
2, 418680, Note_on_c, 2, 62, 95, 0
2, 418800, Note_off_c, 2, 59, 95, 0
2, 418800, Note_off_c, 2, 62, 95, 0
2, 418800, Note_on_c, 2, 55, 95, 0
2, 418920, Note_off_c, 2, 55, 95, 0
2, 418920, Note_on_c, 2, 57, 95, 0
2, 419040, Note_off_c, 2, 57, 95, 0
2, 419040, Note_on_c, 2, 50, 95, 0
2, 419520, Note_off_c, 2, 50, 95, 0
2, 419520, Note_on_c, 2, 59, 95, 0
2, 419520, Note_on_c, 2, 62, 95, 0
2, 420000, Note_off_c, 2, 59, 95, 0
2, 420000, Note_off_c, 2, 62, 95, 0
2, 420000, Note_on_c, 2, 55, 95, 0
2, 420240, Note_off_c, 2, 55, 95, 0
2, 420240, Note_on_c, 2, 57, 95, 0
2, 420720, Note_off_c, 2, 57, 95, 0
2, 420720, Note_on_c, 2, 50, 95, 0
2, 420840, Note_off_c, 2, 50, 95, 0
2, 420840, Note_on_c, 2, 59, 95, 0
2, 420840, Note_on_c, 2, 62, 95, 0
2, 420960, Note_off_c, 2, 59, 95, 0
2, 420960, Note_off_c, 2, 62, 95, 0
2, 420960, Note_on_c, 2, 55, 95, 0
2, 421200, Note_off_c, 2, 55, 95, 0
2, 421200, Note_on_c, 2, 57, 95, 0
2, 421680, Note_off_c, 2, 57, 95, 0
2, 421680, Note_on_c, 2, 50, 95, 0
2, 421920, Note_off_c, 2, 50, 95, 0
2, 421920, Note_on_c, 2, 59, 95, 0
2, 421920, Note_on_c, 2, 62, 95, 0
2, 422040, Note_off_c, 2, 59, 95, 0
2, 422040, Note_off_c, 2, 62, 95, 0
2, 422040, Note_on_c, 2, 55, 95, 0
2, 422520, Note_off_c, 2, 55, 95, 0
2, 422520, Note_on_c, 2, 57, 95, 0
2, 422640, Note_off_c, 2, 57, 95, 0
2, 422640, Note_on_c, 2, 50, 95, 0
2, 422880, Note_off_c, 2, 50, 95, 0
2, 422880, Note_on_c, 2, 59, 95, 0
2, 422880, Note_on_c, 2, 62, 95, 0
2, 423000, Note_off_c, 2, 59, 95, 0
2, 423000, Note_off_c, 2, 62, 95, 0
2, 423000, Note_on_c, 2, 55, 95, 0
2, 423120, Note_off_c, 2, 55, 95, 0
2, 423120, Note_on_c, 2, 57, 95, 0
2, 423240, Note_off_c, 2, 57, 95, 0
2, 423240, Note_on_c, 2, 50, 95, 0
2, 423480, Note_off_c, 2, 50, 95, 0
2, 423480, Note_on_c, 2, 59, 95, 0
2, 423480, Note_on_c, 2, 62, 95, 0
2, 423960, Note_off_c, 2, 59, 95, 0
2, 423960, Note_off_c, 2, 62, 95, 0
2, 423960, Note_on_c, 2, 55, 95, 0
2, 424200, Note_off_c, 2, 55, 95, 0
2, 424200, Note_on_c, 2, 57, 95, 0
2, 424440, Note_off_c, 2, 57, 95, 0
2, 424440, Note_on_c, 2, 50, 95, 0
2, 424680, Note_off_c, 2, 50, 95, 0
2, 424680, Note_on_c, 2, 59, 95, 0
2, 424680, Note_on_c, 2, 62, 95, 0
2, 425160, Note_off_c, 2, 59, 95, 0
2, 425160, Note_off_c, 2, 62, 95, 0
2, 425160, Note_on_c, 2, 55, 95, 0
2, 425640, Note_off_c, 2, 55, 95, 0
2, 425640, Note_on_c, 2, 57, 95, 0
2, 425760, Note_off_c, 2, 57, 95, 0
2, 425760, Note_on_c, 2, 50, 95, 0
2, 426000, Note_off_c, 2, 50, 95, 0
2, 426000, Note_on_c, 2, 59, 95, 0
2, 426000, Note_on_c, 2, 62, 95, 0
2, 426480, Note_off_c, 2, 59, 95, 0
2, 426480, Note_off_c, 2, 62, 95, 0
2, 426480, Note_on_c, 2, 55, 95, 0
2, 426720, Note_off_c, 2, 55, 95, 0
2, 426720, Note_on_c, 2, 57, 95, 0
2, 426840, Note_off_c, 2, 57, 95, 0
2, 426840, Note_on_c, 2, 50, 95, 0
2, 427320, Note_off_c, 2, 50, 95, 0
2, 427320, Note_on_c, 2, 59, 95, 0
2, 427320, Note_on_c, 2, 62, 95, 0
2, 427560, Note_off_c, 2, 59, 95, 0
2, 427560, Note_off_c, 2, 62, 95, 0
2, 427560, Note_on_c, 2, 55, 95, 0
2, 428040, Note_off_c, 2, 55, 95, 0
2, 428040, Note_on_c, 2, 57, 95, 0
2, 428280, Note_off_c, 2, 57, 95, 0
2, 428280, Note_on_c, 2, 50, 95, 0
2, 428400, Note_off_c, 2, 50, 95, 0
2, 428400, Note_on_c, 2, 59, 95, 0
2, 428400, Note_on_c, 2, 62, 95, 0
2, 428880, Note_off_c, 2, 59, 95, 0
2, 428880, Note_off_c, 2, 62, 95, 0
2, 428880, Note_on_c, 2, 55, 95, 0
2, 429000, Note_off_c, 2, 55, 95, 0
2, 429000, Note_on_c, 2, 57, 95, 0
2, 429480, Note_off_c, 2, 57, 95, 0
2, 429480, Note_on_c, 2, 50, 95, 0
2, 429720, Note_off_c, 2, 50, 95, 0
2, 429720, Note_on_c, 2, 59, 95, 0
2, 429720, Note_on_c, 2, 62, 95, 0
2, 429840, Note_off_c, 2, 59, 95, 0
2, 429840, Note_off_c, 2, 62, 95, 0
2, 429840, Note_on_c, 2, 55, 95, 0
2, 429960, Note_off_c, 2, 55, 95, 0
2, 429960, Note_on_c, 2, 57, 95, 0
2, 430440, Note_off_c, 2, 57, 95, 0
2, 430440, Note_on_c, 2, 50, 95, 0
2, 430560, Note_off_c, 2, 50, 95, 0
2, 430560, Note_on_c, 2, 59, 95, 0
2, 430560, Note_on_c, 2, 62, 95, 0
2, 431040, Note_off_c, 2, 59, 95, 0
2, 431040, Note_off_c, 2, 62, 95, 0
2, 431040, Note_on_c, 2, 55, 95, 0
2, 431160, Note_off_c, 2, 55, 95, 0
2, 431160, Note_on_c, 2, 57, 95, 0
2, 431640, Note_off_c, 2, 57, 95, 0
2, 431640, Note_on_c, 2, 50, 95, 0
2, 431880, Note_off_c, 2, 50, 95, 0
2, 431880, Note_on_c, 2, 59, 95, 0
2, 431880, Note_on_c, 2, 62, 95, 0
2, 432120, Note_off_c, 2, 59, 95, 0
2, 432120, Note_off_c, 2, 62, 95, 0
2, 432120, Note_on_c, 2, 55, 95, 0
2, 432360, Note_off_c, 2, 55, 95, 0
2, 432360, Note_on_c, 2, 57, 95, 0
2, 432600, Note_off_c, 2, 57, 95, 0
2, 432600, Note_on_c, 2, 50, 95, 0
2, 432720, Note_off_c, 2, 50, 95, 0
2, 432720, Note_on_c, 2, 59, 95, 0
2, 432720, Note_on_c, 2, 62, 95, 0
2, 432960, Note_off_c, 2, 59, 95, 0
2, 432960, Note_off_c, 2, 62, 95, 0
2, 432960, Note_on_c, 2, 55, 95, 0
2, 433080, Note_off_c, 2, 55, 95, 0
2, 433080, Note_on_c, 2, 57, 95, 0
2, 433200, Note_off_c, 2, 57, 95, 0
2, 433200, Note_on_c, 2, 50, 95, 0
2, 433680, Note_off_c, 2, 50, 95, 0
2, 433680, Note_on_c, 2, 59, 95, 0
2, 433680, Note_on_c, 2, 62, 95, 0
2, 434160, Note_off_c, 2, 59, 95, 0
2, 434160, Note_off_c, 2, 62, 95, 0
2, 434160, Note_on_c, 2, 55, 95, 0
2, 434640, Note_off_c, 2, 55, 95, 0
2, 434640, Note_on_c, 2, 57, 95, 0
2, 434880, Note_off_c, 2, 57, 95, 0
2, 434880, Note_on_c, 2, 50, 95, 0
2, 435120, Note_off_c, 2, 50, 95, 0
2, 435120, Note_on_c, 2, 59, 95, 0
2, 435120, Note_on_c, 2, 62, 95, 0
2, 435360, Note_off_c, 2, 59, 95, 0
2, 435360, Note_off_c, 2, 62, 95, 0
2, 435360, Note_on_c, 2, 55, 95, 0
2, 435840, Note_off_c, 2, 55, 95, 0
2, 435840, Note_on_c, 2, 57, 95, 0
2, 435960, Note_off_c, 2, 57, 95, 0
2, 435960, Note_on_c, 2, 50, 95, 0
2, 436080, Note_off_c, 2, 50, 95, 0
2, 436080, Note_on_c, 2, 59, 95, 0
2, 436080, Note_on_c, 2, 62, 95, 0
2, 436320, Note_off_c, 2, 59, 95, 0
2, 436320, Note_off_c, 2, 62, 95, 0
2, 436320, Note_on_c, 2, 55, 95, 0
2, 436800, Note_off_c, 2, 55, 95, 0
2, 436800, Note_on_c, 2, 57, 95, 0
2, 437040, Note_off_c, 2, 57, 95, 0
2, 437040, Note_on_c, 2, 50, 95, 0
2, 437280, Note_off_c, 2, 50, 95, 0
2, 437280, Note_on_c, 2, 59, 95, 0
2, 437280, Note_on_c, 2, 62, 95, 0
2, 437760, Note_off_c, 2, 59, 95, 0
2, 437760, Note_off_c, 2, 62, 95, 0
2, 437760, Note_on_c, 2, 55, 95, 0
2, 437880, Note_off_c, 2, 55, 95, 0
2, 437880, Note_on_c, 2, 57, 95, 0
2, 438120, Note_off_c, 2, 57, 95, 0
2, 438120, Note_on_c, 2, 50, 95, 0
2, 438240, Note_off_c, 2, 50, 95, 0
2, 438240, Note_on_c, 2, 59, 95, 0
2, 438240, Note_on_c, 2, 62, 95, 0
2, 438360, Note_off_c, 2, 59, 95, 0
2, 438360, Note_off_c, 2, 62, 95, 0
2, 438360, Note_on_c, 2, 55, 95, 0
2, 438480, Note_off_c, 2, 55, 95, 0
2, 438480, Note_on_c, 2, 57, 95, 0
2, 438720, Note_off_c, 2, 57, 95, 0
2, 438720, Note_on_c, 2, 50, 95, 0
2, 438840, Note_off_c, 2, 50, 95, 0
2, 438840, Note_on_c, 2, 59, 95, 0
2, 438840, Note_on_c, 2, 62, 95, 0
2, 438960, Note_off_c, 2, 59, 95, 0
2, 438960, Note_off_c, 2, 62, 95, 0
2, 438960, Note_on_c, 2, 55, 95, 0
2, 439080, Note_off_c, 2, 55, 95, 0
2, 439080, Note_on_c, 2, 57, 95, 0
2, 439320, Note_off_c, 2, 57, 95, 0
2, 439320, Note_on_c, 2, 50, 95, 0
2, 439440, Note_off_c, 2, 50, 95, 0
2, 439440, Note_on_c, 2, 59, 95, 0
2, 439440, Note_on_c, 2, 62, 95, 0
2, 439560, Note_off_c, 2, 59, 95, 0
2, 439560, Note_off_c, 2, 62, 95, 0
2, 439560, Note_on_c, 2, 55, 95, 0
2, 439800, Note_off_c, 2, 55, 95, 0
2, 439800, Note_on_c, 2, 57, 95, 0
2, 440280, Note_off_c, 2, 57, 95, 0
2, 440280, Note_on_c, 2, 50, 95, 0
2, 440520, Note_off_c, 2, 50, 95, 0
2, 440520, Note_on_c, 2, 59, 95, 0
2, 440520, Note_on_c, 2, 62, 95, 0
2, 440760, Note_off_c, 2, 59, 95, 0
2, 440760, Note_off_c, 2, 62, 95, 0
2, 440760, Note_on_c, 2, 55, 95, 0
2, 440880, Note_off_c, 2, 55, 95, 0
2, 440880, Note_on_c, 2, 57, 95, 0
2, 441000, Note_off_c, 2, 57, 95, 0
2, 441000, Note_on_c, 2, 50, 95, 0
2, 441240, Note_off_c, 2, 50, 95, 0
2, 441240, Note_on_c, 2, 59, 95, 0
2, 441240, Note_on_c, 2, 62, 95, 0
2, 441360, Note_off_c, 2, 59, 95, 0
2, 441360, Note_off_c, 2, 62, 95, 0
2, 441360, Note_on_c, 2, 55, 95, 0
2, 441600, Note_off_c, 2, 55, 95, 0
2, 441600, Note_on_c, 2, 57, 95, 0
2, 441720, Note_off_c, 2, 57, 95, 0
2, 441720, Note_on_c, 2, 50, 95, 0
2, 441960, Note_off_c, 2, 50, 95, 0
2, 441960, Note_on_c, 2, 59, 95, 0
2, 441960, Note_on_c, 2, 62, 95, 0
2, 442200, Note_off_c, 2, 59, 95, 0
2, 442200, Note_off_c, 2, 62, 95, 0
2, 442200, Note_on_c, 2, 55, 95, 0
2, 442440, Note_off_c, 2, 55, 95, 0
2, 442440, Note_on_c, 2, 57, 95, 0
2, 442560, Note_off_c, 2, 57, 95, 0
2, 442560, Note_on_c, 2, 50, 95, 0
2, 442680, Note_off_c, 2, 50, 95, 0
2, 442680, Note_on_c, 2, 59, 95, 0
2, 442680, Note_on_c, 2, 62, 95, 0
2, 442920, Note_off_c, 2, 59, 95, 0
2, 442920, Note_off_c, 2, 62, 95, 0
2, 442920, Note_on_c, 2, 55, 95, 0
2, 443160, Note_off_c, 2, 55, 95, 0
2, 443160, Note_on_c, 2, 57, 95, 0
2, 443640, Note_off_c, 2, 57, 95, 0
2, 443640, Note_on_c, 2, 50, 95, 0
2, 443760, Note_off_c, 2, 50, 95, 0
2, 443760, Note_on_c, 2, 59, 95, 0
2, 443760, Note_on_c, 2, 62, 95, 0
2, 443880, Note_off_c, 2, 59, 95, 0
2, 443880, Note_off_c, 2, 62, 95, 0
2, 443880, Note_on_c, 2, 55, 95, 0
2, 444360, Note_off_c, 2, 55, 95, 0
2, 444360, Note_on_c, 2, 57, 95, 0
2, 444600, Note_off_c, 2, 57, 95, 0
2, 444600, Note_on_c, 2, 50, 95, 0
2, 444840, Note_off_c, 2, 50, 95, 0
2, 444840, Note_on_c, 2, 59, 95, 0
2, 444840, Note_on_c, 2, 62, 95, 0
2, 445320, Note_off_c, 2, 59, 95, 0
2, 445320, Note_off_c, 2, 62, 95, 0
2, 445320, Note_on_c, 2, 55, 95, 0
2, 445560, Note_off_c, 2, 55, 95, 0
2, 445560, Note_on_c, 2, 57, 95, 0
2, 446040, Note_off_c, 2, 57, 95, 0
2, 446040, Note_on_c, 2, 50, 95, 0
2, 446160, Note_off_c, 2, 50, 95, 0
2, 446160, Note_on_c, 2, 59, 95, 0
2, 446160, Note_on_c, 2, 62, 95, 0
2, 446400, Note_off_c, 2, 59, 95, 0
2, 446400, Note_off_c, 2, 62, 95, 0
2, 446400, Note_on_c, 2, 55, 95, 0
2, 446880, Note_off_c, 2, 55, 95, 0
2, 446880, Note_on_c, 2, 57, 95, 0
2, 447000, Note_off_c, 2, 57, 95, 0
2, 447000, Note_on_c, 2, 50, 95, 0
2, 447480, Note_off_c, 2, 50, 95, 0
2, 447480, Note_on_c, 2, 59, 95, 0
2, 447480, Note_on_c, 2, 62, 95, 0
2, 447600, Note_off_c, 2, 59, 95, 0
2, 447600, Note_off_c, 2, 62, 95, 0
2, 447600, Note_on_c, 2, 55, 95, 0
2, 448080, Note_off_c, 2, 55, 95, 0
2, 448080, Note_on_c, 2, 57, 95, 0
2, 448200, Note_off_c, 2, 57, 95, 0
2, 448200, Note_on_c, 2, 50, 95, 0
2, 448440, Note_off_c, 2, 50, 95, 0
2, 448440, Note_on_c, 2, 59, 95, 0
2, 448440, Note_on_c, 2, 62, 95, 0
2, 448560, Note_off_c, 2, 59, 95, 0
2, 448560, Note_off_c, 2, 62, 95, 0
2, 448560, Note_on_c, 2, 55, 95, 0
2, 448680, Note_off_c, 2, 55, 95, 0
2, 448680, Note_on_c, 2, 57, 95, 0
2, 449160, Note_off_c, 2, 57, 95, 0
2, 449160, Note_on_c, 2, 50, 95, 0
2, 449640, Note_off_c, 2, 50, 95, 0
2, 449640, Note_on_c, 2, 59, 95, 0
2, 449640, Note_on_c, 2, 62, 95, 0
2, 450120, Note_off_c, 2, 59, 95, 0
2, 450120, Note_off_c, 2, 62, 95, 0
2, 450120, Note_on_c, 2, 55, 95, 0
2, 450240, Note_off_c, 2, 55, 95, 0
2, 450240, Note_on_c, 2, 57, 95, 0
2, 450480, Note_off_c, 2, 57, 95, 0
2, 450480, Note_on_c, 2, 50, 95, 0
2, 450720, Note_off_c, 2, 50, 95, 0
2, 450720, Note_on_c, 2, 59, 95, 0
2, 450720, Note_on_c, 2, 62, 95, 0
2, 451200, Note_off_c, 2, 59, 95, 0
2, 451200, Note_off_c, 2, 62, 95, 0
2, 451200, Note_on_c, 2, 55, 95, 0
2, 451320, Note_off_c, 2, 55, 95, 0
2, 451320, Note_on_c, 2, 57, 95, 0
2, 451800, Note_off_c, 2, 57, 95, 0
2, 451800, Note_on_c, 2, 50, 95, 0
2, 452280, Note_off_c, 2, 50, 95, 0
2, 452280, Note_on_c, 2, 59, 95, 0
2, 452280, Note_on_c, 2, 62, 95, 0
2, 452760, Note_off_c, 2, 59, 95, 0
2, 452760, Note_off_c, 2, 62, 95, 0
2, 452760, Note_on_c, 2, 55, 95, 0
2, 453240, Note_off_c, 2, 55, 95, 0
2, 453240, Note_on_c, 2, 57, 95, 0
2, 453360, Note_off_c, 2, 57, 95, 0
2, 453360, Note_on_c, 2, 50, 95, 0
2, 453600, Note_off_c, 2, 50, 95, 0
2, 453600, Note_on_c, 2, 59, 95, 0
2, 453600, Note_on_c, 2, 62, 95, 0
2, 454080, Note_off_c, 2, 59, 95, 0
2, 454080, Note_off_c, 2, 62, 95, 0
2, 454080, Note_on_c, 2, 55, 95, 0
2, 454320, Note_off_c, 2, 55, 95, 0
2, 454320, Note_on_c, 2, 57, 95, 0
2, 454440, Note_off_c, 2, 57, 95, 0
2, 454440, Note_on_c, 2, 50, 95, 0
2, 454680, Note_off_c, 2, 50, 95, 0
2, 454680, Note_on_c, 2, 59, 95, 0
2, 454680, Note_on_c, 2, 62, 95, 0
2, 454800, Note_off_c, 2, 59, 95, 0
2, 454800, Note_off_c, 2, 62, 95, 0
2, 454800, Note_on_c, 2, 55, 95, 0
2, 455040, Note_off_c, 2, 55, 95, 0
2, 455040, Note_on_c, 2, 57, 95, 0
2, 455520, Note_off_c, 2, 57, 95, 0
2, 455520, Note_on_c, 2, 50, 95, 0
2, 455760, Note_off_c, 2, 50, 95, 0
2, 455760, Note_on_c, 2, 59, 95, 0
2, 455760, Note_on_c, 2, 62, 95, 0
2, 455880, Note_off_c, 2, 59, 95, 0
2, 455880, Note_off_c, 2, 62, 95, 0
2, 455880, Note_on_c, 2, 55, 95, 0
2, 456000, Note_off_c, 2, 55, 95, 0
2, 456000, Note_on_c, 2, 57, 95, 0
2, 456480, Note_off_c, 2, 57, 95, 0
2, 456480, Note_on_c, 2, 50, 95, 0
2, 456960, Note_off_c, 2, 50, 95, 0
2, 456960, Note_on_c, 2, 59, 95, 0
2, 456960, Note_on_c, 2, 62, 95, 0
2, 457080, Note_off_c, 2, 59, 95, 0
2, 457080, Note_off_c, 2, 62, 95, 0
2, 457080, Note_on_c, 2, 55, 95, 0
2, 457320, Note_off_c, 2, 55, 95, 0
2, 457320, Note_on_c, 2, 57, 95, 0
2, 457800, Note_off_c, 2, 57, 95, 0
2, 457800, Note_on_c, 2, 50, 95, 0
2, 457920, Note_off_c, 2, 50, 95, 0
2, 457920, Note_on_c, 2, 59, 95, 0
2, 457920, Note_on_c, 2, 62, 95, 0
2, 458160, Note_off_c, 2, 59, 95, 0
2, 458160, Note_off_c, 2, 62, 95, 0
2, 458160, Note_on_c, 2, 55, 95, 0
2, 458280, Note_off_c, 2, 55, 95, 0
2, 458280, Note_on_c, 2, 57, 95, 0
2, 458400, Note_off_c, 2, 57, 95, 0
2, 458400, Note_on_c, 2, 50, 95, 0
2, 458520, Note_off_c, 2, 50, 95, 0
2, 458520, Note_on_c, 2, 59, 95, 0
2, 458520, Note_on_c, 2, 62, 95, 0
2, 459000, Note_off_c, 2, 59, 95, 0
2, 459000, Note_off_c, 2, 62, 95, 0
2, 459000, Note_on_c, 2, 55, 95, 0
2, 459480, Note_off_c, 2, 55, 95, 0
2, 459480, Note_on_c, 2, 57, 95, 0
2, 459960, Note_off_c, 2, 57, 95, 0
2, 459960, Note_on_c, 2, 50, 95, 0
2, 460080, Note_off_c, 2, 50, 95, 0
2, 460080, Note_on_c, 2, 59, 95, 0
2, 460080, Note_on_c, 2, 62, 95, 0
2, 460560, Note_off_c, 2, 59, 95, 0
2, 460560, Note_off_c, 2, 62, 95, 0
2, 460560, Note_on_c, 2, 55, 95, 0
2, 460680, Note_off_c, 2, 55, 95, 0
2, 460680, Note_on_c, 2, 57, 95, 0
2, 460800, Note_off_c, 2, 57, 95, 0
2, 460800, Note_on_c, 2, 50, 95, 0
2, 460920, Note_off_c, 2, 50, 95, 0
2, 460920, Note_on_c, 2, 59, 95, 0
2, 460920, Note_on_c, 2, 62, 95, 0
2, 461160, Note_off_c, 2, 59, 95, 0
2, 461160, Note_off_c, 2, 62, 95, 0
2, 461160, Note_on_c, 2, 55, 95, 0
2, 461640, Note_off_c, 2, 55, 95, 0
2, 461640, Note_on_c, 2, 57, 95, 0
2, 461760, Note_off_c, 2, 57, 95, 0
2, 461760, Note_on_c, 2, 50, 95, 0
2, 461880, Note_off_c, 2, 50, 95, 0
2, 461880, Note_on_c, 2, 59, 95, 0
2, 461880, Note_on_c, 2, 62, 95, 0
2, 462120, Note_off_c, 2, 59, 95, 0
2, 462120, Note_off_c, 2, 62, 95, 0
2, 462120, Note_on_c, 2, 55, 95, 0
2, 462360, Note_off_c, 2, 55, 95, 0
2, 462360, Note_on_c, 2, 57, 95, 0
2, 462600, Note_off_c, 2, 57, 95, 0
2, 462600, Note_on_c, 2, 50, 95, 0
2, 462720, Note_off_c, 2, 50, 95, 0
2, 462720, Note_on_c, 2, 59, 95, 0
2, 462720, Note_on_c, 2, 62, 95, 0
2, 462840, Note_off_c, 2, 59, 95, 0
2, 462840, Note_off_c, 2, 62, 95, 0
2, 462840, Note_on_c, 2, 55, 95, 0
2, 463080, Note_off_c, 2, 55, 95, 0
2, 463080, Note_on_c, 2, 57, 95, 0
2, 463200, Note_off_c, 2, 57, 95, 0
2, 463200, Note_on_c, 2, 50, 95, 0
2, 463680, Note_off_c, 2, 50, 95, 0
2, 463680, Note_on_c, 2, 59, 95, 0
2, 463680, Note_on_c, 2, 62, 95, 0
2, 464160, Note_off_c, 2, 59, 95, 0
2, 464160, Note_off_c, 2, 62, 95, 0
2, 464160, Note_on_c, 2, 55, 95, 0
2, 464640, Note_off_c, 2, 55, 95, 0
2, 464640, Note_on_c, 2, 57, 95, 0
2, 464880, Note_off_c, 2, 57, 95, 0
2, 464880, Note_on_c, 2, 50, 95, 0
2, 465120, Note_off_c, 2, 50, 95, 0
2, 465120, Note_on_c, 2, 59, 95, 0
2, 465120, Note_on_c, 2, 62, 95, 0
2, 465360, Note_off_c, 2, 59, 95, 0
2, 465360, Note_off_c, 2, 62, 95, 0
2, 465360, Note_on_c, 2, 55, 95, 0
2, 465600, Note_off_c, 2, 55, 95, 0
2, 465600, Note_on_c, 2, 57, 95, 0
2, 465840, Note_off_c, 2, 57, 95, 0
2, 465840, Note_on_c, 2, 50, 95, 0
2, 465960, Note_off_c, 2, 50, 95, 0
2, 465960, Note_on_c, 2, 59, 95, 0
2, 465960, Note_on_c, 2, 62, 95, 0
2, 466440, Note_off_c, 2, 59, 95, 0
2, 466440, Note_off_c, 2, 62, 95, 0
2, 466440, Note_on_c, 2, 55, 95, 0
2, 466680, Note_off_c, 2, 55, 95, 0
2, 466680, Note_on_c, 2, 57, 95, 0
2, 467160, Note_off_c, 2, 57, 95, 0
2, 467160, Note_on_c, 2, 50, 95, 0
2, 467280, Note_off_c, 2, 50, 95, 0
2, 467280, Note_on_c, 2, 59, 95, 0
2, 467280, Note_on_c, 2, 62, 95, 0
2, 467520, Note_off_c, 2, 59, 95, 0
2, 467520, Note_off_c, 2, 62, 95, 0
2, 467520, Note_on_c, 2, 55, 95, 0
2, 468000, Note_off_c, 2, 55, 95, 0
2, 468000, Note_on_c, 2, 57, 95, 0
2, 468240, Note_off_c, 2, 57, 95, 0
2, 468240, Note_on_c, 2, 50, 95, 0
2, 468480, Note_off_c, 2, 50, 95, 0
2, 468480, Note_on_c, 2, 59, 95, 0
2, 468480, Note_on_c, 2, 62, 95, 0
2, 468600, Note_off_c, 2, 59, 95, 0
2, 468600, Note_off_c, 2, 62, 95, 0
2, 468600, Note_on_c, 2, 55, 95, 0
2, 468840, Note_off_c, 2, 55, 95, 0
2, 468840, Note_on_c, 2, 57, 95, 0
2, 469080, Note_off_c, 2, 57, 95, 0
2, 469080, Note_on_c, 2, 50, 95, 0
2, 469200, Note_off_c, 2, 50, 95, 0
2, 469200, Note_on_c, 2, 59, 95, 0
2, 469200, Note_on_c, 2, 62, 95, 0
2, 469320, Note_off_c, 2, 59, 95, 0
2, 469320, Note_off_c, 2, 62, 95, 0
2, 469320, Note_on_c, 2, 55, 95, 0
2, 469440, Note_off_c, 2, 55, 95, 0
2, 469440, Note_on_c, 2, 57, 95, 0
2, 469920, Note_off_c, 2, 57, 95, 0
2, 469920, Note_on_c, 2, 50, 95, 0
2, 470040, Note_off_c, 2, 50, 95, 0
2, 470040, Note_on_c, 2, 59, 95, 0
2, 470040, Note_on_c, 2, 62, 95, 0
2, 470520, Note_off_c, 2, 59, 95, 0
2, 470520, Note_off_c, 2, 62, 95, 0
2, 470520, Note_on_c, 2, 55, 95, 0
2, 470760, Note_off_c, 2, 55, 95, 0
2, 470760, Note_on_c, 2, 57, 95, 0
2, 470880, Note_off_c, 2, 57, 95, 0
2, 470880, Note_on_c, 2, 50, 95, 0
2, 471360, Note_off_c, 2, 50, 95, 0
2, 471360, Note_on_c, 2, 59, 95, 0
2, 471360, Note_on_c, 2, 62, 95, 0
2, 471480, Note_off_c, 2, 59, 95, 0
2, 471480, Note_off_c, 2, 62, 95, 0
2, 471480, Note_on_c, 2, 55, 95, 0
2, 471600, Note_off_c, 2, 55, 95, 0
2, 471600, Note_on_c, 2, 57, 95, 0
2, 471840, Note_off_c, 2, 57, 95, 0
2, 471840, Note_on_c, 2, 50, 95, 0
2, 472080, Note_off_c, 2, 50, 95, 0
2, 472080, Note_on_c, 2, 59, 95, 0
2, 472080, Note_on_c, 2, 62, 95, 0
2, 472200, Note_off_c, 2, 59, 95, 0
2, 472200, Note_off_c, 2, 62, 95, 0
2, 472200, Note_on_c, 2, 55, 95, 0
2, 472680, Note_off_c, 2, 55, 95, 0
2, 472680, Note_on_c, 2, 57, 95, 0
2, 473160, Note_off_c, 2, 57, 95, 0
2, 473160, Note_on_c, 2, 50, 95, 0
2, 473400, Note_off_c, 2, 50, 95, 0
2, 473400, Note_on_c, 2, 59, 95, 0
2, 473400, Note_on_c, 2, 62, 95, 0
2, 473520, Note_off_c, 2, 59, 95, 0
2, 473520, Note_off_c, 2, 62, 95, 0
2, 473520, Note_on_c, 2, 55, 95, 0
2, 474000, Note_off_c, 2, 55, 95, 0
2, 474000, Note_on_c, 2, 57, 95, 0
2, 474480, Note_off_c, 2, 57, 95, 0
2, 474480, Note_on_c, 2, 50, 95, 0
2, 474960, Note_off_c, 2, 50, 95, 0
2, 474960, Note_on_c, 2, 59, 95, 0
2, 474960, Note_on_c, 2, 62, 95, 0
2, 475080, Note_off_c, 2, 59, 95, 0
2, 475080, Note_off_c, 2, 62, 95, 0
2, 475080, Note_on_c, 2, 55, 95, 0
2, 475560, Note_off_c, 2, 55, 95, 0
2, 475560, Note_on_c, 2, 57, 95, 0
2, 475800, Note_off_c, 2, 57, 95, 0
2, 475800, Note_on_c, 2, 50, 95, 0
2, 476040, Note_off_c, 2, 50, 95, 0
2, 476040, Note_on_c, 2, 59, 95, 0
2, 476040, Note_on_c, 2, 62, 95, 0
2, 476280, Note_off_c, 2, 59, 95, 0
2, 476280, Note_off_c, 2, 62, 95, 0
2, 476280, Note_on_c, 2, 55, 95, 0
2, 476760, Note_off_c, 2, 55, 95, 0
2, 476760, Note_on_c, 2, 57, 95, 0
2, 476880, Note_off_c, 2, 57, 95, 0
2, 476880, Note_on_c, 2, 50, 95, 0
2, 477120, Note_off_c, 2, 50, 95, 0
2, 477120, Note_on_c, 2, 59, 95, 0
2, 477120, Note_on_c, 2, 62, 95, 0
2, 477600, Note_off_c, 2, 59, 95, 0
2, 477600, Note_off_c, 2, 62, 95, 0
2, 477600, Note_on_c, 2, 55, 95, 0
2, 477720, Note_off_c, 2, 55, 95, 0
2, 477720, Note_on_c, 2, 57, 95, 0
2, 477840, Note_off_c, 2, 57, 95, 0
2, 477840, Note_on_c, 2, 50, 95, 0
2, 478080, Note_off_c, 2, 50, 95, 0
2, 478080, Note_on_c, 2, 59, 95, 0
2, 478080, Note_on_c, 2, 62, 95, 0
2, 478560, Note_off_c, 2, 59, 95, 0
2, 478560, Note_off_c, 2, 62, 95, 0
2, 478560, Note_on_c, 2, 55, 95, 0
2, 479040, Note_off_c, 2, 55, 95, 0
2, 479040, Note_on_c, 2, 57, 95, 0
2, 479520, Note_off_c, 2, 57, 95, 0
2, 479520, Note_on_c, 2, 50, 95, 0
2, 479640, Note_off_c, 2, 50, 95, 0
2, 479640, Note_on_c, 2, 59, 95, 0
2, 479640, Note_on_c, 2, 62, 95, 0
2, 479880, Note_off_c, 2, 59, 95, 0
2, 479880, Note_off_c, 2, 62, 95, 0
2, 479880, Note_on_c, 2, 55, 95, 0
2, 480000, Note_off_c, 2, 55, 95, 0
2, 480000, Note_on_c, 2, 57, 95, 0
2, 480120, Note_off_c, 2, 57, 95, 0
2, 480120, Note_on_c, 2, 50, 95, 0
2, 480360, Note_off_c, 2, 50, 95, 0
2, 480360, Note_on_c, 2, 59, 95, 0
2, 480360, Note_on_c, 2, 62, 95, 0
2, 480600, Note_off_c, 2, 59, 95, 0
2, 480600, Note_off_c, 2, 62, 95, 0
2, 480600, Note_on_c, 2, 55, 95, 0
2, 481080, Note_off_c, 2, 55, 95, 0
2, 481080, Note_on_c, 2, 57, 95, 0
2, 481200, Note_off_c, 2, 57, 95, 0
2, 481200, Note_on_c, 2, 50, 95, 0
2, 481320, Note_off_c, 2, 50, 95, 0
2, 481320, Note_on_c, 2, 59, 95, 0
2, 481320, Note_on_c, 2, 62, 95, 0
2, 481800, Note_off_c, 2, 59, 95, 0
2, 481800, Note_off_c, 2, 62, 95, 0
2, 481800, Note_on_c, 2, 55, 95, 0
2, 482280, Note_off_c, 2, 55, 95, 0
2, 482280, Note_on_c, 2, 57, 95, 0
2, 482520, Note_off_c, 2, 57, 95, 0
2, 482520, Note_on_c, 2, 50, 95, 0
2, 483000, Note_off_c, 2, 50, 95, 0
2, 483000, Note_on_c, 2, 59, 95, 0
2, 483000, Note_on_c, 2, 62, 95, 0
2, 483480, Note_off_c, 2, 59, 95, 0
2, 483480, Note_off_c, 2, 62, 95, 0
2, 483480, Note_on_c, 2, 55, 95, 0
2, 483720, Note_off_c, 2, 55, 95, 0
2, 483720, Note_on_c, 2, 57, 95, 0
2, 484200, Note_off_c, 2, 57, 95, 0
2, 484200, Note_on_c, 2, 50, 95, 0
2, 484680, Note_off_c, 2, 50, 95, 0
2, 484680, Note_on_c, 2, 59, 95, 0
2, 484680, Note_on_c, 2, 62, 95, 0
2, 485160, Note_off_c, 2, 59, 95, 0
2, 485160, Note_off_c, 2, 62, 95, 0
2, 485160, Note_on_c, 2, 55, 95, 0
2, 485280, Note_off_c, 2, 55, 95, 0
2, 485280, Note_on_c, 2, 57, 95, 0
2, 485760, Note_off_c, 2, 57, 95, 0
2, 485760, Note_on_c, 2, 50, 95, 0
2, 486240, Note_off_c, 2, 50, 95, 0
2, 486240, Note_on_c, 2, 59, 95, 0
2, 486240, Note_on_c, 2, 62, 95, 0
2, 486720, Note_off_c, 2, 59, 95, 0
2, 486720, Note_off_c, 2, 62, 95, 0
2, 486720, Note_on_c, 2, 55, 95, 0
2, 487200, Note_off_c, 2, 55, 95, 0
2, 487200, Note_on_c, 2, 57, 95, 0
2, 487440, Note_off_c, 2, 57, 95, 0
2, 487440, Note_on_c, 2, 50, 95, 0
2, 487680, Note_off_c, 2, 50, 95, 0
2, 487680, Note_on_c, 2, 59, 95, 0
2, 487680, Note_on_c, 2, 62, 95, 0
2, 487800, Note_off_c, 2, 59, 95, 0
2, 487800, Note_off_c, 2, 62, 95, 0
2, 487800, Note_on_c, 2, 55, 95, 0
2, 488280, Note_off_c, 2, 55, 95, 0
2, 488280, Note_on_c, 2, 57, 95, 0
2, 488400, Note_off_c, 2, 57, 95, 0
2, 488400, Note_on_c, 2, 50, 95, 0
2, 488880, Note_off_c, 2, 50, 95, 0
2, 488880, Note_on_c, 2, 59, 95, 0
2, 488880, Note_on_c, 2, 62, 95, 0
2, 489360, Note_off_c, 2, 59, 95, 0
2, 489360, Note_off_c, 2, 62, 95, 0
2, 489360, Note_on_c, 2, 55, 95, 0
2, 489600, Note_off_c, 2, 55, 95, 0
2, 489600, Note_on_c, 2, 57, 95, 0
2, 489840, Note_off_c, 2, 57, 95, 0
2, 489840, Note_on_c, 2, 50, 95, 0
2, 490320, Note_off_c, 2, 50, 95, 0
2, 490320, Note_on_c, 2, 59, 95, 0
2, 490320, Note_on_c, 2, 62, 95, 0
2, 490560, Note_off_c, 2, 59, 95, 0
2, 490560, Note_off_c, 2, 62, 95, 0
2, 490560, Note_on_c, 2, 55, 95, 0
2, 490800, Note_off_c, 2, 55, 95, 0
2, 490800, Note_on_c, 2, 57, 95, 0
2, 491280, Note_off_c, 2, 57, 95, 0
2, 491280, Note_on_c, 2, 50, 95, 0
2, 491760, Note_off_c, 2, 50, 95, 0
2, 491760, Note_on_c, 2, 59, 95, 0
2, 491760, Note_on_c, 2, 62, 95, 0
2, 491880, Note_off_c, 2, 59, 95, 0
2, 491880, Note_off_c, 2, 62, 95, 0
2, 491880, Note_on_c, 2, 55, 95, 0
2, 492120, Note_off_c, 2, 55, 95, 0
2, 492120, Note_on_c, 2, 57, 95, 0
2, 492600, Note_off_c, 2, 57, 95, 0
2, 492600, Note_on_c, 2, 50, 95, 0
2, 493080, Note_off_c, 2, 50, 95, 0
2, 493080, Note_on_c, 2, 59, 95, 0
2, 493080, Note_on_c, 2, 62, 95, 0
2, 493320, Note_off_c, 2, 59, 95, 0
2, 493320, Note_off_c, 2, 62, 95, 0
2, 493320, Note_on_c, 2, 55, 95, 0
2, 493440, Note_off_c, 2, 55, 95, 0
2, 493440, Note_on_c, 2, 57, 95, 0
2, 493680, Note_off_c, 2, 57, 95, 0
2, 493680, Note_on_c, 2, 50, 95, 0
2, 493920, Note_off_c, 2, 50, 95, 0
2, 493920, Note_on_c, 2, 59, 95, 0
2, 493920, Note_on_c, 2, 62, 95, 0
2, 494160, Note_off_c, 2, 59, 95, 0
2, 494160, Note_off_c, 2, 62, 95, 0
2, 494160, Note_on_c, 2, 55, 95, 0
2, 494400, Note_off_c, 2, 55, 95, 0
2, 494400, Note_on_c, 2, 57, 95, 0
2, 494880, Note_off_c, 2, 57, 95, 0
2, 494880, Note_on_c, 2, 50, 95, 0
2, 495360, Note_off_c, 2, 50, 95, 0
2, 495360, Note_on_c, 2, 59, 95, 0
2, 495360, Note_on_c, 2, 62, 95, 0
2, 495600, Note_off_c, 2, 59, 95, 0
2, 495600, Note_off_c, 2, 62, 95, 0
2, 495600, Note_on_c, 2, 55, 95, 0
2, 495720, Note_off_c, 2, 55, 95, 0
2, 495720, Note_on_c, 2, 57, 95, 0
2, 495960, Note_off_c, 2, 57, 95, 0
2, 495960, Note_on_c, 2, 50, 95, 0
2, 496200, Note_off_c, 2, 50, 95, 0
2, 496200, Note_on_c, 2, 59, 95, 0
2, 496200, Note_on_c, 2, 62, 95, 0
2, 496320, Note_off_c, 2, 59, 95, 0
2, 496320, Note_off_c, 2, 62, 95, 0
2, 496320, Note_on_c, 2, 55, 95, 0
2, 496800, Note_off_c, 2, 55, 95, 0
2, 496800, Note_on_c, 2, 57, 95, 0
2, 497040, Note_off_c, 2, 57, 95, 0
2, 497040, Note_on_c, 2, 50, 95, 0
2, 497520, Note_off_c, 2, 50, 95, 0
2, 497520, Note_on_c, 2, 59, 95, 0
2, 497520, Note_on_c, 2, 62, 95, 0
2, 498000, Note_off_c, 2, 59, 95, 0
2, 498000, Note_off_c, 2, 62, 95, 0
2, 498000, Note_on_c, 2, 55, 95, 0
2, 498240, Note_off_c, 2, 55, 95, 0
2, 498240, Note_on_c, 2, 57, 95, 0
2, 498360, Note_off_c, 2, 57, 95, 0
2, 498360, Note_on_c, 2, 50, 95, 0
2, 498480, Note_off_c, 2, 50, 95, 0
2, 498480, Note_on_c, 2, 59, 95, 0
2, 498480, Note_on_c, 2, 62, 95, 0
2, 498960, Note_off_c, 2, 59, 95, 0
2, 498960, Note_off_c, 2, 62, 95, 0
2, 498960, Note_on_c, 2, 55, 95, 0
2, 499440, Note_off_c, 2, 55, 95, 0
2, 499440, Note_on_c, 2, 57, 95, 0
2, 499560, Note_off_c, 2, 57, 95, 0
2, 499560, Note_on_c, 2, 50, 95, 0
2, 500040, Note_off_c, 2, 50, 95, 0
2, 500040, Note_on_c, 2, 59, 95, 0
2, 500040, Note_on_c, 2, 62, 95, 0
2, 500160, Note_off_c, 2, 59, 95, 0
2, 500160, Note_off_c, 2, 62, 95, 0
2, 500160, Note_on_c, 2, 55, 95, 0
2, 500280, Note_off_c, 2, 55, 95, 0
2, 500280, Note_on_c, 2, 57, 95, 0
2, 500520, Note_off_c, 2, 57, 95, 0
2, 500520, Note_on_c, 2, 50, 95, 0
2, 500640, Note_off_c, 2, 50, 95, 0
2, 500640, Note_on_c, 2, 59, 95, 0
2, 500640, Note_on_c, 2, 62, 95, 0
2, 501120, Note_off_c, 2, 59, 95, 0
2, 501120, Note_off_c, 2, 62, 95, 0
2, 501120, Note_on_c, 2, 55, 95, 0
2, 501240, Note_off_c, 2, 55, 95, 0
2, 501240, Note_on_c, 2, 57, 95, 0
2, 501360, Note_off_c, 2, 57, 95, 0
2, 501360, Note_on_c, 2, 50, 95, 0
2, 501480, Note_off_c, 2, 50, 95, 0
2, 501480, Note_on_c, 2, 59, 95, 0
2, 501480, Note_on_c, 2, 62, 95, 0
2, 501960, Note_off_c, 2, 59, 95, 0
2, 501960, Note_off_c, 2, 62, 95, 0
2, 501960, Note_on_c, 2, 55, 95, 0
2, 502080, Note_off_c, 2, 55, 95, 0
2, 502080, Note_on_c, 2, 57, 95, 0
2, 502320, Note_off_c, 2, 57, 95, 0
2, 502320, Note_on_c, 2, 50, 95, 0
2, 502800, Note_off_c, 2, 50, 95, 0
2, 502800, Note_on_c, 2, 59, 95, 0
2, 502800, Note_on_c, 2, 62, 95, 0
2, 503280, Note_off_c, 2, 59, 95, 0
2, 503280, Note_off_c, 2, 62, 95, 0
2, 503280, Note_on_c, 2, 55, 95, 0
2, 503520, Note_off_c, 2, 55, 95, 0
2, 503520, Note_on_c, 2, 57, 95, 0
2, 503760, Note_off_c, 2, 57, 95, 0
2, 503760, Note_on_c, 2, 50, 95, 0
2, 503880, Note_off_c, 2, 50, 95, 0
2, 503880, Note_on_c, 2, 59, 95, 0
2, 503880, Note_on_c, 2, 62, 95, 0
2, 504000, Note_off_c, 2, 59, 95, 0
2, 504000, Note_off_c, 2, 62, 95, 0
2, 504000, Note_on_c, 2, 55, 95, 0
2, 504120, Note_off_c, 2, 55, 95, 0
2, 504120, Note_on_c, 2, 57, 95, 0
2, 504360, Note_off_c, 2, 57, 95, 0
2, 504360, Note_on_c, 2, 50, 95, 0
2, 504480, Note_off_c, 2, 50, 95, 0
2, 504480, Note_on_c, 2, 59, 95, 0
2, 504480, Note_on_c, 2, 62, 95, 0
2, 504600, Note_off_c, 2, 59, 95, 0
2, 504600, Note_off_c, 2, 62, 95, 0
2, 504600, Note_on_c, 2, 55, 95, 0
2, 505080, Note_off_c, 2, 55, 95, 0
2, 505080, Note_on_c, 2, 57, 95, 0
2, 505200, Note_off_c, 2, 57, 95, 0
2, 505200, Note_on_c, 2, 50, 95, 0
2, 505320, Note_off_c, 2, 50, 95, 0
2, 505320, Note_on_c, 2, 59, 95, 0
2, 505320, Note_on_c, 2, 62, 95, 0
2, 505800, Note_off_c, 2, 59, 95, 0
2, 505800, Note_off_c, 2, 62, 95, 0
2, 505800, Note_on_c, 2, 55, 95, 0
2, 505920, Note_off_c, 2, 55, 95, 0
2, 505920, Note_on_c, 2, 57, 95, 0
2, 506160, Note_off_c, 2, 57, 95, 0
2, 506160, Note_on_c, 2, 50, 95, 0
2, 506280, Note_off_c, 2, 50, 95, 0
2, 506280, Note_on_c, 2, 59, 95, 0
2, 506280, Note_on_c, 2, 62, 95, 0
2, 506520, Note_off_c, 2, 59, 95, 0
2, 506520, Note_off_c, 2, 62, 95, 0
2, 506520, Note_on_c, 2, 55, 95, 0
2, 506640, Note_off_c, 2, 55, 95, 0
2, 506640, Note_on_c, 2, 57, 95, 0
2, 506880, Note_off_c, 2, 57, 95, 0
2, 506880, Note_on_c, 2, 50, 95, 0
2, 507120, Note_off_c, 2, 50, 95, 0
2, 507120, Note_on_c, 2, 59, 95, 0
2, 507120, Note_on_c, 2, 62, 95, 0
2, 507240, Note_off_c, 2, 59, 95, 0
2, 507240, Note_off_c, 2, 62, 95, 0
2, 507240, Note_on_c, 2, 55, 95, 0
2, 507480, Note_off_c, 2, 55, 95, 0
2, 507480, Note_on_c, 2, 57, 95, 0
2, 507960, Note_off_c, 2, 57, 95, 0
2, 507960, Note_on_c, 2, 50, 95, 0
2, 508080, Note_off_c, 2, 50, 95, 0
2, 508080, Note_on_c, 2, 59, 95, 0
2, 508080, Note_on_c, 2, 62, 95, 0
2, 508320, Note_off_c, 2, 59, 95, 0
2, 508320, Note_off_c, 2, 62, 95, 0
2, 508320, Note_on_c, 2, 55, 95, 0
2, 508800, Note_off_c, 2, 55, 95, 0
2, 508800, Note_on_c, 2, 57, 95, 0
2, 508920, Note_off_c, 2, 57, 95, 0
2, 508920, Note_on_c, 2, 50, 95, 0
2, 509400, Note_off_c, 2, 50, 95, 0
2, 509400, Note_on_c, 2, 59, 95, 0
2, 509400, Note_on_c, 2, 62, 95, 0
2, 509880, Note_off_c, 2, 59, 95, 0
2, 509880, Note_off_c, 2, 62, 95, 0
2, 509880, Note_on_c, 2, 55, 95, 0
2, 510120, Note_off_c, 2, 55, 95, 0
2, 510120, Note_on_c, 2, 57, 95, 0
2, 510240, Note_off_c, 2, 57, 95, 0
2, 510240, Note_on_c, 2, 50, 95, 0
2, 510480, Note_off_c, 2, 50, 95, 0
2, 510480, Note_on_c, 2, 59, 95, 0
2, 510480, Note_on_c, 2, 62, 95, 0
2, 510600, Note_off_c, 2, 59, 95, 0
2, 510600, Note_off_c, 2, 62, 95, 0
2, 510600, Note_on_c, 2, 55, 95, 0
2, 510840, Note_off_c, 2, 55, 95, 0
2, 510840, Note_on_c, 2, 57, 95, 0
2, 511080, Note_off_c, 2, 57, 95, 0
2, 511080, Note_on_c, 2, 50, 95, 0
2, 511320, Note_off_c, 2, 50, 95, 0
2, 511320, Note_on_c, 2, 59, 95, 0
2, 511320, Note_on_c, 2, 62, 95, 0
2, 511440, Note_off_c, 2, 59, 95, 0
2, 511440, Note_off_c, 2, 62, 95, 0
2, 511440, Note_on_c, 2, 55, 95, 0
2, 511560, Note_off_c, 2, 55, 95, 0
2, 511560, Note_on_c, 2, 57, 95, 0
2, 511680, Note_off_c, 2, 57, 95, 0
2, 511680, Note_on_c, 2, 50, 95, 0
2, 512160, Note_off_c, 2, 50, 95, 0
2, 512160, Note_on_c, 2, 59, 95, 0
2, 512160, Note_on_c, 2, 62, 95, 0
2, 512280, Note_off_c, 2, 59, 95, 0
2, 512280, Note_off_c, 2, 62, 95, 0
2, 512280, Note_on_c, 2, 55, 95, 0
2, 512760, Note_off_c, 2, 55, 95, 0
2, 512760, Note_on_c, 2, 57, 95, 0
2, 512880, Note_off_c, 2, 57, 95, 0
2, 512880, Note_on_c, 2, 50, 95, 0
2, 513000, Note_off_c, 2, 50, 95, 0
2, 513000, Note_on_c, 2, 59, 95, 0
2, 513000, Note_on_c, 2, 62, 95, 0
2, 513120, Note_off_c, 2, 59, 95, 0
2, 513120, Note_off_c, 2, 62, 95, 0
2, 513120, Note_on_c, 2, 55, 95, 0
2, 513360, Note_off_c, 2, 55, 95, 0
2, 513360, Note_on_c, 2, 57, 95, 0
2, 513840, Note_off_c, 2, 57, 95, 0
2, 513840, Note_on_c, 2, 50, 95, 0
2, 514080, Note_off_c, 2, 50, 95, 0
2, 514080, Note_on_c, 2, 59, 95, 0
2, 514080, Note_on_c, 2, 62, 95, 0
2, 514200, Note_off_c, 2, 59, 95, 0
2, 514200, Note_off_c, 2, 62, 95, 0
2, 514200, Note_on_c, 2, 55, 95, 0
2, 514680, Note_off_c, 2, 55, 95, 0
2, 514680, Note_on_c, 2, 57, 95, 0
2, 514800, Note_off_c, 2, 57, 95, 0
2, 514800, Note_on_c, 2, 50, 95, 0
2, 515040, Note_off_c, 2, 50, 95, 0
2, 515040, Note_on_c, 2, 59, 95, 0
2, 515040, Note_on_c, 2, 62, 95, 0
2, 515280, Note_off_c, 2, 59, 95, 0
2, 515280, Note_off_c, 2, 62, 95, 0
2, 515280, Note_on_c, 2, 55, 95, 0
2, 515760, Note_off_c, 2, 55, 95, 0
2, 515760, Note_on_c, 2, 57, 95, 0
2, 516240, Note_off_c, 2, 57, 95, 0
2, 516240, Note_on_c, 2, 50, 95, 0
2, 516720, Note_off_c, 2, 50, 95, 0
2, 516720, Note_on_c, 2, 59, 95, 0
2, 516720, Note_on_c, 2, 62, 95, 0
2, 516840, Note_off_c, 2, 59, 95, 0
2, 516840, Note_off_c, 2, 62, 95, 0
2, 516840, Note_on_c, 2, 55, 95, 0
2, 517080, Note_off_c, 2, 55, 95, 0
2, 517080, Note_on_c, 2, 57, 95, 0
2, 517320, Note_off_c, 2, 57, 95, 0
2, 517320, Note_on_c, 2, 50, 95, 0
2, 517560, Note_off_c, 2, 50, 95, 0
2, 517560, Note_on_c, 2, 59, 95, 0
2, 517560, Note_on_c, 2, 62, 95, 0
2, 517800, Note_off_c, 2, 59, 95, 0
2, 517800, Note_off_c, 2, 62, 95, 0
2, 517800, Note_on_c, 2, 55, 95, 0
2, 518040, Note_off_c, 2, 55, 95, 0
2, 518040, Note_on_c, 2, 57, 95, 0
2, 518280, Note_off_c, 2, 57, 95, 0
2, 518280, Note_on_c, 2, 50, 95, 0
2, 518400, Note_off_c, 2, 50, 95, 0
2, 518400, Note_on_c, 2, 59, 95, 0
2, 518400, Note_on_c, 2, 62, 95, 0
2, 518640, Note_off_c, 2, 59, 95, 0
2, 518640, Note_off_c, 2, 62, 95, 0
2, 518640, Note_on_c, 2, 55, 95, 0
2, 519120, Note_off_c, 2, 55, 95, 0
2, 519120, Note_on_c, 2, 57, 95, 0
2, 519360, Note_off_c, 2, 57, 95, 0
2, 519360, Note_on_c, 2, 50, 95, 0
2, 519840, Note_off_c, 2, 50, 95, 0
2, 519840, Note_on_c, 2, 59, 95, 0
2, 519840, Note_on_c, 2, 62, 95, 0
2, 520080, Note_off_c, 2, 59, 95, 0
2, 520080, Note_off_c, 2, 62, 95, 0
2, 520080, Note_on_c, 2, 55, 95, 0
2, 520560, Note_off_c, 2, 55, 95, 0
2, 520560, Note_on_c, 2, 57, 95, 0
2, 521040, Note_off_c, 2, 57, 95, 0
2, 521040, Note_on_c, 2, 50, 95, 0
2, 521160, Note_off_c, 2, 50, 95, 0
2, 521160, Note_on_c, 2, 59, 95, 0
2, 521160, Note_on_c, 2, 62, 95, 0
2, 521280, Note_off_c, 2, 59, 95, 0
2, 521280, Note_off_c, 2, 62, 95, 0
2, 521280, Note_on_c, 2, 55, 95, 0
2, 521760, Note_off_c, 2, 55, 95, 0
2, 521760, Note_on_c, 2, 57, 95, 0
2, 522000, Note_off_c, 2, 57, 95, 0
2, 522000, Note_on_c, 2, 50, 95, 0
2, 522120, Note_off_c, 2, 50, 95, 0
2, 522120, Note_on_c, 2, 59, 95, 0
2, 522120, Note_on_c, 2, 62, 95, 0
2, 522600, Note_off_c, 2, 59, 95, 0
2, 522600, Note_off_c, 2, 62, 95, 0
2, 522600, Note_on_c, 2, 55, 95, 0
2, 523080, Note_off_c, 2, 55, 95, 0
2, 523080, Note_on_c, 2, 57, 95, 0
2, 523560, Note_off_c, 2, 57, 95, 0
2, 523560, Note_on_c, 2, 50, 95, 0
2, 523800, Note_off_c, 2, 50, 95, 0
2, 523800, Note_on_c, 2, 59, 95, 0
2, 523800, Note_on_c, 2, 62, 95, 0
2, 523920, Note_off_c, 2, 59, 95, 0
2, 523920, Note_off_c, 2, 62, 95, 0
2, 523920, Note_on_c, 2, 55, 95, 0
2, 524160, Note_off_c, 2, 55, 95, 0
2, 524160, Note_on_c, 2, 57, 95, 0
2, 524640, Note_off_c, 2, 57, 95, 0
2, 524640, Note_on_c, 2, 50, 95, 0
2, 524880, Note_off_c, 2, 50, 95, 0
2, 524880, Note_on_c, 2, 59, 95, 0
2, 524880, Note_on_c, 2, 62, 95, 0
2, 525360, Note_off_c, 2, 59, 95, 0
2, 525360, Note_off_c, 2, 62, 95, 0
2, 525360, Note_on_c, 2, 55, 95, 0
2, 525480, Note_off_c, 2, 55, 95, 0
2, 525480, Note_on_c, 2, 57, 95, 0
2, 525960, Note_off_c, 2, 57, 95, 0
2, 525960, Note_on_c, 2, 50, 95, 0
2, 526200, Note_off_c, 2, 50, 95, 0
2, 526200, Note_on_c, 2, 59, 95, 0
2, 526200, Note_on_c, 2, 62, 95, 0
2, 526680, Note_off_c, 2, 59, 95, 0
2, 526680, Note_off_c, 2, 62, 95, 0
2, 526680, Note_on_c, 2, 55, 95, 0
2, 526920, Note_off_c, 2, 55, 95, 0
2, 526920, Note_on_c, 2, 57, 95, 0
2, 527040, Note_off_c, 2, 57, 95, 0
2, 527040, Note_on_c, 2, 50, 95, 0
2, 527520, Note_off_c, 2, 50, 95, 0
2, 527520, Note_on_c, 2, 59, 95, 0
2, 527520, Note_on_c, 2, 62, 95, 0
2, 527760, Note_off_c, 2, 59, 95, 0
2, 527760, Note_off_c, 2, 62, 95, 0
2, 527760, Note_on_c, 2, 55, 95, 0
2, 527880, Note_off_c, 2, 55, 95, 0
2, 527880, Note_on_c, 2, 57, 95, 0
2, 528360, Note_off_c, 2, 57, 95, 0
2, 528360, Note_on_c, 2, 50, 95, 0
2, 528840, Note_off_c, 2, 50, 95, 0
2, 528840, Note_on_c, 2, 59, 95, 0
2, 528840, Note_on_c, 2, 62, 95, 0
2, 528960, Note_off_c, 2, 59, 95, 0
2, 528960, Note_off_c, 2, 62, 95, 0
2, 528960, Note_on_c, 2, 55, 95, 0
2, 529200, Note_off_c, 2, 55, 95, 0
2, 529200, Note_on_c, 2, 57, 95, 0
2, 529440, Note_off_c, 2, 57, 95, 0
2, 529440, Note_on_c, 2, 50, 95, 0
2, 529560, Note_off_c, 2, 50, 95, 0
2, 529560, Note_on_c, 2, 59, 95, 0
2, 529560, Note_on_c, 2, 62, 95, 0
2, 530040, Note_off_c, 2, 59, 95, 0
2, 530040, Note_off_c, 2, 62, 95, 0
2, 530040, Note_on_c, 2, 55, 95, 0
2, 530160, Note_off_c, 2, 55, 95, 0
2, 530160, Note_on_c, 2, 57, 95, 0
2, 530280, Note_off_c, 2, 57, 95, 0
2, 530280, Note_on_c, 2, 50, 95, 0
2, 530760, Note_off_c, 2, 50, 95, 0
2, 530760, Note_on_c, 2, 59, 95, 0
2, 530760, Note_on_c, 2, 62, 95, 0
2, 531240, Note_off_c, 2, 59, 95, 0
2, 531240, Note_off_c, 2, 62, 95, 0
2, 531240, Note_on_c, 2, 55, 95, 0
2, 531480, Note_off_c, 2, 55, 95, 0
2, 531480, Note_on_c, 2, 57, 95, 0
2, 531720, Note_off_c, 2, 57, 95, 0
2, 531720, Note_on_c, 2, 50, 95, 0
2, 531960, Note_off_c, 2, 50, 95, 0
2, 531960, Note_on_c, 2, 59, 95, 0
2, 531960, Note_on_c, 2, 62, 95, 0
2, 532200, Note_off_c, 2, 59, 95, 0
2, 532200, Note_off_c, 2, 62, 95, 0
2, 532200, Note_on_c, 2, 55, 95, 0
2, 532680, Note_off_c, 2, 55, 95, 0
2, 532680, Note_on_c, 2, 57, 95, 0
2, 533160, Note_off_c, 2, 57, 95, 0
2, 533160, Note_on_c, 2, 50, 95, 0
2, 533280, Note_off_c, 2, 50, 95, 0
2, 533280, Note_on_c, 2, 59, 95, 0
2, 533280, Note_on_c, 2, 62, 95, 0
2, 533760, Note_off_c, 2, 59, 95, 0
2, 533760, Note_off_c, 2, 62, 95, 0
2, 533760, Note_on_c, 2, 55, 95, 0
2, 534240, Note_off_c, 2, 55, 95, 0
2, 534240, Note_on_c, 2, 57, 95, 0
2, 534360, Note_off_c, 2, 57, 95, 0
2, 534360, Note_on_c, 2, 50, 95, 0
2, 534600, Note_off_c, 2, 50, 95, 0
2, 534600, Note_on_c, 2, 59, 95, 0
2, 534600, Note_on_c, 2, 62, 95, 0
2, 534720, Note_off_c, 2, 59, 95, 0
2, 534720, Note_off_c, 2, 62, 95, 0
2, 534720, Note_on_c, 2, 55, 95, 0
2, 534960, Note_off_c, 2, 55, 95, 0
2, 534960, Note_on_c, 2, 57, 95, 0
2, 535200, Note_off_c, 2, 57, 95, 0
2, 535200, Note_on_c, 2, 50, 95, 0
2, 535320, Note_off_c, 2, 50, 95, 0
2, 535320, Note_on_c, 2, 59, 95, 0
2, 535320, Note_on_c, 2, 62, 95, 0
2, 535560, Note_off_c, 2, 59, 95, 0
2, 535560, Note_off_c, 2, 62, 95, 0
2, 535560, Note_on_c, 2, 55, 95, 0
2, 535800, Note_off_c, 2, 55, 95, 0
2, 535800, Note_on_c, 2, 57, 95, 0
2, 535920, Note_off_c, 2, 57, 95, 0
2, 535920, Note_on_c, 2, 50, 95, 0
2, 536160, Note_off_c, 2, 50, 95, 0
2, 536160, Note_on_c, 2, 59, 95, 0
2, 536160, Note_on_c, 2, 62, 95, 0
2, 536640, Note_off_c, 2, 59, 95, 0
2, 536640, Note_off_c, 2, 62, 95, 0
2, 536640, Note_on_c, 2, 55, 95, 0
2, 536760, Note_off_c, 2, 55, 95, 0
2, 536760, Note_on_c, 2, 57, 95, 0
2, 537240, Note_off_c, 2, 57, 95, 0
2, 537240, Note_on_c, 2, 50, 95, 0
2, 537360, Note_off_c, 2, 50, 95, 0
2, 537360, Note_on_c, 2, 59, 95, 0
2, 537360, Note_on_c, 2, 62, 95, 0
2, 537600, Note_off_c, 2, 59, 95, 0
2, 537600, Note_off_c, 2, 62, 95, 0
2, 537600, Note_on_c, 2, 55, 95, 0
2, 537720, Note_off_c, 2, 55, 95, 0
2, 537720, Note_on_c, 2, 57, 95, 0
2, 537960, Note_off_c, 2, 57, 95, 0
2, 537960, Note_on_c, 2, 50, 95, 0
2, 538080, Note_off_c, 2, 50, 95, 0
2, 538080, Note_on_c, 2, 59, 95, 0
2, 538080, Note_on_c, 2, 62, 95, 0
2, 538200, Note_off_c, 2, 59, 95, 0
2, 538200, Note_off_c, 2, 62, 95, 0
2, 538200, Note_on_c, 2, 55, 95, 0
2, 538680, Note_off_c, 2, 55, 95, 0
2, 538680, Note_on_c, 2, 57, 95, 0
2, 539160, Note_off_c, 2, 57, 95, 0
2, 539160, Note_on_c, 2, 50, 95, 0
2, 539400, Note_off_c, 2, 50, 95, 0
2, 539400, Note_on_c, 2, 59, 95, 0
2, 539400, Note_on_c, 2, 62, 95, 0
2, 539880, Note_off_c, 2, 59, 95, 0
2, 539880, Note_off_c, 2, 62, 95, 0
2, 539880, Note_on_c, 2, 55, 95, 0
2, 540360, Note_off_c, 2, 55, 95, 0
2, 540360, Note_on_c, 2, 57, 95, 0
2, 540480, Note_off_c, 2, 57, 95, 0
2, 540480, Note_on_c, 2, 50, 95, 0
2, 540600, Note_off_c, 2, 50, 95, 0
2, 540600, Note_on_c, 2, 59, 95, 0
2, 540600, Note_on_c, 2, 62, 95, 0
2, 540720, Note_off_c, 2, 59, 95, 0
2, 540720, Note_off_c, 2, 62, 95, 0
2, 540720, Note_on_c, 2, 55, 95, 0
2, 540960, Note_off_c, 2, 55, 95, 0
2, 540960, Note_on_c, 2, 57, 95, 0
2, 541200, Note_off_c, 2, 57, 95, 0
2, 541200, Note_on_c, 2, 50, 95, 0
2, 541320, Note_off_c, 2, 50, 95, 0
2, 541320, Note_on_c, 2, 59, 95, 0
2, 541320, Note_on_c, 2, 62, 95, 0
2, 541440, Note_off_c, 2, 59, 95, 0
2, 541440, Note_off_c, 2, 62, 95, 0
2, 541440, Note_on_c, 2, 55, 95, 0
2, 541680, Note_off_c, 2, 55, 95, 0
2, 541680, Note_on_c, 2, 57, 95, 0
2, 541800, Note_off_c, 2, 57, 95, 0
2, 541800, Note_on_c, 2, 50, 95, 0
2, 542280, Note_off_c, 2, 50, 95, 0
2, 542280, Note_on_c, 2, 59, 95, 0
2, 542280, Note_on_c, 2, 62, 95, 0
2, 542760, Note_off_c, 2, 59, 95, 0
2, 542760, Note_off_c, 2, 62, 95, 0
2, 542760, Note_on_c, 2, 55, 95, 0
2, 542880, Note_off_c, 2, 55, 95, 0
2, 542880, Note_on_c, 2, 57, 95, 0
2, 543360, Note_off_c, 2, 57, 95, 0
2, 543360, Note_on_c, 2, 50, 95, 0
2, 543600, Note_off_c, 2, 50, 95, 0
2, 543600, Note_on_c, 2, 59, 95, 0
2, 543600, Note_on_c, 2, 62, 95, 0
2, 543720, Note_off_c, 2, 59, 95, 0
2, 543720, Note_off_c, 2, 62, 95, 0
2, 543720, Note_on_c, 2, 55, 95, 0
2, 543960, Note_off_c, 2, 55, 95, 0
2, 543960, Note_on_c, 2, 57, 95, 0
2, 544440, Note_off_c, 2, 57, 95, 0
2, 544440, Note_on_c, 2, 50, 95, 0
2, 544680, Note_off_c, 2, 50, 95, 0
2, 544680, Note_on_c, 2, 59, 95, 0
2, 544680, Note_on_c, 2, 62, 95, 0
2, 545160, Note_off_c, 2, 59, 95, 0
2, 545160, Note_off_c, 2, 62, 95, 0
2, 545160, Note_on_c, 2, 55, 95, 0
2, 545400, Note_off_c, 2, 55, 95, 0
2, 545400, Note_on_c, 2, 57, 95, 0
2, 545640, Note_off_c, 2, 57, 95, 0
2, 545640, Note_on_c, 2, 50, 95, 0
2, 545760, Note_off_c, 2, 50, 95, 0
2, 545760, Note_on_c, 2, 59, 95, 0
2, 545760, Note_on_c, 2, 62, 95, 0
2, 546240, Note_off_c, 2, 59, 95, 0
2, 546240, Note_off_c, 2, 62, 95, 0
2, 546240, Note_on_c, 2, 55, 95, 0
2, 546360, Note_off_c, 2, 55, 95, 0
2, 546360, Note_on_c, 2, 57, 95, 0
2, 546480, Note_off_c, 2, 57, 95, 0
2, 546480, Note_on_c, 2, 50, 95, 0
2, 546960, Note_off_c, 2, 50, 95, 0
2, 546960, Note_on_c, 2, 59, 95, 0
2, 546960, Note_on_c, 2, 62, 95, 0
2, 547440, Note_off_c, 2, 59, 95, 0
2, 547440, Note_off_c, 2, 62, 95, 0
2, 547440, Note_on_c, 2, 55, 95, 0
2, 547560, Note_off_c, 2, 55, 95, 0
2, 547560, Note_on_c, 2, 57, 95, 0
2, 548040, Note_off_c, 2, 57, 95, 0
2, 548040, Note_on_c, 2, 50, 95, 0
2, 548160, Note_off_c, 2, 50, 95, 0
2, 548160, Note_on_c, 2, 59, 95, 0
2, 548160, Note_on_c, 2, 62, 95, 0
2, 548400, Note_off_c, 2, 59, 95, 0
2, 548400, Note_off_c, 2, 62, 95, 0
2, 548400, Note_on_c, 2, 55, 95, 0
2, 548640, Note_off_c, 2, 55, 95, 0
2, 548640, Note_on_c, 2, 57, 95, 0
2, 548880, Note_off_c, 2, 57, 95, 0
2, 548880, Note_on_c, 2, 50, 95, 0
2, 549120, Note_off_c, 2, 50, 95, 0
2, 549120, Note_on_c, 2, 59, 95, 0
2, 549120, Note_on_c, 2, 62, 95, 0
2, 549240, Note_off_c, 2, 59, 95, 0
2, 549240, Note_off_c, 2, 62, 95, 0
2, 549240, Note_on_c, 2, 55, 95, 0
2, 549720, Note_off_c, 2, 55, 95, 0
2, 549720, Note_on_c, 2, 57, 95, 0
2, 549960, Note_off_c, 2, 57, 95, 0
2, 549960, Note_on_c, 2, 50, 95, 0
2, 550200, Note_off_c, 2, 50, 95, 0
2, 550200, Note_on_c, 2, 59, 95, 0
2, 550200, Note_on_c, 2, 62, 95, 0
2, 550680, Note_off_c, 2, 59, 95, 0
2, 550680, Note_off_c, 2, 62, 95, 0
2, 550680, Note_on_c, 2, 55, 95, 0
2, 550800, Note_off_c, 2, 55, 95, 0
2, 550800, Note_on_c, 2, 57, 95, 0
2, 551280, Note_off_c, 2, 57, 95, 0
2, 551280, Note_on_c, 2, 50, 95, 0
2, 551520, Note_off_c, 2, 50, 95, 0
2, 551520, Note_on_c, 2, 59, 95, 0
2, 551520, Note_on_c, 2, 62, 95, 0
2, 551640, Note_off_c, 2, 59, 95, 0
2, 551640, Note_off_c, 2, 62, 95, 0
2, 551640, Note_on_c, 2, 55, 95, 0
2, 551880, Note_off_c, 2, 55, 95, 0
2, 551880, Note_on_c, 2, 57, 95, 0
2, 552360, Note_off_c, 2, 57, 95, 0
2, 552360, Note_on_c, 2, 50, 95, 0
2, 552600, Note_off_c, 2, 50, 95, 0
2, 552600, Note_on_c, 2, 59, 95, 0
2, 552600, Note_on_c, 2, 62, 95, 0
2, 552720, Note_off_c, 2, 59, 95, 0
2, 552720, Note_off_c, 2, 62, 95, 0
2, 552720, Note_on_c, 2, 55, 95, 0
2, 553200, Note_off_c, 2, 55, 95, 0
2, 553200, Note_on_c, 2, 57, 95, 0
2, 553440, Note_off_c, 2, 57, 95, 0
2, 553440, Note_on_c, 2, 50, 95, 0
2, 553920, Note_off_c, 2, 50, 95, 0
2, 553920, Note_on_c, 2, 59, 95, 0
2, 553920, Note_on_c, 2, 62, 95, 0
2, 554400, Note_off_c, 2, 59, 95, 0
2, 554400, Note_off_c, 2, 62, 95, 0
2, 554400, Note_on_c, 2, 55, 95, 0
2, 554880, Note_off_c, 2, 55, 95, 0
2, 554880, Note_on_c, 2, 57, 95, 0
2, 555000, Note_off_c, 2, 57, 95, 0
2, 555000, Note_on_c, 2, 50, 95, 0
2, 555120, Note_off_c, 2, 50, 95, 0
2, 555120, Note_on_c, 2, 59, 95, 0
2, 555120, Note_on_c, 2, 62, 95, 0
2, 555240, Note_off_c, 2, 59, 95, 0
2, 555240, Note_off_c, 2, 62, 95, 0
2, 555240, Note_on_c, 2, 55, 95, 0
2, 555360, Note_off_c, 2, 55, 95, 0
2, 555360, Note_on_c, 2, 57, 95, 0
2, 555480, Note_off_c, 2, 57, 95, 0
2, 555480, Note_on_c, 2, 50, 95, 0
2, 555960, Note_off_c, 2, 50, 95, 0
2, 555960, Note_on_c, 2, 59, 95, 0
2, 555960, Note_on_c, 2, 62, 95, 0
2, 556080, Note_off_c, 2, 59, 95, 0
2, 556080, Note_off_c, 2, 62, 95, 0
2, 556080, End_track
2, 556080, End_track
0, 0, End_of_file
