0, 0, Header, 1, 7, 960
1, 0, Start_track
1, 0, Control_c, 0, 101, 0
1, 0, Control_c, 0, 100, 0
1, 0, Control_c, 0, 6, 12
1, 0, Control_c, 0, 38, 0
1, 0, Control_c, 1, 101, 0
1, 0, Control_c, 1, 100, 0
1, 0, Control_c, 1, 6, 12
1, 0, Control_c, 1, 38, 0
1, 0, Control_c, 2, 101, 0
1, 0, Control_c, 2, 100, 0
1, 0, Control_c, 2, 6, 12
1, 0, Control_c, 2, 38, 0
1, 0, Control_c, 3, 101, 0
1, 0, Control_c, 3, 100, 0
1, 0, Control_c, 3, 6, 12
1, 0, Control_c, 3, 38, 0
1, 0, Control_c, 4, 101, 0
1, 0, Control_c, 4, 100, 0
1, 0, Control_c, 4, 6, 12
1, 0, Control_c, 4, 38, 0
1, 0, Control_c, 5, 101, 0
1, 0, Control_c, 5, 100, 0
1, 0, Control_c, 5, 6, 12
1, 0, Control_c, 5, 38, 0
1, 0, Control_c, 6, 101, 0
1, 0, Control_c, 6, 100, 0
1, 0, Control_c, 6, 6, 12
1, 0, Control_c, 6, 38, 0
1, 0, Control_c, 7, 101, 0
1, 0, Control_c, 7, 100, 0
1, 0, Control_c, 7, 6, 12
1, 0, Control_c, 7, 38, 0
1, 0, Control_c, 8, 101, 0
1, 0, Control_c, 8, 100, 0
1, 0, Control_c, 8, 6, 12
1, 0, Control_c, 8, 38, 0
1, 0, Control_c, 9, 101, 0
1, 0, Control_c, 9, 100, 0
1, 0, Control_c, 9, 6, 12
1, 0, Control_c, 9, 38, 0
1, 0, Control_c, 10, 101, 0
1, 0, Control_c, 10, 100, 0
1, 0, Control_c, 10, 6, 12
1, 0, Control_c, 10, 38, 0
1, 0, Control_c, 11, 101, 0
1, 0, Control_c, 11, 100, 0
1, 0, Control_c, 11, 6, 12
1, 0, Control_c, 11, 38, 0
1, 0, Control_c, 12, 101, 0
1, 0, Control_c, 12, 100, 0
1, 0, Control_c, 12, 6, 12
1, 0, Control_c, 12, 38, 0
1, 0, Control_c, 13, 101, 0
1, 0, Control_c, 13, 100, 0
1, 0, Control_c, 13, 6, 12
1, 0, Control_c, 13, 38, 0
1, 0, Control_c, 14, 101, 0
1, 0, Control_c, 14, 100, 0
1, 0, Control_c, 14, 6, 12
1, 0, Control_c, 14, 38, 0
1, 0, Control_c, 15, 101, 0
1, 0, Control_c, 15, 100, 0
1, 0, Control_c, 15, 6, 12
1, 0, Control_c, 15, 38, 0
1, 0, Time_signature, 5, 2, 24, 8
1, 0, Tempo, 576923
1, 4800, Time_signature, 6, 2, 24, 8
1, 10560, Time_signature, 5, 2, 24, 8
1, 15360, Time_signature, 6, 2, 24, 8
1, 21120, Time_signature, 5, 2, 24, 8
1, 25920, Time_signature, 6, 2, 24, 8
1, 72000, Time_signature, 2, 2, 24, 8
1, 73920, Time_signature, 5, 2, 24, 8
1, 78720, Time_signature, 6, 2, 24, 8
1, 84480, Time_signature, 3, 2, 24, 8
1, 87360, Tempo, 240000
1, 104640, Time_signature, 4, 2, 24, 8
1, 108480, Time_signature, 3, 2, 24, 8
1, 171840, Time_signature, 4, 2, 24, 8
1, 179520, Time_signature, 10, 2, 24, 8
1, 189120, Time_signature, 3, 2, 24, 8
1, 194880, Time_signature, 4, 2, 24, 8
1, 202560, Time_signature, 10, 2, 24, 8
1, 212160, Time_signature, 3, 2, 24, 8
1, 235200, Time_signature, 4, 2, 24, 8
1, 304320, Time_signature, 3, 2, 24, 8
1, 310080, Time_signature, 4, 2, 24, 8
1, 356160, Time_signature, 5, 2, 24, 8
1, 356160, Tempo, 576923
1, 360960, Time_signature, 6, 2, 24, 8
1, 366720, Time_signature, 4, 2, 24, 8
1, 374400, Time_signature, 6, 2, 24, 8
1, 391680, Time_signature, 4, 2, 24, 8
1, 391680, Tempo, 428571
1, 391680, End_track
2, 0, Start_track
2, 0, Pitch_bend_c, 0, 8192
2, 0, Control_c, 0, 7, 109
2, 0, Control_c, 0, 10, 64
2, 0, Control_c, 0, 93, 0
2, 0, Control_c, 0, 91, 0
2, 0, Control_c, 0, 95, 0
2, 0, Control_c, 0, 92, 0
2, 0, Control_c, 0, 11, 127
2, 0, Program_c, 0, 25
2, 0, Control_c, 1, 7, 109
2, 0, Control_c, 1, 10, 64
2, 0, Control_c, 1, 93, 0
2, 0, Control_c, 1, 91, 0
2, 0, Control_c, 1, 95, 0
2, 0, Control_c, 1, 92, 0
2, 0, Control_c, 1, 11, 127
2, 0, Program_c, 1, 25
2, 0, Note_on_c, 0, 55, 95
2, 960, Note_off_c, 0, 55, 95
2, 960, Note_on_c, 0, 53, 95
2, 1920, Note_off_c, 0, 53, 95
2, 1920, Note_on_c, 0, 58, 95
2, 2880, Note_off_c, 0, 58, 95
2, 2880, Note_on_c, 0, 60, 95
2, 3360, Note_off_c, 0, 60, 95
2, 3360, Note_on_c, 0, 65, 95
2, 3840, Note_off_c, 0, 65, 95
2, 3840, Note_on_c, 0, 62, 95
2, 4800, Note_off_c, 0, 62, 95
2, 4800, Note_on_c, 0, 60, 95
2, 5280, Note_off_c, 0, 60, 95
2, 5280, Note_on_c, 0, 65, 95
2, 5760, Note_off_c, 0, 65, 95
2, 5760, Note_on_c, 0, 62, 95
2, 6720, Note_off_c, 0, 62, 95
2, 6720, Note_on_c, 0, 58, 95
2, 7680, Note_off_c, 0, 58, 95
2, 7680, Note_on_c, 0, 60, 95
2, 8640, Note_off_c, 0, 60, 95
2, 8640, Note_on_c, 0, 55, 95
2, 9600, Note_off_c, 0, 55, 95
2, 9600, Note_on_c, 0, 53, 95
2, 10560, Note_off_c, 0, 53, 95
2, 10560, Note_on_c, 0, 67, 95
2, 11520, Note_off_c, 0, 67, 95
2, 11520, Note_on_c, 0, 65, 95
2, 12480, Note_off_c, 0, 65, 95
2, 12480, Note_on_c, 0, 70, 95
2, 13440, Note_off_c, 0, 70, 95
2, 13440, Note_on_c, 0, 72, 95
2, 13920, Note_off_c, 0, 72, 95
2, 13920, Note_on_c, 0, 77, 95
2, 14400, Note_off_c, 0, 77, 95
2, 14400, Note_on_c, 0, 74, 95
2, 15360, Note_off_c, 0, 74, 95
2, 15360, Note_on_c, 0, 72, 95
2, 15840, Note_off_c, 0, 72, 95
2, 15840, Note_on_c, 0, 77, 95
2, 16320, Note_off_c, 0, 77, 95
2, 16320, Note_on_c, 0, 74, 95
2, 17280, Note_off_c, 0, 74, 95
2, 17280, Note_on_c, 0, 70, 95
2, 18240, Note_off_c, 0, 70, 95
2, 18240, Note_on_c, 0, 72, 95
2, 19200, Note_off_c, 0, 72, 95
2, 19200, Note_on_c, 0, 67, 95
2, 20160, Note_off_c, 0, 67, 95
2, 20160, Note_on_c, 0, 65, 95
2, 21120, Note_off_c, 0, 65, 95
2, 21120, Note_on_c, 0, 53, 95
2, 22080, Note_off_c, 0, 53, 95
2, 22080, Note_on_c, 0, 55, 95
2, 23040, Note_off_c, 0, 55, 95
2, 23040, Note_on_c, 0, 50, 95
2, 24000, Note_off_c, 0, 50, 95
2, 24000, Note_on_c, 0, 53, 95
2, 24480, Note_off_c, 0, 53, 95
2, 24480, Note_on_c, 0, 55, 95
2, 24960, Note_off_c, 0, 55, 95
2, 24960, Note_on_c, 0, 51, 95
2, 25920, Note_off_c, 0, 51, 95
2, 25920, Note_on_c, 0, 58, 95
2, 26400, Note_off_c, 0, 58, 95
2, 26400, Note_on_c, 0, 60, 95
2, 26880, Note_off_c, 0, 60, 95
2, 26880, Note_on_c, 0, 56, 95
2, 27840, Note_off_c, 0, 56, 95
2, 27840, Note_on_c, 0, 56, 95
2, 28800, Note_off_c, 0, 56, 95
2, 28800, Note_on_c, 0, 56, 95
2, 29760, Note_off_c, 0, 56, 95
2, 29760, Note_on_c, 0, 56, 95
2, 30720, Note_off_c, 0, 56, 95
2, 30720, Note_on_c, 0, 56, 95
2, 31680, Note_off_c, 0, 56, 95
2, 31680, Note_on_c, 0, 56, 95
2, 32160, Note_off_c, 0, 56, 95
2, 32160, Note_on_c, 0, 60, 95
2, 32640, Note_off_c, 0, 60, 95
2, 32640, Note_on_c, 0, 61, 95
2, 33120, Note_off_c, 0, 61, 95
2, 33120, Note_on_c, 0, 68, 95
2, 33600, Note_off_c, 0, 68, 95
2, 33600, Note_on_c, 0, 63, 95
2, 34080, Note_off_c, 0, 63, 95
2, 34080, Note_on_c, 0, 61, 95
2, 34560, Note_off_c, 0, 61, 95
2, 34560, Note_on_c, 0, 60, 95
2, 35040, Note_off_c, 0, 60, 95
2, 35040, Note_on_c, 0, 66, 95
2, 35520, Note_off_c, 0, 66, 95
2, 35520, Note_on_c, 0, 61, 95
2, 36000, Note_off_c, 0, 61, 95
2, 36000, Note_on_c, 0, 61, 95
2, 36480, Note_off_c, 0, 61, 95
2, 36480, Note_on_c, 0, 60, 95
2, 37440, Note_off_c, 0, 60, 95
2, 37440, Note_on_c, 0, 60, 95
2, 37920, Note_off_c, 0, 60, 95
2, 37920, Note_on_c, 0, 64, 95
2, 38400, Note_off_c, 0, 64, 95
2, 38400, Note_on_c, 0, 65, 95
2, 38880, Note_off_c, 0, 65, 95
2, 38880, Note_on_c, 0, 72, 95
2, 39360, Note_off_c, 0, 72, 95
2, 39360, Note_on_c, 0, 67, 95
2, 39840, Note_off_c, 0, 67, 95
2, 39840, Note_on_c, 0, 65, 95
2, 40320, Note_off_c, 0, 65, 95
2, 40320, Note_on_c, 0, 64, 95
2, 40800, Note_off_c, 0, 64, 95
2, 40800, Note_on_c, 0, 70, 95
2, 41280, Note_off_c, 0, 70, 95
2, 41280, Note_on_c, 0, 65, 95
2, 41760, Note_off_c, 0, 65, 95
2, 41760, Note_on_c, 0, 65, 95
2, 42240, Note_off_c, 0, 65, 95
2, 42240, Note_on_c, 0, 64, 95
2, 43200, Note_off_c, 0, 64, 95
2, 43200, Note_on_c, 0, 63, 95
2, 43680, Note_off_c, 0, 63, 95
2, 43680, Note_on_c, 0, 70, 95
2, 44160, Note_off_c, 0, 70, 95
2, 44160, Note_on_c, 0, 65, 95
2, 45120, Note_off_c, 0, 65, 95
2, 45120, Note_on_c, 0, 67, 95
2, 46080, Note_off_c, 0, 67, 95
2, 46080, Note_on_c, 0, 65, 95
2, 47040, Note_off_c, 0, 65, 95
2, 47040, Note_on_c, 0, 55, 95
2, 48000, Note_off_c, 0, 55, 95
2, 48000, Note_on_c, 0, 53, 95
2, 48960, Note_off_c, 0, 53, 95
2, 48960, Note_on_c, 0, 64, 95
2, 49440, Note_off_c, 0, 64, 95
2, 49440, Note_on_c, 0, 70, 95
2, 49920, Note_off_c, 0, 70, 95
2, 49920, Note_on_c, 0, 65, 95
2, 50880, Note_off_c, 0, 65, 95
2, 50880, Note_on_c, 0, 67, 95
2, 51840, Note_off_c, 0, 67, 95
2, 51840, Note_on_c, 0, 65, 95
2, 52800, Note_off_c, 0, 65, 95
2, 52800, Note_on_c, 0, 55, 95
2, 53760, Note_off_c, 0, 55, 95
2, 53760, Note_on_c, 0, 53, 95
2, 54720, Note_off_c, 0, 53, 95
2, 54720, Note_on_c, 0, 58, 95
2, 55680, Note_off_c, 0, 58, 95
2, 55680, Note_on_c, 0, 57, 95
2, 56160, Note_off_c, 0, 57, 95
2, 56160, Note_on_c, 0, 65, 95
2, 56640, Note_off_c, 0, 65, 95
2, 56640, Note_on_c, 0, 58, 95
2, 57600, Note_off_c, 0, 58, 95
2, 57600, Note_on_c, 0, 57, 95
2, 58080, Note_off_c, 0, 57, 95
2, 58080, Note_on_c, 0, 65, 95
2, 58560, Note_off_c, 0, 65, 95
2, 58560, Note_on_c, 0, 58, 95
2, 59520, Note_off_c, 0, 58, 95
2, 59520, Note_on_c, 0, 58, 95
2, 60480, Note_off_c, 0, 58, 95
2, 60480, Note_on_c, 0, 55, 95
2, 61440, Note_off_c, 0, 55, 95
2, 61440, Note_on_c, 0, 52, 95
2, 62400, Note_off_c, 0, 52, 95
2, 62400, Note_on_c, 0, 53, 95
2, 63360, Note_off_c, 0, 53, 95
2, 63360, Note_on_c, 0, 55, 95
2, 64320, Note_off_c, 0, 55, 95
2, 64320, Note_on_c, 0, 53, 95
2, 65280, Note_off_c, 0, 53, 95
2, 65280, Note_on_c, 0, 58, 95
2, 66240, Note_off_c, 0, 58, 95
2, 66240, Note_on_c, 0, 57, 95
2, 66720, Note_off_c, 0, 57, 95
2, 66720, Note_on_c, 0, 65, 95
2, 67200, Note_off_c, 0, 65, 95
2, 67200, Note_on_c, 0, 58, 95
2, 68160, Note_off_c, 0, 58, 95
2, 68160, Note_on_c, 0, 55, 95
2, 69120, Note_off_c, 0, 55, 95
2, 69120, Note_on_c, 0, 60, 95
2, 70080, Note_on_c, 0, 57, 95
2, 71040, Note_off_c, 0, 57, 95
2, 71040, Note_on_c, 0, 58, 95
2, 72000, Note_off_c, 0, 58, 95
2, 73920, Note_off_c, 0, 60, 95
2, 73920, Note_on_c, 0, 67, 95
2, 74880, Note_off_c, 0, 67, 95
2, 74880, Note_on_c, 0, 65, 95
2, 75840, Note_off_c, 0, 65, 95
2, 75840, Note_on_c, 0, 70, 95
2, 76800, Note_off_c, 0, 70, 95
2, 76800, Note_on_c, 0, 72, 95
2, 77280, Note_off_c, 0, 72, 95
2, 77280, Note_on_c, 0, 77, 95
2, 77760, Note_off_c, 0, 77, 95
2, 77760, Note_on_c, 0, 74, 95
2, 78720, Note_off_c, 0, 74, 95
2, 78720, Note_on_c, 0, 72, 95
2, 79200, Note_off_c, 0, 72, 95
2, 79200, Note_on_c, 0, 77, 95
2, 79680, Note_off_c, 0, 77, 95
2, 79680, Note_on_c, 0, 74, 95
2, 80640, Note_off_c, 0, 74, 95
2, 80640, Note_on_c, 0, 70, 95
2, 81600, Note_off_c, 0, 70, 95
2, 81600, Note_on_c, 0, 72, 95
2, 82560, Note_off_c, 0, 72, 95
2, 82560, Note_on_c, 0, 65, 95
2, 83520, Note_off_c, 0, 65, 95
2, 83520, Note_on_c, 0, 70, 95
2, 87360, Note_off_c, 0, 70, 95
2, 356160, Note_on_c, 0, 67, 95
2, 357120, Note_off_c, 0, 67, 95
2, 357120, Note_on_c, 0, 65, 95
2, 358080, Note_off_c, 0, 65, 95
2, 358080, Note_on_c, 0, 70, 95
2, 359040, Note_off_c, 0, 70, 95
2, 359040, Note_on_c, 0, 72, 95
2, 359520, Note_off_c, 0, 72, 95
2, 359520, Note_on_c, 0, 77, 95
2, 360000, Note_off_c, 0, 77, 95
2, 360000, Note_on_c, 0, 74, 95
2, 360960, Note_off_c, 0, 74, 95
2, 360960, Note_on_c, 0, 72, 95
2, 361440, Note_off_c, 0, 72, 95
2, 361440, Note_on_c, 0, 77, 95
2, 361920, Note_off_c, 0, 77, 95
2, 361920, Note_on_c, 0, 74, 95
2, 362880, Note_off_c, 0, 74, 95
2, 362880, Note_on_c, 0, 70, 95
2, 363840, Note_off_c, 0, 70, 95
2, 363840, Note_on_c, 0, 72, 95
2, 364800, Note_off_c, 0, 72, 95
2, 364800, Note_on_c, 0, 67, 95
2, 365760, Note_off_c, 0, 67, 95
2, 365760, Note_on_c, 0, 65, 95
2, 366720, Note_off_c, 0, 65, 95
2, 366720, Note_on_c, 0, 63, 95
2, 367200, Note_off_c, 0, 63, 95
2, 367200, Note_on_c, 0, 70, 95
2, 367680, Note_off_c, 0, 70, 95
2, 367680, Note_on_c, 0, 65, 95
2, 368640, Note_off_c, 0, 65, 95
2, 368640, Note_on_c, 0, 67, 95
2, 369600, Note_off_c, 0, 67, 95
2, 369600, Note_on_c, 0, 65, 95
2, 370560, Note_off_c, 0, 65, 95
2, 370560, Note_on_c, 0, 63, 95
2, 371040, Note_off_c, 0, 63, 95
2, 371040, Note_on_c, 0, 70, 95
2, 371520, Note_off_c, 0, 70, 95
2, 371520, Note_on_c, 0, 65, 95
2, 372480, Note_off_c, 0, 65, 95
2, 372480, Note_on_c, 0, 67, 95
2, 373440, Note_off_c, 0, 67, 95
2, 373440, Note_on_c, 0, 65, 95
2, 374400, Note_off_c, 0, 65, 95
2, 374400, Note_on_c, 0, 58, 95
2, 375360, Note_off_c, 0, 58, 95
2, 375360, Note_on_c, 0, 57, 95
2, 375840, Note_off_c, 0, 57, 95
2, 375840, Note_on_c, 0, 65, 95
2, 376320, Note_off_c, 0, 65, 95
2, 376320, Note_on_c, 0, 58, 95
2, 377280, Note_off_c, 0, 58, 95
2, 377280, Note_on_c, 0, 57, 95
2, 377760, Note_off_c, 0, 57, 95
2, 377760, Note_on_c, 0, 65, 95
2, 378240, Note_off_c, 0, 65, 95
2, 378240, Note_on_c, 0, 58, 95
2, 379200, Note_off_c, 0, 58, 95
2, 379200, Note_on_c, 0, 58, 95
2, 380160, Note_off_c, 0, 58, 95
2, 380160, Note_on_c, 0, 55, 95
2, 381120, Note_off_c, 0, 55, 95
2, 381120, Note_on_c, 0, 52, 95
2, 382080, Note_off_c, 0, 52, 95
2, 382080, Note_on_c, 0, 53, 95
2, 383040, Note_off_c, 0, 53, 95
2, 383040, Note_on_c, 0, 55, 95
2, 384000, Note_off_c, 0, 55, 95
2, 384000, Note_on_c, 0, 53, 95
2, 384960, Note_off_c, 0, 53, 95
2, 384960, Note_on_c, 0, 58, 95
2, 385920, Note_off_c, 0, 58, 95
2, 385920, Note_on_c, 0, 57, 95
2, 386400, Note_off_c, 0, 57, 95
2, 386400, Note_on_c, 0, 65, 95
2, 386880, Note_off_c, 0, 65, 95
2, 386880, Note_on_c, 0, 58, 95
2, 387840, Note_off_c, 0, 58, 95
2, 387840, Note_on_c, 0, 55, 95
2, 388800, Note_off_c, 0, 55, 95
2, 388800, Note_on_c, 0, 60, 95
2, 389760, Note_off_c, 0, 60, 95
2, 389760, Note_on_c, 0, 57, 95
2, 390720, Note_off_c, 0, 57, 95
2, 390720, Note_on_c, 0, 58, 95
2, 393600, Note_off_c, 0, 58, 95
2, 395520, Note_on_c, 0, 59, 95
2, 396480, Note_off_c, 0, 59, 95
2, 396480, Note_on_c, 0, 59, 95
2, 396960, Note_off_c, 0, 59, 95
2, 397440, Note_on_c, 0, 59, 95
2, 398400, Note_off_c, 0, 59, 95
2, 398400, Note_on_c, 0, 59, 95
2, 398880, Note_off_c, 0, 59, 95
2, 399360, Note_on_c, 0, 59, 95
2, 400320, Note_off_c, 0, 59, 95
2, 400320, Note_on_c, 0, 59, 95
2, 400800, Note_off_c, 0, 59, 95
2, 401280, Note_on_c, 0, 59, 95
2, 402240, Note_off_c, 0, 59, 95
2, 402240, Note_on_c, 0, 59, 95
2, 402720, Note_off_c, 0, 59, 95
2, 403200, Note_on_c, 0, 66, 95
2, 404160, Note_off_c, 0, 66, 95
2, 404160, Note_on_c, 0, 63, 95
2, 404640, Note_off_c, 0, 63, 95
2, 405120, Note_on_c, 0, 66, 95
2, 406080, Note_off_c, 0, 66, 95
2, 406080, Note_on_c, 0, 63, 95
2, 406560, Note_off_c, 0, 63, 95
2, 407040, Note_on_c, 0, 66, 95
2, 407520, Note_off_c, 0, 66, 95
2, 407520, Note_on_c, 0, 68, 95
2, 407760, Note_off_c, 0, 68, 95
2, 407760, Note_on_c, 0, 66, 95
2, 408000, Note_off_c, 0, 66, 95
2, 408000, Note_on_c, 0, 64, 95
2, 408240, Note_off_c, 0, 64, 95
2, 408240, Note_on_c, 0, 63, 95
2, 408480, Note_off_c, 0, 63, 95
2, 408480, Note_on_c, 0, 61, 95
2, 408720, Note_off_c, 0, 61, 95
2, 408720, Note_on_c, 0, 63, 95
2, 408960, Note_off_c, 0, 63, 95
2, 408960, Note_on_c, 0, 64, 95
2, 409200, Note_off_c, 0, 64, 95
2, 409200, Note_on_c, 0, 63, 95
2, 409440, Note_off_c, 0, 63, 95
2, 409440, Note_on_c, 0, 66, 95
2, 409680, Note_off_c, 0, 66, 95
2, 409680, Note_on_c, 0, 64, 95
2, 409920, Note_off_c, 0, 64, 95
2, 409920, Note_on_c, 0, 68, 95
2, 410160, Note_off_c, 0, 68, 95
2, 410160, Note_on_c, 0, 66, 95
2, 410400, Note_off_c, 0, 66, 95
2, 410400, Note_on_c, 0, 64, 95
2, 410640, Note_off_c, 0, 64, 95
2, 410640, Note_on_c, 0, 63, 95
2, 410880, Note_off_c, 0, 63, 95
2, 410880, Note_on_c, 0, 59, 95
2, 411840, Note_off_c, 0, 59, 95
2, 411840, Note_on_c, 0, 59, 95
2, 412320, Note_off_c, 0, 59, 95
2, 412800, Note_on_c, 0, 59, 95
2, 413760, Note_off_c, 0, 59, 95
2, 413760, Note_on_c, 0, 59, 95
2, 414240, Note_off_c, 0, 59, 95
2, 414720, Note_on_c, 0, 59, 95
2, 415680, Note_off_c, 0, 59, 95
2, 415680, Note_on_c, 0, 59, 95
2, 416160, Note_off_c, 0, 59, 95
2, 416640, Note_on_c, 0, 59, 95
2, 417600, Note_off_c, 0, 59, 95
2, 417600, Note_on_c, 0, 59, 95
2, 418080, Note_off_c, 0, 59, 95
2, 418560, Note_on_c, 0, 59, 95
2, 419520, Note_off_c, 0, 59, 95
2, 419520, Note_on_c, 0, 59, 95
2, 420000, Note_off_c, 0, 59, 95
2, 420480, Note_on_c, 0, 59, 95
2, 421440, Note_off_c, 0, 59, 95
2, 421440, Note_on_c, 0, 59, 95
2, 421920, Note_off_c, 0, 59, 95
2, 422400, Note_on_c, 0, 61, 95
2, 423360, Note_off_c, 0, 61, 95
2, 423360, Note_on_c, 0, 63, 95
2, 423840, Note_off_c, 0, 63, 95
2, 424320, Note_on_c, 0, 61, 95
2, 425280, Note_off_c, 0, 61, 95
2, 425280, Note_on_c, 0, 63, 95
2, 425760, Note_off_c, 0, 63, 95
2, 426240, Note_on_c, 0, 61, 95
2, 427200, Note_off_c, 0, 61, 95
2, 427200, Note_on_c, 0, 63, 95
2, 427680, Note_off_c, 0, 63, 95
2, 428160, Note_on_c, 0, 61, 95
2, 429120, Note_off_c, 0, 61, 95
2, 429120, Note_on_c, 0, 63, 95
2, 429600, Note_off_c, 0, 63, 95
2, 432000, Note_on_c, 0, 64, 95
2, 432480, Note_off_c, 0, 64, 95
2, 432480, Note_on_c, 0, 66, 95
2, 432960, Note_off_c, 0, 66, 95
2, 432960, Note_on_c, 0, 68, 95
2, 433440, Note_off_c, 0, 68, 95
2, 433440, Note_on_c, 0, 61, 95
2, 433920, Note_off_c, 0, 61, 95
2, 433920, Note_on_c, 0, 59, 95
2, 434880, Note_off_c, 0, 59, 95
2, 434880, Note_on_c, 0, 59, 95
2, 435360, Note_off_c, 0, 59, 95
2, 435840, Note_on_c, 0, 59, 95
2, 436800, Note_off_c, 0, 59, 95
2, 436800, Note_on_c, 0, 59, 95
2, 437280, Note_off_c, 0, 59, 95
2, 437760, Note_on_c, 0, 59, 95
2, 438720, Note_off_c, 0, 59, 95
2, 438720, Note_on_c, 0, 59, 95
2, 439200, Note_off_c, 0, 59, 95
2, 439680, Note_on_c, 0, 59, 95
2, 440640, Note_off_c, 0, 59, 95
2, 440640, Note_on_c, 0, 59, 95
2, 441120, Note_off_c, 0, 59, 95
2, 441600, Note_on_c, 0, 66, 95
2, 442560, Note_off_c, 0, 66, 95
2, 442560, Note_on_c, 0, 63, 95
2, 443040, Note_off_c, 0, 63, 95
2, 443520, Note_on_c, 0, 66, 95
2, 444480, Note_off_c, 0, 66, 95
2, 444480, Note_on_c, 0, 63, 95
2, 444960, Note_off_c, 0, 63, 95
2, 445440, Note_on_c, 0, 66, 95
2, 445920, Note_off_c, 0, 66, 95
2, 445920, Note_on_c, 0, 68, 95
2, 446160, Note_off_c, 0, 68, 95
2, 446160, Note_on_c, 0, 66, 95
2, 446400, Note_off_c, 0, 66, 95
2, 446400, Note_on_c, 0, 64, 95
2, 446640, Note_off_c, 0, 64, 95
2, 446640, Note_on_c, 0, 63, 95
2, 446880, Note_off_c, 0, 63, 95
2, 446880, Note_on_c, 0, 61, 95
2, 447120, Note_off_c, 0, 61, 95
2, 447120, Note_on_c, 0, 63, 95
2, 447360, Note_off_c, 0, 63, 95
2, 447360, Note_on_c, 0, 64, 95
2, 447600, Note_off_c, 0, 64, 95
2, 447600, Note_on_c, 0, 63, 95
2, 447840, Note_off_c, 0, 63, 95
2, 447840, Note_on_c, 0, 66, 95
2, 448080, Note_off_c, 0, 66, 95
2, 448080, Note_on_c, 0, 64, 95
2, 448320, Note_off_c, 0, 64, 95
2, 448320, Note_on_c, 0, 68, 95
2, 448560, Note_off_c, 0, 68, 95
2, 448560, Note_on_c, 0, 66, 95
2, 448800, Note_off_c, 0, 66, 95
2, 448800, Note_on_c, 0, 64, 95
2, 449040, Note_off_c, 0, 64, 95
2, 449040, Note_on_c, 0, 63, 95
2, 449280, Note_off_c, 0, 63, 95
2, 449280, Note_on_c, 0, 59, 95
2, 450240, Note_off_c, 0, 59, 95
2, 450240, Note_on_c, 0, 59, 95
2, 450720, Note_off_c, 0, 59, 95
2, 451200, Note_on_c, 0, 59, 95
2, 452160, Note_off_c, 0, 59, 95
2, 452160, Note_on_c, 0, 59, 95
2, 452640, Note_off_c, 0, 59, 95
2, 453120, Note_on_c, 0, 59, 95
2, 454080, Note_off_c, 0, 59, 95
2, 454080, Note_on_c, 0, 59, 95
2, 454560, Note_off_c, 0, 59, 95
2, 455040, Note_on_c, 0, 59, 95
2, 456000, Note_off_c, 0, 59, 95
2, 456000, Note_on_c, 0, 59, 95
2, 456480, Note_off_c, 0, 59, 95
2, 456960, Note_on_c, 0, 59, 95
2, 457920, Note_off_c, 0, 59, 95
2, 457920, Note_on_c, 0, 59, 95
2, 458400, Note_off_c, 0, 59, 95
2, 458880, Note_on_c, 0, 59, 95
2, 459840, Note_off_c, 0, 59, 95
2, 459840, Note_on_c, 0, 59, 95
2, 460320, Note_off_c, 0, 59, 95
2, 460800, Note_on_c, 0, 61, 95
2, 461760, Note_off_c, 0, 61, 95
2, 461760, Note_on_c, 0, 63, 95
2, 462240, Note_off_c, 0, 63, 95
2, 462720, Note_on_c, 0, 61, 95
2, 463680, Note_off_c, 0, 61, 95
2, 463680, Note_on_c, 0, 63, 95
2, 464160, Note_off_c, 0, 63, 95
2, 464640, Note_on_c, 0, 61, 95
2, 465600, Note_off_c, 0, 61, 95
2, 465600, Note_on_c, 0, 63, 95
2, 466080, Note_off_c, 0, 63, 95
2, 466560, Note_on_c, 0, 61, 95
2, 467520, Note_off_c, 0, 61, 95
2, 467520, Note_on_c, 0, 63, 95
2, 468000, Note_off_c, 0, 63, 95
2, 470400, Note_on_c, 0, 64, 95
2, 470880, Note_off_c, 0, 64, 95
2, 470880, Note_on_c, 0, 66, 95
2, 471360, Note_off_c, 0, 66, 95
2, 471360, Note_on_c, 0, 64, 95
2, 471840, Note_off_c, 0, 64, 95
2, 471840, Note_on_c, 0, 63, 95
2, 472320, Note_off_c, 0, 63, 95
2, 472320, End_track
3, 0, Start_track
3, 0, Pitch_bend_c, 2, 8192
3, 0, Control_c, 2, 7, 107
3, 0, Control_c, 2, 10, 64
3, 0, Control_c, 2, 93, 0
3, 0, Control_c, 2, 91, 0
3, 0, Control_c, 2, 95, 0
3, 0, Control_c, 2, 92, 0
3, 0, Control_c, 2, 11, 127
3, 0, Program_c, 2, 30
3, 0, Control_c, 3, 7, 107
3, 0, Control_c, 3, 10, 64
3, 0, Control_c, 3, 93, 0
3, 0, Control_c, 3, 91, 0
3, 0, Control_c, 3, 95, 0
3, 0, Control_c, 3, 92, 0
3, 0, Control_c, 3, 11, 127
3, 0, Program_c, 3, 30
3, 10560, Note_on_c, 2, 50, 95
3, 10560, Note_on_c, 2, 46, 95
3, 11520, Note_off_c, 2, 50, 95
3, 11520, Note_off_c, 2, 46, 95
3, 11520, Note_on_c, 2, 48, 95
3, 11520, Note_on_c, 2, 45, 95
3, 12480, Note_off_c, 2, 48, 95
3, 12480, Note_off_c, 2, 45, 95
3, 12480, Note_on_c, 2, 50, 95
3, 12480, Note_on_c, 2, 46, 95
3, 13440, Note_off_c, 2, 50, 95
3, 13440, Note_off_c, 2, 46, 95
3, 13440, Note_on_c, 2, 57, 95
3, 13440, Note_on_c, 2, 48, 95
3, 14400, Note_off_c, 2, 57, 95
3, 14400, Note_off_c, 2, 48, 95
3, 14400, Note_on_c, 2, 53, 95
3, 14400, Note_on_c, 2, 57, 95
3, 15360, Note_off_c, 2, 53, 95
3, 15360, Note_off_c, 2, 57, 95
3, 15360, Note_on_c, 2, 57, 95
3, 15360, Note_on_c, 2, 48, 95
3, 16320, Note_off_c, 2, 57, 95
3, 16320, Note_off_c, 2, 48, 95
3, 16320, Note_on_c, 2, 58, 95
3, 16320, Note_on_c, 2, 53, 95
3, 17280, Note_off_c, 2, 58, 95
3, 17280, Note_off_c, 2, 53, 95
3, 17280, Note_on_c, 2, 55, 95
3, 17280, Note_on_c, 2, 50, 95
3, 18240, Note_off_c, 2, 55, 95
3, 18240, Note_off_c, 2, 50, 95
3, 18240, Note_on_c, 2, 52, 95
3, 18240, Note_on_c, 2, 55, 95
3, 19200, Note_off_c, 2, 52, 95
3, 19200, Note_off_c, 2, 55, 95
3, 19200, Note_on_c, 2, 48, 95
3, 19200, Note_on_c, 2, 43, 95
3, 20160, Note_off_c, 2, 48, 95
3, 20160, Note_off_c, 2, 43, 95
3, 20160, Note_on_c, 2, 45, 95
3, 20160, Note_on_c, 2, 48, 95
3, 21120, Note_off_c, 2, 45, 95
3, 21120, Note_off_c, 2, 48, 95
3, 28800, Note_on_c, 2, 65, 95
3, 29760, Note_off_c, 2, 65, 95
3, 29760, Note_on_c, 2, 63, 95
3, 30240, Note_off_c, 2, 63, 95
3, 30240, Note_on_c, 2, 61, 95
3, 30720, Note_off_c, 2, 61, 95
3, 30720, Note_on_c, 2, 56, 95
3, 31680, Note_off_c, 2, 56, 95
3, 31680, Note_on_c, 2, 49, 95
3, 31680, Note_on_c, 2, 53, 95
3, 32160, Note_off_c, 2, 49, 95
3, 32160, Note_off_c, 2, 53, 95
3, 32160, Note_on_c, 2, 51, 95
3, 32160, Note_on_c, 2, 56, 95
3, 32640, Note_off_c, 2, 51, 95
3, 32640, Note_off_c, 2, 56, 95
3, 32640, Note_on_c, 2, 56, 95
3, 32640, Note_on_c, 2, 53, 95
3, 33120, Note_off_c, 2, 56, 95
3, 33120, Note_on_c, 2, 56, 95
3, 33600, Note_off_c, 2, 53, 95
3, 33600, Note_off_c, 2, 56, 95
3, 33600, Note_on_c, 2, 58, 95
3, 33600, Note_on_c, 2, 54, 95
3, 34080, Note_off_c, 2, 58, 95
3, 34080, Note_off_c, 2, 54, 95
3, 34080, Note_on_c, 2, 53, 95
3, 34080, Note_on_c, 2, 56, 95
3, 34560, Note_off_c, 2, 53, 95
3, 34560, Note_off_c, 2, 56, 95
3, 34560, Note_on_c, 2, 56, 95
3, 34560, Note_on_c, 2, 51, 95
3, 35040, Note_off_c, 2, 51, 95
3, 35040, Note_on_c, 2, 54, 95
3, 35520, Note_off_c, 2, 56, 95
3, 35520, Note_off_c, 2, 54, 95
3, 35520, Note_on_c, 2, 53, 95
3, 35520, Note_on_c, 2, 58, 95
3, 36000, Note_off_c, 2, 53, 95
3, 36000, Note_on_c, 2, 49, 95
3, 36480, Note_off_c, 2, 58, 95
3, 36480, Note_off_c, 2, 49, 95
3, 36480, Note_on_c, 2, 51, 95
3, 36480, Note_on_c, 2, 56, 95
3, 37440, Note_off_c, 2, 51, 95
3, 37440, Note_off_c, 2, 56, 95
3, 37440, Note_on_c, 2, 57, 95
3, 37440, Note_on_c, 2, 53, 95
3, 37920, Note_off_c, 2, 57, 95
3, 37920, Note_off_c, 2, 53, 95
3, 37920, Note_on_c, 2, 55, 95
3, 37920, Note_on_c, 2, 60, 95
3, 38400, Note_off_c, 2, 55, 95
3, 38400, Note_off_c, 2, 60, 95
3, 38400, Note_on_c, 2, 60, 95
3, 38400, Note_on_c, 2, 57, 95
3, 38880, Note_off_c, 2, 60, 95
3, 38880, Note_on_c, 2, 60, 95
3, 39360, Note_off_c, 2, 57, 95
3, 39360, Note_off_c, 2, 60, 95
3, 39360, Note_on_c, 2, 58, 95
3, 39360, Note_on_c, 2, 62, 95
3, 39840, Note_off_c, 2, 58, 95
3, 39840, Note_off_c, 2, 62, 95
3, 39840, Note_on_c, 2, 60, 95
3, 39840, Note_on_c, 2, 57, 95
3, 40320, Note_off_c, 2, 60, 95
3, 40320, Note_off_c, 2, 57, 95
3, 40320, Note_on_c, 2, 60, 95
3, 40320, Note_on_c, 2, 55, 95
3, 40800, Note_off_c, 2, 55, 95
3, 40800, Note_on_c, 2, 58, 95
3, 41280, Note_off_c, 2, 60, 95
3, 41280, Note_off_c, 2, 58, 95
3, 41280, Note_on_c, 2, 57, 95
3, 41280, Note_on_c, 2, 62, 95
3, 41760, Note_off_c, 2, 57, 95
3, 41760, Note_on_c, 2, 53, 95
3, 42240, Note_off_c, 2, 62, 95
3, 42240, Note_off_c, 2, 53, 95
3, 42240, Note_on_c, 2, 55, 95
3, 42240, Note_on_c, 2, 60, 95
3, 43200, Note_off_c, 2, 55, 95
3, 43200, Note_off_c, 2, 60, 95
3, 43200, Note_on_c, 2, 58, 95
3, 43200, Note_on_c, 2, 55, 95
3, 43680, Note_off_c, 2, 58, 95
3, 43680, Note_on_c, 2, 58, 95
3, 44160, Note_off_c, 2, 55, 95
3, 44160, Note_off_c, 2, 58, 95
3, 44160, Note_on_c, 2, 53, 95
3, 44160, Note_on_c, 2, 57, 95
3, 45120, Note_off_c, 2, 53, 95
3, 45120, Note_off_c, 2, 57, 95
3, 45120, Note_on_c, 2, 55, 95
3, 45120, Note_on_c, 2, 58, 95
3, 46080, Note_off_c, 2, 55, 95
3, 46080, Note_off_c, 2, 58, 95
3, 46080, Note_on_c, 2, 53, 95
3, 46080, Note_on_c, 2, 57, 95
3, 47040, Note_off_c, 2, 53, 95
3, 47040, Note_off_c, 2, 57, 95
3, 47040, Note_on_c, 2, 55, 95
3, 48000, Note_off_c, 2, 55, 95
3, 48000, Note_on_c, 2, 53, 95
3, 48960, Note_off_c, 2, 53, 95
3, 48960, Note_on_c, 2, 58, 95
3, 48960, Note_on_c, 2, 55, 95
3, 49440, Note_off_c, 2, 58, 95
3, 49440, Note_on_c, 2, 58, 95
3, 49920, Note_off_c, 2, 55, 95
3, 49920, Note_off_c, 2, 58, 95
3, 49920, Note_on_c, 2, 53, 95
3, 49920, Note_on_c, 2, 57, 95
3, 50880, Note_off_c, 2, 53, 95
3, 50880, Note_off_c, 2, 57, 95
3, 50880, Note_on_c, 2, 55, 95
3, 50880, Note_on_c, 2, 58, 95
3, 51840, Note_off_c, 2, 55, 95
3, 51840, Note_off_c, 2, 58, 95
3, 51840, Note_on_c, 2, 53, 95
3, 51840, Note_on_c, 2, 57, 95
3, 52800, Note_off_c, 2, 53, 95
3, 52800, Note_off_c, 2, 57, 95
3, 52800, Note_on_c, 2, 46, 95
3, 52800, Note_on_c, 2, 50, 95
3, 53760, Note_off_c, 2, 46, 95
3, 53760, Note_off_c, 2, 50, 95
3, 53760, Note_on_c, 2, 45, 95
3, 53760, Note_on_c, 2, 48, 95
3, 54720, Note_off_c, 2, 45, 95
3, 54720, Note_off_c, 2, 48, 95
3, 54720, Note_on_c, 2, 46, 95
3, 54720, Note_on_c, 2, 50, 95
3, 55680, Note_off_c, 2, 46, 95
3, 55680, Note_off_c, 2, 50, 95
3, 55680, Note_on_c, 2, 48, 95
3, 55680, Note_on_c, 2, 53, 95
3, 56160, Note_off_c, 2, 53, 95
3, 56160, Note_on_c, 2, 53, 95
3, 56640, Note_off_c, 2, 48, 95
3, 56640, Note_off_c, 2, 53, 95
3, 56640, Note_on_c, 2, 53, 95
3, 56640, Note_on_c, 2, 48, 95
3, 57600, Note_off_c, 2, 53, 95
3, 57600, Note_off_c, 2, 48, 95
3, 57600, Note_on_c, 2, 53, 95
3, 57600, Note_on_c, 2, 48, 95
3, 58080, Note_off_c, 2, 53, 95
3, 58080, Note_on_c, 2, 53, 95
3, 58560, Note_off_c, 2, 48, 95
3, 58560, Note_off_c, 2, 53, 95
3, 58560, Note_on_c, 2, 53, 95
3, 58560, Note_on_c, 2, 50, 95
3, 59520, Note_off_c, 2, 53, 95
3, 59520, Note_off_c, 2, 50, 95
3, 59520, Note_on_c, 2, 46, 95
3, 59520, Note_on_c, 2, 50, 95
3, 60480, Note_off_c, 2, 46, 95
3, 60480, Note_off_c, 2, 50, 95
3, 60480, Note_on_c, 2, 51, 95
3, 60480, Note_on_c, 2, 48, 95
3, 61440, Note_off_c, 2, 51, 95
3, 61440, Note_off_c, 2, 48, 95
3, 61440, Note_on_c, 2, 48, 95
3, 61440, Note_on_c, 2, 43, 95
3, 62400, Note_off_c, 2, 48, 95
3, 62400, Note_off_c, 2, 43, 95
3, 62400, Note_on_c, 2, 48, 95
3, 62400, Note_on_c, 2, 45, 95
3, 63360, Note_off_c, 2, 48, 95
3, 63360, Note_off_c, 2, 45, 95
3, 63360, Note_on_c, 2, 50, 95
3, 63360, Note_on_c, 2, 43, 95
3, 64320, Note_off_c, 2, 50, 95
3, 64320, Note_off_c, 2, 43, 95
3, 64320, Note_on_c, 2, 45, 95
3, 64320, Note_on_c, 2, 48, 95
3, 65280, Note_off_c, 2, 45, 95
3, 65280, Note_off_c, 2, 48, 95
3, 65280, Note_on_c, 2, 46, 95
3, 65280, Note_on_c, 2, 50, 95
3, 66240, Note_off_c, 2, 46, 95
3, 66240, Note_off_c, 2, 50, 95
3, 66240, Note_on_c, 2, 48, 95
3, 66240, Note_on_c, 2, 53, 95
3, 66720, Note_off_c, 2, 53, 95
3, 66720, Note_on_c, 2, 53, 95
3, 67200, Note_off_c, 2, 48, 95
3, 67200, Note_off_c, 2, 53, 95
3, 67200, Note_on_c, 2, 53, 95
3, 67200, Note_on_c, 2, 50, 95
3, 68160, Note_off_c, 2, 53, 95
3, 68160, Note_off_c, 2, 50, 95
3, 68160, Note_on_c, 2, 50, 95
3, 68160, Note_on_c, 2, 46, 95
3, 69120, Note_off_c, 2, 50, 95
3, 69120, Note_off_c, 2, 46, 95
3, 69120, Note_on_c, 2, 51, 95
3, 69120, Note_on_c, 2, 55, 95
3, 70080, Note_off_c, 2, 51, 95
3, 70080, Note_off_c, 2, 55, 95
3, 70080, Note_on_c, 2, 48, 95
3, 70080, Note_on_c, 2, 53, 95
3, 71040, Note_off_c, 2, 48, 95
3, 71040, Note_off_c, 2, 53, 95
3, 71040, Note_on_c, 2, 53, 95
3, 71040, Note_on_c, 2, 50, 95
3, 73920, Note_off_c, 2, 53, 95
3, 73920, Note_off_c, 2, 50, 95
3, 73920, Note_on_c, 2, 50, 95
3, 73920, Note_on_c, 2, 46, 95
3, 74880, Note_off_c, 2, 50, 95
3, 74880, Note_off_c, 2, 46, 95
3, 74880, Note_on_c, 2, 48, 95
3, 74880, Note_on_c, 2, 45, 95
3, 75840, Note_off_c, 2, 48, 95
3, 75840, Note_off_c, 2, 45, 95
3, 75840, Note_on_c, 2, 50, 95
3, 75840, Note_on_c, 2, 46, 95
3, 76800, Note_off_c, 2, 50, 95
3, 76800, Note_off_c, 2, 46, 95
3, 76800, Note_on_c, 2, 57, 95
3, 76800, Note_on_c, 2, 48, 95
3, 77760, Note_off_c, 2, 57, 95
3, 77760, Note_off_c, 2, 48, 95
3, 77760, Note_on_c, 2, 53, 95
3, 77760, Note_on_c, 2, 57, 95
3, 78720, Note_off_c, 2, 53, 95
3, 78720, Note_off_c, 2, 57, 95
3, 78720, Note_on_c, 2, 57, 95
3, 78720, Note_on_c, 2, 48, 95
3, 79680, Note_off_c, 2, 57, 95
3, 79680, Note_off_c, 2, 48, 95
3, 79680, Note_on_c, 2, 58, 95
3, 79680, Note_on_c, 2, 53, 95
3, 80640, Note_off_c, 2, 58, 95
3, 80640, Note_off_c, 2, 53, 95
3, 80640, Note_on_c, 2, 55, 95
3, 80640, Note_on_c, 2, 50, 95
3, 81600, Note_off_c, 2, 55, 95
3, 81600, Note_off_c, 2, 50, 95
3, 81600, Note_on_c, 2, 52, 95
3, 81600, Note_on_c, 2, 55, 95
3, 82560, Note_off_c, 2, 52, 95
3, 82560, Note_off_c, 2, 55, 95
3, 82560, Note_on_c, 2, 53, 95
3, 82560, Note_on_c, 2, 48, 95
3, 83520, Note_off_c, 2, 53, 95
3, 83520, Note_off_c, 2, 48, 95
3, 83520, Note_on_c, 2, 46, 95
3, 83520, Note_on_c, 2, 53, 95
3, 87360, Note_off_c, 2, 46, 95
3, 87360, Note_off_c, 2, 53, 95
3, 87360, Note_on_c, 2, 47, 127
3, 87840, Note_off_c, 2, 47, 127
3, 87840, Note_on_c, 2, 39, 127
3, 88320, Note_off_c, 2, 39, 127
3, 88320, Note_on_c, 2, 38, 127
3, 88800, Note_off_c, 2, 38, 127
3, 88800, Note_on_c, 2, 47, 127
3, 89280, Note_off_c, 2, 47, 127
3, 89280, Note_on_c, 2, 46, 127
3, 89760, Note_off_c, 2, 46, 127
3, 89760, Note_on_c, 2, 38, 127
3, 90240, Note_off_c, 2, 38, 127
3, 90240, Note_on_c, 2, 42, 127
3, 91200, Note_off_c, 2, 42, 127
3, 98880, Note_on_c, 2, 47, 127
3, 99360, Note_off_c, 2, 47, 127
3, 99360, Note_on_c, 2, 39, 127
3, 99840, Note_off_c, 2, 39, 127
3, 99840, Note_on_c, 2, 38, 127
3, 100320, Note_off_c, 2, 38, 127
3, 100320, Note_on_c, 2, 47, 127
3, 100800, Note_off_c, 2, 47, 127
3, 100800, Note_on_c, 2, 46, 127
3, 101280, Note_off_c, 2, 46, 127
3, 101280, Note_on_c, 2, 38, 127
3, 101760, Note_off_c, 2, 38, 127
3, 108480, Note_on_c, 2, 47, 127
3, 108960, Note_off_c, 2, 47, 127
3, 108960, Note_on_c, 2, 39, 127
3, 109440, Note_off_c, 2, 39, 127
3, 109440, Note_on_c, 2, 38, 127
3, 109920, Note_off_c, 2, 38, 127
3, 109920, Note_on_c, 2, 47, 127
3, 110400, Note_off_c, 2, 47, 127
3, 110400, Note_on_c, 2, 46, 127
3, 110880, Note_off_c, 2, 46, 127
3, 110880, Note_on_c, 2, 38, 127
3, 111360, Note_off_c, 2, 38, 127
3, 111360, Note_on_c, 2, 47, 127
3, 111840, Note_off_c, 2, 47, 127
3, 111840, Note_on_c, 2, 39, 127
3, 112320, Note_off_c, 2, 39, 127
3, 112320, Note_on_c, 2, 38, 127
3, 112800, Note_off_c, 2, 38, 127
3, 112800, Note_on_c, 2, 47, 127
3, 113280, Note_off_c, 2, 47, 127
3, 113280, Note_on_c, 2, 46, 127
3, 113760, Note_off_c, 2, 46, 127
3, 113760, Note_on_c, 2, 38, 127
3, 114240, Note_off_c, 2, 38, 127
3, 114240, Note_on_c, 2, 47, 127
3, 114720, Note_off_c, 2, 47, 127
3, 114720, Note_on_c, 2, 39, 127
3, 115200, Note_off_c, 2, 39, 127
3, 115200, Note_on_c, 2, 38, 127
3, 115680, Note_off_c, 2, 38, 127
3, 115680, Note_on_c, 2, 47, 127
3, 116160, Note_off_c, 2, 47, 127
3, 116160, Note_on_c, 2, 46, 127
3, 116640, Note_off_c, 2, 46, 127
3, 116640, Note_on_c, 2, 38, 127
3, 117120, Note_off_c, 2, 38, 127
3, 117120, Note_on_c, 2, 47, 127
3, 117600, Note_off_c, 2, 47, 127
3, 117600, Note_on_c, 2, 39, 127
3, 118080, Note_off_c, 2, 39, 127
3, 118080, Note_on_c, 2, 38, 127
3, 118560, Note_off_c, 2, 38, 127
3, 118560, Note_on_c, 2, 47, 127
3, 119040, Note_off_c, 2, 47, 127
3, 119040, Note_on_c, 2, 46, 127
3, 119520, Note_off_c, 2, 46, 127
3, 119520, Note_on_c, 2, 38, 127
3, 120000, Note_off_c, 2, 38, 127
3, 120000, Note_on_c, 2, 47, 127
3, 120480, Note_off_c, 2, 47, 127
3, 120480, Note_on_c, 2, 39, 127
3, 120960, Note_off_c, 2, 39, 127
3, 120960, Note_on_c, 2, 38, 127
3, 121440, Note_off_c, 2, 38, 127
3, 121440, Note_on_c, 2, 47, 127
3, 121920, Note_off_c, 2, 47, 127
3, 121920, Note_on_c, 2, 46, 127
3, 122400, Note_off_c, 2, 46, 127
3, 122400, Note_on_c, 2, 38, 127
3, 122880, Note_off_c, 2, 38, 127
3, 122880, Note_on_c, 2, 47, 127
3, 123360, Note_off_c, 2, 47, 127
3, 123360, Note_on_c, 2, 39, 127
3, 123840, Note_off_c, 2, 39, 127
3, 123840, Note_on_c, 2, 38, 127
3, 124320, Note_off_c, 2, 38, 127
3, 124320, Note_on_c, 2, 47, 127
3, 124800, Note_off_c, 2, 47, 127
3, 124800, Note_on_c, 2, 46, 127
3, 125280, Note_off_c, 2, 46, 127
3, 125280, Note_on_c, 2, 38, 127
3, 125760, Note_off_c, 2, 38, 127
3, 125760, Note_on_c, 2, 47, 127
3, 126240, Note_off_c, 2, 47, 127
3, 126240, Note_on_c, 2, 39, 127
3, 126720, Note_off_c, 2, 39, 127
3, 126720, Note_on_c, 2, 38, 127
3, 127200, Note_off_c, 2, 38, 127
3, 127200, Note_on_c, 2, 47, 127
3, 127680, Note_off_c, 2, 47, 127
3, 127680, Note_on_c, 2, 46, 127
3, 128160, Note_off_c, 2, 46, 127
3, 128160, Note_on_c, 2, 38, 127
3, 128640, Note_off_c, 2, 38, 127
3, 128640, Note_on_c, 2, 47, 127
3, 129120, Note_off_c, 2, 47, 127
3, 129120, Note_on_c, 2, 39, 127
3, 129600, Note_off_c, 2, 39, 127
3, 129600, Note_on_c, 2, 38, 127
3, 130080, Note_off_c, 2, 38, 127
3, 130080, Note_on_c, 2, 47, 127
3, 130560, Note_off_c, 2, 47, 127
3, 130560, Note_on_c, 2, 46, 127
3, 131040, Note_off_c, 2, 46, 127
3, 131040, Note_on_c, 2, 38, 127
3, 131520, Note_off_c, 2, 38, 127
3, 131520, Note_on_c, 2, 47, 127
3, 132000, Note_off_c, 2, 47, 127
3, 132000, Note_on_c, 2, 39, 127
3, 132480, Note_off_c, 2, 39, 127
3, 132480, Note_on_c, 2, 38, 127
3, 132960, Note_off_c, 2, 38, 127
3, 132960, Note_on_c, 2, 47, 127
3, 133440, Note_off_c, 2, 47, 127
3, 133440, Note_on_c, 2, 46, 127
3, 133920, Note_off_c, 2, 46, 127
3, 133920, Note_on_c, 2, 38, 127
3, 134400, Note_off_c, 2, 38, 127
3, 134400, Note_on_c, 2, 47, 127
3, 134880, Note_off_c, 2, 47, 127
3, 134880, Note_on_c, 2, 39, 127
3, 135360, Note_off_c, 2, 39, 127
3, 135360, Note_on_c, 2, 38, 127
3, 135840, Note_off_c, 2, 38, 127
3, 135840, Note_on_c, 2, 47, 127
3, 136320, Note_off_c, 2, 47, 127
3, 136320, Note_on_c, 2, 46, 127
3, 136800, Note_off_c, 2, 46, 127
3, 136800, Note_on_c, 2, 38, 127
3, 137280, Note_off_c, 2, 38, 127
3, 137280, Note_on_c, 2, 47, 127
3, 137760, Note_off_c, 2, 47, 127
3, 137760, Note_on_c, 2, 39, 127
3, 138240, Note_off_c, 2, 39, 127
3, 138240, Note_on_c, 2, 38, 127
3, 138720, Note_off_c, 2, 38, 127
3, 138720, Note_on_c, 2, 47, 127
3, 139200, Note_off_c, 2, 47, 127
3, 139200, Note_on_c, 2, 46, 127
3, 139680, Note_off_c, 2, 46, 127
3, 139680, Note_on_c, 2, 38, 127
3, 140160, Note_off_c, 2, 38, 127
3, 140160, Note_on_c, 2, 47, 127
3, 140640, Note_off_c, 2, 47, 127
3, 140640, Note_on_c, 2, 39, 127
3, 141120, Note_off_c, 2, 39, 127
3, 141120, Note_on_c, 2, 38, 127
3, 141600, Note_off_c, 2, 38, 127
3, 141600, Note_on_c, 2, 47, 127
3, 142080, Note_off_c, 2, 47, 127
3, 142080, Note_on_c, 2, 46, 127
3, 142560, Note_off_c, 2, 46, 127
3, 142560, Note_on_c, 2, 38, 127
3, 143040, Note_off_c, 2, 38, 127
3, 143040, Note_on_c, 2, 47, 127
3, 143520, Note_off_c, 2, 47, 127
3, 143520, Note_on_c, 2, 39, 127
3, 144000, Note_off_c, 2, 39, 127
3, 144000, Note_on_c, 2, 38, 127
3, 144480, Note_off_c, 2, 38, 127
3, 144480, Note_on_c, 2, 47, 127
3, 144960, Note_off_c, 2, 47, 127
3, 144960, Note_on_c, 2, 46, 127
3, 145440, Note_off_c, 2, 46, 127
3, 145440, Note_on_c, 2, 38, 127
3, 145920, Note_off_c, 2, 38, 127
3, 145920, Note_on_c, 2, 47, 127
3, 146400, Note_off_c, 2, 47, 127
3, 146400, Note_on_c, 2, 39, 127
3, 146880, Note_off_c, 2, 39, 127
3, 146880, Note_on_c, 2, 38, 127
3, 147360, Note_off_c, 2, 38, 127
3, 147360, Note_on_c, 2, 47, 127
3, 147840, Note_off_c, 2, 47, 127
3, 147840, Note_on_c, 2, 46, 127
3, 148320, Note_off_c, 2, 46, 127
3, 148320, Note_on_c, 2, 38, 127
3, 148800, Note_off_c, 2, 38, 127
3, 148800, Note_on_c, 2, 47, 127
3, 149280, Note_off_c, 2, 47, 127
3, 149280, Note_on_c, 2, 39, 127
3, 149760, Note_off_c, 2, 39, 127
3, 149760, Note_on_c, 2, 38, 127
3, 150240, Note_off_c, 2, 38, 127
3, 150240, Note_on_c, 2, 47, 127
3, 150720, Note_off_c, 2, 47, 127
3, 150720, Note_on_c, 2, 46, 127
3, 151200, Note_off_c, 2, 46, 127
3, 151200, Note_on_c, 2, 38, 127
3, 151680, Note_off_c, 2, 38, 127
3, 151680, Note_on_c, 2, 47, 127
3, 152160, Note_off_c, 2, 47, 127
3, 152160, Note_on_c, 2, 39, 127
3, 152640, Note_off_c, 2, 39, 127
3, 152640, Note_on_c, 2, 38, 127
3, 153120, Note_off_c, 2, 38, 127
3, 153120, Note_on_c, 2, 47, 127
3, 153600, Note_off_c, 2, 47, 127
3, 153600, Note_on_c, 2, 46, 127
3, 154080, Note_off_c, 2, 46, 127
3, 154080, Note_on_c, 2, 38, 127
3, 154560, Note_off_c, 2, 38, 127
3, 154560, Note_on_c, 2, 47, 127
3, 155040, Note_off_c, 2, 47, 127
3, 155040, Note_on_c, 2, 39, 127
3, 155520, Note_off_c, 2, 39, 127
3, 155520, Note_on_c, 2, 38, 127
3, 156000, Note_off_c, 2, 38, 127
3, 156000, Note_on_c, 2, 47, 127
3, 156480, Note_off_c, 2, 47, 127
3, 156480, Note_on_c, 2, 46, 127
3, 156960, Note_off_c, 2, 46, 127
3, 156960, Note_on_c, 2, 38, 127
3, 157440, Note_off_c, 2, 38, 127
3, 157440, Note_on_c, 2, 47, 127
3, 157920, Note_off_c, 2, 47, 127
3, 157920, Note_on_c, 2, 39, 127
3, 158400, Note_off_c, 2, 39, 127
3, 158400, Note_on_c, 2, 38, 127
3, 158880, Note_off_c, 2, 38, 127
3, 158880, Note_on_c, 2, 47, 127
3, 159360, Note_off_c, 2, 47, 127
3, 159360, Note_on_c, 2, 46, 127
3, 159840, Note_off_c, 2, 46, 127
3, 159840, Note_on_c, 2, 38, 127
3, 160320, Note_off_c, 2, 38, 127
3, 160320, Note_on_c, 2, 47, 127
3, 160800, Note_off_c, 2, 47, 127
3, 160800, Note_on_c, 2, 39, 127
3, 161280, Note_off_c, 2, 39, 127
3, 161280, Note_on_c, 2, 38, 127
3, 161760, Note_off_c, 2, 38, 127
3, 161760, Note_on_c, 2, 47, 127
3, 162240, Note_off_c, 2, 47, 127
3, 162240, Note_on_c, 2, 46, 127
3, 162720, Note_off_c, 2, 46, 127
3, 162720, Note_on_c, 2, 38, 127
3, 163200, Note_off_c, 2, 38, 127
3, 163200, Note_on_c, 2, 39, 127
3, 163680, Note_off_c, 2, 39, 127
3, 163680, Note_on_c, 2, 38, 127
3, 164160, Note_off_c, 2, 38, 127
3, 164160, Note_on_c, 2, 46, 127
3, 164640, Note_off_c, 2, 46, 127
3, 164640, Note_on_c, 2, 47, 127
3, 165120, Note_off_c, 2, 47, 127
3, 165120, Note_on_c, 2, 48, 127
3, 165600, Note_off_c, 2, 48, 127
3, 165600, Note_on_c, 2, 49, 127
3, 166080, Note_off_c, 2, 49, 127
3, 166080, Note_on_c, 2, 42, 95
3, 166080, Note_on_c, 2, 46, 95
3, 167040, Note_off_c, 2, 42, 95
3, 167040, Note_off_c, 2, 46, 95
3, 167040, Note_on_c, 2, 46, 95
3, 167040, Note_on_c, 2, 42, 95
3, 171840, Note_off_c, 2, 46, 95
3, 171840, Note_off_c, 2, 42, 95
3, 171840, Note_on_c, 2, 46, 95
3, 171840, Note_on_c, 2, 42, 95
3, 172800, Note_off_c, 2, 46, 95
3, 172800, Note_off_c, 2, 42, 95
3, 172800, Note_on_c, 2, 42, 95
3, 172800, Note_on_c, 2, 46, 95
3, 175680, Note_off_c, 2, 42, 95
3, 175680, Note_off_c, 2, 46, 95
3, 175680, Note_on_c, 2, 40, 95
3, 176640, Note_off_c, 2, 40, 95
3, 176640, Note_on_c, 2, 40, 95
3, 179520, Note_off_c, 2, 40, 95
3, 179520, Note_on_c, 2, 42, 95
3, 179520, Note_on_c, 2, 46, 95
3, 180480, Note_off_c, 2, 42, 95
3, 180480, Note_off_c, 2, 46, 95
3, 180480, Note_on_c, 2, 42, 95
3, 180480, Note_on_c, 2, 46, 95
3, 189120, Note_off_c, 2, 42, 95
3, 189120, Note_off_c, 2, 46, 95
3, 189120, Note_on_c, 2, 42, 95
3, 189120, Note_on_c, 2, 46, 95
3, 190080, Note_off_c, 2, 42, 95
3, 190080, Note_off_c, 2, 46, 95
3, 190080, Note_on_c, 2, 46, 95
3, 190080, Note_on_c, 2, 42, 95
3, 194880, Note_off_c, 2, 46, 95
3, 194880, Note_off_c, 2, 42, 95
3, 194880, Note_on_c, 2, 46, 95
3, 194880, Note_on_c, 2, 42, 95
3, 195840, Note_off_c, 2, 46, 95
3, 195840, Note_off_c, 2, 42, 95
3, 195840, Note_on_c, 2, 42, 95
3, 195840, Note_on_c, 2, 46, 95
3, 198720, Note_off_c, 2, 42, 95
3, 198720, Note_off_c, 2, 46, 95
3, 198720, Note_on_c, 2, 40, 95
3, 199680, Note_off_c, 2, 40, 95
3, 199680, Note_on_c, 2, 40, 95
3, 202560, Note_off_c, 2, 40, 95
3, 202560, Note_on_c, 2, 42, 95
3, 202560, Note_on_c, 2, 46, 95
3, 203520, Note_off_c, 2, 42, 95
3, 203520, Note_off_c, 2, 46, 95
3, 203520, Note_on_c, 2, 42, 95
3, 203520, Note_on_c, 2, 46, 95
3, 212160, Note_off_c, 2, 42, 95
3, 212160, Note_off_c, 2, 46, 95
3, 212160, Note_on_c, 2, 47, 127
3, 212640, Note_off_c, 2, 47, 127
3, 212640, Note_on_c, 2, 39, 127
3, 213120, Note_off_c, 2, 39, 127
3, 213120, Note_on_c, 2, 38, 127
3, 213600, Note_off_c, 2, 38, 127
3, 213600, Note_on_c, 2, 47, 127
3, 214080, Note_off_c, 2, 47, 127
3, 214080, Note_on_c, 2, 46, 127
3, 214560, Note_off_c, 2, 46, 127
3, 214560, Note_on_c, 2, 38, 127
3, 215040, Note_off_c, 2, 38, 127
3, 215040, Note_on_c, 2, 47, 127
3, 215520, Note_off_c, 2, 47, 127
3, 215520, Note_on_c, 2, 39, 127
3, 216000, Note_off_c, 2, 39, 127
3, 216000, Note_on_c, 2, 38, 127
3, 216480, Note_off_c, 2, 38, 127
3, 216480, Note_on_c, 2, 47, 127
3, 216960, Note_off_c, 2, 47, 127
3, 216960, Note_on_c, 2, 46, 127
3, 217440, Note_off_c, 2, 46, 127
3, 217440, Note_on_c, 2, 38, 127
3, 217920, Note_off_c, 2, 38, 127
3, 217920, Note_on_c, 2, 47, 127
3, 218400, Note_off_c, 2, 47, 127
3, 218400, Note_on_c, 2, 39, 127
3, 218880, Note_off_c, 2, 39, 127
3, 218880, Note_on_c, 2, 38, 127
3, 219360, Note_off_c, 2, 38, 127
3, 219360, Note_on_c, 2, 47, 127
3, 219840, Note_off_c, 2, 47, 127
3, 219840, Note_on_c, 2, 46, 127
3, 220320, Note_off_c, 2, 46, 127
3, 220320, Note_on_c, 2, 38, 127
3, 220800, Note_off_c, 2, 38, 127
3, 220800, Note_on_c, 2, 47, 127
3, 221280, Note_off_c, 2, 47, 127
3, 221280, Note_on_c, 2, 39, 127
3, 221760, Note_off_c, 2, 39, 127
3, 221760, Note_on_c, 2, 38, 127
3, 222240, Note_off_c, 2, 38, 127
3, 222240, Note_on_c, 2, 47, 127
3, 222720, Note_off_c, 2, 47, 127
3, 222720, Note_on_c, 2, 46, 127
3, 223200, Note_off_c, 2, 46, 127
3, 223200, Note_on_c, 2, 38, 127
3, 223680, Note_off_c, 2, 38, 127
3, 223680, Note_on_c, 2, 47, 127
3, 224160, Note_off_c, 2, 47, 127
3, 224160, Note_on_c, 2, 39, 127
3, 224640, Note_off_c, 2, 39, 127
3, 224640, Note_on_c, 2, 38, 127
3, 225120, Note_off_c, 2, 38, 127
3, 225120, Note_on_c, 2, 47, 127
3, 225600, Note_off_c, 2, 47, 127
3, 225600, Note_on_c, 2, 46, 127
3, 226080, Note_off_c, 2, 46, 127
3, 226080, Note_on_c, 2, 38, 127
3, 226560, Note_off_c, 2, 38, 127
3, 226560, Note_on_c, 2, 47, 127
3, 227040, Note_off_c, 2, 47, 127
3, 227040, Note_on_c, 2, 39, 127
3, 227520, Note_off_c, 2, 39, 127
3, 227520, Note_on_c, 2, 38, 127
3, 228000, Note_off_c, 2, 38, 127
3, 228000, Note_on_c, 2, 47, 127
3, 228480, Note_off_c, 2, 47, 127
3, 228480, Note_on_c, 2, 46, 127
3, 228960, Note_off_c, 2, 46, 127
3, 228960, Note_on_c, 2, 38, 127
3, 229440, Note_off_c, 2, 38, 127
3, 229440, Note_on_c, 2, 47, 127
3, 229920, Note_off_c, 2, 47, 127
3, 229920, Note_on_c, 2, 39, 127
3, 230400, Note_off_c, 2, 39, 127
3, 230400, Note_on_c, 2, 38, 127
3, 230880, Note_off_c, 2, 38, 127
3, 230880, Note_on_c, 2, 47, 127
3, 231360, Note_off_c, 2, 47, 127
3, 231360, Note_on_c, 2, 46, 127
3, 231840, Note_off_c, 2, 46, 127
3, 231840, Note_on_c, 2, 38, 127
3, 232320, Note_off_c, 2, 38, 127
3, 232320, Note_on_c, 2, 39, 127
3, 232800, Note_off_c, 2, 39, 127
3, 232800, Note_on_c, 2, 38, 127
3, 233280, Note_off_c, 2, 38, 127
3, 233280, Note_on_c, 2, 46, 127
3, 233760, Note_off_c, 2, 46, 127
3, 233760, Note_on_c, 2, 43, 95
3, 234240, Note_off_c, 2, 43, 95
3, 234240, Note_on_c, 2, 41, 95
3, 234720, Note_off_c, 2, 41, 95
3, 234720, Note_on_c, 2, 40, 95
3, 235200, Note_off_c, 2, 40, 95
3, 235200, Note_on_c, 2, 39, 95
3, 235200, Note_on_c, 2, 51, 95
3, 239040, Note_off_c, 2, 39, 95
3, 239040, Note_off_c, 2, 51, 95
3, 239040, Note_on_c, 2, 45, 95
3, 239040, Note_on_c, 2, 57, 95
3, 242880, Note_off_c, 2, 45, 95
3, 242880, Note_off_c, 2, 57, 95
3, 242880, Note_on_c, 2, 51, 95
3, 242880, Note_on_c, 2, 39, 95
3, 246720, Note_off_c, 2, 51, 95
3, 246720, Note_off_c, 2, 39, 95
3, 246720, Note_on_c, 2, 58, 95
3, 246720, Note_on_c, 2, 46, 95
3, 250560, Note_off_c, 2, 58, 95
3, 250560, Note_off_c, 2, 46, 95
3, 250560, Note_on_c, 2, 39, 95
3, 250560, Note_on_c, 2, 51, 95
3, 254400, Note_off_c, 2, 39, 95
3, 254400, Note_off_c, 2, 51, 95
3, 254400, Note_on_c, 2, 45, 95
3, 254400, Note_on_c, 2, 57, 95
3, 258240, Note_off_c, 2, 45, 95
3, 258240, Note_off_c, 2, 57, 95
3, 258240, Note_on_c, 2, 51, 95
3, 258240, Note_on_c, 2, 39, 95
3, 262080, Note_off_c, 2, 51, 95
3, 262080, Note_off_c, 2, 39, 95
3, 262080, Note_on_c, 2, 58, 95
3, 262080, Note_on_c, 2, 46, 95
3, 265920, Note_off_c, 2, 58, 95
3, 265920, Note_off_c, 2, 46, 95
3, 265920, Note_on_c, 2, 39, 95
3, 265920, Note_on_c, 2, 51, 95
3, 269760, Note_off_c, 2, 39, 95
3, 269760, Note_off_c, 2, 51, 95
3, 269760, Note_on_c, 2, 51, 95
3, 269760, Note_on_c, 2, 63, 95
3, 271680, Note_off_c, 2, 51, 95
3, 271680, Note_off_c, 2, 63, 95
3, 271680, Note_on_c, 2, 49, 95
3, 271680, Note_on_c, 2, 61, 95
3, 273600, Note_off_c, 2, 49, 95
3, 273600, Note_off_c, 2, 61, 95
3, 273600, Note_on_c, 2, 52, 95
3, 273600, Note_on_c, 2, 64, 95
3, 277440, Note_off_c, 2, 52, 95
3, 277440, Note_off_c, 2, 64, 95
3, 277440, Note_on_c, 2, 51, 95
3, 277440, Note_on_c, 2, 63, 95
3, 281280, Note_off_c, 2, 51, 95
3, 281280, Note_off_c, 2, 63, 95
3, 281280, Note_on_c, 2, 39, 95
3, 281280, Note_on_c, 2, 51, 95
3, 283200, Note_off_c, 2, 39, 95
3, 283200, Note_off_c, 2, 51, 95
3, 283200, Note_on_c, 2, 63, 95
3, 283200, Note_on_c, 2, 51, 95
3, 285120, Note_off_c, 2, 63, 95
3, 285120, Note_off_c, 2, 51, 95
3, 285120, Note_on_c, 2, 49, 95
3, 285120, Note_on_c, 2, 61, 95
3, 287040, Note_off_c, 2, 49, 95
3, 287040, Note_off_c, 2, 61, 95
3, 287040, Note_on_c, 2, 54, 95
3, 287040, Note_on_c, 2, 66, 95
3, 288960, Note_off_c, 2, 54, 95
3, 288960, Note_off_c, 2, 66, 95
3, 288960, Note_on_c, 2, 65, 95
3, 288960, Note_on_c, 2, 53, 95
3, 290880, Note_off_c, 2, 65, 95
3, 290880, Note_off_c, 2, 53, 95
3, 290880, Note_on_c, 2, 46, 95
3, 290880, Note_on_c, 2, 58, 95
3, 292800, Note_off_c, 2, 46, 95
3, 292800, Note_off_c, 2, 58, 95
3, 292800, Note_on_c, 2, 53, 95
3, 292800, Note_on_c, 2, 65, 95
3, 296640, Note_off_c, 2, 53, 95
3, 296640, Note_off_c, 2, 65, 95
3, 296640, Note_on_c, 2, 66, 95
3, 296640, Note_on_c, 2, 54, 95
3, 298560, Note_off_c, 2, 66, 95
3, 298560, Note_off_c, 2, 54, 95
3, 298560, Note_on_c, 2, 53, 95
3, 298560, Note_on_c, 2, 65, 95
3, 300480, Note_off_c, 2, 53, 95
3, 300480, Note_off_c, 2, 65, 95
3, 300480, Note_on_c, 2, 46, 95
3, 300480, Note_on_c, 2, 58, 95
3, 302400, Note_off_c, 2, 46, 95
3, 302400, Note_off_c, 2, 58, 95
3, 302400, Note_on_c, 2, 53, 95
3, 302400, Note_on_c, 2, 65, 95
3, 304320, Note_off_c, 2, 53, 95
3, 304320, Note_off_c, 2, 65, 95
3, 304320, Note_on_c, 2, 47, 127
3, 304800, Note_off_c, 2, 47, 127
3, 304800, Note_on_c, 2, 39, 127
3, 305280, Note_off_c, 2, 39, 127
3, 305280, Note_on_c, 2, 38, 127
3, 305760, Note_off_c, 2, 38, 127
3, 305760, Note_on_c, 2, 47, 127
3, 306240, Note_off_c, 2, 47, 127
3, 306240, Note_on_c, 2, 46, 127
3, 306720, Note_off_c, 2, 46, 127
3, 306720, Note_on_c, 2, 38, 127
3, 307200, Note_off_c, 2, 38, 127
3, 307200, Note_on_c, 2, 47, 127
3, 307680, Note_off_c, 2, 47, 127
3, 307680, Note_on_c, 2, 39, 127
3, 308160, Note_off_c, 2, 39, 127
3, 308160, Note_on_c, 2, 38, 127
3, 308640, Note_off_c, 2, 38, 127
3, 308640, Note_on_c, 2, 47, 127
3, 309120, Note_off_c, 2, 47, 127
3, 309120, Note_on_c, 2, 46, 127
3, 309600, Note_off_c, 2, 46, 127
3, 309600, Note_on_c, 2, 38, 127
3, 310080, Note_off_c, 2, 38, 127
3, 310080, Note_on_c, 2, 39, 95
3, 310080, Note_on_c, 2, 51, 95
3, 313920, Note_off_c, 2, 39, 95
3, 313920, Note_off_c, 2, 51, 95
3, 313920, Note_on_c, 2, 45, 95
3, 313920, Note_on_c, 2, 57, 95
3, 317760, Note_off_c, 2, 45, 95
3, 317760, Note_off_c, 2, 57, 95
3, 317760, Note_on_c, 2, 51, 95
3, 317760, Note_on_c, 2, 39, 95
3, 321600, Note_off_c, 2, 51, 95
3, 321600, Note_off_c, 2, 39, 95
3, 321600, Note_on_c, 2, 58, 95
3, 321600, Note_on_c, 2, 46, 95
3, 325440, Note_off_c, 2, 58, 95
3, 325440, Note_off_c, 2, 46, 95
3, 325440, Note_on_c, 2, 39, 95
3, 325440, Note_on_c, 2, 51, 95
3, 329280, Note_off_c, 2, 39, 95
3, 329280, Note_off_c, 2, 51, 95
3, 329280, Note_on_c, 2, 45, 95
3, 329280, Note_on_c, 2, 57, 95
3, 333120, Note_off_c, 2, 45, 95
3, 333120, Note_off_c, 2, 57, 95
3, 333120, Note_on_c, 2, 51, 95
3, 333120, Note_on_c, 2, 39, 95
3, 336960, Note_off_c, 2, 51, 95
3, 336960, Note_off_c, 2, 39, 95
3, 336960, Note_on_c, 2, 58, 95
3, 336960, Note_on_c, 2, 46, 95
3, 340800, Note_off_c, 2, 58, 95
3, 340800, Note_off_c, 2, 46, 95
3, 340800, Note_on_c, 2, 75, 95
3, 341280, Note_off_c, 2, 75, 95
3, 341280, Note_on_c, 2, 71, 95
3, 341760, Note_off_c, 2, 71, 95
3, 341760, Note_on_c, 2, 72, 95
3, 342240, Note_off_c, 2, 72, 95
3, 342240, Note_on_c, 2, 68, 95
3, 342720, Note_off_c, 2, 68, 95
3, 342720, Note_on_c, 2, 67, 95
3, 343200, Note_off_c, 2, 67, 95
3, 343200, Note_on_c, 2, 71, 95
3, 343680, Note_off_c, 2, 71, 95
3, 343680, Note_on_c, 2, 72, 95
3, 344160, Note_off_c, 2, 72, 95
3, 344160, Note_on_c, 2, 71, 95
3, 344640, Note_off_c, 2, 71, 95
3, 344640, Note_on_c, 2, 68, 95
3, 345120, Note_off_c, 2, 68, 95
3, 345120, Note_on_c, 2, 67, 95
3, 345600, Note_off_c, 2, 67, 95
3, 345600, Note_on_c, 2, 66, 95
3, 346080, Note_off_c, 2, 66, 95
3, 346080, Note_on_c, 2, 67, 95
3, 346560, Note_off_c, 2, 67, 95
3, 346560, Note_on_c, 2, 66, 95
3, 347040, Note_off_c, 2, 66, 95
3, 347040, Note_on_c, 2, 62, 95
3, 347520, Note_off_c, 2, 62, 95
3, 347520, Note_on_c, 2, 63, 95
3, 348000, Note_off_c, 2, 63, 95
3, 348000, Note_on_c, 2, 60, 95
3, 348480, Note_off_c, 2, 60, 95
3, 348480, Note_on_c, 2, 60, 95
3, 348960, Note_off_c, 2, 60, 95
3, 348960, Note_on_c, 2, 57, 95
3, 349440, Note_off_c, 2, 57, 95
3, 349440, Note_on_c, 2, 56, 95
3, 349920, Note_off_c, 2, 56, 95
3, 349920, Note_on_c, 2, 57, 95
3, 350400, Note_off_c, 2, 57, 95
3, 350400, Note_on_c, 2, 57, 95
3, 350880, Note_off_c, 2, 57, 95
3, 350880, Note_on_c, 2, 57, 95
3, 351360, Note_off_c, 2, 57, 95
3, 351360, Note_on_c, 2, 53, 95
3, 351840, Note_off_c, 2, 53, 95
3, 351840, Note_on_c, 2, 54, 95
3, 352320, Note_off_c, 2, 54, 95
3, 352320, Note_on_c, 2, 58, 95
3, 353280, Note_off_c, 2, 58, 95
3, 356160, Note_on_c, 2, 50, 95
3, 356160, Note_on_c, 2, 46, 95
3, 357120, Note_off_c, 2, 50, 95
3, 357120, Note_off_c, 2, 46, 95
3, 357120, Note_on_c, 2, 48, 95
3, 357120, Note_on_c, 2, 45, 95
3, 358080, Note_off_c, 2, 48, 95
3, 358080, Note_off_c, 2, 45, 95
3, 358080, Note_on_c, 2, 50, 95
3, 358080, Note_on_c, 2, 46, 95
3, 359040, Note_off_c, 2, 50, 95
3, 359040, Note_off_c, 2, 46, 95
3, 359040, Note_on_c, 2, 57, 95
3, 359040, Note_on_c, 2, 48, 95
3, 360000, Note_off_c, 2, 57, 95
3, 360000, Note_off_c, 2, 48, 95
3, 360000, Note_on_c, 2, 53, 95
3, 360000, Note_on_c, 2, 57, 95
3, 360960, Note_off_c, 2, 53, 95
3, 360960, Note_off_c, 2, 57, 95
3, 360960, Note_on_c, 2, 57, 95
3, 360960, Note_on_c, 2, 48, 95
3, 361920, Note_off_c, 2, 57, 95
3, 361920, Note_off_c, 2, 48, 95
3, 361920, Note_on_c, 2, 58, 95
3, 361920, Note_on_c, 2, 53, 95
3, 362880, Note_off_c, 2, 58, 95
3, 362880, Note_off_c, 2, 53, 95
3, 362880, Note_on_c, 2, 55, 95
3, 362880, Note_on_c, 2, 50, 95
3, 363840, Note_off_c, 2, 55, 95
3, 363840, Note_off_c, 2, 50, 95
3, 363840, Note_on_c, 2, 52, 95
3, 363840, Note_on_c, 2, 55, 95
3, 364800, Note_off_c, 2, 52, 95
3, 364800, Note_off_c, 2, 55, 95
3, 364800, Note_on_c, 2, 48, 95
3, 364800, Note_on_c, 2, 43, 95
3, 365760, Note_off_c, 2, 48, 95
3, 365760, Note_off_c, 2, 43, 95
3, 365760, Note_on_c, 2, 45, 95
3, 365760, Note_on_c, 2, 48, 95
3, 366720, Note_off_c, 2, 45, 95
3, 366720, Note_off_c, 2, 48, 95
3, 366720, Note_on_c, 2, 58, 95
3, 366720, Note_on_c, 2, 55, 95
3, 367200, Note_off_c, 2, 58, 95
3, 367200, Note_on_c, 2, 58, 95
3, 367680, Note_off_c, 2, 55, 95
3, 367680, Note_off_c, 2, 58, 95
3, 367680, Note_on_c, 2, 53, 95
3, 367680, Note_on_c, 2, 57, 95
3, 368640, Note_off_c, 2, 53, 95
3, 368640, Note_off_c, 2, 57, 95
3, 368640, Note_on_c, 2, 55, 95
3, 368640, Note_on_c, 2, 58, 95
3, 369600, Note_off_c, 2, 55, 95
3, 369600, Note_off_c, 2, 58, 95
3, 369600, Note_on_c, 2, 53, 95
3, 369600, Note_on_c, 2, 57, 95
3, 370560, Note_off_c, 2, 53, 95
3, 370560, Note_off_c, 2, 57, 95
3, 370560, Note_on_c, 2, 58, 95
3, 370560, Note_on_c, 2, 55, 95
3, 371040, Note_off_c, 2, 58, 95
3, 371040, Note_on_c, 2, 58, 95
3, 371520, Note_off_c, 2, 55, 95
3, 371520, Note_off_c, 2, 58, 95
3, 371520, Note_on_c, 2, 53, 95
3, 371520, Note_on_c, 2, 57, 95
3, 372480, Note_off_c, 2, 53, 95
3, 372480, Note_off_c, 2, 57, 95
3, 372480, Note_on_c, 2, 55, 95
3, 372480, Note_on_c, 2, 58, 95
3, 373440, Note_off_c, 2, 55, 95
3, 373440, Note_off_c, 2, 58, 95
3, 373440, Note_on_c, 2, 53, 95
3, 373440, Note_on_c, 2, 57, 95
3, 374400, Note_off_c, 2, 53, 95
3, 374400, Note_off_c, 2, 57, 95
3, 374400, Note_on_c, 2, 46, 95
3, 374400, Note_on_c, 2, 50, 95
3, 375360, Note_off_c, 2, 46, 95
3, 375360, Note_off_c, 2, 50, 95
3, 375360, Note_on_c, 2, 48, 95
3, 375360, Note_on_c, 2, 53, 95
3, 375840, Note_off_c, 2, 53, 95
3, 375840, Note_on_c, 2, 53, 95
3, 376320, Note_off_c, 2, 48, 95
3, 376320, Note_off_c, 2, 53, 95
3, 376320, Note_on_c, 2, 53, 95
3, 376320, Note_on_c, 2, 48, 95
3, 377280, Note_off_c, 2, 53, 95
3, 377280, Note_off_c, 2, 48, 95
3, 377280, Note_on_c, 2, 53, 95
3, 377280, Note_on_c, 2, 48, 95
3, 377760, Note_off_c, 2, 53, 95
3, 377760, Note_on_c, 2, 53, 95
3, 378240, Note_off_c, 2, 48, 95
3, 378240, Note_off_c, 2, 53, 95
3, 378240, Note_on_c, 2, 53, 95
3, 378240, Note_on_c, 2, 50, 95
3, 379200, Note_off_c, 2, 53, 95
3, 379200, Note_off_c, 2, 50, 95
3, 379200, Note_on_c, 2, 46, 95
3, 379200, Note_on_c, 2, 50, 95
3, 380160, Note_off_c, 2, 46, 95
3, 380160, Note_off_c, 2, 50, 95
3, 380160, Note_on_c, 2, 51, 95
3, 380160, Note_on_c, 2, 48, 95
3, 381120, Note_off_c, 2, 51, 95
3, 381120, Note_off_c, 2, 48, 95
3, 381120, Note_on_c, 2, 48, 95
3, 381120, Note_on_c, 2, 43, 95
3, 382080, Note_off_c, 2, 48, 95
3, 382080, Note_off_c, 2, 43, 95
3, 382080, Note_on_c, 2, 48, 95
3, 382080, Note_on_c, 2, 45, 95
3, 383040, Note_off_c, 2, 48, 95
3, 383040, Note_off_c, 2, 45, 95
3, 383040, Note_on_c, 2, 50, 95
3, 383040, Note_on_c, 2, 43, 95
3, 384000, Note_off_c, 2, 50, 95
3, 384000, Note_off_c, 2, 43, 95
3, 384000, Note_on_c, 2, 45, 95
3, 384000, Note_on_c, 2, 48, 95
3, 384960, Note_off_c, 2, 45, 95
3, 384960, Note_off_c, 2, 48, 95
3, 384960, Note_on_c, 2, 46, 95
3, 384960, Note_on_c, 2, 50, 95
3, 385920, Note_off_c, 2, 46, 95
3, 385920, Note_off_c, 2, 50, 95
3, 385920, Note_on_c, 2, 48, 95
3, 385920, Note_on_c, 2, 53, 95
3, 386400, Note_off_c, 2, 53, 95
3, 386400, Note_on_c, 2, 53, 95
3, 386880, Note_off_c, 2, 48, 95
3, 386880, Note_off_c, 2, 53, 95
3, 386880, Note_on_c, 2, 53, 95
3, 386880, Note_on_c, 2, 50, 95
3, 387840, Note_off_c, 2, 53, 95
3, 387840, Note_off_c, 2, 50, 95
3, 387840, Note_on_c, 2, 50, 95
3, 387840, Note_on_c, 2, 46, 95
3, 388800, Note_off_c, 2, 50, 95
3, 388800, Note_off_c, 2, 46, 95
3, 388800, Note_on_c, 2, 51, 95
3, 388800, Note_on_c, 2, 55, 95
3, 389760, Note_off_c, 2, 51, 95
3, 389760, Note_off_c, 2, 55, 95
3, 389760, Note_on_c, 2, 48, 95
3, 389760, Note_on_c, 2, 53, 95
3, 390720, Note_off_c, 2, 48, 95
3, 390720, Note_off_c, 2, 53, 95
3, 390720, Note_on_c, 2, 53, 95
3, 390720, Note_on_c, 2, 50, 95
3, 393600, Note_off_c, 2, 53, 95
3, 393600, Note_off_c, 2, 50, 95
3, 395520, Note_on_c, 2, 54, 95
3, 396480, Note_off_c, 2, 54, 95
3, 396480, Note_on_c, 2, 51, 95
3, 396960, Note_off_c, 2, 51, 95
3, 397440, Note_on_c, 2, 54, 95
3, 398400, Note_off_c, 2, 54, 95
3, 398400, Note_on_c, 2, 51, 95
3, 398880, Note_off_c, 2, 51, 95
3, 399360, Note_on_c, 2, 54, 95
3, 400320, Note_off_c, 2, 54, 95
3, 400320, Note_on_c, 2, 51, 95
3, 400800, Note_off_c, 2, 51, 95
3, 401280, Note_on_c, 2, 54, 95
3, 402240, Note_off_c, 2, 54, 95
3, 402240, Note_on_c, 2, 51, 95
3, 402720, Note_off_c, 2, 51, 95
3, 403200, Note_on_c, 2, 54, 95
3, 404160, Note_off_c, 2, 54, 95
3, 404160, Note_on_c, 2, 51, 95
3, 404640, Note_off_c, 2, 51, 95
3, 405120, Note_on_c, 2, 54, 95
3, 406080, Note_off_c, 2, 54, 95
3, 406080, Note_on_c, 2, 51, 95
3, 406560, Note_off_c, 2, 51, 95
3, 407040, Note_on_c, 2, 54, 95
3, 408000, Note_off_c, 2, 54, 95
3, 408000, Note_on_c, 2, 51, 95
3, 408480, Note_off_c, 2, 51, 95
3, 408960, Note_on_c, 2, 54, 95
3, 409920, Note_off_c, 2, 54, 95
3, 409920, Note_on_c, 2, 51, 95
3, 410400, Note_off_c, 2, 51, 95
3, 410880, Note_on_c, 2, 59, 95
3, 410880, Note_on_c, 2, 56, 95
3, 411840, Note_off_c, 2, 59, 95
3, 411840, Note_off_c, 2, 56, 95
3, 411840, Note_on_c, 2, 59, 95
3, 411840, Note_on_c, 2, 54, 95
3, 412320, Note_off_c, 2, 59, 95
3, 412320, Note_off_c, 2, 54, 95
3, 412800, Note_on_c, 2, 59, 95
3, 412800, Note_on_c, 2, 56, 95
3, 413760, Note_off_c, 2, 59, 95
3, 413760, Note_off_c, 2, 56, 95
3, 413760, Note_on_c, 2, 59, 95
3, 413760, Note_on_c, 2, 54, 95
3, 414240, Note_off_c, 2, 59, 95
3, 414240, Note_off_c, 2, 54, 95
3, 414720, Note_on_c, 2, 59, 95
3, 414720, Note_on_c, 2, 56, 95
3, 415680, Note_off_c, 2, 59, 95
3, 415680, Note_off_c, 2, 56, 95
3, 415680, Note_on_c, 2, 59, 95
3, 415680, Note_on_c, 2, 54, 95
3, 416160, Note_off_c, 2, 59, 95
3, 416160, Note_off_c, 2, 54, 95
3, 416640, Note_on_c, 2, 59, 95
3, 416640, Note_on_c, 2, 56, 95
3, 417600, Note_off_c, 2, 59, 95
3, 417600, Note_off_c, 2, 56, 95
3, 417600, Note_on_c, 2, 59, 95
3, 417600, Note_on_c, 2, 54, 95
3, 418080, Note_off_c, 2, 59, 95
3, 418080, Note_off_c, 2, 54, 95
3, 418560, Note_on_c, 2, 59, 95
3, 418560, Note_on_c, 2, 56, 95
3, 419520, Note_off_c, 2, 59, 95
3, 419520, Note_off_c, 2, 56, 95
3, 419520, Note_on_c, 2, 59, 95
3, 419520, Note_on_c, 2, 54, 95
3, 420000, Note_off_c, 2, 59, 95
3, 420000, Note_off_c, 2, 54, 95
3, 420480, Note_on_c, 2, 59, 95
3, 420480, Note_on_c, 2, 56, 95
3, 421440, Note_off_c, 2, 59, 95
3, 421440, Note_off_c, 2, 56, 95
3, 421440, Note_on_c, 2, 59, 95
3, 421440, Note_on_c, 2, 54, 95
3, 421920, Note_off_c, 2, 59, 95
3, 421920, Note_off_c, 2, 54, 95
3, 422400, Note_on_c, 2, 61, 95
3, 422400, Note_on_c, 2, 55, 95
3, 423360, Note_off_c, 2, 61, 95
3, 423360, Note_off_c, 2, 55, 95
3, 423360, Note_on_c, 2, 61, 95
3, 423360, Note_on_c, 2, 54, 95
3, 423840, Note_off_c, 2, 61, 95
3, 423840, Note_off_c, 2, 54, 95
3, 424320, Note_on_c, 2, 61, 95
3, 424320, Note_on_c, 2, 55, 95
3, 425280, Note_off_c, 2, 61, 95
3, 425280, Note_off_c, 2, 55, 95
3, 425280, Note_on_c, 2, 61, 95
3, 425280, Note_on_c, 2, 54, 95
3, 425760, Note_off_c, 2, 61, 95
3, 425760, Note_off_c, 2, 54, 95
3, 426240, Note_on_c, 2, 61, 95
3, 426240, Note_on_c, 2, 55, 95
3, 427200, Note_off_c, 2, 61, 95
3, 427200, Note_off_c, 2, 55, 95
3, 427200, Note_on_c, 2, 61, 95
3, 427200, Note_on_c, 2, 54, 95
3, 427680, Note_off_c, 2, 61, 95
3, 427680, Note_off_c, 2, 54, 95
3, 428160, Note_on_c, 2, 61, 95
3, 428160, Note_on_c, 2, 55, 95
3, 429120, Note_off_c, 2, 61, 95
3, 429120, Note_off_c, 2, 55, 95
3, 429120, Note_on_c, 2, 61, 95
3, 429120, Note_on_c, 2, 54, 95
3, 429600, Note_off_c, 2, 61, 95
3, 429600, Note_off_c, 2, 54, 95
3, 430080, Note_on_c, 2, 52, 95
3, 430080, Note_on_c, 2, 57, 95
3, 432000, Note_off_c, 2, 52, 95
3, 432000, Note_off_c, 2, 57, 95
3, 432000, Note_on_c, 2, 56, 95
3, 432240, Note_off_c, 2, 56, 95
3, 432240, Note_on_c, 2, 57, 95
3, 432480, Note_off_c, 2, 57, 95
3, 432480, Note_on_c, 2, 58, 95
3, 432720, Note_off_c, 2, 58, 95
3, 432720, Note_on_c, 2, 59, 95
3, 432960, Note_off_c, 2, 59, 95
3, 432960, Note_on_c, 2, 60, 95
3, 433200, Note_off_c, 2, 60, 95
3, 433200, Note_on_c, 2, 63, 95
3, 433440, Note_off_c, 2, 63, 95
3, 433440, Note_on_c, 2, 65, 95
3, 433680, Note_off_c, 2, 65, 95
3, 433680, Note_on_c, 2, 66, 95
3, 433920, Note_off_c, 2, 66, 95
3, 433920, Note_on_c, 2, 54, 95
3, 434880, Note_off_c, 2, 54, 95
3, 434880, Note_on_c, 2, 51, 95
3, 435360, Note_off_c, 2, 51, 95
3, 435840, Note_on_c, 2, 54, 95
3, 436800, Note_off_c, 2, 54, 95
3, 436800, Note_on_c, 2, 51, 95
3, 437280, Note_off_c, 2, 51, 95
3, 437760, Note_on_c, 2, 54, 95
3, 438720, Note_off_c, 2, 54, 95
3, 438720, Note_on_c, 2, 51, 95
3, 439200, Note_off_c, 2, 51, 95
3, 439680, Note_on_c, 2, 54, 95
3, 440640, Note_off_c, 2, 54, 95
3, 440640, Note_on_c, 2, 51, 95
3, 441120, Note_off_c, 2, 51, 95
3, 441600, Note_on_c, 2, 54, 95
3, 442560, Note_off_c, 2, 54, 95
3, 442560, Note_on_c, 2, 51, 95
3, 443040, Note_off_c, 2, 51, 95
3, 443520, Note_on_c, 2, 54, 95
3, 444480, Note_off_c, 2, 54, 95
3, 444480, Note_on_c, 2, 51, 95
3, 444960, Note_off_c, 2, 51, 95
3, 445440, Note_on_c, 2, 54, 95
3, 446400, Note_off_c, 2, 54, 95
3, 446400, Note_on_c, 2, 51, 95
3, 446880, Note_off_c, 2, 51, 95
3, 447360, Note_on_c, 2, 54, 95
3, 448320, Note_off_c, 2, 54, 95
3, 448320, Note_on_c, 2, 51, 95
3, 448800, Note_off_c, 2, 51, 95
3, 449280, Note_on_c, 2, 59, 95
3, 449280, Note_on_c, 2, 56, 95
3, 450240, Note_off_c, 2, 59, 95
3, 450240, Note_off_c, 2, 56, 95
3, 450240, Note_on_c, 2, 59, 95
3, 450240, Note_on_c, 2, 54, 95
3, 450720, Note_off_c, 2, 59, 95
3, 450720, Note_off_c, 2, 54, 95
3, 451200, Note_on_c, 2, 59, 95
3, 451200, Note_on_c, 2, 56, 95
3, 452160, Note_off_c, 2, 59, 95
3, 452160, Note_off_c, 2, 56, 95
3, 452160, Note_on_c, 2, 59, 95
3, 452160, Note_on_c, 2, 54, 95
3, 452640, Note_off_c, 2, 59, 95
3, 452640, Note_off_c, 2, 54, 95
3, 453120, Note_on_c, 2, 59, 95
3, 453120, Note_on_c, 2, 56, 95
3, 454080, Note_off_c, 2, 59, 95
3, 454080, Note_off_c, 2, 56, 95
3, 454080, Note_on_c, 2, 59, 95
3, 454080, Note_on_c, 2, 54, 95
3, 454560, Note_off_c, 2, 59, 95
3, 454560, Note_off_c, 2, 54, 95
3, 455040, Note_on_c, 2, 59, 95
3, 455040, Note_on_c, 2, 56, 95
3, 456000, Note_off_c, 2, 59, 95
3, 456000, Note_off_c, 2, 56, 95
3, 456000, Note_on_c, 2, 59, 95
3, 456000, Note_on_c, 2, 54, 95
3, 456480, Note_off_c, 2, 59, 95
3, 456480, Note_off_c, 2, 54, 95
3, 456960, Note_on_c, 2, 59, 95
3, 456960, Note_on_c, 2, 56, 95
3, 457920, Note_off_c, 2, 59, 95
3, 457920, Note_off_c, 2, 56, 95
3, 457920, Note_on_c, 2, 59, 95
3, 457920, Note_on_c, 2, 54, 95
3, 458400, Note_off_c, 2, 59, 95
3, 458400, Note_off_c, 2, 54, 95
3, 458880, Note_on_c, 2, 59, 95
3, 458880, Note_on_c, 2, 56, 95
3, 459840, Note_off_c, 2, 59, 95
3, 459840, Note_off_c, 2, 56, 95
3, 459840, Note_on_c, 2, 59, 95
3, 459840, Note_on_c, 2, 54, 95
3, 460320, Note_off_c, 2, 59, 95
3, 460320, Note_off_c, 2, 54, 95
3, 460800, Note_on_c, 2, 61, 95
3, 460800, Note_on_c, 2, 55, 95
3, 461760, Note_off_c, 2, 61, 95
3, 461760, Note_off_c, 2, 55, 95
3, 461760, Note_on_c, 2, 61, 95
3, 461760, Note_on_c, 2, 54, 95
3, 462240, Note_off_c, 2, 61, 95
3, 462240, Note_off_c, 2, 54, 95
3, 462720, Note_on_c, 2, 61, 95
3, 462720, Note_on_c, 2, 55, 95
3, 463680, Note_off_c, 2, 61, 95
3, 463680, Note_off_c, 2, 55, 95
3, 463680, Note_on_c, 2, 61, 95
3, 463680, Note_on_c, 2, 54, 95
3, 464160, Note_off_c, 2, 61, 95
3, 464160, Note_off_c, 2, 54, 95
3, 464640, Note_on_c, 2, 61, 95
3, 464640, Note_on_c, 2, 55, 95
3, 465600, Note_off_c, 2, 61, 95
3, 465600, Note_off_c, 2, 55, 95
3, 465600, Note_on_c, 2, 61, 95
3, 465600, Note_on_c, 2, 54, 95
3, 466080, Note_off_c, 2, 61, 95
3, 466080, Note_off_c, 2, 54, 95
3, 466560, Note_on_c, 2, 61, 95
3, 466560, Note_on_c, 2, 55, 95
3, 467520, Note_off_c, 2, 61, 95
3, 467520, Note_off_c, 2, 55, 95
3, 467520, Note_on_c, 2, 61, 95
3, 467520, Note_on_c, 2, 54, 95
3, 468000, Note_off_c, 2, 61, 95
3, 468000, Note_off_c, 2, 54, 95
3, 468480, Note_on_c, 2, 52, 95
3, 468480, Note_on_c, 2, 57, 95
3, 470400, Note_off_c, 2, 52, 95
3, 470400, Note_off_c, 2, 57, 95
3, 470400, Note_on_c, 2, 64, 95
3, 470640, Note_off_c, 2, 64, 95
3, 470640, Note_on_c, 2, 63, 95
3, 470880, Note_off_c, 2, 63, 95
3, 470880, Note_on_c, 2, 61, 95
3, 471120, Note_off_c, 2, 61, 95
3, 471120, Note_on_c, 2, 59, 95
3, 471360, Note_off_c, 2, 59, 95
3, 471360, Note_on_c, 2, 57, 95
3, 471600, Note_off_c, 2, 57, 95
3, 471600, Note_on_c, 2, 56, 95
3, 471840, Note_off_c, 2, 56, 95
3, 471840, Note_on_c, 2, 54, 95
3, 472320, Note_off_c, 2, 54, 95
3, 472320, Note_on_c, 2, 54, 95
3, 472320, Note_on_c, 2, 51, 95
3, 473760, Note_off_c, 2, 54, 95
3, 473760, Note_off_c, 2, 51, 95
3, 473760, Note_on_c, 2, 54, 95
3, 473760, Note_on_c, 2, 51, 95
3, 474240, Note_off_c, 2, 54, 95
3, 474240, Note_off_c, 2, 51, 95
3, 474240, Note_on_c, 2, 54, 95
3, 474240, Note_on_c, 2, 50, 95
3, 475200, Note_off_c, 2, 54, 95
3, 475200, Note_off_c, 2, 50, 95
3, 475200, Note_on_c, 2, 50, 95
3, 475200, Note_on_c, 2, 54, 95
3, 475680, Note_off_c, 2, 50, 95
3, 475680, Note_off_c, 2, 54, 95
3, 475680, Note_on_c, 2, 50, 95
3, 475680, Note_on_c, 2, 54, 95
3, 476160, Note_off_c, 2, 50, 95
3, 476160, Note_off_c, 2, 54, 95
3, 476160, Note_on_c, 2, 54, 95
3, 476160, Note_on_c, 2, 51, 95
3, 478080, Note_off_c, 2, 54, 95
3, 478080, Note_off_c, 2, 51, 95
3, 478080, Note_on_c, 2, 50, 95
3, 478080, Note_on_c, 2, 54, 95
3, 480000, Note_off_c, 2, 50, 95
3, 480000, Note_off_c, 2, 54, 95
3, 480000, Note_on_c, 2, 54, 95
3, 480000, Note_on_c, 2, 51, 95
3, 481440, Note_off_c, 2, 54, 95
3, 481440, Note_off_c, 2, 51, 95
3, 481440, Note_on_c, 2, 54, 95
3, 481440, Note_on_c, 2, 51, 95
3, 481920, Note_off_c, 2, 54, 95
3, 481920, Note_off_c, 2, 51, 95
3, 481920, Note_on_c, 2, 54, 95
3, 481920, Note_on_c, 2, 50, 95
3, 482880, Note_off_c, 2, 54, 95
3, 482880, Note_off_c, 2, 50, 95
3, 482880, Note_on_c, 2, 50, 95
3, 482880, Note_on_c, 2, 54, 95
3, 483360, Note_off_c, 2, 50, 95
3, 483360, Note_off_c, 2, 54, 95
3, 483360, Note_on_c, 2, 50, 95
3, 483360, Note_on_c, 2, 54, 95
3, 483840, Note_off_c, 2, 50, 95
3, 483840, Note_off_c, 2, 54, 95
3, 483840, Note_on_c, 2, 54, 95
3, 483840, Note_on_c, 2, 51, 95
3, 485760, Note_off_c, 2, 54, 95
3, 485760, Note_off_c, 2, 51, 95
3, 485760, Note_on_c, 2, 54, 95
3, 485760, Note_on_c, 2, 51, 95
3, 487680, Note_off_c, 2, 54, 95
3, 487680, Note_off_c, 2, 51, 95
3, 487680, Note_on_c, 2, 54, 95
3, 487680, Note_on_c, 2, 51, 95
3, 489120, Note_off_c, 2, 54, 95
3, 489120, Note_off_c, 2, 51, 95
3, 489120, Note_on_c, 2, 54, 95
3, 489120, Note_on_c, 2, 51, 95
3, 489600, Note_off_c, 2, 54, 95
3, 489600, Note_off_c, 2, 51, 95
3, 489600, Note_on_c, 2, 54, 95
3, 489600, Note_on_c, 2, 50, 95
3, 490560, Note_off_c, 2, 54, 95
3, 490560, Note_off_c, 2, 50, 95
3, 490560, Note_on_c, 2, 50, 95
3, 490560, Note_on_c, 2, 54, 95
3, 491040, Note_off_c, 2, 50, 95
3, 491040, Note_off_c, 2, 54, 95
3, 491040, Note_on_c, 2, 50, 95
3, 491040, Note_on_c, 2, 54, 95
3, 491520, Note_off_c, 2, 50, 95
3, 491520, Note_off_c, 2, 54, 95
3, 491520, Note_on_c, 2, 54, 95
3, 491520, Note_on_c, 2, 51, 95
3, 493440, Note_off_c, 2, 54, 95
3, 493440, Note_off_c, 2, 51, 95
3, 493440, Note_on_c, 2, 50, 95
3, 493440, Note_on_c, 2, 54, 95
3, 495360, Note_off_c, 2, 50, 95
3, 495360, Note_off_c, 2, 54, 95
3, 495360, Note_on_c, 2, 54, 95
3, 495360, Note_on_c, 2, 51, 95
3, 496800, Note_off_c, 2, 54, 95
3, 496800, Note_off_c, 2, 51, 95
3, 496800, Note_on_c, 2, 54, 95
3, 496800, Note_on_c, 2, 51, 95
3, 497280, Note_off_c, 2, 54, 95
3, 497280, Note_off_c, 2, 51, 95
3, 497280, Note_on_c, 2, 54, 95
3, 497280, Note_on_c, 2, 50, 95
3, 498240, Note_off_c, 2, 54, 95
3, 498240, Note_off_c, 2, 50, 95
3, 498240, Note_on_c, 2, 50, 95
3, 498240, Note_on_c, 2, 54, 95
3, 498720, Note_off_c, 2, 50, 95
3, 498720, Note_off_c, 2, 54, 95
3, 498720, Note_on_c, 2, 50, 95
3, 498720, Note_on_c, 2, 54, 95
3, 499200, Note_off_c, 2, 50, 95
3, 499200, Note_off_c, 2, 54, 95
3, 499200, Note_on_c, 2, 54, 95
3, 499200, Note_on_c, 2, 51, 95
3, 501120, Note_off_c, 2, 54, 95
3, 501120, Note_off_c, 2, 51, 95
3, 501120, Note_on_c, 2, 54, 95
3, 501120, Note_on_c, 2, 51, 95
3, 501600, Note_off_c, 2, 54, 95
3, 501600, Note_off_c, 2, 51, 95
3, 501600, Note_on_c, 2, 54, 95
3, 501600, Note_on_c, 2, 51, 95
3, 502080, Note_off_c, 2, 54, 95
3, 502080, Note_off_c, 2, 51, 95
3, 502080, Note_on_c, 2, 54, 95
3, 502080, Note_on_c, 2, 51, 95
3, 502560, Note_off_c, 2, 54, 95
3, 502560, Note_off_c, 2, 51, 95
3, 502560, Note_on_c, 2, 54, 95
3, 502560, Note_on_c, 2, 51, 95
3, 503040, Note_off_c, 2, 54, 95
3, 503040, Note_off_c, 2, 51, 95
3, 503040, Note_on_c, 2, 49, 95
3, 503040, Note_on_c, 2, 46, 95
3, 504000, Note_off_c, 2, 49, 95
3, 504000, Note_off_c, 2, 46, 95
3, 504000, Note_on_c, 2, 40, 95
3, 504240, Note_off_c, 2, 40, 95
3, 504240, Note_on_c, 2, 40, 79
3, 504480, Note_off_c, 2, 40, 79
3, 504480, Note_on_c, 2, 40, 79
3, 504720, Note_off_c, 2, 40, 79
3, 504720, Note_on_c, 2, 40, 79
3, 504960, Note_off_c, 2, 40, 79
3, 504960, Note_on_c, 2, 49, 95
3, 504960, Note_on_c, 2, 46, 79
3, 505920, Note_off_c, 2, 49, 95
3, 505920, Note_off_c, 2, 46, 79
3, 505920, Note_on_c, 2, 40, 95
3, 506160, Note_off_c, 2, 40, 95
3, 506160, Note_on_c, 2, 40, 79
3, 506400, Note_off_c, 2, 40, 79
3, 506400, Note_on_c, 2, 40, 79
3, 506640, Note_off_c, 2, 40, 79
3, 506640, Note_on_c, 2, 40, 79
3, 506880, Note_off_c, 2, 40, 79
3, 506880, Note_on_c, 2, 50, 95
3, 506880, Note_on_c, 2, 47, 95
3, 507360, Note_off_c, 2, 50, 95
3, 507360, Note_off_c, 2, 47, 95
3, 507360, Note_on_c, 2, 47, 95
3, 507360, Note_on_c, 2, 50, 95
3, 507840, Note_off_c, 2, 47, 95
3, 507840, Note_off_c, 2, 50, 95
3, 507840, Note_on_c, 2, 46, 95
3, 508080, Note_off_c, 2, 46, 95
3, 508080, Note_on_c, 2, 46, 95
3, 508320, Note_off_c, 2, 46, 95
3, 508320, Note_on_c, 2, 46, 95
3, 508560, Note_off_c, 2, 46, 95
3, 508560, Note_on_c, 2, 46, 95
3, 508800, Note_off_c, 2, 46, 95
3, 508800, Note_on_c, 2, 47, 95
3, 508800, Note_on_c, 2, 50, 95
3, 509280, Note_off_c, 2, 47, 95
3, 509280, Note_off_c, 2, 50, 95
3, 509280, Note_on_c, 2, 47, 95
3, 509280, Note_on_c, 2, 50, 95
3, 509760, Note_off_c, 2, 47, 95
3, 509760, Note_off_c, 2, 50, 95
3, 509760, Note_on_c, 2, 46, 95
3, 510000, Note_off_c, 2, 46, 95
3, 510000, Note_on_c, 2, 46, 95
3, 510240, Note_off_c, 2, 46, 95
3, 510240, Note_on_c, 2, 46, 95
3, 510480, Note_off_c, 2, 46, 95
3, 510480, Note_on_c, 2, 46, 95
3, 510720, Note_off_c, 2, 46, 95
3, 510720, Note_on_c, 2, 51, 95
3, 510720, Note_on_c, 2, 48, 95
3, 511200, Note_off_c, 2, 51, 95
3, 511200, Note_off_c, 2, 48, 95
3, 511200, Note_on_c, 2, 48, 95
3, 511200, Note_on_c, 2, 51, 95
3, 511680, Note_off_c, 2, 48, 95
3, 511680, Note_off_c, 2, 51, 95
3, 511680, Note_on_c, 2, 47, 95
3, 511920, Note_off_c, 2, 47, 95
3, 511920, Note_on_c, 2, 47, 95
3, 512160, Note_off_c, 2, 47, 95
3, 512160, Note_on_c, 2, 47, 95
3, 512400, Note_off_c, 2, 47, 95
3, 512400, Note_on_c, 2, 47, 95
3, 512640, Note_off_c, 2, 47, 95
3, 512640, Note_on_c, 2, 48, 95
3, 512640, Note_on_c, 2, 51, 95
3, 513120, Note_off_c, 2, 48, 95
3, 513120, Note_off_c, 2, 51, 95
3, 513120, Note_on_c, 2, 51, 95
3, 513120, Note_on_c, 2, 48, 95
3, 513600, Note_off_c, 2, 51, 95
3, 513600, Note_off_c, 2, 48, 95
3, 513600, Note_on_c, 2, 47, 95
3, 513840, Note_off_c, 2, 47, 95
3, 513840, Note_on_c, 2, 47, 95
3, 514080, Note_off_c, 2, 47, 95
3, 514080, Note_on_c, 2, 47, 95
3, 514320, Note_off_c, 2, 47, 95
3, 514320, Note_on_c, 2, 47, 95
3, 514560, Note_off_c, 2, 47, 95
3, 514560, Note_on_c, 2, 52, 95
3, 514560, Note_on_c, 2, 49, 95
3, 515040, Note_off_c, 2, 52, 95
3, 515040, Note_off_c, 2, 49, 95
3, 515040, Note_on_c, 2, 52, 95
3, 515040, Note_on_c, 2, 49, 95
3, 515520, Note_off_c, 2, 52, 95
3, 515520, Note_off_c, 2, 49, 95
3, 515520, Note_on_c, 2, 48, 95
3, 515760, Note_off_c, 2, 48, 95
3, 515760, Note_on_c, 2, 48, 95
3, 516000, Note_off_c, 2, 48, 95
3, 516000, Note_on_c, 2, 48, 95
3, 516240, Note_off_c, 2, 48, 95
3, 516240, Note_on_c, 2, 48, 95
3, 516480, Note_off_c, 2, 48, 95
3, 516480, Note_on_c, 2, 49, 95
3, 516480, Note_on_c, 2, 52, 95
3, 516960, Note_off_c, 2, 49, 95
3, 516960, Note_off_c, 2, 52, 95
3, 516960, Note_on_c, 2, 53, 95
3, 516960, Note_on_c, 2, 50, 95
3, 517440, Note_off_c, 2, 53, 95
3, 517440, Note_off_c, 2, 50, 95
3, 517440, Note_on_c, 2, 51, 95
3, 517440, Note_on_c, 2, 54, 95
3, 518400, Note_off_c, 2, 51, 95
3, 518400, Note_off_c, 2, 54, 95
3, 518400, Note_on_c, 2, 54, 95
3, 519360, Note_off_c, 2, 54, 95
3, 519360, Note_on_c, 2, 51, 95
3, 519840, Note_off_c, 2, 51, 95
3, 520320, Note_on_c, 2, 54, 95
3, 521280, Note_off_c, 2, 54, 95
3, 521280, Note_on_c, 2, 51, 95
3, 521760, Note_off_c, 2, 51, 95
3, 522240, Note_on_c, 2, 54, 95
3, 523200, Note_off_c, 2, 54, 95
3, 523200, Note_on_c, 2, 51, 95
3, 523680, Note_off_c, 2, 51, 95
3, 524160, Note_on_c, 2, 54, 95
3, 525120, Note_off_c, 2, 54, 95
3, 525120, Note_on_c, 2, 51, 95
3, 525600, Note_off_c, 2, 51, 95
3, 526080, Note_on_c, 2, 54, 95
3, 527040, Note_off_c, 2, 54, 95
3, 527040, Note_on_c, 2, 51, 95
3, 527520, Note_off_c, 2, 51, 95
3, 528000, Note_on_c, 2, 54, 95
3, 528960, Note_off_c, 2, 54, 95
3, 528960, Note_on_c, 2, 51, 95
3, 529440, Note_off_c, 2, 51, 95
3, 529920, Note_on_c, 2, 54, 95
3, 530880, Note_off_c, 2, 54, 95
3, 530880, Note_on_c, 2, 51, 95
3, 531360, Note_off_c, 2, 51, 95
3, 531840, Note_on_c, 2, 54, 95
3, 532800, Note_off_c, 2, 54, 95
3, 532800, Note_on_c, 2, 51, 95
3, 533280, Note_off_c, 2, 51, 95
3, 533760, Note_on_c, 2, 46, 95
3, 534000, Note_off_c, 2, 46, 95
3, 534000, Note_on_c, 2, 47, 95
3, 534240, Note_off_c, 2, 47, 95
3, 534240, Note_on_c, 2, 50, 95
3, 534480, Note_off_c, 2, 50, 95
3, 534480, Note_on_c, 2, 51, 95
3, 534720, Note_off_c, 2, 51, 95
3, 534720, Note_on_c, 2, 52, 95
3, 534960, Note_off_c, 2, 52, 95
3, 534960, Note_on_c, 2, 54, 95
3, 535200, Note_off_c, 2, 54, 95
3, 535200, Note_on_c, 2, 58, 95
3, 535440, Note_off_c, 2, 58, 95
3, 535440, Note_on_c, 2, 59, 95
3, 535680, Note_off_c, 2, 59, 95
3, 535680, Note_on_c, 2, 62, 95
3, 535920, Note_off_c, 2, 62, 95
3, 535920, Note_on_c, 2, 63, 95
3, 536160, Note_off_c, 2, 63, 95
3, 536160, Note_on_c, 2, 59, 95
3, 536640, Note_off_c, 2, 59, 95
3, 536640, Note_on_c, 2, 54, 95
3, 537120, Note_off_c, 2, 54, 95
3, 537120, Note_on_c, 2, 51, 95
3, 537600, Note_off_c, 2, 51, 95
3, 537600, Note_on_c, 2, 54, 95
3, 537600, Note_on_c, 2, 59, 95
3, 540480, Note_off_c, 2, 54, 95
3, 540480, Note_off_c, 2, 59, 95
3, 540480, End_track
4, 0, Start_track
4, 0, Pitch_bend_c, 8, 8192
4, 0, Control_c, 8, 7, 89
4, 0, Control_c, 8, 10, 64
4, 0, Control_c, 8, 93, 0
4, 0, Control_c, 8, 91, 0
4, 0, Control_c, 8, 95, 0
4, 0, Control_c, 8, 92, 0
4, 0, Control_c, 8, 11, 127
4, 0, Program_c, 8, 29
4, 0, Control_c, 10, 7, 89
4, 0, Control_c, 10, 10, 64
4, 0, Control_c, 10, 93, 0
4, 0, Control_c, 10, 91, 0
4, 0, Control_c, 10, 95, 0
4, 0, Control_c, 10, 92, 0
4, 0, Control_c, 10, 11, 127
4, 0, Program_c, 10, 29
4, 101760, Note_on_c, 8, 61, 95
4, 102240, Note_off_c, 8, 61, 95
4, 102240, Note_on_c, 8, 62, 95
4, 102720, Note_off_c, 8, 62, 95
4, 102720, Note_on_c, 8, 70, 95
4, 103200, Note_off_c, 8, 70, 95
4, 103200, Note_on_c, 8, 71, 95
4, 103680, Note_off_c, 8, 71, 95
4, 103680, Note_on_c, 8, 70, 95
4, 104160, Note_off_c, 8, 70, 95
4, 104160, Note_on_c, 8, 62, 95
4, 104640, Note_off_c, 8, 62, 95
4, 111360, Note_on_c, 8, 61, 95
4, 111840, Note_off_c, 8, 61, 95
4, 111840, Note_on_c, 8, 62, 95
4, 112320, Note_off_c, 8, 62, 95
4, 112320, Note_on_c, 8, 70, 95
4, 112800, Note_off_c, 8, 70, 95
4, 112800, Note_on_c, 8, 71, 95
4, 113280, Note_off_c, 8, 71, 95
4, 113280, Note_on_c, 8, 70, 95
4, 113760, Note_off_c, 8, 70, 95
4, 113760, Note_on_c, 8, 62, 95
4, 114240, Note_off_c, 8, 62, 95
4, 117120, Note_on_c, 8, 61, 95
4, 117600, Note_off_c, 8, 61, 95
4, 117600, Note_on_c, 8, 62, 95
4, 118080, Note_off_c, 8, 62, 95
4, 118080, Note_on_c, 8, 70, 95
4, 118560, Note_off_c, 8, 70, 95
4, 118560, Note_on_c, 8, 71, 95
4, 119040, Note_off_c, 8, 71, 95
4, 119040, Note_on_c, 8, 70, 95
4, 119520, Note_off_c, 8, 70, 95
4, 119520, Note_on_c, 8, 62, 95
4, 120000, Note_off_c, 8, 62, 95
4, 120000, Note_on_c, 8, 59, 95
4, 120480, Note_off_c, 8, 59, 95
4, 120480, Note_on_c, 8, 62, 95
4, 120960, Note_off_c, 8, 62, 95
4, 120960, Note_on_c, 8, 61, 95
4, 121440, Note_off_c, 8, 61, 95
4, 121440, Note_on_c, 8, 59, 95
4, 121920, Note_off_c, 8, 59, 95
4, 121920, Note_on_c, 8, 58, 95
4, 122400, Note_off_c, 8, 58, 95
4, 122400, Note_on_c, 8, 62, 95
4, 122880, Note_off_c, 8, 62, 95
4, 122880, Note_on_c, 8, 61, 95
4, 123360, Note_off_c, 8, 61, 95
4, 123360, Note_on_c, 8, 62, 95
4, 123840, Note_off_c, 8, 62, 95
4, 123840, Note_on_c, 8, 70, 95
4, 124320, Note_off_c, 8, 70, 95
4, 124320, Note_on_c, 8, 71, 95
4, 124800, Note_off_c, 8, 71, 95
4, 124800, Note_on_c, 8, 70, 95
4, 125280, Note_off_c, 8, 70, 95
4, 125280, Note_on_c, 8, 62, 95
4, 125760, Note_off_c, 8, 62, 95
4, 125760, Note_on_c, 8, 59, 95
4, 126240, Note_off_c, 8, 59, 95
4, 126240, Note_on_c, 8, 62, 95
4, 126720, Note_off_c, 8, 62, 95
4, 126720, Note_on_c, 8, 61, 95
4, 127200, Note_off_c, 8, 61, 95
4, 127200, Note_on_c, 8, 59, 95
4, 127680, Note_off_c, 8, 59, 95
4, 127680, Note_on_c, 8, 58, 95
4, 128160, Note_off_c, 8, 58, 95
4, 128160, Note_on_c, 8, 62, 95
4, 128640, Note_off_c, 8, 62, 95
4, 128640, Note_on_c, 8, 61, 95
4, 129120, Note_off_c, 8, 61, 95
4, 129120, Note_on_c, 8, 62, 95
4, 129600, Note_off_c, 8, 62, 95
4, 129600, Note_on_c, 8, 70, 95
4, 130080, Note_off_c, 8, 70, 95
4, 130080, Note_on_c, 8, 71, 95
4, 130560, Note_off_c, 8, 71, 95
4, 130560, Note_on_c, 8, 70, 95
4, 131040, Note_off_c, 8, 70, 95
4, 131040, Note_on_c, 8, 62, 95
4, 131520, Note_off_c, 8, 62, 95
4, 131520, Note_on_c, 8, 59, 95
4, 132000, Note_off_c, 8, 59, 95
4, 132000, Note_on_c, 8, 62, 95
4, 132480, Note_off_c, 8, 62, 95
4, 132480, Note_on_c, 8, 61, 95
4, 132960, Note_off_c, 8, 61, 95
4, 132960, Note_on_c, 8, 59, 95
4, 133440, Note_off_c, 8, 59, 95
4, 133440, Note_on_c, 8, 58, 95
4, 133920, Note_off_c, 8, 58, 95
4, 133920, Note_on_c, 8, 62, 95
4, 134400, Note_off_c, 8, 62, 95
4, 134400, Note_on_c, 8, 61, 95
4, 134880, Note_off_c, 8, 61, 95
4, 134880, Note_on_c, 8, 62, 95
4, 135360, Note_off_c, 8, 62, 95
4, 135360, Note_on_c, 8, 70, 95
4, 135840, Note_off_c, 8, 70, 95
4, 135840, Note_on_c, 8, 71, 95
4, 136320, Note_off_c, 8, 71, 95
4, 136320, Note_on_c, 8, 70, 95
4, 136800, Note_off_c, 8, 70, 95
4, 136800, Note_on_c, 8, 62, 95
4, 137280, Note_off_c, 8, 62, 95
4, 137280, Note_on_c, 8, 59, 95
4, 137760, Note_off_c, 8, 59, 95
4, 137760, Note_on_c, 8, 62, 95
4, 138240, Note_off_c, 8, 62, 95
4, 138240, Note_on_c, 8, 61, 95
4, 138720, Note_off_c, 8, 61, 95
4, 138720, Note_on_c, 8, 59, 95
4, 139200, Note_off_c, 8, 59, 95
4, 139200, Note_on_c, 8, 58, 95
4, 139680, Note_off_c, 8, 58, 95
4, 139680, Note_on_c, 8, 62, 95
4, 140160, Note_off_c, 8, 62, 95
4, 140160, Note_on_c, 8, 61, 95
4, 140640, Note_off_c, 8, 61, 95
4, 140640, Note_on_c, 8, 62, 95
4, 141120, Note_off_c, 8, 62, 95
4, 141120, Note_on_c, 8, 70, 95
4, 141600, Note_off_c, 8, 70, 95
4, 141600, Note_on_c, 8, 71, 95
4, 142080, Note_off_c, 8, 71, 95
4, 142080, Note_on_c, 8, 70, 95
4, 142560, Note_off_c, 8, 70, 95
4, 142560, Note_on_c, 8, 62, 95
4, 143040, Note_off_c, 8, 62, 95
4, 143040, Note_on_c, 8, 71, 95
4, 143520, Note_off_c, 8, 71, 95
4, 143520, Note_on_c, 8, 62, 95
4, 144000, Note_off_c, 8, 62, 95
4, 144000, Note_on_c, 8, 61, 95
4, 144480, Note_off_c, 8, 61, 95
4, 144480, Note_on_c, 8, 71, 95
4, 144960, Note_off_c, 8, 71, 95
4, 144960, Note_on_c, 8, 70, 95
4, 145440, Note_off_c, 8, 70, 95
4, 145440, Note_on_c, 8, 62, 95
4, 145920, Note_off_c, 8, 62, 95
4, 145920, Note_on_c, 8, 61, 95
4, 146400, Note_off_c, 8, 61, 95
4, 146400, Note_on_c, 8, 62, 95
4, 146880, Note_off_c, 8, 62, 95
4, 146880, Note_on_c, 8, 70, 95
4, 147360, Note_off_c, 8, 70, 95
4, 147360, Note_on_c, 8, 71, 95
4, 147840, Note_off_c, 8, 71, 95
4, 147840, Note_on_c, 8, 70, 95
4, 148320, Note_off_c, 8, 70, 95
4, 148320, Note_on_c, 8, 62, 95
4, 148800, Note_off_c, 8, 62, 95
4, 148800, Note_on_c, 8, 71, 95
4, 149280, Note_off_c, 8, 71, 95
4, 149280, Note_on_c, 8, 62, 95
4, 149760, Note_off_c, 8, 62, 95
4, 149760, Note_on_c, 8, 61, 95
4, 150240, Note_off_c, 8, 61, 95
4, 150240, Note_on_c, 8, 71, 95
4, 150720, Note_off_c, 8, 71, 95
4, 150720, Note_on_c, 8, 70, 95
4, 151200, Note_off_c, 8, 70, 95
4, 151200, Note_on_c, 8, 62, 95
4, 151680, Note_off_c, 8, 62, 95
4, 151680, Note_on_c, 8, 61, 95
4, 152160, Note_off_c, 8, 61, 95
4, 152160, Note_on_c, 8, 62, 95
4, 152640, Note_off_c, 8, 62, 95
4, 152640, Note_on_c, 8, 70, 95
4, 153120, Note_off_c, 8, 70, 95
4, 153120, Note_on_c, 8, 71, 95
4, 153600, Note_off_c, 8, 71, 95
4, 153600, Note_on_c, 8, 70, 95
4, 154080, Note_off_c, 8, 70, 95
4, 154080, Note_on_c, 8, 62, 95
4, 154560, Note_off_c, 8, 62, 95
4, 154560, Note_on_c, 8, 71, 95
4, 155040, Note_off_c, 8, 71, 95
4, 155040, Note_on_c, 8, 62, 95
4, 155520, Note_off_c, 8, 62, 95
4, 155520, Note_on_c, 8, 61, 95
4, 156000, Note_off_c, 8, 61, 95
4, 156000, Note_on_c, 8, 71, 95
4, 156480, Note_off_c, 8, 71, 95
4, 156480, Note_on_c, 8, 70, 95
4, 156960, Note_off_c, 8, 70, 95
4, 156960, Note_on_c, 8, 62, 95
4, 157440, Note_off_c, 8, 62, 95
4, 157440, Note_on_c, 8, 61, 95
4, 157920, Note_off_c, 8, 61, 95
4, 157920, Note_on_c, 8, 62, 95
4, 158400, Note_off_c, 8, 62, 95
4, 158400, Note_on_c, 8, 70, 95
4, 158880, Note_off_c, 8, 70, 95
4, 158880, Note_on_c, 8, 71, 95
4, 159360, Note_off_c, 8, 71, 95
4, 159360, Note_on_c, 8, 70, 95
4, 159840, Note_off_c, 8, 70, 95
4, 159840, Note_on_c, 8, 62, 95
4, 160320, Note_off_c, 8, 62, 95
4, 160320, Note_on_c, 8, 71, 95
4, 160800, Note_off_c, 8, 71, 95
4, 160800, Note_on_c, 8, 62, 95
4, 161280, Note_off_c, 8, 62, 95
4, 161280, Note_on_c, 8, 61, 95
4, 161760, Note_off_c, 8, 61, 95
4, 161760, Note_on_c, 8, 71, 95
4, 162240, Note_off_c, 8, 71, 95
4, 162240, Note_on_c, 8, 70, 95
4, 162720, Note_off_c, 8, 70, 95
4, 162720, Note_on_c, 8, 62, 95
4, 163200, Note_off_c, 8, 62, 95
4, 163200, Note_on_c, 8, 61, 95
4, 163680, Note_off_c, 8, 61, 95
4, 163680, Note_on_c, 8, 62, 95
4, 164160, Note_off_c, 8, 62, 95
4, 164160, Note_on_c, 8, 70, 95
4, 164640, Note_off_c, 8, 70, 95
4, 164640, Note_on_c, 8, 71, 95
4, 165120, Note_off_c, 8, 71, 95
4, 165120, Note_on_c, 8, 72, 127
4, 165600, Note_off_c, 8, 72, 127
4, 165600, Note_on_c, 8, 73, 127
4, 166080, Note_off_c, 8, 73, 127
4, 166080, Note_on_c, 8, 54, 95
4, 166080, Note_on_c, 8, 58, 95
4, 166080, Note_on_c, 8, 65, 95
4, 167040, Note_off_c, 8, 54, 95
4, 167040, Note_off_c, 8, 58, 95
4, 167040, Note_off_c, 8, 65, 95
4, 167040, Note_on_c, 8, 63, 95
4, 167040, Note_on_c, 8, 54, 95
4, 167040, Note_on_c, 8, 58, 95
4, 171840, Note_off_c, 8, 63, 95
4, 171840, Note_off_c, 8, 54, 95
4, 171840, Note_off_c, 8, 58, 95
4, 171840, Note_on_c, 8, 54, 95
4, 171840, Note_on_c, 8, 58, 95
4, 171840, Note_on_c, 8, 65, 95
4, 172800, Note_off_c, 8, 54, 95
4, 172800, Note_off_c, 8, 58, 95
4, 172800, Note_off_c, 8, 65, 95
4, 172800, Note_on_c, 8, 54, 95
4, 172800, Note_on_c, 8, 58, 95
4, 172800, Note_on_c, 8, 62, 95
4, 175680, Note_off_c, 8, 54, 95
4, 175680, Note_off_c, 8, 58, 95
4, 175680, Note_off_c, 8, 62, 95
4, 175680, Note_on_c, 8, 52, 95
4, 175680, Note_on_c, 8, 56, 95
4, 175680, Note_on_c, 8, 61, 95
4, 176640, Note_off_c, 8, 52, 95
4, 176640, Note_off_c, 8, 56, 95
4, 176640, Note_off_c, 8, 61, 95
4, 176640, Note_on_c, 8, 52, 95
4, 176640, Note_on_c, 8, 56, 95
4, 176640, Note_on_c, 8, 59, 95
4, 179520, Note_off_c, 8, 52, 95
4, 179520, Note_off_c, 8, 56, 95
4, 179520, Note_off_c, 8, 59, 95
4, 179520, Note_on_c, 8, 46, 95
4, 179520, Note_on_c, 8, 42, 95
4, 179520, Note_on_c, 8, 53, 95
4, 180480, Note_off_c, 8, 46, 95
4, 180480, Note_off_c, 8, 42, 95
4, 180480, Note_off_c, 8, 53, 95
4, 180480, Note_on_c, 8, 42, 95
4, 180480, Note_on_c, 8, 46, 95
4, 180480, Note_on_c, 8, 51, 95
4, 189120, Note_off_c, 8, 42, 95
4, 189120, Note_off_c, 8, 46, 95
4, 189120, Note_off_c, 8, 51, 95
4, 189120, Note_on_c, 8, 54, 95
4, 189120, Note_on_c, 8, 58, 95
4, 189120, Note_on_c, 8, 65, 95
4, 190080, Note_off_c, 8, 54, 95
4, 190080, Note_off_c, 8, 58, 95
4, 190080, Note_off_c, 8, 65, 95
4, 190080, Note_on_c, 8, 63, 95
4, 190080, Note_on_c, 8, 54, 95
4, 190080, Note_on_c, 8, 58, 95
4, 194880, Note_off_c, 8, 63, 95
4, 194880, Note_off_c, 8, 54, 95
4, 194880, Note_off_c, 8, 58, 95
4, 194880, Note_on_c, 8, 54, 95
4, 194880, Note_on_c, 8, 58, 95
4, 194880, Note_on_c, 8, 65, 95
4, 195840, Note_off_c, 8, 54, 95
4, 195840, Note_off_c, 8, 58, 95
4, 195840, Note_off_c, 8, 65, 95
4, 195840, Note_on_c, 8, 54, 95
4, 195840, Note_on_c, 8, 58, 95
4, 195840, Note_on_c, 8, 62, 95
4, 198720, Note_off_c, 8, 54, 95
4, 198720, Note_off_c, 8, 58, 95
4, 198720, Note_off_c, 8, 62, 95
4, 198720, Note_on_c, 8, 52, 95
4, 198720, Note_on_c, 8, 56, 95
4, 198720, Note_on_c, 8, 61, 95
4, 199680, Note_off_c, 8, 52, 95
4, 199680, Note_off_c, 8, 56, 95
4, 199680, Note_off_c, 8, 61, 95
4, 199680, Note_on_c, 8, 52, 95
4, 199680, Note_on_c, 8, 56, 95
4, 199680, Note_on_c, 8, 59, 95
4, 202560, Note_off_c, 8, 52, 95
4, 202560, Note_off_c, 8, 56, 95
4, 202560, Note_off_c, 8, 59, 95
4, 202560, Note_on_c, 8, 46, 95
4, 202560, Note_on_c, 8, 42, 95
4, 202560, Note_on_c, 8, 53, 95
4, 203520, Note_off_c, 8, 46, 95
4, 203520, Note_off_c, 8, 42, 95
4, 203520, Note_off_c, 8, 53, 95
4, 203520, Note_on_c, 8, 42, 95
4, 203520, Note_on_c, 8, 46, 95
4, 203520, Note_on_c, 8, 51, 95
4, 212160, Note_off_c, 8, 42, 95
4, 212160, Note_off_c, 8, 46, 95
4, 212160, Note_off_c, 8, 51, 95
4, 212160, Note_on_c, 8, 71, 95
4, 212640, Note_off_c, 8, 71, 95
4, 212640, Note_on_c, 8, 62, 95
4, 213120, Note_off_c, 8, 62, 95
4, 213120, Note_on_c, 8, 61, 95
4, 213600, Note_off_c, 8, 61, 95
4, 213600, Note_on_c, 8, 71, 95
4, 214080, Note_off_c, 8, 71, 95
4, 214080, Note_on_c, 8, 70, 95
4, 214560, Note_off_c, 8, 70, 95
4, 214560, Note_on_c, 8, 62, 95
4, 215040, Note_off_c, 8, 62, 95
4, 215040, Note_on_c, 8, 61, 95
4, 215520, Note_off_c, 8, 61, 95
4, 215520, Note_on_c, 8, 62, 95
4, 216000, Note_off_c, 8, 62, 95
4, 216000, Note_on_c, 8, 70, 95
4, 216480, Note_off_c, 8, 70, 95
4, 216480, Note_on_c, 8, 71, 95
4, 216960, Note_off_c, 8, 71, 95
4, 216960, Note_on_c, 8, 70, 95
4, 217440, Note_off_c, 8, 70, 95
4, 217440, Note_on_c, 8, 62, 95
4, 217920, Note_off_c, 8, 62, 95
4, 217920, Note_on_c, 8, 71, 95
4, 218400, Note_off_c, 8, 71, 95
4, 218400, Note_on_c, 8, 62, 95
4, 218880, Note_off_c, 8, 62, 95
4, 218880, Note_on_c, 8, 61, 95
4, 219360, Note_off_c, 8, 61, 95
4, 219360, Note_on_c, 8, 71, 95
4, 219840, Note_off_c, 8, 71, 95
4, 219840, Note_on_c, 8, 70, 95
4, 220320, Note_off_c, 8, 70, 95
4, 220320, Note_on_c, 8, 62, 95
4, 220800, Note_off_c, 8, 62, 95
4, 220800, Note_on_c, 8, 61, 95
4, 221280, Note_off_c, 8, 61, 95
4, 221280, Note_on_c, 8, 62, 95
4, 221760, Note_off_c, 8, 62, 95
4, 221760, Note_on_c, 8, 70, 95
4, 222240, Note_off_c, 8, 70, 95
4, 222240, Note_on_c, 8, 71, 95
4, 222720, Note_off_c, 8, 71, 95
4, 222720, Note_on_c, 8, 70, 95
4, 223200, Note_off_c, 8, 70, 95
4, 223200, Note_on_c, 8, 62, 95
4, 223680, Note_off_c, 8, 62, 95
4, 223680, Note_on_c, 8, 71, 95
4, 224160, Note_off_c, 8, 71, 95
4, 224160, Note_on_c, 8, 62, 95
4, 224640, Note_off_c, 8, 62, 95
4, 224640, Note_on_c, 8, 61, 95
4, 225120, Note_off_c, 8, 61, 95
4, 225120, Note_on_c, 8, 71, 95
4, 225600, Note_off_c, 8, 71, 95
4, 225600, Note_on_c, 8, 70, 95
4, 226080, Note_off_c, 8, 70, 95
4, 226080, Note_on_c, 8, 62, 95
4, 226560, Note_off_c, 8, 62, 95
4, 226560, Note_on_c, 8, 61, 95
4, 227040, Note_off_c, 8, 61, 95
4, 227040, Note_on_c, 8, 62, 95
4, 227520, Note_off_c, 8, 62, 95
4, 227520, Note_on_c, 8, 70, 95
4, 228000, Note_off_c, 8, 70, 95
4, 228000, Note_on_c, 8, 71, 95
4, 228480, Note_off_c, 8, 71, 95
4, 228480, Note_on_c, 8, 70, 95
4, 228960, Note_off_c, 8, 70, 95
4, 228960, Note_on_c, 8, 62, 95
4, 229440, Note_off_c, 8, 62, 95
4, 229440, Note_on_c, 8, 71, 95
4, 229920, Note_off_c, 8, 71, 95
4, 229920, Note_on_c, 8, 62, 95
4, 230400, Note_off_c, 8, 62, 95
4, 230400, Note_on_c, 8, 61, 95
4, 230880, Note_off_c, 8, 61, 95
4, 230880, Note_on_c, 8, 71, 95
4, 231360, Note_off_c, 8, 71, 95
4, 231360, Note_on_c, 8, 70, 95
4, 231840, Note_off_c, 8, 70, 95
4, 231840, Note_on_c, 8, 62, 95
4, 232320, Note_off_c, 8, 62, 95
4, 232320, Note_on_c, 8, 61, 95
4, 232800, Note_off_c, 8, 61, 95
4, 232800, Note_on_c, 8, 62, 95
4, 233280, Note_off_c, 8, 62, 95
4, 233280, Note_on_c, 8, 70, 95
4, 233760, Note_off_c, 8, 70, 95
4, 233760, Note_on_c, 8, 69, 95
4, 234240, Note_off_c, 8, 69, 95
4, 234240, Note_on_c, 8, 67, 95
4, 234720, Note_off_c, 8, 67, 95
4, 234720, Note_on_c, 8, 66, 95
4, 235200, Note_off_c, 8, 66, 95
4, 235200, Note_on_c, 8, 66, 95
4, 235680, Note_off_c, 8, 66, 95
4, 235680, Note_on_c, 8, 63, 95
4, 236160, Note_off_c, 8, 63, 95
4, 236160, Note_on_c, 8, 63, 95
4, 236640, Note_off_c, 8, 63, 95
4, 236640, Note_on_c, 8, 66, 95
4, 237120, Note_off_c, 8, 66, 95
4, 237120, Note_on_c, 8, 63, 95
4, 237600, Note_off_c, 8, 63, 95
4, 237600, Note_on_c, 8, 63, 95
4, 238080, Note_off_c, 8, 63, 95
4, 238080, Note_on_c, 8, 63, 95
4, 238560, Note_off_c, 8, 63, 95
4, 238560, Note_on_c, 8, 63, 95
4, 239040, Note_off_c, 8, 63, 95
4, 239040, Note_on_c, 8, 72, 95
4, 239520, Note_off_c, 8, 72, 95
4, 239520, Note_on_c, 8, 69, 95
4, 240000, Note_off_c, 8, 69, 95
4, 240000, Note_on_c, 8, 72, 95
4, 240480, Note_off_c, 8, 72, 95
4, 240480, Note_on_c, 8, 69, 95
4, 240960, Note_off_c, 8, 69, 95
4, 240960, Note_on_c, 8, 72, 95
4, 241440, Note_off_c, 8, 72, 95
4, 241440, Note_on_c, 8, 69, 95
4, 241920, Note_off_c, 8, 69, 95
4, 241920, Note_on_c, 8, 69, 95
4, 242400, Note_off_c, 8, 69, 95
4, 242400, Note_on_c, 8, 69, 95
4, 242880, Note_off_c, 8, 69, 95
4, 242880, Note_on_c, 8, 66, 95
4, 243360, Note_off_c, 8, 66, 95
4, 243360, Note_on_c, 8, 63, 95
4, 243840, Note_off_c, 8, 63, 95
4, 243840, Note_on_c, 8, 63, 95
4, 244320, Note_off_c, 8, 63, 95
4, 244320, Note_on_c, 8, 66, 95
4, 244800, Note_off_c, 8, 66, 95
4, 244800, Note_on_c, 8, 63, 95
4, 245280, Note_off_c, 8, 63, 95
4, 245280, Note_on_c, 8, 63, 95
4, 245760, Note_off_c, 8, 63, 95
4, 245760, Note_on_c, 8, 63, 95
4, 246240, Note_off_c, 8, 63, 95
4, 246240, Note_on_c, 8, 63, 95
4, 246720, Note_off_c, 8, 63, 95
4, 246720, Note_on_c, 8, 73, 95
4, 247200, Note_off_c, 8, 73, 95
4, 247200, Note_on_c, 8, 70, 95
4, 247680, Note_off_c, 8, 70, 95
4, 247680, Note_on_c, 8, 73, 95
4, 248160, Note_off_c, 8, 73, 95
4, 248160, Note_on_c, 8, 70, 95
4, 248640, Note_off_c, 8, 70, 95
4, 248640, Note_on_c, 8, 73, 95
4, 249120, Note_off_c, 8, 73, 95
4, 249120, Note_on_c, 8, 72, 95
4, 249600, Note_off_c, 8, 72, 95
4, 249600, Note_on_c, 8, 70, 95
4, 250080, Note_off_c, 8, 70, 95
4, 250080, Note_on_c, 8, 72, 95
4, 250560, Note_off_c, 8, 72, 95
4, 250560, Note_on_c, 8, 66, 95
4, 251040, Note_off_c, 8, 66, 95
4, 251040, Note_on_c, 8, 63, 95
4, 251520, Note_off_c, 8, 63, 95
4, 251520, Note_on_c, 8, 63, 95
4, 252000, Note_off_c, 8, 63, 95
4, 252000, Note_on_c, 8, 66, 95
4, 252480, Note_off_c, 8, 66, 95
4, 252480, Note_on_c, 8, 63, 95
4, 252960, Note_off_c, 8, 63, 95
4, 252960, Note_on_c, 8, 63, 95
4, 253440, Note_off_c, 8, 63, 95
4, 253440, Note_on_c, 8, 63, 95
4, 253920, Note_off_c, 8, 63, 95
4, 253920, Note_on_c, 8, 63, 95
4, 254400, Note_off_c, 8, 63, 95
4, 254400, Note_on_c, 8, 72, 95
4, 254880, Note_off_c, 8, 72, 95
4, 254880, Note_on_c, 8, 69, 95
4, 255360, Note_off_c, 8, 69, 95
4, 255360, Note_on_c, 8, 72, 95
4, 255840, Note_off_c, 8, 72, 95
4, 255840, Note_on_c, 8, 69, 95
4, 256320, Note_off_c, 8, 69, 95
4, 256320, Note_on_c, 8, 72, 95
4, 256800, Note_off_c, 8, 72, 95
4, 256800, Note_on_c, 8, 69, 95
4, 257280, Note_off_c, 8, 69, 95
4, 257280, Note_on_c, 8, 69, 95
4, 257760, Note_off_c, 8, 69, 95
4, 257760, Note_on_c, 8, 69, 95
4, 258240, Note_off_c, 8, 69, 95
4, 258240, Note_on_c, 8, 66, 95
4, 258720, Note_off_c, 8, 66, 95
4, 258720, Note_on_c, 8, 63, 95
4, 259200, Note_off_c, 8, 63, 95
4, 259200, Note_on_c, 8, 63, 95
4, 259680, Note_off_c, 8, 63, 95
4, 259680, Note_on_c, 8, 66, 95
4, 260160, Note_off_c, 8, 66, 95
4, 260160, Note_on_c, 8, 63, 95
4, 260640, Note_off_c, 8, 63, 95
4, 260640, Note_on_c, 8, 63, 95
4, 261120, Note_off_c, 8, 63, 95
4, 261120, Note_on_c, 8, 63, 95
4, 261600, Note_off_c, 8, 63, 95
4, 261600, Note_on_c, 8, 63, 95
4, 262080, Note_off_c, 8, 63, 95
4, 262080, Note_on_c, 8, 73, 95
4, 262560, Note_off_c, 8, 73, 95
4, 262560, Note_on_c, 8, 70, 95
4, 263040, Note_off_c, 8, 70, 95
4, 263040, Note_on_c, 8, 73, 95
4, 263520, Note_off_c, 8, 73, 95
4, 263520, Note_on_c, 8, 70, 95
4, 264000, Note_off_c, 8, 70, 95
4, 264000, Note_on_c, 8, 73, 95
4, 264480, Note_off_c, 8, 73, 95
4, 264480, Note_on_c, 8, 72, 95
4, 264960, Note_off_c, 8, 72, 95
4, 264960, Note_on_c, 8, 70, 95
4, 265440, Note_off_c, 8, 70, 95
4, 265440, Note_on_c, 8, 72, 95
4, 265920, Note_off_c, 8, 72, 95
4, 265920, Note_on_c, 10, 66, 95
4, 266040, Pitch_bend_c, 10, 7936
4, 266160, Pitch_bend_c, 10, 7552
4, 266280, Pitch_bend_c, 10, 7296
4, 266400, Pitch_bend_c, 10, 6912
4, 266520, Pitch_bend_c, 10, 6656
4, 266640, Pitch_bend_c, 10, 6272
4, 266760, Pitch_bend_c, 10, 5888
4, 266880, Pitch_bend_c, 10, 5632
4, 267000, Pitch_bend_c, 10, 5248
4, 267120, Pitch_bend_c, 10, 4992
4, 267240, Pitch_bend_c, 10, 4608
4, 267360, Pitch_bend_c, 10, 4352
4, 267480, Pitch_bend_c, 10, 3968
4, 267600, Pitch_bend_c, 10, 3584
4, 267720, Pitch_bend_c, 10, 3328
4, 267840, Pitch_bend_c, 10, 2944
4, 267960, Pitch_bend_c, 10, 2688
4, 268080, Pitch_bend_c, 10, 2304
4, 268200, Pitch_bend_c, 10, 2048
4, 268320, Pitch_bend_c, 10, 1664
4, 268440, Pitch_bend_c, 10, 1280
4, 268560, Pitch_bend_c, 10, 1024
4, 268680, Pitch_bend_c, 10, 640
4, 268800, Pitch_bend_c, 10, 384
4, 268920, Pitch_bend_c, 10, 0
4, 269040, Pitch_bend_c, 10, 0
4, 269160, Pitch_bend_c, 10, 0
4, 269280, Pitch_bend_c, 10, 0
4, 269400, Pitch_bend_c, 10, 0
4, 269520, Pitch_bend_c, 10, 0
4, 269640, Pitch_bend_c, 10, 0
4, 269760, Pitch_bend_c, 10, 0
4, 269760, Pitch_bend_c, 10, 8192
4, 269760, Note_off_c, 10, 66, 95
4, 269760, Note_on_c, 8, 51, 95
4, 269760, Note_on_c, 8, 46, 95
4, 270720, Note_off_c, 8, 51, 95
4, 270720, Note_off_c, 8, 46, 95
4, 270720, Note_on_c, 8, 46, 95
4, 270720, Note_on_c, 8, 51, 95
4, 271680, Note_off_c, 8, 46, 95
4, 271680, Note_off_c, 8, 51, 95
4, 271680, Note_on_c, 8, 49, 95
4, 271680, Note_on_c, 8, 44, 95
4, 272640, Note_off_c, 8, 49, 95
4, 272640, Note_off_c, 8, 44, 95
4, 272640, Note_on_c, 8, 44, 95
4, 272640, Note_on_c, 8, 49, 95
4, 273600, Note_off_c, 8, 44, 95
4, 273600, Note_off_c, 8, 49, 95
4, 273600, Note_on_c, 8, 52, 95
4, 273600, Note_on_c, 8, 47, 95
4, 274560, Note_off_c, 8, 52, 95
4, 274560, Note_off_c, 8, 47, 95
4, 274560, Note_on_c, 8, 52, 95
4, 274560, Note_on_c, 8, 47, 95
4, 275520, Note_off_c, 8, 52, 95
4, 275520, Note_off_c, 8, 47, 95
4, 275520, Note_on_c, 8, 52, 95
4, 275520, Note_on_c, 8, 47, 95
4, 276480, Note_off_c, 8, 52, 95
4, 276480, Note_off_c, 8, 47, 95
4, 276480, Note_on_c, 8, 52, 95
4, 276480, Note_on_c, 8, 47, 95
4, 277440, Note_off_c, 8, 52, 95
4, 277440, Note_off_c, 8, 47, 95
4, 277440, Note_on_c, 8, 46, 95
4, 277440, Note_on_c, 8, 51, 95
4, 278400, Note_off_c, 8, 46, 95
4, 278400, Note_off_c, 8, 51, 95
4, 278400, Note_on_c, 8, 51, 95
4, 278400, Note_on_c, 8, 46, 95
4, 279360, Note_off_c, 8, 51, 95
4, 279360, Note_off_c, 8, 46, 95
4, 279360, Note_on_c, 8, 51, 95
4, 279360, Note_on_c, 8, 46, 95
4, 280320, Note_off_c, 8, 51, 95
4, 280320, Note_off_c, 8, 46, 95
4, 280320, Note_on_c, 8, 51, 95
4, 280320, Note_on_c, 8, 46, 95
4, 281280, Note_off_c, 8, 51, 95
4, 281280, Note_off_c, 8, 46, 95
4, 281280, Note_on_c, 10, 66, 95
4, 281400, Pitch_bend_c, 10, 7936
4, 281520, Pitch_bend_c, 10, 7552
4, 281640, Pitch_bend_c, 10, 7168
4, 281760, Pitch_bend_c, 10, 6784
4, 281880, Pitch_bend_c, 10, 6400
4, 282000, Pitch_bend_c, 10, 6016
4, 282120, Pitch_bend_c, 10, 5632
4, 282240, Pitch_bend_c, 10, 5248
4, 282360, Pitch_bend_c, 10, 4864
4, 282480, Pitch_bend_c, 10, 4480
4, 282600, Pitch_bend_c, 10, 4096
4, 282720, Pitch_bend_c, 10, 3712
4, 282840, Pitch_bend_c, 10, 3456
4, 282960, Pitch_bend_c, 10, 3072
4, 283080, Pitch_bend_c, 10, 2688
4, 283200, Pitch_bend_c, 10, 2304
4, 283320, Pitch_bend_c, 10, 1920
4, 283440, Pitch_bend_c, 10, 1536
4, 283560, Pitch_bend_c, 10, 1152
4, 283680, Pitch_bend_c, 10, 768
4, 283800, Pitch_bend_c, 10, 384
4, 283920, Pitch_bend_c, 10, 0
4, 284040, Pitch_bend_c, 10, 0
4, 284160, Pitch_bend_c, 10, 0
4, 284280, Pitch_bend_c, 10, 0
4, 284400, Pitch_bend_c, 10, 0
4, 284520, Pitch_bend_c, 10, 0
4, 284640, Pitch_bend_c, 10, 0
4, 284760, Pitch_bend_c, 10, 0
4, 284880, Pitch_bend_c, 10, 0
4, 285000, Pitch_bend_c, 10, 0
4, 285120, Pitch_bend_c, 10, 0
4, 285120, Pitch_bend_c, 10, 8192
4, 285120, Note_off_c, 10, 66, 95
4, 285120, Note_on_c, 8, 49, 95
4, 285120, Note_on_c, 8, 44, 95
4, 286080, Note_off_c, 8, 49, 95
4, 286080, Note_off_c, 8, 44, 95
4, 286080, Note_on_c, 8, 44, 95
4, 286080, Note_on_c, 8, 49, 95
4, 287040, Note_off_c, 8, 44, 95
4, 287040, Note_off_c, 8, 49, 95
4, 287040, Note_on_c, 8, 54, 95
4, 287040, Note_on_c, 8, 49, 95
4, 288000, Note_off_c, 8, 54, 95
4, 288000, Note_off_c, 8, 49, 95
4, 288000, Note_on_c, 8, 49, 95
4, 288000, Note_on_c, 8, 54, 95
4, 288960, Note_off_c, 8, 49, 95
4, 288960, Note_off_c, 8, 54, 95
4, 288960, Note_on_c, 8, 53, 95
4, 288960, Note_on_c, 8, 48, 95
4, 289920, Note_off_c, 8, 53, 95
4, 289920, Note_off_c, 8, 48, 95
4, 289920, Note_on_c, 8, 48, 95
4, 289920, Note_on_c, 8, 53, 95
4, 290880, Note_off_c, 8, 48, 95
4, 290880, Note_off_c, 8, 53, 95
4, 290880, Note_on_c, 8, 51, 95
4, 290880, Note_on_c, 8, 46, 95
4, 291840, Note_off_c, 8, 51, 95
4, 291840, Note_off_c, 8, 46, 95
4, 291840, Note_on_c, 8, 46, 95
4, 291840, Note_on_c, 8, 51, 95
4, 292800, Note_off_c, 8, 46, 95
4, 292800, Note_off_c, 8, 51, 95
4, 292800, Note_on_c, 8, 53, 95
4, 292800, Note_on_c, 8, 48, 95
4, 293760, Note_off_c, 8, 53, 95
4, 293760, Note_off_c, 8, 48, 95
4, 293760, Note_on_c, 8, 53, 95
4, 293760, Note_on_c, 8, 48, 95
4, 294720, Note_off_c, 8, 53, 95
4, 294720, Note_off_c, 8, 48, 95
4, 294720, Note_on_c, 8, 53, 95
4, 294720, Note_on_c, 8, 48, 95
4, 295680, Note_off_c, 8, 53, 95
4, 295680, Note_off_c, 8, 48, 95
4, 295680, Note_on_c, 8, 53, 95
4, 295680, Note_on_c, 8, 48, 95
4, 296640, Note_off_c, 8, 53, 95
4, 296640, Note_off_c, 8, 48, 95
4, 296640, Note_on_c, 8, 54, 95
4, 296640, Note_on_c, 8, 49, 95
4, 297600, Note_off_c, 8, 54, 95
4, 297600, Note_off_c, 8, 49, 95
4, 297600, Note_on_c, 8, 54, 95
4, 297600, Note_on_c, 8, 49, 95
4, 298560, Note_off_c, 8, 54, 95
4, 298560, Note_off_c, 8, 49, 95
4, 298560, Note_on_c, 8, 48, 95
4, 298560, Note_on_c, 8, 53, 95
4, 299520, Note_off_c, 8, 48, 95
4, 299520, Note_off_c, 8, 53, 95
4, 299520, Note_on_c, 8, 48, 95
4, 299520, Note_on_c, 8, 53, 95
4, 300480, Note_off_c, 8, 48, 95
4, 300480, Note_off_c, 8, 53, 95
4, 300480, Note_on_c, 8, 51, 95
4, 300480, Note_on_c, 8, 46, 95
4, 301440, Note_off_c, 8, 51, 95
4, 301440, Note_off_c, 8, 46, 95
4, 301440, Note_on_c, 8, 51, 95
4, 301440, Note_on_c, 8, 46, 95
4, 302400, Note_off_c, 8, 51, 95
4, 302400, Note_off_c, 8, 46, 95
4, 302400, Note_on_c, 8, 53, 95
4, 302400, Note_on_c, 8, 48, 95
4, 304320, Note_off_c, 8, 53, 95
4, 304320, Note_off_c, 8, 48, 95
4, 304320, Note_on_c, 8, 71, 95
4, 304800, Note_off_c, 8, 71, 95
4, 304800, Note_on_c, 8, 62, 95
4, 305280, Note_off_c, 8, 62, 95
4, 305280, Note_on_c, 8, 61, 95
4, 305760, Note_off_c, 8, 61, 95
4, 305760, Note_on_c, 8, 71, 95
4, 306240, Note_off_c, 8, 71, 95
4, 306240, Note_on_c, 8, 70, 95
4, 306720, Note_off_c, 8, 70, 95
4, 306720, Note_on_c, 8, 62, 95
4, 307200, Note_off_c, 8, 62, 95
4, 307200, Note_on_c, 8, 71, 95
4, 307680, Note_off_c, 8, 71, 95
4, 307680, Note_on_c, 8, 62, 95
4, 308160, Note_off_c, 8, 62, 95
4, 308160, Note_on_c, 8, 61, 95
4, 308640, Note_off_c, 8, 61, 95
4, 308640, Note_on_c, 8, 71, 95
4, 309120, Note_off_c, 8, 71, 95
4, 309120, Note_on_c, 8, 70, 95
4, 309600, Note_off_c, 8, 70, 95
4, 309600, Note_on_c, 8, 62, 95
4, 310080, Note_off_c, 8, 62, 95
4, 310080, Note_on_c, 8, 66, 95
4, 310560, Note_off_c, 8, 66, 95
4, 310560, Note_on_c, 8, 63, 95
4, 311040, Note_off_c, 8, 63, 95
4, 311040, Note_on_c, 8, 63, 95
4, 311520, Note_off_c, 8, 63, 95
4, 311520, Note_on_c, 8, 66, 95
4, 312000, Note_off_c, 8, 66, 95
4, 312000, Note_on_c, 8, 63, 95
4, 312480, Note_off_c, 8, 63, 95
4, 312480, Note_on_c, 8, 63, 95
4, 312960, Note_off_c, 8, 63, 95
4, 312960, Note_on_c, 8, 63, 95
4, 313440, Note_off_c, 8, 63, 95
4, 313440, Note_on_c, 8, 63, 95
4, 313920, Note_off_c, 8, 63, 95
4, 313920, Note_on_c, 8, 72, 95
4, 314400, Note_off_c, 8, 72, 95
4, 314400, Note_on_c, 8, 69, 95
4, 314880, Note_off_c, 8, 69, 95
4, 314880, Note_on_c, 8, 72, 95
4, 315360, Note_off_c, 8, 72, 95
4, 315360, Note_on_c, 8, 69, 95
4, 315840, Note_off_c, 8, 69, 95
4, 315840, Note_on_c, 8, 72, 95
4, 316320, Note_off_c, 8, 72, 95
4, 316320, Note_on_c, 8, 69, 95
4, 316800, Note_off_c, 8, 69, 95
4, 316800, Note_on_c, 8, 69, 95
4, 317280, Note_off_c, 8, 69, 95
4, 317280, Note_on_c, 8, 69, 95
4, 317760, Note_off_c, 8, 69, 95
4, 317760, Note_on_c, 8, 66, 95
4, 318240, Note_off_c, 8, 66, 95
4, 318240, Note_on_c, 8, 63, 95
4, 318720, Note_off_c, 8, 63, 95
4, 318720, Note_on_c, 8, 63, 95
4, 319200, Note_off_c, 8, 63, 95
4, 319200, Note_on_c, 8, 66, 95
4, 319680, Note_off_c, 8, 66, 95
4, 319680, Note_on_c, 8, 63, 95
4, 320160, Note_off_c, 8, 63, 95
4, 320160, Note_on_c, 8, 63, 95
4, 320640, Note_off_c, 8, 63, 95
4, 320640, Note_on_c, 8, 63, 95
4, 321120, Note_off_c, 8, 63, 95
4, 321120, Note_on_c, 8, 63, 95
4, 321600, Note_off_c, 8, 63, 95
4, 321600, Note_on_c, 8, 73, 95
4, 322080, Note_off_c, 8, 73, 95
4, 322080, Note_on_c, 8, 70, 95
4, 322560, Note_off_c, 8, 70, 95
4, 322560, Note_on_c, 8, 73, 95
4, 323040, Note_off_c, 8, 73, 95
4, 323040, Note_on_c, 8, 70, 95
4, 323520, Note_off_c, 8, 70, 95
4, 323520, Note_on_c, 8, 73, 95
4, 324000, Note_off_c, 8, 73, 95
4, 324000, Note_on_c, 8, 72, 95
4, 324480, Note_off_c, 8, 72, 95
4, 324480, Note_on_c, 8, 70, 95
4, 324960, Note_off_c, 8, 70, 95
4, 324960, Note_on_c, 8, 72, 95
4, 325440, Note_off_c, 8, 72, 95
4, 325440, Note_on_c, 8, 66, 95
4, 325920, Note_off_c, 8, 66, 95
4, 325920, Note_on_c, 8, 63, 95
4, 326400, Note_off_c, 8, 63, 95
4, 326400, Note_on_c, 8, 63, 95
4, 326880, Note_off_c, 8, 63, 95
4, 326880, Note_on_c, 8, 66, 95
4, 327360, Note_off_c, 8, 66, 95
4, 327360, Note_on_c, 8, 63, 95
4, 327840, Note_off_c, 8, 63, 95
4, 327840, Note_on_c, 8, 63, 95
4, 328320, Note_off_c, 8, 63, 95
4, 328320, Note_on_c, 8, 63, 95
4, 328800, Note_off_c, 8, 63, 95
4, 328800, Note_on_c, 8, 63, 95
4, 329280, Note_off_c, 8, 63, 95
4, 329280, Note_on_c, 8, 72, 95
4, 329760, Note_off_c, 8, 72, 95
4, 329760, Note_on_c, 8, 69, 95
4, 330240, Note_off_c, 8, 69, 95
4, 330240, Note_on_c, 8, 72, 95
4, 330720, Note_off_c, 8, 72, 95
4, 330720, Note_on_c, 8, 69, 95
4, 331200, Note_off_c, 8, 69, 95
4, 331200, Note_on_c, 8, 72, 95
4, 331680, Note_off_c, 8, 72, 95
4, 331680, Note_on_c, 8, 69, 95
4, 332160, Note_off_c, 8, 69, 95
4, 332160, Note_on_c, 8, 69, 95
4, 332640, Note_off_c, 8, 69, 95
4, 332640, Note_on_c, 8, 69, 95
4, 333120, Note_off_c, 8, 69, 95
4, 333120, Note_on_c, 8, 66, 95
4, 333600, Note_off_c, 8, 66, 95
4, 333600, Note_on_c, 8, 63, 95
4, 334080, Note_off_c, 8, 63, 95
4, 334080, Note_on_c, 8, 63, 95
4, 334560, Note_off_c, 8, 63, 95
4, 334560, Note_on_c, 8, 66, 95
4, 335040, Note_off_c, 8, 66, 95
4, 335040, Note_on_c, 8, 63, 95
4, 335520, Note_off_c, 8, 63, 95
4, 335520, Note_on_c, 8, 63, 95
4, 336000, Note_off_c, 8, 63, 95
4, 336000, Note_on_c, 8, 63, 95
4, 336480, Note_off_c, 8, 63, 95
4, 336480, Note_on_c, 8, 63, 95
4, 336960, Note_off_c, 8, 63, 95
4, 336960, Note_on_c, 8, 73, 95
4, 337440, Note_off_c, 8, 73, 95
4, 337440, Note_on_c, 8, 70, 95
4, 337920, Note_off_c, 8, 70, 95
4, 337920, Note_on_c, 8, 73, 95
4, 338400, Note_off_c, 8, 73, 95
4, 338400, Note_on_c, 8, 70, 95
4, 338880, Note_off_c, 8, 70, 95
4, 338880, Note_on_c, 8, 73, 95
4, 339360, Note_off_c, 8, 73, 95
4, 339360, Note_on_c, 8, 72, 95
4, 339840, Note_off_c, 8, 72, 95
4, 339840, Note_on_c, 8, 70, 95
4, 340320, Note_off_c, 8, 70, 95
4, 340320, Note_on_c, 8, 72, 95
4, 340800, Note_off_c, 8, 72, 95
4, 340800, Note_on_c, 8, 73, 95
4, 341280, Note_off_c, 8, 73, 95
4, 341280, Note_on_c, 8, 53, 95
4, 341760, Note_off_c, 8, 53, 95
4, 341760, Note_on_c, 8, 54, 95
4, 342240, Note_off_c, 8, 54, 95
4, 342240, Note_on_c, 8, 57, 95
4, 342720, Note_off_c, 8, 57, 95
4, 342720, Note_on_c, 8, 58, 95
4, 343200, Note_off_c, 8, 58, 95
4, 343200, Note_on_c, 8, 59, 95
4, 343680, Note_off_c, 8, 59, 95
4, 343680, Note_on_c, 8, 57, 95
4, 344160, Note_off_c, 8, 57, 95
4, 344160, Note_on_c, 8, 58, 95
4, 344640, Note_off_c, 8, 58, 95
4, 344640, Note_on_c, 8, 62, 95
4, 345120, Note_off_c, 8, 62, 95
4, 345120, Note_on_c, 8, 63, 95
4, 345600, Note_off_c, 8, 63, 95
4, 345600, Note_on_c, 8, 65, 95
4, 346080, Note_off_c, 8, 65, 95
4, 346080, Note_on_c, 8, 66, 95
4, 346560, Note_off_c, 8, 66, 95
4, 346560, Note_on_c, 8, 65, 95
4, 347040, Note_off_c, 8, 65, 95
4, 347040, Note_on_c, 8, 62, 95
4, 347520, Note_off_c, 8, 62, 95
4, 347520, Note_on_c, 8, 63, 95
4, 348000, Note_off_c, 8, 63, 95
4, 348000, Note_on_c, 8, 65, 95
4, 348480, Note_off_c, 8, 65, 95
4, 348480, Note_on_c, 8, 66, 95
4, 348960, Note_off_c, 8, 66, 95
4, 348960, Note_on_c, 8, 69, 95
4, 349440, Note_off_c, 8, 69, 95
4, 349440, Note_on_c, 8, 70, 95
4, 349920, Note_off_c, 8, 70, 95
4, 349920, Note_on_c, 8, 71, 95
4, 350400, Note_off_c, 8, 71, 95
4, 350400, Note_on_c, 8, 69, 95
4, 350880, Note_off_c, 8, 69, 95
4, 350880, Note_on_c, 8, 70, 95
4, 351360, Note_off_c, 8, 70, 95
4, 351360, Note_on_c, 8, 74, 95
4, 351840, Note_off_c, 8, 74, 95
4, 351840, Note_on_c, 8, 75, 95
4, 352320, Note_off_c, 8, 75, 95
4, 352320, Note_on_c, 8, 70, 95
4, 353280, Note_off_c, 8, 70, 95
4, 487680, Note_on_c, 8, 51, 63
4, 487680, Note_on_c, 8, 54, 63
4, 488160, Note_off_c, 8, 51, 63
4, 488160, Note_off_c, 8, 54, 63
4, 488160, Note_on_c, 8, 54, 63
4, 488160, Note_on_c, 8, 51, 63
4, 488640, Note_off_c, 8, 54, 63
4, 488640, Note_off_c, 8, 51, 63
4, 488640, Note_on_c, 8, 54, 63
4, 488640, Note_on_c, 8, 51, 63
4, 489120, Note_off_c, 8, 54, 63
4, 489120, Note_off_c, 8, 51, 63
4, 489120, Note_on_c, 8, 54, 63
4, 489120, Note_on_c, 8, 51, 63
4, 489600, Note_off_c, 8, 54, 63
4, 489600, Note_off_c, 8, 51, 63
4, 489600, Note_on_c, 8, 54, 63
4, 489600, Note_on_c, 8, 50, 63
4, 490080, Note_off_c, 8, 54, 63
4, 490080, Note_off_c, 8, 50, 63
4, 490080, Note_on_c, 8, 54, 63
4, 490080, Note_on_c, 8, 50, 63
4, 490560, Note_off_c, 8, 54, 63
4, 490560, Note_off_c, 8, 50, 63
4, 490560, Note_on_c, 8, 54, 63
4, 490560, Note_on_c, 8, 50, 63
4, 491040, Note_off_c, 8, 54, 63
4, 491040, Note_off_c, 8, 50, 63
4, 491040, Note_on_c, 8, 54, 63
4, 491040, Note_on_c, 8, 50, 63
4, 491520, Note_off_c, 8, 54, 63
4, 491520, Note_off_c, 8, 50, 63
4, 491520, Note_on_c, 8, 51, 63
4, 491520, Note_on_c, 8, 54, 63
4, 492000, Note_off_c, 8, 51, 63
4, 492000, Note_off_c, 8, 54, 63
4, 492000, Note_on_c, 8, 54, 63
4, 492000, Note_on_c, 8, 51, 63
4, 492480, Note_off_c, 8, 54, 63
4, 492480, Note_off_c, 8, 51, 63
4, 492480, Note_on_c, 8, 54, 63
4, 492480, Note_on_c, 8, 51, 63
4, 492960, Note_off_c, 8, 54, 63
4, 492960, Note_off_c, 8, 51, 63
4, 492960, Note_on_c, 8, 54, 63
4, 492960, Note_on_c, 8, 51, 63
4, 493440, Note_off_c, 8, 54, 63
4, 493440, Note_off_c, 8, 51, 63
4, 493440, Note_on_c, 8, 54, 63
4, 493440, Note_on_c, 8, 50, 63
4, 493920, Note_off_c, 8, 54, 63
4, 493920, Note_off_c, 8, 50, 63
4, 493920, Note_on_c, 8, 54, 63
4, 493920, Note_on_c, 8, 50, 63
4, 494400, Note_off_c, 8, 54, 63
4, 494400, Note_off_c, 8, 50, 63
4, 494400, Note_on_c, 8, 54, 63
4, 494400, Note_on_c, 8, 50, 63
4, 494880, Note_off_c, 8, 54, 63
4, 494880, Note_off_c, 8, 50, 63
4, 494880, Note_on_c, 8, 54, 63
4, 494880, Note_on_c, 8, 50, 63
4, 495360, Note_off_c, 8, 54, 63
4, 495360, Note_off_c, 8, 50, 63
4, 495360, Note_on_c, 8, 51, 63
4, 495360, Note_on_c, 8, 54, 63
4, 495840, Note_off_c, 8, 51, 63
4, 495840, Note_off_c, 8, 54, 63
4, 495840, Note_on_c, 8, 54, 63
4, 495840, Note_on_c, 8, 51, 63
4, 496320, Note_off_c, 8, 54, 63
4, 496320, Note_off_c, 8, 51, 63
4, 496320, Note_on_c, 8, 54, 63
4, 496320, Note_on_c, 8, 51, 63
4, 496800, Note_off_c, 8, 54, 63
4, 496800, Note_off_c, 8, 51, 63
4, 496800, Note_on_c, 8, 54, 63
4, 496800, Note_on_c, 8, 51, 63
4, 497280, Note_off_c, 8, 54, 63
4, 497280, Note_off_c, 8, 51, 63
4, 497280, Note_on_c, 8, 54, 63
4, 497280, Note_on_c, 8, 50, 63
4, 497760, Note_off_c, 8, 54, 63
4, 497760, Note_off_c, 8, 50, 63
4, 497760, Note_on_c, 8, 54, 63
4, 497760, Note_on_c, 8, 50, 63
4, 498240, Note_off_c, 8, 54, 63
4, 498240, Note_off_c, 8, 50, 63
4, 498240, Note_on_c, 8, 54, 63
4, 498240, Note_on_c, 8, 50, 63
4, 498720, Note_off_c, 8, 54, 63
4, 498720, Note_off_c, 8, 50, 63
4, 498720, Note_on_c, 8, 54, 63
4, 498720, Note_on_c, 8, 50, 63
4, 499200, Note_off_c, 8, 54, 63
4, 499200, Note_off_c, 8, 50, 63
4, 499200, Note_on_c, 8, 51, 63
4, 499200, Note_on_c, 8, 54, 63
4, 499680, Note_off_c, 8, 51, 63
4, 499680, Note_off_c, 8, 54, 63
4, 499680, Note_on_c, 8, 54, 63
4, 499680, Note_on_c, 8, 51, 63
4, 500160, Note_off_c, 8, 54, 63
4, 500160, Note_off_c, 8, 51, 63
4, 500160, Note_on_c, 8, 54, 63
4, 500160, Note_on_c, 8, 51, 63
4, 500640, Note_off_c, 8, 54, 63
4, 500640, Note_off_c, 8, 51, 63
4, 500640, Note_on_c, 8, 54, 63
4, 500640, Note_on_c, 8, 51, 63
4, 501120, Note_off_c, 8, 54, 63
4, 501120, Note_off_c, 8, 51, 63
4, 501120, Note_on_c, 8, 54, 63
4, 501120, Note_on_c, 8, 51, 79
4, 501600, Note_off_c, 8, 54, 63
4, 501600, Note_off_c, 8, 51, 79
4, 501600, Note_on_c, 8, 54, 63
4, 501600, Note_on_c, 8, 51, 79
4, 502080, Note_off_c, 8, 54, 63
4, 502080, Note_off_c, 8, 51, 79
4, 502080, Note_on_c, 8, 54, 63
4, 502080, Note_on_c, 8, 51, 79
4, 502320, Note_off_c, 8, 54, 63
4, 502320, Note_off_c, 8, 51, 79
4, 502320, Note_on_c, 8, 54, 79
4, 502320, Note_on_c, 8, 51, 79
4, 502560, Note_off_c, 8, 54, 79
4, 502560, Note_off_c, 8, 51, 79
4, 502560, Note_on_c, 8, 54, 63
4, 502560, Note_on_c, 8, 51, 79
4, 502800, Note_off_c, 8, 54, 63
4, 502800, Note_off_c, 8, 51, 79
4, 502800, Note_on_c, 8, 54, 79
4, 502800, Note_on_c, 8, 51, 79
4, 503040, Note_off_c, 8, 54, 79
4, 503040, Note_off_c, 8, 51, 79
4, 503040, Note_on_c, 8, 49, 95
4, 503040, Note_on_c, 8, 46, 95
4, 503520, Note_off_c, 8, 49, 95
4, 503520, Note_off_c, 8, 46, 95
4, 503520, Note_on_c, 8, 46, 95
4, 503520, Note_on_c, 8, 49, 95
4, 504000, Note_off_c, 8, 46, 95
4, 504000, Note_off_c, 8, 49, 95
4, 504000, Note_on_c, 8, 47, 95
4, 504240, Note_off_c, 8, 47, 95
4, 504240, Note_on_c, 8, 47, 95
4, 504480, Note_off_c, 8, 47, 95
4, 504480, Note_on_c, 8, 47, 95
4, 504720, Note_off_c, 8, 47, 95
4, 504720, Note_on_c, 8, 47, 95
4, 504960, Note_off_c, 8, 47, 95
4, 504960, Note_on_c, 8, 49, 95
4, 504960, Note_on_c, 8, 46, 95
4, 505440, Note_off_c, 8, 49, 95
4, 505440, Note_off_c, 8, 46, 95
4, 505440, Note_on_c, 8, 49, 95
4, 505440, Note_on_c, 8, 46, 95
4, 505920, Note_off_c, 8, 49, 95
4, 505920, Note_off_c, 8, 46, 95
4, 505920, Note_on_c, 8, 47, 95
4, 506160, Note_off_c, 8, 47, 95
4, 506160, Note_on_c, 8, 47, 95
4, 506400, Note_off_c, 8, 47, 95
4, 506400, Note_on_c, 8, 47, 95
4, 506640, Note_off_c, 8, 47, 95
4, 506640, Note_on_c, 8, 47, 95
4, 506880, Note_off_c, 8, 47, 95
4, 506880, Note_on_c, 8, 50, 95
4, 506880, Note_on_c, 8, 47, 95
4, 507360, Note_off_c, 8, 50, 95
4, 507360, Note_off_c, 8, 47, 95
4, 507360, Note_on_c, 8, 47, 95
4, 507360, Note_on_c, 8, 50, 95
4, 507840, Note_off_c, 8, 47, 95
4, 507840, Note_off_c, 8, 50, 95
4, 507840, Note_on_c, 8, 50, 95
4, 508080, Note_off_c, 8, 50, 95
4, 508080, Note_on_c, 8, 50, 95
4, 508320, Note_off_c, 8, 50, 95
4, 508320, Note_on_c, 8, 50, 95
4, 508560, Note_off_c, 8, 50, 95
4, 508560, Note_on_c, 8, 50, 95
4, 508800, Note_off_c, 8, 50, 95
4, 508800, Note_on_c, 8, 50, 95
4, 508800, Note_on_c, 8, 47, 95
4, 509280, Note_off_c, 8, 50, 95
4, 509280, Note_off_c, 8, 47, 95
4, 509280, Note_on_c, 8, 50, 95
4, 509280, Note_on_c, 8, 47, 95
4, 509760, Note_off_c, 8, 50, 95
4, 509760, Note_off_c, 8, 47, 95
4, 509760, Note_on_c, 8, 50, 95
4, 510000, Note_off_c, 8, 50, 95
4, 510000, Note_on_c, 8, 50, 95
4, 510240, Note_off_c, 8, 50, 95
4, 510240, Note_on_c, 8, 50, 95
4, 510480, Note_off_c, 8, 50, 95
4, 510480, Note_on_c, 8, 50, 95
4, 510720, Note_off_c, 8, 50, 95
4, 510720, Note_on_c, 8, 51, 95
4, 510720, Note_on_c, 8, 48, 95
4, 511200, Note_off_c, 8, 51, 95
4, 511200, Note_off_c, 8, 48, 95
4, 511200, Note_on_c, 8, 51, 95
4, 511200, Note_on_c, 8, 48, 95
4, 511680, Note_off_c, 8, 51, 95
4, 511680, Note_off_c, 8, 48, 95
4, 511680, Note_on_c, 8, 51, 95
4, 511920, Note_off_c, 8, 51, 95
4, 511920, Note_on_c, 8, 51, 95
4, 512160, Note_off_c, 8, 51, 95
4, 512160, Note_on_c, 8, 51, 95
4, 512400, Note_off_c, 8, 51, 95
4, 512400, Note_on_c, 8, 51, 95
4, 512640, Note_off_c, 8, 51, 95
4, 512640, Note_on_c, 8, 51, 95
4, 512640, Note_on_c, 8, 48, 95
4, 513120, Note_off_c, 8, 51, 95
4, 513120, Note_off_c, 8, 48, 95
4, 513120, Note_on_c, 8, 48, 95
4, 513120, Note_on_c, 8, 51, 95
4, 513600, Note_off_c, 8, 48, 95
4, 513600, Note_off_c, 8, 51, 95
4, 513600, Note_on_c, 8, 51, 95
4, 513840, Note_off_c, 8, 51, 95
4, 513840, Note_on_c, 8, 51, 95
4, 514080, Note_off_c, 8, 51, 95
4, 514080, Note_on_c, 8, 51, 95
4, 514320, Note_off_c, 8, 51, 95
4, 514320, Note_on_c, 8, 51, 95
4, 514560, Note_off_c, 8, 51, 95
4, 514560, Note_on_c, 8, 52, 95
4, 514560, Note_on_c, 8, 49, 95
4, 515040, Note_off_c, 8, 52, 95
4, 515040, Note_off_c, 8, 49, 95
4, 515040, Note_on_c, 8, 52, 95
4, 515040, Note_on_c, 8, 49, 95
4, 515520, Note_off_c, 8, 52, 95
4, 515520, Note_off_c, 8, 49, 95
4, 515520, Note_on_c, 8, 52, 95
4, 515760, Note_off_c, 8, 52, 95
4, 515760, Note_on_c, 8, 52, 95
4, 516000, Note_off_c, 8, 52, 95
4, 516000, Note_on_c, 8, 52, 95
4, 516240, Note_off_c, 8, 52, 95
4, 516240, Note_on_c, 8, 52, 95
4, 516480, Note_off_c, 8, 52, 95
4, 516480, Note_on_c, 8, 52, 95
4, 516480, Note_on_c, 8, 49, 95
4, 516960, Note_off_c, 8, 52, 95
4, 516960, Note_off_c, 8, 49, 95
4, 516960, Note_on_c, 8, 53, 95
4, 516960, Note_on_c, 8, 50, 95
4, 517440, Note_off_c, 8, 53, 95
4, 517440, Note_off_c, 8, 50, 95
4, 517440, Note_on_c, 8, 54, 95
4, 517440, Note_on_c, 8, 51, 95
4, 518400, Note_off_c, 8, 54, 95
4, 518400, Note_off_c, 8, 51, 95
4, 518400, Note_on_c, 8, 59, 95
4, 518400, Note_on_c, 8, 54, 95
4, 519360, Note_off_c, 8, 59, 95
4, 519360, Note_off_c, 8, 54, 95
4, 519360, Note_on_c, 8, 59, 95
4, 519360, Note_on_c, 8, 51, 95
4, 519840, Note_off_c, 8, 59, 95
4, 519840, Note_off_c, 8, 51, 95
4, 520320, Note_on_c, 8, 59, 95
4, 520320, Note_on_c, 8, 54, 95
4, 521280, Note_off_c, 8, 59, 95
4, 521280, Note_off_c, 8, 54, 95
4, 521280, Note_on_c, 8, 59, 95
4, 521280, Note_on_c, 8, 51, 95
4, 521760, Note_off_c, 8, 59, 95
4, 521760, Note_off_c, 8, 51, 95
4, 522240, Note_on_c, 8, 59, 95
4, 522240, Note_on_c, 8, 54, 95
4, 523200, Note_off_c, 8, 59, 95
4, 523200, Note_off_c, 8, 54, 95
4, 523200, Note_on_c, 8, 59, 95
4, 523200, Note_on_c, 8, 51, 95
4, 523680, Note_off_c, 8, 59, 95
4, 523680, Note_off_c, 8, 51, 95
4, 524160, Note_on_c, 8, 59, 95
4, 524160, Note_on_c, 8, 54, 95
4, 525120, Note_off_c, 8, 59, 95
4, 525120, Note_off_c, 8, 54, 95
4, 525120, Note_on_c, 8, 59, 95
4, 525120, Note_on_c, 8, 51, 95
4, 525600, Note_off_c, 8, 59, 95
4, 525600, Note_off_c, 8, 51, 95
4, 526080, Note_on_c, 8, 59, 95
4, 526080, Note_on_c, 8, 54, 95
4, 527040, Note_off_c, 8, 59, 95
4, 527040, Note_off_c, 8, 54, 95
4, 527040, Note_on_c, 8, 59, 95
4, 527040, Note_on_c, 8, 51, 95
4, 527520, Note_off_c, 8, 59, 95
4, 527520, Note_off_c, 8, 51, 95
4, 528000, Note_on_c, 8, 59, 95
4, 528000, Note_on_c, 8, 54, 95
4, 528960, Note_off_c, 8, 59, 95
4, 528960, Note_off_c, 8, 54, 95
4, 528960, Note_on_c, 8, 59, 95
4, 528960, Note_on_c, 8, 51, 95
4, 529440, Note_off_c, 8, 59, 95
4, 529440, Note_off_c, 8, 51, 95
4, 529920, Note_on_c, 8, 59, 95
4, 529920, Note_on_c, 8, 54, 95
4, 530880, Note_off_c, 8, 59, 95
4, 530880, Note_off_c, 8, 54, 95
4, 530880, Note_on_c, 8, 59, 95
4, 530880, Note_on_c, 8, 51, 95
4, 531360, Note_off_c, 8, 59, 95
4, 531360, Note_off_c, 8, 51, 95
4, 531840, Note_on_c, 8, 59, 95
4, 531840, Note_on_c, 8, 54, 95
4, 532800, Note_off_c, 8, 59, 95
4, 532800, Note_off_c, 8, 54, 95
4, 532800, Note_on_c, 8, 59, 95
4, 532800, Note_on_c, 8, 51, 95
4, 533280, Note_off_c, 8, 59, 95
4, 533280, Note_off_c, 8, 51, 95
4, 533760, Note_on_c, 8, 54, 95
4, 533760, Note_on_c, 8, 59, 95
4, 537600, Note_off_c, 8, 54, 95
4, 537600, Note_off_c, 8, 59, 95
4, 537600, Note_on_c, 8, 66, 95
4, 537600, Note_on_c, 8, 71, 95
4, 540480, Note_off_c, 8, 66, 95
4, 540480, Note_off_c, 8, 71, 95
4, 540480, End_track
5, 0, Start_track
5, 0, Pitch_bend_c, 4, 8192
5, 0, Control_c, 4, 7, 127
5, 0, Control_c, 4, 10, 64
5, 0, Control_c, 4, 93, 0
5, 0, Control_c, 4, 91, 0
5, 0, Control_c, 4, 95, 0
5, 0, Control_c, 4, 92, 0
5, 0, Control_c, 4, 11, 127
5, 0, Program_c, 4, 33
5, 0, Control_c, 5, 7, 127
5, 0, Control_c, 5, 10, 64
5, 0, Control_c, 5, 93, 0
5, 0, Control_c, 5, 91, 0
5, 0, Control_c, 5, 95, 0
5, 0, Control_c, 5, 92, 0
5, 0, Control_c, 5, 11, 127
5, 0, Program_c, 5, 33
5, 10560, Note_on_c, 4, 43, 95
5, 11520, Note_off_c, 4, 43, 95
5, 11520, Note_on_c, 4, 41, 95
5, 12480, Note_off_c, 4, 41, 95
5, 12480, Note_on_c, 4, 43, 95
5, 13440, Note_off_c, 4, 43, 95
5, 13440, Note_on_c, 4, 41, 95
5, 14400, Note_off_c, 4, 41, 95
5, 14400, Note_on_c, 4, 38, 95
5, 15360, Note_off_c, 4, 38, 95
5, 15360, Note_on_c, 4, 41, 95
5, 16320, Note_off_c, 4, 41, 95
5, 16320, Note_on_c, 4, 46, 95
5, 17280, Note_off_c, 4, 46, 95
5, 17280, Note_on_c, 4, 43, 95
5, 18240, Note_off_c, 4, 43, 95
5, 18240, Note_on_c, 4, 36, 95
5, 19200, Note_off_c, 4, 36, 95
5, 19200, Note_on_c, 4, 40, 95
5, 20160, Note_off_c, 4, 40, 95
5, 20160, Note_on_c, 4, 41, 95
5, 21120, Note_off_c, 4, 41, 95
5, 25920, Note_on_c, 4, 46, 95
5, 26400, Note_off_c, 4, 46, 95
5, 26400, Note_on_c, 4, 48, 95
5, 26880, Note_off_c, 4, 48, 95
5, 26880, Note_on_c, 4, 44, 95
5, 27840, Note_off_c, 4, 44, 95
5, 27840, Note_on_c, 4, 44, 95
5, 28800, Note_off_c, 4, 44, 95
5, 28800, Note_on_c, 4, 49, 95
5, 29760, Note_off_c, 4, 49, 95
5, 29760, Note_on_c, 4, 46, 95
5, 30720, Note_off_c, 4, 46, 95
5, 30720, Note_on_c, 4, 44, 95
5, 31680, Note_off_c, 4, 44, 95
5, 31680, Note_on_c, 4, 41, 95
5, 32160, Note_off_c, 4, 41, 95
5, 32160, Note_on_c, 4, 39, 95
5, 32640, Note_off_c, 4, 39, 95
5, 32640, Note_on_c, 4, 37, 95
5, 33600, Note_off_c, 4, 37, 95
5, 33600, Note_on_c, 4, 39, 95
5, 34080, Note_off_c, 4, 39, 95
5, 34080, Note_on_c, 4, 41, 95
5, 34560, Note_off_c, 4, 41, 95
5, 34560, Note_on_c, 4, 44, 95
5, 35520, Note_off_c, 4, 44, 95
5, 35520, Note_on_c, 4, 46, 95
5, 36480, Note_off_c, 4, 46, 95
5, 36480, Note_on_c, 4, 44, 95
5, 37440, Note_off_c, 4, 44, 95
5, 37440, Note_on_c, 4, 33, 95
5, 37920, Note_off_c, 4, 33, 95
5, 37920, Note_on_c, 4, 31, 95
5, 38400, Note_off_c, 4, 31, 95
5, 38400, Note_on_c, 4, 29, 95
5, 39360, Note_off_c, 4, 29, 95
5, 39360, Note_on_c, 4, 31, 95
5, 39840, Note_off_c, 4, 31, 95
5, 39840, Note_on_c, 4, 33, 95
5, 40320, Note_off_c, 4, 33, 95
5, 40320, Note_on_c, 4, 36, 95
5, 41280, Note_off_c, 4, 36, 95
5, 41280, Note_on_c, 4, 38, 95
5, 42240, Note_off_c, 4, 38, 95
5, 42240, Note_on_c, 4, 36, 95
5, 43200, Note_off_c, 4, 36, 95
5, 43200, Note_on_c, 4, 31, 95
5, 44160, Note_off_c, 4, 31, 95
5, 44160, Note_on_c, 4, 29, 95
5, 45120, Note_off_c, 4, 29, 95
5, 45120, Note_on_c, 4, 31, 95
5, 46080, Note_off_c, 4, 31, 95
5, 46080, Note_on_c, 4, 29, 95
5, 47040, Note_off_c, 4, 29, 95
5, 47040, Note_on_c, 4, 43, 95
5, 48000, Note_off_c, 4, 43, 95
5, 48000, Note_on_c, 4, 41, 95
5, 48960, Note_off_c, 4, 41, 95
5, 48960, Note_on_c, 4, 39, 95
5, 49920, Note_off_c, 4, 39, 95
5, 49920, Note_on_c, 4, 29, 95
5, 50880, Note_off_c, 4, 29, 95
5, 50880, Note_on_c, 4, 31, 95
5, 51840, Note_off_c, 4, 31, 95
5, 51840, Note_on_c, 4, 29, 95
5, 52800, Note_off_c, 4, 29, 95
5, 52800, Note_on_c, 4, 39, 95
5, 53760, Note_off_c, 4, 39, 95
5, 53760, Note_on_c, 4, 41, 95
5, 54720, Note_off_c, 4, 41, 95
5, 54720, Note_on_c, 4, 38, 95
5, 55680, Note_off_c, 4, 38, 95
5, 55680, Note_on_c, 4, 36, 95
5, 56640, Note_off_c, 4, 36, 95
5, 56640, Note_on_c, 4, 34, 95
5, 57600, Note_off_c, 4, 34, 95
5, 57600, Note_on_c, 4, 33, 95
5, 58560, Note_off_c, 4, 33, 95
5, 58560, Note_on_c, 4, 31, 95
5, 59520, Note_off_c, 4, 31, 95
5, 59520, Note_on_c, 4, 31, 95
5, 60480, Note_off_c, 4, 31, 95
5, 60480, Note_on_c, 4, 36, 95
5, 61440, Note_off_c, 4, 36, 95
5, 61440, Note_on_c, 4, 40, 95
5, 62400, Note_off_c, 4, 40, 95
5, 62400, Note_on_c, 4, 41, 95
5, 63360, Note_off_c, 4, 41, 95
5, 63360, Note_on_c, 4, 34, 95
5, 64320, Note_off_c, 4, 34, 95
5, 64320, Note_on_c, 4, 33, 95
5, 65280, Note_off_c, 4, 33, 95
5, 65280, Note_on_c, 4, 31, 95
5, 66240, Note_off_c, 4, 31, 95
5, 66240, Note_on_c, 4, 29, 95
5, 67200, Note_off_c, 4, 29, 95
5, 67200, Note_on_c, 4, 34, 95
5, 68160, Note_off_c, 4, 34, 95
5, 68160, Note_on_c, 4, 43, 95
5, 69120, Note_off_c, 4, 43, 95
5, 69120, Note_on_c, 4, 36, 95
5, 70080, Note_off_c, 4, 36, 95
5, 70080, Note_on_c, 4, 41, 95
5, 71040, Note_off_c, 4, 41, 95
5, 71040, Note_on_c, 4, 46, 95
5, 73920, Note_off_c, 4, 46, 95
5, 73920, Note_on_c, 4, 43, 95
5, 74880, Note_off_c, 4, 43, 95
5, 74880, Note_on_c, 4, 41, 95
5, 75840, Note_off_c, 4, 41, 95
5, 75840, Note_on_c, 4, 43, 95
5, 76800, Note_off_c, 4, 43, 95
5, 76800, Note_on_c, 4, 41, 95
5, 77760, Note_off_c, 4, 41, 95
5, 77760, Note_on_c, 4, 38, 95
5, 78720, Note_off_c, 4, 38, 95
5, 78720, Note_on_c, 4, 41, 95
5, 79680, Note_off_c, 4, 41, 95
5, 79680, Note_on_c, 4, 46, 95
5, 80640, Note_off_c, 4, 46, 95
5, 80640, Note_on_c, 4, 43, 95
5, 81600, Note_off_c, 4, 43, 95
5, 81600, Note_on_c, 4, 36, 95
5, 82560, Note_off_c, 4, 36, 95
5, 82560, Note_on_c, 4, 36, 95
5, 83520, Note_off_c, 4, 36, 95
5, 83520, Note_on_c, 4, 34, 95
5, 87360, Note_off_c, 4, 34, 95
5, 87360, Note_on_c, 4, 35, 127
5, 87840, Note_off_c, 4, 35, 127
5, 87840, Note_on_c, 4, 27, 127
5, 88320, Note_off_c, 4, 27, 127
5, 88320, Note_on_c, 4, 26, 127
5, 88800, Note_off_c, 4, 26, 127
5, 88800, Note_on_c, 4, 35, 127
5, 89280, Note_off_c, 4, 35, 127
5, 89280, Note_on_c, 4, 34, 127
5, 89760, Note_off_c, 4, 34, 127
5, 89760, Note_on_c, 4, 26, 127
5, 90240, Note_off_c, 4, 26, 127
5, 90240, Note_on_c, 4, 30, 127
5, 90720, Note_off_c, 4, 30, 127
5, 98880, Note_on_c, 4, 35, 127
5, 99360, Note_off_c, 4, 35, 127
5, 99360, Note_on_c, 4, 27, 127
5, 99840, Note_off_c, 4, 27, 127
5, 99840, Note_on_c, 4, 26, 127
5, 100320, Note_off_c, 4, 26, 127
5, 100320, Note_on_c, 4, 35, 127
5, 100800, Note_off_c, 4, 35, 127
5, 100800, Note_on_c, 4, 34, 127
5, 101280, Note_off_c, 4, 34, 127
5, 101280, Note_on_c, 4, 26, 127
5, 101760, Note_off_c, 4, 26, 127
5, 101760, Note_on_c, 4, 35, 127
5, 102240, Note_off_c, 4, 35, 127
5, 102240, Note_on_c, 4, 27, 127
5, 102720, Note_off_c, 4, 27, 127
5, 102720, Note_on_c, 4, 26, 127
5, 103200, Note_off_c, 4, 26, 127
5, 103200, Note_on_c, 4, 35, 127
5, 103680, Note_off_c, 4, 35, 127
5, 103680, Note_on_c, 4, 34, 127
5, 104160, Note_off_c, 4, 34, 127
5, 104160, Note_on_c, 4, 26, 127
5, 104640, Note_off_c, 4, 26, 127
5, 108480, Note_on_c, 4, 35, 127
5, 108960, Note_off_c, 4, 35, 127
5, 108960, Note_on_c, 4, 27, 127
5, 109440, Note_off_c, 4, 27, 127
5, 109440, Note_on_c, 4, 26, 127
5, 109920, Note_off_c, 4, 26, 127
5, 109920, Note_on_c, 4, 35, 127
5, 110400, Note_off_c, 4, 35, 127
5, 110400, Note_on_c, 4, 34, 127
5, 110880, Note_off_c, 4, 34, 127
5, 110880, Note_on_c, 4, 26, 127
5, 111360, Note_off_c, 4, 26, 127
5, 111360, Note_on_c, 4, 35, 127
5, 111840, Note_off_c, 4, 35, 127
5, 111840, Note_on_c, 4, 27, 127
5, 112320, Note_off_c, 4, 27, 127
5, 112320, Note_on_c, 4, 26, 127
5, 112800, Note_off_c, 4, 26, 127
5, 112800, Note_on_c, 4, 35, 127
5, 113280, Note_off_c, 4, 35, 127
5, 113280, Note_on_c, 4, 34, 127
5, 113760, Note_off_c, 4, 34, 127
5, 113760, Note_on_c, 4, 26, 127
5, 114240, Note_off_c, 4, 26, 127
5, 114240, Note_on_c, 4, 35, 127
5, 114720, Note_off_c, 4, 35, 127
5, 114720, Note_on_c, 4, 27, 127
5, 115200, Note_off_c, 4, 27, 127
5, 115200, Note_on_c, 4, 26, 127
5, 115680, Note_off_c, 4, 26, 127
5, 115680, Note_on_c, 4, 35, 127
5, 116160, Note_off_c, 4, 35, 127
5, 116160, Note_on_c, 4, 34, 127
5, 116640, Note_off_c, 4, 34, 127
5, 116640, Note_on_c, 4, 26, 127
5, 117120, Note_off_c, 4, 26, 127
5, 117120, Note_on_c, 4, 35, 127
5, 117600, Note_off_c, 4, 35, 127
5, 117600, Note_on_c, 4, 27, 127
5, 118080, Note_off_c, 4, 27, 127
5, 118080, Note_on_c, 4, 26, 127
5, 118560, Note_off_c, 4, 26, 127
5, 118560, Note_on_c, 4, 35, 127
5, 119040, Note_off_c, 4, 35, 127
5, 119040, Note_on_c, 4, 34, 127
5, 119520, Note_off_c, 4, 34, 127
5, 119520, Note_on_c, 4, 26, 127
5, 120000, Note_off_c, 4, 26, 127
5, 120000, Note_on_c, 4, 35, 127
5, 120480, Note_off_c, 4, 35, 127
5, 120480, Note_on_c, 4, 27, 127
5, 120960, Note_off_c, 4, 27, 127
5, 120960, Note_on_c, 4, 26, 127
5, 121440, Note_off_c, 4, 26, 127
5, 121440, Note_on_c, 4, 35, 127
5, 121920, Note_off_c, 4, 35, 127
5, 121920, Note_on_c, 4, 34, 127
5, 122400, Note_off_c, 4, 34, 127
5, 122400, Note_on_c, 4, 26, 127
5, 122880, Note_off_c, 4, 26, 127
5, 122880, Note_on_c, 4, 35, 127
5, 123360, Note_off_c, 4, 35, 127
5, 123360, Note_on_c, 4, 27, 127
5, 123840, Note_off_c, 4, 27, 127
5, 123840, Note_on_c, 4, 26, 127
5, 124320, Note_off_c, 4, 26, 127
5, 124320, Note_on_c, 4, 35, 127
5, 124800, Note_off_c, 4, 35, 127
5, 124800, Note_on_c, 4, 34, 127
5, 125280, Note_off_c, 4, 34, 127
5, 125280, Note_on_c, 4, 26, 127
5, 125760, Note_off_c, 4, 26, 127
5, 125760, Note_on_c, 4, 35, 127
5, 126240, Note_off_c, 4, 35, 127
5, 126240, Note_on_c, 4, 27, 127
5, 126720, Note_off_c, 4, 27, 127
5, 126720, Note_on_c, 4, 26, 127
5, 127200, Note_off_c, 4, 26, 127
5, 127200, Note_on_c, 4, 35, 127
5, 127680, Note_off_c, 4, 35, 127
5, 127680, Note_on_c, 4, 34, 127
5, 128160, Note_off_c, 4, 34, 127
5, 128160, Note_on_c, 4, 26, 127
5, 128640, Note_off_c, 4, 26, 127
5, 128640, Note_on_c, 4, 35, 127
5, 129120, Note_off_c, 4, 35, 127
5, 129120, Note_on_c, 4, 27, 127
5, 129600, Note_off_c, 4, 27, 127
5, 129600, Note_on_c, 4, 26, 127
5, 130080, Note_off_c, 4, 26, 127
5, 130080, Note_on_c, 4, 35, 127
5, 130560, Note_off_c, 4, 35, 127
5, 130560, Note_on_c, 4, 34, 127
5, 131040, Note_off_c, 4, 34, 127
5, 131040, Note_on_c, 4, 26, 127
5, 131520, Note_off_c, 4, 26, 127
5, 131520, Note_on_c, 4, 35, 127
5, 132000, Note_off_c, 4, 35, 127
5, 132000, Note_on_c, 4, 27, 127
5, 132480, Note_off_c, 4, 27, 127
5, 132480, Note_on_c, 4, 26, 127
5, 132960, Note_off_c, 4, 26, 127
5, 132960, Note_on_c, 4, 35, 127
5, 133440, Note_off_c, 4, 35, 127
5, 133440, Note_on_c, 4, 34, 127
5, 133920, Note_off_c, 4, 34, 127
5, 133920, Note_on_c, 4, 26, 127
5, 134400, Note_off_c, 4, 26, 127
5, 134400, Note_on_c, 4, 35, 127
5, 134880, Note_off_c, 4, 35, 127
5, 134880, Note_on_c, 4, 27, 127
5, 135360, Note_off_c, 4, 27, 127
5, 135360, Note_on_c, 4, 26, 127
5, 135840, Note_off_c, 4, 26, 127
5, 135840, Note_on_c, 4, 35, 127
5, 136320, Note_off_c, 4, 35, 127
5, 136320, Note_on_c, 4, 34, 127
5, 136800, Note_off_c, 4, 34, 127
5, 136800, Note_on_c, 4, 26, 127
5, 137280, Note_off_c, 4, 26, 127
5, 137280, Note_on_c, 4, 35, 127
5, 137760, Note_off_c, 4, 35, 127
5, 137760, Note_on_c, 4, 27, 127
5, 138240, Note_off_c, 4, 27, 127
5, 138240, Note_on_c, 4, 26, 127
5, 138720, Note_off_c, 4, 26, 127
5, 138720, Note_on_c, 4, 35, 127
5, 139200, Note_off_c, 4, 35, 127
5, 139200, Note_on_c, 4, 34, 127
5, 139680, Note_off_c, 4, 34, 127
5, 139680, Note_on_c, 4, 26, 127
5, 140160, Note_off_c, 4, 26, 127
5, 140160, Note_on_c, 4, 35, 127
5, 140640, Note_off_c, 4, 35, 127
5, 140640, Note_on_c, 4, 27, 127
5, 141120, Note_off_c, 4, 27, 127
5, 141120, Note_on_c, 4, 26, 127
5, 141600, Note_off_c, 4, 26, 127
5, 141600, Note_on_c, 4, 35, 127
5, 142080, Note_off_c, 4, 35, 127
5, 142080, Note_on_c, 4, 34, 127
5, 142560, Note_off_c, 4, 34, 127
5, 142560, Note_on_c, 4, 26, 127
5, 143040, Note_off_c, 4, 26, 127
5, 143040, Note_on_c, 4, 35, 127
5, 143520, Note_off_c, 4, 35, 127
5, 143520, Note_on_c, 4, 27, 127
5, 144000, Note_off_c, 4, 27, 127
5, 144000, Note_on_c, 4, 26, 127
5, 144480, Note_off_c, 4, 26, 127
5, 144480, Note_on_c, 4, 35, 127
5, 144960, Note_off_c, 4, 35, 127
5, 144960, Note_on_c, 4, 34, 127
5, 145440, Note_off_c, 4, 34, 127
5, 145440, Note_on_c, 4, 26, 127
5, 145920, Note_off_c, 4, 26, 127
5, 145920, Note_on_c, 4, 35, 127
5, 146400, Note_off_c, 4, 35, 127
5, 146400, Note_on_c, 4, 27, 127
5, 146880, Note_off_c, 4, 27, 127
5, 146880, Note_on_c, 4, 26, 127
5, 147360, Note_off_c, 4, 26, 127
5, 147360, Note_on_c, 4, 35, 127
5, 147840, Note_off_c, 4, 35, 127
5, 147840, Note_on_c, 4, 34, 127
5, 148320, Note_off_c, 4, 34, 127
5, 148320, Note_on_c, 4, 26, 127
5, 148800, Note_off_c, 4, 26, 127
5, 148800, Note_on_c, 4, 35, 127
5, 149280, Note_off_c, 4, 35, 127
5, 149280, Note_on_c, 4, 27, 127
5, 149760, Note_off_c, 4, 27, 127
5, 149760, Note_on_c, 4, 26, 127
5, 150240, Note_off_c, 4, 26, 127
5, 150240, Note_on_c, 4, 35, 127
5, 150720, Note_off_c, 4, 35, 127
5, 150720, Note_on_c, 4, 34, 127
5, 151200, Note_off_c, 4, 34, 127
5, 151200, Note_on_c, 4, 26, 127
5, 151680, Note_off_c, 4, 26, 127
5, 151680, Note_on_c, 4, 35, 127
5, 152160, Note_off_c, 4, 35, 127
5, 152160, Note_on_c, 4, 27, 127
5, 152640, Note_off_c, 4, 27, 127
5, 152640, Note_on_c, 4, 26, 127
5, 153120, Note_off_c, 4, 26, 127
5, 153120, Note_on_c, 4, 35, 127
5, 153600, Note_off_c, 4, 35, 127
5, 153600, Note_on_c, 4, 34, 127
5, 154080, Note_off_c, 4, 34, 127
5, 154080, Note_on_c, 4, 26, 127
5, 154560, Note_off_c, 4, 26, 127
5, 154560, Note_on_c, 4, 35, 127
5, 155040, Note_off_c, 4, 35, 127
5, 155040, Note_on_c, 4, 27, 127
5, 155520, Note_off_c, 4, 27, 127
5, 155520, Note_on_c, 4, 26, 127
5, 156000, Note_off_c, 4, 26, 127
5, 156000, Note_on_c, 4, 35, 127
5, 156480, Note_off_c, 4, 35, 127
5, 156480, Note_on_c, 4, 34, 127
5, 156960, Note_off_c, 4, 34, 127
5, 156960, Note_on_c, 4, 26, 127
5, 157440, Note_off_c, 4, 26, 127
5, 157440, Note_on_c, 4, 35, 127
5, 157920, Note_off_c, 4, 35, 127
5, 157920, Note_on_c, 4, 27, 127
5, 158400, Note_off_c, 4, 27, 127
5, 158400, Note_on_c, 4, 26, 127
5, 158880, Note_off_c, 4, 26, 127
5, 158880, Note_on_c, 4, 35, 127
5, 159360, Note_off_c, 4, 35, 127
5, 159360, Note_on_c, 4, 34, 127
5, 159840, Note_off_c, 4, 34, 127
5, 159840, Note_on_c, 4, 26, 127
5, 160320, Note_off_c, 4, 26, 127
5, 160320, Note_on_c, 4, 35, 127
5, 160800, Note_off_c, 4, 35, 127
5, 160800, Note_on_c, 4, 27, 127
5, 161280, Note_off_c, 4, 27, 127
5, 161280, Note_on_c, 4, 26, 127
5, 161760, Note_off_c, 4, 26, 127
5, 161760, Note_on_c, 4, 35, 127
5, 162240, Note_off_c, 4, 35, 127
5, 162240, Note_on_c, 4, 34, 127
5, 162720, Note_off_c, 4, 34, 127
5, 162720, Note_on_c, 4, 26, 127
5, 163200, Note_off_c, 4, 26, 127
5, 163200, Note_on_c, 4, 27, 127
5, 163680, Note_off_c, 4, 27, 127
5, 163680, Note_on_c, 4, 26, 127
5, 164160, Note_off_c, 4, 26, 127
5, 164160, Note_on_c, 4, 34, 127
5, 164640, Note_off_c, 4, 34, 127
5, 164640, Note_on_c, 4, 35, 127
5, 165120, Note_off_c, 4, 35, 127
5, 165120, Note_on_c, 4, 36, 127
5, 165600, Note_off_c, 4, 36, 127
5, 165600, Note_on_c, 4, 37, 127
5, 166080, Note_off_c, 4, 37, 127
5, 166080, Note_on_c, 4, 27, 95
5, 167040, Note_off_c, 4, 27, 95
5, 167040, Note_on_c, 4, 27, 95
5, 171840, Note_off_c, 4, 27, 95
5, 171840, Note_on_c, 4, 33, 95
5, 175680, Note_off_c, 4, 33, 95
5, 175680, Note_on_c, 4, 30, 95
5, 179520, Note_off_c, 4, 30, 95
5, 179520, Note_on_c, 4, 27, 95
5, 180480, Note_off_c, 4, 27, 95
5, 180480, Note_on_c, 4, 27, 95
5, 189120, Note_off_c, 4, 27, 95
5, 189120, Note_on_c, 4, 27, 95
5, 190080, Note_off_c, 4, 27, 95
5, 190080, Note_on_c, 4, 27, 95
5, 194880, Note_off_c, 4, 27, 95
5, 194880, Note_on_c, 4, 33, 95
5, 198720, Note_off_c, 4, 33, 95
5, 198720, Note_on_c, 4, 30, 95
5, 202560, Note_off_c, 4, 30, 95
5, 202560, Note_on_c, 4, 27, 95
5, 203520, Note_off_c, 4, 27, 95
5, 203520, Note_on_c, 4, 27, 95
5, 212160, Note_off_c, 4, 27, 95
5, 212160, Note_on_c, 4, 35, 127
5, 212640, Note_off_c, 4, 35, 127
5, 212640, Note_on_c, 4, 27, 127
5, 213120, Note_off_c, 4, 27, 127
5, 213120, Note_on_c, 4, 26, 127
5, 213600, Note_off_c, 4, 26, 127
5, 213600, Note_on_c, 4, 35, 127
5, 214080, Note_off_c, 4, 35, 127
5, 214080, Note_on_c, 4, 34, 127
5, 214560, Note_off_c, 4, 34, 127
5, 214560, Note_on_c, 4, 26, 127
5, 215040, Note_off_c, 4, 26, 127
5, 215040, Note_on_c, 4, 35, 127
5, 215520, Note_off_c, 4, 35, 127
5, 215520, Note_on_c, 4, 27, 127
5, 216000, Note_off_c, 4, 27, 127
5, 216000, Note_on_c, 4, 26, 127
5, 216480, Note_off_c, 4, 26, 127
5, 216480, Note_on_c, 4, 35, 127
5, 216960, Note_off_c, 4, 35, 127
5, 216960, Note_on_c, 4, 34, 127
5, 217440, Note_off_c, 4, 34, 127
5, 217440, Note_on_c, 4, 26, 127
5, 217920, Note_off_c, 4, 26, 127
5, 217920, Note_on_c, 4, 35, 127
5, 218400, Note_off_c, 4, 35, 127
5, 218400, Note_on_c, 4, 27, 127
5, 218880, Note_off_c, 4, 27, 127
5, 218880, Note_on_c, 4, 26, 127
5, 219360, Note_off_c, 4, 26, 127
5, 219360, Note_on_c, 4, 35, 127
5, 219840, Note_off_c, 4, 35, 127
5, 219840, Note_on_c, 4, 34, 127
5, 220320, Note_off_c, 4, 34, 127
5, 220320, Note_on_c, 4, 26, 127
5, 220800, Note_off_c, 4, 26, 127
5, 220800, Note_on_c, 4, 35, 127
5, 221280, Note_off_c, 4, 35, 127
5, 221280, Note_on_c, 4, 27, 127
5, 221760, Note_off_c, 4, 27, 127
5, 221760, Note_on_c, 4, 26, 127
5, 222240, Note_off_c, 4, 26, 127
5, 222240, Note_on_c, 4, 35, 127
5, 222720, Note_off_c, 4, 35, 127
5, 222720, Note_on_c, 4, 34, 127
5, 223200, Note_off_c, 4, 34, 127
5, 223200, Note_on_c, 4, 26, 127
5, 223680, Note_off_c, 4, 26, 127
5, 223680, Note_on_c, 4, 35, 127
5, 224160, Note_off_c, 4, 35, 127
5, 224160, Note_on_c, 4, 27, 127
5, 224640, Note_off_c, 4, 27, 127
5, 224640, Note_on_c, 4, 26, 127
5, 225120, Note_off_c, 4, 26, 127
5, 225120, Note_on_c, 4, 35, 127
5, 225600, Note_off_c, 4, 35, 127
5, 225600, Note_on_c, 4, 34, 127
5, 226080, Note_off_c, 4, 34, 127
5, 226080, Note_on_c, 4, 26, 127
5, 226560, Note_off_c, 4, 26, 127
5, 226560, Note_on_c, 4, 35, 127
5, 227040, Note_off_c, 4, 35, 127
5, 227040, Note_on_c, 4, 27, 127
5, 227520, Note_off_c, 4, 27, 127
5, 227520, Note_on_c, 4, 26, 127
5, 228000, Note_off_c, 4, 26, 127
5, 228000, Note_on_c, 4, 35, 127
5, 228480, Note_off_c, 4, 35, 127
5, 228480, Note_on_c, 4, 34, 127
5, 228960, Note_off_c, 4, 34, 127
5, 228960, Note_on_c, 4, 26, 127
5, 229440, Note_off_c, 4, 26, 127
5, 229440, Note_on_c, 4, 35, 127
5, 229920, Note_off_c, 4, 35, 127
5, 229920, Note_on_c, 4, 27, 127
5, 230400, Note_off_c, 4, 27, 127
5, 230400, Note_on_c, 4, 26, 127
5, 230880, Note_off_c, 4, 26, 127
5, 230880, Note_on_c, 4, 35, 127
5, 231360, Note_off_c, 4, 35, 127
5, 231360, Note_on_c, 4, 34, 127
5, 231840, Note_off_c, 4, 34, 127
5, 231840, Note_on_c, 4, 26, 127
5, 232320, Note_off_c, 4, 26, 127
5, 232320, Note_on_c, 4, 27, 127
5, 232800, Note_off_c, 4, 27, 127
5, 232800, Note_on_c, 4, 26, 127
5, 233280, Note_off_c, 4, 26, 127
5, 233280, Note_on_c, 4, 34, 127
5, 233760, Note_off_c, 4, 34, 127
5, 233760, Note_on_c, 4, 31, 95
5, 234240, Note_off_c, 4, 31, 95
5, 234240, Note_on_c, 4, 29, 95
5, 234720, Note_off_c, 4, 29, 95
5, 234720, Note_on_c, 4, 28, 95
5, 235200, Note_off_c, 4, 28, 95
5, 235200, Note_on_c, 4, 30, 95
5, 235680, Note_off_c, 4, 30, 95
5, 235680, Note_on_c, 4, 27, 95
5, 236160, Note_off_c, 4, 27, 95
5, 236160, Note_on_c, 4, 27, 95
5, 236640, Note_off_c, 4, 27, 95
5, 236640, Note_on_c, 4, 30, 95
5, 237120, Note_off_c, 4, 30, 95
5, 237120, Note_on_c, 4, 27, 95
5, 237600, Note_off_c, 4, 27, 95
5, 237600, Note_on_c, 4, 27, 95
5, 238080, Note_off_c, 4, 27, 95
5, 238080, Note_on_c, 4, 27, 95
5, 238560, Note_off_c, 4, 27, 95
5, 238560, Note_on_c, 4, 27, 95
5, 239040, Note_off_c, 4, 27, 95
5, 239040, Note_on_c, 4, 36, 95
5, 239520, Note_off_c, 4, 36, 95
5, 239520, Note_on_c, 4, 33, 95
5, 240000, Note_off_c, 4, 33, 95
5, 240000, Note_on_c, 4, 36, 95
5, 240480, Note_off_c, 4, 36, 95
5, 240480, Note_on_c, 4, 33, 95
5, 240960, Note_off_c, 4, 33, 95
5, 240960, Note_on_c, 4, 36, 95
5, 241440, Note_off_c, 4, 36, 95
5, 241440, Note_on_c, 4, 33, 95
5, 241920, Note_off_c, 4, 33, 95
5, 241920, Note_on_c, 4, 33, 95
5, 242400, Note_off_c, 4, 33, 95
5, 242400, Note_on_c, 4, 33, 95
5, 242880, Note_off_c, 4, 33, 95
5, 242880, Note_on_c, 4, 30, 95
5, 243360, Note_off_c, 4, 30, 95
5, 243360, Note_on_c, 4, 27, 95
5, 243840, Note_off_c, 4, 27, 95
5, 243840, Note_on_c, 4, 27, 95
5, 244320, Note_off_c, 4, 27, 95
5, 244320, Note_on_c, 4, 30, 95
5, 244800, Note_off_c, 4, 30, 95
5, 244800, Note_on_c, 4, 27, 95
5, 245280, Note_off_c, 4, 27, 95
5, 245280, Note_on_c, 4, 27, 95
5, 245760, Note_off_c, 4, 27, 95
5, 245760, Note_on_c, 4, 27, 95
5, 246240, Note_off_c, 4, 27, 95
5, 246240, Note_on_c, 4, 27, 95
5, 246720, Note_off_c, 4, 27, 95
5, 246720, Note_on_c, 4, 37, 95
5, 247200, Note_off_c, 4, 37, 95
5, 247200, Note_on_c, 4, 34, 95
5, 247680, Note_off_c, 4, 34, 95
5, 247680, Note_on_c, 4, 37, 95
5, 248160, Note_off_c, 4, 37, 95
5, 248160, Note_on_c, 4, 34, 95
5, 248640, Note_off_c, 4, 34, 95
5, 248640, Note_on_c, 4, 37, 95
5, 249120, Note_off_c, 4, 37, 95
5, 249120, Note_on_c, 4, 34, 95
5, 249600, Note_off_c, 4, 34, 95
5, 249600, Note_on_c, 4, 36, 95
5, 250080, Note_off_c, 4, 36, 95
5, 250080, Note_on_c, 4, 37, 95
5, 250560, Note_off_c, 4, 37, 95
5, 250560, Note_on_c, 4, 30, 95
5, 251040, Note_off_c, 4, 30, 95
5, 251040, Note_on_c, 4, 27, 95
5, 251520, Note_off_c, 4, 27, 95
5, 251520, Note_on_c, 4, 27, 95
5, 252000, Note_off_c, 4, 27, 95
5, 252000, Note_on_c, 4, 30, 95
5, 252480, Note_off_c, 4, 30, 95
5, 252480, Note_on_c, 4, 27, 95
5, 252960, Note_off_c, 4, 27, 95
5, 252960, Note_on_c, 4, 27, 95
5, 253440, Note_off_c, 4, 27, 95
5, 253440, Note_on_c, 4, 27, 95
5, 253920, Note_off_c, 4, 27, 95
5, 253920, Note_on_c, 4, 27, 95
5, 254400, Note_off_c, 4, 27, 95
5, 254400, Note_on_c, 4, 36, 95
5, 254880, Note_off_c, 4, 36, 95
5, 254880, Note_on_c, 4, 33, 95
5, 255360, Note_off_c, 4, 33, 95
5, 255360, Note_on_c, 4, 36, 95
5, 255840, Note_off_c, 4, 36, 95
5, 255840, Note_on_c, 4, 33, 95
5, 256320, Note_off_c, 4, 33, 95
5, 256320, Note_on_c, 4, 36, 95
5, 256800, Note_off_c, 4, 36, 95
5, 256800, Note_on_c, 4, 33, 95
5, 257280, Note_off_c, 4, 33, 95
5, 257280, Note_on_c, 4, 33, 95
5, 257760, Note_off_c, 4, 33, 95
5, 257760, Note_on_c, 4, 33, 95
5, 258240, Note_off_c, 4, 33, 95
5, 258240, Note_on_c, 4, 30, 95
5, 258720, Note_off_c, 4, 30, 95
5, 258720, Note_on_c, 4, 27, 95
5, 259200, Note_off_c, 4, 27, 95
5, 259200, Note_on_c, 4, 27, 95
5, 259680, Note_off_c, 4, 27, 95
5, 259680, Note_on_c, 4, 30, 95
5, 260160, Note_off_c, 4, 30, 95
5, 260160, Note_on_c, 4, 27, 95
5, 260640, Note_off_c, 4, 27, 95
5, 260640, Note_on_c, 4, 27, 95
5, 261120, Note_off_c, 4, 27, 95
5, 261120, Note_on_c, 4, 27, 95
5, 261600, Note_off_c, 4, 27, 95
5, 261600, Note_on_c, 4, 27, 95
5, 262080, Note_off_c, 4, 27, 95
5, 262080, Note_on_c, 4, 37, 95
5, 262560, Note_off_c, 4, 37, 95
5, 262560, Note_on_c, 4, 34, 95
5, 263040, Note_off_c, 4, 34, 95
5, 263040, Note_on_c, 4, 37, 95
5, 263520, Note_off_c, 4, 37, 95
5, 263520, Note_on_c, 4, 34, 95
5, 264000, Note_off_c, 4, 34, 95
5, 264000, Note_on_c, 4, 37, 95
5, 264480, Note_off_c, 4, 37, 95
5, 264480, Note_on_c, 4, 34, 95
5, 264960, Note_off_c, 4, 34, 95
5, 264960, Note_on_c, 4, 36, 95
5, 265440, Note_off_c, 4, 36, 95
5, 265440, Note_on_c, 4, 37, 95
5, 265920, Note_off_c, 4, 37, 95
5, 265920, Note_on_c, 4, 27, 95
5, 266880, Note_off_c, 4, 27, 95
5, 266880, Note_on_c, 4, 27, 95
5, 267840, Note_off_c, 4, 27, 95
5, 267840, Note_on_c, 4, 27, 95
5, 268800, Note_off_c, 4, 27, 95
5, 268800, Note_on_c, 4, 27, 95
5, 269760, Note_off_c, 4, 27, 95
5, 269760, Note_on_c, 4, 39, 95
5, 270720, Note_off_c, 4, 39, 95
5, 270720, Note_on_c, 4, 39, 95
5, 271680, Note_off_c, 4, 39, 95
5, 271680, Note_on_c, 4, 37, 95
5, 272640, Note_off_c, 4, 37, 95
5, 272640, Note_on_c, 4, 37, 95
5, 273600, Note_off_c, 4, 37, 95
5, 273600, Note_on_c, 4, 40, 95
5, 274560, Note_off_c, 4, 40, 95
5, 274560, Note_on_c, 4, 40, 95
5, 275520, Note_off_c, 4, 40, 95
5, 275520, Note_on_c, 4, 40, 95
5, 276480, Note_off_c, 4, 40, 95
5, 276480, Note_on_c, 4, 40, 95
5, 277440, Note_off_c, 4, 40, 95
5, 277440, Note_on_c, 4, 39, 95
5, 278400, Note_off_c, 4, 39, 95
5, 278400, Note_on_c, 4, 39, 95
5, 279360, Note_off_c, 4, 39, 95
5, 279360, Note_on_c, 4, 39, 95
5, 280320, Note_off_c, 4, 39, 95
5, 280320, Note_on_c, 4, 39, 95
5, 281280, Note_off_c, 4, 39, 95
5, 281280, Note_on_c, 4, 27, 95
5, 282240, Note_off_c, 4, 27, 95
5, 282240, Note_on_c, 4, 27, 95
5, 283200, Note_off_c, 4, 27, 95
5, 283200, Note_on_c, 4, 39, 95
5, 284160, Note_off_c, 4, 39, 95
5, 284160, Note_on_c, 4, 39, 95
5, 285120, Note_off_c, 4, 39, 95
5, 285120, Note_on_c, 4, 37, 95
5, 286080, Note_off_c, 4, 37, 95
5, 286080, Note_on_c, 4, 37, 95
5, 287040, Note_off_c, 4, 37, 95
5, 287040, Note_on_c, 4, 42, 95
5, 288000, Note_off_c, 4, 42, 95
5, 288000, Note_on_c, 4, 42, 95
5, 288960, Note_off_c, 4, 42, 95
5, 288960, Note_on_c, 4, 41, 95
5, 289920, Note_off_c, 4, 41, 95
5, 289920, Note_on_c, 4, 41, 95
5, 290880, Note_off_c, 4, 41, 95
5, 290880, Note_on_c, 4, 34, 95
5, 291840, Note_off_c, 4, 34, 95
5, 291840, Note_on_c, 4, 34, 95
5, 292800, Note_off_c, 4, 34, 95
5, 292800, Note_on_c, 4, 41, 95
5, 293760, Note_off_c, 4, 41, 95
5, 293760, Note_on_c, 4, 41, 95
5, 294720, Note_off_c, 4, 41, 95
5, 294720, Note_on_c, 4, 41, 95
5, 295680, Note_off_c, 4, 41, 95
5, 295680, Note_on_c, 4, 41, 95
5, 296640, Note_off_c, 4, 41, 95
5, 296640, Note_on_c, 4, 42, 95
5, 297600, Note_off_c, 4, 42, 95
5, 297600, Note_on_c, 4, 42, 95
5, 298560, Note_off_c, 4, 42, 95
5, 298560, Note_on_c, 4, 41, 95
5, 299520, Note_off_c, 4, 41, 95
5, 299520, Note_on_c, 4, 41, 95
5, 300480, Note_off_c, 4, 41, 95
5, 300480, Note_on_c, 4, 34, 95
5, 301440, Note_off_c, 4, 34, 95
5, 301440, Note_on_c, 4, 34, 95
5, 302400, Note_off_c, 4, 34, 95
5, 302400, Note_on_c, 4, 41, 95
5, 303360, Note_off_c, 4, 41, 95
5, 303360, Note_on_c, 4, 41, 95
5, 304320, Note_off_c, 4, 41, 95
5, 304320, Note_on_c, 4, 35, 127
5, 304800, Note_off_c, 4, 35, 127
5, 304800, Note_on_c, 4, 27, 127
5, 305280, Note_off_c, 4, 27, 127
5, 305280, Note_on_c, 4, 26, 127
5, 305760, Note_off_c, 4, 26, 127
5, 305760, Note_on_c, 4, 35, 127
5, 306240, Note_off_c, 4, 35, 127
5, 306240, Note_on_c, 4, 34, 127
5, 306720, Note_off_c, 4, 34, 127
5, 306720, Note_on_c, 4, 26, 127
5, 307200, Note_off_c, 4, 26, 127
5, 307200, Note_on_c, 4, 35, 127
5, 307680, Note_off_c, 4, 35, 127
5, 307680, Note_on_c, 4, 27, 127
5, 308160, Note_off_c, 4, 27, 127
5, 308160, Note_on_c, 4, 26, 127
5, 308640, Note_off_c, 4, 26, 127
5, 308640, Note_on_c, 4, 35, 127
5, 309120, Note_off_c, 4, 35, 127
5, 309120, Note_on_c, 4, 34, 127
5, 309600, Note_off_c, 4, 34, 127
5, 309600, Note_on_c, 4, 26, 127
5, 310080, Note_off_c, 4, 26, 127
5, 310080, Note_on_c, 4, 30, 95
5, 310560, Note_off_c, 4, 30, 95
5, 310560, Note_on_c, 4, 27, 95
5, 311040, Note_off_c, 4, 27, 95
5, 311040, Note_on_c, 4, 27, 95
5, 311520, Note_off_c, 4, 27, 95
5, 311520, Note_on_c, 4, 30, 95
5, 312000, Note_off_c, 4, 30, 95
5, 312000, Note_on_c, 4, 27, 95
5, 312480, Note_off_c, 4, 27, 95
5, 312480, Note_on_c, 4, 27, 95
5, 312960, Note_off_c, 4, 27, 95
5, 312960, Note_on_c, 4, 27, 95
5, 313440, Note_off_c, 4, 27, 95
5, 313440, Note_on_c, 4, 27, 95
5, 313920, Note_off_c, 4, 27, 95
5, 313920, Note_on_c, 4, 36, 95
5, 314400, Note_off_c, 4, 36, 95
5, 314400, Note_on_c, 4, 33, 95
5, 314880, Note_off_c, 4, 33, 95
5, 314880, Note_on_c, 4, 36, 95
5, 315360, Note_off_c, 4, 36, 95
5, 315360, Note_on_c, 4, 33, 95
5, 315840, Note_off_c, 4, 33, 95
5, 315840, Note_on_c, 4, 36, 95
5, 316320, Note_off_c, 4, 36, 95
5, 316320, Note_on_c, 4, 33, 95
5, 316800, Note_off_c, 4, 33, 95
5, 316800, Note_on_c, 4, 33, 95
5, 317280, Note_off_c, 4, 33, 95
5, 317280, Note_on_c, 4, 33, 95
5, 317760, Note_off_c, 4, 33, 95
5, 317760, Note_on_c, 4, 30, 95
5, 318240, Note_off_c, 4, 30, 95
5, 318240, Note_on_c, 4, 27, 95
5, 318720, Note_off_c, 4, 27, 95
5, 318720, Note_on_c, 4, 27, 95
5, 319200, Note_off_c, 4, 27, 95
5, 319200, Note_on_c, 4, 30, 95
5, 319680, Note_off_c, 4, 30, 95
5, 319680, Note_on_c, 4, 27, 95
5, 320160, Note_off_c, 4, 27, 95
5, 320160, Note_on_c, 4, 27, 95
5, 320640, Note_off_c, 4, 27, 95
5, 320640, Note_on_c, 4, 27, 95
5, 321120, Note_off_c, 4, 27, 95
5, 321120, Note_on_c, 4, 27, 95
5, 321600, Note_off_c, 4, 27, 95
5, 321600, Note_on_c, 4, 37, 95
5, 322080, Note_off_c, 4, 37, 95
5, 322080, Note_on_c, 4, 34, 95
5, 322560, Note_off_c, 4, 34, 95
5, 322560, Note_on_c, 4, 37, 95
5, 323040, Note_off_c, 4, 37, 95
5, 323040, Note_on_c, 4, 34, 95
5, 323520, Note_off_c, 4, 34, 95
5, 323520, Note_on_c, 4, 37, 95
5, 324000, Note_off_c, 4, 37, 95
5, 324000, Note_on_c, 4, 34, 95
5, 324480, Note_off_c, 4, 34, 95
5, 324480, Note_on_c, 4, 36, 95
5, 324960, Note_off_c, 4, 36, 95
5, 324960, Note_on_c, 4, 37, 95
5, 325440, Note_off_c, 4, 37, 95
5, 325440, Note_on_c, 4, 30, 95
5, 325920, Note_off_c, 4, 30, 95
5, 325920, Note_on_c, 4, 27, 95
5, 326400, Note_off_c, 4, 27, 95
5, 326400, Note_on_c, 4, 27, 95
5, 326880, Note_off_c, 4, 27, 95
5, 326880, Note_on_c, 4, 30, 95
5, 327360, Note_off_c, 4, 30, 95
5, 327360, Note_on_c, 4, 27, 95
5, 327840, Note_off_c, 4, 27, 95
5, 327840, Note_on_c, 4, 27, 95
5, 328320, Note_off_c, 4, 27, 95
5, 328320, Note_on_c, 4, 27, 95
5, 328800, Note_off_c, 4, 27, 95
5, 328800, Note_on_c, 4, 27, 95
5, 329280, Note_off_c, 4, 27, 95
5, 329280, Note_on_c, 4, 36, 95
5, 329760, Note_off_c, 4, 36, 95
5, 329760, Note_on_c, 4, 33, 95
5, 330240, Note_off_c, 4, 33, 95
5, 330240, Note_on_c, 4, 36, 95
5, 330720, Note_off_c, 4, 36, 95
5, 330720, Note_on_c, 4, 33, 95
5, 331200, Note_off_c, 4, 33, 95
5, 331200, Note_on_c, 4, 36, 95
5, 331680, Note_off_c, 4, 36, 95
5, 331680, Note_on_c, 4, 33, 95
5, 332160, Note_off_c, 4, 33, 95
5, 332160, Note_on_c, 4, 33, 95
5, 332640, Note_off_c, 4, 33, 95
5, 332640, Note_on_c, 4, 33, 95
5, 333120, Note_off_c, 4, 33, 95
5, 333120, Note_on_c, 4, 30, 95
5, 333600, Note_off_c, 4, 30, 95
5, 333600, Note_on_c, 4, 27, 95
5, 334080, Note_off_c, 4, 27, 95
5, 334080, Note_on_c, 4, 27, 95
5, 334560, Note_off_c, 4, 27, 95
5, 334560, Note_on_c, 4, 30, 95
5, 335040, Note_off_c, 4, 30, 95
5, 335040, Note_on_c, 4, 27, 95
5, 335520, Note_off_c, 4, 27, 95
5, 335520, Note_on_c, 4, 27, 95
5, 336000, Note_off_c, 4, 27, 95
5, 336000, Note_on_c, 4, 27, 95
5, 336480, Note_off_c, 4, 27, 95
5, 336480, Note_on_c, 4, 27, 95
5, 336960, Note_off_c, 4, 27, 95
5, 336960, Note_on_c, 4, 37, 95
5, 337440, Note_off_c, 4, 37, 95
5, 337440, Note_on_c, 4, 34, 95
5, 337920, Note_off_c, 4, 34, 95
5, 337920, Note_on_c, 4, 37, 95
5, 338400, Note_off_c, 4, 37, 95
5, 338400, Note_on_c, 4, 34, 95
5, 338880, Note_off_c, 4, 34, 95
5, 338880, Note_on_c, 4, 37, 95
5, 339360, Note_off_c, 4, 37, 95
5, 339360, Note_on_c, 4, 34, 95
5, 339840, Note_off_c, 4, 34, 95
5, 339840, Note_on_c, 4, 36, 95
5, 340320, Note_off_c, 4, 36, 95
5, 340320, Note_on_c, 4, 37, 95
5, 340800, Note_off_c, 4, 37, 95
5, 340800, Note_on_c, 4, 54, 95
5, 341280, Note_off_c, 4, 54, 95
5, 341280, Note_on_c, 4, 50, 95
5, 341760, Note_off_c, 4, 50, 95
5, 341760, Note_on_c, 4, 51, 95
5, 342240, Note_off_c, 4, 51, 95
5, 342240, Note_on_c, 4, 47, 95
5, 342720, Note_off_c, 4, 47, 95
5, 342720, Note_on_c, 4, 46, 95
5, 343200, Note_off_c, 4, 46, 95
5, 343200, Note_on_c, 4, 50, 95
5, 343680, Note_off_c, 4, 50, 95
5, 343680, Note_on_c, 4, 51, 95
5, 344160, Note_off_c, 4, 51, 95
5, 344160, Note_on_c, 4, 50, 95
5, 344640, Note_off_c, 4, 50, 95
5, 344640, Note_on_c, 4, 47, 95
5, 345120, Note_off_c, 4, 47, 95
5, 345120, Note_on_c, 4, 46, 95
5, 345600, Note_off_c, 4, 46, 95
5, 345600, Note_on_c, 4, 45, 95
5, 346080, Note_off_c, 4, 45, 95
5, 346080, Note_on_c, 4, 46, 95
5, 346560, Note_off_c, 4, 46, 95
5, 346560, Note_on_c, 4, 45, 95
5, 347040, Note_off_c, 4, 45, 95
5, 347040, Note_on_c, 4, 41, 95
5, 347520, Note_off_c, 4, 41, 95
5, 347520, Note_on_c, 4, 42, 95
5, 348000, Note_off_c, 4, 42, 95
5, 348000, Note_on_c, 4, 38, 95
5, 348480, Note_off_c, 4, 38, 95
5, 348480, Note_on_c, 4, 39, 95
5, 348960, Note_off_c, 4, 39, 95
5, 348960, Note_on_c, 4, 35, 95
5, 349440, Note_off_c, 4, 35, 95
5, 349440, Note_on_c, 4, 34, 95
5, 349920, Note_off_c, 4, 34, 95
5, 349920, Note_on_c, 4, 33, 95
5, 350400, Note_off_c, 4, 33, 95
5, 350400, Note_on_c, 4, 35, 95
5, 350880, Note_off_c, 4, 35, 95
5, 350880, Note_on_c, 4, 35, 95
5, 351360, Note_off_c, 4, 35, 95
5, 351360, Note_on_c, 4, 29, 95
5, 351840, Note_off_c, 4, 29, 95
5, 351840, Note_on_c, 4, 30, 95
5, 352320, Note_off_c, 4, 30, 95
5, 352320, Note_on_c, 4, 27, 95
5, 353280, Note_off_c, 4, 27, 95
5, 356160, Note_on_c, 4, 43, 95
5, 357120, Note_off_c, 4, 43, 95
5, 357120, Note_on_c, 4, 41, 95
5, 358080, Note_off_c, 4, 41, 95
5, 358080, Note_on_c, 4, 43, 95
5, 359040, Note_off_c, 4, 43, 95
5, 359040, Note_on_c, 4, 41, 95
5, 360000, Note_off_c, 4, 41, 95
5, 360000, Note_on_c, 4, 38, 95
5, 360960, Note_off_c, 4, 38, 95
5, 360960, Note_on_c, 4, 41, 95
5, 361920, Note_off_c, 4, 41, 95
5, 361920, Note_on_c, 4, 46, 95
5, 362880, Note_off_c, 4, 46, 95
5, 362880, Note_on_c, 4, 43, 95
5, 363840, Note_off_c, 4, 43, 95
5, 363840, Note_on_c, 4, 36, 95
5, 364800, Note_off_c, 4, 36, 95
5, 364800, Note_on_c, 4, 40, 95
5, 365760, Note_off_c, 4, 40, 95
5, 365760, Note_on_c, 4, 41, 95
5, 366720, Note_off_c, 4, 41, 95
5, 366720, Note_on_c, 4, 31, 95
5, 367680, Note_off_c, 4, 31, 95
5, 367680, Note_on_c, 4, 29, 95
5, 368640, Note_off_c, 4, 29, 95
5, 368640, Note_on_c, 4, 31, 95
5, 369600, Note_off_c, 4, 31, 95
5, 369600, Note_on_c, 4, 29, 95
5, 370560, Note_off_c, 4, 29, 95
5, 370560, Note_on_c, 4, 39, 95
5, 371520, Note_off_c, 4, 39, 95
5, 371520, Note_on_c, 4, 29, 95
5, 372480, Note_off_c, 4, 29, 95
5, 372480, Note_on_c, 4, 31, 95
5, 373440, Note_off_c, 4, 31, 95
5, 373440, Note_on_c, 4, 29, 95
5, 374400, Note_off_c, 4, 29, 95
5, 374400, Note_on_c, 4, 38, 95
5, 375360, Note_off_c, 4, 38, 95
5, 375360, Note_on_c, 4, 36, 95
5, 376320, Note_off_c, 4, 36, 95
5, 376320, Note_on_c, 4, 34, 95
5, 377280, Note_off_c, 4, 34, 95
5, 377280, Note_on_c, 4, 33, 95
5, 378240, Note_off_c, 4, 33, 95
5, 378240, Note_on_c, 4, 31, 95
5, 379200, Note_off_c, 4, 31, 95
5, 379200, Note_on_c, 4, 31, 95
5, 380160, Note_off_c, 4, 31, 95
5, 380160, Note_on_c, 4, 36, 95
5, 381120, Note_off_c, 4, 36, 95
5, 381120, Note_on_c, 4, 40, 95
5, 382080, Note_off_c, 4, 40, 95
5, 382080, Note_on_c, 4, 41, 95
5, 383040, Note_off_c, 4, 41, 95
5, 383040, Note_on_c, 4, 34, 95
5, 384000, Note_off_c, 4, 34, 95
5, 384000, Note_on_c, 4, 33, 95
5, 384960, Note_off_c, 4, 33, 95
5, 384960, Note_on_c, 4, 31, 95
5, 385920, Note_off_c, 4, 31, 95
5, 385920, Note_on_c, 4, 29, 95
5, 386880, Note_off_c, 4, 29, 95
5, 386880, Note_on_c, 4, 34, 95
5, 387840, Note_off_c, 4, 34, 95
5, 387840, Note_on_c, 4, 43, 95
5, 388800, Note_off_c, 4, 43, 95
5, 388800, Note_on_c, 4, 36, 95
5, 389760, Note_off_c, 4, 36, 95
5, 389760, Note_on_c, 4, 41, 95
5, 390720, Note_off_c, 4, 41, 95
5, 390720, Note_on_c, 4, 46, 95
5, 393600, Note_off_c, 4, 46, 95
5, 395520, Note_on_c, 4, 51, 95
5, 396480, Note_off_c, 4, 51, 95
5, 396480, Note_on_c, 4, 51, 95
5, 396960, Note_off_c, 4, 51, 95
5, 397440, Note_on_c, 4, 51, 95
5, 398400, Note_off_c, 4, 51, 95
5, 398400, Note_on_c, 4, 51, 95
5, 398880, Note_off_c, 4, 51, 95
5, 399360, Note_on_c, 4, 51, 95
5, 400320, Note_off_c, 4, 51, 95
5, 400320, Note_on_c, 4, 51, 95
5, 400800, Note_off_c, 4, 51, 95
5, 401280, Note_on_c, 4, 51, 95
5, 402240, Note_off_c, 4, 51, 95
5, 402240, Note_on_c, 4, 51, 95
5, 402720, Note_off_c, 4, 51, 95
5, 403200, Note_on_c, 4, 51, 95
5, 404160, Note_off_c, 4, 51, 95
5, 404160, Note_on_c, 4, 51, 95
5, 404640, Note_off_c, 4, 51, 95
5, 405120, Note_on_c, 4, 51, 95
5, 406080, Note_off_c, 4, 51, 95
5, 406080, Note_on_c, 4, 51, 95
5, 406560, Note_off_c, 4, 51, 95
5, 407040, Note_on_c, 4, 51, 95
5, 408000, Note_off_c, 4, 51, 95
5, 408000, Note_on_c, 4, 51, 95
5, 408480, Note_off_c, 4, 51, 95
5, 408960, Note_on_c, 4, 51, 95
5, 409920, Note_off_c, 4, 51, 95
5, 409920, Note_on_c, 4, 51, 95
5, 410400, Note_off_c, 4, 51, 95
5, 410880, Note_on_c, 4, 37, 95
5, 411840, Note_off_c, 4, 37, 95
5, 411840, Note_on_c, 4, 44, 95
5, 412320, Note_off_c, 4, 44, 95
5, 412800, Note_on_c, 4, 37, 95
5, 413760, Note_off_c, 4, 37, 95
5, 413760, Note_on_c, 4, 44, 95
5, 414240, Note_off_c, 4, 44, 95
5, 414720, Note_on_c, 4, 37, 95
5, 415680, Note_off_c, 4, 37, 95
5, 415680, Note_on_c, 4, 44, 95
5, 416160, Note_off_c, 4, 44, 95
5, 416640, Note_on_c, 4, 37, 95
5, 417600, Note_off_c, 4, 37, 95
5, 417600, Note_on_c, 4, 44, 95
5, 418080, Note_off_c, 4, 44, 95
5, 418560, Note_on_c, 4, 37, 95
5, 419520, Note_off_c, 4, 37, 95
5, 419520, Note_on_c, 4, 44, 95
5, 420000, Note_off_c, 4, 44, 95
5, 420480, Note_on_c, 4, 37, 95
5, 421440, Note_off_c, 4, 37, 95
5, 421440, Note_on_c, 4, 44, 95
5, 421920, Note_off_c, 4, 44, 95
5, 422400, Note_on_c, 4, 37, 95
5, 423360, Note_off_c, 4, 37, 95
5, 423360, Note_on_c, 4, 46, 95
5, 423840, Note_off_c, 4, 46, 95
5, 424320, Note_on_c, 4, 37, 95
5, 425280, Note_off_c, 4, 37, 95
5, 425280, Note_on_c, 4, 46, 95
5, 425760, Note_off_c, 4, 46, 95
5, 426240, Note_on_c, 4, 37, 95
5, 427200, Note_off_c, 4, 37, 95
5, 427200, Note_on_c, 4, 46, 95
5, 427680, Note_off_c, 4, 46, 95
5, 428160, Note_on_c, 4, 37, 95
5, 429120, Note_off_c, 4, 37, 95
5, 429120, Note_on_c, 4, 46, 95
5, 429600, Note_off_c, 4, 46, 95
5, 430080, Note_on_c, 4, 40, 95
5, 432000, Note_off_c, 4, 40, 95
5, 432000, Note_on_c, 4, 44, 95
5, 432480, Note_off_c, 4, 44, 95
5, 432480, Note_on_c, 4, 46, 95
5, 432960, Note_off_c, 4, 46, 95
5, 432960, Note_on_c, 4, 47, 95
5, 433440, Note_off_c, 4, 47, 95
5, 433440, Note_on_c, 4, 52, 95
5, 433920, Note_off_c, 4, 52, 95
5, 433920, Note_on_c, 4, 51, 95
5, 434880, Note_off_c, 4, 51, 95
5, 434880, Note_on_c, 4, 51, 95
5, 435360, Note_off_c, 4, 51, 95
5, 435840, Note_on_c, 4, 51, 95
5, 436800, Note_off_c, 4, 51, 95
5, 436800, Note_on_c, 4, 51, 95
5, 437280, Note_off_c, 4, 51, 95
5, 437760, Note_on_c, 4, 51, 95
5, 438720, Note_off_c, 4, 51, 95
5, 438720, Note_on_c, 4, 51, 95
5, 439200, Note_off_c, 4, 51, 95
5, 439680, Note_on_c, 4, 51, 95
5, 440640, Note_off_c, 4, 51, 95
5, 440640, Note_on_c, 4, 51, 95
5, 441120, Note_off_c, 4, 51, 95
5, 441600, Note_on_c, 4, 51, 95
5, 442560, Note_off_c, 4, 51, 95
5, 442560, Note_on_c, 4, 51, 95
5, 443040, Note_off_c, 4, 51, 95
5, 443520, Note_on_c, 4, 51, 95
5, 444480, Note_off_c, 4, 51, 95
5, 444480, Note_on_c, 4, 51, 95
5, 444960, Note_off_c, 4, 51, 95
5, 445440, Note_on_c, 4, 51, 95
5, 446400, Note_off_c, 4, 51, 95
5, 446400, Note_on_c, 4, 51, 95
5, 446880, Note_off_c, 4, 51, 95
5, 447360, Note_on_c, 4, 51, 95
5, 448320, Note_off_c, 4, 51, 95
5, 448320, Note_on_c, 4, 51, 95
5, 448800, Note_off_c, 4, 51, 95
5, 449280, Note_on_c, 4, 37, 95
5, 450240, Note_off_c, 4, 37, 95
5, 450240, Note_on_c, 4, 44, 95
5, 450720, Note_off_c, 4, 44, 95
5, 451200, Note_on_c, 4, 37, 95
5, 452160, Note_off_c, 4, 37, 95
5, 452160, Note_on_c, 4, 44, 95
5, 452640, Note_off_c, 4, 44, 95
5, 453120, Note_on_c, 4, 37, 95
5, 454080, Note_off_c, 4, 37, 95
5, 454080, Note_on_c, 4, 44, 95
5, 454560, Note_off_c, 4, 44, 95
5, 455040, Note_on_c, 4, 37, 95
5, 456000, Note_off_c, 4, 37, 95
5, 456000, Note_on_c, 4, 44, 95
5, 456480, Note_off_c, 4, 44, 95
5, 456960, Note_on_c, 4, 37, 95
5, 457920, Note_off_c, 4, 37, 95
5, 457920, Note_on_c, 4, 44, 95
5, 458400, Note_off_c, 4, 44, 95
5, 458880, Note_on_c, 4, 37, 95
5, 459840, Note_off_c, 4, 37, 95
5, 459840, Note_on_c, 4, 44, 95
5, 460320, Note_off_c, 4, 44, 95
5, 460800, Note_on_c, 4, 37, 95
5, 461760, Note_off_c, 4, 37, 95
5, 461760, Note_on_c, 4, 46, 95
5, 462240, Note_off_c, 4, 46, 95
5, 462720, Note_on_c, 4, 37, 95
5, 463680, Note_off_c, 4, 37, 95
5, 463680, Note_on_c, 4, 46, 95
5, 464160, Note_off_c, 4, 46, 95
5, 464640, Note_on_c, 4, 37, 95
5, 465600, Note_off_c, 4, 37, 95
5, 465600, Note_on_c, 4, 46, 95
5, 466080, Note_off_c, 4, 46, 95
5, 466560, Note_on_c, 4, 37, 95
5, 467520, Note_off_c, 4, 37, 95
5, 467520, Note_on_c, 4, 46, 95
5, 468000, Note_off_c, 4, 46, 95
5, 468480, Note_on_c, 4, 40, 95
5, 470400, Note_off_c, 4, 40, 95
5, 470400, Note_on_c, 4, 44, 95
5, 470880, Note_off_c, 4, 44, 95
5, 470880, Note_on_c, 4, 46, 95
5, 471360, Note_off_c, 4, 46, 95
5, 471360, Note_on_c, 4, 47, 95
5, 472320, Note_off_c, 4, 47, 95
5, 472320, Note_on_c, 4, 39, 95
5, 473760, Note_off_c, 4, 39, 95
5, 473760, Note_on_c, 4, 39, 95
5, 474240, Note_off_c, 4, 39, 95
5, 474240, Note_on_c, 4, 38, 95
5, 475200, Note_off_c, 4, 38, 95
5, 475200, Note_on_c, 4, 38, 95
5, 475680, Note_off_c, 4, 38, 95
5, 475680, Note_on_c, 4, 38, 95
5, 476160, Note_off_c, 4, 38, 95
5, 476160, Note_on_c, 4, 39, 95
5, 478080, Note_off_c, 4, 39, 95
5, 478080, Note_on_c, 4, 38, 95
5, 480000, Note_off_c, 4, 38, 95
5, 480000, Note_on_c, 4, 39, 95
5, 481920, Note_off_c, 4, 39, 95
5, 481920, Note_on_c, 4, 32, 95
5, 483840, Note_off_c, 4, 32, 95
5, 483840, Note_on_c, 4, 39, 95
5, 485760, Note_off_c, 4, 39, 95
5, 485760, Note_on_c, 4, 39, 95
5, 487680, Note_off_c, 4, 39, 95
5, 487680, Note_on_c, 4, 39, 95
5, 488160, Note_off_c, 4, 39, 95
5, 488160, Note_on_c, 4, 39, 95
5, 488640, Note_off_c, 4, 39, 95
5, 488640, Note_on_c, 4, 39, 95
5, 489120, Note_off_c, 4, 39, 95
5, 489120, Note_on_c, 4, 39, 95
5, 489600, Note_off_c, 4, 39, 95
5, 489600, Note_on_c, 4, 38, 95
5, 490080, Note_off_c, 4, 38, 95
5, 490080, Note_on_c, 4, 38, 95
5, 490560, Note_off_c, 4, 38, 95
5, 490560, Note_on_c, 4, 38, 95
5, 491040, Note_off_c, 4, 38, 95
5, 491040, Note_on_c, 4, 38, 95
5, 491520, Note_off_c, 4, 38, 95
5, 491520, Note_on_c, 4, 39, 95
5, 492000, Note_off_c, 4, 39, 95
5, 492000, Note_on_c, 4, 39, 95
5, 492480, Note_off_c, 4, 39, 95
5, 492480, Note_on_c, 4, 39, 95
5, 492960, Note_off_c, 4, 39, 95
5, 492960, Note_on_c, 4, 39, 95
5, 493440, Note_off_c, 4, 39, 95
5, 493440, Note_on_c, 4, 38, 95
5, 493920, Note_off_c, 4, 38, 95
5, 493920, Note_on_c, 4, 38, 95
5, 494400, Note_off_c, 4, 38, 95
5, 494400, Note_on_c, 4, 38, 95
5, 494880, Note_off_c, 4, 38, 95
5, 494880, Note_on_c, 4, 38, 95
5, 495360, Note_off_c, 4, 38, 95
5, 495360, Note_on_c, 4, 39, 95
5, 495840, Note_off_c, 4, 39, 95
5, 495840, Note_on_c, 4, 39, 95
5, 496320, Note_off_c, 4, 39, 95
5, 496320, Note_on_c, 4, 39, 95
5, 496800, Note_off_c, 4, 39, 95
5, 496800, Note_on_c, 4, 39, 95
5, 497280, Note_off_c, 4, 39, 95
5, 497280, Note_on_c, 4, 32, 95
5, 497760, Note_off_c, 4, 32, 95
5, 497760, Note_on_c, 4, 32, 95
5, 498240, Note_off_c, 4, 32, 95
5, 498240, Note_on_c, 4, 32, 95
5, 498720, Note_off_c, 4, 32, 95
5, 498720, Note_on_c, 4, 32, 95
5, 499200, Note_off_c, 4, 32, 95
5, 499200, Note_on_c, 4, 39, 95
5, 499680, Note_off_c, 4, 39, 95
5, 499680, Note_on_c, 4, 39, 95
5, 500160, Note_off_c, 4, 39, 95
5, 500160, Note_on_c, 4, 39, 95
5, 500640, Note_off_c, 4, 39, 95
5, 500640, Note_on_c, 4, 39, 95
5, 501120, Note_off_c, 4, 39, 95
5, 501120, Note_on_c, 4, 39, 95
5, 501360, Note_off_c, 4, 39, 95
5, 501360, Note_on_c, 4, 39, 95
5, 501600, Note_off_c, 4, 39, 95
5, 501600, Note_on_c, 4, 39, 95
5, 501840, Note_off_c, 4, 39, 95
5, 501840, Note_on_c, 4, 39, 95
5, 502080, Note_off_c, 4, 39, 95
5, 502080, Note_on_c, 4, 39, 95
5, 502320, Note_off_c, 4, 39, 95
5, 502320, Note_on_c, 4, 39, 95
5, 502560, Note_off_c, 4, 39, 95
5, 502560, Note_on_c, 4, 39, 95
5, 502800, Note_off_c, 4, 39, 95
5, 502800, Note_on_c, 4, 39, 95
5, 503040, Note_off_c, 4, 39, 95
5, 503040, Note_on_c, 4, 34, 95
5, 503520, Note_off_c, 4, 34, 95
5, 503520, Note_on_c, 4, 34, 95
5, 504000, Note_off_c, 4, 34, 95
5, 504000, Note_on_c, 4, 33, 95
5, 504240, Note_off_c, 4, 33, 95
5, 504240, Note_on_c, 4, 33, 95
5, 504480, Note_off_c, 4, 33, 95
5, 504480, Note_on_c, 4, 33, 95
5, 504720, Note_off_c, 4, 33, 95
5, 504720, Note_on_c, 4, 33, 95
5, 504960, Note_off_c, 4, 33, 95
5, 504960, Note_on_c, 4, 34, 95
5, 505440, Note_off_c, 4, 34, 95
5, 505440, Note_on_c, 4, 34, 95
5, 505920, Note_off_c, 4, 34, 95
5, 505920, Note_on_c, 4, 33, 95
5, 506160, Note_off_c, 4, 33, 95
5, 506160, Note_on_c, 4, 33, 95
5, 506400, Note_off_c, 4, 33, 95
5, 506400, Note_on_c, 4, 33, 95
5, 506640, Note_off_c, 4, 33, 95
5, 506640, Note_on_c, 4, 33, 95
5, 506880, Note_off_c, 4, 33, 95
5, 506880, Note_on_c, 4, 35, 95
5, 507360, Note_off_c, 4, 35, 95
5, 507360, Note_on_c, 4, 35, 95
5, 507840, Note_off_c, 4, 35, 95
5, 507840, Note_on_c, 4, 34, 95
5, 508080, Note_off_c, 4, 34, 95
5, 508080, Note_on_c, 4, 34, 95
5, 508320, Note_off_c, 4, 34, 95
5, 508320, Note_on_c, 4, 34, 95
5, 508560, Note_off_c, 4, 34, 95
5, 508560, Note_on_c, 4, 34, 95
5, 508800, Note_off_c, 4, 34, 95
5, 508800, Note_on_c, 4, 35, 95
5, 509280, Note_off_c, 4, 35, 95
5, 509280, Note_on_c, 4, 35, 95
5, 509760, Note_off_c, 4, 35, 95
5, 509760, Note_on_c, 4, 34, 95
5, 510000, Note_off_c, 4, 34, 95
5, 510000, Note_on_c, 4, 34, 95
5, 510240, Note_off_c, 4, 34, 95
5, 510240, Note_on_c, 4, 34, 95
5, 510480, Note_off_c, 4, 34, 95
5, 510480, Note_on_c, 4, 34, 95
5, 510720, Note_off_c, 4, 34, 95
5, 510720, Note_on_c, 4, 36, 95
5, 511200, Note_off_c, 4, 36, 95
5, 511200, Note_on_c, 4, 36, 95
5, 511680, Note_off_c, 4, 36, 95
5, 511680, Note_on_c, 4, 35, 95
5, 511920, Note_off_c, 4, 35, 95
5, 511920, Note_on_c, 4, 35, 95
5, 512160, Note_off_c, 4, 35, 95
5, 512160, Note_on_c, 4, 35, 95
5, 512400, Note_off_c, 4, 35, 95
5, 512400, Note_on_c, 4, 35, 95
5, 512640, Note_off_c, 4, 35, 95
5, 512640, Note_on_c, 4, 36, 95
5, 513120, Note_off_c, 4, 36, 95
5, 513120, Note_on_c, 4, 36, 95
5, 513600, Note_off_c, 4, 36, 95
5, 513600, Note_on_c, 4, 35, 95
5, 513840, Note_off_c, 4, 35, 95
5, 513840, Note_on_c, 4, 35, 95
5, 514080, Note_off_c, 4, 35, 95
5, 514080, Note_on_c, 4, 35, 95
5, 514320, Note_off_c, 4, 35, 95
5, 514320, Note_on_c, 4, 35, 95
5, 514560, Note_off_c, 4, 35, 95
5, 514560, Note_on_c, 4, 37, 95
5, 515040, Note_off_c, 4, 37, 95
5, 515040, Note_on_c, 4, 37, 95
5, 515520, Note_off_c, 4, 37, 95
5, 515520, Note_on_c, 4, 36, 95
5, 515760, Note_off_c, 4, 36, 95
5, 515760, Note_on_c, 4, 36, 95
5, 516000, Note_off_c, 4, 36, 95
5, 516000, Note_on_c, 4, 36, 95
5, 516240, Note_off_c, 4, 36, 95
5, 516240, Note_on_c, 4, 36, 95
5, 516480, Note_off_c, 4, 36, 95
5, 516480, Note_on_c, 4, 37, 95
5, 516960, Note_off_c, 4, 37, 95
5, 516960, Note_on_c, 4, 38, 95
5, 517440, Note_off_c, 4, 38, 95
5, 517440, Note_on_c, 4, 39, 95
5, 518400, Note_off_c, 4, 39, 95
5, 518400, Note_on_c, 4, 51, 95
5, 519360, Note_off_c, 4, 51, 95
5, 519360, Note_on_c, 4, 51, 95
5, 519840, Note_off_c, 4, 51, 95
5, 520320, Note_on_c, 4, 51, 95
5, 521280, Note_off_c, 4, 51, 95
5, 521280, Note_on_c, 4, 51, 95
5, 521760, Note_off_c, 4, 51, 95
5, 522240, Note_on_c, 4, 51, 95
5, 523200, Note_off_c, 4, 51, 95
5, 523200, Note_on_c, 4, 51, 95
5, 523680, Note_off_c, 4, 51, 95
5, 524160, Note_on_c, 4, 51, 95
5, 525120, Note_off_c, 4, 51, 95
5, 525120, Note_on_c, 4, 51, 95
5, 525600, Note_off_c, 4, 51, 95
5, 526080, Note_on_c, 4, 51, 95
5, 527040, Note_off_c, 4, 51, 95
5, 527040, Note_on_c, 4, 51, 95
5, 527520, Note_off_c, 4, 51, 95
5, 528000, Note_on_c, 4, 51, 95
5, 528960, Note_off_c, 4, 51, 95
5, 528960, Note_on_c, 4, 51, 95
5, 529440, Note_off_c, 4, 51, 95
5, 529920, Note_on_c, 4, 51, 95
5, 530880, Note_off_c, 4, 51, 95
5, 530880, Note_on_c, 4, 51, 95
5, 531360, Note_off_c, 4, 51, 95
5, 531840, Note_on_c, 4, 51, 95
5, 532800, Note_off_c, 4, 51, 95
5, 532800, Note_on_c, 4, 51, 95
5, 533280, Note_off_c, 4, 51, 95
5, 533760, Note_on_c, 4, 34, 95
5, 534240, Note_off_c, 4, 34, 95
5, 534240, Note_on_c, 4, 38, 95
5, 534720, Note_off_c, 4, 38, 95
5, 534720, Note_on_c, 4, 40, 95
5, 535200, Note_off_c, 4, 40, 95
5, 535200, Note_on_c, 4, 46, 95
5, 535680, Note_off_c, 4, 46, 95
5, 535680, Note_on_c, 4, 38, 95
5, 536160, Note_off_c, 4, 38, 95
5, 536160, Note_on_c, 4, 40, 95
5, 536640, Note_off_c, 4, 40, 95
5, 536640, Note_on_c, 4, 46, 95
5, 537120, Note_off_c, 4, 46, 95
5, 537120, Note_on_c, 4, 47, 95
5, 537600, Note_off_c, 4, 47, 95
5, 537600, Note_on_c, 4, 54, 95
5, 540480, Note_off_c, 4, 54, 95
5, 540480, End_track
6, 0, Start_track
6, 0, Pitch_bend_c, 6, 8192
6, 0, Control_c, 6, 7, 109
6, 0, Control_c, 6, 10, 64
6, 0, Control_c, 6, 93, 0
6, 0, Control_c, 6, 91, 0
6, 0, Control_c, 6, 95, 0
6, 0, Control_c, 6, 92, 0
6, 0, Control_c, 6, 11, 127
6, 0, Program_c, 6, 40
6, 0, Control_c, 7, 7, 109
6, 0, Control_c, 7, 10, 64
6, 0, Control_c, 7, 93, 0
6, 0, Control_c, 7, 91, 0
6, 0, Control_c, 7, 95, 0
6, 0, Control_c, 7, 92, 0
6, 0, Control_c, 7, 11, 127
6, 0, Program_c, 7, 40
6, 10560, Note_on_c, 6, 67, 95
6, 11520, Note_off_c, 6, 67, 95
6, 11520, Note_on_c, 6, 65, 95
6, 12480, Note_off_c, 6, 65, 95
6, 12480, Note_on_c, 6, 70, 95
6, 13440, Note_off_c, 6, 70, 95
6, 13440, Note_on_c, 6, 72, 95
6, 13920, Note_off_c, 6, 72, 95
6, 13920, Note_on_c, 6, 77, 95
6, 14400, Note_off_c, 6, 77, 95
6, 14400, Note_on_c, 6, 74, 95
6, 15360, Note_off_c, 6, 74, 95
6, 15360, Note_on_c, 6, 72, 95
6, 15840, Note_off_c, 6, 72, 95
6, 15840, Note_on_c, 6, 77, 95
6, 16320, Note_off_c, 6, 77, 95
6, 16320, Note_on_c, 6, 74, 95
6, 17280, Note_off_c, 6, 74, 95
6, 17280, Note_on_c, 6, 70, 95
6, 18240, Note_off_c, 6, 70, 95
6, 18240, Note_on_c, 6, 72, 95
6, 19200, Note_off_c, 6, 72, 95
6, 19200, Note_on_c, 6, 67, 95
6, 20160, Note_off_c, 6, 67, 95
6, 20160, Note_on_c, 6, 65, 95
6, 21120, Note_off_c, 6, 65, 95
6, 21120, Note_on_c, 6, 65, 95
6, 22080, Note_off_c, 6, 65, 95
6, 22080, Note_on_c, 6, 67, 95
6, 23040, Note_off_c, 6, 67, 95
6, 23040, Note_on_c, 6, 62, 95
6, 24000, Note_off_c, 6, 62, 95
6, 24000, Note_on_c, 6, 65, 95
6, 24480, Note_off_c, 6, 65, 95
6, 24480, Note_on_c, 6, 67, 95
6, 24960, Note_off_c, 6, 67, 95
6, 24960, Note_on_c, 6, 63, 95
6, 25920, Note_off_c, 6, 63, 95
6, 25920, Note_on_c, 6, 70, 95
6, 26400, Note_off_c, 6, 70, 95
6, 26400, Note_on_c, 6, 72, 95
6, 26880, Note_off_c, 6, 72, 95
6, 26880, Note_on_c, 6, 68, 95
6, 27840, Note_off_c, 6, 68, 95
6, 27840, Note_on_c, 6, 68, 95
6, 28800, Note_off_c, 6, 68, 95
6, 28800, Note_on_c, 6, 65, 95
6, 29760, Note_off_c, 6, 65, 95
6, 29760, Note_on_c, 6, 63, 95
6, 30240, Note_off_c, 6, 63, 95
6, 30240, Note_on_c, 6, 61, 95
6, 30720, Note_off_c, 6, 61, 95
6, 30720, Note_on_c, 6, 56, 95
6, 31680, Note_off_c, 6, 56, 95
6, 31680, Note_on_c, 6, 61, 95
6, 32160, Note_off_c, 6, 61, 95
6, 32160, Note_on_c, 6, 63, 95
6, 32640, Note_off_c, 6, 63, 95
6, 32640, Note_on_c, 6, 65, 95
6, 33120, Note_off_c, 6, 65, 95
6, 33120, Note_on_c, 6, 68, 95
6, 33600, Note_off_c, 6, 68, 95
6, 33600, Note_on_c, 6, 66, 95
6, 34080, Note_off_c, 6, 66, 95
6, 34080, Note_on_c, 6, 65, 95
6, 34560, Note_off_c, 6, 65, 95
6, 34560, Note_on_c, 6, 63, 95
6, 35040, Note_off_c, 6, 63, 95
6, 35040, Note_on_c, 6, 66, 95
6, 35520, Note_off_c, 6, 66, 95
6, 35520, Note_on_c, 6, 65, 95
6, 36000, Note_off_c, 6, 65, 95
6, 36000, Note_on_c, 6, 61, 95
6, 36480, Note_off_c, 6, 61, 95
6, 36480, Note_on_c, 6, 63, 95
6, 37440, Note_off_c, 6, 63, 95
6, 37440, Note_on_c, 6, 65, 95
6, 37920, Note_off_c, 6, 65, 95
6, 37920, Note_on_c, 6, 67, 95
6, 38400, Note_off_c, 6, 67, 95
6, 38400, Note_on_c, 6, 69, 95
6, 38880, Note_off_c, 6, 69, 95
6, 38880, Note_on_c, 6, 72, 95
6, 39360, Note_off_c, 6, 72, 95
6, 39360, Note_on_c, 6, 70, 95
6, 39840, Note_off_c, 6, 70, 95
6, 39840, Note_on_c, 6, 69, 95
6, 40320, Note_off_c, 6, 69, 95
6, 40320, Note_on_c, 6, 67, 95
6, 40800, Note_off_c, 6, 67, 95
6, 40800, Note_on_c, 6, 70, 95
6, 41280, Note_off_c, 6, 70, 95
6, 41280, Note_on_c, 6, 69, 95
6, 41760, Note_off_c, 6, 69, 95
6, 41760, Note_on_c, 6, 65, 95
6, 42240, Note_off_c, 6, 65, 95
6, 42240, Note_on_c, 6, 67, 95
6, 43200, Note_off_c, 6, 67, 95
6, 43200, Note_on_c, 6, 67, 95
6, 43680, Note_off_c, 6, 67, 95
6, 43680, Note_on_c, 6, 70, 95
6, 44160, Note_off_c, 6, 70, 95
6, 44160, Note_on_c, 6, 65, 95
6, 45120, Note_off_c, 6, 65, 95
6, 45120, Note_on_c, 6, 67, 95
6, 46080, Note_off_c, 6, 67, 95
6, 46080, Note_on_c, 6, 65, 95
6, 47040, Note_off_c, 6, 65, 95
6, 47040, Note_on_c, 6, 67, 95
6, 48000, Note_off_c, 6, 67, 95
6, 48000, Note_on_c, 6, 65, 95
6, 48960, Note_off_c, 6, 65, 95
6, 48960, Note_on_c, 6, 67, 95
6, 49440, Note_off_c, 6, 67, 95
6, 49440, Note_on_c, 6, 70, 95
6, 49920, Note_off_c, 6, 70, 95
6, 49920, Note_on_c, 6, 65, 95
6, 50880, Note_off_c, 6, 65, 95
6, 50880, Note_on_c, 6, 67, 95
6, 51840, Note_off_c, 6, 67, 95
6, 51840, Note_on_c, 6, 65, 95
6, 52800, Note_off_c, 6, 65, 95
6, 52800, Note_on_c, 6, 55, 95
6, 53760, Note_off_c, 6, 55, 95
6, 53760, Note_on_c, 6, 53, 95
6, 54720, Note_off_c, 6, 53, 95
6, 54720, Note_on_c, 6, 58, 95
6, 55680, Note_off_c, 6, 58, 95
6, 55680, Note_on_c, 6, 60, 95
6, 56160, Note_off_c, 6, 60, 95
6, 56160, Note_on_c, 6, 65, 95
6, 56640, Note_off_c, 6, 65, 95
6, 56640, Note_on_c, 6, 62, 95
6, 57600, Note_off_c, 6, 62, 95
6, 57600, Note_on_c, 6, 60, 95
6, 58080, Note_off_c, 6, 60, 95
6, 58080, Note_on_c, 6, 65, 95
6, 58560, Note_off_c, 6, 65, 95
6, 58560, Note_on_c, 6, 62, 95
6, 59520, Note_off_c, 6, 62, 95
6, 59520, Note_on_c, 6, 58, 95
6, 60480, Note_off_c, 6, 58, 95
6, 60480, Note_on_c, 6, 60, 95
6, 61440, Note_off_c, 6, 60, 95
6, 61440, Note_on_c, 6, 67, 95
6, 62400, Note_off_c, 6, 67, 95
6, 62400, Note_on_c, 6, 65, 95
6, 63360, Note_off_c, 6, 65, 95
6, 63360, Note_on_c, 6, 62, 95
6, 64320, Note_off_c, 6, 62, 95
6, 64320, Note_on_c, 6, 65, 95
6, 65280, Note_off_c, 6, 65, 95
6, 65280, Note_on_c, 6, 58, 95
6, 66240, Note_off_c, 6, 58, 95
6, 66240, Note_on_c, 6, 60, 95
6, 66720, Note_off_c, 6, 60, 95
6, 66720, Note_on_c, 6, 65, 95
6, 67200, Note_off_c, 6, 65, 95
6, 67200, Note_on_c, 6, 62, 95
6, 68160, Note_off_c, 6, 62, 95
6, 68160, Note_on_c, 6, 58, 95
6, 69120, Note_off_c, 6, 58, 95
6, 69120, Note_on_c, 6, 63, 95
6, 70080, Note_off_c, 6, 63, 95
6, 70080, Note_on_c, 6, 60, 95
6, 71040, Note_off_c, 6, 60, 95
6, 71040, Note_on_c, 6, 62, 95
6, 73920, Note_off_c, 6, 62, 95
6, 73920, Note_on_c, 6, 67, 95
6, 74880, Note_off_c, 6, 67, 95
6, 74880, Note_on_c, 6, 65, 95
6, 75840, Note_off_c, 6, 65, 95
6, 75840, Note_on_c, 6, 70, 95
6, 76800, Note_off_c, 6, 70, 95
6, 76800, Note_on_c, 6, 72, 95
6, 77280, Note_off_c, 6, 72, 95
6, 77280, Note_on_c, 6, 77, 95
6, 77760, Note_off_c, 6, 77, 95
6, 77760, Note_on_c, 6, 74, 95
6, 78720, Note_off_c, 6, 74, 95
6, 78720, Note_on_c, 6, 72, 95
6, 79200, Note_off_c, 6, 72, 95
6, 79200, Note_on_c, 6, 77, 95
6, 79680, Note_off_c, 6, 77, 95
6, 79680, Note_on_c, 6, 74, 95
6, 80640, Note_off_c, 6, 74, 95
6, 80640, Note_on_c, 6, 70, 95
6, 81600, Note_off_c, 6, 70, 95
6, 81600, Note_on_c, 6, 72, 95
6, 82560, Note_off_c, 6, 72, 95
6, 82560, Note_on_c, 6, 65, 95
6, 83520, Note_off_c, 6, 65, 95
6, 83520, Note_on_c, 6, 70, 95
6, 87360, Note_off_c, 6, 70, 95
6, 101760, Note_on_c, 6, 61, 95
6, 102240, Note_off_c, 6, 61, 95
6, 102240, Note_on_c, 6, 62, 95
6, 102720, Note_off_c, 6, 62, 95
6, 102720, Note_on_c, 6, 70, 95
6, 103200, Note_off_c, 6, 70, 95
6, 103200, Note_on_c, 6, 71, 95
6, 103680, Note_off_c, 6, 71, 95
6, 103680, Note_on_c, 6, 70, 95
6, 104160, Note_off_c, 6, 70, 95
6, 104160, Note_on_c, 6, 62, 95
6, 104640, Note_off_c, 6, 62, 95
6, 111360, Note_on_c, 6, 61, 95
6, 111840, Note_off_c, 6, 61, 95
6, 111840, Note_on_c, 6, 62, 95
6, 112320, Note_off_c, 6, 62, 95
6, 112320, Note_on_c, 6, 70, 95
6, 112800, Note_off_c, 6, 70, 95
6, 112800, Note_on_c, 6, 71, 95
6, 113280, Note_off_c, 6, 71, 95
6, 113280, Note_on_c, 6, 70, 95
6, 113760, Note_off_c, 6, 70, 95
6, 113760, Note_on_c, 6, 62, 95
6, 114240, Note_off_c, 6, 62, 95
6, 117120, Note_on_c, 6, 61, 95
6, 117600, Note_off_c, 6, 61, 95
6, 117600, Note_on_c, 6, 62, 95
6, 118080, Note_off_c, 6, 62, 95
6, 118080, Note_on_c, 6, 70, 95
6, 118560, Note_off_c, 6, 70, 95
6, 118560, Note_on_c, 6, 71, 95
6, 119040, Note_off_c, 6, 71, 95
6, 119040, Note_on_c, 6, 70, 95
6, 119520, Note_off_c, 6, 70, 95
6, 119520, Note_on_c, 6, 62, 95
6, 120000, Note_off_c, 6, 62, 95
6, 128640, Note_on_c, 6, 73, 63
6, 129120, Note_off_c, 6, 73, 63
6, 129120, Note_on_c, 6, 73, 79
6, 129600, Note_off_c, 6, 73, 79
6, 129600, Note_on_c, 6, 73, 95
6, 130080, Note_off_c, 6, 73, 95
6, 130080, Note_on_c, 6, 73, 111
6, 130560, Note_off_c, 6, 73, 111
6, 130560, Note_on_c, 6, 73, 127
6, 131040, Note_off_c, 6, 73, 127
6, 131040, Note_on_c, 6, 73, 127
6, 131520, Note_off_c, 6, 73, 127
6, 166080, Note_on_c, 6, 77, 95
6, 167040, Note_off_c, 6, 77, 95
6, 167040, Note_on_c, 6, 75, 95
6, 171840, Note_off_c, 6, 75, 95
6, 171840, Note_on_c, 6, 77, 95
6, 172800, Note_off_c, 6, 77, 95
6, 172800, Note_on_c, 6, 74, 95
6, 175680, Note_off_c, 6, 74, 95
6, 175680, Note_on_c, 6, 80, 95
6, 176640, Note_off_c, 6, 80, 95
6, 176640, Note_on_c, 6, 78, 95
6, 179520, Note_off_c, 6, 78, 95
6, 179520, Note_on_c, 6, 77, 95
6, 180480, Note_off_c, 6, 77, 95
6, 180480, Note_on_c, 6, 75, 95
6, 189120, Note_off_c, 6, 75, 95
6, 189120, Note_on_c, 6, 77, 95
6, 190080, Note_off_c, 6, 77, 95
6, 190080, Note_on_c, 6, 75, 95
6, 194880, Note_off_c, 6, 75, 95
6, 194880, Note_on_c, 6, 77, 95
6, 195840, Note_off_c, 6, 77, 95
6, 195840, Note_on_c, 6, 74, 95
6, 198720, Note_off_c, 6, 74, 95
6, 198720, Note_on_c, 6, 80, 95
6, 199680, Note_off_c, 6, 80, 95
6, 199680, Note_on_c, 6, 78, 95
6, 202560, Note_off_c, 6, 78, 95
6, 202560, Note_on_c, 6, 77, 95
6, 203520, Note_off_c, 6, 77, 95
6, 203520, Note_on_c, 6, 75, 95
6, 212160, Note_off_c, 6, 75, 95
6, 235200, Note_on_c, 6, 66, 95
6, 235680, Note_off_c, 6, 66, 95
6, 235680, Note_on_c, 6, 65, 95
6, 236160, Note_off_c, 6, 65, 95
6, 236160, Note_on_c, 6, 64, 95
6, 236640, Note_off_c, 6, 64, 95
6, 236640, Note_on_c, 6, 63, 95
6, 237120, Note_off_c, 6, 63, 95
6, 237120, Note_on_c, 6, 63, 95
6, 237600, Note_off_c, 6, 63, 95
6, 237600, Note_on_c, 6, 63, 95
6, 238080, Note_off_c, 6, 63, 95
6, 238080, Note_on_c, 6, 64, 95
6, 238560, Note_off_c, 6, 64, 95
6, 238560, Note_on_c, 6, 65, 95
6, 239040, Note_off_c, 6, 65, 95
6, 239040, Note_on_c, 6, 72, 95
6, 239520, Note_off_c, 6, 72, 95
6, 239520, Note_on_c, 6, 69, 95
6, 240000, Note_off_c, 6, 69, 95
6, 240000, Note_on_c, 6, 68, 95
6, 240480, Note_off_c, 6, 68, 95
6, 240480, Note_on_c, 6, 69, 95
6, 240960, Note_off_c, 6, 69, 95
6, 240960, Note_on_c, 6, 72, 95
6, 241440, Note_off_c, 6, 72, 95
6, 241440, Note_on_c, 6, 69, 95
6, 241920, Note_off_c, 6, 69, 95
6, 241920, Note_on_c, 6, 68, 95
6, 242400, Note_off_c, 6, 68, 95
6, 242400, Note_on_c, 6, 69, 95
6, 242880, Note_off_c, 6, 69, 95
6, 242880, Note_on_c, 6, 66, 95
6, 243360, Note_off_c, 6, 66, 95
6, 243360, Note_on_c, 6, 65, 95
6, 243840, Note_off_c, 6, 65, 95
6, 243840, Note_on_c, 6, 64, 95
6, 244320, Note_off_c, 6, 64, 95
6, 244320, Note_on_c, 6, 63, 95
6, 244800, Note_off_c, 6, 63, 95
6, 244800, Note_on_c, 6, 63, 95
6, 245280, Note_off_c, 6, 63, 95
6, 245280, Note_on_c, 6, 63, 95
6, 245760, Note_off_c, 6, 63, 95
6, 245760, Note_on_c, 6, 64, 95
6, 246240, Note_off_c, 6, 64, 95
6, 246240, Note_on_c, 6, 65, 95
6, 246720, Note_off_c, 6, 65, 95
6, 246720, Note_on_c, 6, 73, 95
6, 247200, Note_off_c, 6, 73, 95
6, 247200, Note_on_c, 6, 70, 95
6, 247680, Note_off_c, 6, 70, 95
6, 247680, Note_on_c, 6, 69, 95
6, 248160, Note_off_c, 6, 69, 95
6, 248160, Note_on_c, 6, 70, 95
6, 248640, Note_off_c, 6, 70, 95
6, 248640, Note_on_c, 6, 73, 95
6, 249120, Note_off_c, 6, 73, 95
6, 249120, Note_on_c, 6, 70, 95
6, 249600, Note_off_c, 6, 70, 95
6, 249600, Note_on_c, 6, 69, 95
6, 250080, Note_off_c, 6, 69, 95
6, 250080, Note_on_c, 6, 70, 95
6, 250560, Note_off_c, 6, 70, 95
6, 250560, Note_on_c, 6, 66, 95
6, 251040, Note_off_c, 6, 66, 95
6, 251040, Note_on_c, 6, 65, 95
6, 251520, Note_off_c, 6, 65, 95
6, 251520, Note_on_c, 6, 64, 95
6, 252000, Note_off_c, 6, 64, 95
6, 252000, Note_on_c, 6, 63, 95
6, 252480, Note_off_c, 6, 63, 95
6, 252480, Note_on_c, 6, 63, 95
6, 252960, Note_off_c, 6, 63, 95
6, 252960, Note_on_c, 6, 63, 95
6, 253440, Note_off_c, 6, 63, 95
6, 253440, Note_on_c, 6, 64, 95
6, 253920, Note_off_c, 6, 64, 95
6, 253920, Note_on_c, 6, 65, 95
6, 254400, Note_off_c, 6, 65, 95
6, 254400, Note_on_c, 6, 72, 95
6, 254880, Note_off_c, 6, 72, 95
6, 254880, Note_on_c, 6, 69, 95
6, 255360, Note_off_c, 6, 69, 95
6, 255360, Note_on_c, 6, 68, 95
6, 255840, Note_off_c, 6, 68, 95
6, 255840, Note_on_c, 6, 69, 95
6, 256320, Note_off_c, 6, 69, 95
6, 256320, Note_on_c, 6, 72, 95
6, 256800, Note_off_c, 6, 72, 95
6, 256800, Note_on_c, 6, 69, 95
6, 257280, Note_off_c, 6, 69, 95
6, 257280, Note_on_c, 6, 68, 95
6, 257760, Note_off_c, 6, 68, 95
6, 257760, Note_on_c, 6, 69, 95
6, 258240, Note_off_c, 6, 69, 95
6, 258240, Note_on_c, 6, 66, 95
6, 258720, Note_off_c, 6, 66, 95
6, 258720, Note_on_c, 6, 65, 95
6, 259200, Note_off_c, 6, 65, 95
6, 259200, Note_on_c, 6, 64, 95
6, 259680, Note_off_c, 6, 64, 95
6, 259680, Note_on_c, 6, 63, 95
6, 260160, Note_off_c, 6, 63, 95
6, 260160, Note_on_c, 6, 63, 95
6, 260640, Note_off_c, 6, 63, 95
6, 260640, Note_on_c, 6, 63, 95
6, 261120, Note_off_c, 6, 63, 95
6, 261120, Note_on_c, 6, 64, 95
6, 261600, Note_off_c, 6, 64, 95
6, 261600, Note_on_c, 6, 65, 95
6, 262080, Note_off_c, 6, 65, 95
6, 262080, Note_on_c, 6, 73, 95
6, 262560, Note_off_c, 6, 73, 95
6, 262560, Note_on_c, 6, 70, 95
6, 263040, Note_off_c, 6, 70, 95
6, 263040, Note_on_c, 6, 69, 95
6, 263520, Note_off_c, 6, 69, 95
6, 263520, Note_on_c, 6, 70, 95
6, 264000, Note_off_c, 6, 70, 95
6, 264000, Note_on_c, 6, 73, 95
6, 264480, Note_off_c, 6, 73, 95
6, 264480, Note_on_c, 6, 70, 95
6, 264960, Note_off_c, 6, 70, 95
6, 264960, Note_on_c, 6, 69, 95
6, 265440, Note_off_c, 6, 69, 95
6, 265440, Note_on_c, 6, 70, 95
6, 265920, Note_off_c, 6, 70, 95
6, 269760, Note_on_c, 6, 63, 95
6, 271680, Note_off_c, 6, 63, 95
6, 271680, Note_on_c, 6, 61, 95
6, 273600, Note_off_c, 6, 61, 95
6, 273600, Note_on_c, 6, 64, 95
6, 277440, Note_off_c, 6, 64, 95
6, 277440, Note_on_c, 6, 63, 95
6, 281280, Note_off_c, 6, 63, 95
6, 283200, Note_on_c, 6, 63, 95
6, 285120, Note_off_c, 6, 63, 95
6, 285120, Note_on_c, 6, 61, 95
6, 287040, Note_off_c, 6, 61, 95
6, 287040, Note_on_c, 6, 66, 95
6, 288960, Note_off_c, 6, 66, 95
6, 288960, Note_on_c, 6, 65, 95
6, 290880, Note_off_c, 6, 65, 95
6, 290880, Note_on_c, 6, 58, 95
6, 292800, Note_off_c, 6, 58, 95
6, 292800, Note_on_c, 6, 65, 95
6, 296640, Note_off_c, 6, 65, 95
6, 296640, Note_on_c, 6, 66, 95
6, 298560, Note_off_c, 6, 66, 95
6, 298560, Note_on_c, 6, 65, 95
6, 300480, Note_off_c, 6, 65, 95
6, 300480, Note_on_c, 6, 58, 95
6, 302400, Note_off_c, 6, 58, 95
6, 302400, Note_on_c, 6, 65, 95
6, 304320, Note_off_c, 6, 65, 95
6, 310080, Note_on_c, 6, 66, 95
6, 310560, Note_off_c, 6, 66, 95
6, 310560, Note_on_c, 6, 65, 95
6, 311040, Note_off_c, 6, 65, 95
6, 311040, Note_on_c, 6, 64, 95
6, 311520, Note_off_c, 6, 64, 95
6, 311520, Note_on_c, 6, 63, 95
6, 312000, Note_off_c, 6, 63, 95
6, 312000, Note_on_c, 6, 63, 95
6, 312480, Note_off_c, 6, 63, 95
6, 312480, Note_on_c, 6, 63, 95
6, 312960, Note_off_c, 6, 63, 95
6, 312960, Note_on_c, 6, 64, 95
6, 313440, Note_off_c, 6, 64, 95
6, 313440, Note_on_c, 6, 65, 95
6, 313920, Note_off_c, 6, 65, 95
6, 313920, Note_on_c, 6, 72, 95
6, 314400, Note_off_c, 6, 72, 95
6, 314400, Note_on_c, 6, 69, 95
6, 314880, Note_off_c, 6, 69, 95
6, 314880, Note_on_c, 6, 68, 95
6, 315360, Note_off_c, 6, 68, 95
6, 315360, Note_on_c, 6, 69, 95
6, 315840, Note_off_c, 6, 69, 95
6, 315840, Note_on_c, 6, 72, 95
6, 316320, Note_off_c, 6, 72, 95
6, 316320, Note_on_c, 6, 69, 95
6, 316800, Note_off_c, 6, 69, 95
6, 316800, Note_on_c, 6, 68, 95
6, 317280, Note_off_c, 6, 68, 95
6, 317280, Note_on_c, 6, 69, 95
6, 317760, Note_off_c, 6, 69, 95
6, 317760, Note_on_c, 6, 66, 95
6, 318240, Note_off_c, 6, 66, 95
6, 318240, Note_on_c, 6, 65, 95
6, 318720, Note_off_c, 6, 65, 95
6, 318720, Note_on_c, 6, 64, 95
6, 319200, Note_off_c, 6, 64, 95
6, 319200, Note_on_c, 6, 63, 95
6, 319680, Note_off_c, 6, 63, 95
6, 319680, Note_on_c, 6, 63, 95
6, 320160, Note_off_c, 6, 63, 95
6, 320160, Note_on_c, 6, 63, 95
6, 320640, Note_off_c, 6, 63, 95
6, 320640, Note_on_c, 6, 64, 95
6, 321120, Note_off_c, 6, 64, 95
6, 321120, Note_on_c, 6, 65, 95
6, 321600, Note_off_c, 6, 65, 95
6, 321600, Note_on_c, 6, 73, 95
6, 322080, Note_off_c, 6, 73, 95
6, 322080, Note_on_c, 6, 70, 95
6, 322560, Note_off_c, 6, 70, 95
6, 322560, Note_on_c, 6, 69, 95
6, 323040, Note_off_c, 6, 69, 95
6, 323040, Note_on_c, 6, 70, 95
6, 323520, Note_off_c, 6, 70, 95
6, 323520, Note_on_c, 6, 73, 95
6, 324000, Note_off_c, 6, 73, 95
6, 324000, Note_on_c, 6, 70, 95
6, 324480, Note_off_c, 6, 70, 95
6, 324480, Note_on_c, 6, 69, 95
6, 324960, Note_off_c, 6, 69, 95
6, 324960, Note_on_c, 6, 70, 95
6, 325440, Note_off_c, 6, 70, 95
6, 325440, Note_on_c, 6, 66, 95
6, 325920, Note_off_c, 6, 66, 95
6, 325920, Note_on_c, 6, 65, 95
6, 326400, Note_off_c, 6, 65, 95
6, 326400, Note_on_c, 6, 64, 95
6, 326880, Note_off_c, 6, 64, 95
6, 326880, Note_on_c, 6, 63, 95
6, 327360, Note_off_c, 6, 63, 95
6, 327360, Note_on_c, 6, 63, 95
6, 327840, Note_off_c, 6, 63, 95
6, 327840, Note_on_c, 6, 63, 95
6, 328320, Note_off_c, 6, 63, 95
6, 328320, Note_on_c, 6, 64, 95
6, 328800, Note_off_c, 6, 64, 95
6, 328800, Note_on_c, 6, 65, 95
6, 329280, Note_off_c, 6, 65, 95
6, 329280, Note_on_c, 6, 72, 95
6, 329760, Note_off_c, 6, 72, 95
6, 329760, Note_on_c, 6, 69, 95
6, 330240, Note_off_c, 6, 69, 95
6, 330240, Note_on_c, 6, 68, 95
6, 330720, Note_off_c, 6, 68, 95
6, 330720, Note_on_c, 6, 69, 95
6, 331200, Note_off_c, 6, 69, 95
6, 331200, Note_on_c, 6, 72, 95
6, 331680, Note_off_c, 6, 72, 95
6, 331680, Note_on_c, 6, 69, 95
6, 332160, Note_off_c, 6, 69, 95
6, 332160, Note_on_c, 6, 68, 95
6, 332640, Note_off_c, 6, 68, 95
6, 332640, Note_on_c, 6, 69, 95
6, 333120, Note_off_c, 6, 69, 95
6, 333120, Note_on_c, 6, 66, 95
6, 333600, Note_off_c, 6, 66, 95
6, 333600, Note_on_c, 6, 65, 95
6, 334080, Note_off_c, 6, 65, 95
6, 334080, Note_on_c, 6, 64, 95
6, 334560, Note_off_c, 6, 64, 95
6, 334560, Note_on_c, 6, 63, 95
6, 335040, Note_off_c, 6, 63, 95
6, 335040, Note_on_c, 6, 63, 95
6, 335520, Note_off_c, 6, 63, 95
6, 335520, Note_on_c, 6, 63, 95
6, 336000, Note_off_c, 6, 63, 95
6, 336000, Note_on_c, 6, 64, 95
6, 336480, Note_off_c, 6, 64, 95
6, 336480, Note_on_c, 6, 65, 95
6, 336960, Note_off_c, 6, 65, 95
6, 336960, Note_on_c, 6, 73, 95
6, 337440, Note_off_c, 6, 73, 95
6, 337440, Note_on_c, 6, 70, 95
6, 337920, Note_off_c, 6, 70, 95
6, 337920, Note_on_c, 6, 69, 95
6, 338400, Note_off_c, 6, 69, 95
6, 338400, Note_on_c, 6, 70, 95
6, 338880, Note_off_c, 6, 70, 95
6, 338880, Note_on_c, 6, 73, 95
6, 339360, Note_off_c, 6, 73, 95
6, 339360, Note_on_c, 6, 70, 95
6, 339840, Note_off_c, 6, 70, 95
6, 339840, Note_on_c, 6, 69, 95
6, 340320, Note_off_c, 6, 69, 95
6, 340320, Note_on_c, 6, 70, 95
6, 340800, Note_off_c, 6, 70, 95
6, 340800, Note_on_c, 6, 73, 95
6, 341280, Note_off_c, 6, 73, 95
6, 341280, Note_on_c, 6, 53, 95
6, 341760, Note_off_c, 6, 53, 95
6, 341760, Note_on_c, 6, 54, 95
6, 342240, Note_off_c, 6, 54, 95
6, 342240, Note_on_c, 6, 57, 95
6, 342720, Note_off_c, 6, 57, 95
6, 342720, Note_on_c, 6, 58, 95
6, 343200, Note_off_c, 6, 58, 95
6, 343200, Note_on_c, 6, 59, 95
6, 343680, Note_off_c, 6, 59, 95
6, 343680, Note_on_c, 6, 57, 95
6, 344160, Note_off_c, 6, 57, 95
6, 344160, Note_on_c, 6, 58, 95
6, 344640, Note_off_c, 6, 58, 95
6, 344640, Note_on_c, 6, 62, 95
6, 345120, Note_off_c, 6, 62, 95
6, 345120, Note_on_c, 6, 63, 95
6, 345600, Note_off_c, 6, 63, 95
6, 345600, Note_on_c, 6, 65, 95
6, 346080, Note_off_c, 6, 65, 95
6, 346080, Note_on_c, 6, 66, 95
6, 346560, Note_off_c, 6, 66, 95
6, 346560, Note_on_c, 6, 65, 95
6, 347040, Note_off_c, 6, 65, 95
6, 347040, Note_on_c, 6, 62, 95
6, 347520, Note_off_c, 6, 62, 95
6, 347520, Note_on_c, 6, 63, 95
6, 348000, Note_off_c, 6, 63, 95
6, 348000, Note_on_c, 6, 65, 95
6, 348480, Note_off_c, 6, 65, 95
6, 348480, Note_on_c, 6, 66, 95
6, 348960, Note_off_c, 6, 66, 95
6, 348960, Note_on_c, 6, 69, 95
6, 349440, Note_off_c, 6, 69, 95
6, 349440, Note_on_c, 6, 70, 95
6, 349920, Note_off_c, 6, 70, 95
6, 349920, Note_on_c, 6, 71, 95
6, 350400, Note_off_c, 6, 71, 95
6, 350400, Note_on_c, 6, 69, 95
6, 350880, Note_off_c, 6, 69, 95
6, 350880, Note_on_c, 6, 70, 95
6, 351360, Note_off_c, 6, 70, 95
6, 351360, Note_on_c, 6, 74, 95
6, 351840, Note_off_c, 6, 74, 95
6, 351840, Note_on_c, 6, 75, 95
6, 352320, Note_off_c, 6, 75, 95
6, 352320, Note_on_c, 6, 78, 95
6, 353280, Note_off_c, 6, 78, 95
6, 356160, Note_on_c, 6, 67, 95
6, 357120, Note_off_c, 6, 67, 95
6, 357120, Note_on_c, 6, 65, 95
6, 358080, Note_off_c, 6, 65, 95
6, 358080, Note_on_c, 6, 70, 95
6, 359040, Note_off_c, 6, 70, 95
6, 359040, Note_on_c, 6, 72, 95
6, 359520, Note_off_c, 6, 72, 95
6, 359520, Note_on_c, 6, 77, 95
6, 360000, Note_off_c, 6, 77, 95
6, 360000, Note_on_c, 6, 74, 95
6, 360960, Note_off_c, 6, 74, 95
6, 360960, Note_on_c, 6, 72, 95
6, 361440, Note_off_c, 6, 72, 95
6, 361440, Note_on_c, 6, 77, 95
6, 361920, Note_off_c, 6, 77, 95
6, 361920, Note_on_c, 6, 74, 95
6, 362880, Note_off_c, 6, 74, 95
6, 362880, Note_on_c, 6, 70, 95
6, 363840, Note_off_c, 6, 70, 95
6, 363840, Note_on_c, 6, 72, 95
6, 364800, Note_off_c, 6, 72, 95
6, 364800, Note_on_c, 6, 67, 95
6, 365760, Note_off_c, 6, 67, 95
6, 365760, Note_on_c, 6, 65, 95
6, 366720, Note_off_c, 6, 65, 95
6, 366720, Note_on_c, 6, 67, 95
6, 367200, Note_off_c, 6, 67, 95
6, 367200, Note_on_c, 6, 70, 95
6, 367680, Note_off_c, 6, 70, 95
6, 367680, Note_on_c, 6, 65, 95
6, 368640, Note_off_c, 6, 65, 95
6, 368640, Note_on_c, 6, 67, 95
6, 369600, Note_off_c, 6, 67, 95
6, 369600, Note_on_c, 6, 65, 95
6, 370560, Note_off_c, 6, 65, 95
6, 370560, Note_on_c, 6, 67, 95
6, 371040, Note_off_c, 6, 67, 95
6, 371040, Note_on_c, 6, 70, 95
6, 371520, Note_off_c, 6, 70, 95
6, 371520, Note_on_c, 6, 65, 95
6, 372480, Note_off_c, 6, 65, 95
6, 372480, Note_on_c, 6, 67, 95
6, 373440, Note_off_c, 6, 67, 95
6, 373440, Note_on_c, 6, 65, 95
6, 374400, Note_off_c, 6, 65, 95
6, 374400, Note_on_c, 6, 58, 95
6, 375360, Note_off_c, 6, 58, 95
6, 375360, Note_on_c, 6, 60, 95
6, 375840, Note_off_c, 6, 60, 95
6, 375840, Note_on_c, 6, 65, 95
6, 376320, Note_off_c, 6, 65, 95
6, 376320, Note_on_c, 6, 62, 95
6, 377280, Note_off_c, 6, 62, 95
6, 377280, Note_on_c, 6, 60, 95
6, 377760, Note_off_c, 6, 60, 95
6, 377760, Note_on_c, 6, 65, 95
6, 378240, Note_off_c, 6, 65, 95
6, 378240, Note_on_c, 6, 62, 95
6, 379200, Note_off_c, 6, 62, 95
6, 379200, Note_on_c, 6, 58, 95
6, 380160, Note_off_c, 6, 58, 95
6, 380160, Note_on_c, 6, 60, 95
6, 381120, Note_off_c, 6, 60, 95
6, 381120, Note_on_c, 6, 67, 95
6, 382080, Note_off_c, 6, 67, 95
6, 382080, Note_on_c, 6, 65, 95
6, 383040, Note_off_c, 6, 65, 95
6, 383040, Note_on_c, 6, 62, 95
6, 384000, Note_off_c, 6, 62, 95
6, 384000, Note_on_c, 6, 65, 95
6, 384960, Note_off_c, 6, 65, 95
6, 384960, Note_on_c, 6, 58, 95
6, 385920, Note_off_c, 6, 58, 95
6, 385920, Note_on_c, 6, 60, 95
6, 386400, Note_off_c, 6, 60, 95
6, 386400, Note_on_c, 6, 65, 95
6, 386880, Note_off_c, 6, 65, 95
6, 386880, Note_on_c, 6, 62, 95
6, 387840, Note_off_c, 6, 62, 95
6, 387840, Note_on_c, 6, 58, 95
6, 388800, Note_off_c, 6, 58, 95
6, 388800, Note_on_c, 6, 63, 95
6, 389760, Note_off_c, 6, 63, 95
6, 389760, Note_on_c, 6, 60, 95
6, 390720, Note_off_c, 6, 60, 95
6, 390720, Note_on_c, 6, 62, 95
6, 393600, Note_off_c, 6, 62, 95
6, 395520, Note_on_c, 6, 66, 95
6, 396480, Note_off_c, 6, 66, 95
6, 396480, Note_on_c, 6, 63, 95
6, 396960, Note_off_c, 6, 63, 95
6, 397440, Note_on_c, 6, 66, 95
6, 398400, Note_off_c, 6, 66, 95
6, 398400, Note_on_c, 6, 63, 95
6, 398880, Note_off_c, 6, 63, 95
6, 399360, Note_on_c, 6, 66, 95
6, 399840, Note_off_c, 6, 66, 95
6, 399840, Note_on_c, 6, 68, 95
6, 400080, Note_off_c, 6, 68, 95
6, 400080, Note_on_c, 6, 66, 95
6, 400320, Note_off_c, 6, 66, 95
6, 400320, Note_on_c, 6, 64, 95
6, 400560, Note_off_c, 6, 64, 95
6, 400560, Note_on_c, 6, 63, 95
6, 400800, Note_off_c, 6, 63, 95
6, 400800, Note_on_c, 6, 61, 95
6, 401040, Note_off_c, 6, 61, 95
6, 401040, Note_on_c, 6, 63, 95
6, 401280, Note_off_c, 6, 63, 95
6, 401280, Note_on_c, 6, 64, 95
6, 401520, Note_off_c, 6, 64, 95
6, 401520, Note_on_c, 6, 63, 95
6, 401760, Note_off_c, 6, 63, 95
6, 401760, Note_on_c, 6, 66, 95
6, 402000, Note_off_c, 6, 66, 95
6, 402000, Note_on_c, 6, 64, 95
6, 402240, Note_off_c, 6, 64, 95
6, 402240, Note_on_c, 6, 68, 95
6, 402480, Note_off_c, 6, 68, 95
6, 402480, Note_on_c, 6, 66, 95
6, 402720, Note_off_c, 6, 66, 95
6, 402720, Note_on_c, 6, 64, 95
6, 402960, Note_off_c, 6, 64, 95
6, 402960, Note_on_c, 6, 63, 95
6, 403200, Note_off_c, 6, 63, 95
6, 403200, Note_on_c, 6, 66, 95
6, 404160, Note_off_c, 6, 66, 95
6, 404160, Note_on_c, 6, 63, 95
6, 404640, Note_off_c, 6, 63, 95
6, 405120, Note_on_c, 6, 66, 95
6, 406080, Note_off_c, 6, 66, 95
6, 406080, Note_on_c, 6, 63, 95
6, 406560, Note_off_c, 6, 63, 95
6, 407040, Note_on_c, 6, 66, 95
6, 407520, Note_off_c, 6, 66, 95
6, 407520, Note_on_c, 6, 68, 95
6, 407760, Note_off_c, 6, 68, 95
6, 407760, Note_on_c, 6, 66, 95
6, 408000, Note_off_c, 6, 66, 95
6, 408000, Note_on_c, 6, 64, 95
6, 408240, Note_off_c, 6, 64, 95
6, 408240, Note_on_c, 6, 63, 95
6, 408480, Note_off_c, 6, 63, 95
6, 408480, Note_on_c, 6, 61, 95
6, 408720, Note_off_c, 6, 61, 95
6, 408720, Note_on_c, 6, 63, 95
6, 408960, Note_off_c, 6, 63, 95
6, 408960, Note_on_c, 6, 64, 95
6, 409200, Note_off_c, 6, 64, 95
6, 409200, Note_on_c, 6, 63, 95
6, 409440, Note_off_c, 6, 63, 95
6, 409440, Note_on_c, 6, 66, 95
6, 409680, Note_off_c, 6, 66, 95
6, 409680, Note_on_c, 6, 64, 95
6, 409920, Note_off_c, 6, 64, 95
6, 409920, Note_on_c, 6, 68, 95
6, 410160, Note_off_c, 6, 68, 95
6, 410160, Note_on_c, 6, 66, 95
6, 410400, Note_off_c, 6, 66, 95
6, 410400, Note_on_c, 6, 64, 95
6, 410640, Note_off_c, 6, 64, 95
6, 410640, Note_on_c, 6, 63, 95
6, 410880, Note_off_c, 6, 63, 95
6, 410880, Note_on_c, 6, 68, 95
6, 411840, Note_off_c, 6, 68, 95
6, 411840, Note_on_c, 6, 63, 95
6, 412320, Note_off_c, 6, 63, 95
6, 412800, Note_on_c, 6, 68, 95
6, 413760, Note_off_c, 6, 68, 95
6, 413760, Note_on_c, 6, 63, 95
6, 414240, Note_off_c, 6, 63, 95
6, 414720, Note_on_c, 6, 68, 95
6, 415200, Note_off_c, 6, 68, 95
6, 415200, Note_on_c, 6, 71, 95
6, 415440, Note_off_c, 6, 71, 95
6, 415440, Note_on_c, 6, 70, 95
6, 415680, Note_off_c, 6, 70, 95
6, 415680, Note_on_c, 6, 68, 95
6, 415920, Note_off_c, 6, 68, 95
6, 415920, Note_on_c, 6, 66, 95
6, 416160, Note_off_c, 6, 66, 95
6, 416160, Note_on_c, 6, 64, 95
6, 416400, Note_off_c, 6, 64, 95
6, 416400, Note_on_c, 6, 63, 95
6, 416640, Note_off_c, 6, 63, 95
6, 416640, Note_on_c, 6, 61, 95
6, 416880, Note_off_c, 6, 61, 95
6, 416880, Note_on_c, 6, 63, 95
6, 417120, Note_off_c, 6, 63, 95
6, 417120, Note_on_c, 6, 64, 95
6, 417360, Note_off_c, 6, 64, 95
6, 417360, Note_on_c, 6, 63, 95
6, 417600, Note_off_c, 6, 63, 95
6, 417600, Note_on_c, 6, 68, 95
6, 417840, Note_off_c, 6, 68, 95
6, 417840, Note_on_c, 6, 66, 95
6, 418080, Note_off_c, 6, 66, 95
6, 418080, Note_on_c, 6, 64, 95
6, 418320, Note_off_c, 6, 64, 95
6, 418320, Note_on_c, 6, 63, 95
6, 418560, Note_off_c, 6, 63, 95
6, 418560, Note_on_c, 6, 68, 95
6, 419520, Note_off_c, 6, 68, 95
6, 419520, Note_on_c, 6, 63, 95
6, 420000, Note_off_c, 6, 63, 95
6, 420480, Note_on_c, 6, 68, 95
6, 421440, Note_off_c, 6, 68, 95
6, 421440, Note_on_c, 6, 63, 95
6, 421920, Note_off_c, 6, 63, 95
6, 422400, Note_on_c, 6, 69, 95
6, 423360, Note_off_c, 6, 69, 95
6, 423360, Note_on_c, 6, 63, 95
6, 423840, Note_off_c, 6, 63, 95
6, 424320, Note_on_c, 6, 69, 95
6, 424800, Note_off_c, 6, 69, 95
6, 424800, Note_on_c, 6, 73, 95
6, 425040, Note_off_c, 6, 73, 95
6, 425040, Note_on_c, 6, 71, 95
6, 425280, Note_off_c, 6, 71, 95
6, 425280, Note_on_c, 6, 69, 95
6, 425520, Note_off_c, 6, 69, 95
6, 425520, Note_on_c, 6, 68, 95
6, 425760, Note_off_c, 6, 68, 95
6, 425760, Note_on_c, 6, 66, 95
6, 426000, Note_off_c, 6, 66, 95
6, 426000, Note_on_c, 6, 64, 95
6, 426240, Note_off_c, 6, 64, 95
6, 426240, Note_on_c, 6, 69, 95
6, 427200, Note_off_c, 6, 69, 95
6, 427200, Note_on_c, 6, 63, 95
6, 427680, Note_off_c, 6, 63, 95
6, 428160, Note_on_c, 6, 69, 95
6, 428640, Note_off_c, 6, 69, 95
6, 428640, Note_on_c, 6, 73, 95
6, 428880, Note_off_c, 6, 73, 95
6, 428880, Note_on_c, 6, 71, 95
6, 429120, Note_off_c, 6, 71, 95
6, 429120, Note_on_c, 6, 69, 95
6, 429360, Note_off_c, 6, 69, 95
6, 429360, Note_on_c, 6, 68, 95
6, 429600, Note_off_c, 6, 68, 95
6, 429600, Note_on_c, 6, 66, 95
6, 429840, Note_off_c, 6, 66, 95
6, 429840, Note_on_c, 6, 64, 95
6, 430080, Note_off_c, 6, 64, 95
6, 430080, Note_on_c, 6, 76, 95
6, 430320, Note_off_c, 6, 76, 95
6, 430320, Note_on_c, 6, 75, 95
6, 430560, Note_off_c, 6, 75, 95
6, 430560, Note_on_c, 6, 73, 95
6, 430800, Note_off_c, 6, 73, 95
6, 430800, Note_on_c, 6, 71, 95
6, 431040, Note_off_c, 6, 71, 95
6, 431040, Note_on_c, 6, 69, 95
6, 431280, Note_off_c, 6, 69, 95
6, 431280, Note_on_c, 6, 68, 95
6, 431520, Note_off_c, 6, 68, 95
6, 431520, Note_on_c, 6, 66, 95
6, 431760, Note_off_c, 6, 66, 95
6, 431760, Note_on_c, 6, 64, 95
6, 432000, Note_off_c, 6, 64, 95
6, 432000, Note_on_c, 6, 64, 95
6, 433920, Note_off_c, 6, 64, 95
6, 433920, Note_on_c, 6, 66, 95
6, 434880, Note_off_c, 6, 66, 95
6, 434880, Note_on_c, 6, 63, 95
6, 435360, Note_off_c, 6, 63, 95
6, 435840, Note_on_c, 6, 66, 95
6, 436800, Note_off_c, 6, 66, 95
6, 436800, Note_on_c, 6, 63, 95
6, 437280, Note_off_c, 6, 63, 95
6, 437760, Note_on_c, 6, 66, 95
6, 438240, Note_off_c, 6, 66, 95
6, 438240, Note_on_c, 6, 68, 95
6, 438480, Note_off_c, 6, 68, 95
6, 438480, Note_on_c, 6, 66, 95
6, 438720, Note_off_c, 6, 66, 95
6, 438720, Note_on_c, 6, 64, 95
6, 438960, Note_off_c, 6, 64, 95
6, 438960, Note_on_c, 6, 63, 95
6, 439200, Note_off_c, 6, 63, 95
6, 439200, Note_on_c, 6, 61, 95
6, 439440, Note_off_c, 6, 61, 95
6, 439440, Note_on_c, 6, 63, 95
6, 439680, Note_off_c, 6, 63, 95
6, 439680, Note_on_c, 6, 64, 95
6, 439920, Note_off_c, 6, 64, 95
6, 439920, Note_on_c, 6, 63, 95
6, 440160, Note_off_c, 6, 63, 95
6, 440160, Note_on_c, 6, 66, 95
6, 440400, Note_off_c, 6, 66, 95
6, 440400, Note_on_c, 6, 64, 95
6, 440640, Note_off_c, 6, 64, 95
6, 440640, Note_on_c, 6, 68, 95
6, 440880, Note_off_c, 6, 68, 95
6, 440880, Note_on_c, 6, 66, 95
6, 441120, Note_off_c, 6, 66, 95
6, 441120, Note_on_c, 6, 64, 95
6, 441360, Note_off_c, 6, 64, 95
6, 441360, Note_on_c, 6, 63, 95
6, 441600, Note_off_c, 6, 63, 95
6, 441600, Note_on_c, 6, 66, 95
6, 442560, Note_off_c, 6, 66, 95
6, 442560, Note_on_c, 6, 63, 95
6, 443040, Note_off_c, 6, 63, 95
6, 443520, Note_on_c, 6, 66, 95
6, 444480, Note_off_c, 6, 66, 95
6, 444480, Note_on_c, 6, 63, 95
6, 444960, Note_off_c, 6, 63, 95
6, 445440, Note_on_c, 6, 66, 95
6, 445920, Note_off_c, 6, 66, 95
6, 445920, Note_on_c, 6, 68, 95
6, 446160, Note_off_c, 6, 68, 95
6, 446160, Note_on_c, 6, 66, 95
6, 446400, Note_off_c, 6, 66, 95
6, 446400, Note_on_c, 6, 64, 95
6, 446640, Note_off_c, 6, 64, 95
6, 446640, Note_on_c, 6, 63, 95
6, 446880, Note_off_c, 6, 63, 95
6, 446880, Note_on_c, 6, 61, 95
6, 447120, Note_off_c, 6, 61, 95
6, 447120, Note_on_c, 6, 63, 95
6, 447360, Note_off_c, 6, 63, 95
6, 447360, Note_on_c, 6, 64, 95
6, 447600, Note_off_c, 6, 64, 95
6, 447600, Note_on_c, 6, 63, 95
6, 447840, Note_off_c, 6, 63, 95
6, 447840, Note_on_c, 6, 66, 95
6, 448080, Note_off_c, 6, 66, 95
6, 448080, Note_on_c, 6, 64, 95
6, 448320, Note_off_c, 6, 64, 95
6, 448320, Note_on_c, 6, 68, 95
6, 448560, Note_off_c, 6, 68, 95
6, 448560, Note_on_c, 6, 66, 95
6, 448800, Note_off_c, 6, 66, 95
6, 448800, Note_on_c, 6, 64, 95
6, 449040, Note_off_c, 6, 64, 95
6, 449040, Note_on_c, 6, 63, 95
6, 449280, Note_off_c, 6, 63, 95
6, 449280, Note_on_c, 6, 68, 95
6, 450240, Note_off_c, 6, 68, 95
6, 450240, Note_on_c, 6, 63, 95
6, 450720, Note_off_c, 6, 63, 95
6, 451200, Note_on_c, 6, 68, 95
6, 452160, Note_off_c, 6, 68, 95
6, 452160, Note_on_c, 6, 63, 95
6, 452640, Note_off_c, 6, 63, 95
6, 453120, Note_on_c, 6, 68, 95
6, 453600, Note_off_c, 6, 68, 95
6, 453600, Note_on_c, 6, 71, 95
6, 453840, Note_off_c, 6, 71, 95
6, 453840, Note_on_c, 6, 70, 95
6, 454080, Note_off_c, 6, 70, 95
6, 454080, Note_on_c, 6, 68, 95
6, 454320, Note_off_c, 6, 68, 95
6, 454320, Note_on_c, 6, 66, 95
6, 454560, Note_off_c, 6, 66, 95
6, 454560, Note_on_c, 6, 64, 95
6, 454800, Note_off_c, 6, 64, 95
6, 454800, Note_on_c, 6, 63, 95
6, 455040, Note_off_c, 6, 63, 95
6, 455040, Note_on_c, 6, 61, 95
6, 455280, Note_off_c, 6, 61, 95
6, 455280, Note_on_c, 6, 63, 95
6, 455520, Note_off_c, 6, 63, 95
6, 455520, Note_on_c, 6, 64, 95
6, 455760, Note_off_c, 6, 64, 95
6, 455760, Note_on_c, 6, 63, 95
6, 456000, Note_off_c, 6, 63, 95
6, 456000, Note_on_c, 6, 68, 95
6, 456240, Note_off_c, 6, 68, 95
6, 456240, Note_on_c, 6, 66, 95
6, 456480, Note_off_c, 6, 66, 95
6, 456480, Note_on_c, 6, 64, 95
6, 456720, Note_off_c, 6, 64, 95
6, 456720, Note_on_c, 6, 63, 95
6, 456960, Note_off_c, 6, 63, 95
6, 456960, Note_on_c, 6, 68, 95
6, 457920, Note_off_c, 6, 68, 95
6, 457920, Note_on_c, 6, 63, 95
6, 458400, Note_off_c, 6, 63, 95
6, 458880, Note_on_c, 6, 68, 95
6, 459840, Note_off_c, 6, 68, 95
6, 459840, Note_on_c, 6, 63, 95
6, 460320, Note_off_c, 6, 63, 95
6, 460800, Note_on_c, 6, 69, 95
6, 461760, Note_off_c, 6, 69, 95
6, 461760, Note_on_c, 6, 63, 95
6, 462240, Note_off_c, 6, 63, 95
6, 462720, Note_on_c, 6, 69, 95
6, 463200, Note_off_c, 6, 69, 95
6, 463200, Note_on_c, 6, 73, 95
6, 463440, Note_off_c, 6, 73, 95
6, 463440, Note_on_c, 6, 71, 95
6, 463680, Note_off_c, 6, 71, 95
6, 463680, Note_on_c, 6, 69, 95
6, 463920, Note_off_c, 6, 69, 95
6, 463920, Note_on_c, 6, 68, 95
6, 464160, Note_off_c, 6, 68, 95
6, 464160, Note_on_c, 6, 66, 95
6, 464400, Note_off_c, 6, 66, 95
6, 464400, Note_on_c, 6, 64, 95
6, 464640, Note_off_c, 6, 64, 95
6, 464640, Note_on_c, 6, 69, 95
6, 465600, Note_off_c, 6, 69, 95
6, 465600, Note_on_c, 6, 63, 95
6, 466080, Note_off_c, 6, 63, 95
6, 466560, Note_on_c, 6, 69, 95
6, 467040, Note_off_c, 6, 69, 95
6, 467040, Note_on_c, 6, 73, 95
6, 467280, Note_off_c, 6, 73, 95
6, 467280, Note_on_c, 6, 71, 95
6, 467520, Note_off_c, 6, 71, 95
6, 467520, Note_on_c, 6, 69, 95
6, 467760, Note_off_c, 6, 69, 95
6, 467760, Note_on_c, 6, 68, 95
6, 468000, Note_off_c, 6, 68, 95
6, 468000, Note_on_c, 6, 66, 95
6, 468240, Note_off_c, 6, 66, 95
6, 468240, Note_on_c, 6, 64, 95
6, 468480, Note_off_c, 6, 64, 95
6, 468480, Note_on_c, 6, 76, 95
6, 468720, Note_off_c, 6, 76, 95
6, 468720, Note_on_c, 6, 75, 95
6, 468960, Note_off_c, 6, 75, 95
6, 468960, Note_on_c, 6, 73, 95
6, 469200, Note_off_c, 6, 73, 95
6, 469200, Note_on_c, 6, 71, 95
6, 469440, Note_off_c, 6, 71, 95
6, 469440, Note_on_c, 6, 69, 95
6, 469680, Note_off_c, 6, 69, 95
6, 469680, Note_on_c, 6, 68, 95
6, 469920, Note_off_c, 6, 68, 95
6, 469920, Note_on_c, 6, 66, 95
6, 470160, Note_off_c, 6, 66, 95
6, 470160, Note_on_c, 6, 64, 95
6, 470400, Note_off_c, 6, 64, 95
6, 470400, Note_on_c, 6, 64, 95
6, 472320, Note_off_c, 6, 64, 95
6, 472320, Note_on_c, 6, 58, 95
6, 473760, Note_off_c, 6, 58, 95
6, 473760, Note_on_c, 6, 59, 95
6, 474240, Note_off_c, 6, 59, 95
6, 474240, Note_on_c, 6, 60, 95
6, 474720, Note_off_c, 6, 60, 95
6, 474720, Note_on_c, 6, 66, 95
6, 475200, Note_off_c, 6, 66, 95
6, 475200, Note_on_c, 6, 60, 95
6, 475680, Note_off_c, 6, 60, 95
6, 475680, Note_on_c, 6, 59, 95
6, 476160, Note_off_c, 6, 59, 95
6, 476160, Note_on_c, 6, 58, 95
6, 477600, Note_off_c, 6, 58, 95
6, 477600, Note_on_c, 6, 59, 95
6, 477840, Note_off_c, 6, 59, 95
6, 477840, Note_on_c, 6, 61, 95
6, 478080, Note_off_c, 6, 61, 95
6, 478080, Note_on_c, 6, 59, 95
6, 478560, Note_off_c, 6, 59, 95
6, 478560, Note_on_c, 6, 71, 95
6, 478800, Note_off_c, 6, 71, 95
6, 478800, Note_on_c, 6, 68, 95
6, 479040, Note_off_c, 6, 68, 95
6, 479040, Note_on_c, 6, 66, 95
6, 479280, Note_off_c, 6, 66, 95
6, 479280, Note_on_c, 6, 62, 95
6, 479520, Note_off_c, 6, 62, 95
6, 479520, Note_on_c, 6, 59, 95
6, 479760, Note_off_c, 6, 59, 95
6, 479760, Note_on_c, 6, 54, 95
6, 480000, Note_off_c, 6, 54, 95
6, 480000, Note_on_c, 6, 58, 95
6, 481440, Note_off_c, 6, 58, 95
6, 481440, Note_on_c, 6, 59, 95
6, 481920, Note_off_c, 6, 59, 95
6, 481920, Note_on_c, 6, 60, 95
6, 482400, Note_off_c, 6, 60, 95
6, 482400, Note_on_c, 6, 65, 95
6, 482880, Note_off_c, 6, 65, 95
6, 482880, Note_on_c, 6, 63, 95
6, 483360, Note_off_c, 6, 63, 95
6, 483360, Note_on_c, 6, 65, 95
6, 483840, Note_off_c, 6, 65, 95
6, 483840, Note_on_c, 6, 58, 95
6, 484800, Note_off_c, 6, 58, 95
6, 484800, Note_on_c, 6, 60, 95
6, 485280, Note_off_c, 6, 60, 95
6, 485280, Note_on_c, 6, 65, 95
6, 485760, Note_off_c, 6, 65, 95
6, 485760, Note_on_c, 6, 58, 95
6, 486720, Note_off_c, 6, 58, 95
6, 486720, Note_on_c, 6, 60, 95
6, 487200, Note_off_c, 6, 60, 95
6, 487200, Note_on_c, 6, 65, 95
6, 487680, Note_off_c, 6, 65, 95
6, 487680, Note_on_c, 6, 58, 95
6, 489120, Note_off_c, 6, 58, 95
6, 489120, Note_on_c, 6, 59, 95
6, 489600, Note_off_c, 6, 59, 95
6, 489600, Note_on_c, 6, 60, 95
6, 490080, Note_off_c, 6, 60, 95
6, 490080, Note_on_c, 6, 66, 95
6, 490560, Note_off_c, 6, 66, 95
6, 490560, Note_on_c, 6, 60, 95
6, 491040, Note_off_c, 6, 60, 95
6, 491040, Note_on_c, 6, 59, 95
6, 491520, Note_off_c, 6, 59, 95
6, 491520, Note_on_c, 6, 58, 95
6, 492960, Note_off_c, 6, 58, 95
6, 492960, Note_on_c, 6, 59, 95
6, 493200, Note_off_c, 6, 59, 95
6, 493200, Note_on_c, 6, 61, 95
6, 493440, Note_off_c, 6, 61, 95
6, 493440, Note_on_c, 6, 59, 95
6, 493920, Note_off_c, 6, 59, 95
6, 493920, Note_on_c, 6, 71, 95
6, 494160, Note_off_c, 6, 71, 95
6, 494160, Note_on_c, 6, 68, 95
6, 494400, Note_off_c, 6, 68, 95
6, 494400, Note_on_c, 6, 66, 95
6, 494640, Note_off_c, 6, 66, 95
6, 494640, Note_on_c, 6, 62, 95
6, 494880, Note_off_c, 6, 62, 95
6, 494880, Note_on_c, 6, 59, 95
6, 495120, Note_off_c, 6, 59, 95
6, 495120, Note_on_c, 6, 54, 95
6, 495360, Note_off_c, 6, 54, 95
6, 495360, Note_on_c, 6, 58, 95
6, 496800, Note_off_c, 6, 58, 95
6, 496800, Note_on_c, 6, 59, 95
6, 497280, Note_off_c, 6, 59, 95
6, 497280, Note_on_c, 6, 60, 95
6, 497760, Note_off_c, 6, 60, 95
6, 497760, Note_on_c, 6, 65, 95
6, 498240, Note_off_c, 6, 65, 95
6, 498240, Note_on_c, 6, 63, 95
6, 498720, Note_off_c, 6, 63, 95
6, 498720, Note_on_c, 6, 65, 95
6, 499200, Note_off_c, 6, 65, 95
6, 499200, Note_on_c, 6, 58, 95
6, 500160, Note_off_c, 6, 58, 95
6, 500160, Note_on_c, 6, 60, 95
6, 500640, Note_off_c, 6, 60, 95
6, 500640, Note_on_c, 6, 65, 95
6, 501120, Note_off_c, 6, 65, 95
6, 501120, Note_on_c, 6, 58, 95
6, 502080, Note_off_c, 6, 58, 95
6, 502080, Note_on_c, 6, 60, 95
6, 502320, Note_off_c, 6, 60, 95
6, 502320, Note_on_c, 6, 62, 79
6, 502560, Note_off_c, 6, 62, 79
6, 502560, Note_on_c, 6, 65, 95
6, 502800, Note_off_c, 6, 65, 95
6, 502800, Note_on_c, 6, 67, 79
6, 503040, Note_off_c, 6, 67, 79
6, 503040, Note_on_c, 6, 66, 95
6, 504000, Note_off_c, 6, 66, 95
6, 504000, Note_on_c, 6, 59, 95
6, 504240, Note_off_c, 6, 59, 95
6, 504240, Note_on_c, 6, 60, 95
6, 504480, Note_off_c, 6, 60, 95
6, 504480, Note_on_c, 6, 61, 95
6, 504720, Note_off_c, 6, 61, 95
6, 504720, Note_on_c, 6, 62, 95
6, 504960, Note_off_c, 6, 62, 95
6, 504960, Note_on_c, 6, 66, 95
6, 505920, Note_off_c, 6, 66, 95
6, 505920, Note_on_c, 6, 59, 95
6, 506160, Note_off_c, 6, 59, 95
6, 506160, Note_on_c, 6, 60, 95
6, 506400, Note_off_c, 6, 60, 95
6, 506400, Note_on_c, 6, 61, 95
6, 506640, Note_off_c, 6, 61, 95
6, 506640, Note_on_c, 6, 62, 95
6, 506880, Note_off_c, 6, 62, 95
6, 506880, Note_on_c, 6, 67, 95
6, 507840, Note_off_c, 6, 67, 95
6, 507840, Note_on_c, 6, 60, 95
6, 508080, Note_off_c, 6, 60, 95
6, 508080, Note_on_c, 6, 61, 95
6, 508320, Note_off_c, 6, 61, 95
6, 508320, Note_on_c, 6, 62, 95
6, 508560, Note_off_c, 6, 62, 95
6, 508560, Note_on_c, 6, 63, 95
6, 508800, Note_off_c, 6, 63, 95
6, 508800, Note_on_c, 6, 67, 95
6, 509760, Note_off_c, 6, 67, 95
6, 509760, Note_on_c, 6, 60, 95
6, 510000, Note_off_c, 6, 60, 95
6, 510000, Note_on_c, 6, 61, 95
6, 510240, Note_off_c, 6, 61, 95
6, 510240, Note_on_c, 6, 62, 95
6, 510480, Note_off_c, 6, 62, 95
6, 510480, Note_on_c, 6, 63, 95
6, 510720, Note_off_c, 6, 63, 95
6, 510720, Note_on_c, 6, 68, 95
6, 511680, Note_off_c, 6, 68, 95
6, 511680, Note_on_c, 6, 61, 95
6, 511920, Note_off_c, 6, 61, 95
6, 511920, Note_on_c, 6, 62, 95
6, 512160, Note_off_c, 6, 62, 95
6, 512160, Note_on_c, 6, 63, 95
6, 512400, Note_off_c, 6, 63, 95
6, 512400, Note_on_c, 6, 64, 95
6, 512640, Note_off_c, 6, 64, 95
6, 512640, Note_on_c, 6, 68, 95
6, 513600, Note_off_c, 6, 68, 95
6, 513600, Note_on_c, 6, 61, 95
6, 513840, Note_off_c, 6, 61, 95
6, 513840, Note_on_c, 6, 62, 95
6, 514080, Note_off_c, 6, 62, 95
6, 514080, Note_on_c, 6, 63, 95
6, 514320, Note_off_c, 6, 63, 95
6, 514320, Note_on_c, 6, 64, 95
6, 514560, Note_off_c, 6, 64, 95
6, 514560, Note_on_c, 6, 69, 95
6, 515520, Note_off_c, 6, 69, 95
6, 515520, Note_on_c, 6, 62, 95
6, 515760, Note_off_c, 6, 62, 95
6, 515760, Note_on_c, 6, 63, 95
6, 516000, Note_off_c, 6, 63, 95
6, 516000, Note_on_c, 6, 64, 95
6, 516240, Note_off_c, 6, 64, 95
6, 516240, Note_on_c, 6, 65, 95
6, 516480, Note_off_c, 6, 65, 95
6, 516480, Note_on_c, 6, 66, 95
6, 516720, Note_off_c, 6, 66, 95
6, 516720, Note_on_c, 6, 67, 95
6, 516960, Note_off_c, 6, 67, 95
6, 516960, Note_on_c, 6, 68, 95
6, 517200, Note_off_c, 6, 68, 95
6, 517200, Note_on_c, 6, 69, 95
6, 517440, Note_off_c, 6, 69, 95
6, 517440, Note_on_c, 6, 70, 95
6, 518400, Note_off_c, 6, 70, 95
6, 518400, Note_on_c, 6, 66, 95
6, 519360, Note_off_c, 6, 66, 95
6, 519360, Note_on_c, 6, 63, 95
6, 519840, Note_off_c, 6, 63, 95
6, 520320, Note_on_c, 6, 66, 95
6, 521280, Note_off_c, 6, 66, 95
6, 521280, Note_on_c, 6, 63, 95
6, 521760, Note_off_c, 6, 63, 95
6, 522240, Note_on_c, 6, 66, 95
6, 522720, Note_off_c, 6, 66, 95
6, 522720, Note_on_c, 6, 68, 95
6, 522960, Note_off_c, 6, 68, 95
6, 522960, Note_on_c, 6, 66, 95
6, 523200, Note_off_c, 6, 66, 95
6, 523200, Note_on_c, 6, 64, 95
6, 523440, Note_off_c, 6, 64, 95
6, 523440, Note_on_c, 6, 63, 95
6, 523680, Note_off_c, 6, 63, 95
6, 523680, Note_on_c, 6, 61, 95
6, 523920, Note_off_c, 6, 61, 95
6, 523920, Note_on_c, 6, 63, 95
6, 524160, Note_off_c, 6, 63, 95
6, 524160, Note_on_c, 6, 64, 95
6, 524400, Note_off_c, 6, 64, 95
6, 524400, Note_on_c, 6, 63, 95
6, 524640, Note_off_c, 6, 63, 95
6, 524640, Note_on_c, 6, 66, 95
6, 524880, Note_off_c, 6, 66, 95
6, 524880, Note_on_c, 6, 64, 95
6, 525120, Note_off_c, 6, 64, 95
6, 525120, Note_on_c, 6, 68, 95
6, 525360, Note_off_c, 6, 68, 95
6, 525360, Note_on_c, 6, 66, 95
6, 525600, Note_off_c, 6, 66, 95
6, 525600, Note_on_c, 6, 64, 95
6, 525840, Note_off_c, 6, 64, 95
6, 525840, Note_on_c, 6, 63, 95
6, 526080, Note_off_c, 6, 63, 95
6, 526080, Note_on_c, 6, 66, 95
6, 527040, Note_off_c, 6, 66, 95
6, 527040, Note_on_c, 6, 63, 95
6, 527520, Note_off_c, 6, 63, 95
6, 528000, Note_on_c, 6, 66, 95
6, 528960, Note_off_c, 6, 66, 95
6, 528960, Note_on_c, 6, 63, 95
6, 529440, Note_off_c, 6, 63, 95
6, 529920, Note_on_c, 6, 66, 95
6, 530400, Note_off_c, 6, 66, 95
6, 530400, Note_on_c, 6, 68, 95
6, 530640, Note_off_c, 6, 68, 95
6, 530640, Note_on_c, 6, 66, 95
6, 530880, Note_off_c, 6, 66, 95
6, 530880, Note_on_c, 6, 64, 95
6, 531120, Note_off_c, 6, 64, 95
6, 531120, Note_on_c, 6, 63, 95
6, 531360, Note_off_c, 6, 63, 95
6, 531360, Note_on_c, 6, 61, 95
6, 531600, Note_off_c, 6, 61, 95
6, 531600, Note_on_c, 6, 63, 95
6, 531840, Note_off_c, 6, 63, 95
6, 531840, Note_on_c, 6, 64, 95
6, 532080, Note_off_c, 6, 64, 95
6, 532080, Note_on_c, 6, 63, 95
6, 532320, Note_off_c, 6, 63, 95
6, 532320, Note_on_c, 6, 66, 95
6, 532560, Note_off_c, 6, 66, 95
6, 532560, Note_on_c, 6, 64, 95
6, 532800, Note_off_c, 6, 64, 95
6, 532800, Note_on_c, 6, 68, 95
6, 533040, Note_off_c, 6, 68, 95
6, 533040, Note_on_c, 6, 66, 95
6, 533280, Note_off_c, 6, 66, 95
6, 533280, Note_on_c, 6, 64, 95
6, 533520, Note_off_c, 6, 64, 95
6, 533520, Note_on_c, 6, 63, 95
6, 533760, Note_off_c, 6, 63, 95
6, 533760, Note_on_c, 6, 66, 95
6, 534720, Note_off_c, 6, 66, 95
6, 534720, Note_on_c, 6, 63, 95
6, 535200, Note_off_c, 6, 63, 95
6, 536160, Note_on_c, 6, 62, 95
6, 536400, Note_off_c, 6, 62, 95
6, 536400, Note_on_c, 6, 63, 95
6, 536640, Note_off_c, 6, 63, 95
6, 536640, Note_on_c, 6, 65, 95
6, 536880, Note_off_c, 6, 65, 95
6, 536880, Note_on_c, 6, 66, 95
6, 537120, Note_off_c, 6, 66, 95
6, 537120, Note_on_c, 6, 70, 95
6, 537360, Note_off_c, 6, 70, 95
6, 537360, Note_on_c, 6, 71, 95
6, 537600, Note_off_c, 6, 71, 95
6, 537600, Note_on_c, 6, 78, 95
6, 540480, Note_off_c, 6, 78, 95
6, 540480, End_track
7, 0, Start_track
7, 0, Pitch_bend_c, 9, 8192
7, 0, Control_c, 9, 7, 83
7, 0, Control_c, 9, 10, 64
7, 0, Control_c, 9, 93, 0
7, 0, Control_c, 9, 91, 0
7, 0, Control_c, 9, 95, 0
7, 0, Control_c, 9, 92, 0
7, 0, Control_c, 9, 11, 127
7, 0, Program_c, 9, 0
7, 72000, Note_on_c, 9, 40, 15
7, 72060, Note_off_c, 9, 40, 15
7, 72060, Note_on_c, 9, 40, 15
7, 72120, Note_off_c, 9, 40, 15
7, 72120, Note_on_c, 9, 40, 15
7, 72180, Note_off_c, 9, 40, 15
7, 72180, Note_on_c, 9, 40, 15
7, 72240, Note_off_c, 9, 40, 15
7, 72240, Note_on_c, 9, 40, 15
7, 72300, Note_off_c, 9, 40, 15
7, 72300, Note_on_c, 9, 40, 31
7, 72360, Note_off_c, 9, 40, 31
7, 72360, Note_on_c, 9, 40, 31
7, 72420, Note_off_c, 9, 40, 31
7, 72420, Note_on_c, 9, 40, 31
7, 72480, Note_off_c, 9, 40, 31
7, 72480, Note_on_c, 9, 40, 31
7, 72540, Note_off_c, 9, 40, 31
7, 72540, Note_on_c, 9, 40, 47
7, 72600, Note_off_c, 9, 40, 47
7, 72600, Note_on_c, 9, 40, 47
7, 72660, Note_off_c, 9, 40, 47
7, 72660, Note_on_c, 9, 40, 47
7, 72720, Note_off_c, 9, 40, 47
7, 72720, Note_on_c, 9, 40, 47
7, 72780, Note_off_c, 9, 40, 47
7, 72780, Note_on_c, 9, 40, 47
7, 72840, Note_off_c, 9, 40, 47
7, 72840, Note_on_c, 9, 40, 63
7, 72900, Note_off_c, 9, 40, 63
7, 72900, Note_on_c, 9, 40, 63
7, 72960, Note_off_c, 9, 40, 63
7, 72960, Note_on_c, 9, 40, 63
7, 73020, Note_off_c, 9, 40, 63
7, 73020, Note_on_c, 9, 40, 63
7, 73080, Note_off_c, 9, 40, 63
7, 73080, Note_on_c, 9, 40, 79
7, 73140, Note_off_c, 9, 40, 79
7, 73140, Note_on_c, 9, 40, 79
7, 73200, Note_off_c, 9, 40, 79
7, 73200, Note_on_c, 9, 40, 79
7, 73260, Note_off_c, 9, 40, 79
7, 73260, Note_on_c, 9, 40, 95
7, 73320, Note_off_c, 9, 40, 95
7, 73320, Note_on_c, 9, 40, 95
7, 73380, Note_off_c, 9, 40, 95
7, 73380, Note_on_c, 9, 40, 95
7, 73440, Note_off_c, 9, 40, 95
7, 73440, Note_on_c, 9, 40, 111
7, 73500, Note_off_c, 9, 40, 111
7, 73500, Note_on_c, 9, 40, 111
7, 73560, Note_off_c, 9, 40, 111
7, 73560, Note_on_c, 9, 40, 111
7, 73620, Note_off_c, 9, 40, 111
7, 73620, Note_on_c, 9, 40, 127
7, 73680, Note_off_c, 9, 40, 127
7, 73680, Note_on_c, 9, 40, 127
7, 73740, Note_off_c, 9, 40, 127
7, 73740, Note_on_c, 9, 40, 127
7, 73800, Note_off_c, 9, 40, 127
7, 73800, Note_on_c, 9, 40, 127
7, 73860, Note_off_c, 9, 40, 127
7, 73860, Note_on_c, 9, 40, 127
7, 73920, Note_off_c, 9, 40, 127
7, 73920, Note_on_c, 9, 49, 79
7, 73920, Note_on_c, 9, 35, 79
7, 74880, Note_off_c, 9, 49, 79
7, 74880, Note_off_c, 9, 35, 79
7, 74880, Note_on_c, 9, 49, 79
7, 74880, Note_on_c, 9, 35, 79
7, 75840, Note_off_c, 9, 49, 79
7, 75840, Note_off_c, 9, 35, 79
7, 75840, Note_on_c, 9, 49, 79
7, 75840, Note_on_c, 9, 40, 79
7, 76800, Note_off_c, 9, 49, 79
7, 76800, Note_off_c, 9, 40, 79
7, 76800, Note_on_c, 9, 49, 79
7, 76800, Note_on_c, 9, 35, 79
7, 77280, Note_off_c, 9, 49, 79
7, 77280, Note_off_c, 9, 35, 79
7, 77280, Note_on_c, 9, 35, 79
7, 77280, Note_on_c, 9, 55, 79
7, 77760, Note_off_c, 9, 35, 79
7, 77760, Note_off_c, 9, 55, 79
7, 77760, Note_on_c, 9, 49, 79
7, 77760, Note_on_c, 9, 40, 79
7, 78720, Note_off_c, 9, 49, 79
7, 78720, Note_off_c, 9, 40, 79
7, 78720, Note_on_c, 9, 49, 79
7, 78720, Note_on_c, 9, 35, 79
7, 79200, Note_off_c, 9, 49, 79
7, 79200, Note_off_c, 9, 35, 79
7, 79200, Note_on_c, 9, 55, 79
7, 79200, Note_on_c, 9, 35, 79
7, 79680, Note_off_c, 9, 55, 79
7, 79680, Note_off_c, 9, 35, 79
7, 79680, Note_on_c, 9, 49, 79
7, 79680, Note_on_c, 9, 40, 79
7, 80640, Note_off_c, 9, 49, 79
7, 80640, Note_off_c, 9, 40, 79
7, 80640, Note_on_c, 9, 49, 79
7, 80640, Note_on_c, 9, 35, 79
7, 81600, Note_off_c, 9, 49, 79
7, 81600, Note_off_c, 9, 35, 79
7, 81600, Note_on_c, 9, 49, 79
7, 81600, Note_on_c, 9, 40, 79
7, 82560, Note_off_c, 9, 49, 79
7, 82560, Note_off_c, 9, 40, 79
7, 82560, Note_on_c, 9, 49, 79
7, 82560, Note_on_c, 9, 35, 79
7, 83520, Note_off_c, 9, 49, 79
7, 83520, Note_off_c, 9, 35, 79
7, 83520, Note_on_c, 9, 49, 79
7, 83520, Note_on_c, 9, 40, 79
7, 84480, Note_off_c, 9, 40, 79
7, 87360, Note_off_c, 9, 49, 79
7, 87360, Note_on_c, 9, 40, 127
7, 87840, Note_off_c, 9, 40, 127
7, 87840, Note_on_c, 9, 45, 127
7, 88320, Note_off_c, 9, 45, 127
7, 88320, Note_on_c, 9, 43, 127
7, 88800, Note_off_c, 9, 43, 127
7, 88800, Note_on_c, 9, 40, 127
7, 89280, Note_off_c, 9, 40, 127
7, 89280, Note_on_c, 9, 43, 127
7, 89760, Note_off_c, 9, 43, 127
7, 89760, Note_on_c, 9, 41, 127
7, 90240, Note_off_c, 9, 41, 127
7, 90240, Note_on_c, 9, 46, 127
7, 90240, Note_on_c, 9, 40, 127
7, 91200, Note_off_c, 9, 46, 127
7, 91200, Note_off_c, 9, 40, 127
7, 91200, Note_on_c, 9, 44, 95
7, 92160, Note_off_c, 9, 44, 95
7, 96000, Note_on_c, 9, 42, 127
7, 96960, Note_off_c, 9, 42, 127
7, 96960, Note_on_c, 9, 42, 127
7, 97920, Note_off_c, 9, 42, 127
7, 97920, Note_on_c, 9, 42, 127
7, 98880, Note_off_c, 9, 42, 127
7, 98880, Note_on_c, 9, 40, 127
7, 99360, Note_off_c, 9, 40, 127
7, 99360, Note_on_c, 9, 45, 127
7, 99840, Note_off_c, 9, 45, 127
7, 99840, Note_on_c, 9, 43, 127
7, 100320, Note_off_c, 9, 43, 127
7, 100320, Note_on_c, 9, 40, 127
7, 100800, Note_off_c, 9, 40, 127
7, 100800, Note_on_c, 9, 43, 127
7, 101280, Note_off_c, 9, 43, 127
7, 101280, Note_on_c, 9, 41, 127
7, 101760, Note_off_c, 9, 41, 127
7, 101760, Note_on_c, 9, 47, 95
7, 102240, Note_off_c, 9, 47, 95
7, 102240, Note_on_c, 9, 45, 95
7, 102720, Note_off_c, 9, 45, 95
7, 102720, Note_on_c, 9, 43, 95
7, 103200, Note_off_c, 9, 43, 95
7, 103200, Note_on_c, 9, 47, 95
7, 103680, Note_off_c, 9, 47, 95
7, 103680, Note_on_c, 9, 45, 95
7, 104160, Note_off_c, 9, 45, 95
7, 104160, Note_on_c, 9, 41, 95
7, 104640, Note_off_c, 9, 41, 95
7, 104640, Note_on_c, 9, 42, 95
7, 105600, Note_off_c, 9, 42, 95
7, 105600, Note_on_c, 9, 42, 95
7, 106560, Note_off_c, 9, 42, 95
7, 106560, Note_on_c, 9, 42, 95
7, 107520, Note_off_c, 9, 42, 95
7, 107520, Note_on_c, 9, 42, 95
7, 108480, Note_off_c, 9, 42, 95
7, 108480, Note_on_c, 9, 49, 95
7, 108480, Note_on_c, 9, 40, 95
7, 108480, Note_on_c, 9, 35, 95
7, 108960, Note_off_c, 9, 49, 95
7, 108960, Note_off_c, 9, 40, 95
7, 108960, Note_off_c, 9, 35, 95
7, 108960, Note_on_c, 9, 35, 95
7, 109440, Note_off_c, 9, 35, 95
7, 109440, Note_on_c, 9, 35, 95
7, 109440, Note_on_c, 9, 46, 95
7, 109920, Note_off_c, 9, 35, 95
7, 109920, Note_off_c, 9, 46, 95
7, 109920, Note_on_c, 9, 35, 95
7, 109920, Note_on_c, 9, 40, 95
7, 110400, Note_off_c, 9, 35, 95
7, 110400, Note_off_c, 9, 40, 95
7, 110400, Note_on_c, 9, 35, 95
7, 110400, Note_on_c, 9, 46, 95
7, 110880, Note_off_c, 9, 35, 95
7, 110880, Note_off_c, 9, 46, 95
7, 110880, Note_on_c, 9, 35, 95
7, 111360, Note_off_c, 9, 35, 95
7, 111360, Note_on_c, 9, 46, 95
7, 111360, Note_on_c, 9, 35, 95
7, 111360, Note_on_c, 9, 40, 95
7, 111840, Note_off_c, 9, 46, 95
7, 111840, Note_off_c, 9, 35, 95
7, 111840, Note_off_c, 9, 40, 95
7, 111840, Note_on_c, 9, 35, 95
7, 112320, Note_off_c, 9, 35, 95
7, 112320, Note_on_c, 9, 46, 95
7, 112320, Note_on_c, 9, 35, 95
7, 112800, Note_off_c, 9, 46, 95
7, 112800, Note_off_c, 9, 35, 95
7, 112800, Note_on_c, 9, 35, 95
7, 112800, Note_on_c, 9, 40, 95
7, 113280, Note_off_c, 9, 35, 95
7, 113280, Note_off_c, 9, 40, 95
7, 113280, Note_on_c, 9, 46, 95
7, 113280, Note_on_c, 9, 35, 95
7, 113760, Note_off_c, 9, 46, 95
7, 113760, Note_off_c, 9, 35, 95
7, 113760, Note_on_c, 9, 35, 95
7, 114240, Note_off_c, 9, 35, 95
7, 114240, Note_on_c, 9, 49, 95
7, 114240, Note_on_c, 9, 40, 95
7, 114240, Note_on_c, 9, 35, 95
7, 114720, Note_off_c, 9, 49, 95
7, 114720, Note_off_c, 9, 40, 95
7, 114720, Note_off_c, 9, 35, 95
7, 114720, Note_on_c, 9, 35, 95
7, 115200, Note_off_c, 9, 35, 95
7, 115200, Note_on_c, 9, 35, 95
7, 115200, Note_on_c, 9, 46, 95
7, 115680, Note_off_c, 9, 35, 95
7, 115680, Note_off_c, 9, 46, 95
7, 115680, Note_on_c, 9, 35, 95
7, 115680, Note_on_c, 9, 40, 95
7, 116160, Note_off_c, 9, 35, 95
7, 116160, Note_off_c, 9, 40, 95
7, 116160, Note_on_c, 9, 35, 95
7, 116160, Note_on_c, 9, 46, 95
7, 116640, Note_off_c, 9, 35, 95
7, 116640, Note_off_c, 9, 46, 95
7, 116640, Note_on_c, 9, 35, 95
7, 117120, Note_off_c, 9, 35, 95
7, 117120, Note_on_c, 9, 46, 95
7, 117120, Note_on_c, 9, 35, 95
7, 117120, Note_on_c, 9, 40, 95
7, 117600, Note_off_c, 9, 46, 95
7, 117600, Note_off_c, 9, 35, 95
7, 117600, Note_off_c, 9, 40, 95
7, 117600, Note_on_c, 9, 35, 95
7, 118080, Note_off_c, 9, 35, 95
7, 118080, Note_on_c, 9, 46, 95
7, 118080, Note_on_c, 9, 35, 95
7, 118560, Note_off_c, 9, 46, 95
7, 118560, Note_off_c, 9, 35, 95
7, 118560, Note_on_c, 9, 35, 95
7, 118560, Note_on_c, 9, 40, 95
7, 119040, Note_off_c, 9, 35, 95
7, 119040, Note_off_c, 9, 40, 95
7, 119040, Note_on_c, 9, 46, 95
7, 119040, Note_on_c, 9, 35, 95
7, 119520, Note_off_c, 9, 46, 95
7, 119520, Note_off_c, 9, 35, 95
7, 119520, Note_on_c, 9, 35, 95
7, 120000, Note_off_c, 9, 35, 95
7, 120000, Note_on_c, 9, 46, 95
7, 120000, Note_on_c, 9, 35, 95
7, 120000, Note_on_c, 9, 40, 95
7, 120480, Note_off_c, 9, 46, 95
7, 120480, Note_off_c, 9, 35, 95
7, 120480, Note_off_c, 9, 40, 95
7, 120480, Note_on_c, 9, 35, 95
7, 120960, Note_off_c, 9, 35, 95
7, 120960, Note_on_c, 9, 46, 95
7, 120960, Note_on_c, 9, 35, 95
7, 121440, Note_off_c, 9, 46, 95
7, 121440, Note_off_c, 9, 35, 95
7, 121440, Note_on_c, 9, 35, 95
7, 121440, Note_on_c, 9, 40, 95
7, 121920, Note_off_c, 9, 35, 95
7, 121920, Note_off_c, 9, 40, 95
7, 121920, Note_on_c, 9, 46, 95
7, 121920, Note_on_c, 9, 35, 95
7, 122400, Note_off_c, 9, 46, 95
7, 122400, Note_off_c, 9, 35, 95
7, 122400, Note_on_c, 9, 35, 95
7, 122880, Note_off_c, 9, 35, 95
7, 122880, Note_on_c, 9, 46, 95
7, 122880, Note_on_c, 9, 35, 95
7, 122880, Note_on_c, 9, 40, 95
7, 123360, Note_off_c, 9, 46, 95
7, 123360, Note_off_c, 9, 35, 95
7, 123360, Note_off_c, 9, 40, 95
7, 123360, Note_on_c, 9, 35, 95
7, 123840, Note_off_c, 9, 35, 95
7, 123840, Note_on_c, 9, 46, 95
7, 123840, Note_on_c, 9, 35, 95
7, 124320, Note_off_c, 9, 46, 95
7, 124320, Note_off_c, 9, 35, 95
7, 124320, Note_on_c, 9, 35, 95
7, 124320, Note_on_c, 9, 40, 95
7, 124800, Note_off_c, 9, 35, 95
7, 124800, Note_off_c, 9, 40, 95
7, 124800, Note_on_c, 9, 46, 95
7, 124800, Note_on_c, 9, 35, 95
7, 125280, Note_off_c, 9, 46, 95
7, 125280, Note_off_c, 9, 35, 95
7, 125280, Note_on_c, 9, 35, 95
7, 125760, Note_off_c, 9, 35, 95
7, 125760, Note_on_c, 9, 46, 95
7, 125760, Note_on_c, 9, 35, 95
7, 125760, Note_on_c, 9, 40, 95
7, 126240, Note_off_c, 9, 46, 95
7, 126240, Note_off_c, 9, 35, 95
7, 126240, Note_off_c, 9, 40, 95
7, 126240, Note_on_c, 9, 35, 95
7, 126720, Note_off_c, 9, 35, 95
7, 126720, Note_on_c, 9, 46, 95
7, 126720, Note_on_c, 9, 35, 95
7, 127200, Note_off_c, 9, 46, 95
7, 127200, Note_off_c, 9, 35, 95
7, 127200, Note_on_c, 9, 35, 95
7, 127200, Note_on_c, 9, 40, 95
7, 127680, Note_off_c, 9, 35, 95
7, 127680, Note_off_c, 9, 40, 95
7, 127680, Note_on_c, 9, 46, 95
7, 127680, Note_on_c, 9, 35, 95
7, 128160, Note_off_c, 9, 46, 95
7, 128160, Note_off_c, 9, 35, 95
7, 128160, Note_on_c, 9, 35, 95
7, 128640, Note_off_c, 9, 35, 95
7, 128640, Note_on_c, 9, 46, 95
7, 128640, Note_on_c, 9, 35, 95
7, 128640, Note_on_c, 9, 40, 95
7, 129120, Note_off_c, 9, 46, 95
7, 129120, Note_off_c, 9, 35, 95
7, 129120, Note_off_c, 9, 40, 95
7, 129120, Note_on_c, 9, 35, 95
7, 129600, Note_off_c, 9, 35, 95
7, 129600, Note_on_c, 9, 46, 95
7, 129600, Note_on_c, 9, 35, 95
7, 130080, Note_off_c, 9, 46, 95
7, 130080, Note_off_c, 9, 35, 95
7, 130080, Note_on_c, 9, 35, 95
7, 130080, Note_on_c, 9, 40, 95
7, 130560, Note_off_c, 9, 35, 95
7, 130560, Note_off_c, 9, 40, 95
7, 130560, Note_on_c, 9, 46, 95
7, 130560, Note_on_c, 9, 35, 95
7, 131040, Note_off_c, 9, 46, 95
7, 131040, Note_off_c, 9, 35, 95
7, 131040, Note_on_c, 9, 35, 95
7, 131520, Note_off_c, 9, 35, 95
7, 131520, Note_on_c, 9, 46, 95
7, 131520, Note_on_c, 9, 35, 95
7, 131520, Note_on_c, 9, 40, 95
7, 132000, Note_off_c, 9, 46, 95
7, 132000, Note_off_c, 9, 35, 95
7, 132000, Note_off_c, 9, 40, 95
7, 132000, Note_on_c, 9, 35, 95
7, 132480, Note_off_c, 9, 35, 95
7, 132480, Note_on_c, 9, 46, 95
7, 132480, Note_on_c, 9, 35, 95
7, 132960, Note_off_c, 9, 46, 95
7, 132960, Note_off_c, 9, 35, 95
7, 132960, Note_on_c, 9, 35, 95
7, 132960, Note_on_c, 9, 40, 95
7, 133440, Note_off_c, 9, 35, 95
7, 133440, Note_off_c, 9, 40, 95
7, 133440, Note_on_c, 9, 46, 95
7, 133440, Note_on_c, 9, 35, 95
7, 133920, Note_off_c, 9, 46, 95
7, 133920, Note_off_c, 9, 35, 95
7, 133920, Note_on_c, 9, 35, 95
7, 134400, Note_off_c, 9, 35, 95
7, 134400, Note_on_c, 9, 46, 95
7, 134400, Note_on_c, 9, 35, 95
7, 134400, Note_on_c, 9, 40, 95
7, 134880, Note_off_c, 9, 46, 95
7, 134880, Note_off_c, 9, 35, 95
7, 134880, Note_off_c, 9, 40, 95
7, 134880, Note_on_c, 9, 35, 95
7, 135360, Note_off_c, 9, 35, 95
7, 135360, Note_on_c, 9, 46, 95
7, 135360, Note_on_c, 9, 35, 95
7, 135840, Note_off_c, 9, 46, 95
7, 135840, Note_off_c, 9, 35, 95
7, 135840, Note_on_c, 9, 35, 95
7, 135840, Note_on_c, 9, 40, 95
7, 136320, Note_off_c, 9, 35, 95
7, 136320, Note_off_c, 9, 40, 95
7, 136320, Note_on_c, 9, 46, 95
7, 136320, Note_on_c, 9, 35, 95
7, 136800, Note_off_c, 9, 46, 95
7, 136800, Note_off_c, 9, 35, 95
7, 136800, Note_on_c, 9, 35, 95
7, 137280, Note_off_c, 9, 35, 95
7, 137280, Note_on_c, 9, 46, 95
7, 137280, Note_on_c, 9, 35, 95
7, 137280, Note_on_c, 9, 40, 95
7, 137760, Note_off_c, 9, 46, 95
7, 137760, Note_off_c, 9, 35, 95
7, 137760, Note_off_c, 9, 40, 95
7, 137760, Note_on_c, 9, 35, 95
7, 138240, Note_off_c, 9, 35, 95
7, 138240, Note_on_c, 9, 46, 95
7, 138240, Note_on_c, 9, 35, 95
7, 138720, Note_off_c, 9, 46, 95
7, 138720, Note_off_c, 9, 35, 95
7, 138720, Note_on_c, 9, 35, 95
7, 138720, Note_on_c, 9, 40, 95
7, 139200, Note_off_c, 9, 35, 95
7, 139200, Note_off_c, 9, 40, 95
7, 139200, Note_on_c, 9, 46, 95
7, 139200, Note_on_c, 9, 35, 95
7, 139680, Note_off_c, 9, 46, 95
7, 139680, Note_off_c, 9, 35, 95
7, 139680, Note_on_c, 9, 35, 95
7, 140160, Note_off_c, 9, 35, 95
7, 140160, Note_on_c, 9, 46, 95
7, 140160, Note_on_c, 9, 35, 95
7, 140160, Note_on_c, 9, 40, 95
7, 140640, Note_off_c, 9, 46, 95
7, 140640, Note_off_c, 9, 35, 95
7, 140640, Note_off_c, 9, 40, 95
7, 140640, Note_on_c, 9, 35, 95
7, 141120, Note_off_c, 9, 35, 95
7, 141120, Note_on_c, 9, 46, 95
7, 141120, Note_on_c, 9, 35, 95
7, 141600, Note_off_c, 9, 46, 95
7, 141600, Note_off_c, 9, 35, 95
7, 141600, Note_on_c, 9, 35, 95
7, 141600, Note_on_c, 9, 40, 95
7, 142080, Note_off_c, 9, 35, 95
7, 142080, Note_off_c, 9, 40, 95
7, 142080, Note_on_c, 9, 46, 95
7, 142080, Note_on_c, 9, 35, 95
7, 142560, Note_off_c, 9, 46, 95
7, 142560, Note_off_c, 9, 35, 95
7, 142560, Note_on_c, 9, 35, 95
7, 143040, Note_off_c, 9, 35, 95
7, 143040, Note_on_c, 9, 46, 95
7, 143040, Note_on_c, 9, 35, 95
7, 143040, Note_on_c, 9, 40, 95
7, 143520, Note_off_c, 9, 46, 95
7, 143520, Note_off_c, 9, 35, 95
7, 143520, Note_off_c, 9, 40, 95
7, 143520, Note_on_c, 9, 35, 95
7, 144000, Note_off_c, 9, 35, 95
7, 144000, Note_on_c, 9, 46, 95
7, 144000, Note_on_c, 9, 35, 95
7, 144480, Note_off_c, 9, 46, 95
7, 144480, Note_off_c, 9, 35, 95
7, 144480, Note_on_c, 9, 35, 95
7, 144480, Note_on_c, 9, 40, 95
7, 144960, Note_off_c, 9, 35, 95
7, 144960, Note_off_c, 9, 40, 95
7, 144960, Note_on_c, 9, 46, 95
7, 144960, Note_on_c, 9, 35, 95
7, 145440, Note_off_c, 9, 46, 95
7, 145440, Note_off_c, 9, 35, 95
7, 145440, Note_on_c, 9, 35, 95
7, 145920, Note_off_c, 9, 35, 95
7, 145920, Note_on_c, 9, 46, 95
7, 145920, Note_on_c, 9, 35, 95
7, 145920, Note_on_c, 9, 40, 95
7, 146400, Note_off_c, 9, 46, 95
7, 146400, Note_off_c, 9, 35, 95
7, 146400, Note_off_c, 9, 40, 95
7, 146400, Note_on_c, 9, 35, 95
7, 146880, Note_off_c, 9, 35, 95
7, 146880, Note_on_c, 9, 46, 95
7, 146880, Note_on_c, 9, 35, 95
7, 147360, Note_off_c, 9, 46, 95
7, 147360, Note_off_c, 9, 35, 95
7, 147360, Note_on_c, 9, 35, 95
7, 147360, Note_on_c, 9, 40, 95
7, 147840, Note_off_c, 9, 35, 95
7, 147840, Note_off_c, 9, 40, 95
7, 147840, Note_on_c, 9, 46, 95
7, 147840, Note_on_c, 9, 35, 95
7, 148320, Note_off_c, 9, 46, 95
7, 148320, Note_off_c, 9, 35, 95
7, 148320, Note_on_c, 9, 35, 95
7, 148800, Note_off_c, 9, 35, 95
7, 148800, Note_on_c, 9, 46, 95
7, 148800, Note_on_c, 9, 35, 95
7, 148800, Note_on_c, 9, 40, 95
7, 149280, Note_off_c, 9, 46, 95
7, 149280, Note_off_c, 9, 35, 95
7, 149280, Note_off_c, 9, 40, 95
7, 149280, Note_on_c, 9, 35, 95
7, 149760, Note_off_c, 9, 35, 95
7, 149760, Note_on_c, 9, 46, 95
7, 149760, Note_on_c, 9, 35, 95
7, 150240, Note_off_c, 9, 46, 95
7, 150240, Note_off_c, 9, 35, 95
7, 150240, Note_on_c, 9, 35, 95
7, 150240, Note_on_c, 9, 40, 95
7, 150720, Note_off_c, 9, 35, 95
7, 150720, Note_off_c, 9, 40, 95
7, 150720, Note_on_c, 9, 46, 95
7, 150720, Note_on_c, 9, 35, 95
7, 151200, Note_off_c, 9, 46, 95
7, 151200, Note_off_c, 9, 35, 95
7, 151200, Note_on_c, 9, 35, 95
7, 151680, Note_off_c, 9, 35, 95
7, 151680, Note_on_c, 9, 46, 95
7, 151680, Note_on_c, 9, 35, 95
7, 151680, Note_on_c, 9, 40, 95
7, 152160, Note_off_c, 9, 46, 95
7, 152160, Note_off_c, 9, 35, 95
7, 152160, Note_off_c, 9, 40, 95
7, 152160, Note_on_c, 9, 35, 95
7, 152640, Note_off_c, 9, 35, 95
7, 152640, Note_on_c, 9, 46, 95
7, 152640, Note_on_c, 9, 35, 95
7, 153120, Note_off_c, 9, 46, 95
7, 153120, Note_off_c, 9, 35, 95
7, 153120, Note_on_c, 9, 35, 95
7, 153120, Note_on_c, 9, 40, 95
7, 153600, Note_off_c, 9, 35, 95
7, 153600, Note_off_c, 9, 40, 95
7, 153600, Note_on_c, 9, 46, 95
7, 153600, Note_on_c, 9, 35, 95
7, 154080, Note_off_c, 9, 46, 95
7, 154080, Note_off_c, 9, 35, 95
7, 154080, Note_on_c, 9, 35, 95
7, 154560, Note_off_c, 9, 35, 95
7, 154560, Note_on_c, 9, 46, 95
7, 154560, Note_on_c, 9, 35, 95
7, 154560, Note_on_c, 9, 40, 95
7, 155040, Note_off_c, 9, 46, 95
7, 155040, Note_off_c, 9, 35, 95
7, 155040, Note_off_c, 9, 40, 95
7, 155040, Note_on_c, 9, 35, 95
7, 155520, Note_off_c, 9, 35, 95
7, 155520, Note_on_c, 9, 46, 95
7, 155520, Note_on_c, 9, 35, 95
7, 156000, Note_off_c, 9, 46, 95
7, 156000, Note_off_c, 9, 35, 95
7, 156000, Note_on_c, 9, 35, 95
7, 156000, Note_on_c, 9, 40, 95
7, 156480, Note_off_c, 9, 35, 95
7, 156480, Note_off_c, 9, 40, 95
7, 156480, Note_on_c, 9, 46, 95
7, 156480, Note_on_c, 9, 35, 95
7, 156960, Note_off_c, 9, 46, 95
7, 156960, Note_off_c, 9, 35, 95
7, 156960, Note_on_c, 9, 35, 95
7, 157440, Note_off_c, 9, 35, 95
7, 157440, Note_on_c, 9, 46, 95
7, 157440, Note_on_c, 9, 35, 95
7, 157440, Note_on_c, 9, 40, 95
7, 157920, Note_off_c, 9, 46, 95
7, 157920, Note_off_c, 9, 35, 95
7, 157920, Note_off_c, 9, 40, 95
7, 157920, Note_on_c, 9, 35, 95
7, 158400, Note_off_c, 9, 35, 95
7, 158400, Note_on_c, 9, 46, 95
7, 158400, Note_on_c, 9, 35, 95
7, 158880, Note_off_c, 9, 46, 95
7, 158880, Note_off_c, 9, 35, 95
7, 158880, Note_on_c, 9, 35, 95
7, 158880, Note_on_c, 9, 40, 95
7, 159360, Note_off_c, 9, 35, 95
7, 159360, Note_off_c, 9, 40, 95
7, 159360, Note_on_c, 9, 46, 95
7, 159360, Note_on_c, 9, 35, 95
7, 159840, Note_off_c, 9, 46, 95
7, 159840, Note_off_c, 9, 35, 95
7, 159840, Note_on_c, 9, 35, 95
7, 160320, Note_off_c, 9, 35, 95
7, 160320, Note_on_c, 9, 46, 95
7, 160320, Note_on_c, 9, 35, 95
7, 160320, Note_on_c, 9, 40, 95
7, 160800, Note_off_c, 9, 46, 95
7, 160800, Note_off_c, 9, 35, 95
7, 160800, Note_off_c, 9, 40, 95
7, 160800, Note_on_c, 9, 35, 95
7, 161280, Note_off_c, 9, 35, 95
7, 161280, Note_on_c, 9, 46, 95
7, 161280, Note_on_c, 9, 35, 95
7, 161760, Note_off_c, 9, 46, 95
7, 161760, Note_off_c, 9, 35, 95
7, 161760, Note_on_c, 9, 35, 95
7, 161760, Note_on_c, 9, 40, 95
7, 162240, Note_off_c, 9, 35, 95
7, 162240, Note_off_c, 9, 40, 95
7, 162240, Note_on_c, 9, 46, 95
7, 162240, Note_on_c, 9, 35, 95
7, 162720, Note_off_c, 9, 46, 95
7, 162720, Note_off_c, 9, 35, 95
7, 162720, Note_on_c, 9, 35, 95
7, 163200, Note_off_c, 9, 35, 95
7, 163200, Note_on_c, 9, 46, 95
7, 163200, Note_on_c, 9, 35, 95
7, 163200, Note_on_c, 9, 40, 95
7, 163680, Note_off_c, 9, 46, 95
7, 163680, Note_off_c, 9, 35, 95
7, 163680, Note_off_c, 9, 40, 95
7, 163680, Note_on_c, 9, 35, 95
7, 163680, Note_on_c, 9, 40, 127
7, 164160, Note_off_c, 9, 35, 95
7, 164160, Note_off_c, 9, 40, 127
7, 164160, Note_on_c, 9, 46, 95
7, 164160, Note_on_c, 9, 35, 95
7, 164160, Note_on_c, 9, 40, 127
7, 164640, Note_off_c, 9, 46, 95
7, 164640, Note_off_c, 9, 35, 95
7, 164640, Note_off_c, 9, 40, 127
7, 164640, Note_on_c, 9, 35, 95
7, 164640, Note_on_c, 9, 40, 95
7, 165120, Note_off_c, 9, 35, 95
7, 165120, Note_off_c, 9, 40, 95
7, 165120, Note_on_c, 9, 46, 95
7, 165120, Note_on_c, 9, 35, 95
7, 165120, Note_on_c, 9, 40, 127
7, 165600, Note_off_c, 9, 46, 95
7, 165600, Note_off_c, 9, 35, 95
7, 165600, Note_off_c, 9, 40, 127
7, 165600, Note_on_c, 9, 35, 95
7, 165600, Note_on_c, 9, 40, 127
7, 166080, Note_off_c, 9, 35, 95
7, 166080, Note_off_c, 9, 40, 127
7, 166080, Note_on_c, 9, 49, 95
7, 166080, Note_on_c, 9, 35, 95
7, 167040, Note_off_c, 9, 49, 95
7, 167040, Note_off_c, 9, 35, 95
7, 167040, Note_on_c, 9, 49, 95
7, 167040, Note_on_c, 9, 35, 95
7, 168000, Note_off_c, 9, 49, 95
7, 168000, Note_off_c, 9, 35, 95
7, 168000, Note_on_c, 9, 40, 95
7, 168000, Note_on_c, 9, 46, 95
7, 168960, Note_off_c, 9, 40, 95
7, 168960, Note_off_c, 9, 46, 95
7, 168960, Note_on_c, 9, 35, 95
7, 169440, Note_off_c, 9, 35, 95
7, 169440, Note_on_c, 9, 40, 95
7, 169920, Note_off_c, 9, 40, 95
7, 169920, Note_on_c, 9, 46, 95
7, 170400, Note_off_c, 9, 46, 95
7, 170880, Note_on_c, 9, 35, 95
7, 171360, Note_off_c, 9, 35, 95
7, 171840, Note_on_c, 9, 40, 95
7, 171840, Note_on_c, 9, 49, 95
7, 172800, Note_off_c, 9, 40, 95
7, 172800, Note_off_c, 9, 49, 95
7, 172800, Note_on_c, 9, 49, 95
7, 172800, Note_on_c, 9, 35, 95
7, 173760, Note_off_c, 9, 49, 95
7, 173760, Note_off_c, 9, 35, 95
7, 173760, Note_on_c, 9, 46, 95
7, 174720, Note_off_c, 9, 46, 95
7, 174720, Note_on_c, 9, 35, 95
7, 175680, Note_off_c, 9, 35, 95
7, 175680, Note_on_c, 9, 49, 95
7, 175680, Note_on_c, 9, 40, 95
7, 176640, Note_off_c, 9, 49, 95
7, 176640, Note_off_c, 9, 40, 95
7, 176640, Note_on_c, 9, 49, 95
7, 176640, Note_on_c, 9, 35, 95
7, 177600, Note_off_c, 9, 49, 95
7, 177600, Note_off_c, 9, 35, 95
7, 177600, Note_on_c, 9, 46, 95
7, 178560, Note_off_c, 9, 46, 95
7, 178560, Note_on_c, 9, 35, 95
7, 179520, Note_off_c, 9, 35, 95
7, 179520, Note_on_c, 9, 49, 95
7, 179520, Note_on_c, 9, 40, 95
7, 180480, Note_off_c, 9, 49, 95
7, 180480, Note_off_c, 9, 40, 95
7, 180480, Note_on_c, 9, 49, 95
7, 180480, Note_on_c, 9, 35, 95
7, 181440, Note_off_c, 9, 49, 95
7, 181440, Note_off_c, 9, 35, 95
7, 181440, Note_on_c, 9, 46, 95
7, 182400, Note_off_c, 9, 46, 95
7, 182400, Note_on_c, 9, 35, 95
7, 183360, Note_off_c, 9, 35, 95
7, 183360, Note_on_c, 9, 46, 95
7, 183360, Note_on_c, 9, 40, 95
7, 184320, Note_off_c, 9, 46, 95
7, 184320, Note_off_c, 9, 40, 95
7, 184320, Note_on_c, 9, 35, 95
7, 185280, Note_off_c, 9, 35, 95
7, 185280, Note_on_c, 9, 46, 95
7, 185280, Note_on_c, 9, 40, 95
7, 186240, Note_off_c, 9, 46, 95
7, 186240, Note_off_c, 9, 40, 95
7, 186240, Note_on_c, 9, 35, 95
7, 187200, Note_off_c, 9, 35, 95
7, 187200, Note_on_c, 9, 46, 95
7, 187200, Note_on_c, 9, 40, 95
7, 188160, Note_off_c, 9, 46, 95
7, 188160, Note_off_c, 9, 40, 95
7, 188160, Note_on_c, 9, 35, 95
7, 189120, Note_off_c, 9, 35, 95
7, 189120, Note_on_c, 9, 49, 95
7, 189120, Note_on_c, 9, 35, 95
7, 190080, Note_off_c, 9, 49, 95
7, 190080, Note_off_c, 9, 35, 95
7, 190080, Note_on_c, 9, 49, 95
7, 190080, Note_on_c, 9, 35, 95
7, 191040, Note_off_c, 9, 49, 95
7, 191040, Note_off_c, 9, 35, 95
7, 191040, Note_on_c, 9, 40, 95
7, 191040, Note_on_c, 9, 46, 95
7, 192000, Note_off_c, 9, 40, 95
7, 192000, Note_off_c, 9, 46, 95
7, 192000, Note_on_c, 9, 35, 95
7, 192480, Note_off_c, 9, 35, 95
7, 192480, Note_on_c, 9, 40, 95
7, 192960, Note_off_c, 9, 40, 95
7, 192960, Note_on_c, 9, 46, 95
7, 193440, Note_off_c, 9, 46, 95
7, 193920, Note_on_c, 9, 35, 95
7, 194400, Note_off_c, 9, 35, 95
7, 194880, Note_on_c, 9, 40, 95
7, 194880, Note_on_c, 9, 49, 95
7, 195840, Note_off_c, 9, 40, 95
7, 195840, Note_off_c, 9, 49, 95
7, 195840, Note_on_c, 9, 49, 95
7, 195840, Note_on_c, 9, 35, 95
7, 196800, Note_off_c, 9, 49, 95
7, 196800, Note_off_c, 9, 35, 95
7, 196800, Note_on_c, 9, 46, 95
7, 197760, Note_off_c, 9, 46, 95
7, 197760, Note_on_c, 9, 35, 95
7, 198720, Note_off_c, 9, 35, 95
7, 198720, Note_on_c, 9, 49, 95
7, 198720, Note_on_c, 9, 40, 95
7, 199680, Note_off_c, 9, 49, 95
7, 199680, Note_off_c, 9, 40, 95
7, 199680, Note_on_c, 9, 49, 95
7, 199680, Note_on_c, 9, 35, 95
7, 200640, Note_off_c, 9, 49, 95
7, 200640, Note_off_c, 9, 35, 95
7, 200640, Note_on_c, 9, 46, 95
7, 201600, Note_off_c, 9, 46, 95
7, 201600, Note_on_c, 9, 35, 95
7, 202560, Note_off_c, 9, 35, 95
7, 202560, Note_on_c, 9, 49, 95
7, 202560, Note_on_c, 9, 40, 95
7, 203520, Note_off_c, 9, 49, 95
7, 203520, Note_off_c, 9, 40, 95
7, 203520, Note_on_c, 9, 49, 95
7, 203520, Note_on_c, 9, 35, 95
7, 204480, Note_off_c, 9, 49, 95
7, 204480, Note_off_c, 9, 35, 95
7, 204480, Note_on_c, 9, 46, 95
7, 205440, Note_off_c, 9, 46, 95
7, 205440, Note_on_c, 9, 35, 95
7, 206400, Note_off_c, 9, 35, 95
7, 206400, Note_on_c, 9, 46, 95
7, 206400, Note_on_c, 9, 40, 95
7, 207360, Note_off_c, 9, 46, 95
7, 207360, Note_off_c, 9, 40, 95
7, 207360, Note_on_c, 9, 35, 95
7, 208320, Note_off_c, 9, 35, 95
7, 208320, Note_on_c, 9, 46, 95
7, 208320, Note_on_c, 9, 40, 95
7, 209280, Note_off_c, 9, 46, 95
7, 209280, Note_off_c, 9, 40, 95
7, 209280, Note_on_c, 9, 35, 95
7, 210240, Note_off_c, 9, 35, 95
7, 210240, Note_on_c, 9, 46, 95
7, 210240, Note_on_c, 9, 40, 95
7, 211200, Note_off_c, 9, 46, 95
7, 211200, Note_off_c, 9, 40, 95
7, 211200, Note_on_c, 9, 35, 95
7, 212160, Note_off_c, 9, 35, 95
7, 212160, Note_on_c, 9, 46, 95
7, 212160, Note_on_c, 9, 35, 95
7, 212160, Note_on_c, 9, 40, 95
7, 212640, Note_off_c, 9, 46, 95
7, 212640, Note_off_c, 9, 35, 95
7, 212640, Note_off_c, 9, 40, 95
7, 212640, Note_on_c, 9, 35, 95
7, 213120, Note_off_c, 9, 35, 95
7, 213120, Note_on_c, 9, 46, 95
7, 213120, Note_on_c, 9, 35, 95
7, 213600, Note_off_c, 9, 46, 95
7, 213600, Note_off_c, 9, 35, 95
7, 213600, Note_on_c, 9, 35, 95
7, 213600, Note_on_c, 9, 40, 95
7, 214080, Note_off_c, 9, 35, 95
7, 214080, Note_off_c, 9, 40, 95
7, 214080, Note_on_c, 9, 46, 95
7, 214080, Note_on_c, 9, 35, 95
7, 214560, Note_off_c, 9, 46, 95
7, 214560, Note_off_c, 9, 35, 95
7, 214560, Note_on_c, 9, 35, 95
7, 215040, Note_off_c, 9, 35, 95
7, 215040, Note_on_c, 9, 46, 95
7, 215040, Note_on_c, 9, 35, 95
7, 215040, Note_on_c, 9, 40, 95
7, 215520, Note_off_c, 9, 46, 95
7, 215520, Note_off_c, 9, 35, 95
7, 215520, Note_off_c, 9, 40, 95
7, 215520, Note_on_c, 9, 35, 95
7, 216000, Note_off_c, 9, 35, 95
7, 216000, Note_on_c, 9, 46, 95
7, 216000, Note_on_c, 9, 35, 95
7, 216480, Note_off_c, 9, 46, 95
7, 216480, Note_off_c, 9, 35, 95
7, 216480, Note_on_c, 9, 35, 95
7, 216480, Note_on_c, 9, 40, 95
7, 216960, Note_off_c, 9, 35, 95
7, 216960, Note_off_c, 9, 40, 95
7, 216960, Note_on_c, 9, 46, 95
7, 216960, Note_on_c, 9, 35, 95
7, 217440, Note_off_c, 9, 46, 95
7, 217440, Note_off_c, 9, 35, 95
7, 217440, Note_on_c, 9, 35, 95
7, 217920, Note_off_c, 9, 35, 95
7, 217920, Note_on_c, 9, 46, 95
7, 217920, Note_on_c, 9, 35, 95
7, 217920, Note_on_c, 9, 40, 95
7, 218400, Note_off_c, 9, 46, 95
7, 218400, Note_off_c, 9, 35, 95
7, 218400, Note_off_c, 9, 40, 95
7, 218400, Note_on_c, 9, 35, 95
7, 218880, Note_off_c, 9, 35, 95
7, 218880, Note_on_c, 9, 46, 95
7, 218880, Note_on_c, 9, 35, 95
7, 219360, Note_off_c, 9, 46, 95
7, 219360, Note_off_c, 9, 35, 95
7, 219360, Note_on_c, 9, 35, 95
7, 219360, Note_on_c, 9, 40, 95
7, 219840, Note_off_c, 9, 35, 95
7, 219840, Note_off_c, 9, 40, 95
7, 219840, Note_on_c, 9, 46, 95
7, 219840, Note_on_c, 9, 35, 95
7, 220320, Note_off_c, 9, 46, 95
7, 220320, Note_off_c, 9, 35, 95
7, 220320, Note_on_c, 9, 35, 95
7, 220800, Note_off_c, 9, 35, 95
7, 220800, Note_on_c, 9, 46, 95
7, 220800, Note_on_c, 9, 35, 95
7, 220800, Note_on_c, 9, 40, 95
7, 221280, Note_off_c, 9, 46, 95
7, 221280, Note_off_c, 9, 35, 95
7, 221280, Note_off_c, 9, 40, 95
7, 221280, Note_on_c, 9, 35, 95
7, 221760, Note_off_c, 9, 35, 95
7, 221760, Note_on_c, 9, 46, 95
7, 221760, Note_on_c, 9, 35, 95
7, 222240, Note_off_c, 9, 46, 95
7, 222240, Note_off_c, 9, 35, 95
7, 222240, Note_on_c, 9, 35, 95
7, 222240, Note_on_c, 9, 40, 95
7, 222720, Note_off_c, 9, 35, 95
7, 222720, Note_off_c, 9, 40, 95
7, 222720, Note_on_c, 9, 46, 95
7, 222720, Note_on_c, 9, 35, 95
7, 223200, Note_off_c, 9, 46, 95
7, 223200, Note_off_c, 9, 35, 95
7, 223200, Note_on_c, 9, 35, 95
7, 223680, Note_off_c, 9, 35, 95
7, 223680, Note_on_c, 9, 46, 95
7, 223680, Note_on_c, 9, 35, 95
7, 223680, Note_on_c, 9, 40, 95
7, 224160, Note_off_c, 9, 46, 95
7, 224160, Note_off_c, 9, 35, 95
7, 224160, Note_off_c, 9, 40, 95
7, 224160, Note_on_c, 9, 35, 95
7, 224640, Note_off_c, 9, 35, 95
7, 224640, Note_on_c, 9, 46, 95
7, 224640, Note_on_c, 9, 35, 95
7, 225120, Note_off_c, 9, 46, 95
7, 225120, Note_off_c, 9, 35, 95
7, 225120, Note_on_c, 9, 35, 95
7, 225120, Note_on_c, 9, 40, 95
7, 225600, Note_off_c, 9, 35, 95
7, 225600, Note_off_c, 9, 40, 95
7, 225600, Note_on_c, 9, 46, 95
7, 225600, Note_on_c, 9, 35, 95
7, 226080, Note_off_c, 9, 46, 95
7, 226080, Note_off_c, 9, 35, 95
7, 226080, Note_on_c, 9, 35, 95
7, 226560, Note_off_c, 9, 35, 95
7, 226560, Note_on_c, 9, 46, 95
7, 226560, Note_on_c, 9, 35, 95
7, 226560, Note_on_c, 9, 40, 95
7, 227040, Note_off_c, 9, 46, 95
7, 227040, Note_off_c, 9, 35, 95
7, 227040, Note_off_c, 9, 40, 95
7, 227040, Note_on_c, 9, 35, 95
7, 227520, Note_off_c, 9, 35, 95
7, 227520, Note_on_c, 9, 46, 95
7, 227520, Note_on_c, 9, 35, 95
7, 228000, Note_off_c, 9, 46, 95
7, 228000, Note_off_c, 9, 35, 95
7, 228000, Note_on_c, 9, 35, 95
7, 228000, Note_on_c, 9, 40, 95
7, 228480, Note_off_c, 9, 35, 95
7, 228480, Note_off_c, 9, 40, 95
7, 228480, Note_on_c, 9, 46, 95
7, 228480, Note_on_c, 9, 35, 95
7, 228960, Note_off_c, 9, 46, 95
7, 228960, Note_off_c, 9, 35, 95
7, 228960, Note_on_c, 9, 35, 95
7, 229440, Note_off_c, 9, 35, 95
7, 229440, Note_on_c, 9, 46, 95
7, 229440, Note_on_c, 9, 35, 95
7, 229440, Note_on_c, 9, 40, 95
7, 229920, Note_off_c, 9, 46, 95
7, 229920, Note_off_c, 9, 35, 95
7, 229920, Note_off_c, 9, 40, 95
7, 229920, Note_on_c, 9, 35, 95
7, 230400, Note_off_c, 9, 35, 95
7, 230400, Note_on_c, 9, 46, 95
7, 230400, Note_on_c, 9, 35, 95
7, 230880, Note_off_c, 9, 46, 95
7, 230880, Note_off_c, 9, 35, 95
7, 230880, Note_on_c, 9, 35, 95
7, 230880, Note_on_c, 9, 40, 95
7, 231360, Note_off_c, 9, 35, 95
7, 231360, Note_off_c, 9, 40, 95
7, 231360, Note_on_c, 9, 46, 95
7, 231360, Note_on_c, 9, 35, 95
7, 231840, Note_off_c, 9, 46, 95
7, 231840, Note_off_c, 9, 35, 95
7, 231840, Note_on_c, 9, 35, 95
7, 232320, Note_off_c, 9, 35, 95
7, 232320, Note_on_c, 9, 46, 95
7, 232320, Note_on_c, 9, 35, 95
7, 232320, Note_on_c, 9, 40, 95
7, 232800, Note_off_c, 9, 46, 95
7, 232800, Note_off_c, 9, 35, 95
7, 232800, Note_off_c, 9, 40, 95
7, 232800, Note_on_c, 9, 35, 95
7, 232800, Note_on_c, 9, 40, 127
7, 233280, Note_off_c, 9, 35, 95
7, 233280, Note_off_c, 9, 40, 127
7, 233280, Note_on_c, 9, 46, 95
7, 233280, Note_on_c, 9, 35, 95
7, 233280, Note_on_c, 9, 40, 127
7, 233760, Note_off_c, 9, 46, 95
7, 233760, Note_off_c, 9, 35, 95
7, 233760, Note_off_c, 9, 40, 127
7, 233760, Note_on_c, 9, 35, 95
7, 233760, Note_on_c, 9, 40, 95
7, 234240, Note_off_c, 9, 35, 95
7, 234240, Note_off_c, 9, 40, 95
7, 234240, Note_on_c, 9, 46, 95
7, 234240, Note_on_c, 9, 35, 95
7, 234240, Note_on_c, 9, 40, 127
7, 234720, Note_off_c, 9, 46, 95
7, 234720, Note_off_c, 9, 35, 95
7, 234720, Note_off_c, 9, 40, 127
7, 234720, Note_on_c, 9, 35, 95
7, 234720, Note_on_c, 9, 40, 127
7, 235200, Note_off_c, 9, 35, 95
7, 235200, Note_off_c, 9, 40, 127
7, 235200, Note_on_c, 9, 49, 95
7, 235200, Note_on_c, 9, 35, 95
7, 235680, Note_off_c, 9, 49, 95
7, 235680, Note_off_c, 9, 35, 95
7, 235680, Note_on_c, 9, 35, 95
7, 236160, Note_off_c, 9, 35, 95
7, 236160, Note_on_c, 9, 35, 95
7, 236640, Note_off_c, 9, 35, 95
7, 236640, Note_on_c, 9, 35, 95
7, 236640, Note_on_c, 9, 45, 127
7, 236640, Note_on_c, 9, 43, 127
7, 237120, Note_off_c, 9, 35, 95
7, 237120, Note_off_c, 9, 45, 127
7, 237120, Note_off_c, 9, 43, 127
7, 237120, Note_on_c, 9, 35, 95
7, 237600, Note_off_c, 9, 35, 95
7, 237600, Note_on_c, 9, 35, 95
7, 238080, Note_off_c, 9, 35, 95
7, 238080, Note_on_c, 9, 35, 95
7, 238080, Note_on_c, 9, 43, 127
7, 238080, Note_on_c, 9, 41, 127
7, 238560, Note_off_c, 9, 35, 95
7, 238560, Note_off_c, 9, 43, 127
7, 238560, Note_off_c, 9, 41, 127
7, 238560, Note_on_c, 9, 35, 95
7, 239040, Note_off_c, 9, 35, 95
7, 239040, Note_on_c, 9, 52, 95
7, 239040, Note_on_c, 9, 35, 95
7, 239040, Note_on_c, 9, 40, 95
7, 239520, Note_off_c, 9, 52, 95
7, 239520, Note_off_c, 9, 35, 95
7, 239520, Note_off_c, 9, 40, 95
7, 239520, Note_on_c, 9, 35, 95
7, 240000, Note_off_c, 9, 35, 95
7, 240000, Note_on_c, 9, 52, 95
7, 240000, Note_on_c, 9, 35, 95
7, 240000, Note_on_c, 9, 40, 95
7, 240480, Note_off_c, 9, 52, 95
7, 240480, Note_off_c, 9, 35, 95
7, 240480, Note_off_c, 9, 40, 95
7, 240480, Note_on_c, 9, 35, 95
7, 240960, Note_off_c, 9, 35, 95
7, 240960, Note_on_c, 9, 52, 95
7, 240960, Note_on_c, 9, 35, 95
7, 240960, Note_on_c, 9, 40, 95
7, 241440, Note_off_c, 9, 52, 95
7, 241440, Note_off_c, 9, 35, 95
7, 241440, Note_off_c, 9, 40, 95
7, 241440, Note_on_c, 9, 35, 95
7, 241920, Note_off_c, 9, 35, 95
7, 241920, Note_on_c, 9, 55, 95
7, 241920, Note_on_c, 9, 35, 95
7, 242400, Note_off_c, 9, 55, 95
7, 242400, Note_off_c, 9, 35, 95
7, 242400, Note_on_c, 9, 55, 95
7, 242400, Note_on_c, 9, 35, 95
7, 242880, Note_off_c, 9, 55, 95
7, 242880, Note_off_c, 9, 35, 95
7, 242880, Note_on_c, 9, 49, 95
7, 242880, Note_on_c, 9, 35, 95
7, 243360, Note_off_c, 9, 49, 95
7, 243360, Note_off_c, 9, 35, 95
7, 243360, Note_on_c, 9, 35, 95
7, 243840, Note_off_c, 9, 35, 95
7, 243840, Note_on_c, 9, 35, 95
7, 244320, Note_off_c, 9, 35, 95
7, 244320, Note_on_c, 9, 35, 95
7, 244320, Note_on_c, 9, 45, 127
7, 244320, Note_on_c, 9, 43, 127
7, 244800, Note_off_c, 9, 35, 95
7, 244800, Note_off_c, 9, 45, 127
7, 244800, Note_off_c, 9, 43, 127
7, 244800, Note_on_c, 9, 35, 95
7, 245280, Note_off_c, 9, 35, 95
7, 245280, Note_on_c, 9, 35, 95
7, 245760, Note_off_c, 9, 35, 95
7, 245760, Note_on_c, 9, 35, 95
7, 245760, Note_on_c, 9, 43, 127
7, 245760, Note_on_c, 9, 41, 127
7, 246240, Note_off_c, 9, 35, 95
7, 246240, Note_off_c, 9, 43, 127
7, 246240, Note_off_c, 9, 41, 127
7, 246240, Note_on_c, 9, 35, 95
7, 246720, Note_off_c, 9, 35, 95
7, 246720, Note_on_c, 9, 52, 95
7, 246720, Note_on_c, 9, 35, 95
7, 246720, Note_on_c, 9, 40, 95
7, 247200, Note_off_c, 9, 52, 95
7, 247200, Note_off_c, 9, 35, 95
7, 247200, Note_off_c, 9, 40, 95
7, 247200, Note_on_c, 9, 35, 95
7, 247200, Note_on_c, 9, 40, 95
7, 247680, Note_off_c, 9, 35, 95
7, 247680, Note_off_c, 9, 40, 95
7, 247680, Note_on_c, 9, 52, 95
7, 247680, Note_on_c, 9, 35, 95
7, 247680, Note_on_c, 9, 40, 95
7, 248160, Note_off_c, 9, 52, 95
7, 248160, Note_off_c, 9, 35, 95
7, 248160, Note_off_c, 9, 40, 95
7, 248160, Note_on_c, 9, 35, 95
7, 248160, Note_on_c, 9, 40, 95
7, 248640, Note_off_c, 9, 35, 95
7, 248640, Note_off_c, 9, 40, 95
7, 248640, Note_on_c, 9, 52, 95
7, 248640, Note_on_c, 9, 35, 95
7, 248640, Note_on_c, 9, 40, 95
7, 249120, Note_off_c, 9, 52, 95
7, 249120, Note_off_c, 9, 35, 95
7, 249120, Note_off_c, 9, 40, 95
7, 249120, Note_on_c, 9, 35, 95
7, 249120, Note_on_c, 9, 40, 95
7, 249600, Note_off_c, 9, 35, 95
7, 249600, Note_off_c, 9, 40, 95
7, 249600, Note_on_c, 9, 55, 95
7, 249600, Note_on_c, 9, 35, 95
7, 250080, Note_off_c, 9, 55, 95
7, 250080, Note_off_c, 9, 35, 95
7, 250080, Note_on_c, 9, 55, 95
7, 250080, Note_on_c, 9, 35, 95
7, 250560, Note_off_c, 9, 55, 95
7, 250560, Note_off_c, 9, 35, 95
7, 250560, Note_on_c, 9, 49, 95
7, 250560, Note_on_c, 9, 35, 95
7, 251040, Note_off_c, 9, 49, 95
7, 251040, Note_off_c, 9, 35, 95
7, 251040, Note_on_c, 9, 35, 95
7, 251520, Note_off_c, 9, 35, 95
7, 251520, Note_on_c, 9, 35, 95
7, 252000, Note_off_c, 9, 35, 95
7, 252000, Note_on_c, 9, 35, 95
7, 252000, Note_on_c, 9, 45, 127
7, 252000, Note_on_c, 9, 43, 127
7, 252480, Note_off_c, 9, 35, 95
7, 252480, Note_off_c, 9, 45, 127
7, 252480, Note_off_c, 9, 43, 127
7, 252480, Note_on_c, 9, 35, 95
7, 252960, Note_off_c, 9, 35, 95
7, 252960, Note_on_c, 9, 35, 95
7, 253440, Note_off_c, 9, 35, 95
7, 253440, Note_on_c, 9, 35, 95
7, 253440, Note_on_c, 9, 43, 127
7, 253440, Note_on_c, 9, 41, 127
7, 253920, Note_off_c, 9, 35, 95
7, 253920, Note_off_c, 9, 43, 127
7, 253920, Note_off_c, 9, 41, 127
7, 253920, Note_on_c, 9, 35, 95
7, 254400, Note_off_c, 9, 35, 95
7, 254400, Note_on_c, 9, 52, 95
7, 254400, Note_on_c, 9, 35, 95
7, 254400, Note_on_c, 9, 40, 95
7, 254880, Note_off_c, 9, 52, 95
7, 254880, Note_off_c, 9, 35, 95
7, 254880, Note_off_c, 9, 40, 95
7, 254880, Note_on_c, 9, 35, 95
7, 255360, Note_off_c, 9, 35, 95
7, 255360, Note_on_c, 9, 52, 95
7, 255360, Note_on_c, 9, 35, 95
7, 255360, Note_on_c, 9, 40, 95
7, 255840, Note_off_c, 9, 52, 95
7, 255840, Note_off_c, 9, 35, 95
7, 255840, Note_off_c, 9, 40, 95
7, 255840, Note_on_c, 9, 35, 95
7, 256320, Note_off_c, 9, 35, 95
7, 256320, Note_on_c, 9, 52, 95
7, 256320, Note_on_c, 9, 35, 95
7, 256320, Note_on_c, 9, 40, 95
7, 256800, Note_off_c, 9, 52, 95
7, 256800, Note_off_c, 9, 35, 95
7, 256800, Note_off_c, 9, 40, 95
7, 256800, Note_on_c, 9, 35, 95
7, 257280, Note_off_c, 9, 35, 95
7, 257280, Note_on_c, 9, 55, 95
7, 257280, Note_on_c, 9, 35, 95
7, 257760, Note_off_c, 9, 55, 95
7, 257760, Note_off_c, 9, 35, 95
7, 257760, Note_on_c, 9, 55, 95
7, 257760, Note_on_c, 9, 35, 95
7, 258240, Note_off_c, 9, 55, 95
7, 258240, Note_off_c, 9, 35, 95
7, 258240, Note_on_c, 9, 49, 95
7, 258240, Note_on_c, 9, 35, 95
7, 258720, Note_off_c, 9, 49, 95
7, 258720, Note_off_c, 9, 35, 95
7, 258720, Note_on_c, 9, 35, 95
7, 259200, Note_off_c, 9, 35, 95
7, 259200, Note_on_c, 9, 35, 95
7, 259680, Note_off_c, 9, 35, 95
7, 259680, Note_on_c, 9, 35, 95
7, 259680, Note_on_c, 9, 45, 127
7, 259680, Note_on_c, 9, 43, 127
7, 260160, Note_off_c, 9, 35, 95
7, 260160, Note_off_c, 9, 45, 127
7, 260160, Note_off_c, 9, 43, 127
7, 260160, Note_on_c, 9, 35, 95
7, 260640, Note_off_c, 9, 35, 95
7, 260640, Note_on_c, 9, 35, 95
7, 261120, Note_off_c, 9, 35, 95
7, 261120, Note_on_c, 9, 35, 95
7, 261120, Note_on_c, 9, 43, 127
7, 261120, Note_on_c, 9, 41, 127
7, 261600, Note_off_c, 9, 35, 95
7, 261600, Note_off_c, 9, 43, 127
7, 261600, Note_off_c, 9, 41, 127
7, 261600, Note_on_c, 9, 35, 95
7, 262080, Note_off_c, 9, 35, 95
7, 262080, Note_on_c, 9, 52, 95
7, 262080, Note_on_c, 9, 35, 95
7, 262080, Note_on_c, 9, 40, 95
7, 262560, Note_off_c, 9, 52, 95
7, 262560, Note_off_c, 9, 35, 95
7, 262560, Note_off_c, 9, 40, 95
7, 262560, Note_on_c, 9, 35, 95
7, 262560, Note_on_c, 9, 40, 95
7, 263040, Note_off_c, 9, 35, 95
7, 263040, Note_off_c, 9, 40, 95
7, 263040, Note_on_c, 9, 52, 95
7, 263040, Note_on_c, 9, 35, 95
7, 263040, Note_on_c, 9, 40, 95
7, 263520, Note_off_c, 9, 52, 95
7, 263520, Note_off_c, 9, 35, 95
7, 263520, Note_off_c, 9, 40, 95
7, 263520, Note_on_c, 9, 35, 95
7, 263520, Note_on_c, 9, 40, 95
7, 264000, Note_off_c, 9, 35, 95
7, 264000, Note_off_c, 9, 40, 95
7, 264000, Note_on_c, 9, 52, 95
7, 264000, Note_on_c, 9, 35, 95
7, 264000, Note_on_c, 9, 40, 95
7, 264480, Note_off_c, 9, 52, 95
7, 264480, Note_off_c, 9, 35, 95
7, 264480, Note_off_c, 9, 40, 95
7, 264480, Note_on_c, 9, 35, 95
7, 264480, Note_on_c, 9, 40, 95
7, 264960, Note_off_c, 9, 35, 95
7, 264960, Note_off_c, 9, 40, 95
7, 264960, Note_on_c, 9, 55, 95
7, 264960, Note_on_c, 9, 35, 95
7, 265440, Note_off_c, 9, 55, 95
7, 265440, Note_off_c, 9, 35, 95
7, 265440, Note_on_c, 9, 55, 95
7, 265440, Note_on_c, 9, 35, 95
7, 265920, Note_off_c, 9, 55, 95
7, 265920, Note_off_c, 9, 35, 95
7, 265920, Note_on_c, 9, 40, 95
7, 265920, Note_on_c, 9, 49, 95
7, 265920, Note_on_c, 9, 35, 95
7, 266400, Note_off_c, 9, 40, 95
7, 266400, Note_off_c, 9, 49, 95
7, 266400, Note_off_c, 9, 35, 95
7, 266400, Note_on_c, 9, 41, 95
7, 266880, Note_off_c, 9, 41, 95
7, 266880, Note_on_c, 9, 43, 95
7, 267360, Note_off_c, 9, 43, 95
7, 267360, Note_on_c, 9, 35, 95
7, 267360, Note_on_c, 9, 41, 95
7, 267840, Note_off_c, 9, 35, 95
7, 267840, Note_off_c, 9, 41, 95
7, 267840, Note_on_c, 9, 43, 95
7, 268320, Note_off_c, 9, 43, 95
7, 268320, Note_on_c, 9, 41, 95
7, 268800, Note_off_c, 9, 41, 95
7, 268800, Note_on_c, 9, 35, 95
7, 268800, Note_on_c, 9, 41, 95
7, 269280, Note_off_c, 9, 35, 95
7, 269280, Note_off_c, 9, 41, 95
7, 269280, Note_on_c, 9, 41, 95
7, 269760, Note_off_c, 9, 41, 95
7, 269760, Note_on_c, 9, 40, 95
7, 270240, Note_off_c, 9, 40, 95
7, 270240, Note_on_c, 9, 45, 95
7, 270720, Note_off_c, 9, 45, 95
7, 270720, Note_on_c, 9, 43, 95
7, 271200, Note_off_c, 9, 43, 95
7, 271200, Note_on_c, 9, 41, 95
7, 271200, Note_on_c, 9, 35, 95
7, 271680, Note_off_c, 9, 41, 95
7, 271680, Note_off_c, 9, 35, 95
7, 271680, Note_on_c, 9, 43, 95
7, 272160, Note_off_c, 9, 43, 95
7, 272160, Note_on_c, 9, 41, 95
7, 272640, Note_off_c, 9, 41, 95
7, 272640, Note_on_c, 9, 43, 95
7, 272640, Note_on_c, 9, 35, 95
7, 273120, Note_off_c, 9, 43, 95
7, 273120, Note_off_c, 9, 35, 95
7, 273120, Note_on_c, 9, 41, 95
7, 273600, Note_off_c, 9, 41, 95
7, 273600, Note_on_c, 9, 49, 95
7, 273600, Note_on_c, 9, 35, 95
7, 274080, Note_off_c, 9, 49, 95
7, 274080, Note_off_c, 9, 35, 95
7, 274080, Note_on_c, 9, 41, 95
7, 274560, Note_off_c, 9, 41, 95
7, 274560, Note_on_c, 9, 43, 95
7, 275040, Note_off_c, 9, 43, 95
7, 275040, Note_on_c, 9, 35, 95
7, 275040, Note_on_c, 9, 41, 95
7, 275520, Note_off_c, 9, 35, 95
7, 275520, Note_off_c, 9, 41, 95
7, 275520, Note_on_c, 9, 43, 95
7, 276000, Note_off_c, 9, 43, 95
7, 276000, Note_on_c, 9, 41, 95
7, 276480, Note_off_c, 9, 41, 95
7, 276480, Note_on_c, 9, 35, 95
7, 276480, Note_on_c, 9, 41, 95
7, 276960, Note_off_c, 9, 35, 95
7, 276960, Note_off_c, 9, 41, 95
7, 276960, Note_on_c, 9, 41, 95
7, 277440, Note_off_c, 9, 41, 95
7, 277440, Note_on_c, 9, 40, 95
7, 277920, Note_off_c, 9, 40, 95
7, 277920, Note_on_c, 9, 48, 95
7, 278400, Note_off_c, 9, 48, 95
7, 278400, Note_on_c, 9, 41, 95
7, 278880, Note_off_c, 9, 41, 95
7, 278880, Note_on_c, 9, 35, 95
7, 278880, Note_on_c, 9, 47, 95
7, 279360, Note_off_c, 9, 35, 95
7, 279360, Note_off_c, 9, 47, 95
7, 279360, Note_on_c, 9, 41, 95
7, 279840, Note_off_c, 9, 41, 95
7, 279840, Note_on_c, 9, 45, 95
7, 280320, Note_off_c, 9, 45, 95
7, 280320, Note_on_c, 9, 35, 95
7, 280800, Note_off_c, 9, 35, 95
7, 280800, Note_on_c, 9, 41, 95
7, 281280, Note_off_c, 9, 41, 95
7, 281280, Note_on_c, 9, 49, 95
7, 281280, Note_on_c, 9, 35, 95
7, 281760, Note_off_c, 9, 49, 95
7, 281760, Note_off_c, 9, 35, 95
7, 281760, Note_on_c, 9, 41, 95
7, 282240, Note_off_c, 9, 41, 95
7, 282240, Note_on_c, 9, 43, 95
7, 282720, Note_off_c, 9, 43, 95
7, 282720, Note_on_c, 9, 35, 95
7, 282720, Note_on_c, 9, 41, 95
7, 283200, Note_off_c, 9, 35, 95
7, 283200, Note_off_c, 9, 41, 95
7, 283200, Note_on_c, 9, 43, 95
7, 283680, Note_off_c, 9, 43, 95
7, 283680, Note_on_c, 9, 41, 95
7, 284160, Note_off_c, 9, 41, 95
7, 284160, Note_on_c, 9, 35, 95
7, 284160, Note_on_c, 9, 41, 95
7, 284640, Note_off_c, 9, 35, 95
7, 284640, Note_off_c, 9, 41, 95
7, 284640, Note_on_c, 9, 41, 95
7, 285120, Note_off_c, 9, 41, 95
7, 285120, Note_on_c, 9, 40, 95
7, 285600, Note_off_c, 9, 40, 95
7, 285600, Note_on_c, 9, 45, 95
7, 286080, Note_off_c, 9, 45, 95
7, 286080, Note_on_c, 9, 43, 95
7, 286560, Note_off_c, 9, 43, 95
7, 286560, Note_on_c, 9, 41, 95
7, 286560, Note_on_c, 9, 35, 95
7, 287040, Note_off_c, 9, 41, 95
7, 287040, Note_off_c, 9, 35, 95
7, 287040, Note_on_c, 9, 43, 95
7, 287520, Note_off_c, 9, 43, 95
7, 287520, Note_on_c, 9, 41, 95
7, 288000, Note_off_c, 9, 41, 95
7, 288000, Note_on_c, 9, 43, 95
7, 288000, Note_on_c, 9, 35, 95
7, 288480, Note_off_c, 9, 43, 95
7, 288480, Note_off_c, 9, 35, 95
7, 288480, Note_on_c, 9, 41, 95
7, 288960, Note_off_c, 9, 41, 95
7, 288960, Note_on_c, 9, 49, 95
7, 288960, Note_on_c, 9, 35, 95
7, 289440, Note_off_c, 9, 49, 95
7, 289440, Note_off_c, 9, 35, 95
7, 289440, Note_on_c, 9, 41, 95
7, 289920, Note_off_c, 9, 41, 95
7, 289920, Note_on_c, 9, 43, 95
7, 290400, Note_off_c, 9, 43, 95
7, 290400, Note_on_c, 9, 35, 95
7, 290400, Note_on_c, 9, 41, 95
7, 290880, Note_off_c, 9, 35, 95
7, 290880, Note_off_c, 9, 41, 95
7, 290880, Note_on_c, 9, 43, 95
7, 291360, Note_off_c, 9, 43, 95
7, 291360, Note_on_c, 9, 41, 95
7, 291840, Note_off_c, 9, 41, 95
7, 291840, Note_on_c, 9, 35, 95
7, 291840, Note_on_c, 9, 41, 95
7, 292320, Note_off_c, 9, 35, 95
7, 292320, Note_off_c, 9, 41, 95
7, 292320, Note_on_c, 9, 41, 95
7, 292800, Note_off_c, 9, 41, 95
7, 292800, Note_on_c, 9, 40, 95
7, 293280, Note_off_c, 9, 40, 95
7, 293280, Note_on_c, 9, 48, 95
7, 293760, Note_off_c, 9, 48, 95
7, 293760, Note_on_c, 9, 41, 95
7, 294240, Note_off_c, 9, 41, 95
7, 294240, Note_on_c, 9, 35, 95
7, 294240, Note_on_c, 9, 47, 95
7, 294720, Note_off_c, 9, 35, 95
7, 294720, Note_off_c, 9, 47, 95
7, 294720, Note_on_c, 9, 41, 95
7, 295200, Note_off_c, 9, 41, 95
7, 295200, Note_on_c, 9, 45, 95
7, 295680, Note_off_c, 9, 45, 95
7, 295680, Note_on_c, 9, 35, 95
7, 296160, Note_off_c, 9, 35, 95
7, 296160, Note_on_c, 9, 41, 95
7, 296640, Note_off_c, 9, 41, 95
7, 296640, Note_on_c, 9, 35, 95
7, 296640, Note_on_c, 9, 47, 95
7, 297120, Note_off_c, 9, 35, 95
7, 297120, Note_off_c, 9, 47, 95
7, 297120, Note_on_c, 9, 47, 95
7, 297600, Note_off_c, 9, 47, 95
7, 297600, Note_on_c, 9, 47, 95
7, 298080, Note_off_c, 9, 47, 95
7, 298080, Note_on_c, 9, 47, 95
7, 298560, Note_off_c, 9, 47, 95
7, 298560, Note_on_c, 9, 45, 95
7, 298560, Note_on_c, 9, 35, 95
7, 299040, Note_off_c, 9, 45, 95
7, 299040, Note_off_c, 9, 35, 95
7, 299040, Note_on_c, 9, 45, 95
7, 299520, Note_off_c, 9, 45, 95
7, 299520, Note_on_c, 9, 45, 95
7, 300000, Note_off_c, 9, 45, 95
7, 300000, Note_on_c, 9, 45, 95
7, 300480, Note_off_c, 9, 45, 95
7, 300480, Note_on_c, 9, 41, 95
7, 300480, Note_on_c, 9, 35, 95
7, 300960, Note_off_c, 9, 41, 95
7, 300960, Note_off_c, 9, 35, 95
7, 300960, Note_on_c, 9, 41, 95
7, 301440, Note_off_c, 9, 41, 95
7, 301440, Note_on_c, 9, 41, 95
7, 301920, Note_off_c, 9, 41, 95
7, 301920, Note_on_c, 9, 41, 95
7, 302400, Note_off_c, 9, 41, 95
7, 302400, Note_on_c, 9, 45, 95
7, 302400, Note_on_c, 9, 35, 95
7, 302880, Note_off_c, 9, 45, 95
7, 302880, Note_off_c, 9, 35, 95
7, 302880, Note_on_c, 9, 45, 95
7, 303360, Note_off_c, 9, 45, 95
7, 303360, Note_on_c, 9, 45, 95
7, 303840, Note_off_c, 9, 45, 95
7, 303840, Note_on_c, 9, 45, 95
7, 304320, Note_off_c, 9, 45, 95
7, 304320, Note_on_c, 9, 35, 95
7, 304320, Note_on_c, 9, 40, 95
7, 304320, Note_on_c, 9, 49, 95
7, 304800, Note_off_c, 9, 35, 95
7, 304800, Note_off_c, 9, 40, 95
7, 304800, Note_off_c, 9, 49, 95
7, 304800, Note_on_c, 9, 35, 95
7, 305280, Note_off_c, 9, 35, 95
7, 305280, Note_on_c, 9, 35, 95
7, 305280, Note_on_c, 9, 49, 95
7, 305760, Note_off_c, 9, 35, 95
7, 305760, Note_off_c, 9, 49, 95
7, 305760, Note_on_c, 9, 35, 95
7, 305760, Note_on_c, 9, 40, 95
7, 306240, Note_off_c, 9, 35, 95
7, 306240, Note_off_c, 9, 40, 95
7, 306240, Note_on_c, 9, 35, 95
7, 306240, Note_on_c, 9, 49, 95
7, 306720, Note_off_c, 9, 35, 95
7, 306720, Note_off_c, 9, 49, 95
7, 306720, Note_on_c, 9, 35, 95
7, 307200, Note_off_c, 9, 35, 95
7, 307200, Note_on_c, 9, 35, 95
7, 307200, Note_on_c, 9, 40, 95
7, 307200, Note_on_c, 9, 49, 95
7, 307680, Note_off_c, 9, 35, 95
7, 307680, Note_off_c, 9, 40, 95
7, 307680, Note_off_c, 9, 49, 95
7, 307680, Note_on_c, 9, 35, 95
7, 308160, Note_off_c, 9, 35, 95
7, 308160, Note_on_c, 9, 35, 95
7, 308160, Note_on_c, 9, 49, 95
7, 308640, Note_off_c, 9, 35, 95
7, 308640, Note_off_c, 9, 49, 95
7, 308640, Note_on_c, 9, 35, 95
7, 308640, Note_on_c, 9, 40, 95
7, 309120, Note_off_c, 9, 35, 95
7, 309120, Note_off_c, 9, 40, 95
7, 309120, Note_on_c, 9, 35, 95
7, 309120, Note_on_c, 9, 49, 95
7, 309600, Note_off_c, 9, 35, 95
7, 309600, Note_off_c, 9, 49, 95
7, 309600, Note_on_c, 9, 35, 95
7, 310080, Note_off_c, 9, 35, 95
7, 310080, Note_on_c, 9, 49, 95
7, 310080, Note_on_c, 9, 35, 95
7, 310560, Note_off_c, 9, 49, 95
7, 310560, Note_off_c, 9, 35, 95
7, 310560, Note_on_c, 9, 35, 95
7, 311040, Note_off_c, 9, 35, 95
7, 311040, Note_on_c, 9, 35, 95
7, 311520, Note_off_c, 9, 35, 95
7, 311520, Note_on_c, 9, 35, 95
7, 311520, Note_on_c, 9, 45, 127
7, 311520, Note_on_c, 9, 43, 127
7, 312000, Note_off_c, 9, 35, 95
7, 312000, Note_off_c, 9, 45, 127
7, 312000, Note_off_c, 9, 43, 127
7, 312000, Note_on_c, 9, 35, 95
7, 312480, Note_off_c, 9, 35, 95
7, 312480, Note_on_c, 9, 35, 95
7, 312960, Note_off_c, 9, 35, 95
7, 312960, Note_on_c, 9, 35, 95
7, 312960, Note_on_c, 9, 43, 127
7, 312960, Note_on_c, 9, 41, 127
7, 313440, Note_off_c, 9, 35, 95
7, 313440, Note_off_c, 9, 43, 127
7, 313440, Note_off_c, 9, 41, 127
7, 313440, Note_on_c, 9, 35, 95
7, 313920, Note_off_c, 9, 35, 95
7, 313920, Note_on_c, 9, 52, 95
7, 313920, Note_on_c, 9, 35, 95
7, 313920, Note_on_c, 9, 40, 95
7, 314400, Note_off_c, 9, 52, 95
7, 314400, Note_off_c, 9, 35, 95
7, 314400, Note_off_c, 9, 40, 95
7, 314400, Note_on_c, 9, 35, 95
7, 314880, Note_off_c, 9, 35, 95
7, 314880, Note_on_c, 9, 52, 95
7, 314880, Note_on_c, 9, 35, 95
7, 314880, Note_on_c, 9, 40, 95
7, 315360, Note_off_c, 9, 52, 95
7, 315360, Note_off_c, 9, 35, 95
7, 315360, Note_off_c, 9, 40, 95
7, 315360, Note_on_c, 9, 35, 95
7, 315840, Note_off_c, 9, 35, 95
7, 315840, Note_on_c, 9, 52, 95
7, 315840, Note_on_c, 9, 35, 95
7, 315840, Note_on_c, 9, 40, 95
7, 316320, Note_off_c, 9, 52, 95
7, 316320, Note_off_c, 9, 35, 95
7, 316320, Note_off_c, 9, 40, 95
7, 316320, Note_on_c, 9, 35, 95
7, 316800, Note_off_c, 9, 35, 95
7, 316800, Note_on_c, 9, 55, 95
7, 316800, Note_on_c, 9, 35, 95
7, 317280, Note_off_c, 9, 55, 95
7, 317280, Note_off_c, 9, 35, 95
7, 317280, Note_on_c, 9, 55, 95
7, 317280, Note_on_c, 9, 35, 95
7, 317760, Note_off_c, 9, 55, 95
7, 317760, Note_off_c, 9, 35, 95
7, 317760, Note_on_c, 9, 49, 95
7, 317760, Note_on_c, 9, 35, 95
7, 318240, Note_off_c, 9, 49, 95
7, 318240, Note_off_c, 9, 35, 95
7, 318240, Note_on_c, 9, 35, 95
7, 318720, Note_off_c, 9, 35, 95
7, 318720, Note_on_c, 9, 35, 95
7, 319200, Note_off_c, 9, 35, 95
7, 319200, Note_on_c, 9, 35, 95
7, 319200, Note_on_c, 9, 45, 127
7, 319200, Note_on_c, 9, 43, 127
7, 319680, Note_off_c, 9, 35, 95
7, 319680, Note_off_c, 9, 45, 127
7, 319680, Note_off_c, 9, 43, 127
7, 319680, Note_on_c, 9, 35, 95
7, 320160, Note_off_c, 9, 35, 95
7, 320160, Note_on_c, 9, 35, 95
7, 320640, Note_off_c, 9, 35, 95
7, 320640, Note_on_c, 9, 35, 95
7, 320640, Note_on_c, 9, 43, 127
7, 320640, Note_on_c, 9, 41, 127
7, 321120, Note_off_c, 9, 35, 95
7, 321120, Note_off_c, 9, 43, 127
7, 321120, Note_off_c, 9, 41, 127
7, 321120, Note_on_c, 9, 35, 95
7, 321600, Note_off_c, 9, 35, 95
7, 321600, Note_on_c, 9, 52, 95
7, 321600, Note_on_c, 9, 35, 95
7, 321600, Note_on_c, 9, 40, 95
7, 322080, Note_off_c, 9, 52, 95
7, 322080, Note_off_c, 9, 35, 95
7, 322080, Note_off_c, 9, 40, 95
7, 322080, Note_on_c, 9, 35, 95
7, 322080, Note_on_c, 9, 40, 95
7, 322560, Note_off_c, 9, 35, 95
7, 322560, Note_off_c, 9, 40, 95
7, 322560, Note_on_c, 9, 52, 95
7, 322560, Note_on_c, 9, 35, 95
7, 322560, Note_on_c, 9, 40, 95
7, 323040, Note_off_c, 9, 52, 95
7, 323040, Note_off_c, 9, 35, 95
7, 323040, Note_off_c, 9, 40, 95
7, 323040, Note_on_c, 9, 35, 95
7, 323040, Note_on_c, 9, 40, 95
7, 323520, Note_off_c, 9, 35, 95
7, 323520, Note_off_c, 9, 40, 95
7, 323520, Note_on_c, 9, 52, 95
7, 323520, Note_on_c, 9, 35, 95
7, 323520, Note_on_c, 9, 40, 95
7, 324000, Note_off_c, 9, 52, 95
7, 324000, Note_off_c, 9, 35, 95
7, 324000, Note_off_c, 9, 40, 95
7, 324000, Note_on_c, 9, 35, 95
7, 324000, Note_on_c, 9, 40, 95
7, 324480, Note_off_c, 9, 35, 95
7, 324480, Note_off_c, 9, 40, 95
7, 324480, Note_on_c, 9, 55, 95
7, 324480, Note_on_c, 9, 35, 95
7, 324960, Note_off_c, 9, 55, 95
7, 324960, Note_off_c, 9, 35, 95
7, 324960, Note_on_c, 9, 55, 95
7, 324960, Note_on_c, 9, 35, 95
7, 325440, Note_off_c, 9, 55, 95
7, 325440, Note_off_c, 9, 35, 95
7, 325440, Note_on_c, 9, 49, 95
7, 325440, Note_on_c, 9, 35, 95
7, 325920, Note_off_c, 9, 49, 95
7, 325920, Note_off_c, 9, 35, 95
7, 325920, Note_on_c, 9, 35, 95
7, 326400, Note_off_c, 9, 35, 95
7, 326400, Note_on_c, 9, 35, 95
7, 326880, Note_off_c, 9, 35, 95
7, 326880, Note_on_c, 9, 35, 95
7, 326880, Note_on_c, 9, 45, 127
7, 326880, Note_on_c, 9, 43, 127
7, 327360, Note_off_c, 9, 35, 95
7, 327360, Note_off_c, 9, 45, 127
7, 327360, Note_off_c, 9, 43, 127
7, 327360, Note_on_c, 9, 35, 95
7, 327840, Note_off_c, 9, 35, 95
7, 327840, Note_on_c, 9, 35, 95
7, 328320, Note_off_c, 9, 35, 95
7, 328320, Note_on_c, 9, 35, 95
7, 328320, Note_on_c, 9, 43, 127
7, 328320, Note_on_c, 9, 41, 127
7, 328800, Note_off_c, 9, 35, 95
7, 328800, Note_off_c, 9, 43, 127
7, 328800, Note_off_c, 9, 41, 127
7, 328800, Note_on_c, 9, 35, 95
7, 329280, Note_off_c, 9, 35, 95
7, 329280, Note_on_c, 9, 52, 95
7, 329280, Note_on_c, 9, 35, 95
7, 329280, Note_on_c, 9, 40, 95
7, 329760, Note_off_c, 9, 52, 95
7, 329760, Note_off_c, 9, 35, 95
7, 329760, Note_off_c, 9, 40, 95
7, 329760, Note_on_c, 9, 35, 95
7, 330240, Note_off_c, 9, 35, 95
7, 330240, Note_on_c, 9, 52, 95
7, 330240, Note_on_c, 9, 35, 95
7, 330240, Note_on_c, 9, 40, 95
7, 330720, Note_off_c, 9, 52, 95
7, 330720, Note_off_c, 9, 35, 95
7, 330720, Note_off_c, 9, 40, 95
7, 330720, Note_on_c, 9, 35, 95
7, 331200, Note_off_c, 9, 35, 95
7, 331200, Note_on_c, 9, 52, 95
7, 331200, Note_on_c, 9, 35, 95
7, 331200, Note_on_c, 9, 40, 95
7, 331680, Note_off_c, 9, 52, 95
7, 331680, Note_off_c, 9, 35, 95
7, 331680, Note_off_c, 9, 40, 95
7, 331680, Note_on_c, 9, 35, 95
7, 332160, Note_off_c, 9, 35, 95
7, 332160, Note_on_c, 9, 55, 95
7, 332160, Note_on_c, 9, 35, 95
7, 332640, Note_off_c, 9, 55, 95
7, 332640, Note_off_c, 9, 35, 95
7, 332640, Note_on_c, 9, 55, 95
7, 332640, Note_on_c, 9, 35, 95
7, 333120, Note_off_c, 9, 55, 95
7, 333120, Note_off_c, 9, 35, 95
7, 333120, Note_on_c, 9, 49, 95
7, 333120, Note_on_c, 9, 35, 95
7, 333600, Note_off_c, 9, 49, 95
7, 333600, Note_off_c, 9, 35, 95
7, 333600, Note_on_c, 9, 35, 95
7, 334080, Note_off_c, 9, 35, 95
7, 334080, Note_on_c, 9, 35, 95
7, 334560, Note_off_c, 9, 35, 95
7, 334560, Note_on_c, 9, 35, 95
7, 334560, Note_on_c, 9, 45, 127
7, 334560, Note_on_c, 9, 43, 127
7, 335040, Note_off_c, 9, 35, 95
7, 335040, Note_off_c, 9, 45, 127
7, 335040, Note_off_c, 9, 43, 127
7, 335040, Note_on_c, 9, 35, 95
7, 335520, Note_off_c, 9, 35, 95
7, 335520, Note_on_c, 9, 35, 95
7, 336000, Note_off_c, 9, 35, 95
7, 336000, Note_on_c, 9, 35, 95
7, 336000, Note_on_c, 9, 43, 127
7, 336000, Note_on_c, 9, 41, 127
7, 336480, Note_off_c, 9, 35, 95
7, 336480, Note_off_c, 9, 43, 127
7, 336480, Note_off_c, 9, 41, 127
7, 336480, Note_on_c, 9, 35, 95
7, 336960, Note_off_c, 9, 35, 95
7, 336960, Note_on_c, 9, 52, 95
7, 336960, Note_on_c, 9, 35, 95
7, 336960, Note_on_c, 9, 40, 95
7, 337440, Note_off_c, 9, 52, 95
7, 337440, Note_off_c, 9, 35, 95
7, 337440, Note_off_c, 9, 40, 95
7, 337440, Note_on_c, 9, 35, 95
7, 337440, Note_on_c, 9, 40, 95
7, 337920, Note_off_c, 9, 35, 95
7, 337920, Note_off_c, 9, 40, 95
7, 337920, Note_on_c, 9, 52, 95
7, 337920, Note_on_c, 9, 35, 95
7, 337920, Note_on_c, 9, 40, 95
7, 338400, Note_off_c, 9, 52, 95
7, 338400, Note_off_c, 9, 35, 95
7, 338400, Note_off_c, 9, 40, 95
7, 338400, Note_on_c, 9, 35, 95
7, 338400, Note_on_c, 9, 40, 95
7, 338880, Note_off_c, 9, 35, 95
7, 338880, Note_off_c, 9, 40, 95
7, 338880, Note_on_c, 9, 52, 95
7, 338880, Note_on_c, 9, 35, 95
7, 338880, Note_on_c, 9, 40, 95
7, 339360, Note_off_c, 9, 52, 95
7, 339360, Note_off_c, 9, 35, 95
7, 339360, Note_off_c, 9, 40, 95
7, 339360, Note_on_c, 9, 35, 95
7, 339360, Note_on_c, 9, 40, 95
7, 339840, Note_off_c, 9, 35, 95
7, 339840, Note_off_c, 9, 40, 95
7, 339840, Note_on_c, 9, 55, 95
7, 339840, Note_on_c, 9, 35, 95
7, 340320, Note_off_c, 9, 55, 95
7, 340320, Note_off_c, 9, 35, 95
7, 340320, Note_on_c, 9, 55, 95
7, 340320, Note_on_c, 9, 35, 95
7, 340800, Note_off_c, 9, 55, 95
7, 340800, Note_off_c, 9, 35, 95
7, 340800, Note_on_c, 9, 49, 95
7, 340800, Note_on_c, 9, 40, 95
7, 341280, Note_off_c, 9, 49, 95
7, 341280, Note_off_c, 9, 40, 95
7, 341280, Note_on_c, 9, 35, 95
7, 341760, Note_off_c, 9, 35, 95
7, 341760, Note_on_c, 9, 35, 95
7, 342240, Note_off_c, 9, 35, 95
7, 342240, Note_on_c, 9, 40, 95
7, 342720, Note_off_c, 9, 40, 95
7, 342720, Note_on_c, 9, 55, 95
7, 343200, Note_off_c, 9, 55, 95
7, 343200, Note_on_c, 9, 35, 95
7, 343680, Note_off_c, 9, 35, 95
7, 343680, Note_on_c, 9, 40, 95
7, 344160, Note_off_c, 9, 40, 95
7, 344160, Note_on_c, 9, 40, 95
7, 344640, Note_off_c, 9, 40, 95
7, 344640, Note_on_c, 9, 46, 95
7, 345120, Note_off_c, 9, 46, 95
7, 345120, Note_on_c, 9, 40, 95
7, 345600, Note_off_c, 9, 40, 95
7, 345600, Note_on_c, 9, 35, 95
7, 346080, Note_off_c, 9, 35, 95
7, 346080, Note_on_c, 9, 40, 95
7, 346560, Note_off_c, 9, 40, 95
7, 346560, Note_on_c, 9, 40, 95
7, 347040, Note_off_c, 9, 40, 95
7, 347040, Note_on_c, 9, 35, 95
7, 347520, Note_off_c, 9, 35, 95
7, 347520, Note_on_c, 9, 40, 95
7, 348000, Note_off_c, 9, 40, 95
7, 348000, Note_on_c, 9, 46, 95
7, 348480, Note_off_c, 9, 46, 95
7, 348480, Note_on_c, 9, 35, 95
7, 348960, Note_off_c, 9, 35, 95
7, 348960, Note_on_c, 9, 46, 95
7, 349440, Note_off_c, 9, 46, 95
7, 349440, Note_on_c, 9, 40, 95
7, 349920, Note_off_c, 9, 40, 95
7, 349920, Note_on_c, 9, 35, 95
7, 350400, Note_off_c, 9, 35, 95
7, 350400, Note_on_c, 9, 45, 95
7, 350880, Note_off_c, 9, 45, 95
7, 350880, Note_on_c, 9, 43, 95
7, 351360, Note_off_c, 9, 43, 95
7, 351360, Note_on_c, 9, 40, 95
7, 351840, Note_off_c, 9, 40, 95
7, 351840, Note_on_c, 9, 40, 95
7, 352320, Note_off_c, 9, 40, 95
7, 352320, Note_on_c, 9, 46, 95
7, 352320, Note_on_c, 9, 40, 95
7, 352800, Note_off_c, 9, 46, 95
7, 352800, Note_off_c, 9, 40, 95
7, 352800, Note_on_c, 9, 44, 95
7, 353280, Note_off_c, 9, 44, 95
7, 356160, Note_on_c, 9, 49, 79
7, 356160, Note_on_c, 9, 35, 79
7, 357120, Note_off_c, 9, 49, 79
7, 357120, Note_off_c, 9, 35, 79
7, 357120, Note_on_c, 9, 49, 79
7, 357120, Note_on_c, 9, 35, 79
7, 358080, Note_off_c, 9, 49, 79
7, 358080, Note_off_c, 9, 35, 79
7, 358080, Note_on_c, 9, 49, 79
7, 358080, Note_on_c, 9, 40, 79
7, 359040, Note_off_c, 9, 49, 79
7, 359040, Note_off_c, 9, 40, 79
7, 359040, Note_on_c, 9, 49, 79
7, 359040, Note_on_c, 9, 35, 79
7, 359520, Note_off_c, 9, 49, 79
7, 359520, Note_off_c, 9, 35, 79
7, 359520, Note_on_c, 9, 35, 79
7, 359520, Note_on_c, 9, 55, 79
7, 360000, Note_off_c, 9, 35, 79
7, 360000, Note_off_c, 9, 55, 79
7, 360000, Note_on_c, 9, 49, 79
7, 360000, Note_on_c, 9, 40, 79
7, 360960, Note_off_c, 9, 49, 79
7, 360960, Note_off_c, 9, 40, 79
7, 360960, Note_on_c, 9, 49, 79
7, 360960, Note_on_c, 9, 35, 79
7, 361440, Note_off_c, 9, 49, 79
7, 361440, Note_off_c, 9, 35, 79
7, 361440, Note_on_c, 9, 55, 79
7, 361440, Note_on_c, 9, 35, 79
7, 361920, Note_off_c, 9, 55, 79
7, 361920, Note_off_c, 9, 35, 79
7, 361920, Note_on_c, 9, 49, 79
7, 361920, Note_on_c, 9, 40, 79
7, 362880, Note_off_c, 9, 49, 79
7, 362880, Note_off_c, 9, 40, 79
7, 362880, Note_on_c, 9, 49, 79
7, 362880, Note_on_c, 9, 35, 79
7, 363840, Note_off_c, 9, 49, 79
7, 363840, Note_off_c, 9, 35, 79
7, 363840, Note_on_c, 9, 49, 79
7, 363840, Note_on_c, 9, 40, 79
7, 364800, Note_off_c, 9, 49, 79
7, 364800, Note_off_c, 9, 40, 79
7, 364800, Note_on_c, 9, 49, 79
7, 364800, Note_on_c, 9, 35, 79
7, 365760, Note_off_c, 9, 49, 79
7, 365760, Note_off_c, 9, 35, 79
7, 365760, Note_on_c, 9, 49, 79
7, 365760, Note_on_c, 9, 40, 79
7, 366240, Note_off_c, 9, 49, 79
7, 366240, Note_off_c, 9, 40, 79
7, 366240, Note_on_c, 9, 40, 95
7, 366480, Note_off_c, 9, 40, 95
7, 366480, Note_on_c, 9, 40, 95
7, 366720, Note_off_c, 9, 40, 95
7, 366720, Note_on_c, 9, 49, 95
7, 366720, Note_on_c, 9, 35, 95
7, 367200, Note_off_c, 9, 49, 95
7, 367200, Note_off_c, 9, 35, 95
7, 367200, Note_on_c, 9, 55, 95
7, 367200, Note_on_c, 9, 35, 95
7, 367680, Note_off_c, 9, 55, 95
7, 367680, Note_off_c, 9, 35, 95
7, 367680, Note_on_c, 9, 40, 95
7, 367680, Note_on_c, 9, 57, 95
7, 368160, Note_off_c, 9, 40, 95
7, 368160, Note_off_c, 9, 57, 95
7, 368160, Note_on_c, 9, 35, 95
7, 368640, Note_off_c, 9, 35, 95
7, 368640, Note_on_c, 9, 49, 95
7, 368640, Note_on_c, 9, 40, 95
7, 369120, Note_off_c, 9, 49, 95
7, 369120, Note_off_c, 9, 40, 95
7, 369120, Note_on_c, 9, 35, 95
7, 369600, Note_off_c, 9, 35, 95
7, 369600, Note_on_c, 9, 49, 95
7, 369600, Note_on_c, 9, 40, 95
7, 370080, Note_off_c, 9, 49, 95
7, 370080, Note_off_c, 9, 40, 95
7, 370080, Note_on_c, 9, 35, 95
7, 370560, Note_off_c, 9, 35, 95
7, 370560, Note_on_c, 9, 49, 95
7, 370560, Note_on_c, 9, 35, 95
7, 371040, Note_off_c, 9, 49, 95
7, 371040, Note_off_c, 9, 35, 95
7, 371040, Note_on_c, 9, 55, 95
7, 371040, Note_on_c, 9, 35, 95
7, 371520, Note_off_c, 9, 55, 95
7, 371520, Note_off_c, 9, 35, 95
7, 371520, Note_on_c, 9, 40, 95
7, 371520, Note_on_c, 9, 57, 95
7, 372000, Note_off_c, 9, 40, 95
7, 372000, Note_off_c, 9, 57, 95
7, 372000, Note_on_c, 9, 40, 95
7, 372240, Note_off_c, 9, 40, 95
7, 372240, Note_on_c, 9, 40, 95
7, 372480, Note_off_c, 9, 40, 95
7, 372480, Note_on_c, 9, 49, 95
7, 372480, Note_on_c, 9, 35, 95
7, 372720, Note_off_c, 9, 49, 95
7, 372720, Note_off_c, 9, 35, 95
7, 372720, Note_on_c, 9, 40, 95
7, 372840, Note_off_c, 9, 40, 95
7, 372840, Note_on_c, 9, 40, 95
7, 372960, Note_off_c, 9, 40, 95
7, 372960, Note_on_c, 9, 40, 95
7, 373200, Note_off_c, 9, 40, 95
7, 373200, Note_on_c, 9, 35, 95
7, 373440, Note_off_c, 9, 35, 95
7, 373440, Note_on_c, 9, 49, 95
7, 373440, Note_on_c, 9, 40, 95
7, 373680, Note_off_c, 9, 49, 95
7, 373680, Note_off_c, 9, 40, 95
7, 373680, Note_on_c, 9, 35, 95
7, 373920, Note_off_c, 9, 35, 95
7, 373920, Note_on_c, 9, 55, 95
7, 373920, Note_on_c, 9, 40, 95
7, 374160, Note_off_c, 9, 55, 95
7, 374160, Note_off_c, 9, 40, 95
7, 374160, Note_on_c, 9, 35, 95
7, 374400, Note_off_c, 9, 35, 95
7, 374400, Note_on_c, 9, 49, 95
7, 374400, Note_on_c, 9, 35, 95
7, 374880, Note_off_c, 9, 49, 95
7, 374880, Note_off_c, 9, 35, 95
7, 374880, Note_on_c, 9, 51, 95
7, 375360, Note_off_c, 9, 51, 95
7, 375360, Note_on_c, 9, 40, 95
7, 375360, Note_on_c, 9, 57, 95
7, 375840, Note_off_c, 9, 40, 95
7, 375840, Note_off_c, 9, 57, 95
7, 375840, Note_on_c, 9, 51, 95
7, 375840, Note_on_c, 9, 35, 95
7, 376320, Note_off_c, 9, 51, 95
7, 376320, Note_off_c, 9, 35, 95
7, 376320, Note_on_c, 9, 35, 95
7, 376320, Note_on_c, 9, 51, 95
7, 376800, Note_off_c, 9, 35, 95
7, 376800, Note_off_c, 9, 51, 95
7, 376800, Note_on_c, 9, 51, 95
7, 377280, Note_off_c, 9, 51, 95
7, 377280, Note_on_c, 9, 40, 95
7, 377280, Note_on_c, 9, 57, 95
7, 377760, Note_off_c, 9, 40, 95
7, 377760, Note_off_c, 9, 57, 95
7, 377760, Note_on_c, 9, 35, 95
7, 377760, Note_on_c, 9, 51, 95
7, 378240, Note_off_c, 9, 35, 95
7, 378240, Note_off_c, 9, 51, 95
7, 378240, Note_on_c, 9, 35, 95
7, 378240, Note_on_c, 9, 51, 95
7, 378720, Note_off_c, 9, 35, 95
7, 378720, Note_off_c, 9, 51, 95
7, 378720, Note_on_c, 9, 51, 95
7, 379200, Note_off_c, 9, 51, 95
7, 379200, Note_on_c, 9, 51, 95
7, 379200, Note_on_c, 9, 40, 95
7, 379680, Note_off_c, 9, 51, 95
7, 379680, Note_off_c, 9, 40, 95
7, 379680, Note_on_c, 9, 35, 95
7, 379680, Note_on_c, 9, 51, 95
7, 380160, Note_off_c, 9, 35, 95
7, 380160, Note_off_c, 9, 51, 95
7, 380160, Note_on_c, 9, 51, 95
7, 380160, Note_on_c, 9, 35, 95
7, 380640, Note_off_c, 9, 51, 95
7, 380640, Note_off_c, 9, 35, 95
7, 380640, Note_on_c, 9, 51, 95
7, 381120, Note_off_c, 9, 51, 95
7, 381120, Note_on_c, 9, 40, 95
7, 381120, Note_on_c, 9, 51, 95
7, 381600, Note_off_c, 9, 40, 95
7, 381600, Note_off_c, 9, 51, 95
7, 381600, Note_on_c, 9, 51, 95
7, 381600, Note_on_c, 9, 35, 95
7, 382080, Note_off_c, 9, 51, 95
7, 382080, Note_off_c, 9, 35, 95
7, 382080, Note_on_c, 9, 51, 95
7, 382080, Note_on_c, 9, 35, 95
7, 382560, Note_off_c, 9, 51, 95
7, 382560, Note_off_c, 9, 35, 95
7, 382560, Note_on_c, 9, 51, 95
7, 383040, Note_off_c, 9, 51, 95
7, 383040, Note_on_c, 9, 40, 95
7, 383040, Note_on_c, 9, 51, 95
7, 383520, Note_off_c, 9, 40, 95
7, 383520, Note_off_c, 9, 51, 95
7, 383520, Note_on_c, 9, 51, 95
7, 384000, Note_off_c, 9, 51, 95
7, 384000, Note_on_c, 9, 51, 95
7, 384000, Note_on_c, 9, 35, 95
7, 384480, Note_off_c, 9, 51, 95
7, 384480, Note_off_c, 9, 35, 95
7, 384480, Note_on_c, 9, 51, 95
7, 384960, Note_off_c, 9, 51, 95
7, 384960, Note_on_c, 9, 51, 95
7, 384960, Note_on_c, 9, 40, 95
7, 385440, Note_off_c, 9, 51, 95
7, 385440, Note_off_c, 9, 40, 95
7, 385440, Note_on_c, 9, 51, 95
7, 385440, Note_on_c, 9, 35, 95
7, 385920, Note_off_c, 9, 51, 95
7, 385920, Note_off_c, 9, 35, 95
7, 385920, Note_on_c, 9, 35, 95
7, 385920, Note_on_c, 9, 51, 95
7, 386400, Note_off_c, 9, 35, 95
7, 386400, Note_off_c, 9, 51, 95
7, 386400, Note_on_c, 9, 55, 95
7, 386880, Note_off_c, 9, 55, 95
7, 386880, Note_on_c, 9, 49, 95
7, 386880, Note_on_c, 9, 40, 95
7, 387360, Note_off_c, 9, 49, 95
7, 387360, Note_off_c, 9, 40, 95
7, 387360, Note_on_c, 9, 51, 95
7, 387840, Note_off_c, 9, 51, 95
7, 387840, Note_on_c, 9, 51, 95
7, 387840, Note_on_c, 9, 35, 95
7, 388320, Note_off_c, 9, 51, 95
7, 388320, Note_off_c, 9, 35, 95
7, 388320, Note_on_c, 9, 51, 95
7, 388800, Note_off_c, 9, 51, 95
7, 388800, Note_on_c, 9, 40, 95
7, 388800, Note_on_c, 9, 51, 95
7, 389280, Note_off_c, 9, 40, 95
7, 389280, Note_off_c, 9, 51, 95
7, 389280, Note_on_c, 9, 51, 95
7, 389760, Note_off_c, 9, 51, 95
7, 389760, Note_on_c, 9, 51, 95
7, 389760, Note_on_c, 9, 35, 95
7, 390240, Note_off_c, 9, 51, 95
7, 390240, Note_off_c, 9, 35, 95
7, 390240, Note_on_c, 9, 51, 95
7, 390720, Note_off_c, 9, 51, 95
7, 390720, Note_on_c, 9, 40, 95
7, 390720, Note_on_c, 9, 49, 95
7, 391200, Note_off_c, 9, 40, 95
7, 391200, Note_off_c, 9, 49, 95
7, 393600, Note_on_c, 9, 40, 95
7, 393840, Note_off_c, 9, 40, 95
7, 393840, Note_on_c, 9, 47, 95
7, 394080, Note_off_c, 9, 47, 95
7, 394080, Note_on_c, 9, 45, 95
7, 394320, Note_off_c, 9, 45, 95
7, 394320, Note_on_c, 9, 43, 95
7, 394560, Note_off_c, 9, 43, 95
7, 394560, Note_on_c, 9, 41, 95
7, 394800, Note_off_c, 9, 41, 95
7, 394800, Note_on_c, 9, 35, 95
7, 395040, Note_off_c, 9, 35, 95
7, 395040, Note_on_c, 9, 40, 95
7, 395280, Note_off_c, 9, 40, 95
7, 395520, Note_on_c, 9, 49, 95
7, 395520, Note_on_c, 9, 35, 95
7, 396480, Note_off_c, 9, 49, 95
7, 396480, Note_off_c, 9, 35, 95
7, 396480, Note_on_c, 9, 46, 95
7, 396480, Note_on_c, 9, 40, 95
7, 397200, Note_off_c, 9, 46, 95
7, 397200, Note_off_c, 9, 40, 95
7, 397200, Note_on_c, 9, 40, 95
7, 397440, Note_off_c, 9, 40, 95
7, 397440, Note_on_c, 9, 46, 95
7, 397920, Note_off_c, 9, 46, 95
7, 397920, Note_on_c, 9, 35, 95
7, 398400, Note_off_c, 9, 35, 95
7, 398400, Note_on_c, 9, 46, 95
7, 398400, Note_on_c, 9, 40, 95
7, 399360, Note_off_c, 9, 46, 95
7, 399360, Note_off_c, 9, 40, 95
7, 399360, Note_on_c, 9, 35, 95
7, 399360, Note_on_c, 9, 46, 95
7, 400320, Note_off_c, 9, 35, 95
7, 400320, Note_off_c, 9, 46, 95
7, 400320, Note_on_c, 9, 46, 95
7, 400320, Note_on_c, 9, 40, 95
7, 401040, Note_off_c, 9, 46, 95
7, 401040, Note_off_c, 9, 40, 95
7, 401040, Note_on_c, 9, 40, 95
7, 401280, Note_off_c, 9, 40, 95
7, 401280, Note_on_c, 9, 46, 95
7, 401760, Note_off_c, 9, 46, 95
7, 401760, Note_on_c, 9, 35, 95
7, 402240, Note_off_c, 9, 35, 95
7, 402240, Note_on_c, 9, 46, 95
7, 402240, Note_on_c, 9, 40, 95
7, 402720, Note_off_c, 9, 46, 95
7, 402720, Note_off_c, 9, 40, 95
7, 402720, Note_on_c, 9, 35, 95
7, 403200, Note_off_c, 9, 35, 95
7, 403200, Note_on_c, 9, 49, 95
7, 403200, Note_on_c, 9, 35, 95
7, 404160, Note_off_c, 9, 49, 95
7, 404160, Note_off_c, 9, 35, 95
7, 404160, Note_on_c, 9, 46, 95
7, 404160, Note_on_c, 9, 40, 95
7, 404880, Note_off_c, 9, 46, 95
7, 404880, Note_off_c, 9, 40, 95
7, 404880, Note_on_c, 9, 40, 95
7, 405120, Note_off_c, 9, 40, 95
7, 405120, Note_on_c, 9, 46, 95
7, 405600, Note_off_c, 9, 46, 95
7, 405600, Note_on_c, 9, 35, 95
7, 406080, Note_off_c, 9, 35, 95
7, 406080, Note_on_c, 9, 46, 95
7, 406080, Note_on_c, 9, 40, 95
7, 407040, Note_off_c, 9, 46, 95
7, 407040, Note_off_c, 9, 40, 95
7, 407040, Note_on_c, 9, 35, 95
7, 407040, Note_on_c, 9, 46, 95
7, 408000, Note_off_c, 9, 35, 95
7, 408000, Note_off_c, 9, 46, 95
7, 408000, Note_on_c, 9, 46, 95
7, 408000, Note_on_c, 9, 40, 95
7, 408720, Note_off_c, 9, 46, 95
7, 408720, Note_off_c, 9, 40, 95
7, 408720, Note_on_c, 9, 40, 95
7, 408960, Note_off_c, 9, 40, 95
7, 408960, Note_on_c, 9, 46, 95
7, 409440, Note_off_c, 9, 46, 95
7, 409440, Note_on_c, 9, 35, 95
7, 409920, Note_off_c, 9, 35, 95
7, 409920, Note_on_c, 9, 46, 95
7, 409920, Note_on_c, 9, 40, 95
7, 410400, Note_off_c, 9, 46, 95
7, 410400, Note_off_c, 9, 40, 95
7, 410400, Note_on_c, 9, 35, 95
7, 410400, Note_on_c, 9, 55, 95
7, 410880, Note_off_c, 9, 35, 95
7, 410880, Note_off_c, 9, 55, 95
7, 410880, Note_on_c, 9, 49, 95
7, 410880, Note_on_c, 9, 35, 95
7, 411840, Note_off_c, 9, 49, 95
7, 411840, Note_off_c, 9, 35, 95
7, 411840, Note_on_c, 9, 46, 95
7, 411840, Note_on_c, 9, 40, 95
7, 412560, Note_off_c, 9, 46, 95
7, 412560, Note_off_c, 9, 40, 95
7, 412560, Note_on_c, 9, 40, 95
7, 412800, Note_off_c, 9, 40, 95
7, 412800, Note_on_c, 9, 49, 95
7, 412800, Note_on_c, 9, 35, 95
7, 413760, Note_off_c, 9, 49, 95
7, 413760, Note_off_c, 9, 35, 95
7, 413760, Note_on_c, 9, 46, 95
7, 413760, Note_on_c, 9, 40, 95
7, 414480, Note_off_c, 9, 46, 95
7, 414480, Note_off_c, 9, 40, 95
7, 414480, Note_on_c, 9, 40, 95
7, 414720, Note_off_c, 9, 40, 95
7, 414720, Note_on_c, 9, 49, 95
7, 414720, Note_on_c, 9, 35, 95
7, 415200, Note_off_c, 9, 49, 95
7, 415200, Note_off_c, 9, 35, 95
7, 415200, Note_on_c, 9, 55, 95
7, 415680, Note_off_c, 9, 55, 95
7, 415680, Note_on_c, 9, 46, 95
7, 415680, Note_on_c, 9, 40, 95
7, 416160, Note_off_c, 9, 46, 95
7, 416160, Note_off_c, 9, 40, 95
7, 416160, Note_on_c, 9, 44, 95
7, 416400, Note_off_c, 9, 44, 95
7, 416400, Note_on_c, 9, 40, 95
7, 416640, Note_off_c, 9, 40, 95
7, 416640, Note_on_c, 9, 49, 95
7, 416640, Note_on_c, 9, 35, 95
7, 417120, Note_off_c, 9, 49, 95
7, 417120, Note_off_c, 9, 35, 95
7, 417120, Note_on_c, 9, 55, 95
7, 417120, Note_on_c, 9, 35, 95
7, 417600, Note_off_c, 9, 55, 95
7, 417600, Note_off_c, 9, 35, 95
7, 417600, Note_on_c, 9, 46, 95
7, 417600, Note_on_c, 9, 40, 95
7, 418080, Note_off_c, 9, 46, 95
7, 418080, Note_off_c, 9, 40, 95
7, 418080, Note_on_c, 9, 44, 95
7, 418080, Note_on_c, 9, 35, 95
7, 418560, Note_off_c, 9, 44, 95
7, 418560, Note_off_c, 9, 35, 95
7, 418560, Note_on_c, 9, 49, 95
7, 418560, Note_on_c, 9, 35, 95
7, 419520, Note_off_c, 9, 49, 95
7, 419520, Note_off_c, 9, 35, 95
7, 419520, Note_on_c, 9, 46, 95
7, 419520, Note_on_c, 9, 40, 95
7, 420240, Note_off_c, 9, 46, 95
7, 420240, Note_off_c, 9, 40, 95
7, 420240, Note_on_c, 9, 40, 95
7, 420480, Note_off_c, 9, 40, 95
7, 420480, Note_on_c, 9, 49, 95
7, 420480, Note_on_c, 9, 35, 95
7, 421440, Note_off_c, 9, 49, 95
7, 421440, Note_off_c, 9, 35, 95
7, 421440, Note_on_c, 9, 46, 95
7, 421440, Note_on_c, 9, 40, 95
7, 422160, Note_off_c, 9, 46, 95
7, 422160, Note_off_c, 9, 40, 95
7, 422160, Note_on_c, 9, 40, 95
7, 422400, Note_off_c, 9, 40, 95
7, 422400, Note_on_c, 9, 49, 95
7, 422400, Note_on_c, 9, 35, 95
7, 423360, Note_off_c, 9, 49, 95
7, 423360, Note_off_c, 9, 35, 95
7, 423360, Note_on_c, 9, 46, 95
7, 423360, Note_on_c, 9, 40, 95
7, 424080, Note_off_c, 9, 46, 95
7, 424080, Note_off_c, 9, 40, 95
7, 424080, Note_on_c, 9, 40, 95
7, 424320, Note_off_c, 9, 40, 95
7, 424320, Note_on_c, 9, 49, 95
7, 424320, Note_on_c, 9, 35, 95
7, 424800, Note_off_c, 9, 49, 95
7, 424800, Note_off_c, 9, 35, 95
7, 424800, Note_on_c, 9, 55, 95
7, 425280, Note_off_c, 9, 55, 95
7, 425280, Note_on_c, 9, 52, 95
7, 425280, Note_on_c, 9, 40, 95
7, 425760, Note_off_c, 9, 52, 95
7, 425760, Note_off_c, 9, 40, 95
7, 425760, Note_on_c, 9, 46, 95
7, 425760, Note_on_c, 9, 35, 95
7, 426240, Note_off_c, 9, 46, 95
7, 426240, Note_off_c, 9, 35, 95
7, 426240, Note_on_c, 9, 49, 95
7, 426240, Note_on_c, 9, 35, 95
7, 427200, Note_off_c, 9, 49, 95
7, 427200, Note_off_c, 9, 35, 95
7, 427200, Note_on_c, 9, 46, 95
7, 427200, Note_on_c, 9, 40, 95
7, 427920, Note_off_c, 9, 46, 95
7, 427920, Note_off_c, 9, 40, 95
7, 427920, Note_on_c, 9, 40, 95
7, 428160, Note_off_c, 9, 40, 95
7, 428160, Note_on_c, 9, 49, 95
7, 428160, Note_on_c, 9, 35, 95
7, 428640, Note_off_c, 9, 49, 95
7, 428640, Note_off_c, 9, 35, 95
7, 428640, Note_on_c, 9, 55, 95
7, 429120, Note_off_c, 9, 55, 95
7, 429120, Note_on_c, 9, 52, 95
7, 429120, Note_on_c, 9, 40, 95
7, 429600, Note_off_c, 9, 52, 95
7, 429600, Note_off_c, 9, 40, 95
7, 429600, Note_on_c, 9, 46, 95
7, 429600, Note_on_c, 9, 35, 95
7, 430080, Note_off_c, 9, 46, 95
7, 430080, Note_off_c, 9, 35, 95
7, 430080, Note_on_c, 9, 49, 95
7, 430080, Note_on_c, 9, 35, 95
7, 431040, Note_off_c, 9, 49, 95
7, 431040, Note_off_c, 9, 35, 95
7, 432000, Note_on_c, 9, 49, 95
7, 432000, Note_on_c, 9, 35, 95
7, 432960, Note_off_c, 9, 49, 95
7, 432960, Note_off_c, 9, 35, 95
7, 433920, Note_on_c, 9, 49, 95
7, 433920, Note_on_c, 9, 35, 95
7, 434880, Note_off_c, 9, 49, 95
7, 434880, Note_off_c, 9, 35, 95
7, 434880, Note_on_c, 9, 46, 95
7, 434880, Note_on_c, 9, 40, 95
7, 435600, Note_off_c, 9, 46, 95
7, 435600, Note_off_c, 9, 40, 95
7, 435600, Note_on_c, 9, 40, 95
7, 435840, Note_off_c, 9, 40, 95
7, 435840, Note_on_c, 9, 46, 95
7, 436320, Note_off_c, 9, 46, 95
7, 436320, Note_on_c, 9, 35, 95
7, 436800, Note_off_c, 9, 35, 95
7, 436800, Note_on_c, 9, 46, 95
7, 436800, Note_on_c, 9, 40, 95
7, 437760, Note_off_c, 9, 46, 95
7, 437760, Note_off_c, 9, 40, 95
7, 437760, Note_on_c, 9, 35, 95
7, 437760, Note_on_c, 9, 46, 95
7, 438720, Note_off_c, 9, 35, 95
7, 438720, Note_off_c, 9, 46, 95
7, 438720, Note_on_c, 9, 46, 95
7, 438720, Note_on_c, 9, 40, 95
7, 439440, Note_off_c, 9, 46, 95
7, 439440, Note_off_c, 9, 40, 95
7, 439440, Note_on_c, 9, 40, 95
7, 439680, Note_off_c, 9, 40, 95
7, 439680, Note_on_c, 9, 46, 95
7, 440160, Note_off_c, 9, 46, 95
7, 440160, Note_on_c, 9, 35, 95
7, 440640, Note_off_c, 9, 35, 95
7, 440640, Note_on_c, 9, 46, 95
7, 440640, Note_on_c, 9, 40, 95
7, 441120, Note_off_c, 9, 46, 95
7, 441120, Note_off_c, 9, 40, 95
7, 441120, Note_on_c, 9, 35, 95
7, 441600, Note_off_c, 9, 35, 95
7, 441600, Note_on_c, 9, 49, 95
7, 441600, Note_on_c, 9, 35, 95
7, 442560, Note_off_c, 9, 49, 95
7, 442560, Note_off_c, 9, 35, 95
7, 442560, Note_on_c, 9, 46, 95
7, 442560, Note_on_c, 9, 40, 95
7, 443280, Note_off_c, 9, 46, 95
7, 443280, Note_off_c, 9, 40, 95
7, 443280, Note_on_c, 9, 40, 95
7, 443520, Note_off_c, 9, 40, 95
7, 443520, Note_on_c, 9, 46, 95
7, 444000, Note_off_c, 9, 46, 95
7, 444000, Note_on_c, 9, 35, 95
7, 444480, Note_off_c, 9, 35, 95
7, 444480, Note_on_c, 9, 46, 95
7, 444480, Note_on_c, 9, 40, 95
7, 445440, Note_off_c, 9, 46, 95
7, 445440, Note_off_c, 9, 40, 95
7, 445440, Note_on_c, 9, 35, 95
7, 445440, Note_on_c, 9, 46, 95
7, 446400, Note_off_c, 9, 35, 95
7, 446400, Note_off_c, 9, 46, 95
7, 446400, Note_on_c, 9, 46, 95
7, 446400, Note_on_c, 9, 40, 95
7, 447120, Note_off_c, 9, 46, 95
7, 447120, Note_off_c, 9, 40, 95
7, 447120, Note_on_c, 9, 40, 95
7, 447360, Note_off_c, 9, 40, 95
7, 447360, Note_on_c, 9, 46, 95
7, 447840, Note_off_c, 9, 46, 95
7, 447840, Note_on_c, 9, 35, 95
7, 448320, Note_off_c, 9, 35, 95
7, 448320, Note_on_c, 9, 46, 95
7, 448320, Note_on_c, 9, 40, 95
7, 448800, Note_off_c, 9, 46, 95
7, 448800, Note_off_c, 9, 40, 95
7, 448800, Note_on_c, 9, 35, 95
7, 448800, Note_on_c, 9, 55, 95
7, 449280, Note_off_c, 9, 35, 95
7, 449280, Note_off_c, 9, 55, 95
7, 449280, Note_on_c, 9, 49, 95
7, 449280, Note_on_c, 9, 35, 95
7, 450240, Note_off_c, 9, 49, 95
7, 450240, Note_off_c, 9, 35, 95
7, 450240, Note_on_c, 9, 46, 95
7, 450240, Note_on_c, 9, 40, 95
7, 450960, Note_off_c, 9, 46, 95
7, 450960, Note_off_c, 9, 40, 95
7, 450960, Note_on_c, 9, 40, 95
7, 451200, Note_off_c, 9, 40, 95
7, 451200, Note_on_c, 9, 49, 95
7, 451200, Note_on_c, 9, 35, 95
7, 452160, Note_off_c, 9, 49, 95
7, 452160, Note_off_c, 9, 35, 95
7, 452160, Note_on_c, 9, 46, 95
7, 452160, Note_on_c, 9, 40, 95
7, 452880, Note_off_c, 9, 46, 95
7, 452880, Note_off_c, 9, 40, 95
7, 452880, Note_on_c, 9, 40, 95
7, 453120, Note_off_c, 9, 40, 95
7, 453120, Note_on_c, 9, 49, 95
7, 453120, Note_on_c, 9, 35, 95
7, 453600, Note_off_c, 9, 49, 95
7, 453600, Note_off_c, 9, 35, 95
7, 453600, Note_on_c, 9, 55, 95
7, 454080, Note_off_c, 9, 55, 95
7, 454080, Note_on_c, 9, 46, 95
7, 454080, Note_on_c, 9, 40, 95
7, 454560, Note_off_c, 9, 46, 95
7, 454560, Note_off_c, 9, 40, 95
7, 454560, Note_on_c, 9, 44, 95
7, 454800, Note_off_c, 9, 44, 95
7, 454800, Note_on_c, 9, 40, 95
7, 455040, Note_off_c, 9, 40, 95
7, 455040, Note_on_c, 9, 49, 95
7, 455040, Note_on_c, 9, 35, 95
7, 455520, Note_off_c, 9, 49, 95
7, 455520, Note_off_c, 9, 35, 95
7, 455520, Note_on_c, 9, 55, 95
7, 455520, Note_on_c, 9, 35, 95
7, 456000, Note_off_c, 9, 55, 95
7, 456000, Note_off_c, 9, 35, 95
7, 456000, Note_on_c, 9, 46, 95
7, 456000, Note_on_c, 9, 40, 95
7, 456480, Note_off_c, 9, 46, 95
7, 456480, Note_off_c, 9, 40, 95
7, 456480, Note_on_c, 9, 44, 95
7, 456480, Note_on_c, 9, 35, 95
7, 456960, Note_off_c, 9, 44, 95
7, 456960, Note_off_c, 9, 35, 95
7, 456960, Note_on_c, 9, 49, 95
7, 456960, Note_on_c, 9, 35, 95
7, 457920, Note_off_c, 9, 49, 95
7, 457920, Note_off_c, 9, 35, 95
7, 457920, Note_on_c, 9, 46, 95
7, 457920, Note_on_c, 9, 40, 95
7, 458640, Note_off_c, 9, 46, 95
7, 458640, Note_off_c, 9, 40, 95
7, 458640, Note_on_c, 9, 40, 95
7, 458880, Note_off_c, 9, 40, 95
7, 458880, Note_on_c, 9, 49, 95
7, 458880, Note_on_c, 9, 35, 95
7, 459840, Note_off_c, 9, 49, 95
7, 459840, Note_off_c, 9, 35, 95
7, 459840, Note_on_c, 9, 46, 95
7, 459840, Note_on_c, 9, 40, 95
7, 460560, Note_off_c, 9, 46, 95
7, 460560, Note_off_c, 9, 40, 95
7, 460560, Note_on_c, 9, 40, 95
7, 460800, Note_off_c, 9, 40, 95
7, 460800, Note_on_c, 9, 49, 95
7, 460800, Note_on_c, 9, 35, 95
7, 461760, Note_off_c, 9, 49, 95
7, 461760, Note_off_c, 9, 35, 95
7, 461760, Note_on_c, 9, 46, 95
7, 461760, Note_on_c, 9, 40, 95
7, 462480, Note_off_c, 9, 46, 95
7, 462480, Note_off_c, 9, 40, 95
7, 462480, Note_on_c, 9, 40, 95
7, 462720, Note_off_c, 9, 40, 95
7, 462720, Note_on_c, 9, 49, 95
7, 462720, Note_on_c, 9, 35, 95
7, 463200, Note_off_c, 9, 49, 95
7, 463200, Note_off_c, 9, 35, 95
7, 463200, Note_on_c, 9, 55, 95
7, 463680, Note_off_c, 9, 55, 95
7, 463680, Note_on_c, 9, 52, 95
7, 463680, Note_on_c, 9, 40, 95
7, 464160, Note_off_c, 9, 52, 95
7, 464160, Note_off_c, 9, 40, 95
7, 464160, Note_on_c, 9, 46, 95
7, 464160, Note_on_c, 9, 35, 95
7, 464640, Note_off_c, 9, 46, 95
7, 464640, Note_off_c, 9, 35, 95
7, 464640, Note_on_c, 9, 49, 95
7, 464640, Note_on_c, 9, 35, 95
7, 465600, Note_off_c, 9, 49, 95
7, 465600, Note_off_c, 9, 35, 95
7, 465600, Note_on_c, 9, 46, 95
7, 465600, Note_on_c, 9, 40, 95
7, 466320, Note_off_c, 9, 46, 95
7, 466320, Note_off_c, 9, 40, 95
7, 466320, Note_on_c, 9, 40, 95
7, 466560, Note_off_c, 9, 40, 95
7, 466560, Note_on_c, 9, 49, 95
7, 466560, Note_on_c, 9, 35, 95
7, 467040, Note_off_c, 9, 49, 95
7, 467040, Note_off_c, 9, 35, 95
7, 467040, Note_on_c, 9, 55, 95
7, 467520, Note_off_c, 9, 55, 95
7, 467520, Note_on_c, 9, 52, 95
7, 467520, Note_on_c, 9, 40, 95
7, 468000, Note_off_c, 9, 52, 95
7, 468000, Note_off_c, 9, 40, 95
7, 468000, Note_on_c, 9, 46, 95
7, 468000, Note_on_c, 9, 35, 95
7, 468480, Note_off_c, 9, 46, 95
7, 468480, Note_off_c, 9, 35, 95
7, 468480, Note_on_c, 9, 49, 95
7, 468480, Note_on_c, 9, 35, 95
7, 469440, Note_off_c, 9, 49, 95
7, 469440, Note_off_c, 9, 35, 95
7, 470400, Note_on_c, 9, 49, 95
7, 470400, Note_on_c, 9, 35, 95
7, 471360, Note_off_c, 9, 49, 95
7, 471360, Note_off_c, 9, 35, 95
7, 472320, Note_on_c, 9, 49, 95
7, 472320, Note_on_c, 9, 35, 95
7, 473280, Note_off_c, 9, 49, 95
7, 473280, Note_off_c, 9, 35, 95
7, 473280, Note_on_c, 9, 49, 95
7, 473760, Note_off_c, 9, 49, 95
7, 473760, Note_on_c, 9, 35, 95
7, 474240, Note_off_c, 9, 35, 95
7, 474240, Note_on_c, 9, 49, 95
7, 474240, Note_on_c, 9, 40, 95
7, 475200, Note_off_c, 9, 49, 95
7, 475200, Note_off_c, 9, 40, 95
7, 475200, Note_on_c, 9, 49, 95
7, 476160, Note_off_c, 9, 49, 95
7, 476160, Note_on_c, 9, 49, 95
7, 476160, Note_on_c, 9, 35, 95
7, 477120, Note_off_c, 9, 49, 95
7, 477120, Note_off_c, 9, 35, 95
7, 477120, Note_on_c, 9, 49, 95
7, 477600, Note_off_c, 9, 49, 95
7, 477600, Note_on_c, 9, 35, 95
7, 478080, Note_off_c, 9, 35, 95
7, 478080, Note_on_c, 9, 49, 95
7, 478080, Note_on_c, 9, 40, 95
7, 479040, Note_off_c, 9, 49, 95
7, 479040, Note_off_c, 9, 40, 95
7, 479040, Note_on_c, 9, 49, 95
7, 480000, Note_off_c, 9, 49, 95
7, 480000, Note_on_c, 9, 49, 95
7, 480000, Note_on_c, 9, 35, 95
7, 480960, Note_off_c, 9, 49, 95
7, 480960, Note_off_c, 9, 35, 95
7, 480960, Note_on_c, 9, 49, 95
7, 481440, Note_off_c, 9, 49, 95
7, 481440, Note_on_c, 9, 35, 95
7, 481920, Note_off_c, 9, 35, 95
7, 481920, Note_on_c, 9, 49, 95
7, 481920, Note_on_c, 9, 40, 95
7, 482880, Note_off_c, 9, 49, 95
7, 482880, Note_off_c, 9, 40, 95
7, 482880, Note_on_c, 9, 49, 95
7, 483840, Note_off_c, 9, 49, 95
7, 483840, Note_on_c, 9, 49, 95
7, 483840, Note_on_c, 9, 35, 95
7, 484320, Note_off_c, 9, 49, 95
7, 484320, Note_off_c, 9, 35, 95
7, 484320, Note_on_c, 9, 35, 95
7, 484320, Note_on_c, 9, 55, 95
7, 484800, Note_off_c, 9, 35, 95
7, 484800, Note_off_c, 9, 55, 95
7, 484800, Note_on_c, 9, 49, 95
7, 484800, Note_on_c, 9, 40, 95
7, 485280, Note_off_c, 9, 49, 95
7, 485280, Note_off_c, 9, 40, 95
7, 485280, Note_on_c, 9, 55, 95
7, 485760, Note_off_c, 9, 55, 95
7, 485760, Note_on_c, 9, 49, 95
7, 485760, Note_on_c, 9, 35, 95
7, 486240, Note_off_c, 9, 49, 95
7, 486240, Note_off_c, 9, 35, 95
7, 486240, Note_on_c, 9, 35, 95
7, 486240, Note_on_c, 9, 55, 95
7, 486720, Note_off_c, 9, 35, 95
7, 486720, Note_off_c, 9, 55, 95
7, 486720, Note_on_c, 9, 49, 95
7, 486720, Note_on_c, 9, 40, 95
7, 487200, Note_off_c, 9, 49, 95
7, 487200, Note_off_c, 9, 40, 95
7, 487200, Note_on_c, 9, 55, 95
7, 487680, Note_off_c, 9, 55, 95
7, 487680, Note_on_c, 9, 49, 95
7, 487680, Note_on_c, 9, 35, 95
7, 488640, Note_off_c, 9, 49, 95
7, 488640, Note_off_c, 9, 35, 95
7, 488640, Note_on_c, 9, 49, 95
7, 489120, Note_off_c, 9, 49, 95
7, 489120, Note_on_c, 9, 35, 95
7, 489600, Note_off_c, 9, 35, 95
7, 489600, Note_on_c, 9, 49, 95
7, 489600, Note_on_c, 9, 40, 95
7, 490560, Note_off_c, 9, 49, 95
7, 490560, Note_off_c, 9, 40, 95
7, 490560, Note_on_c, 9, 49, 95
7, 491520, Note_off_c, 9, 49, 95
7, 491520, Note_on_c, 9, 49, 95
7, 491520, Note_on_c, 9, 35, 95
7, 492480, Note_off_c, 9, 49, 95
7, 492480, Note_off_c, 9, 35, 95
7, 492480, Note_on_c, 9, 49, 95
7, 492960, Note_off_c, 9, 49, 95
7, 492960, Note_on_c, 9, 35, 95
7, 493440, Note_off_c, 9, 35, 95
7, 493440, Note_on_c, 9, 49, 95
7, 493440, Note_on_c, 9, 40, 95
7, 494400, Note_off_c, 9, 49, 95
7, 494400, Note_off_c, 9, 40, 95
7, 494400, Note_on_c, 9, 49, 95
7, 495360, Note_off_c, 9, 49, 95
7, 495360, Note_on_c, 9, 49, 95
7, 495360, Note_on_c, 9, 35, 95
7, 496320, Note_off_c, 9, 49, 95
7, 496320, Note_off_c, 9, 35, 95
7, 496320, Note_on_c, 9, 49, 95
7, 496800, Note_off_c, 9, 49, 95
7, 496800, Note_on_c, 9, 35, 95
7, 497280, Note_off_c, 9, 35, 95
7, 497280, Note_on_c, 9, 49, 95
7, 497280, Note_on_c, 9, 40, 95
7, 498240, Note_off_c, 9, 49, 95
7, 498240, Note_off_c, 9, 40, 95
7, 498240, Note_on_c, 9, 49, 95
7, 499200, Note_off_c, 9, 49, 95
7, 499200, Note_on_c, 9, 49, 95
7, 499200, Note_on_c, 9, 35, 95
7, 499680, Note_off_c, 9, 49, 95
7, 499680, Note_off_c, 9, 35, 95
7, 499680, Note_on_c, 9, 35, 95
7, 499680, Note_on_c, 9, 55, 95
7, 500160, Note_off_c, 9, 35, 95
7, 500160, Note_off_c, 9, 55, 95
7, 500160, Note_on_c, 9, 49, 95
7, 500160, Note_on_c, 9, 40, 95
7, 500640, Note_off_c, 9, 49, 95
7, 500640, Note_off_c, 9, 40, 95
7, 500640, Note_on_c, 9, 55, 95
7, 501120, Note_off_c, 9, 55, 95
7, 501120, Note_on_c, 9, 49, 95
7, 501120, Note_on_c, 9, 35, 95
7, 501600, Note_off_c, 9, 49, 95
7, 501600, Note_off_c, 9, 35, 95
7, 501600, Note_on_c, 9, 35, 95
7, 501600, Note_on_c, 9, 55, 95
7, 502080, Note_off_c, 9, 35, 95
7, 502080, Note_off_c, 9, 55, 95
7, 502080, Note_on_c, 9, 49, 95
7, 502080, Note_on_c, 9, 40, 95
7, 502320, Note_off_c, 9, 49, 95
7, 502320, Note_off_c, 9, 40, 95
7, 502320, Note_on_c, 9, 40, 95
7, 502560, Note_off_c, 9, 40, 95
7, 502560, Note_on_c, 9, 40, 95
7, 502800, Note_off_c, 9, 40, 95
7, 502800, Note_on_c, 9, 40, 95
7, 503040, Note_off_c, 9, 40, 95
7, 503040, Note_on_c, 9, 49, 95
7, 503040, Note_on_c, 9, 40, 95
7, 503520, Note_off_c, 9, 49, 95
7, 503520, Note_off_c, 9, 40, 95
7, 503520, Note_on_c, 9, 49, 95
7, 503520, Note_on_c, 9, 40, 95
7, 504000, Note_off_c, 9, 49, 95
7, 504000, Note_off_c, 9, 40, 95
7, 504000, Note_on_c, 9, 35, 95
7, 504240, Note_off_c, 9, 35, 95
7, 504240, Note_on_c, 9, 35, 95
7, 504480, Note_off_c, 9, 35, 95
7, 504480, Note_on_c, 9, 35, 95
7, 504720, Note_off_c, 9, 35, 95
7, 504720, Note_on_c, 9, 35, 95
7, 504960, Note_off_c, 9, 35, 95
7, 504960, Note_on_c, 9, 49, 95
7, 504960, Note_on_c, 9, 40, 95
7, 505440, Note_off_c, 9, 49, 95
7, 505440, Note_off_c, 9, 40, 95
7, 505440, Note_on_c, 9, 49, 95
7, 505440, Note_on_c, 9, 40, 95
7, 505920, Note_off_c, 9, 49, 95
7, 505920, Note_off_c, 9, 40, 95
7, 505920, Note_on_c, 9, 35, 95
7, 506160, Note_off_c, 9, 35, 95
7, 506160, Note_on_c, 9, 35, 95
7, 506400, Note_off_c, 9, 35, 95
7, 506400, Note_on_c, 9, 35, 95
7, 506640, Note_off_c, 9, 35, 95
7, 506640, Note_on_c, 9, 35, 95
7, 506880, Note_off_c, 9, 35, 95
7, 506880, Note_on_c, 9, 49, 95
7, 506880, Note_on_c, 9, 40, 95
7, 507360, Note_off_c, 9, 49, 95
7, 507360, Note_off_c, 9, 40, 95
7, 507360, Note_on_c, 9, 49, 95
7, 507360, Note_on_c, 9, 40, 95
7, 507840, Note_off_c, 9, 49, 95
7, 507840, Note_off_c, 9, 40, 95
7, 507840, Note_on_c, 9, 35, 95
7, 508080, Note_off_c, 9, 35, 95
7, 508080, Note_on_c, 9, 35, 95
7, 508320, Note_off_c, 9, 35, 95
7, 508320, Note_on_c, 9, 35, 95
7, 508560, Note_off_c, 9, 35, 95
7, 508560, Note_on_c, 9, 35, 95
7, 508800, Note_off_c, 9, 35, 95
7, 508800, Note_on_c, 9, 49, 95
7, 508800, Note_on_c, 9, 40, 95
7, 509280, Note_off_c, 9, 49, 95
7, 509280, Note_off_c, 9, 40, 95
7, 509280, Note_on_c, 9, 49, 95
7, 509280, Note_on_c, 9, 40, 95
7, 509760, Note_off_c, 9, 49, 95
7, 509760, Note_off_c, 9, 40, 95
7, 509760, Note_on_c, 9, 35, 95
7, 510000, Note_off_c, 9, 35, 95
7, 510000, Note_on_c, 9, 35, 95
7, 510240, Note_off_c, 9, 35, 95
7, 510240, Note_on_c, 9, 35, 95
7, 510480, Note_off_c, 9, 35, 95
7, 510480, Note_on_c, 9, 35, 95
7, 510720, Note_off_c, 9, 35, 95
7, 510720, Note_on_c, 9, 49, 95
7, 510720, Note_on_c, 9, 40, 95
7, 511200, Note_off_c, 9, 49, 95
7, 511200, Note_off_c, 9, 40, 95
7, 511200, Note_on_c, 9, 49, 95
7, 511200, Note_on_c, 9, 40, 95
7, 511680, Note_off_c, 9, 49, 95
7, 511680, Note_off_c, 9, 40, 95
7, 511680, Note_on_c, 9, 35, 95
7, 511920, Note_off_c, 9, 35, 95
7, 511920, Note_on_c, 9, 35, 95
7, 512160, Note_off_c, 9, 35, 95
7, 512160, Note_on_c, 9, 35, 95
7, 512400, Note_off_c, 9, 35, 95
7, 512400, Note_on_c, 9, 35, 95
7, 512640, Note_off_c, 9, 35, 95
7, 512640, Note_on_c, 9, 49, 95
7, 512640, Note_on_c, 9, 40, 95
7, 513120, Note_off_c, 9, 49, 95
7, 513120, Note_off_c, 9, 40, 95
7, 513120, Note_on_c, 9, 49, 95
7, 513120, Note_on_c, 9, 40, 95
7, 513600, Note_off_c, 9, 49, 95
7, 513600, Note_off_c, 9, 40, 95
7, 513600, Note_on_c, 9, 35, 95
7, 513840, Note_off_c, 9, 35, 95
7, 513840, Note_on_c, 9, 35, 95
7, 514080, Note_off_c, 9, 35, 95
7, 514080, Note_on_c, 9, 35, 95
7, 514320, Note_off_c, 9, 35, 95
7, 514320, Note_on_c, 9, 35, 95
7, 514560, Note_off_c, 9, 35, 95
7, 514560, Note_on_c, 9, 49, 95
7, 514560, Note_on_c, 9, 40, 95
7, 515040, Note_off_c, 9, 49, 95
7, 515040, Note_off_c, 9, 40, 95
7, 515040, Note_on_c, 9, 49, 95
7, 515040, Note_on_c, 9, 40, 95
7, 515520, Note_off_c, 9, 49, 95
7, 515520, Note_off_c, 9, 40, 95
7, 515520, Note_on_c, 9, 35, 95
7, 515760, Note_off_c, 9, 35, 95
7, 515760, Note_on_c, 9, 35, 95
7, 516000, Note_off_c, 9, 35, 95
7, 516000, Note_on_c, 9, 35, 95
7, 516240, Note_off_c, 9, 35, 95
7, 516240, Note_on_c, 9, 35, 95
7, 516480, Note_off_c, 9, 35, 95
7, 516480, Note_on_c, 9, 49, 95
7, 516480, Note_on_c, 9, 40, 95
7, 516960, Note_off_c, 9, 49, 95
7, 516960, Note_off_c, 9, 40, 95
7, 516960, Note_on_c, 9, 49, 95
7, 516960, Note_on_c, 9, 40, 95
7, 517440, Note_off_c, 9, 49, 95
7, 517440, Note_off_c, 9, 40, 95
7, 517440, Note_on_c, 9, 35, 95
7, 517680, Note_off_c, 9, 35, 95
7, 517680, Note_on_c, 9, 35, 95
7, 517920, Note_off_c, 9, 35, 95
7, 517920, Note_on_c, 9, 35, 95
7, 518160, Note_off_c, 9, 35, 95
7, 518160, Note_on_c, 9, 35, 95
7, 518400, Note_off_c, 9, 35, 95
7, 518400, Note_on_c, 9, 49, 95
7, 518400, Note_on_c, 9, 35, 95
7, 519360, Note_off_c, 9, 49, 95
7, 519360, Note_off_c, 9, 35, 95
7, 519360, Note_on_c, 9, 40, 95
7, 519360, Note_on_c, 9, 49, 95
7, 520080, Note_off_c, 9, 40, 95
7, 520080, Note_off_c, 9, 49, 95
7, 520080, Note_on_c, 9, 40, 95
7, 520320, Note_off_c, 9, 40, 95
7, 520320, Note_on_c, 9, 49, 95
7, 520320, Note_on_c, 9, 35, 95
7, 520800, Note_off_c, 9, 49, 95
7, 520800, Note_off_c, 9, 35, 95
7, 520800, Note_on_c, 9, 35, 95
7, 521280, Note_off_c, 9, 35, 95
7, 521280, Note_on_c, 9, 40, 95
7, 521280, Note_on_c, 9, 49, 95
7, 522240, Note_off_c, 9, 40, 95
7, 522240, Note_off_c, 9, 49, 95
7, 522240, Note_on_c, 9, 35, 95
7, 522240, Note_on_c, 9, 49, 95
7, 523200, Note_off_c, 9, 35, 95
7, 523200, Note_off_c, 9, 49, 95
7, 523200, Note_on_c, 9, 40, 95
7, 523200, Note_on_c, 9, 49, 95
7, 523920, Note_off_c, 9, 40, 95
7, 523920, Note_off_c, 9, 49, 95
7, 523920, Note_on_c, 9, 40, 95
7, 524160, Note_off_c, 9, 40, 95
7, 524160, Note_on_c, 9, 49, 95
7, 524160, Note_on_c, 9, 35, 95
7, 524640, Note_off_c, 9, 49, 95
7, 524640, Note_off_c, 9, 35, 95
7, 524640, Note_on_c, 9, 35, 95
7, 525120, Note_off_c, 9, 35, 95
7, 525120, Note_on_c, 9, 40, 95
7, 525120, Note_on_c, 9, 49, 95
7, 525600, Note_off_c, 9, 40, 95
7, 525600, Note_off_c, 9, 49, 95
7, 525600, Note_on_c, 9, 35, 95
7, 526080, Note_off_c, 9, 35, 95
7, 526080, Note_on_c, 9, 49, 95
7, 526080, Note_on_c, 9, 35, 95
7, 527040, Note_off_c, 9, 49, 95
7, 527040, Note_off_c, 9, 35, 95
7, 527040, Note_on_c, 9, 40, 95
7, 527040, Note_on_c, 9, 49, 95
7, 527760, Note_off_c, 9, 40, 95
7, 527760, Note_off_c, 9, 49, 95
7, 527760, Note_on_c, 9, 40, 95
7, 528000, Note_off_c, 9, 40, 95
7, 528000, Note_on_c, 9, 49, 95
7, 528000, Note_on_c, 9, 35, 95
7, 528480, Note_off_c, 9, 49, 95
7, 528480, Note_off_c, 9, 35, 95
7, 528480, Note_on_c, 9, 35, 95
7, 528960, Note_off_c, 9, 35, 95
7, 528960, Note_on_c, 9, 40, 95
7, 528960, Note_on_c, 9, 49, 95
7, 529920, Note_off_c, 9, 40, 95
7, 529920, Note_off_c, 9, 49, 95
7, 529920, Note_on_c, 9, 35, 95
7, 529920, Note_on_c, 9, 49, 95
7, 530880, Note_off_c, 9, 35, 95
7, 530880, Note_off_c, 9, 49, 95
7, 530880, Note_on_c, 9, 40, 95
7, 530880, Note_on_c, 9, 49, 95
7, 531600, Note_off_c, 9, 40, 95
7, 531600, Note_off_c, 9, 49, 95
7, 531600, Note_on_c, 9, 40, 95
7, 531840, Note_off_c, 9, 40, 95
7, 531840, Note_on_c, 9, 49, 95
7, 531840, Note_on_c, 9, 35, 95
7, 532320, Note_off_c, 9, 49, 95
7, 532320, Note_off_c, 9, 35, 95
7, 532320, Note_on_c, 9, 35, 95
7, 532800, Note_off_c, 9, 35, 95
7, 532800, Note_on_c, 9, 40, 95
7, 532800, Note_on_c, 9, 49, 95
7, 533280, Note_off_c, 9, 40, 95
7, 533280, Note_off_c, 9, 49, 95
7, 533280, Note_on_c, 9, 35, 95
7, 533760, Note_off_c, 9, 35, 95
7, 533760, Note_on_c, 9, 49, 95
7, 533760, Note_on_c, 9, 40, 95
7, 534720, Note_off_c, 9, 49, 95
7, 534720, Note_off_c, 9, 40, 95
7, 534720, Note_on_c, 9, 46, 95
7, 535200, Note_off_c, 9, 46, 95
7, 535200, Note_on_c, 9, 40, 95
7, 535440, Note_off_c, 9, 40, 95
7, 535440, Note_on_c, 9, 40, 95
7, 535680, Note_off_c, 9, 40, 95
7, 535680, Note_on_c, 9, 35, 95
7, 535920, Note_off_c, 9, 35, 95
7, 535920, Note_on_c, 9, 35, 95
7, 536160, Note_off_c, 9, 35, 95
7, 536160, Note_on_c, 9, 40, 95
7, 536400, Note_off_c, 9, 40, 95
7, 536400, Note_on_c, 9, 40, 95
7, 536640, Note_off_c, 9, 40, 95
7, 536640, Note_on_c, 9, 40, 95
7, 536880, Note_off_c, 9, 40, 95
7, 536880, Note_on_c, 9, 47, 95
7, 537120, Note_off_c, 9, 47, 95
7, 537120, Note_on_c, 9, 45, 95
7, 537360, Note_off_c, 9, 45, 95
7, 537360, Note_on_c, 9, 43, 95
7, 537600, Note_off_c, 9, 43, 95
7, 537600, Note_on_c, 9, 49, 95
7, 537600, Note_on_c, 9, 40, 95
7, 537840, Note_off_c, 9, 49, 95
7, 537840, Note_off_c, 9, 40, 95
7, 537840, End_track
0, 0, End_of_file
